%TF.GenerationSoftware,KiCad,Pcbnew,5.1.5-52549c5~84~ubuntu19.04.1*%
%TF.CreationDate,2020-04-18T10:51:23+00:00*%
%TF.ProjectId,alakol,616c616b-6f6c-42e6-9b69-6361645f7063,rev.0*%
%TF.SameCoordinates,Original*%
%TF.FileFunction,Soldermask,Bot*%
%TF.FilePolarity,Negative*%
%FSLAX45Y45*%
G04 Gerber Fmt 4.5, Leading zero omitted, Abs format (unit mm)*
G04 Created by KiCad (PCBNEW 5.1.5-52549c5~84~ubuntu19.04.1) date 2020-04-18 10:51:23*
%MOMM*%
%LPD*%
G04 APERTURE LIST*
%ADD10C,0.100000*%
%ADD11C,0.150000*%
G04 APERTURE END LIST*
D10*
X12200000Y-15400000D02*
X12200000Y-15600000D01*
X19700000Y-15400000D02*
X19700000Y-15600000D01*
X12200000Y-14500000D02*
X12200000Y-15300000D01*
X19700000Y-14600000D02*
X19700000Y-15400000D01*
X12200000Y-15600000D02*
X19700000Y-15600000D01*
X12200000Y-15300000D02*
X12200000Y-15400000D01*
X12200000Y-14400000D02*
X12200000Y-14500000D01*
X12200000Y-10000000D02*
X12200000Y-14400000D01*
X12200000Y-10000000D02*
X18000000Y-10000000D01*
X19500000Y-12600000D02*
X19500000Y-11100000D01*
X19700000Y-14100000D02*
X19700000Y-14600000D01*
X20000000Y-14100000D02*
X19700000Y-14100000D01*
X20000000Y-12600000D02*
X20000000Y-14100000D01*
X20000000Y-10000000D02*
X18000000Y-10000000D01*
X20000000Y-11100000D02*
X20000000Y-10000000D01*
X20000000Y-12600000D02*
X20000000Y-11100000D01*
X19500000Y-11100000D02*
X19300000Y-11100000D01*
X19300000Y-12600000D02*
X19500000Y-12600000D01*
X19300000Y-11100000D02*
X19300000Y-12600000D01*
D11*
G36*
X14033753Y-14955764D02*
G01*
X14061051Y-14967072D01*
X14061052Y-14967072D01*
X14073419Y-14975335D01*
X14085619Y-14983487D01*
X14106513Y-15004381D01*
X14122928Y-15028948D01*
X14134236Y-15056247D01*
X14140000Y-15085226D01*
X14140000Y-15114774D01*
X14134236Y-15143753D01*
X14122928Y-15171051D01*
X14122928Y-15171052D01*
X14106513Y-15195619D01*
X14085619Y-15216513D01*
X14061052Y-15232928D01*
X14061052Y-15232928D01*
X14061051Y-15232928D01*
X14033753Y-15244236D01*
X14004774Y-15250000D01*
X13975226Y-15250000D01*
X13946247Y-15244236D01*
X13918948Y-15232928D01*
X13918948Y-15232928D01*
X13918948Y-15232928D01*
X13894381Y-15216513D01*
X13873487Y-15195619D01*
X13857072Y-15171052D01*
X13857072Y-15171051D01*
X13845764Y-15143753D01*
X13840000Y-15114774D01*
X13840000Y-15085226D01*
X13845764Y-15056247D01*
X13857072Y-15028948D01*
X13873487Y-15004381D01*
X13894381Y-14983487D01*
X13906581Y-14975335D01*
X13918948Y-14967072D01*
X13918948Y-14967072D01*
X13946247Y-14955764D01*
X13975226Y-14950000D01*
X14004774Y-14950000D01*
X14033753Y-14955764D01*
G37*
G36*
X12453753Y-14955764D02*
G01*
X12481051Y-14967072D01*
X12481052Y-14967072D01*
X12493419Y-14975335D01*
X12505619Y-14983487D01*
X12526513Y-15004381D01*
X12542928Y-15028948D01*
X12554236Y-15056247D01*
X12560000Y-15085226D01*
X12560000Y-15114774D01*
X12554236Y-15143753D01*
X12542928Y-15171051D01*
X12542928Y-15171052D01*
X12526513Y-15195619D01*
X12505619Y-15216513D01*
X12481052Y-15232928D01*
X12481052Y-15232928D01*
X12481051Y-15232928D01*
X12453753Y-15244236D01*
X12424774Y-15250000D01*
X12395226Y-15250000D01*
X12366247Y-15244236D01*
X12338948Y-15232928D01*
X12338948Y-15232928D01*
X12338948Y-15232928D01*
X12314381Y-15216513D01*
X12293487Y-15195619D01*
X12277072Y-15171052D01*
X12277072Y-15171051D01*
X12265764Y-15143753D01*
X12260000Y-15114774D01*
X12260000Y-15085226D01*
X12265764Y-15056247D01*
X12277072Y-15028948D01*
X12293487Y-15004381D01*
X12314381Y-14983487D01*
X12326581Y-14975335D01*
X12338948Y-14967072D01*
X12338948Y-14967072D01*
X12366247Y-14955764D01*
X12395226Y-14950000D01*
X12424774Y-14950000D01*
X12453753Y-14955764D01*
G37*
G36*
X16781470Y-14692496D02*
G01*
X16805128Y-14702295D01*
X16826420Y-14716522D01*
X16844528Y-14734630D01*
X16858755Y-14755922D01*
X16868554Y-14779580D01*
X16873550Y-14804696D01*
X16873550Y-14830304D01*
X16868554Y-14855420D01*
X16858755Y-14879078D01*
X16844528Y-14900370D01*
X16826420Y-14918478D01*
X16805128Y-14932704D01*
X16781470Y-14942504D01*
X16756354Y-14947500D01*
X16730746Y-14947500D01*
X16705630Y-14942504D01*
X16681972Y-14932704D01*
X16660680Y-14918478D01*
X16642572Y-14900370D01*
X16628345Y-14879078D01*
X16618546Y-14855420D01*
X16613550Y-14830304D01*
X16613550Y-14804696D01*
X16618546Y-14779580D01*
X16628345Y-14755922D01*
X16642572Y-14734630D01*
X16660680Y-14716522D01*
X16681972Y-14702295D01*
X16705630Y-14692496D01*
X16730746Y-14687500D01*
X16756354Y-14687500D01*
X16781470Y-14692496D01*
G37*
G36*
X18394370Y-14692496D02*
G01*
X18418028Y-14702295D01*
X18439320Y-14716522D01*
X18457428Y-14734630D01*
X18471655Y-14755922D01*
X18481454Y-14779580D01*
X18486450Y-14804696D01*
X18486450Y-14830304D01*
X18481454Y-14855420D01*
X18471655Y-14879078D01*
X18457428Y-14900370D01*
X18439320Y-14918478D01*
X18418028Y-14932704D01*
X18394370Y-14942504D01*
X18369254Y-14947500D01*
X18343646Y-14947500D01*
X18318530Y-14942504D01*
X18294872Y-14932704D01*
X18273580Y-14918478D01*
X18255472Y-14900370D01*
X18241246Y-14879078D01*
X18231446Y-14855420D01*
X18226450Y-14830304D01*
X18226450Y-14804696D01*
X18231446Y-14779580D01*
X18241246Y-14755922D01*
X18255472Y-14734630D01*
X18273580Y-14716522D01*
X18294872Y-14702295D01*
X18318530Y-14692496D01*
X18343646Y-14687500D01*
X18369254Y-14687500D01*
X18394370Y-14692496D01*
G37*
G36*
X19077313Y-14662690D02*
G01*
X19090837Y-14665380D01*
X19116315Y-14675934D01*
X19139245Y-14691255D01*
X19158745Y-14710755D01*
X19158745Y-14710755D01*
X19174067Y-14733685D01*
X19177158Y-14741148D01*
X19184620Y-14759163D01*
X19190000Y-14786211D01*
X19190000Y-14813789D01*
X19184620Y-14840836D01*
X19174066Y-14866315D01*
X19158745Y-14889245D01*
X19139245Y-14908745D01*
X19116315Y-14924066D01*
X19090837Y-14934620D01*
X19077313Y-14937310D01*
X19063789Y-14940000D01*
X19036211Y-14940000D01*
X19022687Y-14937310D01*
X19009164Y-14934620D01*
X18983685Y-14924066D01*
X18960755Y-14908745D01*
X18941255Y-14889245D01*
X18925934Y-14866315D01*
X18915380Y-14840836D01*
X18910000Y-14813789D01*
X18910000Y-14786211D01*
X18915380Y-14759163D01*
X18922843Y-14741148D01*
X18925934Y-14733685D01*
X18941255Y-14710755D01*
X18941255Y-14710755D01*
X18960755Y-14691255D01*
X18983685Y-14675934D01*
X19009164Y-14665380D01*
X19022687Y-14662690D01*
X19036211Y-14660000D01*
X19063789Y-14660000D01*
X19077313Y-14662690D01*
G37*
G36*
X18206732Y-14328443D02*
G01*
X18235316Y-14334129D01*
X18266709Y-14347132D01*
X18294962Y-14366010D01*
X18318990Y-14390038D01*
X18337868Y-14418291D01*
X18350871Y-14449684D01*
X18357500Y-14483010D01*
X18357500Y-14516990D01*
X18350871Y-14550316D01*
X18337868Y-14581709D01*
X18318990Y-14609962D01*
X18294962Y-14633989D01*
X18266709Y-14652868D01*
X18235316Y-14665871D01*
X18206732Y-14671557D01*
X18201990Y-14672500D01*
X18168010Y-14672500D01*
X18163268Y-14671557D01*
X18134684Y-14665871D01*
X18103291Y-14652868D01*
X18075038Y-14633989D01*
X18051011Y-14609962D01*
X18032132Y-14581709D01*
X18019129Y-14550316D01*
X18012500Y-14516990D01*
X18012500Y-14483010D01*
X18019129Y-14449684D01*
X18032132Y-14418291D01*
X18051011Y-14390038D01*
X18075038Y-14366010D01*
X18103291Y-14347132D01*
X18134684Y-14334129D01*
X18163268Y-14328443D01*
X18168010Y-14327500D01*
X18201990Y-14327500D01*
X18206732Y-14328443D01*
G37*
G36*
X16936732Y-14328443D02*
G01*
X16965316Y-14334129D01*
X16996709Y-14347132D01*
X17024962Y-14366010D01*
X17048990Y-14390038D01*
X17067868Y-14418291D01*
X17080871Y-14449684D01*
X17087500Y-14483010D01*
X17087500Y-14516990D01*
X17080871Y-14550316D01*
X17067868Y-14581709D01*
X17048990Y-14609962D01*
X17024962Y-14633989D01*
X16996709Y-14652868D01*
X16965316Y-14665871D01*
X16936732Y-14671557D01*
X16931990Y-14672500D01*
X16898010Y-14672500D01*
X16893268Y-14671557D01*
X16864684Y-14665871D01*
X16833291Y-14652868D01*
X16805038Y-14633989D01*
X16781011Y-14609962D01*
X16762132Y-14581709D01*
X16749129Y-14550316D01*
X16742500Y-14516990D01*
X16742500Y-14483010D01*
X16749129Y-14449684D01*
X16762132Y-14418291D01*
X16781011Y-14390038D01*
X16805038Y-14366010D01*
X16833291Y-14347132D01*
X16864684Y-14334129D01*
X16893268Y-14328443D01*
X16898010Y-14327500D01*
X16931990Y-14327500D01*
X16936732Y-14328443D01*
G37*
G36*
X19547313Y-14362690D02*
G01*
X19560837Y-14365380D01*
X19586315Y-14375934D01*
X19609245Y-14391255D01*
X19628745Y-14410755D01*
X19644066Y-14433685D01*
X19654620Y-14459163D01*
X19660000Y-14486211D01*
X19660000Y-14513789D01*
X19654620Y-14540836D01*
X19644066Y-14566315D01*
X19628745Y-14589245D01*
X19609245Y-14608745D01*
X19586315Y-14624066D01*
X19560837Y-14634620D01*
X19547313Y-14637310D01*
X19533789Y-14640000D01*
X19506211Y-14640000D01*
X19492687Y-14637310D01*
X19479164Y-14634620D01*
X19453685Y-14624066D01*
X19430755Y-14608745D01*
X19411255Y-14589245D01*
X19395934Y-14566315D01*
X19385380Y-14540836D01*
X19380000Y-14513789D01*
X19380000Y-14486211D01*
X19385380Y-14459163D01*
X19395934Y-14433685D01*
X19411255Y-14410755D01*
X19430755Y-14391255D01*
X19453685Y-14375934D01*
X19479164Y-14365380D01*
X19492687Y-14362690D01*
X19506211Y-14360000D01*
X19533789Y-14360000D01*
X19547313Y-14362690D01*
G37*
G36*
X19190000Y-14340000D02*
G01*
X18910000Y-14340000D01*
X18910000Y-14060000D01*
X19190000Y-14060000D01*
X19190000Y-14340000D01*
G37*
G36*
X13923753Y-13605764D02*
G01*
X13951051Y-13617072D01*
X13951052Y-13617072D01*
X13963419Y-13625335D01*
X13975619Y-13633487D01*
X13996513Y-13654381D01*
X14012928Y-13678948D01*
X14024236Y-13706247D01*
X14030000Y-13735226D01*
X14030000Y-13764774D01*
X14024236Y-13793753D01*
X14021213Y-13801052D01*
X14012928Y-13821052D01*
X13996513Y-13845619D01*
X13975619Y-13866513D01*
X13951052Y-13882928D01*
X13951052Y-13882928D01*
X13951051Y-13882928D01*
X13923753Y-13894236D01*
X13894774Y-13900000D01*
X13865226Y-13900000D01*
X13836247Y-13894236D01*
X13808948Y-13882928D01*
X13808948Y-13882928D01*
X13808948Y-13882928D01*
X13784381Y-13866513D01*
X13763487Y-13845619D01*
X13747072Y-13821052D01*
X13738787Y-13801052D01*
X13735764Y-13793753D01*
X13730000Y-13764774D01*
X13730000Y-13735226D01*
X13735764Y-13706247D01*
X13747072Y-13678948D01*
X13763487Y-13654381D01*
X13784381Y-13633487D01*
X13796581Y-13625335D01*
X13808948Y-13617072D01*
X13808948Y-13617072D01*
X13836247Y-13605764D01*
X13865226Y-13600000D01*
X13894774Y-13600000D01*
X13923753Y-13605764D01*
G37*
G36*
X12563753Y-13585764D02*
G01*
X12591051Y-13597072D01*
X12591052Y-13597072D01*
X12595434Y-13600000D01*
X12615619Y-13613487D01*
X12636513Y-13634381D01*
X12652928Y-13658948D01*
X12664236Y-13686247D01*
X12670000Y-13715226D01*
X12670000Y-13744774D01*
X12664236Y-13773753D01*
X12652928Y-13801051D01*
X12652928Y-13801052D01*
X12636513Y-13825619D01*
X12615619Y-13846513D01*
X12591052Y-13862928D01*
X12591052Y-13862928D01*
X12591051Y-13862928D01*
X12563753Y-13874236D01*
X12534774Y-13880000D01*
X12505226Y-13880000D01*
X12476247Y-13874236D01*
X12448948Y-13862928D01*
X12448948Y-13862928D01*
X12448948Y-13862928D01*
X12424381Y-13846513D01*
X12403487Y-13825619D01*
X12387072Y-13801052D01*
X12387072Y-13801051D01*
X12375764Y-13773753D01*
X12370000Y-13744774D01*
X12370000Y-13715226D01*
X12375764Y-13686247D01*
X12387072Y-13658948D01*
X12403487Y-13634381D01*
X12424381Y-13613487D01*
X12444566Y-13600000D01*
X12448948Y-13597072D01*
X12448948Y-13597072D01*
X12476247Y-13585764D01*
X12505226Y-13580000D01*
X12534774Y-13580000D01*
X12563753Y-13585764D01*
G37*
G36*
X17068252Y-13295859D02*
G01*
X17079266Y-13300421D01*
X17084631Y-13302643D01*
X17099372Y-13312492D01*
X17111908Y-13325028D01*
X17121757Y-13339769D01*
X17121757Y-13339769D01*
X17128541Y-13356148D01*
X17131340Y-13370219D01*
X17132052Y-13372564D01*
X17133207Y-13374725D01*
X17134761Y-13376619D01*
X17136655Y-13378174D01*
X17138817Y-13379329D01*
X17141161Y-13380040D01*
X17143600Y-13380280D01*
X17146039Y-13380040D01*
X17148384Y-13379329D01*
X17150545Y-13378174D01*
X17152439Y-13376619D01*
X17153993Y-13374725D01*
X17155148Y-13372564D01*
X17155860Y-13370219D01*
X17158659Y-13356148D01*
X17165443Y-13339769D01*
X17165443Y-13339769D01*
X17175292Y-13325028D01*
X17187828Y-13312492D01*
X17202569Y-13302643D01*
X17207934Y-13300421D01*
X17218948Y-13295859D01*
X17236336Y-13292400D01*
X17254064Y-13292400D01*
X17271452Y-13295859D01*
X17282466Y-13300421D01*
X17287831Y-13302643D01*
X17302572Y-13312492D01*
X17315108Y-13325028D01*
X17324957Y-13339769D01*
X17324957Y-13339769D01*
X17331741Y-13356148D01*
X17334540Y-13370219D01*
X17335252Y-13372564D01*
X17336407Y-13374725D01*
X17337961Y-13376619D01*
X17339855Y-13378174D01*
X17342017Y-13379329D01*
X17344361Y-13380040D01*
X17346800Y-13380280D01*
X17349239Y-13380040D01*
X17351584Y-13379329D01*
X17353745Y-13378174D01*
X17355639Y-13376619D01*
X17357193Y-13374725D01*
X17358348Y-13372564D01*
X17359060Y-13370219D01*
X17361859Y-13356148D01*
X17368643Y-13339769D01*
X17368643Y-13339769D01*
X17378492Y-13325028D01*
X17391028Y-13312492D01*
X17405769Y-13302643D01*
X17411134Y-13300421D01*
X17422148Y-13295859D01*
X17439536Y-13292400D01*
X17457264Y-13292400D01*
X17474652Y-13295859D01*
X17485666Y-13300421D01*
X17491031Y-13302643D01*
X17505772Y-13312492D01*
X17518308Y-13325028D01*
X17528157Y-13339769D01*
X17528157Y-13339769D01*
X17534941Y-13356148D01*
X17537740Y-13370219D01*
X17538452Y-13372564D01*
X17539607Y-13374725D01*
X17541161Y-13376619D01*
X17543055Y-13378174D01*
X17545217Y-13379329D01*
X17547561Y-13380040D01*
X17550000Y-13380280D01*
X17552439Y-13380040D01*
X17554784Y-13379329D01*
X17556945Y-13378174D01*
X17558839Y-13376619D01*
X17560393Y-13374725D01*
X17561548Y-13372564D01*
X17562260Y-13370219D01*
X17565059Y-13356148D01*
X17571843Y-13339769D01*
X17571843Y-13339769D01*
X17581692Y-13325028D01*
X17594228Y-13312492D01*
X17608969Y-13302643D01*
X17614334Y-13300421D01*
X17625348Y-13295859D01*
X17642736Y-13292400D01*
X17660464Y-13292400D01*
X17677852Y-13295859D01*
X17688866Y-13300421D01*
X17694231Y-13302643D01*
X17708972Y-13312492D01*
X17721508Y-13325028D01*
X17731357Y-13339769D01*
X17731357Y-13339769D01*
X17738141Y-13356148D01*
X17740940Y-13370219D01*
X17741652Y-13372564D01*
X17742807Y-13374725D01*
X17744361Y-13376619D01*
X17746255Y-13378174D01*
X17748417Y-13379329D01*
X17750761Y-13380040D01*
X17753200Y-13380280D01*
X17755639Y-13380040D01*
X17757984Y-13379329D01*
X17760145Y-13378174D01*
X17762039Y-13376619D01*
X17763593Y-13374725D01*
X17764748Y-13372564D01*
X17765460Y-13370219D01*
X17768259Y-13356148D01*
X17775043Y-13339769D01*
X17775043Y-13339769D01*
X17784892Y-13325028D01*
X17797428Y-13312492D01*
X17812169Y-13302643D01*
X17817534Y-13300421D01*
X17828548Y-13295859D01*
X17845936Y-13292400D01*
X17863664Y-13292400D01*
X17881052Y-13295859D01*
X17892066Y-13300421D01*
X17897431Y-13302643D01*
X17912172Y-13312492D01*
X17924708Y-13325028D01*
X17934557Y-13339769D01*
X17934557Y-13339769D01*
X17941341Y-13356148D01*
X17944140Y-13370219D01*
X17944852Y-13372564D01*
X17946007Y-13374725D01*
X17947561Y-13376619D01*
X17949455Y-13378174D01*
X17951617Y-13379329D01*
X17953961Y-13380040D01*
X17956400Y-13380280D01*
X17958839Y-13380040D01*
X17961184Y-13379329D01*
X17963345Y-13378174D01*
X17965239Y-13376619D01*
X17966793Y-13374725D01*
X17967948Y-13372564D01*
X17968660Y-13370219D01*
X17971459Y-13356148D01*
X17978243Y-13339769D01*
X17978243Y-13339769D01*
X17988092Y-13325028D01*
X18000628Y-13312492D01*
X18015369Y-13302643D01*
X18020734Y-13300421D01*
X18031748Y-13295859D01*
X18049136Y-13292400D01*
X18066864Y-13292400D01*
X18084252Y-13295859D01*
X18095266Y-13300421D01*
X18100631Y-13302643D01*
X18115372Y-13312492D01*
X18127908Y-13325028D01*
X18137757Y-13339769D01*
X18144541Y-13356148D01*
X18148000Y-13373536D01*
X18148000Y-13391264D01*
X18144541Y-13408652D01*
X18137757Y-13425031D01*
X18127908Y-13439772D01*
X18115372Y-13452308D01*
X18100631Y-13462157D01*
X18100631Y-13462157D01*
X18100631Y-13462157D01*
X18084252Y-13468941D01*
X18066864Y-13472400D01*
X18049136Y-13472400D01*
X18031748Y-13468941D01*
X18015369Y-13462157D01*
X18015369Y-13462157D01*
X18015369Y-13462157D01*
X18000628Y-13452308D01*
X17988092Y-13439772D01*
X17978243Y-13425031D01*
X17971459Y-13408652D01*
X17968660Y-13394581D01*
X17967948Y-13392236D01*
X17966793Y-13390075D01*
X17965239Y-13388181D01*
X17963345Y-13386626D01*
X17961184Y-13385471D01*
X17958839Y-13384760D01*
X17956400Y-13384520D01*
X17953961Y-13384760D01*
X17951617Y-13385471D01*
X17949455Y-13386626D01*
X17947561Y-13388181D01*
X17946007Y-13390075D01*
X17944852Y-13392236D01*
X17944140Y-13394581D01*
X17941341Y-13408652D01*
X17934557Y-13425031D01*
X17924708Y-13439772D01*
X17912172Y-13452308D01*
X17897431Y-13462157D01*
X17897431Y-13462157D01*
X17897431Y-13462157D01*
X17881052Y-13468941D01*
X17863664Y-13472400D01*
X17845936Y-13472400D01*
X17828548Y-13468941D01*
X17812169Y-13462157D01*
X17812169Y-13462157D01*
X17812169Y-13462157D01*
X17797428Y-13452308D01*
X17784892Y-13439772D01*
X17775043Y-13425031D01*
X17768259Y-13408652D01*
X17765460Y-13394581D01*
X17764748Y-13392236D01*
X17763593Y-13390075D01*
X17762039Y-13388181D01*
X17760145Y-13386626D01*
X17757984Y-13385471D01*
X17755639Y-13384760D01*
X17753200Y-13384520D01*
X17750761Y-13384760D01*
X17748417Y-13385471D01*
X17746255Y-13386626D01*
X17744361Y-13388181D01*
X17742807Y-13390075D01*
X17741652Y-13392236D01*
X17740940Y-13394581D01*
X17738141Y-13408652D01*
X17731357Y-13425031D01*
X17721508Y-13439772D01*
X17708972Y-13452308D01*
X17694231Y-13462157D01*
X17694231Y-13462157D01*
X17694231Y-13462157D01*
X17677852Y-13468941D01*
X17660464Y-13472400D01*
X17642736Y-13472400D01*
X17625348Y-13468941D01*
X17608969Y-13462157D01*
X17608969Y-13462157D01*
X17608969Y-13462157D01*
X17594228Y-13452308D01*
X17581692Y-13439772D01*
X17571843Y-13425031D01*
X17565059Y-13408652D01*
X17562260Y-13394581D01*
X17561548Y-13392236D01*
X17560393Y-13390075D01*
X17558839Y-13388181D01*
X17556945Y-13386626D01*
X17554784Y-13385471D01*
X17552439Y-13384760D01*
X17550000Y-13384520D01*
X17547561Y-13384760D01*
X17545217Y-13385471D01*
X17543055Y-13386626D01*
X17541161Y-13388181D01*
X17539607Y-13390075D01*
X17538452Y-13392236D01*
X17537740Y-13394581D01*
X17534941Y-13408652D01*
X17528157Y-13425031D01*
X17518308Y-13439772D01*
X17505772Y-13452308D01*
X17491031Y-13462157D01*
X17491031Y-13462157D01*
X17491031Y-13462157D01*
X17474652Y-13468941D01*
X17457264Y-13472400D01*
X17439536Y-13472400D01*
X17422148Y-13468941D01*
X17405769Y-13462157D01*
X17405769Y-13462157D01*
X17405769Y-13462157D01*
X17391028Y-13452308D01*
X17378492Y-13439772D01*
X17368643Y-13425031D01*
X17361859Y-13408652D01*
X17359060Y-13394581D01*
X17358348Y-13392236D01*
X17357193Y-13390075D01*
X17355639Y-13388181D01*
X17353745Y-13386626D01*
X17351584Y-13385471D01*
X17349239Y-13384760D01*
X17346800Y-13384520D01*
X17344361Y-13384760D01*
X17342017Y-13385471D01*
X17339855Y-13386626D01*
X17337961Y-13388181D01*
X17336407Y-13390075D01*
X17335252Y-13392236D01*
X17334540Y-13394581D01*
X17331741Y-13408652D01*
X17324957Y-13425031D01*
X17315108Y-13439772D01*
X17302572Y-13452308D01*
X17287831Y-13462157D01*
X17287831Y-13462157D01*
X17287831Y-13462157D01*
X17271452Y-13468941D01*
X17254064Y-13472400D01*
X17236336Y-13472400D01*
X17218948Y-13468941D01*
X17202569Y-13462157D01*
X17202569Y-13462157D01*
X17202569Y-13462157D01*
X17187828Y-13452308D01*
X17175292Y-13439772D01*
X17165443Y-13425031D01*
X17158659Y-13408652D01*
X17155860Y-13394581D01*
X17155148Y-13392236D01*
X17153993Y-13390075D01*
X17152439Y-13388181D01*
X17150545Y-13386626D01*
X17148384Y-13385471D01*
X17146039Y-13384760D01*
X17143600Y-13384520D01*
X17141161Y-13384760D01*
X17138817Y-13385471D01*
X17136655Y-13386626D01*
X17134761Y-13388181D01*
X17133207Y-13390075D01*
X17132052Y-13392236D01*
X17131340Y-13394581D01*
X17128541Y-13408652D01*
X17121757Y-13425031D01*
X17111908Y-13439772D01*
X17099372Y-13452308D01*
X17084631Y-13462157D01*
X17084631Y-13462157D01*
X17084631Y-13462157D01*
X17068252Y-13468941D01*
X17050864Y-13472400D01*
X17033136Y-13472400D01*
X17015748Y-13468941D01*
X16999369Y-13462157D01*
X16999369Y-13462157D01*
X16999369Y-13462157D01*
X16984628Y-13452308D01*
X16972092Y-13439772D01*
X16962243Y-13425031D01*
X16955459Y-13408652D01*
X16952000Y-13391264D01*
X16952000Y-13373536D01*
X16955459Y-13356148D01*
X16962243Y-13339769D01*
X16972092Y-13325028D01*
X16984628Y-13312492D01*
X16999369Y-13302643D01*
X17004734Y-13300421D01*
X17015748Y-13295859D01*
X17033136Y-13292400D01*
X17050864Y-13292400D01*
X17068252Y-13295859D01*
G37*
G36*
X13237067Y-13058651D02*
G01*
X13255421Y-13062302D01*
X13269743Y-13068234D01*
X13289999Y-13076624D01*
X13321118Y-13097417D01*
X13347583Y-13123882D01*
X13368376Y-13155001D01*
X13372587Y-13165169D01*
X13382698Y-13189579D01*
X13390000Y-13226287D01*
X13390000Y-13263713D01*
X13382698Y-13300421D01*
X13377698Y-13312492D01*
X13368376Y-13334999D01*
X13347583Y-13366118D01*
X13321118Y-13392583D01*
X13289999Y-13413376D01*
X13269743Y-13421766D01*
X13255421Y-13427698D01*
X13237067Y-13431349D01*
X13218713Y-13435000D01*
X13181286Y-13435000D01*
X13162933Y-13431349D01*
X13144579Y-13427698D01*
X13130257Y-13421766D01*
X13110001Y-13413376D01*
X13078882Y-13392583D01*
X13052417Y-13366118D01*
X13031624Y-13334999D01*
X13022302Y-13312492D01*
X13017302Y-13300421D01*
X13010000Y-13263713D01*
X13010000Y-13226287D01*
X13017302Y-13189579D01*
X13027413Y-13165169D01*
X13031624Y-13155001D01*
X13052417Y-13123882D01*
X13078882Y-13097417D01*
X13110001Y-13076624D01*
X13130257Y-13068234D01*
X13144579Y-13062302D01*
X13162933Y-13058651D01*
X13181286Y-13055000D01*
X13218713Y-13055000D01*
X13237067Y-13058651D01*
G37*
G36*
X17105369Y-13038562D02*
G01*
X17111809Y-13039843D01*
X17130008Y-13047381D01*
X17146386Y-13058325D01*
X17160315Y-13072254D01*
X17171259Y-13088632D01*
X17178797Y-13106831D01*
X17182640Y-13126151D01*
X17182640Y-13145849D01*
X17178797Y-13165169D01*
X17171259Y-13183368D01*
X17160315Y-13199746D01*
X17146386Y-13213675D01*
X17130008Y-13224619D01*
X17111809Y-13232157D01*
X17105369Y-13233438D01*
X17092489Y-13236000D01*
X17072791Y-13236000D01*
X17059911Y-13233438D01*
X17053471Y-13232157D01*
X17035272Y-13224619D01*
X17018894Y-13213675D01*
X17004965Y-13199746D01*
X16994021Y-13183368D01*
X16986483Y-13165169D01*
X16982640Y-13145849D01*
X16982640Y-13126151D01*
X16986483Y-13106831D01*
X16994021Y-13088632D01*
X17004965Y-13072254D01*
X17018894Y-13058325D01*
X17035272Y-13047381D01*
X17053471Y-13039843D01*
X17059911Y-13038562D01*
X17072791Y-13036000D01*
X17092489Y-13036000D01*
X17105369Y-13038562D01*
G37*
G36*
X16851369Y-13038562D02*
G01*
X16857809Y-13039843D01*
X16876008Y-13047381D01*
X16892386Y-13058325D01*
X16906315Y-13072254D01*
X16917259Y-13088632D01*
X16924797Y-13106831D01*
X16928640Y-13126151D01*
X16928640Y-13145849D01*
X16924797Y-13165169D01*
X16917259Y-13183368D01*
X16906315Y-13199746D01*
X16892386Y-13213675D01*
X16876008Y-13224619D01*
X16857809Y-13232157D01*
X16851369Y-13233438D01*
X16838489Y-13236000D01*
X16818791Y-13236000D01*
X16805911Y-13233438D01*
X16799471Y-13232157D01*
X16781272Y-13224619D01*
X16764894Y-13213675D01*
X16750965Y-13199746D01*
X16740021Y-13183368D01*
X16732483Y-13165169D01*
X16728640Y-13145849D01*
X16728640Y-13126151D01*
X16732483Y-13106831D01*
X16740021Y-13088632D01*
X16750965Y-13072254D01*
X16764894Y-13058325D01*
X16781272Y-13047381D01*
X16799471Y-13039843D01*
X16805911Y-13038562D01*
X16818791Y-13036000D01*
X16838489Y-13036000D01*
X16851369Y-13038562D01*
G37*
G36*
X18294089Y-13038562D02*
G01*
X18300529Y-13039843D01*
X18318728Y-13047381D01*
X18335106Y-13058325D01*
X18349035Y-13072254D01*
X18359979Y-13088632D01*
X18367517Y-13106831D01*
X18371360Y-13126151D01*
X18371360Y-13145849D01*
X18367517Y-13165169D01*
X18359979Y-13183368D01*
X18349035Y-13199746D01*
X18335106Y-13213675D01*
X18318728Y-13224619D01*
X18300529Y-13232157D01*
X18294089Y-13233438D01*
X18281209Y-13236000D01*
X18261511Y-13236000D01*
X18248631Y-13233438D01*
X18242191Y-13232157D01*
X18223992Y-13224619D01*
X18207614Y-13213675D01*
X18193685Y-13199746D01*
X18182741Y-13183368D01*
X18175203Y-13165169D01*
X18171360Y-13145849D01*
X18171360Y-13126151D01*
X18175203Y-13106831D01*
X18182741Y-13088632D01*
X18193685Y-13072254D01*
X18207614Y-13058325D01*
X18223992Y-13047381D01*
X18242191Y-13039843D01*
X18248631Y-13038562D01*
X18261511Y-13036000D01*
X18281209Y-13036000D01*
X18294089Y-13038562D01*
G37*
G36*
X18040089Y-13038562D02*
G01*
X18046529Y-13039843D01*
X18064728Y-13047381D01*
X18081106Y-13058325D01*
X18095035Y-13072254D01*
X18105979Y-13088632D01*
X18113517Y-13106831D01*
X18117360Y-13126151D01*
X18117360Y-13145849D01*
X18113517Y-13165169D01*
X18105979Y-13183368D01*
X18095035Y-13199746D01*
X18081106Y-13213675D01*
X18064728Y-13224619D01*
X18046529Y-13232157D01*
X18040089Y-13233438D01*
X18027209Y-13236000D01*
X18007511Y-13236000D01*
X17994631Y-13233438D01*
X17988191Y-13232157D01*
X17969992Y-13224619D01*
X17953614Y-13213675D01*
X17939685Y-13199746D01*
X17928741Y-13183368D01*
X17921203Y-13165169D01*
X17917360Y-13145849D01*
X17917360Y-13126151D01*
X17921203Y-13106831D01*
X17928741Y-13088632D01*
X17939685Y-13072254D01*
X17953614Y-13058325D01*
X17969992Y-13047381D01*
X17988191Y-13039843D01*
X17994631Y-13038562D01*
X18007511Y-13036000D01*
X18027209Y-13036000D01*
X18040089Y-13038562D01*
G37*
G36*
X13972729Y-12827562D02*
G01*
X13979169Y-12828843D01*
X13997368Y-12836381D01*
X14013746Y-12847325D01*
X14027675Y-12861254D01*
X14038619Y-12877632D01*
X14046157Y-12895831D01*
X14050000Y-12915151D01*
X14050000Y-12934849D01*
X14046157Y-12954169D01*
X14038619Y-12972368D01*
X14027675Y-12988746D01*
X14013746Y-13002675D01*
X13997368Y-13013619D01*
X13979169Y-13021157D01*
X13972729Y-13022438D01*
X13959849Y-13025000D01*
X13940151Y-13025000D01*
X13927271Y-13022438D01*
X13920831Y-13021157D01*
X13902632Y-13013619D01*
X13886254Y-13002675D01*
X13872325Y-12988746D01*
X13861381Y-12972368D01*
X13853843Y-12954169D01*
X13850000Y-12934849D01*
X13850000Y-12915151D01*
X13853843Y-12895831D01*
X13861381Y-12877632D01*
X13872325Y-12861254D01*
X13886254Y-12847325D01*
X13902632Y-12836381D01*
X13920831Y-12828843D01*
X13927271Y-12827562D01*
X13940151Y-12825000D01*
X13959849Y-12825000D01*
X13972729Y-12827562D01*
G37*
G36*
X15511255Y-12448070D02*
G01*
X15549472Y-12463900D01*
X15549472Y-12463900D01*
X15583867Y-12486882D01*
X15613118Y-12516133D01*
X15636100Y-12550528D01*
X15636100Y-12550528D01*
X15651930Y-12588745D01*
X15660000Y-12629317D01*
X15660000Y-12670683D01*
X15651930Y-12711255D01*
X15636100Y-12749472D01*
X15636100Y-12749472D01*
X15613118Y-12783867D01*
X15583867Y-12813118D01*
X15549472Y-12836100D01*
X15549472Y-12836100D01*
X15549472Y-12836100D01*
X15511255Y-12851930D01*
X15470683Y-12860000D01*
X15429317Y-12860000D01*
X15388745Y-12851930D01*
X15350528Y-12836100D01*
X15350528Y-12836100D01*
X15350528Y-12836100D01*
X15316133Y-12813118D01*
X15286882Y-12783867D01*
X15263900Y-12749472D01*
X15263900Y-12749472D01*
X15248070Y-12711255D01*
X15240000Y-12670683D01*
X15240000Y-12629317D01*
X15248070Y-12588745D01*
X15263900Y-12550528D01*
X15263900Y-12550528D01*
X15286882Y-12516133D01*
X15316133Y-12486882D01*
X15350528Y-12463900D01*
X15350528Y-12463900D01*
X15388745Y-12448070D01*
X15429317Y-12440000D01*
X15470683Y-12440000D01*
X15511255Y-12448070D01*
G37*
G36*
X13972729Y-12577562D02*
G01*
X13979169Y-12578843D01*
X13997368Y-12586381D01*
X14013746Y-12597325D01*
X14027675Y-12611254D01*
X14038619Y-12627632D01*
X14046157Y-12645831D01*
X14050000Y-12665151D01*
X14050000Y-12684849D01*
X14046157Y-12704169D01*
X14038619Y-12722368D01*
X14027675Y-12738746D01*
X14013746Y-12752675D01*
X13997368Y-12763619D01*
X13979169Y-12771157D01*
X13972729Y-12772438D01*
X13959849Y-12775000D01*
X13940151Y-12775000D01*
X13927271Y-12772438D01*
X13920831Y-12771157D01*
X13902632Y-12763619D01*
X13886254Y-12752675D01*
X13872325Y-12738746D01*
X13861381Y-12722368D01*
X13853843Y-12704169D01*
X13850000Y-12684849D01*
X13850000Y-12665151D01*
X13853843Y-12645831D01*
X13861381Y-12627632D01*
X13872325Y-12611254D01*
X13886254Y-12597325D01*
X13902632Y-12586381D01*
X13920831Y-12578843D01*
X13927271Y-12577562D01*
X13940151Y-12575000D01*
X13959849Y-12575000D01*
X13972729Y-12577562D01*
G37*
G36*
X13972729Y-12327562D02*
G01*
X13979169Y-12328843D01*
X13997368Y-12336381D01*
X14013746Y-12347325D01*
X14027675Y-12361254D01*
X14038619Y-12377632D01*
X14046157Y-12395831D01*
X14046157Y-12395831D01*
X14050000Y-12415151D01*
X14050000Y-12434849D01*
X14047438Y-12447729D01*
X14046157Y-12454169D01*
X14038619Y-12472368D01*
X14027675Y-12488746D01*
X14013746Y-12502675D01*
X13997368Y-12513619D01*
X13979169Y-12521157D01*
X13972729Y-12522438D01*
X13959849Y-12525000D01*
X13940151Y-12525000D01*
X13927271Y-12522438D01*
X13920831Y-12521157D01*
X13902632Y-12513619D01*
X13886254Y-12502675D01*
X13872325Y-12488746D01*
X13861381Y-12472368D01*
X13853843Y-12454169D01*
X13852562Y-12447729D01*
X13850000Y-12434849D01*
X13850000Y-12415151D01*
X13853843Y-12395831D01*
X13853843Y-12395831D01*
X13861381Y-12377632D01*
X13872325Y-12361254D01*
X13886254Y-12347325D01*
X13902632Y-12336381D01*
X13920831Y-12328843D01*
X13927271Y-12327562D01*
X13940151Y-12325000D01*
X13959849Y-12325000D01*
X13972729Y-12327562D01*
G37*
G36*
X19760000Y-12470000D02*
G01*
X19540000Y-12470000D01*
X19540000Y-12330000D01*
X19760000Y-12330000D01*
X19760000Y-12470000D01*
G37*
G36*
X13237067Y-11918651D02*
G01*
X13255421Y-11922302D01*
X13269743Y-11928234D01*
X13289999Y-11936624D01*
X13321118Y-11957417D01*
X13347583Y-11983882D01*
X13368376Y-12015001D01*
X13382698Y-12049579D01*
X13390000Y-12086286D01*
X13390000Y-12123713D01*
X13382698Y-12160421D01*
X13368376Y-12194999D01*
X13347583Y-12226118D01*
X13321118Y-12252583D01*
X13289999Y-12273376D01*
X13269743Y-12281766D01*
X13255421Y-12287698D01*
X13237067Y-12291349D01*
X13218713Y-12295000D01*
X13181286Y-12295000D01*
X13162933Y-12291349D01*
X13144579Y-12287698D01*
X13130257Y-12281766D01*
X13110001Y-12273376D01*
X13078882Y-12252583D01*
X13052417Y-12226118D01*
X13031624Y-12194999D01*
X13017302Y-12160421D01*
X13010000Y-12123713D01*
X13010000Y-12086286D01*
X13017302Y-12049579D01*
X13031624Y-12015001D01*
X13052417Y-11983882D01*
X13078882Y-11957417D01*
X13110001Y-11936624D01*
X13130257Y-11928234D01*
X13144579Y-11922302D01*
X13162933Y-11918651D01*
X13181286Y-11915000D01*
X13218713Y-11915000D01*
X13237067Y-11918651D01*
G37*
G36*
X19760000Y-12250000D02*
G01*
X19540000Y-12250000D01*
X19540000Y-12110000D01*
X19760000Y-12110000D01*
X19760000Y-12250000D01*
G37*
G36*
X19760000Y-12020000D02*
G01*
X19540000Y-12020000D01*
X19540000Y-11880000D01*
X19760000Y-11880000D01*
X19760000Y-12020000D01*
G37*
G36*
X19760000Y-11810000D02*
G01*
X19540000Y-11810000D01*
X19540000Y-11670000D01*
X19760000Y-11670000D01*
X19760000Y-11810000D01*
G37*
G36*
X15122729Y-11527562D02*
G01*
X15129169Y-11528843D01*
X15147368Y-11536381D01*
X15163746Y-11547325D01*
X15177675Y-11561254D01*
X15188619Y-11577632D01*
X15196157Y-11595831D01*
X15200000Y-11615151D01*
X15200000Y-11634849D01*
X15196157Y-11654169D01*
X15188619Y-11672368D01*
X15177675Y-11688746D01*
X15163746Y-11702675D01*
X15147368Y-11713619D01*
X15129169Y-11721157D01*
X15122729Y-11722438D01*
X15109849Y-11725000D01*
X15090151Y-11725000D01*
X15077271Y-11722438D01*
X15070831Y-11721157D01*
X15052632Y-11713619D01*
X15036254Y-11702675D01*
X15022325Y-11688746D01*
X15011381Y-11672368D01*
X15003843Y-11654169D01*
X15000000Y-11634849D01*
X15000000Y-11615151D01*
X15003843Y-11595831D01*
X15011381Y-11577632D01*
X15022325Y-11561254D01*
X15036254Y-11547325D01*
X15052632Y-11536381D01*
X15070831Y-11528843D01*
X15077271Y-11527562D01*
X15090151Y-11525000D01*
X15109849Y-11525000D01*
X15122729Y-11527562D01*
G37*
G36*
X13222729Y-11527562D02*
G01*
X13229169Y-11528843D01*
X13247368Y-11536381D01*
X13263746Y-11547325D01*
X13277675Y-11561254D01*
X13288619Y-11577632D01*
X13296157Y-11595831D01*
X13300000Y-11615151D01*
X13300000Y-11634849D01*
X13296157Y-11654169D01*
X13288619Y-11672368D01*
X13277675Y-11688746D01*
X13263746Y-11702675D01*
X13247368Y-11713619D01*
X13229169Y-11721157D01*
X13222729Y-11722438D01*
X13209849Y-11725000D01*
X13190151Y-11725000D01*
X13177271Y-11722438D01*
X13170831Y-11721157D01*
X13152632Y-11713619D01*
X13136254Y-11702675D01*
X13122325Y-11688746D01*
X13111381Y-11672368D01*
X13103843Y-11654169D01*
X13100000Y-11634849D01*
X13100000Y-11615151D01*
X13103843Y-11595831D01*
X13111381Y-11577632D01*
X13122325Y-11561254D01*
X13136254Y-11547325D01*
X13152632Y-11536381D01*
X13170831Y-11528843D01*
X13177271Y-11527562D01*
X13190151Y-11525000D01*
X13209849Y-11525000D01*
X13222729Y-11527562D01*
G37*
G36*
X19760000Y-11590000D02*
G01*
X19540000Y-11590000D01*
X19540000Y-11450000D01*
X19760000Y-11450000D01*
X19760000Y-11590000D01*
G37*
G36*
X14506771Y-11305579D02*
G01*
X14518524Y-11306736D01*
X14541144Y-11313598D01*
X14541144Y-11313598D01*
X14561991Y-11324741D01*
X14580263Y-11339737D01*
X14595259Y-11358009D01*
X14606402Y-11378855D01*
X14606402Y-11378856D01*
X14613264Y-11401476D01*
X14615581Y-11425000D01*
X14613264Y-11448524D01*
X14606402Y-11471144D01*
X14606402Y-11471144D01*
X14595259Y-11491991D01*
X14580263Y-11510263D01*
X14561991Y-11525259D01*
X14541144Y-11536402D01*
X14541144Y-11536402D01*
X14518524Y-11543264D01*
X14506771Y-11544421D01*
X14500895Y-11545000D01*
X14429105Y-11545000D01*
X14423229Y-11544421D01*
X14411476Y-11543264D01*
X14388856Y-11536402D01*
X14388855Y-11536402D01*
X14368009Y-11525259D01*
X14349737Y-11510263D01*
X14334741Y-11491991D01*
X14323598Y-11471144D01*
X14323598Y-11471144D01*
X14316736Y-11448524D01*
X14314419Y-11425000D01*
X14316736Y-11401476D01*
X14323598Y-11378856D01*
X14323598Y-11378855D01*
X14334741Y-11358009D01*
X14349737Y-11339737D01*
X14368009Y-11324741D01*
X14388855Y-11313598D01*
X14388856Y-11313598D01*
X14411476Y-11306736D01*
X14423229Y-11305579D01*
X14429105Y-11305000D01*
X14500895Y-11305000D01*
X14506771Y-11305579D01*
G37*
G36*
X13876771Y-11305579D02*
G01*
X13888524Y-11306736D01*
X13911144Y-11313598D01*
X13911144Y-11313598D01*
X13931991Y-11324741D01*
X13950263Y-11339737D01*
X13965259Y-11358009D01*
X13976402Y-11378855D01*
X13976402Y-11378856D01*
X13983264Y-11401476D01*
X13985581Y-11425000D01*
X13983264Y-11448524D01*
X13976402Y-11471144D01*
X13976402Y-11471144D01*
X13965259Y-11491991D01*
X13950263Y-11510263D01*
X13931991Y-11525259D01*
X13911144Y-11536402D01*
X13911144Y-11536402D01*
X13888524Y-11543264D01*
X13876771Y-11544421D01*
X13870895Y-11545000D01*
X13799105Y-11545000D01*
X13793229Y-11544421D01*
X13781476Y-11543264D01*
X13758856Y-11536402D01*
X13758855Y-11536402D01*
X13738009Y-11525259D01*
X13719737Y-11510263D01*
X13704741Y-11491991D01*
X13693598Y-11471144D01*
X13693598Y-11471144D01*
X13686736Y-11448524D01*
X13684419Y-11425000D01*
X13686736Y-11401476D01*
X13693598Y-11378856D01*
X13693598Y-11378855D01*
X13704741Y-11358009D01*
X13719737Y-11339737D01*
X13738009Y-11324741D01*
X13758855Y-11313598D01*
X13758856Y-11313598D01*
X13781476Y-11306736D01*
X13793229Y-11305579D01*
X13799105Y-11305000D01*
X13870895Y-11305000D01*
X13876771Y-11305579D01*
G37*
G36*
X15776771Y-11305579D02*
G01*
X15788524Y-11306736D01*
X15811144Y-11313598D01*
X15811144Y-11313598D01*
X15831991Y-11324741D01*
X15850263Y-11339737D01*
X15865259Y-11358009D01*
X15876402Y-11378855D01*
X15876402Y-11378856D01*
X15883264Y-11401476D01*
X15885581Y-11425000D01*
X15883264Y-11448524D01*
X15876402Y-11471144D01*
X15876402Y-11471144D01*
X15865259Y-11491991D01*
X15850263Y-11510263D01*
X15831991Y-11525259D01*
X15811144Y-11536402D01*
X15811144Y-11536402D01*
X15788524Y-11543264D01*
X15776771Y-11544421D01*
X15770895Y-11545000D01*
X15699105Y-11545000D01*
X15693229Y-11544421D01*
X15681476Y-11543264D01*
X15658856Y-11536402D01*
X15658855Y-11536402D01*
X15638009Y-11525259D01*
X15619737Y-11510263D01*
X15604741Y-11491991D01*
X15593598Y-11471144D01*
X15593598Y-11471144D01*
X15586736Y-11448524D01*
X15584419Y-11425000D01*
X15586736Y-11401476D01*
X15593598Y-11378856D01*
X15593598Y-11378855D01*
X15604741Y-11358009D01*
X15619737Y-11339737D01*
X15638009Y-11324741D01*
X15658855Y-11313598D01*
X15658856Y-11313598D01*
X15681476Y-11306736D01*
X15693229Y-11305579D01*
X15699105Y-11305000D01*
X15770895Y-11305000D01*
X15776771Y-11305579D01*
G37*
G36*
X12606771Y-11305579D02*
G01*
X12618524Y-11306736D01*
X12641144Y-11313598D01*
X12641144Y-11313598D01*
X12661991Y-11324741D01*
X12680263Y-11339737D01*
X12695259Y-11358009D01*
X12706402Y-11378855D01*
X12706402Y-11378856D01*
X12713264Y-11401476D01*
X12715581Y-11425000D01*
X12713264Y-11448524D01*
X12706402Y-11471144D01*
X12706402Y-11471144D01*
X12695259Y-11491991D01*
X12680263Y-11510263D01*
X12661991Y-11525259D01*
X12641144Y-11536402D01*
X12641144Y-11536402D01*
X12618524Y-11543264D01*
X12606771Y-11544421D01*
X12600895Y-11545000D01*
X12529105Y-11545000D01*
X12523229Y-11544421D01*
X12511476Y-11543264D01*
X12488856Y-11536402D01*
X12488855Y-11536402D01*
X12468009Y-11525259D01*
X12449737Y-11510263D01*
X12434741Y-11491991D01*
X12423598Y-11471144D01*
X12423598Y-11471144D01*
X12416736Y-11448524D01*
X12414419Y-11425000D01*
X12416736Y-11401476D01*
X12423598Y-11378856D01*
X12423598Y-11378855D01*
X12434741Y-11358009D01*
X12449737Y-11339737D01*
X12468009Y-11324741D01*
X12488855Y-11313598D01*
X12488856Y-11313598D01*
X12511476Y-11306736D01*
X12523229Y-11305579D01*
X12529105Y-11305000D01*
X12600895Y-11305000D01*
X12606771Y-11305579D01*
G37*
G36*
X19760000Y-11370000D02*
G01*
X19540000Y-11370000D01*
X19540000Y-11230000D01*
X19760000Y-11230000D01*
X19760000Y-11370000D01*
G37*
G36*
X14506771Y-10805579D02*
G01*
X14518524Y-10806736D01*
X14541144Y-10813598D01*
X14541144Y-10813598D01*
X14561991Y-10824741D01*
X14580263Y-10839737D01*
X14595259Y-10858009D01*
X14606402Y-10878856D01*
X14606402Y-10878856D01*
X14613264Y-10901476D01*
X14615581Y-10925000D01*
X14613264Y-10948524D01*
X14606402Y-10971144D01*
X14606402Y-10971145D01*
X14595259Y-10991991D01*
X14580263Y-11010263D01*
X14561991Y-11025259D01*
X14541144Y-11036402D01*
X14541144Y-11036402D01*
X14518524Y-11043264D01*
X14506771Y-11044421D01*
X14500895Y-11045000D01*
X14429105Y-11045000D01*
X14423229Y-11044421D01*
X14411476Y-11043264D01*
X14388856Y-11036402D01*
X14388855Y-11036402D01*
X14368009Y-11025259D01*
X14349737Y-11010263D01*
X14334741Y-10991991D01*
X14323598Y-10971145D01*
X14323598Y-10971144D01*
X14316736Y-10948524D01*
X14314419Y-10925000D01*
X14316736Y-10901476D01*
X14323598Y-10878856D01*
X14323598Y-10878856D01*
X14334741Y-10858009D01*
X14349737Y-10839737D01*
X14368009Y-10824741D01*
X14388855Y-10813598D01*
X14388856Y-10813598D01*
X14411476Y-10806736D01*
X14423229Y-10805579D01*
X14429105Y-10805000D01*
X14500895Y-10805000D01*
X14506771Y-10805579D01*
G37*
G36*
X13876771Y-10805579D02*
G01*
X13888524Y-10806736D01*
X13911144Y-10813598D01*
X13911144Y-10813598D01*
X13931991Y-10824741D01*
X13950263Y-10839737D01*
X13965259Y-10858009D01*
X13976402Y-10878856D01*
X13976402Y-10878856D01*
X13983264Y-10901476D01*
X13985581Y-10925000D01*
X13983264Y-10948524D01*
X13976402Y-10971144D01*
X13976402Y-10971145D01*
X13965259Y-10991991D01*
X13950263Y-11010263D01*
X13931991Y-11025259D01*
X13911144Y-11036402D01*
X13911144Y-11036402D01*
X13888524Y-11043264D01*
X13876771Y-11044421D01*
X13870895Y-11045000D01*
X13799105Y-11045000D01*
X13793229Y-11044421D01*
X13781476Y-11043264D01*
X13758856Y-11036402D01*
X13758855Y-11036402D01*
X13738009Y-11025259D01*
X13719737Y-11010263D01*
X13704741Y-10991991D01*
X13693598Y-10971145D01*
X13693598Y-10971144D01*
X13686736Y-10948524D01*
X13684419Y-10925000D01*
X13686736Y-10901476D01*
X13693598Y-10878856D01*
X13693598Y-10878856D01*
X13704741Y-10858009D01*
X13719737Y-10839737D01*
X13738009Y-10824741D01*
X13758855Y-10813598D01*
X13758856Y-10813598D01*
X13781476Y-10806736D01*
X13793229Y-10805579D01*
X13799105Y-10805000D01*
X13870895Y-10805000D01*
X13876771Y-10805579D01*
G37*
G36*
X15776771Y-10805579D02*
G01*
X15788524Y-10806736D01*
X15811144Y-10813598D01*
X15811144Y-10813598D01*
X15831991Y-10824741D01*
X15850263Y-10839737D01*
X15865259Y-10858009D01*
X15876402Y-10878856D01*
X15876402Y-10878856D01*
X15883264Y-10901476D01*
X15885581Y-10925000D01*
X15883264Y-10948524D01*
X15876402Y-10971144D01*
X15876402Y-10971145D01*
X15865259Y-10991991D01*
X15850263Y-11010263D01*
X15831991Y-11025259D01*
X15811144Y-11036402D01*
X15811144Y-11036402D01*
X15788524Y-11043264D01*
X15776771Y-11044421D01*
X15770895Y-11045000D01*
X15699105Y-11045000D01*
X15693229Y-11044421D01*
X15681476Y-11043264D01*
X15658856Y-11036402D01*
X15658855Y-11036402D01*
X15638009Y-11025259D01*
X15619737Y-11010263D01*
X15604741Y-10991991D01*
X15593598Y-10971145D01*
X15593598Y-10971144D01*
X15586736Y-10948524D01*
X15584419Y-10925000D01*
X15586736Y-10901476D01*
X15593598Y-10878856D01*
X15593598Y-10878856D01*
X15604741Y-10858009D01*
X15619737Y-10839737D01*
X15638009Y-10824741D01*
X15658855Y-10813598D01*
X15658856Y-10813598D01*
X15681476Y-10806736D01*
X15693229Y-10805579D01*
X15699105Y-10805000D01*
X15770895Y-10805000D01*
X15776771Y-10805579D01*
G37*
G36*
X12606771Y-10805579D02*
G01*
X12618524Y-10806736D01*
X12641144Y-10813598D01*
X12641144Y-10813598D01*
X12661991Y-10824741D01*
X12680263Y-10839737D01*
X12695259Y-10858009D01*
X12706402Y-10878856D01*
X12706402Y-10878856D01*
X12713264Y-10901476D01*
X12715581Y-10925000D01*
X12713264Y-10948524D01*
X12706402Y-10971144D01*
X12706402Y-10971145D01*
X12695259Y-10991991D01*
X12680263Y-11010263D01*
X12661991Y-11025259D01*
X12641144Y-11036402D01*
X12641144Y-11036402D01*
X12618524Y-11043264D01*
X12606771Y-11044421D01*
X12600895Y-11045000D01*
X12529105Y-11045000D01*
X12523229Y-11044421D01*
X12511476Y-11043264D01*
X12488856Y-11036402D01*
X12488855Y-11036402D01*
X12468009Y-11025259D01*
X12449737Y-11010263D01*
X12434741Y-10991991D01*
X12423598Y-10971145D01*
X12423598Y-10971144D01*
X12416736Y-10948524D01*
X12414419Y-10925000D01*
X12416736Y-10901476D01*
X12423598Y-10878856D01*
X12423598Y-10878856D01*
X12434741Y-10858009D01*
X12449737Y-10839737D01*
X12468009Y-10824741D01*
X12488855Y-10813598D01*
X12488856Y-10813598D01*
X12511476Y-10806736D01*
X12523229Y-10805579D01*
X12529105Y-10805000D01*
X12600895Y-10805000D01*
X12606771Y-10805579D01*
G37*
G36*
X15122729Y-10627562D02*
G01*
X15129169Y-10628843D01*
X15147368Y-10636381D01*
X15163746Y-10647325D01*
X15177675Y-10661254D01*
X15188619Y-10677632D01*
X15196157Y-10695831D01*
X15196157Y-10695831D01*
X15200000Y-10715151D01*
X15200000Y-10734849D01*
X15198918Y-10740291D01*
X15196157Y-10754169D01*
X15188619Y-10772368D01*
X15177675Y-10788746D01*
X15163746Y-10802675D01*
X15147368Y-10813619D01*
X15129169Y-10821157D01*
X15122729Y-10822438D01*
X15109849Y-10825000D01*
X15090151Y-10825000D01*
X15077271Y-10822438D01*
X15070831Y-10821157D01*
X15052632Y-10813619D01*
X15036254Y-10802675D01*
X15022325Y-10788746D01*
X15011381Y-10772368D01*
X15003843Y-10754169D01*
X15001082Y-10740291D01*
X15000000Y-10734849D01*
X15000000Y-10715151D01*
X15003843Y-10695831D01*
X15003843Y-10695831D01*
X15011381Y-10677632D01*
X15022325Y-10661254D01*
X15036254Y-10647325D01*
X15052632Y-10636381D01*
X15070831Y-10628843D01*
X15077271Y-10627562D01*
X15090151Y-10625000D01*
X15109849Y-10625000D01*
X15122729Y-10627562D01*
G37*
G36*
X13222729Y-10627562D02*
G01*
X13229169Y-10628843D01*
X13247368Y-10636381D01*
X13263746Y-10647325D01*
X13277675Y-10661254D01*
X13288619Y-10677632D01*
X13296157Y-10695831D01*
X13296157Y-10695831D01*
X13300000Y-10715151D01*
X13300000Y-10734849D01*
X13298918Y-10740291D01*
X13296157Y-10754169D01*
X13288619Y-10772368D01*
X13277675Y-10788746D01*
X13263746Y-10802675D01*
X13247368Y-10813619D01*
X13229169Y-10821157D01*
X13222729Y-10822438D01*
X13209849Y-10825000D01*
X13190151Y-10825000D01*
X13177271Y-10822438D01*
X13170831Y-10821157D01*
X13152632Y-10813619D01*
X13136254Y-10802675D01*
X13122325Y-10788746D01*
X13111381Y-10772368D01*
X13103843Y-10754169D01*
X13101082Y-10740291D01*
X13100000Y-10734849D01*
X13100000Y-10715151D01*
X13103843Y-10695831D01*
X13103843Y-10695831D01*
X13111381Y-10677632D01*
X13122325Y-10661254D01*
X13136254Y-10647325D01*
X13152632Y-10636381D01*
X13170831Y-10628843D01*
X13177271Y-10627562D01*
X13190151Y-10625000D01*
X13209849Y-10625000D01*
X13222729Y-10627562D01*
G37*
G36*
X19617709Y-10708806D02*
G01*
X19617709Y-10708806D01*
X19617709Y-10708806D01*
X19621986Y-10710578D01*
X19626263Y-10712349D01*
X19633961Y-10717493D01*
X19640508Y-10724040D01*
X19645651Y-10731737D01*
X19649194Y-10740291D01*
X19651000Y-10749371D01*
X19651000Y-10758629D01*
X19649194Y-10767709D01*
X19645651Y-10776263D01*
X19640508Y-10783961D01*
X19633961Y-10790508D01*
X19626263Y-10795651D01*
X19621986Y-10797422D01*
X19617709Y-10799194D01*
X19617709Y-10799194D01*
X19617709Y-10799194D01*
X19608629Y-10801000D01*
X19599371Y-10801000D01*
X19590291Y-10799194D01*
X19590291Y-10799194D01*
X19590291Y-10799194D01*
X19586014Y-10797422D01*
X19581737Y-10795651D01*
X19574040Y-10790508D01*
X19567493Y-10783961D01*
X19562349Y-10776263D01*
X19558806Y-10767709D01*
X19557000Y-10758629D01*
X19557000Y-10749371D01*
X19558806Y-10740291D01*
X19562349Y-10731737D01*
X19567493Y-10724040D01*
X19574040Y-10717493D01*
X19581737Y-10712349D01*
X19586014Y-10710578D01*
X19590291Y-10708806D01*
X19590291Y-10708806D01*
X19590291Y-10708806D01*
X19599371Y-10707000D01*
X19608629Y-10707000D01*
X19617709Y-10708806D01*
G37*
G36*
X19236709Y-10708806D02*
G01*
X19236709Y-10708806D01*
X19236709Y-10708806D01*
X19240986Y-10710578D01*
X19245263Y-10712349D01*
X19252961Y-10717493D01*
X19259508Y-10724040D01*
X19264651Y-10731737D01*
X19268194Y-10740291D01*
X19270000Y-10749371D01*
X19270000Y-10758629D01*
X19268194Y-10767709D01*
X19264651Y-10776263D01*
X19259508Y-10783961D01*
X19252961Y-10790508D01*
X19245263Y-10795651D01*
X19240986Y-10797422D01*
X19236709Y-10799194D01*
X19236709Y-10799194D01*
X19236709Y-10799194D01*
X19227629Y-10801000D01*
X19218371Y-10801000D01*
X19209291Y-10799194D01*
X19209291Y-10799194D01*
X19209291Y-10799194D01*
X19205014Y-10797422D01*
X19200737Y-10795651D01*
X19193040Y-10790508D01*
X19186493Y-10783961D01*
X19181349Y-10776263D01*
X19177806Y-10767709D01*
X19176000Y-10758629D01*
X19176000Y-10749371D01*
X19177806Y-10740291D01*
X19181349Y-10731737D01*
X19186493Y-10724040D01*
X19193040Y-10717493D01*
X19200737Y-10712349D01*
X19205014Y-10710578D01*
X19209291Y-10708806D01*
X19209291Y-10708806D01*
X19209291Y-10708806D01*
X19218371Y-10707000D01*
X19227629Y-10707000D01*
X19236709Y-10708806D01*
G37*
G36*
X19490709Y-10708806D02*
G01*
X19490709Y-10708806D01*
X19490709Y-10708806D01*
X19494986Y-10710578D01*
X19499263Y-10712349D01*
X19506961Y-10717493D01*
X19513508Y-10724040D01*
X19518651Y-10731737D01*
X19522194Y-10740291D01*
X19524000Y-10749371D01*
X19524000Y-10758629D01*
X19522194Y-10767709D01*
X19518651Y-10776263D01*
X19513508Y-10783961D01*
X19506961Y-10790508D01*
X19499263Y-10795651D01*
X19494986Y-10797422D01*
X19490709Y-10799194D01*
X19490709Y-10799194D01*
X19490709Y-10799194D01*
X19481629Y-10801000D01*
X19472371Y-10801000D01*
X19463291Y-10799194D01*
X19463291Y-10799194D01*
X19463291Y-10799194D01*
X19459014Y-10797422D01*
X19454737Y-10795651D01*
X19447040Y-10790508D01*
X19440493Y-10783961D01*
X19435349Y-10776263D01*
X19431806Y-10767709D01*
X19430000Y-10758629D01*
X19430000Y-10749371D01*
X19431806Y-10740291D01*
X19435349Y-10731737D01*
X19440493Y-10724040D01*
X19447040Y-10717493D01*
X19454737Y-10712349D01*
X19459014Y-10710578D01*
X19463291Y-10708806D01*
X19463291Y-10708806D01*
X19463291Y-10708806D01*
X19472371Y-10707000D01*
X19481629Y-10707000D01*
X19490709Y-10708806D01*
G37*
G36*
X19363709Y-10708806D02*
G01*
X19363709Y-10708806D01*
X19363709Y-10708806D01*
X19367986Y-10710578D01*
X19372263Y-10712349D01*
X19379961Y-10717493D01*
X19386508Y-10724040D01*
X19391651Y-10731737D01*
X19395194Y-10740291D01*
X19397000Y-10749371D01*
X19397000Y-10758629D01*
X19395194Y-10767709D01*
X19391651Y-10776263D01*
X19386508Y-10783961D01*
X19379961Y-10790508D01*
X19372263Y-10795651D01*
X19367986Y-10797422D01*
X19363709Y-10799194D01*
X19363709Y-10799194D01*
X19363709Y-10799194D01*
X19354629Y-10801000D01*
X19345371Y-10801000D01*
X19336291Y-10799194D01*
X19336291Y-10799194D01*
X19336291Y-10799194D01*
X19332014Y-10797422D01*
X19327737Y-10795651D01*
X19320040Y-10790508D01*
X19313493Y-10783961D01*
X19308349Y-10776263D01*
X19304806Y-10767709D01*
X19303000Y-10758629D01*
X19303000Y-10749371D01*
X19304806Y-10740291D01*
X19308349Y-10731737D01*
X19313493Y-10724040D01*
X19320040Y-10717493D01*
X19327737Y-10712349D01*
X19332014Y-10710578D01*
X19336291Y-10708806D01*
X19336291Y-10708806D01*
X19336291Y-10708806D01*
X19345371Y-10707000D01*
X19354629Y-10707000D01*
X19363709Y-10708806D01*
G37*
G36*
X19109709Y-10708806D02*
G01*
X19109709Y-10708806D01*
X19109709Y-10708806D01*
X19113986Y-10710578D01*
X19118263Y-10712349D01*
X19125961Y-10717493D01*
X19132508Y-10724040D01*
X19137651Y-10731737D01*
X19141194Y-10740291D01*
X19143000Y-10749371D01*
X19143000Y-10758629D01*
X19141194Y-10767709D01*
X19137651Y-10776263D01*
X19132508Y-10783961D01*
X19125961Y-10790508D01*
X19118263Y-10795651D01*
X19113986Y-10797422D01*
X19109709Y-10799194D01*
X19109709Y-10799194D01*
X19109709Y-10799194D01*
X19100629Y-10801000D01*
X19091371Y-10801000D01*
X19082291Y-10799194D01*
X19082291Y-10799194D01*
X19082291Y-10799194D01*
X19078014Y-10797422D01*
X19073737Y-10795651D01*
X19066040Y-10790508D01*
X19059493Y-10783961D01*
X19054349Y-10776263D01*
X19050806Y-10767709D01*
X19049000Y-10758629D01*
X19049000Y-10749371D01*
X19050806Y-10740291D01*
X19054349Y-10731737D01*
X19059493Y-10724040D01*
X19066040Y-10717493D01*
X19073737Y-10712349D01*
X19078014Y-10710578D01*
X19082291Y-10708806D01*
X19082291Y-10708806D01*
X19082291Y-10708806D01*
X19091371Y-10707000D01*
X19100629Y-10707000D01*
X19109709Y-10708806D01*
G37*
G36*
X14928869Y-10195503D02*
G01*
X14946627Y-10199035D01*
X14965736Y-10206950D01*
X14982934Y-10218441D01*
X14997559Y-10233066D01*
X15009050Y-10250264D01*
X15016965Y-10269373D01*
X15021000Y-10289658D01*
X15021000Y-10310342D01*
X15016965Y-10330627D01*
X15009050Y-10349736D01*
X14997559Y-10366934D01*
X14982934Y-10381559D01*
X14965736Y-10393050D01*
X14946627Y-10400965D01*
X14928869Y-10404497D01*
X14926342Y-10405000D01*
X14905658Y-10405000D01*
X14903131Y-10404497D01*
X14885373Y-10400965D01*
X14866264Y-10393050D01*
X14849066Y-10381559D01*
X14834441Y-10366934D01*
X14822950Y-10349736D01*
X14815035Y-10330627D01*
X14811000Y-10310342D01*
X14811000Y-10289658D01*
X14815035Y-10269373D01*
X14822950Y-10250264D01*
X14834441Y-10233066D01*
X14849066Y-10218441D01*
X14866264Y-10206950D01*
X14885373Y-10199035D01*
X14903131Y-10195503D01*
X14905658Y-10195000D01*
X14926342Y-10195000D01*
X14928869Y-10195503D01*
G37*
G36*
X14674869Y-10195503D02*
G01*
X14692627Y-10199035D01*
X14711736Y-10206950D01*
X14728934Y-10218441D01*
X14743559Y-10233066D01*
X14755050Y-10250264D01*
X14762965Y-10269373D01*
X14767000Y-10289658D01*
X14767000Y-10310342D01*
X14762965Y-10330627D01*
X14755050Y-10349736D01*
X14743559Y-10366934D01*
X14728934Y-10381559D01*
X14711736Y-10393050D01*
X14692627Y-10400965D01*
X14674869Y-10404497D01*
X14672342Y-10405000D01*
X14651658Y-10405000D01*
X14649131Y-10404497D01*
X14631373Y-10400965D01*
X14612264Y-10393050D01*
X14595066Y-10381559D01*
X14580441Y-10366934D01*
X14568950Y-10349736D01*
X14561035Y-10330627D01*
X14557000Y-10310342D01*
X14557000Y-10289658D01*
X14561035Y-10269373D01*
X14568950Y-10250264D01*
X14580441Y-10233066D01*
X14595066Y-10218441D01*
X14612264Y-10206950D01*
X14631373Y-10199035D01*
X14649131Y-10195503D01*
X14651658Y-10195000D01*
X14672342Y-10195000D01*
X14674869Y-10195503D01*
G37*
G36*
X14420869Y-10195503D02*
G01*
X14438627Y-10199035D01*
X14457736Y-10206950D01*
X14474934Y-10218441D01*
X14489559Y-10233066D01*
X14501050Y-10250264D01*
X14508965Y-10269373D01*
X14513000Y-10289658D01*
X14513000Y-10310342D01*
X14508965Y-10330627D01*
X14501050Y-10349736D01*
X14489559Y-10366934D01*
X14474934Y-10381559D01*
X14457736Y-10393050D01*
X14438627Y-10400965D01*
X14420869Y-10404497D01*
X14418342Y-10405000D01*
X14397658Y-10405000D01*
X14395131Y-10404497D01*
X14377373Y-10400965D01*
X14358264Y-10393050D01*
X14341066Y-10381559D01*
X14326441Y-10366934D01*
X14314950Y-10349736D01*
X14307035Y-10330627D01*
X14303000Y-10310342D01*
X14303000Y-10289658D01*
X14307035Y-10269373D01*
X14314950Y-10250264D01*
X14326441Y-10233066D01*
X14341066Y-10218441D01*
X14358264Y-10206950D01*
X14377373Y-10199035D01*
X14395131Y-10195503D01*
X14397658Y-10195000D01*
X14418342Y-10195000D01*
X14420869Y-10195503D01*
G37*
G36*
X14166869Y-10195503D02*
G01*
X14184627Y-10199035D01*
X14203736Y-10206950D01*
X14220934Y-10218441D01*
X14235559Y-10233066D01*
X14247050Y-10250264D01*
X14254965Y-10269373D01*
X14259000Y-10289658D01*
X14259000Y-10310342D01*
X14254965Y-10330627D01*
X14247050Y-10349736D01*
X14235559Y-10366934D01*
X14220934Y-10381559D01*
X14203736Y-10393050D01*
X14184627Y-10400965D01*
X14166869Y-10404497D01*
X14164342Y-10405000D01*
X14143658Y-10405000D01*
X14141131Y-10404497D01*
X14123373Y-10400965D01*
X14104264Y-10393050D01*
X14087066Y-10381559D01*
X14072441Y-10366934D01*
X14060950Y-10349736D01*
X14053035Y-10330627D01*
X14049000Y-10310342D01*
X14049000Y-10289658D01*
X14053035Y-10269373D01*
X14060950Y-10250264D01*
X14072441Y-10233066D01*
X14087066Y-10218441D01*
X14104264Y-10206950D01*
X14123373Y-10199035D01*
X14141131Y-10195503D01*
X14143658Y-10195000D01*
X14164342Y-10195000D01*
X14166869Y-10195503D01*
G37*
G36*
X13243000Y-10405000D02*
G01*
X13033000Y-10405000D01*
X13033000Y-10195000D01*
X13243000Y-10195000D01*
X13243000Y-10405000D01*
G37*
G36*
X13912869Y-10195503D02*
G01*
X13930627Y-10199035D01*
X13949736Y-10206950D01*
X13966934Y-10218441D01*
X13981559Y-10233066D01*
X13993050Y-10250264D01*
X14000965Y-10269373D01*
X14005000Y-10289658D01*
X14005000Y-10310342D01*
X14000965Y-10330627D01*
X13993050Y-10349736D01*
X13981559Y-10366934D01*
X13966934Y-10381559D01*
X13949736Y-10393050D01*
X13930627Y-10400965D01*
X13912869Y-10404497D01*
X13910342Y-10405000D01*
X13889658Y-10405000D01*
X13887131Y-10404497D01*
X13869373Y-10400965D01*
X13850264Y-10393050D01*
X13833066Y-10381559D01*
X13818441Y-10366934D01*
X13806950Y-10349736D01*
X13799035Y-10330627D01*
X13795000Y-10310342D01*
X13795000Y-10289658D01*
X13799035Y-10269373D01*
X13806950Y-10250264D01*
X13818441Y-10233066D01*
X13833066Y-10218441D01*
X13850264Y-10206950D01*
X13869373Y-10199035D01*
X13887131Y-10195503D01*
X13889658Y-10195000D01*
X13910342Y-10195000D01*
X13912869Y-10195503D01*
G37*
G36*
X13658869Y-10195503D02*
G01*
X13676627Y-10199035D01*
X13695736Y-10206950D01*
X13712934Y-10218441D01*
X13727559Y-10233066D01*
X13739050Y-10250264D01*
X13746965Y-10269373D01*
X13751000Y-10289658D01*
X13751000Y-10310342D01*
X13746965Y-10330627D01*
X13739050Y-10349736D01*
X13727559Y-10366934D01*
X13712934Y-10381559D01*
X13695736Y-10393050D01*
X13676627Y-10400965D01*
X13658869Y-10404497D01*
X13656342Y-10405000D01*
X13635658Y-10405000D01*
X13633131Y-10404497D01*
X13615373Y-10400965D01*
X13596264Y-10393050D01*
X13579066Y-10381559D01*
X13564441Y-10366934D01*
X13552950Y-10349736D01*
X13545035Y-10330627D01*
X13541000Y-10310342D01*
X13541000Y-10289658D01*
X13545035Y-10269373D01*
X13552950Y-10250264D01*
X13564441Y-10233066D01*
X13579066Y-10218441D01*
X13596264Y-10206950D01*
X13615373Y-10199035D01*
X13633131Y-10195503D01*
X13635658Y-10195000D01*
X13656342Y-10195000D01*
X13658869Y-10195503D01*
G37*
G36*
X13404869Y-10195503D02*
G01*
X13422627Y-10199035D01*
X13441736Y-10206950D01*
X13458934Y-10218441D01*
X13473559Y-10233066D01*
X13485050Y-10250264D01*
X13492965Y-10269373D01*
X13497000Y-10289658D01*
X13497000Y-10310342D01*
X13492965Y-10330627D01*
X13485050Y-10349736D01*
X13473559Y-10366934D01*
X13458934Y-10381559D01*
X13441736Y-10393050D01*
X13422627Y-10400965D01*
X13404869Y-10404497D01*
X13402342Y-10405000D01*
X13381658Y-10405000D01*
X13379131Y-10404497D01*
X13361373Y-10400965D01*
X13342264Y-10393050D01*
X13325066Y-10381559D01*
X13310441Y-10366934D01*
X13298950Y-10349736D01*
X13291035Y-10330627D01*
X13287000Y-10310342D01*
X13287000Y-10289658D01*
X13291035Y-10269373D01*
X13298950Y-10250264D01*
X13310441Y-10233066D01*
X13325066Y-10218441D01*
X13342264Y-10206950D01*
X13361373Y-10199035D01*
X13379131Y-10195503D01*
X13381658Y-10195000D01*
X13402342Y-10195000D01*
X13404869Y-10195503D01*
G37*
G36*
X19236709Y-10200806D02*
G01*
X19236709Y-10200806D01*
X19236709Y-10200806D01*
X19240986Y-10202578D01*
X19245263Y-10204349D01*
X19252961Y-10209493D01*
X19259508Y-10216040D01*
X19264651Y-10223737D01*
X19268194Y-10232291D01*
X19270000Y-10241371D01*
X19270000Y-10250629D01*
X19268194Y-10259709D01*
X19264651Y-10268263D01*
X19259508Y-10275961D01*
X19252961Y-10282508D01*
X19245263Y-10287651D01*
X19240986Y-10289422D01*
X19236709Y-10291194D01*
X19236709Y-10291194D01*
X19236709Y-10291194D01*
X19227629Y-10293000D01*
X19218371Y-10293000D01*
X19209291Y-10291194D01*
X19209291Y-10291194D01*
X19209291Y-10291194D01*
X19205014Y-10289422D01*
X19200737Y-10287651D01*
X19193040Y-10282508D01*
X19186493Y-10275961D01*
X19181349Y-10268263D01*
X19177806Y-10259709D01*
X19176000Y-10250629D01*
X19176000Y-10241371D01*
X19177806Y-10232291D01*
X19181349Y-10223737D01*
X19186493Y-10216040D01*
X19193040Y-10209493D01*
X19200737Y-10204349D01*
X19205014Y-10202578D01*
X19209291Y-10200806D01*
X19209291Y-10200806D01*
X19209291Y-10200806D01*
X19218371Y-10199000D01*
X19227629Y-10199000D01*
X19236709Y-10200806D01*
G37*
G36*
X19617709Y-10200806D02*
G01*
X19617709Y-10200806D01*
X19617709Y-10200806D01*
X19621986Y-10202578D01*
X19626263Y-10204349D01*
X19633961Y-10209493D01*
X19640508Y-10216040D01*
X19645651Y-10223737D01*
X19649194Y-10232291D01*
X19651000Y-10241371D01*
X19651000Y-10250629D01*
X19649194Y-10259709D01*
X19645651Y-10268263D01*
X19640508Y-10275961D01*
X19633961Y-10282508D01*
X19626263Y-10287651D01*
X19621986Y-10289422D01*
X19617709Y-10291194D01*
X19617709Y-10291194D01*
X19617709Y-10291194D01*
X19608629Y-10293000D01*
X19599371Y-10293000D01*
X19590291Y-10291194D01*
X19590291Y-10291194D01*
X19590291Y-10291194D01*
X19586014Y-10289422D01*
X19581737Y-10287651D01*
X19574040Y-10282508D01*
X19567493Y-10275961D01*
X19562349Y-10268263D01*
X19558806Y-10259709D01*
X19557000Y-10250629D01*
X19557000Y-10241371D01*
X19558806Y-10232291D01*
X19562349Y-10223737D01*
X19567493Y-10216040D01*
X19574040Y-10209493D01*
X19581737Y-10204349D01*
X19586014Y-10202578D01*
X19590291Y-10200806D01*
X19590291Y-10200806D01*
X19590291Y-10200806D01*
X19599371Y-10199000D01*
X19608629Y-10199000D01*
X19617709Y-10200806D01*
G37*
G36*
X19363709Y-10200806D02*
G01*
X19363709Y-10200806D01*
X19363709Y-10200806D01*
X19367986Y-10202578D01*
X19372263Y-10204349D01*
X19379961Y-10209493D01*
X19386508Y-10216040D01*
X19391651Y-10223737D01*
X19395194Y-10232291D01*
X19397000Y-10241371D01*
X19397000Y-10250629D01*
X19395194Y-10259709D01*
X19391651Y-10268263D01*
X19386508Y-10275961D01*
X19379961Y-10282508D01*
X19372263Y-10287651D01*
X19367986Y-10289422D01*
X19363709Y-10291194D01*
X19363709Y-10291194D01*
X19363709Y-10291194D01*
X19354629Y-10293000D01*
X19345371Y-10293000D01*
X19336291Y-10291194D01*
X19336291Y-10291194D01*
X19336291Y-10291194D01*
X19332014Y-10289422D01*
X19327737Y-10287651D01*
X19320040Y-10282508D01*
X19313493Y-10275961D01*
X19308349Y-10268263D01*
X19304806Y-10259709D01*
X19303000Y-10250629D01*
X19303000Y-10241371D01*
X19304806Y-10232291D01*
X19308349Y-10223737D01*
X19313493Y-10216040D01*
X19320040Y-10209493D01*
X19327737Y-10204349D01*
X19332014Y-10202578D01*
X19336291Y-10200806D01*
X19336291Y-10200806D01*
X19336291Y-10200806D01*
X19345371Y-10199000D01*
X19354629Y-10199000D01*
X19363709Y-10200806D01*
G37*
G36*
X19490709Y-10200806D02*
G01*
X19490709Y-10200806D01*
X19490709Y-10200806D01*
X19494986Y-10202578D01*
X19499263Y-10204349D01*
X19506961Y-10209493D01*
X19513508Y-10216040D01*
X19518651Y-10223737D01*
X19522194Y-10232291D01*
X19524000Y-10241371D01*
X19524000Y-10250629D01*
X19522194Y-10259709D01*
X19518651Y-10268263D01*
X19513508Y-10275961D01*
X19506961Y-10282508D01*
X19499263Y-10287651D01*
X19494986Y-10289422D01*
X19490709Y-10291194D01*
X19490709Y-10291194D01*
X19490709Y-10291194D01*
X19481629Y-10293000D01*
X19472371Y-10293000D01*
X19463291Y-10291194D01*
X19463291Y-10291194D01*
X19463291Y-10291194D01*
X19459014Y-10289422D01*
X19454737Y-10287651D01*
X19447040Y-10282508D01*
X19440493Y-10275961D01*
X19435349Y-10268263D01*
X19431806Y-10259709D01*
X19430000Y-10250629D01*
X19430000Y-10241371D01*
X19431806Y-10232291D01*
X19435349Y-10223737D01*
X19440493Y-10216040D01*
X19447040Y-10209493D01*
X19454737Y-10204349D01*
X19459014Y-10202578D01*
X19463291Y-10200806D01*
X19463291Y-10200806D01*
X19463291Y-10200806D01*
X19472371Y-10199000D01*
X19481629Y-10199000D01*
X19490709Y-10200806D01*
G37*
G36*
X19109709Y-10200806D02*
G01*
X19109709Y-10200806D01*
X19109709Y-10200806D01*
X19113986Y-10202578D01*
X19118263Y-10204349D01*
X19125961Y-10209493D01*
X19132508Y-10216040D01*
X19137651Y-10223737D01*
X19141194Y-10232291D01*
X19143000Y-10241371D01*
X19143000Y-10250629D01*
X19141194Y-10259709D01*
X19137651Y-10268263D01*
X19132508Y-10275961D01*
X19125961Y-10282508D01*
X19118263Y-10287651D01*
X19113986Y-10289422D01*
X19109709Y-10291194D01*
X19109709Y-10291194D01*
X19109709Y-10291194D01*
X19100629Y-10293000D01*
X19091371Y-10293000D01*
X19082291Y-10291194D01*
X19082291Y-10291194D01*
X19082291Y-10291194D01*
X19078014Y-10289422D01*
X19073737Y-10287651D01*
X19066040Y-10282508D01*
X19059493Y-10275961D01*
X19054349Y-10268263D01*
X19050806Y-10259709D01*
X19049000Y-10250629D01*
X19049000Y-10241371D01*
X19050806Y-10232291D01*
X19054349Y-10223737D01*
X19059493Y-10216040D01*
X19066040Y-10209493D01*
X19073737Y-10204349D01*
X19078014Y-10202578D01*
X19082291Y-10200806D01*
X19082291Y-10200806D01*
X19082291Y-10200806D01*
X19091371Y-10199000D01*
X19100629Y-10199000D01*
X19109709Y-10200806D01*
G37*
M02*
