%TF.GenerationSoftware,KiCad,Pcbnew,5.1.5-52549c5~84~ubuntu19.04.1*%
%TF.CreationDate,2020-04-18T11:31:06+00:00*%
%TF.ProjectId,alakol,616c616b-6f6c-42e6-9b69-6361645f7063,rev.1*%
%TF.SameCoordinates,Original*%
%TF.FileFunction,Legend,Bot*%
%TF.FilePolarity,Positive*%
%FSLAX45Y45*%
G04 Gerber Fmt 4.5, Leading zero omitted, Abs format (unit mm)*
G04 Created by KiCad (PCBNEW 5.1.5-52549c5~84~ubuntu19.04.1) date 2020-04-18 11:31:06*
%MOMM*%
%LPD*%
G04 APERTURE LIST*
%ADD10C,0.200000*%
%ADD11C,0.150000*%
%ADD12C,0.300000*%
%ADD13C,0.100000*%
%ADD14C,3.000000*%
%ADD15C,3.450000*%
%ADD16C,1.800000*%
%ADD17C,2.600000*%
%ADD18C,2.000000*%
%ADD19R,2.100000X2.100000*%
%ADD20C,2.100000*%
%ADD21C,0.940000*%
%ADD22C,3.800000*%
%ADD23O,3.000000X2.400000*%
%ADD24C,4.200000*%
%ADD25R,2.800000X2.800000*%
%ADD26C,2.800000*%
%ADD27R,2.200000X1.400000*%
G04 APERTURE END LIST*
D10*
X18787083Y-10258333D02*
X18691845Y-10258333D01*
X18813274Y-10315476D02*
X18721607Y-10115476D01*
X18679940Y-10315476D01*
X18584702Y-10315476D02*
X18602560Y-10305952D01*
X18609702Y-10286905D01*
X18588274Y-10115476D01*
X18422798Y-10315476D02*
X18409702Y-10210714D01*
X18416845Y-10191667D01*
X18434702Y-10182143D01*
X18472798Y-10182143D01*
X18493036Y-10191667D01*
X18421607Y-10305952D02*
X18441845Y-10315476D01*
X18489464Y-10315476D01*
X18507321Y-10305952D01*
X18514464Y-10286905D01*
X18512083Y-10267857D01*
X18500179Y-10248810D01*
X18479940Y-10239286D01*
X18432321Y-10239286D01*
X18412083Y-10229762D01*
X18327560Y-10315476D02*
X18302560Y-10115476D01*
X18298988Y-10239286D02*
X18251369Y-10315476D01*
X18234702Y-10182143D02*
X18320417Y-10258333D01*
X18137083Y-10315476D02*
X18154940Y-10305952D01*
X18163274Y-10296429D01*
X18170417Y-10277381D01*
X18163274Y-10220238D01*
X18151369Y-10201190D01*
X18140655Y-10191667D01*
X18120417Y-10182143D01*
X18091845Y-10182143D01*
X18073988Y-10191667D01*
X18065655Y-10201190D01*
X18058512Y-10220238D01*
X18065655Y-10277381D01*
X18077560Y-10296429D01*
X18088274Y-10305952D01*
X18108512Y-10315476D01*
X18137083Y-10315476D01*
X17956131Y-10315476D02*
X17973988Y-10305952D01*
X17981131Y-10286905D01*
X17959702Y-10115476D01*
X18749905Y-10545238D02*
X18783238Y-10497619D01*
X18807048Y-10545238D02*
X18807048Y-10445238D01*
X18768952Y-10445238D01*
X18759429Y-10450000D01*
X18754667Y-10454762D01*
X18749905Y-10464286D01*
X18749905Y-10478571D01*
X18754667Y-10488095D01*
X18759429Y-10492857D01*
X18768952Y-10497619D01*
X18807048Y-10497619D01*
X18707048Y-10545238D02*
X18707048Y-10478571D01*
X18707048Y-10445238D02*
X18711810Y-10450000D01*
X18707048Y-10454762D01*
X18702286Y-10450000D01*
X18707048Y-10445238D01*
X18707048Y-10454762D01*
X18616571Y-10540476D02*
X18626095Y-10545238D01*
X18645143Y-10545238D01*
X18654667Y-10540476D01*
X18659429Y-10535714D01*
X18664190Y-10526190D01*
X18664190Y-10497619D01*
X18659429Y-10488095D01*
X18654667Y-10483333D01*
X18645143Y-10478571D01*
X18626095Y-10478571D01*
X18616571Y-10483333D01*
X18573714Y-10545238D02*
X18573714Y-10445238D01*
X18530857Y-10545238D02*
X18530857Y-10492857D01*
X18535619Y-10483333D01*
X18545143Y-10478571D01*
X18559429Y-10478571D01*
X18568952Y-10483333D01*
X18573714Y-10488095D01*
X18440381Y-10545238D02*
X18440381Y-10492857D01*
X18445143Y-10483333D01*
X18454667Y-10478571D01*
X18473714Y-10478571D01*
X18483238Y-10483333D01*
X18440381Y-10540476D02*
X18449905Y-10545238D01*
X18473714Y-10545238D01*
X18483238Y-10540476D01*
X18488000Y-10530952D01*
X18488000Y-10521429D01*
X18483238Y-10511905D01*
X18473714Y-10507143D01*
X18449905Y-10507143D01*
X18440381Y-10502381D01*
X18392762Y-10545238D02*
X18392762Y-10478571D01*
X18392762Y-10497619D02*
X18388000Y-10488095D01*
X18383238Y-10483333D01*
X18373714Y-10478571D01*
X18364190Y-10478571D01*
X18288000Y-10545238D02*
X18288000Y-10445238D01*
X18288000Y-10540476D02*
X18297524Y-10545238D01*
X18316571Y-10545238D01*
X18326095Y-10540476D01*
X18330857Y-10535714D01*
X18335619Y-10526190D01*
X18335619Y-10497619D01*
X18330857Y-10488095D01*
X18326095Y-10483333D01*
X18316571Y-10478571D01*
X18297524Y-10478571D01*
X18288000Y-10483333D01*
X18164190Y-10545238D02*
X18164190Y-10445238D01*
X18130857Y-10516667D01*
X18097524Y-10445238D01*
X18097524Y-10545238D01*
X18011810Y-10540476D02*
X18021333Y-10545238D01*
X18040381Y-10545238D01*
X18049905Y-10540476D01*
X18054667Y-10530952D01*
X18054667Y-10492857D01*
X18049905Y-10483333D01*
X18040381Y-10478571D01*
X18021333Y-10478571D01*
X18011810Y-10483333D01*
X18007048Y-10492857D01*
X18007048Y-10502381D01*
X18054667Y-10511905D01*
X17921333Y-10545238D02*
X17921333Y-10492857D01*
X17926095Y-10483333D01*
X17935619Y-10478571D01*
X17954667Y-10478571D01*
X17964190Y-10483333D01*
X17921333Y-10540476D02*
X17930857Y-10545238D01*
X17954667Y-10545238D01*
X17964190Y-10540476D01*
X17968952Y-10530952D01*
X17968952Y-10521429D01*
X17964190Y-10511905D01*
X17954667Y-10507143D01*
X17930857Y-10507143D01*
X17921333Y-10502381D01*
X17830857Y-10545238D02*
X17830857Y-10445238D01*
X17830857Y-10540476D02*
X17840381Y-10545238D01*
X17859429Y-10545238D01*
X17868952Y-10540476D01*
X17873714Y-10535714D01*
X17878476Y-10526190D01*
X17878476Y-10497619D01*
X17873714Y-10488095D01*
X17868952Y-10483333D01*
X17859429Y-10478571D01*
X17840381Y-10478571D01*
X17830857Y-10483333D01*
X17768952Y-10545238D02*
X17778476Y-10540476D01*
X17783238Y-10535714D01*
X17788000Y-10526190D01*
X17788000Y-10497619D01*
X17783238Y-10488095D01*
X17778476Y-10483333D01*
X17768952Y-10478571D01*
X17754667Y-10478571D01*
X17745143Y-10483333D01*
X17740381Y-10488095D01*
X17735619Y-10497619D01*
X17735619Y-10526190D01*
X17740381Y-10535714D01*
X17745143Y-10540476D01*
X17754667Y-10545238D01*
X17768952Y-10545238D01*
X17702286Y-10478571D02*
X17683238Y-10545238D01*
X17664190Y-10497619D01*
X17645143Y-10545238D01*
X17626095Y-10478571D01*
X17592762Y-10540476D02*
X17583238Y-10545238D01*
X17564190Y-10545238D01*
X17554667Y-10540476D01*
X17549905Y-10530952D01*
X17549905Y-10526190D01*
X17554667Y-10516667D01*
X17564190Y-10511905D01*
X17578476Y-10511905D01*
X17588000Y-10507143D01*
X17592762Y-10497619D01*
X17592762Y-10492857D01*
X17588000Y-10483333D01*
X17578476Y-10478571D01*
X17564190Y-10478571D01*
X17554667Y-10483333D01*
X17430857Y-10545238D02*
X17430857Y-10445238D01*
X17397524Y-10516667D01*
X17364190Y-10445238D01*
X17364190Y-10545238D01*
X17297524Y-10445238D02*
X17288000Y-10445238D01*
X17278476Y-10450000D01*
X17273714Y-10454762D01*
X17268952Y-10464286D01*
X17264190Y-10483333D01*
X17264190Y-10507143D01*
X17268952Y-10526190D01*
X17273714Y-10535714D01*
X17278476Y-10540476D01*
X17288000Y-10545238D01*
X17297524Y-10545238D01*
X17307048Y-10540476D01*
X17311810Y-10535714D01*
X17316571Y-10526190D01*
X17321333Y-10507143D01*
X17321333Y-10483333D01*
X17316571Y-10464286D01*
X17311810Y-10454762D01*
X17307048Y-10450000D01*
X17297524Y-10445238D01*
X17226095Y-10540476D02*
X17211810Y-10545238D01*
X17188000Y-10545238D01*
X17178476Y-10540476D01*
X17173714Y-10535714D01*
X17168952Y-10526190D01*
X17168952Y-10516667D01*
X17173714Y-10507143D01*
X17178476Y-10502381D01*
X17188000Y-10497619D01*
X17207048Y-10492857D01*
X17216571Y-10488095D01*
X17221333Y-10483333D01*
X17226095Y-10473810D01*
X17226095Y-10464286D01*
X17221333Y-10454762D01*
X17216571Y-10450000D01*
X17207048Y-10445238D01*
X17183238Y-10445238D01*
X17168952Y-10450000D01*
X17092762Y-10492857D02*
X17078476Y-10497619D01*
X17073714Y-10502381D01*
X17068952Y-10511905D01*
X17068952Y-10526190D01*
X17073714Y-10535714D01*
X17078476Y-10540476D01*
X17088000Y-10545238D01*
X17126095Y-10545238D01*
X17126095Y-10445238D01*
X17092762Y-10445238D01*
X17083238Y-10450000D01*
X17078476Y-10454762D01*
X17073714Y-10464286D01*
X17073714Y-10473810D01*
X17078476Y-10483333D01*
X17083238Y-10488095D01*
X17092762Y-10492857D01*
X17126095Y-10492857D01*
X17026095Y-10445238D02*
X17026095Y-10526190D01*
X17021333Y-10535714D01*
X17016571Y-10540476D01*
X17007048Y-10545238D01*
X16988000Y-10545238D01*
X16978476Y-10540476D01*
X16973714Y-10535714D01*
X16968952Y-10526190D01*
X16968952Y-10445238D01*
X16849905Y-10454762D02*
X16845143Y-10450000D01*
X16835619Y-10445238D01*
X16811810Y-10445238D01*
X16802286Y-10450000D01*
X16797524Y-10454762D01*
X16792762Y-10464286D01*
X16792762Y-10473810D01*
X16797524Y-10488095D01*
X16854667Y-10545238D01*
X16792762Y-10545238D01*
X16730857Y-10445238D02*
X16721333Y-10445238D01*
X16711809Y-10450000D01*
X16707048Y-10454762D01*
X16702286Y-10464286D01*
X16697524Y-10483333D01*
X16697524Y-10507143D01*
X16702286Y-10526190D01*
X16707048Y-10535714D01*
X16711809Y-10540476D01*
X16721333Y-10545238D01*
X16730857Y-10545238D01*
X16740381Y-10540476D01*
X16745143Y-10535714D01*
X16749905Y-10526190D01*
X16754667Y-10507143D01*
X16754667Y-10483333D01*
X16749905Y-10464286D01*
X16745143Y-10454762D01*
X16740381Y-10450000D01*
X16730857Y-10445238D01*
X16659428Y-10454762D02*
X16654667Y-10450000D01*
X16645143Y-10445238D01*
X16621333Y-10445238D01*
X16611809Y-10450000D01*
X16607048Y-10454762D01*
X16602286Y-10464286D01*
X16602286Y-10473810D01*
X16607048Y-10488095D01*
X16664190Y-10545238D01*
X16602286Y-10545238D01*
X16540381Y-10445238D02*
X16530857Y-10445238D01*
X16521333Y-10450000D01*
X16516571Y-10454762D01*
X16511809Y-10464286D01*
X16507048Y-10483333D01*
X16507048Y-10507143D01*
X16511809Y-10526190D01*
X16516571Y-10535714D01*
X16521333Y-10540476D01*
X16530857Y-10545238D01*
X16540381Y-10545238D01*
X16549905Y-10540476D01*
X16554667Y-10535714D01*
X16559428Y-10526190D01*
X16564190Y-10507143D01*
X16564190Y-10483333D01*
X16559428Y-10464286D01*
X16554667Y-10454762D01*
X16549905Y-10450000D01*
X16540381Y-10445238D01*
D11*
X19493333Y-15405714D02*
X19432381Y-15405714D01*
X18967619Y-15405714D02*
X18906667Y-15405714D01*
X18937143Y-15436190D02*
X18937143Y-15375238D01*
X19100000Y-15405000D02*
X19050000Y-15405000D01*
X19300000Y-15405000D02*
X19350000Y-15405000D01*
X19275000Y-15405000D02*
X19300000Y-15405000D01*
X19200000Y-15405000D02*
X19100000Y-15405000D01*
X19150000Y-15355000D02*
G75*
G02X19150000Y-15455000I50000J-50000D01*
G01*
D12*
X19215000Y-15405000D02*
G75*
G03X19215000Y-15405000I-15000J0D01*
G01*
D11*
X19200000Y-15225000D02*
X19025000Y-15225000D01*
X19200000Y-15275000D02*
X19175000Y-15275000D01*
X19100000Y-15275000D02*
X19125000Y-15275000D01*
X19025000Y-15275000D02*
X19050000Y-15275000D01*
X19410952Y-15286190D02*
X19410952Y-15206190D01*
X19391905Y-15206190D01*
X19380476Y-15210000D01*
X19372857Y-15217619D01*
X19369048Y-15225238D01*
X19365238Y-15240476D01*
X19365238Y-15251905D01*
X19369048Y-15267143D01*
X19372857Y-15274762D01*
X19380476Y-15282381D01*
X19391905Y-15286190D01*
X19410952Y-15286190D01*
X19285238Y-15278571D02*
X19289048Y-15282381D01*
X19300476Y-15286190D01*
X19308095Y-15286190D01*
X19319524Y-15282381D01*
X19327143Y-15274762D01*
X19330952Y-15267143D01*
X19334762Y-15251905D01*
X19334762Y-15240476D01*
X19330952Y-15225238D01*
X19327143Y-15217619D01*
X19319524Y-15210000D01*
X19308095Y-15206190D01*
X19300476Y-15206190D01*
X19289048Y-15210000D01*
X19285238Y-15213809D01*
X19522143Y-15082857D02*
X19522143Y-15136190D01*
X19541190Y-15052381D02*
X19560238Y-15109524D01*
X19510714Y-15109524D01*
X19480238Y-15128571D02*
X19476429Y-15132381D01*
X19480238Y-15136190D01*
X19484048Y-15132381D01*
X19480238Y-15128571D01*
X19480238Y-15136190D01*
X19407857Y-15056190D02*
X19423095Y-15056190D01*
X19430714Y-15060000D01*
X19434524Y-15063809D01*
X19442143Y-15075238D01*
X19445952Y-15090476D01*
X19445952Y-15120952D01*
X19442143Y-15128571D01*
X19438333Y-15132381D01*
X19430714Y-15136190D01*
X19415476Y-15136190D01*
X19407857Y-15132381D01*
X19404048Y-15128571D01*
X19400238Y-15120952D01*
X19400238Y-15101905D01*
X19404048Y-15094286D01*
X19407857Y-15090476D01*
X19415476Y-15086667D01*
X19430714Y-15086667D01*
X19438333Y-15090476D01*
X19442143Y-15094286D01*
X19445952Y-15101905D01*
X19377381Y-15056190D02*
X19350714Y-15136190D01*
X19324048Y-15056190D01*
X19236429Y-15105714D02*
X19175476Y-15105714D01*
X19034524Y-15136190D02*
X19080238Y-15136190D01*
X19057381Y-15136190D02*
X19057381Y-15056190D01*
X19065000Y-15067619D01*
X19072619Y-15075238D01*
X19080238Y-15079048D01*
X18988810Y-15090476D02*
X18996429Y-15086667D01*
X19000238Y-15082857D01*
X19004048Y-15075238D01*
X19004048Y-15071428D01*
X19000238Y-15063809D01*
X18996429Y-15060000D01*
X18988810Y-15056190D01*
X18973571Y-15056190D01*
X18965952Y-15060000D01*
X18962143Y-15063809D01*
X18958333Y-15071428D01*
X18958333Y-15075238D01*
X18962143Y-15082857D01*
X18965952Y-15086667D01*
X18973571Y-15090476D01*
X18988810Y-15090476D01*
X18996429Y-15094286D01*
X19000238Y-15098095D01*
X19004048Y-15105714D01*
X19004048Y-15120952D01*
X19000238Y-15128571D01*
X18996429Y-15132381D01*
X18988810Y-15136190D01*
X18973571Y-15136190D01*
X18965952Y-15132381D01*
X18962143Y-15128571D01*
X18958333Y-15120952D01*
X18958333Y-15105714D01*
X18962143Y-15098095D01*
X18965952Y-15094286D01*
X18973571Y-15090476D01*
X18935476Y-15056190D02*
X18908810Y-15136190D01*
X18882143Y-15056190D01*
X17999524Y-15286190D02*
X18045238Y-15286190D01*
X18022381Y-15286190D02*
X18022381Y-15206190D01*
X18030000Y-15217619D01*
X18037619Y-15225238D01*
X18045238Y-15229048D01*
X17950000Y-15206190D02*
X17942381Y-15206190D01*
X17934762Y-15210000D01*
X17930952Y-15213809D01*
X17927143Y-15221428D01*
X17923333Y-15236667D01*
X17923333Y-15255714D01*
X17927143Y-15270952D01*
X17930952Y-15278571D01*
X17934762Y-15282381D01*
X17942381Y-15286190D01*
X17950000Y-15286190D01*
X17957619Y-15282381D01*
X17961429Y-15278571D01*
X17965238Y-15270952D01*
X17969048Y-15255714D01*
X17969048Y-15236667D01*
X17965238Y-15221428D01*
X17961429Y-15213809D01*
X17957619Y-15210000D01*
X17950000Y-15206190D01*
X17831905Y-15202381D02*
X17900476Y-15305238D01*
X17763333Y-15286190D02*
X17809048Y-15286190D01*
X17786190Y-15286190D02*
X17786190Y-15206190D01*
X17793810Y-15217619D01*
X17801429Y-15225238D01*
X17809048Y-15229048D01*
X17713810Y-15206190D02*
X17706190Y-15206190D01*
X17698571Y-15210000D01*
X17694762Y-15213809D01*
X17690952Y-15221428D01*
X17687143Y-15236667D01*
X17687143Y-15255714D01*
X17690952Y-15270952D01*
X17694762Y-15278571D01*
X17698571Y-15282381D01*
X17706190Y-15286190D01*
X17713810Y-15286190D01*
X17721429Y-15282381D01*
X17725238Y-15278571D01*
X17729048Y-15270952D01*
X17732857Y-15255714D01*
X17732857Y-15236667D01*
X17729048Y-15221428D01*
X17725238Y-15213809D01*
X17721429Y-15210000D01*
X17713810Y-15206190D01*
X17637619Y-15206190D02*
X17630000Y-15206190D01*
X17622381Y-15210000D01*
X17618571Y-15213809D01*
X17614762Y-15221428D01*
X17610952Y-15236667D01*
X17610952Y-15255714D01*
X17614762Y-15270952D01*
X17618571Y-15278571D01*
X17622381Y-15282381D01*
X17630000Y-15286190D01*
X17637619Y-15286190D01*
X17645238Y-15282381D01*
X17649048Y-15278571D01*
X17652857Y-15270952D01*
X17656667Y-15255714D01*
X17656667Y-15236667D01*
X17652857Y-15221428D01*
X17649048Y-15213809D01*
X17645238Y-15210000D01*
X17637619Y-15206190D01*
X17515714Y-15244286D02*
X17489048Y-15244286D01*
X17477619Y-15286190D02*
X17515714Y-15286190D01*
X17515714Y-15206190D01*
X17477619Y-15206190D01*
X17454762Y-15232857D02*
X17424286Y-15232857D01*
X17443333Y-15206190D02*
X17443333Y-15274762D01*
X17439524Y-15282381D01*
X17431905Y-15286190D01*
X17424286Y-15286190D01*
X17397619Y-15286190D02*
X17397619Y-15206190D01*
X17363333Y-15286190D02*
X17363333Y-15244286D01*
X17367143Y-15236667D01*
X17374762Y-15232857D01*
X17386190Y-15232857D01*
X17393810Y-15236667D01*
X17397619Y-15240476D01*
X17294762Y-15282381D02*
X17302381Y-15286190D01*
X17317619Y-15286190D01*
X17325238Y-15282381D01*
X17329048Y-15274762D01*
X17329048Y-15244286D01*
X17325238Y-15236667D01*
X17317619Y-15232857D01*
X17302381Y-15232857D01*
X17294762Y-15236667D01*
X17290952Y-15244286D01*
X17290952Y-15251905D01*
X17329048Y-15259524D01*
X17256667Y-15286190D02*
X17256667Y-15232857D01*
X17256667Y-15248095D02*
X17252857Y-15240476D01*
X17249048Y-15236667D01*
X17241429Y-15232857D01*
X17233810Y-15232857D01*
X17207143Y-15232857D02*
X17207143Y-15286190D01*
X17207143Y-15240476D02*
X17203333Y-15236667D01*
X17195714Y-15232857D01*
X17184286Y-15232857D01*
X17176667Y-15236667D01*
X17172857Y-15244286D01*
X17172857Y-15286190D01*
X17104286Y-15282381D02*
X17111905Y-15286190D01*
X17127143Y-15286190D01*
X17134762Y-15282381D01*
X17138571Y-15274762D01*
X17138571Y-15244286D01*
X17134762Y-15236667D01*
X17127143Y-15232857D01*
X17111905Y-15232857D01*
X17104286Y-15236667D01*
X17100476Y-15244286D01*
X17100476Y-15251905D01*
X17138571Y-15259524D01*
X17077619Y-15232857D02*
X17047143Y-15232857D01*
X17066190Y-15206190D02*
X17066190Y-15274762D01*
X17062381Y-15282381D01*
X17054762Y-15286190D01*
X17047143Y-15286190D01*
G36*
X14650000Y-14850000D02*
G01*
X12300000Y-14850000D01*
X12300000Y-14150000D01*
X14650000Y-14150000D01*
X14650000Y-14850000D01*
G37*
X14650000Y-14850000D02*
X12300000Y-14850000D01*
X12300000Y-14150000D01*
X14650000Y-14150000D01*
X14650000Y-14850000D01*
X14625012Y-14082381D02*
X14613583Y-14086190D01*
X14594536Y-14086190D01*
X14586917Y-14082381D01*
X14583107Y-14078571D01*
X14579298Y-14070952D01*
X14579298Y-14063333D01*
X14583107Y-14055714D01*
X14586917Y-14051905D01*
X14594536Y-14048095D01*
X14609774Y-14044286D01*
X14617393Y-14040476D01*
X14621202Y-14036667D01*
X14625012Y-14029048D01*
X14625012Y-14021428D01*
X14621202Y-14013809D01*
X14617393Y-14010000D01*
X14609774Y-14006190D01*
X14590726Y-14006190D01*
X14579298Y-14010000D01*
X14514536Y-14082381D02*
X14522155Y-14086190D01*
X14537393Y-14086190D01*
X14545012Y-14082381D01*
X14548821Y-14074762D01*
X14548821Y-14044286D01*
X14545012Y-14036667D01*
X14537393Y-14032857D01*
X14522155Y-14032857D01*
X14514536Y-14036667D01*
X14510726Y-14044286D01*
X14510726Y-14051905D01*
X14548821Y-14059524D01*
X14476440Y-14086190D02*
X14476440Y-14032857D01*
X14476440Y-14048095D02*
X14472631Y-14040476D01*
X14468821Y-14036667D01*
X14461202Y-14032857D01*
X14453583Y-14032857D01*
X14426917Y-14086190D02*
X14426917Y-14032857D01*
X14426917Y-14006190D02*
X14430726Y-14010000D01*
X14426917Y-14013809D01*
X14423107Y-14010000D01*
X14426917Y-14006190D01*
X14426917Y-14013809D01*
X14354536Y-14086190D02*
X14354536Y-14044286D01*
X14358345Y-14036667D01*
X14365964Y-14032857D01*
X14381202Y-14032857D01*
X14388821Y-14036667D01*
X14354536Y-14082381D02*
X14362155Y-14086190D01*
X14381202Y-14086190D01*
X14388821Y-14082381D01*
X14392631Y-14074762D01*
X14392631Y-14067143D01*
X14388821Y-14059524D01*
X14381202Y-14055714D01*
X14362155Y-14055714D01*
X14354536Y-14051905D01*
X14305012Y-14086190D02*
X14312631Y-14082381D01*
X14316440Y-14074762D01*
X14316440Y-14006190D01*
X14213583Y-14086190D02*
X14213583Y-14006190D01*
X14167869Y-14086190D01*
X14167869Y-14006190D01*
X14095488Y-14032857D02*
X14095488Y-14086190D01*
X14129774Y-14032857D02*
X14129774Y-14074762D01*
X14125964Y-14082381D01*
X14118345Y-14086190D01*
X14106917Y-14086190D01*
X14099298Y-14082381D01*
X14095488Y-14078571D01*
X14057393Y-14086190D02*
X14057393Y-14032857D01*
X14057393Y-14040476D02*
X14053583Y-14036667D01*
X14045964Y-14032857D01*
X14034536Y-14032857D01*
X14026917Y-14036667D01*
X14023107Y-14044286D01*
X14023107Y-14086190D01*
X14023107Y-14044286D02*
X14019298Y-14036667D01*
X14011678Y-14032857D01*
X14000250Y-14032857D01*
X13992631Y-14036667D01*
X13988821Y-14044286D01*
X13988821Y-14086190D01*
X13950726Y-14086190D02*
X13950726Y-14006190D01*
X13950726Y-14036667D02*
X13943107Y-14032857D01*
X13927869Y-14032857D01*
X13920250Y-14036667D01*
X13916440Y-14040476D01*
X13912631Y-14048095D01*
X13912631Y-14070952D01*
X13916440Y-14078571D01*
X13920250Y-14082381D01*
X13927869Y-14086190D01*
X13943107Y-14086190D01*
X13950726Y-14082381D01*
X13847869Y-14082381D02*
X13855488Y-14086190D01*
X13870726Y-14086190D01*
X13878345Y-14082381D01*
X13882155Y-14074762D01*
X13882155Y-14044286D01*
X13878345Y-14036667D01*
X13870726Y-14032857D01*
X13855488Y-14032857D01*
X13847869Y-14036667D01*
X13844059Y-14044286D01*
X13844059Y-14051905D01*
X13882155Y-14059524D01*
X13809774Y-14086190D02*
X13809774Y-14032857D01*
X13809774Y-14048095D02*
X13805964Y-14040476D01*
X13802155Y-14036667D01*
X13794536Y-14032857D01*
X13786917Y-14032857D01*
X13760250Y-14078571D02*
X13756440Y-14082381D01*
X13760250Y-14086190D01*
X13764059Y-14082381D01*
X13760250Y-14078571D01*
X13760250Y-14086190D01*
X13760250Y-14036667D02*
X13756440Y-14040476D01*
X13760250Y-14044286D01*
X13764059Y-14040476D01*
X13760250Y-14036667D01*
X13760250Y-14044286D01*
D13*
X12200000Y-15400000D02*
X12200000Y-15600000D01*
X19700000Y-15400000D02*
X19700000Y-15600000D01*
X12200000Y-14500000D02*
X12200000Y-15300000D01*
X19700000Y-14600000D02*
X19700000Y-15400000D01*
X12200000Y-15600000D02*
X19700000Y-15600000D01*
X12200000Y-15300000D02*
X12200000Y-15400000D01*
X12200000Y-14400000D02*
X12200000Y-14500000D01*
X12200000Y-10000000D02*
X12200000Y-14400000D01*
X12200000Y-10000000D02*
X18000000Y-10000000D01*
X19500000Y-12600000D02*
X19500000Y-11100000D01*
X19700000Y-14100000D02*
X19700000Y-14600000D01*
X20000000Y-14100000D02*
X19700000Y-14100000D01*
X20000000Y-12600000D02*
X20000000Y-14100000D01*
X20000000Y-10000000D02*
X18000000Y-10000000D01*
X20000000Y-11100000D02*
X20000000Y-10000000D01*
X20000000Y-12600000D02*
X20000000Y-11100000D01*
X19500000Y-11100000D02*
X19300000Y-11100000D01*
X19300000Y-12600000D02*
X19500000Y-12600000D01*
X19300000Y-11100000D02*
X19300000Y-12600000D01*
D11*
X16152500Y-10250000D02*
G75*
G03X16152500Y-10250000I-152500J0D01*
G01*
X16312500Y-13050000D02*
G75*
G03X16312500Y-13050000I-112500J0D01*
G01*
%LPC*%
D14*
X13990000Y-15100000D03*
X12410000Y-15100000D03*
X12520000Y-13730000D03*
X13880000Y-13750000D03*
D15*
X18185000Y-14500000D03*
X16915000Y-14500000D03*
D16*
X17448400Y-13382400D03*
X17651600Y-13382400D03*
X17854800Y-13382400D03*
X18058000Y-13382400D03*
X17245200Y-13382400D03*
X17042000Y-13382400D03*
D17*
X16743550Y-14817500D03*
X18356450Y-14817500D03*
D18*
X17082640Y-13136000D03*
X16828640Y-13136000D03*
X18017360Y-13136000D03*
X18271360Y-13136000D03*
D19*
X13138000Y-10300000D03*
D20*
X13392000Y-10300000D03*
X13646000Y-10300000D03*
X13900000Y-10300000D03*
X14154000Y-10300000D03*
X14408000Y-10300000D03*
X14662000Y-10300000D03*
X14916000Y-10300000D03*
D21*
X19096000Y-10246000D03*
X19223000Y-10246000D03*
X19350000Y-10246000D03*
X19477000Y-10246000D03*
X19604000Y-10246000D03*
X19096000Y-10754000D03*
X19223000Y-10754000D03*
X19350000Y-10754000D03*
X19477000Y-10754000D03*
X19604000Y-10754000D03*
D22*
X13200000Y-12105000D03*
X13200000Y-13245000D03*
D18*
X13950000Y-12675000D03*
X13950000Y-12425000D03*
X13950000Y-12925000D03*
X15100000Y-10725000D03*
D23*
X14465000Y-11425000D03*
X14465000Y-10925000D03*
X15735000Y-11425000D03*
X15735000Y-10925000D03*
D18*
X15100000Y-11625000D03*
X13200000Y-11625000D03*
D23*
X13835000Y-10925000D03*
X13835000Y-11425000D03*
X12565000Y-10925000D03*
X12565000Y-11425000D03*
D18*
X13200000Y-10725000D03*
D24*
X15450000Y-12650000D03*
D25*
X19050000Y-14200000D03*
D26*
X19050000Y-14800000D03*
X19520000Y-14500000D03*
D27*
X19650000Y-11300000D03*
X19650000Y-11520000D03*
X19650000Y-11740000D03*
X19650000Y-11950000D03*
X19650000Y-12180000D03*
X19650000Y-12400000D03*
M02*
