M48
; DRILL file {KiCad 5.1.5-52549c5~84~ubuntu19.04.1} date Sat Apr 18 10:51:23 2020
; FORMAT={-:-/ absolute / metric / decimal}
; #@! TF.CreationDate,2020-04-18T10:51:23+00:00
; #@! TF.GenerationSoftware,Kicad,Pcbnew,5.1.5-52549c5~84~ubuntu19.04.1
FMAT,2
METRIC
T1C0.300
T2C0.350
T3C0.900
T4C1.000
T5C1.200
T6C1.600
T7C1.800
T8C2.500
T9C1.800
T10C2.400
T11C3.200
T12C3.250
T13C4.000
%
G90
G05
T1
X141.0Y-123.0
X141.0Y-130.5
X143.5Y-128.0
X143.5Y-125.5
X147.0Y-142.75
X147.0Y-147.5
X147.35Y-133.3
X147.35Y-134.55
X148.5Y-125.0
X148.75Y-132.0
X149.05Y-135.4
X149.25Y-142.5
X149.25Y-149.0
X149.5Y-139.75
X150.25Y-123.5
X150.5Y-142.5
X150.5Y-149.0
X151.25Y-120.0
X152.1Y-150.5
X152.3Y-140.3
X152.7Y-118.6
X152.75Y-134.25
X152.9Y-150.5
X153.5Y-131.5
X153.5Y-132.75
X153.5Y-137.75
X153.5Y-138.5
X153.8Y-154.6
X153.875Y-122.85
X153.9Y-118.6
X153.995Y-139.705
X154.25Y-133.25
X154.45Y-151.75
X154.6Y-154.6
X155.0Y-134.5
X155.125Y-122.85
X155.2Y-118.6
X155.5Y-146.0
X156.7Y-144.2
X157.75Y-130.75
X157.75Y-131.5
X157.8Y-136.3
X158.5Y-141.9
X159.26Y-144.75
X159.5Y-112.5
X159.75Y-135.5
X159.855Y-142.105
X160.5Y-125.0
X160.5Y-128.0
X160.75Y-151.25
X160.75Y-152.25
X161.25Y-118.75
X163.455Y-113.655
X164.1Y-109.005
X164.1Y-112.8
X164.1Y-113.5
X164.105Y-107.995
X164.2Y-118.5
X164.25Y-150.5
X164.35Y-123.55
X164.35Y-124.45
X164.5Y-147.0
X164.5Y-154.5
X164.75Y-150.5
X165.0Y-122.65
X165.85Y-101.75
X166.25Y-131.75
X166.4Y-118.0
X166.5Y-106.5
X166.9Y-121.3
X167.0Y-103.5
X167.552Y-121.3
X168.502Y-103.5
X169.5Y-121.3
X170.75Y-129.25
X171.5Y-118.75
X171.998Y-121.3
X173.5Y-119.0
X174.495Y-121.295
X176.0Y-118.75
X177.25Y-124.0
X177.348Y-119.0
X178.0Y-119.0
X178.4Y-105.9
X178.5Y-123.25
X178.652Y-121.301
X179.0Y-119.0
X179.2Y-105.902
X179.5Y-115.5
X179.6Y-106.5
X180.0Y-122.25
X180.7Y-118.9
X180.75Y-120.75
X181.5Y-123.25
X181.732Y-114.937
X181.745Y-108.027
X181.75Y-118.0
X181.902Y-115.585
X182.28Y-106.47
X182.327Y-116.118
X182.75Y-129.25
X183.1Y-123.5
X183.4Y-118.9
X183.75Y-104.75
X183.9Y-123.5
X184.1Y-119.345
X184.25Y-121.25
X184.25Y-122.75
X184.75Y-131.75
X184.838Y-128.514
X185.25Y-106.0
X185.25Y-109.75
X186.2Y-128.5
X186.25Y-134.75
X187.3Y-133.9
X187.3Y-135.7
X187.363Y-126.735
X187.75Y-137.0
X188.7Y-111.5
X188.95Y-114.7
X189.45Y-129.85
X190.3Y-120.0
X190.3Y-121.0
X190.3Y-122.0
X190.3Y-123.0
X190.3Y-124.0
X190.3Y-125.0
X190.3Y-126.0
X190.3Y-127.0
X190.3Y-128.0
X190.3Y-129.0
X190.4Y-112.0
X190.7Y-133.9
X190.7Y-135.7
X191.1Y-112.0
X191.25Y-126.5
X191.75Y-134.75
X194.25Y-132.85
X195.5Y-136.75
X195.5Y-137.75
X195.5Y-138.75
X195.85Y-132.6
X196.2Y-127.7
X196.2Y-128.3
X197.9Y-112.7
X197.9Y-113.3
X197.9Y-114.9
X197.9Y-115.5
X197.9Y-117.1
X197.9Y-117.7
X197.9Y-119.2
X197.9Y-119.8
X197.9Y-121.5
X197.9Y-122.1
X197.9Y-123.7
X197.9Y-124.3
X190.96Y-102.46
X190.96Y-107.54
X192.23Y-102.46
X192.23Y-107.54
X193.5Y-102.46
X193.5Y-107.54
X194.77Y-102.46
X194.77Y-107.54
X196.04Y-102.46
X196.04Y-107.54
T2
X183.9Y-125.4
X183.9Y-126.6
X185.1Y-125.4
X185.1Y-126.6
T3
X170.42Y-133.824
X172.452Y-133.824
X174.484Y-133.824
X176.516Y-133.824
X178.548Y-133.824
X180.58Y-133.824
T4
X131.38Y-103.0
X133.92Y-103.0
X136.46Y-103.0
X139.0Y-103.0
X141.54Y-103.0
X144.08Y-103.0
X146.62Y-103.0
X149.16Y-103.0
X139.5Y-124.25
X139.5Y-126.75
X139.5Y-129.25
X168.286Y-131.36
X170.826Y-131.36
X180.174Y-131.36
X182.714Y-131.36
T5
X125.65Y-109.25
X125.65Y-114.25
X138.35Y-109.25
X138.35Y-114.25
X144.65Y-109.25
X144.65Y-114.25
X157.35Y-109.25
X157.35Y-114.25
T6
X190.5Y-142.0
X190.5Y-148.0
X195.2Y-145.0
X167.435Y-148.175
X183.564Y-148.175
T7
X124.1Y-151.0
X125.2Y-137.3
X138.8Y-137.5
X139.9Y-151.0
T8
X132.0Y-121.05
X132.0Y-132.45
T9
X132.0Y-107.25
X132.0Y-116.25
X151.0Y-107.25
X151.0Y-116.25
T10
X162.0Y-130.5
T11
X160.0Y-102.5
T12
X169.15Y-145.0
X181.85Y-145.0
T13
X154.5Y-126.5
T0
M30
