%TF.GenerationSoftware,KiCad,Pcbnew,5.1.5-52549c5~84~ubuntu19.04.1*%
%TF.CreationDate,2020-04-18T11:31:06+00:00*%
%TF.ProjectId,alakol,616c616b-6f6c-42e6-9b69-6361645f7063,rev.1*%
%TF.SameCoordinates,Original*%
%TF.FileFunction,Plated,1,4,PTH,Drill*%
%TF.FilePolarity,Positive*%
%FSLAX46Y46*%
G04 Gerber Fmt 4.6, Leading zero omitted, Abs format (unit mm)*
G04 Created by KiCad (PCBNEW 5.1.5-52549c5~84~ubuntu19.04.1) date 2020-04-18 11:31:06*
%MOMM*%
%LPD*%
G04 APERTURE LIST*
%TA.AperFunction,ViaDrill*%
%ADD10C,0.300000*%
%TD*%
%TA.AperFunction,ComponentDrill*%
%ADD11C,0.300000*%
%TD*%
%TA.AperFunction,ComponentDrill*%
%ADD12C,0.350000*%
%TD*%
%TA.AperFunction,ComponentDrill*%
%ADD13C,0.900000*%
%TD*%
%TA.AperFunction,ComponentDrill*%
%ADD14C,1.000000*%
%TD*%
%TA.AperFunction,ComponentDrill*%
%ADD15C,1.200000*%
%TD*%
%TA.AperFunction,ComponentDrill*%
%ADD16C,1.600000*%
%TD*%
%TA.AperFunction,ComponentDrill*%
%ADD17C,1.800000*%
%TD*%
%TA.AperFunction,ComponentDrill*%
%ADD18C,2.500000*%
%TD*%
G04 APERTURE END LIST*
D10*
X141000000Y-123000000D03*
X141000000Y-130500000D03*
X143499989Y-128000000D03*
X143500000Y-125500000D03*
X147000000Y-142750000D03*
X147000000Y-147500000D03*
X147350000Y-133300000D03*
X147350000Y-134550000D03*
X148500000Y-125000000D03*
X148750000Y-132000000D03*
X149050000Y-135400000D03*
X149250000Y-142500000D03*
X149250000Y-149000000D03*
X149500000Y-139750000D03*
X150250000Y-123500000D03*
X150500000Y-142500000D03*
X150500000Y-149000000D03*
X151250000Y-120000000D03*
X152100000Y-150500000D03*
X152300000Y-140300000D03*
X152700000Y-118600000D03*
X152750000Y-134250000D03*
X152900000Y-150500000D03*
X153500000Y-131500000D03*
X153500000Y-132750000D03*
X153500000Y-137750000D03*
X153500000Y-138500000D03*
X153800000Y-154600000D03*
X153875000Y-122850000D03*
X153900000Y-118600000D03*
X153994749Y-139705251D03*
X154250000Y-133250000D03*
X154450000Y-151750000D03*
X154600000Y-154600000D03*
X155000000Y-134500000D03*
X155125000Y-122850000D03*
X155200000Y-118600000D03*
X155500000Y-146000000D03*
X156700000Y-144200000D03*
X157750000Y-130750000D03*
X157750000Y-131500000D03*
X157800000Y-136300000D03*
X158000000Y-119497600D03*
X158500000Y-141900000D03*
X159260000Y-144750000D03*
X159500000Y-112500000D03*
X159750000Y-135500000D03*
X159855258Y-142105258D03*
X160500000Y-125000000D03*
X160500000Y-128000000D03*
X160750000Y-151250000D03*
X160750000Y-152250000D03*
X161250000Y-118750000D03*
X163455258Y-113655258D03*
X163502401Y-112997599D03*
X164100000Y-109004801D03*
X164100000Y-113500000D03*
X164105254Y-107994737D03*
X164200000Y-118500000D03*
X164200000Y-150500000D03*
X164350000Y-123550000D03*
X164350000Y-124450000D03*
X164500000Y-147000000D03*
X164500000Y-154500000D03*
X164800000Y-150500000D03*
X165000000Y-122650000D03*
X165850000Y-101750000D03*
X166250000Y-131750000D03*
X166400000Y-118000000D03*
X166500000Y-106500000D03*
X166500000Y-107152403D03*
X166750000Y-115500000D03*
X166900000Y-121300000D03*
X167000000Y-103500000D03*
X167552403Y-121300000D03*
X168502400Y-103500000D03*
X169500000Y-121300000D03*
X170750000Y-129250000D03*
X171500000Y-118750000D03*
X171997600Y-121300000D03*
X173500000Y-119000000D03*
X174494742Y-121294742D03*
X176000000Y-118750000D03*
X177250000Y-124000000D03*
X177347597Y-119000000D03*
X178000000Y-119000000D03*
X178400000Y-105900000D03*
X178500000Y-123250000D03*
X178652401Y-121300544D03*
X179000000Y-119000000D03*
X179200000Y-105902410D03*
X179500000Y-115500000D03*
X179600000Y-106500000D03*
X180000000Y-122250000D03*
X180700000Y-118900000D03*
X180750000Y-120750000D03*
X181500000Y-123250000D03*
X181731590Y-114937475D03*
X181745179Y-108027400D03*
X181902410Y-115585115D03*
X182280251Y-106469749D03*
X182327044Y-116118143D03*
X182750000Y-129250000D03*
X183100000Y-123500000D03*
X183500000Y-118250000D03*
X183750000Y-104750000D03*
X183900000Y-123500000D03*
X184250000Y-121250000D03*
X184250000Y-122750000D03*
X184750000Y-131750000D03*
X184838033Y-128514396D03*
X185250000Y-106000000D03*
X185250000Y-108500000D03*
X186200000Y-128500000D03*
X186250000Y-134750000D03*
X187300000Y-133900000D03*
X187300000Y-135700000D03*
X187362884Y-126735417D03*
X187750000Y-137000000D03*
X188700000Y-111500000D03*
X188950000Y-114700000D03*
X189450000Y-129850000D03*
X190300000Y-120000000D03*
X190300000Y-121000000D03*
X190300000Y-122000000D03*
X190300000Y-123000000D03*
X190300000Y-124000000D03*
X190300000Y-125000000D03*
X190300000Y-126000000D03*
X190300000Y-127000000D03*
X190300000Y-128000000D03*
X190300000Y-129000000D03*
X190400000Y-112000000D03*
X190700000Y-133900000D03*
X190700000Y-135700000D03*
X191100000Y-112000000D03*
X191250000Y-126500000D03*
X191750000Y-134750000D03*
X194250000Y-132850000D03*
X195500000Y-136750000D03*
X195500000Y-137750000D03*
X195500000Y-138750000D03*
X195850000Y-132600000D03*
X196200000Y-127700000D03*
X196200000Y-128300000D03*
X197900000Y-112700000D03*
X197900000Y-113300000D03*
X197900000Y-114900000D03*
X197900000Y-115500000D03*
X197900000Y-117100000D03*
X197900000Y-117700000D03*
X197900000Y-119200000D03*
X197900000Y-119800000D03*
X197900000Y-121500000D03*
X197900000Y-122100000D03*
X197900000Y-123700000D03*
X197900000Y-124300000D03*
D11*
%TO.C,P1*%
X190960000Y-102460000D03*
X190960000Y-107540000D03*
X192230000Y-102460000D03*
X192230000Y-107540000D03*
X193500000Y-102460000D03*
X193500000Y-107540000D03*
X194770000Y-102460000D03*
X194770000Y-107540000D03*
X196040000Y-102460000D03*
X196040000Y-107540000D03*
D12*
%TO.C,IC1*%
X183900000Y-125400000D03*
X183900000Y-126600000D03*
X185100000Y-125400000D03*
X185100000Y-126600000D03*
D13*
%TO.C,J2*%
X170420000Y-133824000D03*
X172452000Y-133824000D03*
X174484000Y-133824000D03*
X176516000Y-133824000D03*
X178548000Y-133824000D03*
X180580000Y-133824000D03*
D14*
%TO.C,J1*%
X131380000Y-103000000D03*
X133920000Y-103000000D03*
X136460000Y-103000000D03*
X139000000Y-103000000D03*
X141540000Y-103000000D03*
X144080000Y-103000000D03*
X146620000Y-103000000D03*
X149160000Y-103000000D03*
%TO.C,SW1*%
X139500000Y-124250000D03*
X139500000Y-126750000D03*
X139500000Y-129250000D03*
%TO.C,J2*%
X168286400Y-131360000D03*
X170826400Y-131360000D03*
X180173600Y-131360000D03*
X182713600Y-131360000D03*
D15*
%TO.C,SW3*%
X125650000Y-109250000D03*
X125650000Y-114250000D03*
X138350000Y-109250000D03*
X138350000Y-114250000D03*
%TO.C,SW2*%
X144650000Y-109250000D03*
X144650000Y-114250000D03*
X157350000Y-109250000D03*
X157350000Y-114250000D03*
D16*
%TO.C,J4*%
X190500000Y-142000000D03*
X190500000Y-148000000D03*
X195200000Y-145000000D03*
%TO.C,J2*%
X167435500Y-148175000D03*
X183564500Y-148175000D03*
D17*
%TO.C,TC1*%
X124100000Y-151000000D03*
X125200000Y-137300000D03*
X138800000Y-137500000D03*
X139900000Y-151000000D03*
D18*
%TO.C,SW1*%
X132000000Y-121050000D03*
X132000000Y-132450000D03*
M02*
