  0
SECTION
  2
HEADER
  9
$ANGBASE
  50
0.0
  9
$ANGDIR
  70
1
  9
$MEASUREMENT
  70
0
  0
ENDSEC
  0
SECTION
  2
TABLES
  0
TABLE
  2
LTYPE
  70
4
  0
LTYPE
  5
40F
  2
CONTINUOUS
  70
0
  3
Solid line
  72
65
  73
0
  40
0.0
  0
LTYPE
  5
410
  2
DASHDOT
 70
0
  3
Dash Dot ____ _ ____ _
 72
65
 73
4
 40
2.0
 49
1.25
 49
-0.25
 49
0.25
 49
-0.25
  0
LTYPE
  5
411
  2
DASHED
 70
0
  3
Dashed __ __ __ __ __
 72
65
 73
2
 40
0.75
 49
0.5
 49
-0.25
  0
LTYPE
  5
43B
  2
DOTTED
 70
0
  3
Dotted .  .  .  .
 72
65
 73
2
 40
0.2
 49
0.0
 49
-0.2
  0
ENDTAB
  0
TABLE
  2
STYLE
  70
4
  0
STYLE
  2
KICAD
  70
0
  40
0
  41
1
  42
1
  50
0
  71
0
  3
isocp.shx
  0
STYLE
  2
KICADB
  70
0
  40
0
  41
1
  42
1
  50
0
  71
0
  3
isocp.shx
  0
STYLE
  2
KICADI
  70
0
  40
0
  41
1
  42
1
  50
15
  71
0
  3
isocp.shx
  0
STYLE
  2
KICADBI
  70
0
  40
0
  41
1
  42
1
  50
15
  71
0
  3
isocp.shx
  0
ENDTAB
  0
TABLE
  2
LAYER
  70
1
  0
LAYER
  2
BLACK
  70
0
  62
7
  6
CONTINUOUS
  0
ENDTAB
  0
ENDSEC
  0
SECTION
  2
ENTITIES
0
LINE
8
BLACK
6
CONTINUOUS
10
7.87599
20
-5.55118
11
7.87598
21
-5.55128
0
LINE
8
BLACK
6
CONTINUOUS
10
7.87598
20
-5.55128
11
7.87596
21
-5.55157
0
LINE
8
BLACK
6
CONTINUOUS
10
7.87596
20
-5.55157
11
7.87584
21
-5.55194
0
LINE
8
BLACK
6
CONTINUOUS
10
7.87584
20
-5.55194
11
7.87566
21
-5.55228
0
LINE
8
BLACK
6
CONTINUOUS
10
7.87566
20
-5.55228
11
7.87541
21
-5.55258
0
LINE
8
BLACK
6
CONTINUOUS
10
7.87541
20
-5.55258
11
7.87511
21
-5.55283
0
LINE
8
BLACK
6
CONTINUOUS
10
7.87511
20
-5.55283
11
7.87477
21
-5.55301
0
LINE
8
BLACK
6
CONTINUOUS
10
7.87477
20
-5.55301
11
7.8744
21
-5.55312
0
LINE
8
BLACK
6
CONTINUOUS
10
7.8744
20
-5.55312
11
7.87402
21
-5.55316
0
LINE
8
BLACK
6
CONTINUOUS
10
7.87402
20
-5.55316
11
7.87392
21
-5.55315
0
LINE
8
BLACK
6
CONTINUOUS
10
7.87392
20
-5.55315
11
7.75787
21
-5.55315
0
LINE
8
BLACK
6
CONTINUOUS
10
7.75787
20
-5.55315
11
7.75787
21
-6.14164
0
LINE
8
BLACK
6
CONTINUOUS
10
7.75787
20
-6.14164
11
7.75788
21
-6.14173
0
LINE
8
BLACK
6
CONTINUOUS
10
7.75788
20
-6.14173
11
7.75787
21
-6.14183
0
LINE
8
BLACK
6
CONTINUOUS
10
7.75787
20
-6.14183
11
7.75785
21
-6.14212
0
LINE
8
BLACK
6
CONTINUOUS
10
7.75785
20
-6.14212
11
7.75773
21
-6.14249
0
LINE
8
BLACK
6
CONTINUOUS
10
7.75773
20
-6.14249
11
7.75755
21
-6.14283
0
LINE
8
BLACK
6
CONTINUOUS
10
7.75755
20
-6.14283
11
7.7573
21
-6.14313
0
LINE
8
BLACK
6
CONTINUOUS
10
7.7573
20
-6.14313
11
7.757
21
-6.14338
0
LINE
8
BLACK
6
CONTINUOUS
10
7.757
20
-6.14338
11
7.75666
21
-6.14356
0
LINE
8
BLACK
6
CONTINUOUS
10
7.75666
20
-6.14356
11
7.75629
21
-6.14367
0
LINE
8
BLACK
6
CONTINUOUS
10
7.75629
20
-6.14367
11
7.75591
21
-6.14371
0
LINE
8
BLACK
6
CONTINUOUS
10
7.75591
20
-6.14371
11
7.75581
21
-6.1437
0
LINE
8
BLACK
6
CONTINUOUS
10
7.75581
20
-6.1437
11
4.80325
21
-6.1437
0
LINE
8
BLACK
6
CONTINUOUS
10
4.80325
20
-6.1437
11
4.80315
21
-6.14371
0
LINE
8
BLACK
6
CONTINUOUS
10
4.80315
20
-6.14371
11
4.80305
21
-6.1437
0
LINE
8
BLACK
6
CONTINUOUS
10
4.80305
20
-6.1437
11
4.80276
21
-6.14367
0
LINE
8
BLACK
6
CONTINUOUS
10
4.80276
20
-6.14367
11
4.80239
21
-6.14356
0
LINE
8
BLACK
6
CONTINUOUS
10
4.80239
20
-6.14356
11
4.80205
21
-6.14338
0
LINE
8
BLACK
6
CONTINUOUS
10
4.80205
20
-6.14338
11
4.80175
21
-6.14313
0
LINE
8
BLACK
6
CONTINUOUS
10
4.80175
20
-6.14313
11
4.8015
21
-6.14283
0
LINE
8
BLACK
6
CONTINUOUS
10
4.8015
20
-6.14283
11
4.80132
21
-6.14249
0
LINE
8
BLACK
6
CONTINUOUS
10
4.80132
20
-6.14249
11
4.80121
21
-6.14212
0
LINE
8
BLACK
6
CONTINUOUS
10
4.80121
20
-6.14212
11
4.80117
21
-6.14173
0
LINE
8
BLACK
6
CONTINUOUS
10
4.80117
20
-6.14173
11
4.80118
21
-6.14164
0
LINE
8
BLACK
6
CONTINUOUS
10
4.80118
20
-6.14164
11
4.80118
21
-6.0629
0
LINE
8
BLACK
6
CONTINUOUS
10
4.80118
20
-6.0629
11
4.80118
21
-6.0629
0
LINE
8
BLACK
6
CONTINUOUS
10
4.80118
20
-6.0629
11
4.80118
21
-6.02353
0
LINE
8
BLACK
6
CONTINUOUS
10
4.80118
20
-6.02353
11
4.80118
21
-6.02353
0
LINE
8
BLACK
6
CONTINUOUS
10
4.80118
20
-6.02353
11
4.80118
21
-5.70857
0
LINE
8
BLACK
6
CONTINUOUS
10
4.80118
20
-5.70857
11
4.80118
21
-5.70856
0
LINE
8
BLACK
6
CONTINUOUS
10
4.80118
20
-5.70856
11
4.80118
21
-5.6692
0
LINE
8
BLACK
6
CONTINUOUS
10
4.80118
20
-5.6692
11
4.80118
21
-5.66919
0
LINE
8
BLACK
6
CONTINUOUS
10
4.80118
20
-5.66919
11
4.80118
21
-3.9371
0
LINE
8
BLACK
6
CONTINUOUS
10
4.80118
20
-3.9371
11
4.80117
21
-3.93701
0
LINE
8
BLACK
6
CONTINUOUS
10
4.80117
20
-3.93701
11
4.80121
21
-3.93662
0
LINE
8
BLACK
6
CONTINUOUS
10
4.80121
20
-3.93662
11
4.80132
21
-3.93625
0
LINE
8
BLACK
6
CONTINUOUS
10
4.80132
20
-3.93625
11
4.8015
21
-3.93591
0
LINE
8
BLACK
6
CONTINUOUS
10
4.8015
20
-3.93591
11
4.80175
21
-3.93561
0
LINE
8
BLACK
6
CONTINUOUS
10
4.80175
20
-3.93561
11
4.80205
21
-3.93536
0
LINE
8
BLACK
6
CONTINUOUS
10
4.80205
20
-3.93536
11
4.80239
21
-3.93518
0
LINE
8
BLACK
6
CONTINUOUS
10
4.80239
20
-3.93518
11
4.80276
21
-3.93507
0
LINE
8
BLACK
6
CONTINUOUS
10
4.80276
20
-3.93507
11
4.80305
21
-3.93504
0
LINE
8
BLACK
6
CONTINUOUS
10
4.80305
20
-3.93504
11
4.80315
21
-3.93503
0
LINE
8
BLACK
6
CONTINUOUS
10
4.80315
20
-3.93503
11
4.80325
21
-3.93504
0
LINE
8
BLACK
6
CONTINUOUS
10
4.80325
20
-3.93504
11
7.87392
21
-3.93504
0
LINE
8
BLACK
6
CONTINUOUS
10
7.87392
20
-3.93504
11
7.87402
21
-3.93503
0
LINE
8
BLACK
6
CONTINUOUS
10
7.87402
20
-3.93503
11
7.87411
21
-3.93504
0
LINE
8
BLACK
6
CONTINUOUS
10
7.87411
20
-3.93504
11
7.8744
21
-3.93507
0
LINE
8
BLACK
6
CONTINUOUS
10
7.8744
20
-3.93507
11
7.87477
21
-3.93518
0
LINE
8
BLACK
6
CONTINUOUS
10
7.87477
20
-3.93518
11
7.87511
21
-3.93536
0
LINE
8
BLACK
6
CONTINUOUS
10
7.87511
20
-3.93536
11
7.87541
21
-3.93561
0
LINE
8
BLACK
6
CONTINUOUS
10
7.87541
20
-3.93561
11
7.87566
21
-3.93591
0
LINE
8
BLACK
6
CONTINUOUS
10
7.87566
20
-3.93591
11
7.87584
21
-3.93625
0
LINE
8
BLACK
6
CONTINUOUS
10
7.87584
20
-3.93625
11
7.87596
21
-3.93662
0
LINE
8
BLACK
6
CONTINUOUS
10
7.87596
20
-3.93662
11
7.87599
21
-3.93701
0
LINE
8
BLACK
6
CONTINUOUS
10
7.87599
20
-3.93701
11
7.87598
21
-3.9371
0
LINE
8
BLACK
6
CONTINUOUS
10
7.87598
20
-3.9371
11
7.87598
21
-5.55108
0
LINE
8
BLACK
6
CONTINUOUS
10
7.87598
20
-5.55108
11
7.87599
21
-5.55118
0
LINE
8
BLACK
6
CONTINUOUS
10
4.80512
20
-6.13976
11
7.75394
21
-6.13976
0
LINE
8
BLACK
6
CONTINUOUS
10
7.75394
20
-6.13976
11
7.75394
21
-6.0629
0
LINE
8
BLACK
6
CONTINUOUS
10
7.75394
20
-6.0629
11
7.75394
21
-6.0629
0
LINE
8
BLACK
6
CONTINUOUS
10
7.75394
20
-6.0629
11
7.75394
21
-5.74794
0
LINE
8
BLACK
6
CONTINUOUS
10
7.75394
20
-5.74794
11
7.75394
21
-5.74793
0
LINE
8
BLACK
6
CONTINUOUS
10
7.75394
20
-5.74793
11
7.75394
21
-5.55128
0
LINE
8
BLACK
6
CONTINUOUS
10
7.75394
20
-5.55128
11
7.75393
21
-5.55118
0
LINE
8
BLACK
6
CONTINUOUS
10
7.75393
20
-5.55118
11
7.75397
21
-5.5508
0
LINE
8
BLACK
6
CONTINUOUS
10
7.75397
20
-5.5508
11
7.75408
21
-5.55042
0
LINE
8
BLACK
6
CONTINUOUS
10
7.75408
20
-5.55042
11
7.75426
21
-5.55008
0
LINE
8
BLACK
6
CONTINUOUS
10
7.75426
20
-5.55008
11
7.75451
21
-5.54978
0
LINE
8
BLACK
6
CONTINUOUS
10
7.75451
20
-5.54978
11
7.75481
21
-5.54954
0
LINE
8
BLACK
6
CONTINUOUS
10
7.75481
20
-5.54954
11
7.75515
21
-5.54935
0
LINE
8
BLACK
6
CONTINUOUS
10
7.75515
20
-5.54935
11
7.75552
21
-5.54924
0
LINE
8
BLACK
6
CONTINUOUS
10
7.75552
20
-5.54924
11
7.75581
21
-5.54921
0
LINE
8
BLACK
6
CONTINUOUS
10
7.75581
20
-5.54921
11
7.75591
21
-5.5492
0
LINE
8
BLACK
6
CONTINUOUS
10
7.75591
20
-5.5492
11
7.756
21
-5.54921
0
LINE
8
BLACK
6
CONTINUOUS
10
7.756
20
-5.54921
11
7.87205
21
-5.54921
0
LINE
8
BLACK
6
CONTINUOUS
10
7.87205
20
-5.54921
11
7.87205
21
-4.96053
0
LINE
8
BLACK
6
CONTINUOUS
10
7.87205
20
-4.96053
11
7.87205
21
-4.96053
0
LINE
8
BLACK
6
CONTINUOUS
10
7.87205
20
-4.96053
11
7.87205
21
-4.37018
0
LINE
8
BLACK
6
CONTINUOUS
10
7.87205
20
-4.37018
11
7.87205
21
-4.37018
0
LINE
8
BLACK
6
CONTINUOUS
10
7.87205
20
-4.37018
11
7.87205
21
-3.93898
0
LINE
8
BLACK
6
CONTINUOUS
10
7.87205
20
-3.93898
11
4.80512
21
-3.93898
0
LINE
8
BLACK
6
CONTINUOUS
10
4.80512
20
-3.93898
11
4.80512
21
-6.13976
0
LINE
8
BLACK
6
CONTINUOUS
10
7.67726
20
-4.36811
11
7.67755
21
-4.36814
0
LINE
8
BLACK
6
CONTINUOUS
10
7.67755
20
-4.36814
11
7.67792
21
-4.36825
0
LINE
8
BLACK
6
CONTINUOUS
10
7.67792
20
-4.36825
11
7.67826
21
-4.36843
0
LINE
8
BLACK
6
CONTINUOUS
10
7.67826
20
-4.36843
11
7.67856
21
-4.36868
0
LINE
8
BLACK
6
CONTINUOUS
10
7.67856
20
-4.36868
11
7.67881
21
-4.36898
0
LINE
8
BLACK
6
CONTINUOUS
10
7.67881
20
-4.36898
11
7.67899
21
-4.36932
0
LINE
8
BLACK
6
CONTINUOUS
10
7.67899
20
-4.36932
11
7.67911
21
-4.36969
0
LINE
8
BLACK
6
CONTINUOUS
10
7.67911
20
-4.36969
11
7.67914
21
-4.37008
0
LINE
8
BLACK
6
CONTINUOUS
10
7.67914
20
-4.37008
11
7.67913
21
-4.37018
0
LINE
8
BLACK
6
CONTINUOUS
10
7.67913
20
-4.37018
11
7.67913
21
-4.96053
0
LINE
8
BLACK
6
CONTINUOUS
10
7.67913
20
-4.96053
11
7.67914
21
-4.96063
0
LINE
8
BLACK
6
CONTINUOUS
10
7.67914
20
-4.96063
11
7.67911
21
-4.96102
0
LINE
8
BLACK
6
CONTINUOUS
10
7.67911
20
-4.96102
11
7.67899
21
-4.96139
0
LINE
8
BLACK
6
CONTINUOUS
10
7.67899
20
-4.96139
11
7.67881
21
-4.96173
0
LINE
8
BLACK
6
CONTINUOUS
10
7.67881
20
-4.96173
11
7.67856
21
-4.96203
0
LINE
8
BLACK
6
CONTINUOUS
10
7.67856
20
-4.96203
11
7.67826
21
-4.96227
0
LINE
8
BLACK
6
CONTINUOUS
10
7.67826
20
-4.96227
11
7.67792
21
-4.96246
0
LINE
8
BLACK
6
CONTINUOUS
10
7.67792
20
-4.96246
11
7.67755
21
-4.96257
0
LINE
8
BLACK
6
CONTINUOUS
10
7.67755
20
-4.96257
11
7.67726
21
-4.9626
0
LINE
8
BLACK
6
CONTINUOUS
10
7.67726
20
-4.9626
11
7.67717
21
-4.96261
0
LINE
8
BLACK
6
CONTINUOUS
10
7.67717
20
-4.96261
11
7.67707
21
-4.9626
0
LINE
8
BLACK
6
CONTINUOUS
10
7.67707
20
-4.9626
11
7.59852
21
-4.9626
0
LINE
8
BLACK
6
CONTINUOUS
10
7.59852
20
-4.9626
11
7.59843
21
-4.96261
0
LINE
8
BLACK
6
CONTINUOUS
10
7.59843
20
-4.96261
11
7.59833
21
-4.9626
0
LINE
8
BLACK
6
CONTINUOUS
10
7.59833
20
-4.9626
11
7.59804
21
-4.96257
0
LINE
8
BLACK
6
CONTINUOUS
10
7.59804
20
-4.96257
11
7.59767
21
-4.96246
0
LINE
8
BLACK
6
CONTINUOUS
10
7.59767
20
-4.96246
11
7.59733
21
-4.96227
0
LINE
8
BLACK
6
CONTINUOUS
10
7.59733
20
-4.96227
11
7.59703
21
-4.96203
0
LINE
8
BLACK
6
CONTINUOUS
10
7.59703
20
-4.96203
11
7.59678
21
-4.96173
0
LINE
8
BLACK
6
CONTINUOUS
10
7.59678
20
-4.96173
11
7.5966
21
-4.96139
0
LINE
8
BLACK
6
CONTINUOUS
10
7.5966
20
-4.96139
11
7.59649
21
-4.96102
0
LINE
8
BLACK
6
CONTINUOUS
10
7.59649
20
-4.96102
11
7.59645
21
-4.96063
0
LINE
8
BLACK
6
CONTINUOUS
10
7.59645
20
-4.96063
11
7.59646
21
-4.96053
0
LINE
8
BLACK
6
CONTINUOUS
10
7.59646
20
-4.96053
11
7.59646
21
-4.37018
0
LINE
8
BLACK
6
CONTINUOUS
10
7.59646
20
-4.37018
11
7.59645
21
-4.37008
0
LINE
8
BLACK
6
CONTINUOUS
10
7.59645
20
-4.37008
11
7.59649
21
-4.36969
0
LINE
8
BLACK
6
CONTINUOUS
10
7.59649
20
-4.36969
11
7.5966
21
-4.36932
0
LINE
8
BLACK
6
CONTINUOUS
10
7.5966
20
-4.36932
11
7.59678
21
-4.36898
0
LINE
8
BLACK
6
CONTINUOUS
10
7.59678
20
-4.36898
11
7.59703
21
-4.36868
0
LINE
8
BLACK
6
CONTINUOUS
10
7.59703
20
-4.36868
11
7.59733
21
-4.36843
0
LINE
8
BLACK
6
CONTINUOUS
10
7.59733
20
-4.36843
11
7.59767
21
-4.36825
0
LINE
8
BLACK
6
CONTINUOUS
10
7.59767
20
-4.36825
11
7.59804
21
-4.36814
0
LINE
8
BLACK
6
CONTINUOUS
10
7.59804
20
-4.36814
11
7.59833
21
-4.36811
0
LINE
8
BLACK
6
CONTINUOUS
10
7.59833
20
-4.36811
11
7.59843
21
-4.3681
0
LINE
8
BLACK
6
CONTINUOUS
10
7.59843
20
-4.3681
11
7.59852
21
-4.36811
0
LINE
8
BLACK
6
CONTINUOUS
10
7.59852
20
-4.36811
11
7.67707
21
-4.36811
0
LINE
8
BLACK
6
CONTINUOUS
10
7.67707
20
-4.36811
11
7.67717
21
-4.3681
0
LINE
8
BLACK
6
CONTINUOUS
10
7.67717
20
-4.3681
11
7.67726
21
-4.36811
0
LINE
8
BLACK
6
CONTINUOUS
10
7.60039
20
-4.37205
11
7.60039
21
-4.95866
0
LINE
8
BLACK
6
CONTINUOUS
10
7.60039
20
-4.95866
11
7.6752
21
-4.95866
0
LINE
8
BLACK
6
CONTINUOUS
10
7.6752
20
-4.95866
11
7.6752
21
-4.37205
0
LINE
8
BLACK
6
CONTINUOUS
10
7.6752
20
-4.37205
11
7.60039
21
-4.37205
  0
ENDSEC
  0
EOF
