  0
SECTION
  2
HEADER
  9
$ANGBASE
  50
0.0
  9
$ANGDIR
  70
1
  9
$MEASUREMENT
  70
0
  0
ENDSEC
  0
SECTION
  2
TABLES
  0
TABLE
  2
LTYPE
  70
4
  0
LTYPE
  5
40F
  2
CONTINUOUS
  70
0
  3
Solid line
  72
65
  73
0
  40
0.0
  0
LTYPE
  5
410
  2
DASHDOT
 70
0
  3
Dash Dot ____ _ ____ _
 72
65
 73
4
 40
2.0
 49
1.25
 49
-0.25
 49
0.25
 49
-0.25
  0
LTYPE
  5
411
  2
DASHED
 70
0
  3
Dashed __ __ __ __ __
 72
65
 73
2
 40
0.75
 49
0.5
 49
-0.25
  0
LTYPE
  5
43B
  2
DOTTED
 70
0
  3
Dotted .  .  .  .
 72
65
 73
2
 40
0.2
 49
0.0
 49
-0.2
  0
ENDTAB
  0
TABLE
  2
STYLE
  70
4
  0
STYLE
  2
KICAD
  70
0
  40
0
  41
1
  42
1
  50
0
  71
0
  3
isocp.shx
  0
STYLE
  2
KICADB
  70
0
  40
0
  41
1
  42
1
  50
0
  71
0
  3
isocp.shx
  0
STYLE
  2
KICADI
  70
0
  40
0
  41
1
  42
1
  50
15
  71
0
  3
isocp.shx
  0
STYLE
  2
KICADBI
  70
0
  40
0
  41
1
  42
1
  50
15
  71
0
  3
isocp.shx
  0
ENDTAB
  0
TABLE
  2
LAYER
  70
1
  0
LAYER
  2
BLACK
  70
0
  62
7
  6
CONTINUOUS
  0
ENDTAB
  0
ENDSEC
  0
SECTION
  2
ENTITIES
0
LINE
8
BLACK
6
CONTINUOUS
10
4.80315
20
-6.06299
11
4.80315
21
-6.14173
0
LINE
8
BLACK
6
CONTINUOUS
10
7.75591
20
-6.06299
11
7.75591
21
-6.14173
0
LINE
8
BLACK
6
CONTINUOUS
10
4.80315
20
-5.70866
11
4.80315
21
-6.02362
0
LINE
8
BLACK
6
CONTINUOUS
10
7.75591
20
-5.74803
11
7.75591
21
-6.06299
0
LINE
8
BLACK
6
CONTINUOUS
10
4.80315
20
-6.14173
11
7.75591
21
-6.14173
0
LINE
8
BLACK
6
CONTINUOUS
10
4.80315
20
-6.02362
11
4.80315
21
-6.06299
0
LINE
8
BLACK
6
CONTINUOUS
10
4.80315
20
-5.66929
11
4.80315
21
-5.70866
0
LINE
8
BLACK
6
CONTINUOUS
10
4.80315
20
-3.93701
11
4.80315
21
-5.66929
0
LINE
8
BLACK
6
CONTINUOUS
10
4.80315
20
-3.93701
11
7.08661
21
-3.93701
0
LINE
8
BLACK
6
CONTINUOUS
10
7.67717
20
-4.96063
11
7.67717
21
-4.37008
0
LINE
8
BLACK
6
CONTINUOUS
10
7.75591
20
-5.55118
11
7.75591
21
-5.74803
0
LINE
8
BLACK
6
CONTINUOUS
10
7.87402
20
-5.55118
11
7.75591
21
-5.55118
0
LINE
8
BLACK
6
CONTINUOUS
10
7.87402
20
-4.96063
11
7.87402
21
-5.55118
0
LINE
8
BLACK
6
CONTINUOUS
10
7.87402
20
-3.93701
11
7.08661
21
-3.93701
0
LINE
8
BLACK
6
CONTINUOUS
10
7.87402
20
-4.37008
11
7.87402
21
-3.93701
0
LINE
8
BLACK
6
CONTINUOUS
10
7.87402
20
-4.96063
11
7.87402
21
-4.37008
0
LINE
8
BLACK
6
CONTINUOUS
10
7.67717
20
-4.37008
11
7.59843
21
-4.37008
0
LINE
8
BLACK
6
CONTINUOUS
10
7.59843
20
-4.96063
11
7.67717
21
-4.96063
0
LINE
8
BLACK
6
CONTINUOUS
10
7.59843
20
-4.37008
11
7.59843
21
-4.96063
0
LINE
8
BLACK
6
CONTINUOUS
10
5.5251
20
-5.8881
11
5.53585
21
-5.89255
0
LINE
8
BLACK
6
CONTINUOUS
10
5.53585
20
-5.89255
11
5.53585
21
-5.89255
0
LINE
8
BLACK
6
CONTINUOUS
10
5.53585
20
-5.89255
11
5.54072
21
-5.8958
0
LINE
8
BLACK
6
CONTINUOUS
10
5.54072
20
-5.8958
11
5.54552
21
-5.89901
0
LINE
8
BLACK
6
CONTINUOUS
10
5.54552
20
-5.89901
11
5.55375
21
-5.90724
0
LINE
8
BLACK
6
CONTINUOUS
10
5.55375
20
-5.90724
11
5.56021
21
-5.91691
0
LINE
8
BLACK
6
CONTINUOUS
10
5.56021
20
-5.91691
11
5.56466
21
-5.92766
0
LINE
8
BLACK
6
CONTINUOUS
10
5.56466
20
-5.92766
11
5.56693
21
-5.93907
0
LINE
8
BLACK
6
CONTINUOUS
10
5.56693
20
-5.93907
11
5.56693
21
-5.9507
0
LINE
8
BLACK
6
CONTINUOUS
10
5.56693
20
-5.9507
11
5.56466
21
-5.96211
0
LINE
8
BLACK
6
CONTINUOUS
10
5.56466
20
-5.96211
11
5.56021
21
-5.97285
0
LINE
8
BLACK
6
CONTINUOUS
10
5.56021
20
-5.97285
11
5.56021
21
-5.97286
0
LINE
8
BLACK
6
CONTINUOUS
10
5.56021
20
-5.97286
11
5.55375
21
-5.98253
0
LINE
8
BLACK
6
CONTINUOUS
10
5.55375
20
-5.98253
11
5.54552
21
-5.99075
0
LINE
8
BLACK
6
CONTINUOUS
10
5.54552
20
-5.99075
11
5.53585
21
-5.99722
0
LINE
8
BLACK
6
CONTINUOUS
10
5.53585
20
-5.99722
11
5.53585
21
-5.99722
0
LINE
8
BLACK
6
CONTINUOUS
10
5.53585
20
-5.99722
11
5.53585
21
-5.99722
0
LINE
8
BLACK
6
CONTINUOUS
10
5.53585
20
-5.99722
11
5.5251
21
-6.00167
0
LINE
8
BLACK
6
CONTINUOUS
10
5.5251
20
-6.00167
11
5.51369
21
-6.00394
0
LINE
8
BLACK
6
CONTINUOUS
10
5.51369
20
-6.00394
11
5.50206
21
-6.00394
0
LINE
8
BLACK
6
CONTINUOUS
10
5.50206
20
-6.00394
11
5.49065
21
-6.00167
0
LINE
8
BLACK
6
CONTINUOUS
10
5.49065
20
-6.00167
11
5.4799
21
-5.99722
0
LINE
8
BLACK
6
CONTINUOUS
10
5.4799
20
-5.99722
11
5.4799
21
-5.99722
0
LINE
8
BLACK
6
CONTINUOUS
10
5.4799
20
-5.99722
11
5.4799
21
-5.99722
0
LINE
8
BLACK
6
CONTINUOUS
10
5.4799
20
-5.99722
11
5.47023
21
-5.99075
0
LINE
8
BLACK
6
CONTINUOUS
10
5.47023
20
-5.99075
11
5.462
21
-5.98253
0
LINE
8
BLACK
6
CONTINUOUS
10
5.462
20
-5.98253
11
5.45554
21
-5.97286
0
LINE
8
BLACK
6
CONTINUOUS
10
5.45554
20
-5.97286
11
5.45554
21
-5.97285
0
LINE
8
BLACK
6
CONTINUOUS
10
5.45554
20
-5.97285
11
5.45109
21
-5.96211
0
LINE
8
BLACK
6
CONTINUOUS
10
5.45109
20
-5.96211
11
5.44882
21
-5.9507
0
LINE
8
BLACK
6
CONTINUOUS
10
5.44882
20
-5.9507
11
5.44882
21
-5.93907
0
LINE
8
BLACK
6
CONTINUOUS
10
5.44882
20
-5.93907
11
5.45109
21
-5.92766
0
LINE
8
BLACK
6
CONTINUOUS
10
5.45109
20
-5.92766
11
5.45554
21
-5.91691
0
LINE
8
BLACK
6
CONTINUOUS
10
5.45554
20
-5.91691
11
5.462
21
-5.90724
0
LINE
8
BLACK
6
CONTINUOUS
10
5.462
20
-5.90724
11
5.47023
21
-5.89901
0
LINE
8
BLACK
6
CONTINUOUS
10
5.47023
20
-5.89901
11
5.47503
21
-5.8958
0
LINE
8
BLACK
6
CONTINUOUS
10
5.47503
20
-5.8958
11
5.4799
21
-5.89255
0
LINE
8
BLACK
6
CONTINUOUS
10
5.4799
20
-5.89255
11
5.4799
21
-5.89255
0
LINE
8
BLACK
6
CONTINUOUS
10
5.4799
20
-5.89255
11
5.49065
21
-5.8881
0
LINE
8
BLACK
6
CONTINUOUS
10
5.49065
20
-5.8881
11
5.50206
21
-5.88583
0
LINE
8
BLACK
6
CONTINUOUS
10
5.50206
20
-5.88583
11
5.51369
21
-5.88583
0
LINE
8
BLACK
6
CONTINUOUS
10
5.51369
20
-5.88583
11
5.5251
21
-5.8881
0
LINE
8
BLACK
6
CONTINUOUS
10
4.90305
20
-5.8881
11
4.9138
21
-5.89255
0
LINE
8
BLACK
6
CONTINUOUS
10
4.9138
20
-5.89255
11
4.9138
21
-5.89255
0
LINE
8
BLACK
6
CONTINUOUS
10
4.9138
20
-5.89255
11
4.91867
21
-5.8958
0
LINE
8
BLACK
6
CONTINUOUS
10
4.91867
20
-5.8958
11
4.92347
21
-5.89901
0
LINE
8
BLACK
6
CONTINUOUS
10
4.92347
20
-5.89901
11
4.9317
21
-5.90724
0
LINE
8
BLACK
6
CONTINUOUS
10
4.9317
20
-5.90724
11
4.93816
21
-5.91691
0
LINE
8
BLACK
6
CONTINUOUS
10
4.93816
20
-5.91691
11
4.94261
21
-5.92766
0
LINE
8
BLACK
6
CONTINUOUS
10
4.94261
20
-5.92766
11
4.94488
21
-5.93907
0
LINE
8
BLACK
6
CONTINUOUS
10
4.94488
20
-5.93907
11
4.94488
21
-5.9507
0
LINE
8
BLACK
6
CONTINUOUS
10
4.94488
20
-5.9507
11
4.94261
21
-5.96211
0
LINE
8
BLACK
6
CONTINUOUS
10
4.94261
20
-5.96211
11
4.93816
21
-5.97285
0
LINE
8
BLACK
6
CONTINUOUS
10
4.93816
20
-5.97285
11
4.93816
21
-5.97286
0
LINE
8
BLACK
6
CONTINUOUS
10
4.93816
20
-5.97286
11
4.9317
21
-5.98253
0
LINE
8
BLACK
6
CONTINUOUS
10
4.9317
20
-5.98253
11
4.92347
21
-5.99075
0
LINE
8
BLACK
6
CONTINUOUS
10
4.92347
20
-5.99075
11
4.9138
21
-5.99722
0
LINE
8
BLACK
6
CONTINUOUS
10
4.9138
20
-5.99722
11
4.9138
21
-5.99722
0
LINE
8
BLACK
6
CONTINUOUS
10
4.9138
20
-5.99722
11
4.9138
21
-5.99722
0
LINE
8
BLACK
6
CONTINUOUS
10
4.9138
20
-5.99722
11
4.90305
21
-6.00167
0
LINE
8
BLACK
6
CONTINUOUS
10
4.90305
20
-6.00167
11
4.89164
21
-6.00394
0
LINE
8
BLACK
6
CONTINUOUS
10
4.89164
20
-6.00394
11
4.88001
21
-6.00394
0
LINE
8
BLACK
6
CONTINUOUS
10
4.88001
20
-6.00394
11
4.8686
21
-6.00167
0
LINE
8
BLACK
6
CONTINUOUS
10
4.8686
20
-6.00167
11
4.85785
21
-5.99722
0
LINE
8
BLACK
6
CONTINUOUS
10
4.85785
20
-5.99722
11
4.85785
21
-5.99722
0
LINE
8
BLACK
6
CONTINUOUS
10
4.85785
20
-5.99722
11
4.85785
21
-5.99722
0
LINE
8
BLACK
6
CONTINUOUS
10
4.85785
20
-5.99722
11
4.84818
21
-5.99075
0
LINE
8
BLACK
6
CONTINUOUS
10
4.84818
20
-5.99075
11
4.83996
21
-5.98253
0
LINE
8
BLACK
6
CONTINUOUS
10
4.83996
20
-5.98253
11
4.83349
21
-5.97286
0
LINE
8
BLACK
6
CONTINUOUS
10
4.83349
20
-5.97286
11
4.83349
21
-5.97285
0
LINE
8
BLACK
6
CONTINUOUS
10
4.83349
20
-5.97285
11
4.82904
21
-5.96211
0
LINE
8
BLACK
6
CONTINUOUS
10
4.82904
20
-5.96211
11
4.82677
21
-5.9507
0
LINE
8
BLACK
6
CONTINUOUS
10
4.82677
20
-5.9507
11
4.82677
21
-5.93907
0
LINE
8
BLACK
6
CONTINUOUS
10
4.82677
20
-5.93907
11
4.82904
21
-5.92766
0
LINE
8
BLACK
6
CONTINUOUS
10
4.82904
20
-5.92766
11
4.83349
21
-5.91691
0
LINE
8
BLACK
6
CONTINUOUS
10
4.83349
20
-5.91691
11
4.83996
21
-5.90724
0
LINE
8
BLACK
6
CONTINUOUS
10
4.83996
20
-5.90724
11
4.84818
21
-5.89901
0
LINE
8
BLACK
6
CONTINUOUS
10
4.84818
20
-5.89901
11
4.85298
21
-5.8958
0
LINE
8
BLACK
6
CONTINUOUS
10
4.85298
20
-5.8958
11
4.85785
21
-5.89255
0
LINE
8
BLACK
6
CONTINUOUS
10
4.85785
20
-5.89255
11
4.85785
21
-5.89255
0
LINE
8
BLACK
6
CONTINUOUS
10
4.85785
20
-5.89255
11
4.8686
21
-5.8881
0
LINE
8
BLACK
6
CONTINUOUS
10
4.8686
20
-5.8881
11
4.88001
21
-5.88583
0
LINE
8
BLACK
6
CONTINUOUS
10
4.88001
20
-5.88583
11
4.89164
21
-5.88583
0
LINE
8
BLACK
6
CONTINUOUS
10
4.89164
20
-5.88583
11
4.90305
21
-5.8881
0
LINE
8
BLACK
6
CONTINUOUS
10
6.60688
20
-5.78445
11
6.61619
21
-5.78831
0
LINE
8
BLACK
6
CONTINUOUS
10
6.61619
20
-5.78831
11
6.62457
21
-5.79391
0
LINE
8
BLACK
6
CONTINUOUS
10
6.62457
20
-5.79391
11
6.6317
21
-5.80104
0
LINE
8
BLACK
6
CONTINUOUS
10
6.6317
20
-5.80104
11
6.6373
21
-5.80942
0
LINE
8
BLACK
6
CONTINUOUS
10
6.6373
20
-5.80942
11
6.64116
21
-5.81873
0
LINE
8
BLACK
6
CONTINUOUS
10
6.64116
20
-5.81873
11
6.64313
21
-5.82862
0
LINE
8
BLACK
6
CONTINUOUS
10
6.64313
20
-5.82862
11
6.64313
21
-5.8387
0
LINE
8
BLACK
6
CONTINUOUS
10
6.64313
20
-5.8387
11
6.64116
21
-5.84859
0
LINE
8
BLACK
6
CONTINUOUS
10
6.64116
20
-5.84859
11
6.6373
21
-5.8579
0
LINE
8
BLACK
6
CONTINUOUS
10
6.6373
20
-5.8579
11
6.6317
21
-5.86629
0
LINE
8
BLACK
6
CONTINUOUS
10
6.6317
20
-5.86629
11
6.62457
21
-5.87342
0
LINE
8
BLACK
6
CONTINUOUS
10
6.62457
20
-5.87342
11
6.61619
21
-5.87902
0
LINE
8
BLACK
6
CONTINUOUS
10
6.61619
20
-5.87902
11
6.60688
21
-5.88288
0
LINE
8
BLACK
6
CONTINUOUS
10
6.60688
20
-5.88288
11
6.59699
21
-5.88484
0
LINE
8
BLACK
6
CONTINUOUS
10
6.59699
20
-5.88484
11
6.58691
21
-5.88484
0
LINE
8
BLACK
6
CONTINUOUS
10
6.58691
20
-5.88484
11
6.57702
21
-5.88288
0
LINE
8
BLACK
6
CONTINUOUS
10
6.57702
20
-5.88288
11
6.56771
21
-5.87902
0
LINE
8
BLACK
6
CONTINUOUS
10
6.56771
20
-5.87902
11
6.55932
21
-5.87342
0
LINE
8
BLACK
6
CONTINUOUS
10
6.55932
20
-5.87342
11
6.55219
21
-5.86629
0
LINE
8
BLACK
6
CONTINUOUS
10
6.55219
20
-5.86629
11
6.54659
21
-5.8579
0
LINE
8
BLACK
6
CONTINUOUS
10
6.54659
20
-5.8579
11
6.54273
21
-5.84859
0
LINE
8
BLACK
6
CONTINUOUS
10
6.54273
20
-5.84859
11
6.54077
21
-5.8387
0
LINE
8
BLACK
6
CONTINUOUS
10
6.54077
20
-5.8387
11
6.54077
21
-5.82862
0
LINE
8
BLACK
6
CONTINUOUS
10
6.54077
20
-5.82862
11
6.54273
21
-5.81873
0
LINE
8
BLACK
6
CONTINUOUS
10
6.54273
20
-5.81873
11
6.54659
21
-5.80942
0
LINE
8
BLACK
6
CONTINUOUS
10
6.54659
20
-5.80942
11
6.55219
21
-5.80104
0
LINE
8
BLACK
6
CONTINUOUS
10
6.55219
20
-5.80104
11
6.55932
21
-5.79391
0
LINE
8
BLACK
6
CONTINUOUS
10
6.55932
20
-5.79391
11
6.56771
21
-5.78831
0
LINE
8
BLACK
6
CONTINUOUS
10
6.56771
20
-5.78831
11
6.57702
21
-5.78445
0
LINE
8
BLACK
6
CONTINUOUS
10
6.57702
20
-5.78445
11
6.58691
21
-5.78248
0
LINE
8
BLACK
6
CONTINUOUS
10
6.58691
20
-5.78248
11
6.59699
21
-5.78248
0
LINE
8
BLACK
6
CONTINUOUS
10
6.59699
20
-5.78248
11
6.60688
21
-5.78445
0
LINE
8
BLACK
6
CONTINUOUS
10
7.24188
20
-5.78445
11
7.25119
21
-5.78831
0
LINE
8
BLACK
6
CONTINUOUS
10
7.25119
20
-5.78831
11
7.25957
21
-5.79391
0
LINE
8
BLACK
6
CONTINUOUS
10
7.25957
20
-5.79391
11
7.2667
21
-5.80104
0
LINE
8
BLACK
6
CONTINUOUS
10
7.2667
20
-5.80104
11
7.2723
21
-5.80942
0
LINE
8
BLACK
6
CONTINUOUS
10
7.2723
20
-5.80942
11
7.27616
21
-5.81873
0
LINE
8
BLACK
6
CONTINUOUS
10
7.27616
20
-5.81873
11
7.27813
21
-5.82862
0
LINE
8
BLACK
6
CONTINUOUS
10
7.27813
20
-5.82862
11
7.27813
21
-5.8387
0
LINE
8
BLACK
6
CONTINUOUS
10
7.27813
20
-5.8387
11
7.27616
21
-5.84859
0
LINE
8
BLACK
6
CONTINUOUS
10
7.27616
20
-5.84859
11
7.2723
21
-5.8579
0
LINE
8
BLACK
6
CONTINUOUS
10
7.2723
20
-5.8579
11
7.2667
21
-5.86629
0
LINE
8
BLACK
6
CONTINUOUS
10
7.2667
20
-5.86629
11
7.25957
21
-5.87342
0
LINE
8
BLACK
6
CONTINUOUS
10
7.25957
20
-5.87342
11
7.25119
21
-5.87902
0
LINE
8
BLACK
6
CONTINUOUS
10
7.25119
20
-5.87902
11
7.24188
21
-5.88288
0
LINE
8
BLACK
6
CONTINUOUS
10
7.24188
20
-5.88288
11
7.23199
21
-5.88484
0
LINE
8
BLACK
6
CONTINUOUS
10
7.23199
20
-5.88484
11
7.22191
21
-5.88484
0
LINE
8
BLACK
6
CONTINUOUS
10
7.22191
20
-5.88484
11
7.21202
21
-5.88288
0
LINE
8
BLACK
6
CONTINUOUS
10
7.21202
20
-5.88288
11
7.20271
21
-5.87902
0
LINE
8
BLACK
6
CONTINUOUS
10
7.20271
20
-5.87902
11
7.19432
21
-5.87342
0
LINE
8
BLACK
6
CONTINUOUS
10
7.19432
20
-5.87342
11
7.18719
21
-5.86629
0
LINE
8
BLACK
6
CONTINUOUS
10
7.18719
20
-5.86629
11
7.18159
21
-5.8579
0
LINE
8
BLACK
6
CONTINUOUS
10
7.18159
20
-5.8579
11
7.17773
21
-5.84859
0
LINE
8
BLACK
6
CONTINUOUS
10
7.17773
20
-5.84859
11
7.17577
21
-5.8387
0
LINE
8
BLACK
6
CONTINUOUS
10
7.17577
20
-5.8387
11
7.17577
21
-5.82862
0
LINE
8
BLACK
6
CONTINUOUS
10
7.17577
20
-5.82862
11
7.17773
21
-5.81873
0
LINE
8
BLACK
6
CONTINUOUS
10
7.17773
20
-5.81873
11
7.18159
21
-5.80942
0
LINE
8
BLACK
6
CONTINUOUS
10
7.18159
20
-5.80942
11
7.18719
21
-5.80104
0
LINE
8
BLACK
6
CONTINUOUS
10
7.18719
20
-5.80104
11
7.19432
21
-5.79391
0
LINE
8
BLACK
6
CONTINUOUS
10
7.19432
20
-5.79391
11
7.20271
21
-5.78831
0
LINE
8
BLACK
6
CONTINUOUS
10
7.20271
20
-5.78831
11
7.21202
21
-5.78445
0
LINE
8
BLACK
6
CONTINUOUS
10
7.21202
20
-5.78445
11
7.22191
21
-5.78248
0
LINE
8
BLACK
6
CONTINUOUS
10
7.22191
20
-5.78248
11
7.23199
21
-5.78248
0
LINE
8
BLACK
6
CONTINUOUS
10
7.23199
20
-5.78248
11
7.24188
21
-5.78445
0
LINE
8
BLACK
6
CONTINUOUS
10
7.51075
20
-5.77271
11
7.51608
21
-5.77377
0
LINE
8
BLACK
6
CONTINUOUS
10
7.51608
20
-5.77377
11
7.52611
21
-5.77793
0
LINE
8
BLACK
6
CONTINUOUS
10
7.52611
20
-5.77793
11
7.53514
21
-5.78396
0
LINE
8
BLACK
6
CONTINUOUS
10
7.53514
20
-5.78396
11
7.54281
21
-5.79164
0
LINE
8
BLACK
6
CONTINUOUS
10
7.54281
20
-5.79164
11
7.54281
21
-5.79164
0
LINE
8
BLACK
6
CONTINUOUS
10
7.54281
20
-5.79164
11
7.54885
21
-5.80066
0
LINE
8
BLACK
6
CONTINUOUS
10
7.54885
20
-5.80066
11
7.55006
21
-5.8036
0
LINE
8
BLACK
6
CONTINUOUS
10
7.55006
20
-5.8036
11
7.553
21
-5.81069
0
LINE
8
BLACK
6
CONTINUOUS
10
7.553
20
-5.81069
11
7.55512
21
-5.82134
0
LINE
8
BLACK
6
CONTINUOUS
10
7.55512
20
-5.82134
11
7.55512
21
-5.8322
0
LINE
8
BLACK
6
CONTINUOUS
10
7.55512
20
-5.8322
11
7.553
21
-5.84285
0
LINE
8
BLACK
6
CONTINUOUS
10
7.553
20
-5.84285
11
7.54885
21
-5.85288
0
LINE
8
BLACK
6
CONTINUOUS
10
7.54885
20
-5.85288
11
7.54281
21
-5.86191
0
LINE
8
BLACK
6
CONTINUOUS
10
7.54281
20
-5.86191
11
7.53514
21
-5.86958
0
LINE
8
BLACK
6
CONTINUOUS
10
7.53514
20
-5.86958
11
7.52611
21
-5.87562
0
LINE
8
BLACK
6
CONTINUOUS
10
7.52611
20
-5.87562
11
7.51608
21
-5.87977
0
LINE
8
BLACK
6
CONTINUOUS
10
7.51608
20
-5.87977
11
7.51075
21
-5.88083
0
LINE
8
BLACK
6
CONTINUOUS
10
7.51075
20
-5.88083
11
7.50543
21
-5.88189
0
LINE
8
BLACK
6
CONTINUOUS
10
7.50543
20
-5.88189
11
7.49457
21
-5.88189
0
LINE
8
BLACK
6
CONTINUOUS
10
7.49457
20
-5.88189
11
7.48925
21
-5.88083
0
LINE
8
BLACK
6
CONTINUOUS
10
7.48925
20
-5.88083
11
7.48392
21
-5.87977
0
LINE
8
BLACK
6
CONTINUOUS
10
7.48392
20
-5.87977
11
7.47389
21
-5.87562
0
LINE
8
BLACK
6
CONTINUOUS
10
7.47389
20
-5.87562
11
7.46486
21
-5.86958
0
LINE
8
BLACK
6
CONTINUOUS
10
7.46486
20
-5.86958
11
7.45719
21
-5.86191
0
LINE
8
BLACK
6
CONTINUOUS
10
7.45719
20
-5.86191
11
7.45115
21
-5.85288
0
LINE
8
BLACK
6
CONTINUOUS
10
7.45115
20
-5.85288
11
7.447
21
-5.84285
0
LINE
8
BLACK
6
CONTINUOUS
10
7.447
20
-5.84285
11
7.44488
21
-5.8322
0
LINE
8
BLACK
6
CONTINUOUS
10
7.44488
20
-5.8322
11
7.44488
21
-5.82134
0
LINE
8
BLACK
6
CONTINUOUS
10
7.44488
20
-5.82134
11
7.447
21
-5.81069
0
LINE
8
BLACK
6
CONTINUOUS
10
7.447
20
-5.81069
11
7.44994
21
-5.8036
0
LINE
8
BLACK
6
CONTINUOUS
10
7.44994
20
-5.8036
11
7.45115
21
-5.80066
0
LINE
8
BLACK
6
CONTINUOUS
10
7.45115
20
-5.80066
11
7.45719
21
-5.79164
0
LINE
8
BLACK
6
CONTINUOUS
10
7.45719
20
-5.79164
11
7.45719
21
-5.79164
0
LINE
8
BLACK
6
CONTINUOUS
10
7.45719
20
-5.79164
11
7.46486
21
-5.78396
0
LINE
8
BLACK
6
CONTINUOUS
10
7.46486
20
-5.78396
11
7.47389
21
-5.77793
0
LINE
8
BLACK
6
CONTINUOUS
10
7.47389
20
-5.77793
11
7.48392
21
-5.77377
0
LINE
8
BLACK
6
CONTINUOUS
10
7.48392
20
-5.77377
11
7.48925
21
-5.77271
0
LINE
8
BLACK
6
CONTINUOUS
10
7.48925
20
-5.77271
11
7.49457
21
-5.77165
0
LINE
8
BLACK
6
CONTINUOUS
10
7.49457
20
-5.77165
11
7.50543
21
-5.77165
0
LINE
8
BLACK
6
CONTINUOUS
10
7.50543
20
-5.77165
11
7.51075
21
-5.77271
0
LINE
8
BLACK
6
CONTINUOUS
10
7.168
20
-5.64112
11
7.17926
21
-5.64336
0
LINE
8
BLACK
6
CONTINUOUS
10
7.17926
20
-5.64336
11
7.19162
21
-5.64848
0
LINE
8
BLACK
6
CONTINUOUS
10
7.19162
20
-5.64848
11
7.20274
21
-5.65591
0
LINE
8
BLACK
6
CONTINUOUS
10
7.20274
20
-5.65591
11
7.2122
21
-5.66537
0
LINE
8
BLACK
6
CONTINUOUS
10
7.2122
20
-5.66537
11
7.21963
21
-5.67649
0
LINE
8
BLACK
6
CONTINUOUS
10
7.21963
20
-5.67649
11
7.22475
21
-5.68885
0
LINE
8
BLACK
6
CONTINUOUS
10
7.22475
20
-5.68885
11
7.22736
21
-5.70197
0
LINE
8
BLACK
6
CONTINUOUS
10
7.22736
20
-5.70197
11
7.22736
21
-5.71535
0
LINE
8
BLACK
6
CONTINUOUS
10
7.22736
20
-5.71535
11
7.22475
21
-5.72847
0
LINE
8
BLACK
6
CONTINUOUS
10
7.22475
20
-5.72847
11
7.21963
21
-5.74083
0
LINE
8
BLACK
6
CONTINUOUS
10
7.21963
20
-5.74083
11
7.2122
21
-5.75195
0
LINE
8
BLACK
6
CONTINUOUS
10
7.2122
20
-5.75195
11
7.20274
21
-5.76141
0
LINE
8
BLACK
6
CONTINUOUS
10
7.20274
20
-5.76141
11
7.19162
21
-5.76885
0
LINE
8
BLACK
6
CONTINUOUS
10
7.19162
20
-5.76885
11
7.17926
21
-5.77396
0
LINE
8
BLACK
6
CONTINUOUS
10
7.17926
20
-5.77396
11
7.168
21
-5.7762
0
LINE
8
BLACK
6
CONTINUOUS
10
7.168
20
-5.7762
11
7.16614
21
-5.77657
0
LINE
8
BLACK
6
CONTINUOUS
10
7.16614
20
-5.77657
11
7.15276
21
-5.77657
0
LINE
8
BLACK
6
CONTINUOUS
10
7.15276
20
-5.77657
11
7.15089
21
-5.7762
0
LINE
8
BLACK
6
CONTINUOUS
10
7.15089
20
-5.7762
11
7.13964
21
-5.77396
0
LINE
8
BLACK
6
CONTINUOUS
10
7.13964
20
-5.77396
11
7.12728
21
-5.76885
0
LINE
8
BLACK
6
CONTINUOUS
10
7.12728
20
-5.76885
11
7.11616
21
-5.76141
0
LINE
8
BLACK
6
CONTINUOUS
10
7.11616
20
-5.76141
11
7.1067
21
-5.75195
0
LINE
8
BLACK
6
CONTINUOUS
10
7.1067
20
-5.75195
11
7.09926
21
-5.74083
0
LINE
8
BLACK
6
CONTINUOUS
10
7.09926
20
-5.74083
11
7.09415
21
-5.72847
0
LINE
8
BLACK
6
CONTINUOUS
10
7.09415
20
-5.72847
11
7.09154
21
-5.71535
0
LINE
8
BLACK
6
CONTINUOUS
10
7.09154
20
-5.71535
11
7.09154
21
-5.70197
0
LINE
8
BLACK
6
CONTINUOUS
10
7.09154
20
-5.70197
11
7.09415
21
-5.68885
0
LINE
8
BLACK
6
CONTINUOUS
10
7.09415
20
-5.68885
11
7.09926
21
-5.67649
0
LINE
8
BLACK
6
CONTINUOUS
10
7.09926
20
-5.67649
11
7.1067
21
-5.66537
0
LINE
8
BLACK
6
CONTINUOUS
10
7.1067
20
-5.66537
11
7.11616
21
-5.65591
0
LINE
8
BLACK
6
CONTINUOUS
10
7.11616
20
-5.65591
11
7.12728
21
-5.64848
0
LINE
8
BLACK
6
CONTINUOUS
10
7.12728
20
-5.64848
11
7.13964
21
-5.64336
0
LINE
8
BLACK
6
CONTINUOUS
10
7.13964
20
-5.64336
11
7.15089
21
-5.64112
0
LINE
8
BLACK
6
CONTINUOUS
10
7.15089
20
-5.64112
11
7.15276
21
-5.64075
0
LINE
8
BLACK
6
CONTINUOUS
10
7.15276
20
-5.64075
11
7.16614
21
-5.64075
0
LINE
8
BLACK
6
CONTINUOUS
10
7.16614
20
-5.64075
11
7.168
21
-5.64112
0
LINE
8
BLACK
6
CONTINUOUS
10
6.668
20
-5.64112
11
6.67926
21
-5.64336
0
LINE
8
BLACK
6
CONTINUOUS
10
6.67926
20
-5.64336
11
6.69162
21
-5.64848
0
LINE
8
BLACK
6
CONTINUOUS
10
6.69162
20
-5.64848
11
6.70274
21
-5.65591
0
LINE
8
BLACK
6
CONTINUOUS
10
6.70274
20
-5.65591
11
6.7122
21
-5.66537
0
LINE
8
BLACK
6
CONTINUOUS
10
6.7122
20
-5.66537
11
6.71963
21
-5.67649
0
LINE
8
BLACK
6
CONTINUOUS
10
6.71963
20
-5.67649
11
6.72475
21
-5.68885
0
LINE
8
BLACK
6
CONTINUOUS
10
6.72475
20
-5.68885
11
6.72736
21
-5.70197
0
LINE
8
BLACK
6
CONTINUOUS
10
6.72736
20
-5.70197
11
6.72736
21
-5.71535
0
LINE
8
BLACK
6
CONTINUOUS
10
6.72736
20
-5.71535
11
6.72475
21
-5.72847
0
LINE
8
BLACK
6
CONTINUOUS
10
6.72475
20
-5.72847
11
6.71963
21
-5.74083
0
LINE
8
BLACK
6
CONTINUOUS
10
6.71963
20
-5.74083
11
6.7122
21
-5.75195
0
LINE
8
BLACK
6
CONTINUOUS
10
6.7122
20
-5.75195
11
6.70274
21
-5.76141
0
LINE
8
BLACK
6
CONTINUOUS
10
6.70274
20
-5.76141
11
6.69162
21
-5.76885
0
LINE
8
BLACK
6
CONTINUOUS
10
6.69162
20
-5.76885
11
6.67926
21
-5.77396
0
LINE
8
BLACK
6
CONTINUOUS
10
6.67926
20
-5.77396
11
6.668
21
-5.7762
0
LINE
8
BLACK
6
CONTINUOUS
10
6.668
20
-5.7762
11
6.66614
21
-5.77657
0
LINE
8
BLACK
6
CONTINUOUS
10
6.66614
20
-5.77657
11
6.65276
21
-5.77657
0
LINE
8
BLACK
6
CONTINUOUS
10
6.65276
20
-5.77657
11
6.65089
21
-5.7762
0
LINE
8
BLACK
6
CONTINUOUS
10
6.65089
20
-5.7762
11
6.63964
21
-5.77396
0
LINE
8
BLACK
6
CONTINUOUS
10
6.63964
20
-5.77396
11
6.62728
21
-5.76885
0
LINE
8
BLACK
6
CONTINUOUS
10
6.62728
20
-5.76885
11
6.61616
21
-5.76141
0
LINE
8
BLACK
6
CONTINUOUS
10
6.61616
20
-5.76141
11
6.6067
21
-5.75195
0
LINE
8
BLACK
6
CONTINUOUS
10
6.6067
20
-5.75195
11
6.59926
21
-5.74083
0
LINE
8
BLACK
6
CONTINUOUS
10
6.59926
20
-5.74083
11
6.59415
21
-5.72847
0
LINE
8
BLACK
6
CONTINUOUS
10
6.59415
20
-5.72847
11
6.59154
21
-5.71535
0
LINE
8
BLACK
6
CONTINUOUS
10
6.59154
20
-5.71535
11
6.59154
21
-5.70197
0
LINE
8
BLACK
6
CONTINUOUS
10
6.59154
20
-5.70197
11
6.59415
21
-5.68885
0
LINE
8
BLACK
6
CONTINUOUS
10
6.59415
20
-5.68885
11
6.59926
21
-5.67649
0
LINE
8
BLACK
6
CONTINUOUS
10
6.59926
20
-5.67649
11
6.6067
21
-5.66537
0
LINE
8
BLACK
6
CONTINUOUS
10
6.6067
20
-5.66537
11
6.61616
21
-5.65591
0
LINE
8
BLACK
6
CONTINUOUS
10
6.61616
20
-5.65591
11
6.62728
21
-5.64848
0
LINE
8
BLACK
6
CONTINUOUS
10
6.62728
20
-5.64848
11
6.63964
21
-5.64336
0
LINE
8
BLACK
6
CONTINUOUS
10
6.63964
20
-5.64336
11
6.65089
21
-5.64112
0
LINE
8
BLACK
6
CONTINUOUS
10
6.65089
20
-5.64112
11
6.65276
21
-5.64075
0
LINE
8
BLACK
6
CONTINUOUS
10
6.65276
20
-5.64075
11
6.66614
21
-5.64075
0
LINE
8
BLACK
6
CONTINUOUS
10
6.66614
20
-5.64075
11
6.668
21
-5.64112
0
LINE
8
BLACK
6
CONTINUOUS
10
7.69579
20
-5.6546
11
7.70112
21
-5.65566
0
LINE
8
BLACK
6
CONTINUOUS
10
7.70112
20
-5.65566
11
7.71115
21
-5.65982
0
LINE
8
BLACK
6
CONTINUOUS
10
7.71115
20
-5.65982
11
7.72018
21
-5.66585
0
LINE
8
BLACK
6
CONTINUOUS
10
7.72018
20
-5.66585
11
7.72785
21
-5.67353
0
LINE
8
BLACK
6
CONTINUOUS
10
7.72785
20
-5.67353
11
7.73388
21
-5.68255
0
LINE
8
BLACK
6
CONTINUOUS
10
7.73388
20
-5.68255
11
7.73804
21
-5.69258
0
LINE
8
BLACK
6
CONTINUOUS
10
7.73804
20
-5.69258
11
7.74016
21
-5.70323
0
LINE
8
BLACK
6
CONTINUOUS
10
7.74016
20
-5.70323
11
7.74016
21
-5.71409
0
LINE
8
BLACK
6
CONTINUOUS
10
7.74016
20
-5.71409
11
7.73804
21
-5.72474
0
LINE
8
BLACK
6
CONTINUOUS
10
7.73804
20
-5.72474
11
7.73388
21
-5.73477
0
LINE
8
BLACK
6
CONTINUOUS
10
7.73388
20
-5.73477
11
7.72785
21
-5.7438
0
LINE
8
BLACK
6
CONTINUOUS
10
7.72785
20
-5.7438
11
7.72018
21
-5.75147
0
LINE
8
BLACK
6
CONTINUOUS
10
7.72018
20
-5.75147
11
7.71115
21
-5.75751
0
LINE
8
BLACK
6
CONTINUOUS
10
7.71115
20
-5.75751
11
7.70112
21
-5.76166
0
LINE
8
BLACK
6
CONTINUOUS
10
7.70112
20
-5.76166
11
7.69579
21
-5.76272
0
LINE
8
BLACK
6
CONTINUOUS
10
7.69579
20
-5.76272
11
7.69047
21
-5.76378
0
LINE
8
BLACK
6
CONTINUOUS
10
7.69047
20
-5.76378
11
7.67961
21
-5.76378
0
LINE
8
BLACK
6
CONTINUOUS
10
7.67961
20
-5.76378
11
7.67429
21
-5.76272
0
LINE
8
BLACK
6
CONTINUOUS
10
7.67429
20
-5.76272
11
7.66896
21
-5.76166
0
LINE
8
BLACK
6
CONTINUOUS
10
7.66896
20
-5.76166
11
7.65893
21
-5.75751
0
LINE
8
BLACK
6
CONTINUOUS
10
7.65893
20
-5.75751
11
7.6499
21
-5.75147
0
LINE
8
BLACK
6
CONTINUOUS
10
7.6499
20
-5.75147
11
7.64223
21
-5.7438
0
LINE
8
BLACK
6
CONTINUOUS
10
7.64223
20
-5.7438
11
7.63619
21
-5.73477
0
LINE
8
BLACK
6
CONTINUOUS
10
7.63619
20
-5.73477
11
7.63204
21
-5.72474
0
LINE
8
BLACK
6
CONTINUOUS
10
7.63204
20
-5.72474
11
7.62992
21
-5.71409
0
LINE
8
BLACK
6
CONTINUOUS
10
7.62992
20
-5.71409
11
7.62992
21
-5.70323
0
LINE
8
BLACK
6
CONTINUOUS
10
7.62992
20
-5.70323
11
7.63204
21
-5.69258
0
LINE
8
BLACK
6
CONTINUOUS
10
7.63204
20
-5.69258
11
7.63619
21
-5.68255
0
LINE
8
BLACK
6
CONTINUOUS
10
7.63619
20
-5.68255
11
7.64223
21
-5.67353
0
LINE
8
BLACK
6
CONTINUOUS
10
7.64223
20
-5.67353
11
7.6499
21
-5.66585
0
LINE
8
BLACK
6
CONTINUOUS
10
7.6499
20
-5.66585
11
7.65893
21
-5.65982
0
LINE
8
BLACK
6
CONTINUOUS
10
7.65893
20
-5.65982
11
7.66896
21
-5.65566
0
LINE
8
BLACK
6
CONTINUOUS
10
7.66896
20
-5.65566
11
7.67429
21
-5.6546
0
LINE
8
BLACK
6
CONTINUOUS
10
7.67429
20
-5.6546
11
7.67961
21
-5.65354
0
LINE
8
BLACK
6
CONTINUOUS
10
7.67961
20
-5.65354
11
7.69047
21
-5.65354
0
LINE
8
BLACK
6
CONTINUOUS
10
7.69047
20
-5.65354
11
7.69579
21
-5.6546
0
LINE
8
BLACK
6
CONTINUOUS
10
7.55512
20
-5.64567
11
7.44488
21
-5.64567
0
LINE
8
BLACK
6
CONTINUOUS
10
7.44488
20
-5.64567
11
7.44488
21
-5.53543
0
LINE
8
BLACK
6
CONTINUOUS
10
7.44488
20
-5.53543
11
7.55512
21
-5.53543
0
LINE
8
BLACK
6
CONTINUOUS
10
7.55512
20
-5.53543
11
7.55512
21
-5.64567
0
LINE
8
BLACK
6
CONTINUOUS
10
5.48179
20
-5.3566
11
5.49254
21
-5.36105
0
LINE
8
BLACK
6
CONTINUOUS
10
5.49254
20
-5.36105
11
5.49254
21
-5.36105
0
LINE
8
BLACK
6
CONTINUOUS
10
5.49254
20
-5.36105
11
5.49741
21
-5.36431
0
LINE
8
BLACK
6
CONTINUOUS
10
5.49741
20
-5.36431
11
5.50221
21
-5.36751
0
LINE
8
BLACK
6
CONTINUOUS
10
5.50221
20
-5.36751
11
5.51044
21
-5.37574
0
LINE
8
BLACK
6
CONTINUOUS
10
5.51044
20
-5.37574
11
5.5169
21
-5.38541
0
LINE
8
BLACK
6
CONTINUOUS
10
5.5169
20
-5.38541
11
5.52135
21
-5.39616
0
LINE
8
BLACK
6
CONTINUOUS
10
5.52135
20
-5.39616
11
5.52362
21
-5.40757
0
LINE
8
BLACK
6
CONTINUOUS
10
5.52362
20
-5.40757
11
5.52362
21
-5.4192
0
LINE
8
BLACK
6
CONTINUOUS
10
5.52362
20
-5.4192
11
5.52135
21
-5.43061
0
LINE
8
BLACK
6
CONTINUOUS
10
5.52135
20
-5.43061
11
5.52016
21
-5.43348
0
LINE
8
BLACK
6
CONTINUOUS
10
5.52016
20
-5.43348
11
5.5169
21
-5.44136
0
LINE
8
BLACK
6
CONTINUOUS
10
5.5169
20
-5.44136
11
5.51044
21
-5.45103
0
LINE
8
BLACK
6
CONTINUOUS
10
5.51044
20
-5.45103
11
5.50221
21
-5.45926
0
LINE
8
BLACK
6
CONTINUOUS
10
5.50221
20
-5.45926
11
5.49254
21
-5.46572
0
LINE
8
BLACK
6
CONTINUOUS
10
5.49254
20
-5.46572
11
5.49254
21
-5.46572
0
LINE
8
BLACK
6
CONTINUOUS
10
5.49254
20
-5.46572
11
5.49254
21
-5.46572
0
LINE
8
BLACK
6
CONTINUOUS
10
5.49254
20
-5.46572
11
5.48179
21
-5.47017
0
LINE
8
BLACK
6
CONTINUOUS
10
5.48179
20
-5.47017
11
5.47038
21
-5.47244
0
LINE
8
BLACK
6
CONTINUOUS
10
5.47038
20
-5.47244
11
5.45875
21
-5.47244
0
LINE
8
BLACK
6
CONTINUOUS
10
5.45875
20
-5.47244
11
5.44734
21
-5.47017
0
LINE
8
BLACK
6
CONTINUOUS
10
5.44734
20
-5.47017
11
5.43659
21
-5.46572
0
LINE
8
BLACK
6
CONTINUOUS
10
5.43659
20
-5.46572
11
5.43659
21
-5.46572
0
LINE
8
BLACK
6
CONTINUOUS
10
5.43659
20
-5.46572
11
5.43659
21
-5.46572
0
LINE
8
BLACK
6
CONTINUOUS
10
5.43659
20
-5.46572
11
5.42692
21
-5.45926
0
LINE
8
BLACK
6
CONTINUOUS
10
5.42692
20
-5.45926
11
5.4187
21
-5.45103
0
LINE
8
BLACK
6
CONTINUOUS
10
5.4187
20
-5.45103
11
5.41223
21
-5.44136
0
LINE
8
BLACK
6
CONTINUOUS
10
5.41223
20
-5.44136
11
5.40897
21
-5.43348
0
LINE
8
BLACK
6
CONTINUOUS
10
5.40897
20
-5.43348
11
5.40778
21
-5.43061
0
LINE
8
BLACK
6
CONTINUOUS
10
5.40778
20
-5.43061
11
5.40551
21
-5.4192
0
LINE
8
BLACK
6
CONTINUOUS
10
5.40551
20
-5.4192
11
5.40551
21
-5.40757
0
LINE
8
BLACK
6
CONTINUOUS
10
5.40551
20
-5.40757
11
5.40778
21
-5.39616
0
LINE
8
BLACK
6
CONTINUOUS
10
5.40778
20
-5.39616
11
5.41223
21
-5.38541
0
LINE
8
BLACK
6
CONTINUOUS
10
5.41223
20
-5.38541
11
5.4187
21
-5.37574
0
LINE
8
BLACK
6
CONTINUOUS
10
5.4187
20
-5.37574
11
5.42692
21
-5.36751
0
LINE
8
BLACK
6
CONTINUOUS
10
5.42692
20
-5.36751
11
5.43172
21
-5.36431
0
LINE
8
BLACK
6
CONTINUOUS
10
5.43172
20
-5.36431
11
5.43659
21
-5.36105
0
LINE
8
BLACK
6
CONTINUOUS
10
5.43659
20
-5.36105
11
5.43659
21
-5.36105
0
LINE
8
BLACK
6
CONTINUOUS
10
5.43659
20
-5.36105
11
5.44734
21
-5.3566
0
LINE
8
BLACK
6
CONTINUOUS
10
5.44734
20
-5.3566
11
5.45875
21
-5.35433
0
LINE
8
BLACK
6
CONTINUOUS
10
5.45875
20
-5.35433
11
5.47038
21
-5.35433
0
LINE
8
BLACK
6
CONTINUOUS
10
5.47038
20
-5.35433
11
5.48179
21
-5.3566
0
LINE
8
BLACK
6
CONTINUOUS
10
4.94636
20
-5.34873
11
4.95711
21
-5.35318
0
LINE
8
BLACK
6
CONTINUOUS
10
4.95711
20
-5.35318
11
4.95711
21
-5.35318
0
LINE
8
BLACK
6
CONTINUOUS
10
4.95711
20
-5.35318
11
4.95883
21
-5.35433
0
LINE
8
BLACK
6
CONTINUOUS
10
4.95883
20
-5.35433
11
4.96678
21
-5.35964
0
LINE
8
BLACK
6
CONTINUOUS
10
4.96678
20
-5.35964
11
4.975
21
-5.36787
0
LINE
8
BLACK
6
CONTINUOUS
10
4.975
20
-5.36787
11
4.98147
21
-5.37754
0
LINE
8
BLACK
6
CONTINUOUS
10
4.98147
20
-5.37754
11
4.98592
21
-5.38829
0
LINE
8
BLACK
6
CONTINUOUS
10
4.98592
20
-5.38829
11
4.98819
21
-5.3997
0
LINE
8
BLACK
6
CONTINUOUS
10
4.98819
20
-5.3997
11
4.98819
21
-5.41133
0
LINE
8
BLACK
6
CONTINUOUS
10
4.98819
20
-5.41133
11
4.98592
21
-5.42274
0
LINE
8
BLACK
6
CONTINUOUS
10
4.98592
20
-5.42274
11
4.98147
21
-5.43348
0
LINE
8
BLACK
6
CONTINUOUS
10
4.98147
20
-5.43348
11
4.98147
21
-5.43348
0
LINE
8
BLACK
6
CONTINUOUS
10
4.98147
20
-5.43348
11
4.975
21
-5.44316
0
LINE
8
BLACK
6
CONTINUOUS
10
4.975
20
-5.44316
11
4.96678
21
-5.45138
0
LINE
8
BLACK
6
CONTINUOUS
10
4.96678
20
-5.45138
11
4.95711
21
-5.45785
0
LINE
8
BLACK
6
CONTINUOUS
10
4.95711
20
-5.45785
11
4.95711
21
-5.45785
0
LINE
8
BLACK
6
CONTINUOUS
10
4.95711
20
-5.45785
11
4.95711
21
-5.45785
0
LINE
8
BLACK
6
CONTINUOUS
10
4.95711
20
-5.45785
11
4.94636
21
-5.4623
0
LINE
8
BLACK
6
CONTINUOUS
10
4.94636
20
-5.4623
11
4.93495
21
-5.46457
0
LINE
8
BLACK
6
CONTINUOUS
10
4.93495
20
-5.46457
11
4.92332
21
-5.46457
0
LINE
8
BLACK
6
CONTINUOUS
10
4.92332
20
-5.46457
11
4.91191
21
-5.4623
0
LINE
8
BLACK
6
CONTINUOUS
10
4.91191
20
-5.4623
11
4.90116
21
-5.45785
0
LINE
8
BLACK
6
CONTINUOUS
10
4.90116
20
-5.45785
11
4.90116
21
-5.45785
0
LINE
8
BLACK
6
CONTINUOUS
10
4.90116
20
-5.45785
11
4.90116
21
-5.45785
0
LINE
8
BLACK
6
CONTINUOUS
10
4.90116
20
-5.45785
11
4.89149
21
-5.45138
0
LINE
8
BLACK
6
CONTINUOUS
10
4.89149
20
-5.45138
11
4.88326
21
-5.44316
0
LINE
8
BLACK
6
CONTINUOUS
10
4.88326
20
-5.44316
11
4.8768
21
-5.43348
0
LINE
8
BLACK
6
CONTINUOUS
10
4.8768
20
-5.43348
11
4.8768
21
-5.43348
0
LINE
8
BLACK
6
CONTINUOUS
10
4.8768
20
-5.43348
11
4.87235
21
-5.42274
0
LINE
8
BLACK
6
CONTINUOUS
10
4.87235
20
-5.42274
11
4.87008
21
-5.41133
0
LINE
8
BLACK
6
CONTINUOUS
10
4.87008
20
-5.41133
11
4.87008
21
-5.3997
0
LINE
8
BLACK
6
CONTINUOUS
10
4.87008
20
-5.3997
11
4.87235
21
-5.38829
0
LINE
8
BLACK
6
CONTINUOUS
10
4.87235
20
-5.38829
11
4.8768
21
-5.37754
0
LINE
8
BLACK
6
CONTINUOUS
10
4.8768
20
-5.37754
11
4.88326
21
-5.36787
0
LINE
8
BLACK
6
CONTINUOUS
10
4.88326
20
-5.36787
11
4.89149
21
-5.35964
0
LINE
8
BLACK
6
CONTINUOUS
10
4.89149
20
-5.35964
11
4.89944
21
-5.35433
0
LINE
8
BLACK
6
CONTINUOUS
10
4.89944
20
-5.35433
11
4.90116
21
-5.35318
0
LINE
8
BLACK
6
CONTINUOUS
10
4.90116
20
-5.35318
11
4.90116
21
-5.35318
0
LINE
8
BLACK
6
CONTINUOUS
10
4.90116
20
-5.35318
11
4.91191
21
-5.34873
0
LINE
8
BLACK
6
CONTINUOUS
10
4.91191
20
-5.34873
11
4.92332
21
-5.34646
0
LINE
8
BLACK
6
CONTINUOUS
10
4.92332
20
-5.34646
11
4.93495
21
-5.34646
0
LINE
8
BLACK
6
CONTINUOUS
10
4.93495
20
-5.34646
11
4.94636
21
-5.34873
0
LINE
8
BLACK
6
CONTINUOUS
10
6.71978
20
-5.23459
11
6.72412
21
-5.23639
0
LINE
8
BLACK
6
CONTINUOUS
10
6.72412
20
-5.23639
11
6.72623
21
-5.23726
0
LINE
8
BLACK
6
CONTINUOUS
10
6.72623
20
-5.23726
11
6.73204
21
-5.24114
0
LINE
8
BLACK
6
CONTINUOUS
10
6.73204
20
-5.24114
11
6.73697
21
-5.24607
0
LINE
8
BLACK
6
CONTINUOUS
10
6.73697
20
-5.24607
11
6.74085
21
-5.25188
0
LINE
8
BLACK
6
CONTINUOUS
10
6.74085
20
-5.25188
11
6.74085
21
-5.25188
0
LINE
8
BLACK
6
CONTINUOUS
10
6.74085
20
-5.25188
11
6.74352
21
-5.25833
0
LINE
8
BLACK
6
CONTINUOUS
10
6.74352
20
-5.25833
11
6.74462
21
-5.26387
0
LINE
8
BLACK
6
CONTINUOUS
10
6.74462
20
-5.26387
11
6.7449
21
-5.26479
0
LINE
8
BLACK
6
CONTINUOUS
10
6.7449
20
-5.26479
11
6.74536
21
-5.26564
0
LINE
8
BLACK
6
CONTINUOUS
10
6.74536
20
-5.26564
11
6.74597
21
-5.26639
0
LINE
8
BLACK
6
CONTINUOUS
10
6.74597
20
-5.26639
11
6.74671
21
-5.267
0
LINE
8
BLACK
6
CONTINUOUS
10
6.74671
20
-5.267
11
6.74757
21
-5.26745
0
LINE
8
BLACK
6
CONTINUOUS
10
6.74757
20
-5.26745
11
6.74849
21
-5.26773
0
LINE
8
BLACK
6
CONTINUOUS
10
6.74849
20
-5.26773
11
6.74945
21
-5.26783
0
LINE
8
BLACK
6
CONTINUOUS
10
6.74945
20
-5.26783
11
6.75041
21
-5.26773
0
LINE
8
BLACK
6
CONTINUOUS
10
6.75041
20
-5.26773
11
6.75133
21
-5.26745
0
LINE
8
BLACK
6
CONTINUOUS
10
6.75133
20
-5.26745
11
6.75218
21
-5.267
0
LINE
8
BLACK
6
CONTINUOUS
10
6.75218
20
-5.267
11
6.75293
21
-5.26639
0
LINE
8
BLACK
6
CONTINUOUS
10
6.75293
20
-5.26639
11
6.75354
21
-5.26564
0
LINE
8
BLACK
6
CONTINUOUS
10
6.75354
20
-5.26564
11
6.754
21
-5.26479
0
LINE
8
BLACK
6
CONTINUOUS
10
6.754
20
-5.26479
11
6.75428
21
-5.26387
0
LINE
8
BLACK
6
CONTINUOUS
10
6.75428
20
-5.26387
11
6.75538
21
-5.25833
0
LINE
8
BLACK
6
CONTINUOUS
10
6.75538
20
-5.25833
11
6.75805
21
-5.25188
0
LINE
8
BLACK
6
CONTINUOUS
10
6.75805
20
-5.25188
11
6.75805
21
-5.25188
0
LINE
8
BLACK
6
CONTINUOUS
10
6.75805
20
-5.25188
11
6.76193
21
-5.24607
0
LINE
8
BLACK
6
CONTINUOUS
10
6.76193
20
-5.24607
11
6.76686
21
-5.24114
0
LINE
8
BLACK
6
CONTINUOUS
10
6.76686
20
-5.24114
11
6.77266
21
-5.23726
0
LINE
8
BLACK
6
CONTINUOUS
10
6.77266
20
-5.23726
11
6.77478
21
-5.23639
0
LINE
8
BLACK
6
CONTINUOUS
10
6.77478
20
-5.23639
11
6.77911
21
-5.23459
0
LINE
8
BLACK
6
CONTINUOUS
10
6.77911
20
-5.23459
11
6.78596
21
-5.23323
0
LINE
8
BLACK
6
CONTINUOUS
10
6.78596
20
-5.23323
11
6.79294
21
-5.23323
0
LINE
8
BLACK
6
CONTINUOUS
10
6.79294
20
-5.23323
11
6.79978
21
-5.23459
0
LINE
8
BLACK
6
CONTINUOUS
10
6.79978
20
-5.23459
11
6.80412
21
-5.23639
0
LINE
8
BLACK
6
CONTINUOUS
10
6.80412
20
-5.23639
11
6.80623
21
-5.23726
0
LINE
8
BLACK
6
CONTINUOUS
10
6.80623
20
-5.23726
11
6.81204
21
-5.24114
0
LINE
8
BLACK
6
CONTINUOUS
10
6.81204
20
-5.24114
11
6.81697
21
-5.24607
0
LINE
8
BLACK
6
CONTINUOUS
10
6.81697
20
-5.24607
11
6.82085
21
-5.25188
0
LINE
8
BLACK
6
CONTINUOUS
10
6.82085
20
-5.25188
11
6.82085
21
-5.25188
0
LINE
8
BLACK
6
CONTINUOUS
10
6.82085
20
-5.25188
11
6.82352
21
-5.25833
0
LINE
8
BLACK
6
CONTINUOUS
10
6.82352
20
-5.25833
11
6.82462
21
-5.26387
0
LINE
8
BLACK
6
CONTINUOUS
10
6.82462
20
-5.26387
11
6.8249
21
-5.26479
0
LINE
8
BLACK
6
CONTINUOUS
10
6.8249
20
-5.26479
11
6.82536
21
-5.26564
0
LINE
8
BLACK
6
CONTINUOUS
10
6.82536
20
-5.26564
11
6.82597
21
-5.26639
0
LINE
8
BLACK
6
CONTINUOUS
10
6.82597
20
-5.26639
11
6.82671
21
-5.267
0
LINE
8
BLACK
6
CONTINUOUS
10
6.82671
20
-5.267
11
6.82757
21
-5.26745
0
LINE
8
BLACK
6
CONTINUOUS
10
6.82757
20
-5.26745
11
6.82849
21
-5.26773
0
LINE
8
BLACK
6
CONTINUOUS
10
6.82849
20
-5.26773
11
6.82945
21
-5.26783
0
LINE
8
BLACK
6
CONTINUOUS
10
6.82945
20
-5.26783
11
6.83041
21
-5.26773
0
LINE
8
BLACK
6
CONTINUOUS
10
6.83041
20
-5.26773
11
6.83133
21
-5.26745
0
LINE
8
BLACK
6
CONTINUOUS
10
6.83133
20
-5.26745
11
6.83218
21
-5.267
0
LINE
8
BLACK
6
CONTINUOUS
10
6.83218
20
-5.267
11
6.83293
21
-5.26639
0
LINE
8
BLACK
6
CONTINUOUS
10
6.83293
20
-5.26639
11
6.83354
21
-5.26564
0
LINE
8
BLACK
6
CONTINUOUS
10
6.83354
20
-5.26564
11
6.834
21
-5.26479
0
LINE
8
BLACK
6
CONTINUOUS
10
6.834
20
-5.26479
11
6.83428
21
-5.26387
0
LINE
8
BLACK
6
CONTINUOUS
10
6.83428
20
-5.26387
11
6.83538
21
-5.25833
0
LINE
8
BLACK
6
CONTINUOUS
10
6.83538
20
-5.25833
11
6.83805
21
-5.25188
0
LINE
8
BLACK
6
CONTINUOUS
10
6.83805
20
-5.25188
11
6.83805
21
-5.25188
0
LINE
8
BLACK
6
CONTINUOUS
10
6.83805
20
-5.25188
11
6.84193
21
-5.24607
0
LINE
8
BLACK
6
CONTINUOUS
10
6.84193
20
-5.24607
11
6.84686
21
-5.24114
0
LINE
8
BLACK
6
CONTINUOUS
10
6.84686
20
-5.24114
11
6.85266
21
-5.23726
0
LINE
8
BLACK
6
CONTINUOUS
10
6.85266
20
-5.23726
11
6.85478
21
-5.23639
0
LINE
8
BLACK
6
CONTINUOUS
10
6.85478
20
-5.23639
11
6.85911
21
-5.23459
0
LINE
8
BLACK
6
CONTINUOUS
10
6.85911
20
-5.23459
11
6.86596
21
-5.23323
0
LINE
8
BLACK
6
CONTINUOUS
10
6.86596
20
-5.23323
11
6.87294
21
-5.23323
0
LINE
8
BLACK
6
CONTINUOUS
10
6.87294
20
-5.23323
11
6.87978
21
-5.23459
0
LINE
8
BLACK
6
CONTINUOUS
10
6.87978
20
-5.23459
11
6.88412
21
-5.23639
0
LINE
8
BLACK
6
CONTINUOUS
10
6.88412
20
-5.23639
11
6.88623
21
-5.23726
0
LINE
8
BLACK
6
CONTINUOUS
10
6.88623
20
-5.23726
11
6.89204
21
-5.24114
0
LINE
8
BLACK
6
CONTINUOUS
10
6.89204
20
-5.24114
11
6.89697
21
-5.24607
0
LINE
8
BLACK
6
CONTINUOUS
10
6.89697
20
-5.24607
11
6.90085
21
-5.25188
0
LINE
8
BLACK
6
CONTINUOUS
10
6.90085
20
-5.25188
11
6.90085
21
-5.25188
0
LINE
8
BLACK
6
CONTINUOUS
10
6.90085
20
-5.25188
11
6.90352
21
-5.25833
0
LINE
8
BLACK
6
CONTINUOUS
10
6.90352
20
-5.25833
11
6.90462
21
-5.26387
0
LINE
8
BLACK
6
CONTINUOUS
10
6.90462
20
-5.26387
11
6.9049
21
-5.26479
0
LINE
8
BLACK
6
CONTINUOUS
10
6.9049
20
-5.26479
11
6.90536
21
-5.26564
0
LINE
8
BLACK
6
CONTINUOUS
10
6.90536
20
-5.26564
11
6.90597
21
-5.26639
0
LINE
8
BLACK
6
CONTINUOUS
10
6.90597
20
-5.26639
11
6.90671
21
-5.267
0
LINE
8
BLACK
6
CONTINUOUS
10
6.90671
20
-5.267
11
6.90757
21
-5.26745
0
LINE
8
BLACK
6
CONTINUOUS
10
6.90757
20
-5.26745
11
6.90849
21
-5.26773
0
LINE
8
BLACK
6
CONTINUOUS
10
6.90849
20
-5.26773
11
6.90945
21
-5.26783
0
LINE
8
BLACK
6
CONTINUOUS
10
6.90945
20
-5.26783
11
6.91041
21
-5.26773
0
LINE
8
BLACK
6
CONTINUOUS
10
6.91041
20
-5.26773
11
6.91133
21
-5.26745
0
LINE
8
BLACK
6
CONTINUOUS
10
6.91133
20
-5.26745
11
6.91218
21
-5.267
0
LINE
8
BLACK
6
CONTINUOUS
10
6.91218
20
-5.267
11
6.91293
21
-5.26639
0
LINE
8
BLACK
6
CONTINUOUS
10
6.91293
20
-5.26639
11
6.91354
21
-5.26564
0
LINE
8
BLACK
6
CONTINUOUS
10
6.91354
20
-5.26564
11
6.914
21
-5.26479
0
LINE
8
BLACK
6
CONTINUOUS
10
6.914
20
-5.26479
11
6.91428
21
-5.26387
0
LINE
8
BLACK
6
CONTINUOUS
10
6.91428
20
-5.26387
11
6.91538
21
-5.25833
0
LINE
8
BLACK
6
CONTINUOUS
10
6.91538
20
-5.25833
11
6.91805
21
-5.25188
0
LINE
8
BLACK
6
CONTINUOUS
10
6.91805
20
-5.25188
11
6.91805
21
-5.25188
0
LINE
8
BLACK
6
CONTINUOUS
10
6.91805
20
-5.25188
11
6.92193
21
-5.24607
0
LINE
8
BLACK
6
CONTINUOUS
10
6.92193
20
-5.24607
11
6.92686
21
-5.24114
0
LINE
8
BLACK
6
CONTINUOUS
10
6.92686
20
-5.24114
11
6.93266
21
-5.23726
0
LINE
8
BLACK
6
CONTINUOUS
10
6.93266
20
-5.23726
11
6.93478
21
-5.23639
0
LINE
8
BLACK
6
CONTINUOUS
10
6.93478
20
-5.23639
11
6.93911
21
-5.23459
0
LINE
8
BLACK
6
CONTINUOUS
10
6.93911
20
-5.23459
11
6.94596
21
-5.23323
0
LINE
8
BLACK
6
CONTINUOUS
10
6.94596
20
-5.23323
11
6.95294
21
-5.23323
0
LINE
8
BLACK
6
CONTINUOUS
10
6.95294
20
-5.23323
11
6.95978
21
-5.23459
0
LINE
8
BLACK
6
CONTINUOUS
10
6.95978
20
-5.23459
11
6.96412
21
-5.23639
0
LINE
8
BLACK
6
CONTINUOUS
10
6.96412
20
-5.23639
11
6.96623
21
-5.23726
0
LINE
8
BLACK
6
CONTINUOUS
10
6.96623
20
-5.23726
11
6.97204
21
-5.24114
0
LINE
8
BLACK
6
CONTINUOUS
10
6.97204
20
-5.24114
11
6.97697
21
-5.24607
0
LINE
8
BLACK
6
CONTINUOUS
10
6.97697
20
-5.24607
11
6.98085
21
-5.25188
0
LINE
8
BLACK
6
CONTINUOUS
10
6.98085
20
-5.25188
11
6.98085
21
-5.25188
0
LINE
8
BLACK
6
CONTINUOUS
10
6.98085
20
-5.25188
11
6.98352
21
-5.25833
0
LINE
8
BLACK
6
CONTINUOUS
10
6.98352
20
-5.25833
11
6.98462
21
-5.26387
0
LINE
8
BLACK
6
CONTINUOUS
10
6.98462
20
-5.26387
11
6.9849
21
-5.26479
0
LINE
8
BLACK
6
CONTINUOUS
10
6.9849
20
-5.26479
11
6.98536
21
-5.26564
0
LINE
8
BLACK
6
CONTINUOUS
10
6.98536
20
-5.26564
11
6.98597
21
-5.26639
0
LINE
8
BLACK
6
CONTINUOUS
10
6.98597
20
-5.26639
11
6.98671
21
-5.267
0
LINE
8
BLACK
6
CONTINUOUS
10
6.98671
20
-5.267
11
6.98757
21
-5.26745
0
LINE
8
BLACK
6
CONTINUOUS
10
6.98757
20
-5.26745
11
6.98849
21
-5.26773
0
LINE
8
BLACK
6
CONTINUOUS
10
6.98849
20
-5.26773
11
6.98945
21
-5.26783
0
LINE
8
BLACK
6
CONTINUOUS
10
6.98945
20
-5.26783
11
6.99041
21
-5.26773
0
LINE
8
BLACK
6
CONTINUOUS
10
6.99041
20
-5.26773
11
6.99133
21
-5.26745
0
LINE
8
BLACK
6
CONTINUOUS
10
6.99133
20
-5.26745
11
6.99218
21
-5.267
0
LINE
8
BLACK
6
CONTINUOUS
10
6.99218
20
-5.267
11
6.99293
21
-5.26639
0
LINE
8
BLACK
6
CONTINUOUS
10
6.99293
20
-5.26639
11
6.99354
21
-5.26564
0
LINE
8
BLACK
6
CONTINUOUS
10
6.99354
20
-5.26564
11
6.994
21
-5.26479
0
LINE
8
BLACK
6
CONTINUOUS
10
6.994
20
-5.26479
11
6.99428
21
-5.26387
0
LINE
8
BLACK
6
CONTINUOUS
10
6.99428
20
-5.26387
11
6.99538
21
-5.25833
0
LINE
8
BLACK
6
CONTINUOUS
10
6.99538
20
-5.25833
11
6.99805
21
-5.25188
0
LINE
8
BLACK
6
CONTINUOUS
10
6.99805
20
-5.25188
11
6.99805
21
-5.25188
0
LINE
8
BLACK
6
CONTINUOUS
10
6.99805
20
-5.25188
11
7.00193
21
-5.24607
0
LINE
8
BLACK
6
CONTINUOUS
10
7.00193
20
-5.24607
11
7.00686
21
-5.24114
0
LINE
8
BLACK
6
CONTINUOUS
10
7.00686
20
-5.24114
11
7.01266
21
-5.23726
0
LINE
8
BLACK
6
CONTINUOUS
10
7.01266
20
-5.23726
11
7.01478
21
-5.23639
0
LINE
8
BLACK
6
CONTINUOUS
10
7.01478
20
-5.23639
11
7.01911
21
-5.23459
0
LINE
8
BLACK
6
CONTINUOUS
10
7.01911
20
-5.23459
11
7.02596
21
-5.23323
0
LINE
8
BLACK
6
CONTINUOUS
10
7.02596
20
-5.23323
11
7.03294
21
-5.23323
0
LINE
8
BLACK
6
CONTINUOUS
10
7.03294
20
-5.23323
11
7.03978
21
-5.23459
0
LINE
8
BLACK
6
CONTINUOUS
10
7.03978
20
-5.23459
11
7.04412
21
-5.23639
0
LINE
8
BLACK
6
CONTINUOUS
10
7.04412
20
-5.23639
11
7.04623
21
-5.23726
0
LINE
8
BLACK
6
CONTINUOUS
10
7.04623
20
-5.23726
11
7.05204
21
-5.24114
0
LINE
8
BLACK
6
CONTINUOUS
10
7.05204
20
-5.24114
11
7.05697
21
-5.24607
0
LINE
8
BLACK
6
CONTINUOUS
10
7.05697
20
-5.24607
11
7.06085
21
-5.25188
0
LINE
8
BLACK
6
CONTINUOUS
10
7.06085
20
-5.25188
11
7.06085
21
-5.25188
0
LINE
8
BLACK
6
CONTINUOUS
10
7.06085
20
-5.25188
11
7.06352
21
-5.25833
0
LINE
8
BLACK
6
CONTINUOUS
10
7.06352
20
-5.25833
11
7.06462
21
-5.26387
0
LINE
8
BLACK
6
CONTINUOUS
10
7.06462
20
-5.26387
11
7.0649
21
-5.26479
0
LINE
8
BLACK
6
CONTINUOUS
10
7.0649
20
-5.26479
11
7.06536
21
-5.26564
0
LINE
8
BLACK
6
CONTINUOUS
10
7.06536
20
-5.26564
11
7.06597
21
-5.26639
0
LINE
8
BLACK
6
CONTINUOUS
10
7.06597
20
-5.26639
11
7.06671
21
-5.267
0
LINE
8
BLACK
6
CONTINUOUS
10
7.06671
20
-5.267
11
7.06757
21
-5.26745
0
LINE
8
BLACK
6
CONTINUOUS
10
7.06757
20
-5.26745
11
7.06849
21
-5.26773
0
LINE
8
BLACK
6
CONTINUOUS
10
7.06849
20
-5.26773
11
7.06945
21
-5.26783
0
LINE
8
BLACK
6
CONTINUOUS
10
7.06945
20
-5.26783
11
7.07041
21
-5.26773
0
LINE
8
BLACK
6
CONTINUOUS
10
7.07041
20
-5.26773
11
7.07133
21
-5.26745
0
LINE
8
BLACK
6
CONTINUOUS
10
7.07133
20
-5.26745
11
7.07218
21
-5.267
0
LINE
8
BLACK
6
CONTINUOUS
10
7.07218
20
-5.267
11
7.07293
21
-5.26639
0
LINE
8
BLACK
6
CONTINUOUS
10
7.07293
20
-5.26639
11
7.07354
21
-5.26564
0
LINE
8
BLACK
6
CONTINUOUS
10
7.07354
20
-5.26564
11
7.074
21
-5.26479
0
LINE
8
BLACK
6
CONTINUOUS
10
7.074
20
-5.26479
11
7.07428
21
-5.26387
0
LINE
8
BLACK
6
CONTINUOUS
10
7.07428
20
-5.26387
11
7.07538
21
-5.25833
0
LINE
8
BLACK
6
CONTINUOUS
10
7.07538
20
-5.25833
11
7.07805
21
-5.25188
0
LINE
8
BLACK
6
CONTINUOUS
10
7.07805
20
-5.25188
11
7.07805
21
-5.25188
0
LINE
8
BLACK
6
CONTINUOUS
10
7.07805
20
-5.25188
11
7.08193
21
-5.24607
0
LINE
8
BLACK
6
CONTINUOUS
10
7.08193
20
-5.24607
11
7.08686
21
-5.24114
0
LINE
8
BLACK
6
CONTINUOUS
10
7.08686
20
-5.24114
11
7.09266
21
-5.23726
0
LINE
8
BLACK
6
CONTINUOUS
10
7.09266
20
-5.23726
11
7.09478
21
-5.23639
0
LINE
8
BLACK
6
CONTINUOUS
10
7.09478
20
-5.23639
11
7.09911
21
-5.23459
0
LINE
8
BLACK
6
CONTINUOUS
10
7.09911
20
-5.23459
11
7.10596
21
-5.23323
0
LINE
8
BLACK
6
CONTINUOUS
10
7.10596
20
-5.23323
11
7.11294
21
-5.23323
0
LINE
8
BLACK
6
CONTINUOUS
10
7.11294
20
-5.23323
11
7.11978
21
-5.23459
0
LINE
8
BLACK
6
CONTINUOUS
10
7.11978
20
-5.23459
11
7.12412
21
-5.23639
0
LINE
8
BLACK
6
CONTINUOUS
10
7.12412
20
-5.23639
11
7.12623
21
-5.23726
0
LINE
8
BLACK
6
CONTINUOUS
10
7.12623
20
-5.23726
11
7.13204
21
-5.24114
0
LINE
8
BLACK
6
CONTINUOUS
10
7.13204
20
-5.24114
11
7.13697
21
-5.24607
0
LINE
8
BLACK
6
CONTINUOUS
10
7.13697
20
-5.24607
11
7.14085
21
-5.25188
0
LINE
8
BLACK
6
CONTINUOUS
10
7.14085
20
-5.25188
11
7.14352
21
-5.25833
0
LINE
8
BLACK
6
CONTINUOUS
10
7.14352
20
-5.25833
11
7.14488
21
-5.26517
0
LINE
8
BLACK
6
CONTINUOUS
10
7.14488
20
-5.26517
11
7.14488
21
-5.27215
0
LINE
8
BLACK
6
CONTINUOUS
10
7.14488
20
-5.27215
11
7.14352
21
-5.279
0
LINE
8
BLACK
6
CONTINUOUS
10
7.14352
20
-5.279
11
7.14085
21
-5.28545
0
LINE
8
BLACK
6
CONTINUOUS
10
7.14085
20
-5.28545
11
7.13697
21
-5.29125
0
LINE
8
BLACK
6
CONTINUOUS
10
7.13697
20
-5.29125
11
7.13204
21
-5.29618
0
LINE
8
BLACK
6
CONTINUOUS
10
7.13204
20
-5.29618
11
7.12623
21
-5.30006
0
LINE
8
BLACK
6
CONTINUOUS
10
7.12623
20
-5.30006
11
7.12623
21
-5.30006
0
LINE
8
BLACK
6
CONTINUOUS
10
7.12623
20
-5.30006
11
7.12623
21
-5.30006
0
LINE
8
BLACK
6
CONTINUOUS
10
7.12623
20
-5.30006
11
7.11978
21
-5.30273
0
LINE
8
BLACK
6
CONTINUOUS
10
7.11978
20
-5.30273
11
7.11294
21
-5.30409
0
LINE
8
BLACK
6
CONTINUOUS
10
7.11294
20
-5.30409
11
7.10596
21
-5.30409
0
LINE
8
BLACK
6
CONTINUOUS
10
7.10596
20
-5.30409
11
7.09911
21
-5.30273
0
LINE
8
BLACK
6
CONTINUOUS
10
7.09911
20
-5.30273
11
7.09267
21
-5.30006
0
LINE
8
BLACK
6
CONTINUOUS
10
7.09267
20
-5.30006
11
7.09267
21
-5.30006
0
LINE
8
BLACK
6
CONTINUOUS
10
7.09267
20
-5.30006
11
7.09266
21
-5.30006
0
LINE
8
BLACK
6
CONTINUOUS
10
7.09266
20
-5.30006
11
7.08686
21
-5.29618
0
LINE
8
BLACK
6
CONTINUOUS
10
7.08686
20
-5.29618
11
7.08193
21
-5.29125
0
LINE
8
BLACK
6
CONTINUOUS
10
7.08193
20
-5.29125
11
7.07805
21
-5.28545
0
LINE
8
BLACK
6
CONTINUOUS
10
7.07805
20
-5.28545
11
7.07538
21
-5.279
0
LINE
8
BLACK
6
CONTINUOUS
10
7.07538
20
-5.279
11
7.07428
21
-5.27346
0
LINE
8
BLACK
6
CONTINUOUS
10
7.07428
20
-5.27346
11
7.074
21
-5.27253
0
LINE
8
BLACK
6
CONTINUOUS
10
7.074
20
-5.27253
11
7.07354
21
-5.27168
0
LINE
8
BLACK
6
CONTINUOUS
10
7.07354
20
-5.27168
11
7.07293
21
-5.27094
0
LINE
8
BLACK
6
CONTINUOUS
10
7.07293
20
-5.27094
11
7.07218
21
-5.27033
0
LINE
8
BLACK
6
CONTINUOUS
10
7.07218
20
-5.27033
11
7.07133
21
-5.26987
0
LINE
8
BLACK
6
CONTINUOUS
10
7.07133
20
-5.26987
11
7.07041
21
-5.26959
0
LINE
8
BLACK
6
CONTINUOUS
10
7.07041
20
-5.26959
11
7.06945
21
-5.2695
0
LINE
8
BLACK
6
CONTINUOUS
10
7.06945
20
-5.2695
11
7.06849
21
-5.26959
0
LINE
8
BLACK
6
CONTINUOUS
10
7.06849
20
-5.26959
11
7.06757
21
-5.26987
0
LINE
8
BLACK
6
CONTINUOUS
10
7.06757
20
-5.26987
11
7.06671
21
-5.27033
0
LINE
8
BLACK
6
CONTINUOUS
10
7.06671
20
-5.27033
11
7.06597
21
-5.27094
0
LINE
8
BLACK
6
CONTINUOUS
10
7.06597
20
-5.27094
11
7.06536
21
-5.27168
0
LINE
8
BLACK
6
CONTINUOUS
10
7.06536
20
-5.27168
11
7.0649
21
-5.27253
0
LINE
8
BLACK
6
CONTINUOUS
10
7.0649
20
-5.27253
11
7.06462
21
-5.27346
0
LINE
8
BLACK
6
CONTINUOUS
10
7.06462
20
-5.27346
11
7.06352
21
-5.279
0
LINE
8
BLACK
6
CONTINUOUS
10
7.06352
20
-5.279
11
7.06085
21
-5.28545
0
LINE
8
BLACK
6
CONTINUOUS
10
7.06085
20
-5.28545
11
7.05697
21
-5.29125
0
LINE
8
BLACK
6
CONTINUOUS
10
7.05697
20
-5.29125
11
7.05204
21
-5.29618
0
LINE
8
BLACK
6
CONTINUOUS
10
7.05204
20
-5.29618
11
7.04623
21
-5.30006
0
LINE
8
BLACK
6
CONTINUOUS
10
7.04623
20
-5.30006
11
7.04623
21
-5.30006
0
LINE
8
BLACK
6
CONTINUOUS
10
7.04623
20
-5.30006
11
7.04623
21
-5.30006
0
LINE
8
BLACK
6
CONTINUOUS
10
7.04623
20
-5.30006
11
7.03978
21
-5.30273
0
LINE
8
BLACK
6
CONTINUOUS
10
7.03978
20
-5.30273
11
7.03294
21
-5.30409
0
LINE
8
BLACK
6
CONTINUOUS
10
7.03294
20
-5.30409
11
7.02596
21
-5.30409
0
LINE
8
BLACK
6
CONTINUOUS
10
7.02596
20
-5.30409
11
7.01911
21
-5.30273
0
LINE
8
BLACK
6
CONTINUOUS
10
7.01911
20
-5.30273
11
7.01267
21
-5.30006
0
LINE
8
BLACK
6
CONTINUOUS
10
7.01267
20
-5.30006
11
7.01267
21
-5.30006
0
LINE
8
BLACK
6
CONTINUOUS
10
7.01267
20
-5.30006
11
7.01266
21
-5.30006
0
LINE
8
BLACK
6
CONTINUOUS
10
7.01266
20
-5.30006
11
7.00686
21
-5.29618
0
LINE
8
BLACK
6
CONTINUOUS
10
7.00686
20
-5.29618
11
7.00193
21
-5.29125
0
LINE
8
BLACK
6
CONTINUOUS
10
7.00193
20
-5.29125
11
6.99805
21
-5.28545
0
LINE
8
BLACK
6
CONTINUOUS
10
6.99805
20
-5.28545
11
6.99538
21
-5.279
0
LINE
8
BLACK
6
CONTINUOUS
10
6.99538
20
-5.279
11
6.99428
21
-5.27346
0
LINE
8
BLACK
6
CONTINUOUS
10
6.99428
20
-5.27346
11
6.994
21
-5.27253
0
LINE
8
BLACK
6
CONTINUOUS
10
6.994
20
-5.27253
11
6.99354
21
-5.27168
0
LINE
8
BLACK
6
CONTINUOUS
10
6.99354
20
-5.27168
11
6.99293
21
-5.27094
0
LINE
8
BLACK
6
CONTINUOUS
10
6.99293
20
-5.27094
11
6.99218
21
-5.27033
0
LINE
8
BLACK
6
CONTINUOUS
10
6.99218
20
-5.27033
11
6.99133
21
-5.26987
0
LINE
8
BLACK
6
CONTINUOUS
10
6.99133
20
-5.26987
11
6.99041
21
-5.26959
0
LINE
8
BLACK
6
CONTINUOUS
10
6.99041
20
-5.26959
11
6.98945
21
-5.2695
0
LINE
8
BLACK
6
CONTINUOUS
10
6.98945
20
-5.2695
11
6.98849
21
-5.26959
0
LINE
8
BLACK
6
CONTINUOUS
10
6.98849
20
-5.26959
11
6.98757
21
-5.26987
0
LINE
8
BLACK
6
CONTINUOUS
10
6.98757
20
-5.26987
11
6.98671
21
-5.27033
0
LINE
8
BLACK
6
CONTINUOUS
10
6.98671
20
-5.27033
11
6.98597
21
-5.27094
0
LINE
8
BLACK
6
CONTINUOUS
10
6.98597
20
-5.27094
11
6.98536
21
-5.27168
0
LINE
8
BLACK
6
CONTINUOUS
10
6.98536
20
-5.27168
11
6.9849
21
-5.27253
0
LINE
8
BLACK
6
CONTINUOUS
10
6.9849
20
-5.27253
11
6.98462
21
-5.27346
0
LINE
8
BLACK
6
CONTINUOUS
10
6.98462
20
-5.27346
11
6.98352
21
-5.279
0
LINE
8
BLACK
6
CONTINUOUS
10
6.98352
20
-5.279
11
6.98085
21
-5.28545
0
LINE
8
BLACK
6
CONTINUOUS
10
6.98085
20
-5.28545
11
6.97697
21
-5.29125
0
LINE
8
BLACK
6
CONTINUOUS
10
6.97697
20
-5.29125
11
6.97204
21
-5.29618
0
LINE
8
BLACK
6
CONTINUOUS
10
6.97204
20
-5.29618
11
6.96623
21
-5.30006
0
LINE
8
BLACK
6
CONTINUOUS
10
6.96623
20
-5.30006
11
6.96623
21
-5.30006
0
LINE
8
BLACK
6
CONTINUOUS
10
6.96623
20
-5.30006
11
6.96623
21
-5.30006
0
LINE
8
BLACK
6
CONTINUOUS
10
6.96623
20
-5.30006
11
6.95978
21
-5.30273
0
LINE
8
BLACK
6
CONTINUOUS
10
6.95978
20
-5.30273
11
6.95294
21
-5.30409
0
LINE
8
BLACK
6
CONTINUOUS
10
6.95294
20
-5.30409
11
6.94596
21
-5.30409
0
LINE
8
BLACK
6
CONTINUOUS
10
6.94596
20
-5.30409
11
6.93911
21
-5.30273
0
LINE
8
BLACK
6
CONTINUOUS
10
6.93911
20
-5.30273
11
6.93267
21
-5.30006
0
LINE
8
BLACK
6
CONTINUOUS
10
6.93267
20
-5.30006
11
6.93267
21
-5.30006
0
LINE
8
BLACK
6
CONTINUOUS
10
6.93267
20
-5.30006
11
6.93266
21
-5.30006
0
LINE
8
BLACK
6
CONTINUOUS
10
6.93266
20
-5.30006
11
6.92686
21
-5.29618
0
LINE
8
BLACK
6
CONTINUOUS
10
6.92686
20
-5.29618
11
6.92193
21
-5.29125
0
LINE
8
BLACK
6
CONTINUOUS
10
6.92193
20
-5.29125
11
6.91805
21
-5.28545
0
LINE
8
BLACK
6
CONTINUOUS
10
6.91805
20
-5.28545
11
6.91538
21
-5.279
0
LINE
8
BLACK
6
CONTINUOUS
10
6.91538
20
-5.279
11
6.91428
21
-5.27346
0
LINE
8
BLACK
6
CONTINUOUS
10
6.91428
20
-5.27346
11
6.914
21
-5.27253
0
LINE
8
BLACK
6
CONTINUOUS
10
6.914
20
-5.27253
11
6.91354
21
-5.27168
0
LINE
8
BLACK
6
CONTINUOUS
10
6.91354
20
-5.27168
11
6.91293
21
-5.27094
0
LINE
8
BLACK
6
CONTINUOUS
10
6.91293
20
-5.27094
11
6.91218
21
-5.27033
0
LINE
8
BLACK
6
CONTINUOUS
10
6.91218
20
-5.27033
11
6.91133
21
-5.26987
0
LINE
8
BLACK
6
CONTINUOUS
10
6.91133
20
-5.26987
11
6.91041
21
-5.26959
0
LINE
8
BLACK
6
CONTINUOUS
10
6.91041
20
-5.26959
11
6.90945
21
-5.2695
0
LINE
8
BLACK
6
CONTINUOUS
10
6.90945
20
-5.2695
11
6.90849
21
-5.26959
0
LINE
8
BLACK
6
CONTINUOUS
10
6.90849
20
-5.26959
11
6.90757
21
-5.26987
0
LINE
8
BLACK
6
CONTINUOUS
10
6.90757
20
-5.26987
11
6.90671
21
-5.27033
0
LINE
8
BLACK
6
CONTINUOUS
10
6.90671
20
-5.27033
11
6.90597
21
-5.27094
0
LINE
8
BLACK
6
CONTINUOUS
10
6.90597
20
-5.27094
11
6.90536
21
-5.27168
0
LINE
8
BLACK
6
CONTINUOUS
10
6.90536
20
-5.27168
11
6.9049
21
-5.27253
0
LINE
8
BLACK
6
CONTINUOUS
10
6.9049
20
-5.27253
11
6.90462
21
-5.27346
0
LINE
8
BLACK
6
CONTINUOUS
10
6.90462
20
-5.27346
11
6.90352
21
-5.279
0
LINE
8
BLACK
6
CONTINUOUS
10
6.90352
20
-5.279
11
6.90085
21
-5.28545
0
LINE
8
BLACK
6
CONTINUOUS
10
6.90085
20
-5.28545
11
6.89697
21
-5.29125
0
LINE
8
BLACK
6
CONTINUOUS
10
6.89697
20
-5.29125
11
6.89204
21
-5.29618
0
LINE
8
BLACK
6
CONTINUOUS
10
6.89204
20
-5.29618
11
6.88623
21
-5.30006
0
LINE
8
BLACK
6
CONTINUOUS
10
6.88623
20
-5.30006
11
6.88623
21
-5.30006
0
LINE
8
BLACK
6
CONTINUOUS
10
6.88623
20
-5.30006
11
6.88623
21
-5.30006
0
LINE
8
BLACK
6
CONTINUOUS
10
6.88623
20
-5.30006
11
6.87978
21
-5.30273
0
LINE
8
BLACK
6
CONTINUOUS
10
6.87978
20
-5.30273
11
6.87294
21
-5.30409
0
LINE
8
BLACK
6
CONTINUOUS
10
6.87294
20
-5.30409
11
6.86596
21
-5.30409
0
LINE
8
BLACK
6
CONTINUOUS
10
6.86596
20
-5.30409
11
6.85911
21
-5.30273
0
LINE
8
BLACK
6
CONTINUOUS
10
6.85911
20
-5.30273
11
6.85267
21
-5.30006
0
LINE
8
BLACK
6
CONTINUOUS
10
6.85267
20
-5.30006
11
6.85267
21
-5.30006
0
LINE
8
BLACK
6
CONTINUOUS
10
6.85267
20
-5.30006
11
6.85266
21
-5.30006
0
LINE
8
BLACK
6
CONTINUOUS
10
6.85266
20
-5.30006
11
6.84686
21
-5.29618
0
LINE
8
BLACK
6
CONTINUOUS
10
6.84686
20
-5.29618
11
6.84193
21
-5.29125
0
LINE
8
BLACK
6
CONTINUOUS
10
6.84193
20
-5.29125
11
6.83805
21
-5.28545
0
LINE
8
BLACK
6
CONTINUOUS
10
6.83805
20
-5.28545
11
6.83538
21
-5.279
0
LINE
8
BLACK
6
CONTINUOUS
10
6.83538
20
-5.279
11
6.83428
21
-5.27346
0
LINE
8
BLACK
6
CONTINUOUS
10
6.83428
20
-5.27346
11
6.834
21
-5.27253
0
LINE
8
BLACK
6
CONTINUOUS
10
6.834
20
-5.27253
11
6.83354
21
-5.27168
0
LINE
8
BLACK
6
CONTINUOUS
10
6.83354
20
-5.27168
11
6.83293
21
-5.27094
0
LINE
8
BLACK
6
CONTINUOUS
10
6.83293
20
-5.27094
11
6.83218
21
-5.27033
0
LINE
8
BLACK
6
CONTINUOUS
10
6.83218
20
-5.27033
11
6.83133
21
-5.26987
0
LINE
8
BLACK
6
CONTINUOUS
10
6.83133
20
-5.26987
11
6.83041
21
-5.26959
0
LINE
8
BLACK
6
CONTINUOUS
10
6.83041
20
-5.26959
11
6.82945
21
-5.2695
0
LINE
8
BLACK
6
CONTINUOUS
10
6.82945
20
-5.2695
11
6.82849
21
-5.26959
0
LINE
8
BLACK
6
CONTINUOUS
10
6.82849
20
-5.26959
11
6.82757
21
-5.26987
0
LINE
8
BLACK
6
CONTINUOUS
10
6.82757
20
-5.26987
11
6.82671
21
-5.27033
0
LINE
8
BLACK
6
CONTINUOUS
10
6.82671
20
-5.27033
11
6.82597
21
-5.27094
0
LINE
8
BLACK
6
CONTINUOUS
10
6.82597
20
-5.27094
11
6.82536
21
-5.27168
0
LINE
8
BLACK
6
CONTINUOUS
10
6.82536
20
-5.27168
11
6.8249
21
-5.27253
0
LINE
8
BLACK
6
CONTINUOUS
10
6.8249
20
-5.27253
11
6.82462
21
-5.27346
0
LINE
8
BLACK
6
CONTINUOUS
10
6.82462
20
-5.27346
11
6.82352
21
-5.279
0
LINE
8
BLACK
6
CONTINUOUS
10
6.82352
20
-5.279
11
6.82085
21
-5.28545
0
LINE
8
BLACK
6
CONTINUOUS
10
6.82085
20
-5.28545
11
6.81697
21
-5.29125
0
LINE
8
BLACK
6
CONTINUOUS
10
6.81697
20
-5.29125
11
6.81204
21
-5.29618
0
LINE
8
BLACK
6
CONTINUOUS
10
6.81204
20
-5.29618
11
6.80623
21
-5.30006
0
LINE
8
BLACK
6
CONTINUOUS
10
6.80623
20
-5.30006
11
6.80623
21
-5.30006
0
LINE
8
BLACK
6
CONTINUOUS
10
6.80623
20
-5.30006
11
6.80623
21
-5.30006
0
LINE
8
BLACK
6
CONTINUOUS
10
6.80623
20
-5.30006
11
6.79978
21
-5.30273
0
LINE
8
BLACK
6
CONTINUOUS
10
6.79978
20
-5.30273
11
6.79294
21
-5.30409
0
LINE
8
BLACK
6
CONTINUOUS
10
6.79294
20
-5.30409
11
6.78596
21
-5.30409
0
LINE
8
BLACK
6
CONTINUOUS
10
6.78596
20
-5.30409
11
6.77911
21
-5.30273
0
LINE
8
BLACK
6
CONTINUOUS
10
6.77911
20
-5.30273
11
6.77267
21
-5.30006
0
LINE
8
BLACK
6
CONTINUOUS
10
6.77267
20
-5.30006
11
6.77266
21
-5.30006
0
LINE
8
BLACK
6
CONTINUOUS
10
6.77266
20
-5.30006
11
6.77266
21
-5.30006
0
LINE
8
BLACK
6
CONTINUOUS
10
6.77266
20
-5.30006
11
6.76686
21
-5.29618
0
LINE
8
BLACK
6
CONTINUOUS
10
6.76686
20
-5.29618
11
6.76193
21
-5.29125
0
LINE
8
BLACK
6
CONTINUOUS
10
6.76193
20
-5.29125
11
6.75805
21
-5.28545
0
LINE
8
BLACK
6
CONTINUOUS
10
6.75805
20
-5.28545
11
6.75538
21
-5.279
0
LINE
8
BLACK
6
CONTINUOUS
10
6.75538
20
-5.279
11
6.75428
21
-5.27346
0
LINE
8
BLACK
6
CONTINUOUS
10
6.75428
20
-5.27346
11
6.754
21
-5.27253
0
LINE
8
BLACK
6
CONTINUOUS
10
6.754
20
-5.27253
11
6.75354
21
-5.27168
0
LINE
8
BLACK
6
CONTINUOUS
10
6.75354
20
-5.27168
11
6.75293
21
-5.27094
0
LINE
8
BLACK
6
CONTINUOUS
10
6.75293
20
-5.27094
11
6.75218
21
-5.27033
0
LINE
8
BLACK
6
CONTINUOUS
10
6.75218
20
-5.27033
11
6.75133
21
-5.26987
0
LINE
8
BLACK
6
CONTINUOUS
10
6.75133
20
-5.26987
11
6.75041
21
-5.26959
0
LINE
8
BLACK
6
CONTINUOUS
10
6.75041
20
-5.26959
11
6.74945
21
-5.2695
0
LINE
8
BLACK
6
CONTINUOUS
10
6.74945
20
-5.2695
11
6.74849
21
-5.26959
0
LINE
8
BLACK
6
CONTINUOUS
10
6.74849
20
-5.26959
11
6.74757
21
-5.26987
0
LINE
8
BLACK
6
CONTINUOUS
10
6.74757
20
-5.26987
11
6.74671
21
-5.27033
0
LINE
8
BLACK
6
CONTINUOUS
10
6.74671
20
-5.27033
11
6.74597
21
-5.27094
0
LINE
8
BLACK
6
CONTINUOUS
10
6.74597
20
-5.27094
11
6.74536
21
-5.27168
0
LINE
8
BLACK
6
CONTINUOUS
10
6.74536
20
-5.27168
11
6.7449
21
-5.27253
0
LINE
8
BLACK
6
CONTINUOUS
10
6.7449
20
-5.27253
11
6.74462
21
-5.27346
0
LINE
8
BLACK
6
CONTINUOUS
10
6.74462
20
-5.27346
11
6.74352
21
-5.279
0
LINE
8
BLACK
6
CONTINUOUS
10
6.74352
20
-5.279
11
6.74085
21
-5.28545
0
LINE
8
BLACK
6
CONTINUOUS
10
6.74085
20
-5.28545
11
6.73697
21
-5.29125
0
LINE
8
BLACK
6
CONTINUOUS
10
6.73697
20
-5.29125
11
6.73204
21
-5.29618
0
LINE
8
BLACK
6
CONTINUOUS
10
6.73204
20
-5.29618
11
6.72623
21
-5.30006
0
LINE
8
BLACK
6
CONTINUOUS
10
6.72623
20
-5.30006
11
6.72623
21
-5.30006
0
LINE
8
BLACK
6
CONTINUOUS
10
6.72623
20
-5.30006
11
6.72623
21
-5.30006
0
LINE
8
BLACK
6
CONTINUOUS
10
6.72623
20
-5.30006
11
6.71978
21
-5.30273
0
LINE
8
BLACK
6
CONTINUOUS
10
6.71978
20
-5.30273
11
6.71294
21
-5.30409
0
LINE
8
BLACK
6
CONTINUOUS
10
6.71294
20
-5.30409
11
6.70596
21
-5.30409
0
LINE
8
BLACK
6
CONTINUOUS
10
6.70596
20
-5.30409
11
6.69911
21
-5.30273
0
LINE
8
BLACK
6
CONTINUOUS
10
6.69911
20
-5.30273
11
6.69267
21
-5.30006
0
LINE
8
BLACK
6
CONTINUOUS
10
6.69267
20
-5.30006
11
6.69266
21
-5.30006
0
LINE
8
BLACK
6
CONTINUOUS
10
6.69266
20
-5.30006
11
6.69266
21
-5.30006
0
LINE
8
BLACK
6
CONTINUOUS
10
6.69266
20
-5.30006
11
6.68686
21
-5.29618
0
LINE
8
BLACK
6
CONTINUOUS
10
6.68686
20
-5.29618
11
6.68193
21
-5.29125
0
LINE
8
BLACK
6
CONTINUOUS
10
6.68193
20
-5.29125
11
6.67805
21
-5.28545
0
LINE
8
BLACK
6
CONTINUOUS
10
6.67805
20
-5.28545
11
6.67538
21
-5.279
0
LINE
8
BLACK
6
CONTINUOUS
10
6.67538
20
-5.279
11
6.67402
21
-5.27215
0
LINE
8
BLACK
6
CONTINUOUS
10
6.67402
20
-5.27215
11
6.67402
21
-5.26517
0
LINE
8
BLACK
6
CONTINUOUS
10
6.67402
20
-5.26517
11
6.67538
21
-5.25833
0
LINE
8
BLACK
6
CONTINUOUS
10
6.67538
20
-5.25833
11
6.67805
21
-5.25188
0
LINE
8
BLACK
6
CONTINUOUS
10
6.67805
20
-5.25188
11
6.68193
21
-5.24607
0
LINE
8
BLACK
6
CONTINUOUS
10
6.68193
20
-5.24607
11
6.68686
21
-5.24114
0
LINE
8
BLACK
6
CONTINUOUS
10
6.68686
20
-5.24114
11
6.69266
21
-5.23726
0
LINE
8
BLACK
6
CONTINUOUS
10
6.69266
20
-5.23726
11
6.69478
21
-5.23639
0
LINE
8
BLACK
6
CONTINUOUS
10
6.69478
20
-5.23639
11
6.69911
21
-5.23459
0
LINE
8
BLACK
6
CONTINUOUS
10
6.69911
20
-5.23459
11
6.70596
21
-5.23323
0
LINE
8
BLACK
6
CONTINUOUS
10
6.70596
20
-5.23323
11
6.71294
21
-5.23323
0
LINE
8
BLACK
6
CONTINUOUS
10
6.71294
20
-5.23323
11
6.71978
21
-5.23459
0
LINE
8
BLACK
6
CONTINUOUS
10
5.21144
20
-5.1412
11
5.21867
21
-5.14264
0
LINE
8
BLACK
6
CONTINUOUS
10
5.21867
20
-5.14264
11
5.22431
21
-5.14497
0
LINE
8
BLACK
6
CONTINUOUS
10
5.22431
20
-5.14497
11
5.23228
21
-5.14828
0
LINE
8
BLACK
6
CONTINUOUS
10
5.23228
20
-5.14828
11
5.24453
21
-5.15646
0
LINE
8
BLACK
6
CONTINUOUS
10
5.24453
20
-5.15646
11
5.25495
21
-5.16688
0
LINE
8
BLACK
6
CONTINUOUS
10
5.25495
20
-5.16688
11
5.26314
21
-5.17913
0
LINE
8
BLACK
6
CONTINUOUS
10
5.26314
20
-5.17913
11
5.2648
21
-5.18314
0
LINE
8
BLACK
6
CONTINUOUS
10
5.2648
20
-5.18314
11
5.26878
21
-5.19275
0
LINE
8
BLACK
6
CONTINUOUS
10
5.26878
20
-5.19275
11
5.27165
21
-5.2072
0
LINE
8
BLACK
6
CONTINUOUS
10
5.27165
20
-5.2072
11
5.27165
21
-5.22193
0
LINE
8
BLACK
6
CONTINUOUS
10
5.27165
20
-5.22193
11
5.26878
21
-5.23639
0
LINE
8
BLACK
6
CONTINUOUS
10
5.26878
20
-5.23639
11
5.26681
21
-5.24114
0
LINE
8
BLACK
6
CONTINUOUS
10
5.26681
20
-5.24114
11
5.26314
21
-5.25
0
LINE
8
BLACK
6
CONTINUOUS
10
5.26314
20
-5.25
11
5.25495
21
-5.26225
0
LINE
8
BLACK
6
CONTINUOUS
10
5.25495
20
-5.26225
11
5.24453
21
-5.27267
0
LINE
8
BLACK
6
CONTINUOUS
10
5.24453
20
-5.27267
11
5.23228
21
-5.28086
0
LINE
8
BLACK
6
CONTINUOUS
10
5.23228
20
-5.28086
11
5.22431
21
-5.28416
0
LINE
8
BLACK
6
CONTINUOUS
10
5.22431
20
-5.28416
11
5.21867
21
-5.2865
0
LINE
8
BLACK
6
CONTINUOUS
10
5.21867
20
-5.2865
11
5.21144
21
-5.28793
0
LINE
8
BLACK
6
CONTINUOUS
10
5.21144
20
-5.28793
11
5.20422
21
-5.28937
0
LINE
8
BLACK
6
CONTINUOUS
10
5.20422
20
-5.28937
11
5.18948
21
-5.28937
0
LINE
8
BLACK
6
CONTINUOUS
10
5.18948
20
-5.28937
11
5.18226
21
-5.28793
0
LINE
8
BLACK
6
CONTINUOUS
10
5.18226
20
-5.28793
11
5.17503
21
-5.2865
0
LINE
8
BLACK
6
CONTINUOUS
10
5.17503
20
-5.2865
11
5.16939
21
-5.28416
0
LINE
8
BLACK
6
CONTINUOUS
10
5.16939
20
-5.28416
11
5.16142
21
-5.28086
0
LINE
8
BLACK
6
CONTINUOUS
10
5.16142
20
-5.28086
11
5.14917
21
-5.27267
0
LINE
8
BLACK
6
CONTINUOUS
10
5.14917
20
-5.27267
11
5.13875
21
-5.26225
0
LINE
8
BLACK
6
CONTINUOUS
10
5.13875
20
-5.26225
11
5.13056
21
-5.25
0
LINE
8
BLACK
6
CONTINUOUS
10
5.13056
20
-5.25
11
5.12689
21
-5.24114
0
LINE
8
BLACK
6
CONTINUOUS
10
5.12689
20
-5.24114
11
5.12492
21
-5.23639
0
LINE
8
BLACK
6
CONTINUOUS
10
5.12492
20
-5.23639
11
5.12205
21
-5.22193
0
LINE
8
BLACK
6
CONTINUOUS
10
5.12205
20
-5.22193
11
5.12205
21
-5.2072
0
LINE
8
BLACK
6
CONTINUOUS
10
5.12205
20
-5.2072
11
5.12492
21
-5.19275
0
LINE
8
BLACK
6
CONTINUOUS
10
5.12492
20
-5.19275
11
5.1289
21
-5.18314
0
LINE
8
BLACK
6
CONTINUOUS
10
5.1289
20
-5.18314
11
5.13056
21
-5.17913
0
LINE
8
BLACK
6
CONTINUOUS
10
5.13056
20
-5.17913
11
5.13875
21
-5.16688
0
LINE
8
BLACK
6
CONTINUOUS
10
5.13875
20
-5.16688
11
5.14917
21
-5.15646
0
LINE
8
BLACK
6
CONTINUOUS
10
5.14917
20
-5.15646
11
5.16142
21
-5.14828
0
LINE
8
BLACK
6
CONTINUOUS
10
5.16142
20
-5.14828
11
5.16939
21
-5.14497
0
LINE
8
BLACK
6
CONTINUOUS
10
5.16939
20
-5.14497
11
5.17503
21
-5.14264
0
LINE
8
BLACK
6
CONTINUOUS
10
5.17503
20
-5.14264
11
5.18226
21
-5.1412
0
LINE
8
BLACK
6
CONTINUOUS
10
5.18226
20
-5.1412
11
5.18948
21
-5.13976
0
LINE
8
BLACK
6
CONTINUOUS
10
5.18948
20
-5.13976
11
5.20422
21
-5.13976
0
LINE
8
BLACK
6
CONTINUOUS
10
5.20422
20
-5.13976
11
5.21144
21
-5.1412
0
LINE
8
BLACK
6
CONTINUOUS
10
6.6344
20
-5.13329
11
6.63693
21
-5.1338
0
LINE
8
BLACK
6
CONTINUOUS
10
6.63693
20
-5.1338
11
6.6441
21
-5.13676
0
LINE
8
BLACK
6
CONTINUOUS
10
6.6441
20
-5.13676
11
6.65055
21
-5.14107
0
LINE
8
BLACK
6
CONTINUOUS
10
6.65055
20
-5.14107
11
6.65603
21
-5.14656
0
LINE
8
BLACK
6
CONTINUOUS
10
6.65603
20
-5.14656
11
6.66034
21
-5.153
0
LINE
8
BLACK
6
CONTINUOUS
10
6.66034
20
-5.153
11
6.66331
21
-5.16017
0
LINE
8
BLACK
6
CONTINUOUS
10
6.66331
20
-5.16017
11
6.66482
21
-5.16778
0
LINE
8
BLACK
6
CONTINUOUS
10
6.66482
20
-5.16778
11
6.66482
21
-5.17553
0
LINE
8
BLACK
6
CONTINUOUS
10
6.66482
20
-5.17553
11
6.66331
21
-5.18314
0
LINE
8
BLACK
6
CONTINUOUS
10
6.66331
20
-5.18314
11
6.66034
21
-5.1903
0
LINE
8
BLACK
6
CONTINUOUS
10
6.66034
20
-5.1903
11
6.65603
21
-5.19675
0
LINE
8
BLACK
6
CONTINUOUS
10
6.65603
20
-5.19675
11
6.65055
21
-5.20223
0
LINE
8
BLACK
6
CONTINUOUS
10
6.65055
20
-5.20223
11
6.6441
21
-5.20654
0
LINE
8
BLACK
6
CONTINUOUS
10
6.6441
20
-5.20654
11
6.63693
21
-5.20951
0
LINE
8
BLACK
6
CONTINUOUS
10
6.63693
20
-5.20951
11
6.6344
21
-5.21002
0
LINE
8
BLACK
6
CONTINUOUS
10
6.6344
20
-5.21002
11
6.62933
21
-5.21102
0
LINE
8
BLACK
6
CONTINUOUS
10
6.62933
20
-5.21102
11
6.62157
21
-5.21102
0
LINE
8
BLACK
6
CONTINUOUS
10
6.62157
20
-5.21102
11
6.6165
21
-5.21002
0
LINE
8
BLACK
6
CONTINUOUS
10
6.6165
20
-5.21002
11
6.61396
21
-5.20951
0
LINE
8
BLACK
6
CONTINUOUS
10
6.61396
20
-5.20951
11
6.6068
21
-5.20654
0
LINE
8
BLACK
6
CONTINUOUS
10
6.6068
20
-5.20654
11
6.60035
21
-5.20223
0
LINE
8
BLACK
6
CONTINUOUS
10
6.60035
20
-5.20223
11
6.59487
21
-5.19675
0
LINE
8
BLACK
6
CONTINUOUS
10
6.59487
20
-5.19675
11
6.59056
21
-5.1903
0
LINE
8
BLACK
6
CONTINUOUS
10
6.59056
20
-5.1903
11
6.58759
21
-5.18314
0
LINE
8
BLACK
6
CONTINUOUS
10
6.58759
20
-5.18314
11
6.58608
21
-5.17553
0
LINE
8
BLACK
6
CONTINUOUS
10
6.58608
20
-5.17553
11
6.58608
21
-5.16778
0
LINE
8
BLACK
6
CONTINUOUS
10
6.58608
20
-5.16778
11
6.58759
21
-5.16017
0
LINE
8
BLACK
6
CONTINUOUS
10
6.58759
20
-5.16017
11
6.59056
21
-5.153
0
LINE
8
BLACK
6
CONTINUOUS
10
6.59056
20
-5.153
11
6.59487
21
-5.14656
0
LINE
8
BLACK
6
CONTINUOUS
10
6.59487
20
-5.14656
11
6.60035
21
-5.14107
0
LINE
8
BLACK
6
CONTINUOUS
10
6.60035
20
-5.14107
11
6.6068
21
-5.13676
0
LINE
8
BLACK
6
CONTINUOUS
10
6.6068
20
-5.13676
11
6.61396
21
-5.1338
0
LINE
8
BLACK
6
CONTINUOUS
10
6.61396
20
-5.1338
11
6.6165
21
-5.13329
0
LINE
8
BLACK
6
CONTINUOUS
10
6.6165
20
-5.13329
11
6.62157
21
-5.13228
0
LINE
8
BLACK
6
CONTINUOUS
10
6.62157
20
-5.13228
11
6.62933
21
-5.13228
0
LINE
8
BLACK
6
CONTINUOUS
10
6.62933
20
-5.13228
11
6.6344
21
-5.13329
0
LINE
8
BLACK
6
CONTINUOUS
10
6.7344
20
-5.13329
11
6.73693
21
-5.1338
0
LINE
8
BLACK
6
CONTINUOUS
10
6.73693
20
-5.1338
11
6.7441
21
-5.13676
0
LINE
8
BLACK
6
CONTINUOUS
10
6.7441
20
-5.13676
11
6.75055
21
-5.14107
0
LINE
8
BLACK
6
CONTINUOUS
10
6.75055
20
-5.14107
11
6.75603
21
-5.14656
0
LINE
8
BLACK
6
CONTINUOUS
10
6.75603
20
-5.14656
11
6.76034
21
-5.153
0
LINE
8
BLACK
6
CONTINUOUS
10
6.76034
20
-5.153
11
6.76331
21
-5.16017
0
LINE
8
BLACK
6
CONTINUOUS
10
6.76331
20
-5.16017
11
6.76482
21
-5.16778
0
LINE
8
BLACK
6
CONTINUOUS
10
6.76482
20
-5.16778
11
6.76482
21
-5.17553
0
LINE
8
BLACK
6
CONTINUOUS
10
6.76482
20
-5.17553
11
6.76331
21
-5.18314
0
LINE
8
BLACK
6
CONTINUOUS
10
6.76331
20
-5.18314
11
6.76034
21
-5.1903
0
LINE
8
BLACK
6
CONTINUOUS
10
6.76034
20
-5.1903
11
6.75603
21
-5.19675
0
LINE
8
BLACK
6
CONTINUOUS
10
6.75603
20
-5.19675
11
6.75055
21
-5.20223
0
LINE
8
BLACK
6
CONTINUOUS
10
6.75055
20
-5.20223
11
6.7441
21
-5.20654
0
LINE
8
BLACK
6
CONTINUOUS
10
6.7441
20
-5.20654
11
6.73693
21
-5.20951
0
LINE
8
BLACK
6
CONTINUOUS
10
6.73693
20
-5.20951
11
6.7344
21
-5.21002
0
LINE
8
BLACK
6
CONTINUOUS
10
6.7344
20
-5.21002
11
6.72933
21
-5.21102
0
LINE
8
BLACK
6
CONTINUOUS
10
6.72933
20
-5.21102
11
6.72157
21
-5.21102
0
LINE
8
BLACK
6
CONTINUOUS
10
6.72157
20
-5.21102
11
6.7165
21
-5.21002
0
LINE
8
BLACK
6
CONTINUOUS
10
6.7165
20
-5.21002
11
6.71396
21
-5.20951
0
LINE
8
BLACK
6
CONTINUOUS
10
6.71396
20
-5.20951
11
6.7068
21
-5.20654
0
LINE
8
BLACK
6
CONTINUOUS
10
6.7068
20
-5.20654
11
6.70035
21
-5.20223
0
LINE
8
BLACK
6
CONTINUOUS
10
6.70035
20
-5.20223
11
6.69487
21
-5.19675
0
LINE
8
BLACK
6
CONTINUOUS
10
6.69487
20
-5.19675
11
6.69056
21
-5.1903
0
LINE
8
BLACK
6
CONTINUOUS
10
6.69056
20
-5.1903
11
6.68759
21
-5.18314
0
LINE
8
BLACK
6
CONTINUOUS
10
6.68759
20
-5.18314
11
6.68608
21
-5.17553
0
LINE
8
BLACK
6
CONTINUOUS
10
6.68608
20
-5.17553
11
6.68608
21
-5.16778
0
LINE
8
BLACK
6
CONTINUOUS
10
6.68608
20
-5.16778
11
6.68759
21
-5.16017
0
LINE
8
BLACK
6
CONTINUOUS
10
6.68759
20
-5.16017
11
6.69056
21
-5.153
0
LINE
8
BLACK
6
CONTINUOUS
10
6.69056
20
-5.153
11
6.69487
21
-5.14656
0
LINE
8
BLACK
6
CONTINUOUS
10
6.69487
20
-5.14656
11
6.70035
21
-5.14107
0
LINE
8
BLACK
6
CONTINUOUS
10
6.70035
20
-5.14107
11
6.7068
21
-5.13676
0
LINE
8
BLACK
6
CONTINUOUS
10
6.7068
20
-5.13676
11
6.71396
21
-5.1338
0
LINE
8
BLACK
6
CONTINUOUS
10
6.71396
20
-5.1338
11
6.7165
21
-5.13329
0
LINE
8
BLACK
6
CONTINUOUS
10
6.7165
20
-5.13329
11
6.72157
21
-5.13228
0
LINE
8
BLACK
6
CONTINUOUS
10
6.72157
20
-5.13228
11
6.72933
21
-5.13228
0
LINE
8
BLACK
6
CONTINUOUS
10
6.72933
20
-5.13228
11
6.7344
21
-5.13329
0
LINE
8
BLACK
6
CONTINUOUS
10
7.1024
20
-5.13329
11
7.10493
21
-5.1338
0
LINE
8
BLACK
6
CONTINUOUS
10
7.10493
20
-5.1338
11
7.1121
21
-5.13676
0
LINE
8
BLACK
6
CONTINUOUS
10
7.1121
20
-5.13676
11
7.11855
21
-5.14107
0
LINE
8
BLACK
6
CONTINUOUS
10
7.11855
20
-5.14107
11
7.12403
21
-5.14656
0
LINE
8
BLACK
6
CONTINUOUS
10
7.12403
20
-5.14656
11
7.12834
21
-5.153
0
LINE
8
BLACK
6
CONTINUOUS
10
7.12834
20
-5.153
11
7.13131
21
-5.16017
0
LINE
8
BLACK
6
CONTINUOUS
10
7.13131
20
-5.16017
11
7.13282
21
-5.16778
0
LINE
8
BLACK
6
CONTINUOUS
10
7.13282
20
-5.16778
11
7.13282
21
-5.17553
0
LINE
8
BLACK
6
CONTINUOUS
10
7.13282
20
-5.17553
11
7.13131
21
-5.18314
0
LINE
8
BLACK
6
CONTINUOUS
10
7.13131
20
-5.18314
11
7.12834
21
-5.1903
0
LINE
8
BLACK
6
CONTINUOUS
10
7.12834
20
-5.1903
11
7.12403
21
-5.19675
0
LINE
8
BLACK
6
CONTINUOUS
10
7.12403
20
-5.19675
11
7.11855
21
-5.20223
0
LINE
8
BLACK
6
CONTINUOUS
10
7.11855
20
-5.20223
11
7.1121
21
-5.20654
0
LINE
8
BLACK
6
CONTINUOUS
10
7.1121
20
-5.20654
11
7.10493
21
-5.20951
0
LINE
8
BLACK
6
CONTINUOUS
10
7.10493
20
-5.20951
11
7.1024
21
-5.21002
0
LINE
8
BLACK
6
CONTINUOUS
10
7.1024
20
-5.21002
11
7.09733
21
-5.21102
0
LINE
8
BLACK
6
CONTINUOUS
10
7.09733
20
-5.21102
11
7.08957
21
-5.21102
0
LINE
8
BLACK
6
CONTINUOUS
10
7.08957
20
-5.21102
11
7.0845
21
-5.21002
0
LINE
8
BLACK
6
CONTINUOUS
10
7.0845
20
-5.21002
11
7.08196
21
-5.20951
0
LINE
8
BLACK
6
CONTINUOUS
10
7.08196
20
-5.20951
11
7.0748
21
-5.20654
0
LINE
8
BLACK
6
CONTINUOUS
10
7.0748
20
-5.20654
11
7.06835
21
-5.20223
0
LINE
8
BLACK
6
CONTINUOUS
10
7.06835
20
-5.20223
11
7.06287
21
-5.19675
0
LINE
8
BLACK
6
CONTINUOUS
10
7.06287
20
-5.19675
11
7.05856
21
-5.1903
0
LINE
8
BLACK
6
CONTINUOUS
10
7.05856
20
-5.1903
11
7.05559
21
-5.18314
0
LINE
8
BLACK
6
CONTINUOUS
10
7.05559
20
-5.18314
11
7.05408
21
-5.17553
0
LINE
8
BLACK
6
CONTINUOUS
10
7.05408
20
-5.17553
11
7.05408
21
-5.16778
0
LINE
8
BLACK
6
CONTINUOUS
10
7.05408
20
-5.16778
11
7.05559
21
-5.16017
0
LINE
8
BLACK
6
CONTINUOUS
10
7.05559
20
-5.16017
11
7.05856
21
-5.153
0
LINE
8
BLACK
6
CONTINUOUS
10
7.05856
20
-5.153
11
7.06287
21
-5.14656
0
LINE
8
BLACK
6
CONTINUOUS
10
7.06287
20
-5.14656
11
7.06835
21
-5.14107
0
LINE
8
BLACK
6
CONTINUOUS
10
7.06835
20
-5.14107
11
7.0748
21
-5.13676
0
LINE
8
BLACK
6
CONTINUOUS
10
7.0748
20
-5.13676
11
7.08196
21
-5.1338
0
LINE
8
BLACK
6
CONTINUOUS
10
7.08196
20
-5.1338
11
7.0845
21
-5.13329
0
LINE
8
BLACK
6
CONTINUOUS
10
7.0845
20
-5.13329
11
7.08957
21
-5.13228
0
LINE
8
BLACK
6
CONTINUOUS
10
7.08957
20
-5.13228
11
7.09733
21
-5.13228
0
LINE
8
BLACK
6
CONTINUOUS
10
7.09733
20
-5.13228
11
7.1024
21
-5.13329
0
LINE
8
BLACK
6
CONTINUOUS
10
7.2024
20
-5.13329
11
7.20493
21
-5.1338
0
LINE
8
BLACK
6
CONTINUOUS
10
7.20493
20
-5.1338
11
7.2121
21
-5.13676
0
LINE
8
BLACK
6
CONTINUOUS
10
7.2121
20
-5.13676
11
7.21855
21
-5.14107
0
LINE
8
BLACK
6
CONTINUOUS
10
7.21855
20
-5.14107
11
7.22403
21
-5.14656
0
LINE
8
BLACK
6
CONTINUOUS
10
7.22403
20
-5.14656
11
7.22834
21
-5.153
0
LINE
8
BLACK
6
CONTINUOUS
10
7.22834
20
-5.153
11
7.23131
21
-5.16017
0
LINE
8
BLACK
6
CONTINUOUS
10
7.23131
20
-5.16017
11
7.23282
21
-5.16778
0
LINE
8
BLACK
6
CONTINUOUS
10
7.23282
20
-5.16778
11
7.23282
21
-5.17553
0
LINE
8
BLACK
6
CONTINUOUS
10
7.23282
20
-5.17553
11
7.23131
21
-5.18314
0
LINE
8
BLACK
6
CONTINUOUS
10
7.23131
20
-5.18314
11
7.22834
21
-5.1903
0
LINE
8
BLACK
6
CONTINUOUS
10
7.22834
20
-5.1903
11
7.22403
21
-5.19675
0
LINE
8
BLACK
6
CONTINUOUS
10
7.22403
20
-5.19675
11
7.21855
21
-5.20223
0
LINE
8
BLACK
6
CONTINUOUS
10
7.21855
20
-5.20223
11
7.2121
21
-5.20654
0
LINE
8
BLACK
6
CONTINUOUS
10
7.2121
20
-5.20654
11
7.20493
21
-5.20951
0
LINE
8
BLACK
6
CONTINUOUS
10
7.20493
20
-5.20951
11
7.2024
21
-5.21002
0
LINE
8
BLACK
6
CONTINUOUS
10
7.2024
20
-5.21002
11
7.19733
21
-5.21102
0
LINE
8
BLACK
6
CONTINUOUS
10
7.19733
20
-5.21102
11
7.18957
21
-5.21102
0
LINE
8
BLACK
6
CONTINUOUS
10
7.18957
20
-5.21102
11
7.1845
21
-5.21002
0
LINE
8
BLACK
6
CONTINUOUS
10
7.1845
20
-5.21002
11
7.18196
21
-5.20951
0
LINE
8
BLACK
6
CONTINUOUS
10
7.18196
20
-5.20951
11
7.1748
21
-5.20654
0
LINE
8
BLACK
6
CONTINUOUS
10
7.1748
20
-5.20654
11
7.16835
21
-5.20223
0
LINE
8
BLACK
6
CONTINUOUS
10
7.16835
20
-5.20223
11
7.16287
21
-5.19675
0
LINE
8
BLACK
6
CONTINUOUS
10
7.16287
20
-5.19675
11
7.15856
21
-5.1903
0
LINE
8
BLACK
6
CONTINUOUS
10
7.15856
20
-5.1903
11
7.15559
21
-5.18314
0
LINE
8
BLACK
6
CONTINUOUS
10
7.15559
20
-5.18314
11
7.15408
21
-5.17553
0
LINE
8
BLACK
6
CONTINUOUS
10
7.15408
20
-5.17553
11
7.15408
21
-5.16778
0
LINE
8
BLACK
6
CONTINUOUS
10
7.15408
20
-5.16778
11
7.15559
21
-5.16017
0
LINE
8
BLACK
6
CONTINUOUS
10
7.15559
20
-5.16017
11
7.15856
21
-5.153
0
LINE
8
BLACK
6
CONTINUOUS
10
7.15856
20
-5.153
11
7.16287
21
-5.14656
0
LINE
8
BLACK
6
CONTINUOUS
10
7.16287
20
-5.14656
11
7.16835
21
-5.14107
0
LINE
8
BLACK
6
CONTINUOUS
10
7.16835
20
-5.14107
11
7.1748
21
-5.13676
0
LINE
8
BLACK
6
CONTINUOUS
10
7.1748
20
-5.13676
11
7.18196
21
-5.1338
0
LINE
8
BLACK
6
CONTINUOUS
10
7.18196
20
-5.1338
11
7.1845
21
-5.13329
0
LINE
8
BLACK
6
CONTINUOUS
10
7.1845
20
-5.13329
11
7.18957
21
-5.13228
0
LINE
8
BLACK
6
CONTINUOUS
10
7.18957
20
-5.13228
11
7.19733
21
-5.13228
0
LINE
8
BLACK
6
CONTINUOUS
10
7.19733
20
-5.13228
11
7.2024
21
-5.13329
0
LINE
8
BLACK
6
CONTINUOUS
10
5.50107
20
-5.05022
11
5.50361
21
-5.05073
0
LINE
8
BLACK
6
CONTINUOUS
10
5.50361
20
-5.05073
11
5.51077
21
-5.05369
0
LINE
8
BLACK
6
CONTINUOUS
10
5.51077
20
-5.05369
11
5.51722
21
-5.058
0
LINE
8
BLACK
6
CONTINUOUS
10
5.51722
20
-5.058
11
5.52271
21
-5.06349
0
LINE
8
BLACK
6
CONTINUOUS
10
5.52271
20
-5.06349
11
5.52702
21
-5.06993
0
LINE
8
BLACK
6
CONTINUOUS
10
5.52702
20
-5.06993
11
5.52998
21
-5.0771
0
LINE
8
BLACK
6
CONTINUOUS
10
5.52998
20
-5.0771
11
5.5315
21
-5.08471
0
LINE
8
BLACK
6
CONTINUOUS
10
5.5315
20
-5.08471
11
5.5315
21
-5.09246
0
LINE
8
BLACK
6
CONTINUOUS
10
5.5315
20
-5.09246
11
5.52998
21
-5.10007
0
LINE
8
BLACK
6
CONTINUOUS
10
5.52998
20
-5.10007
11
5.52702
21
-5.10723
0
LINE
8
BLACK
6
CONTINUOUS
10
5.52702
20
-5.10723
11
5.52271
21
-5.11368
0
LINE
8
BLACK
6
CONTINUOUS
10
5.52271
20
-5.11368
11
5.51722
21
-5.11916
0
LINE
8
BLACK
6
CONTINUOUS
10
5.51722
20
-5.11916
11
5.51077
21
-5.12347
0
LINE
8
BLACK
6
CONTINUOUS
10
5.51077
20
-5.12347
11
5.50361
21
-5.12644
0
LINE
8
BLACK
6
CONTINUOUS
10
5.50361
20
-5.12644
11
5.50107
21
-5.12694
0
LINE
8
BLACK
6
CONTINUOUS
10
5.50107
20
-5.12694
11
5.496
21
-5.12795
0
LINE
8
BLACK
6
CONTINUOUS
10
5.496
20
-5.12795
11
5.48825
21
-5.12795
0
LINE
8
BLACK
6
CONTINUOUS
10
5.48825
20
-5.12795
11
5.48318
21
-5.12694
0
LINE
8
BLACK
6
CONTINUOUS
10
5.48318
20
-5.12694
11
5.48064
21
-5.12644
0
LINE
8
BLACK
6
CONTINUOUS
10
5.48064
20
-5.12644
11
5.47348
21
-5.12347
0
LINE
8
BLACK
6
CONTINUOUS
10
5.47348
20
-5.12347
11
5.46703
21
-5.11916
0
LINE
8
BLACK
6
CONTINUOUS
10
5.46703
20
-5.11916
11
5.46155
21
-5.11368
0
LINE
8
BLACK
6
CONTINUOUS
10
5.46155
20
-5.11368
11
5.45724
21
-5.10723
0
LINE
8
BLACK
6
CONTINUOUS
10
5.45724
20
-5.10723
11
5.45427
21
-5.10007
0
LINE
8
BLACK
6
CONTINUOUS
10
5.45427
20
-5.10007
11
5.45276
21
-5.09246
0
LINE
8
BLACK
6
CONTINUOUS
10
5.45276
20
-5.09246
11
5.45276
21
-5.08471
0
LINE
8
BLACK
6
CONTINUOUS
10
5.45276
20
-5.08471
11
5.45427
21
-5.0771
0
LINE
8
BLACK
6
CONTINUOUS
10
5.45427
20
-5.0771
11
5.45724
21
-5.06993
0
LINE
8
BLACK
6
CONTINUOUS
10
5.45724
20
-5.06993
11
5.46155
21
-5.06349
0
LINE
8
BLACK
6
CONTINUOUS
10
5.46155
20
-5.06349
11
5.46703
21
-5.058
0
LINE
8
BLACK
6
CONTINUOUS
10
5.46703
20
-5.058
11
5.47348
21
-5.05369
0
LINE
8
BLACK
6
CONTINUOUS
10
5.47348
20
-5.05369
11
5.48064
21
-5.05073
0
LINE
8
BLACK
6
CONTINUOUS
10
5.48064
20
-5.05073
11
5.48318
21
-5.05022
0
LINE
8
BLACK
6
CONTINUOUS
10
5.48318
20
-5.05022
11
5.48825
21
-5.04921
0
LINE
8
BLACK
6
CONTINUOUS
10
5.48825
20
-5.04921
11
5.496
21
-5.04921
0
LINE
8
BLACK
6
CONTINUOUS
10
5.496
20
-5.04921
11
5.50107
21
-5.05022
0
LINE
8
BLACK
6
CONTINUOUS
10
6.10679
20
-4.90081
11
6.12184
21
-4.90705
0
LINE
8
BLACK
6
CONTINUOUS
10
6.12184
20
-4.90705
11
6.12184
21
-4.90705
0
LINE
8
BLACK
6
CONTINUOUS
10
6.12184
20
-4.90705
11
6.13538
21
-4.9161
0
LINE
8
BLACK
6
CONTINUOUS
10
6.13538
20
-4.9161
11
6.1469
21
-4.92761
0
LINE
8
BLACK
6
CONTINUOUS
10
6.1469
20
-4.92761
11
6.15594
21
-4.94115
0
LINE
8
BLACK
6
CONTINUOUS
10
6.15594
20
-4.94115
11
6.15594
21
-4.94115
0
LINE
8
BLACK
6
CONTINUOUS
10
6.15594
20
-4.94115
11
6.16218
21
-4.9562
0
LINE
8
BLACK
6
CONTINUOUS
10
6.16218
20
-4.9562
11
6.16535
21
-4.97217
0
LINE
8
BLACK
6
CONTINUOUS
10
6.16535
20
-4.97217
11
6.16535
21
-4.98846
0
LINE
8
BLACK
6
CONTINUOUS
10
6.16535
20
-4.98846
11
6.16218
21
-5.00443
0
LINE
8
BLACK
6
CONTINUOUS
10
6.16218
20
-5.00443
11
6.15594
21
-5.01948
0
LINE
8
BLACK
6
CONTINUOUS
10
6.15594
20
-5.01948
11
6.15594
21
-5.01948
0
LINE
8
BLACK
6
CONTINUOUS
10
6.15594
20
-5.01948
11
6.1469
21
-5.03302
0
LINE
8
BLACK
6
CONTINUOUS
10
6.1469
20
-5.03302
11
6.13538
21
-5.04453
0
LINE
8
BLACK
6
CONTINUOUS
10
6.13538
20
-5.04453
11
6.12184
21
-5.05358
0
LINE
8
BLACK
6
CONTINUOUS
10
6.12184
20
-5.05358
11
6.12184
21
-5.05358
0
LINE
8
BLACK
6
CONTINUOUS
10
6.12184
20
-5.05358
11
6.12184
21
-5.05358
0
LINE
8
BLACK
6
CONTINUOUS
10
6.12184
20
-5.05358
11
6.10679
21
-5.05981
0
LINE
8
BLACK
6
CONTINUOUS
10
6.10679
20
-5.05981
11
6.09082
21
-5.06299
0
LINE
8
BLACK
6
CONTINUOUS
10
6.09082
20
-5.06299
11
6.07453
21
-5.06299
0
LINE
8
BLACK
6
CONTINUOUS
10
6.07453
20
-5.06299
11
6.05856
21
-5.05981
0
LINE
8
BLACK
6
CONTINUOUS
10
6.05856
20
-5.05981
11
6.04351
21
-5.05358
0
LINE
8
BLACK
6
CONTINUOUS
10
6.04351
20
-5.05358
11
6.04351
21
-5.05358
0
LINE
8
BLACK
6
CONTINUOUS
10
6.04351
20
-5.05358
11
6.04351
21
-5.05358
0
LINE
8
BLACK
6
CONTINUOUS
10
6.04351
20
-5.05358
11
6.02997
21
-5.04453
0
LINE
8
BLACK
6
CONTINUOUS
10
6.02997
20
-5.04453
11
6.01846
21
-5.03302
0
LINE
8
BLACK
6
CONTINUOUS
10
6.01846
20
-5.03302
11
6.00941
21
-5.01948
0
LINE
8
BLACK
6
CONTINUOUS
10
6.00941
20
-5.01948
11
6.00941
21
-5.01948
0
LINE
8
BLACK
6
CONTINUOUS
10
6.00941
20
-5.01948
11
6.00318
21
-5.00443
0
LINE
8
BLACK
6
CONTINUOUS
10
6.00318
20
-5.00443
11
6
21
-4.98846
0
LINE
8
BLACK
6
CONTINUOUS
10
6
20
-4.98846
11
6
21
-4.97217
0
LINE
8
BLACK
6
CONTINUOUS
10
6
20
-4.97217
11
6.00318
21
-4.9562
0
LINE
8
BLACK
6
CONTINUOUS
10
6.00318
20
-4.9562
11
6.00941
21
-4.94115
0
LINE
8
BLACK
6
CONTINUOUS
10
6.00941
20
-4.94115
11
6.00941
21
-4.94115
0
LINE
8
BLACK
6
CONTINUOUS
10
6.00941
20
-4.94115
11
6.01846
21
-4.92761
0
LINE
8
BLACK
6
CONTINUOUS
10
6.01846
20
-4.92761
11
6.02997
21
-4.9161
0
LINE
8
BLACK
6
CONTINUOUS
10
6.02997
20
-4.9161
11
6.04351
21
-4.90705
0
LINE
8
BLACK
6
CONTINUOUS
10
6.04351
20
-4.90705
11
6.04351
21
-4.90705
0
LINE
8
BLACK
6
CONTINUOUS
10
6.04351
20
-4.90705
11
6.05856
21
-4.90081
0
LINE
8
BLACK
6
CONTINUOUS
10
6.05856
20
-4.90081
11
6.07453
21
-4.89764
0
LINE
8
BLACK
6
CONTINUOUS
10
6.07453
20
-4.89764
11
6.09082
21
-4.89764
0
LINE
8
BLACK
6
CONTINUOUS
10
6.09082
20
-4.89764
11
6.10679
21
-4.90081
0
LINE
8
BLACK
6
CONTINUOUS
10
5.50107
20
-4.9518
11
5.50361
21
-4.9523
0
LINE
8
BLACK
6
CONTINUOUS
10
5.50361
20
-4.9523
11
5.51077
21
-4.95527
0
LINE
8
BLACK
6
CONTINUOUS
10
5.51077
20
-4.95527
11
5.51722
21
-4.95958
0
LINE
8
BLACK
6
CONTINUOUS
10
5.51722
20
-4.95958
11
5.52271
21
-4.96506
0
LINE
8
BLACK
6
CONTINUOUS
10
5.52271
20
-4.96506
11
5.52702
21
-4.97151
0
LINE
8
BLACK
6
CONTINUOUS
10
5.52702
20
-4.97151
11
5.52998
21
-4.97867
0
LINE
8
BLACK
6
CONTINUOUS
10
5.52998
20
-4.97867
11
5.5315
21
-4.98628
0
LINE
8
BLACK
6
CONTINUOUS
10
5.5315
20
-4.98628
11
5.5315
21
-4.99404
0
LINE
8
BLACK
6
CONTINUOUS
10
5.5315
20
-4.99404
11
5.52998
21
-5.00164
0
LINE
8
BLACK
6
CONTINUOUS
10
5.52998
20
-5.00164
11
5.52702
21
-5.00881
0
LINE
8
BLACK
6
CONTINUOUS
10
5.52702
20
-5.00881
11
5.52271
21
-5.01525
0
LINE
8
BLACK
6
CONTINUOUS
10
5.52271
20
-5.01525
11
5.51722
21
-5.02074
0
LINE
8
BLACK
6
CONTINUOUS
10
5.51722
20
-5.02074
11
5.51077
21
-5.02505
0
LINE
8
BLACK
6
CONTINUOUS
10
5.51077
20
-5.02505
11
5.50361
21
-5.02801
0
LINE
8
BLACK
6
CONTINUOUS
10
5.50361
20
-5.02801
11
5.50107
21
-5.02852
0
LINE
8
BLACK
6
CONTINUOUS
10
5.50107
20
-5.02852
11
5.496
21
-5.02953
0
LINE
8
BLACK
6
CONTINUOUS
10
5.496
20
-5.02953
11
5.48825
21
-5.02953
0
LINE
8
BLACK
6
CONTINUOUS
10
5.48825
20
-5.02953
11
5.48318
21
-5.02852
0
LINE
8
BLACK
6
CONTINUOUS
10
5.48318
20
-5.02852
11
5.48064
21
-5.02801
0
LINE
8
BLACK
6
CONTINUOUS
10
5.48064
20
-5.02801
11
5.47348
21
-5.02505
0
LINE
8
BLACK
6
CONTINUOUS
10
5.47348
20
-5.02505
11
5.46703
21
-5.02074
0
LINE
8
BLACK
6
CONTINUOUS
10
5.46703
20
-5.02074
11
5.46155
21
-5.01525
0
LINE
8
BLACK
6
CONTINUOUS
10
5.46155
20
-5.01525
11
5.45724
21
-5.00881
0
LINE
8
BLACK
6
CONTINUOUS
10
5.45724
20
-5.00881
11
5.45427
21
-5.00164
0
LINE
8
BLACK
6
CONTINUOUS
10
5.45427
20
-5.00164
11
5.45276
21
-4.99404
0
LINE
8
BLACK
6
CONTINUOUS
10
5.45276
20
-4.99404
11
5.45276
21
-4.98628
0
LINE
8
BLACK
6
CONTINUOUS
10
5.45276
20
-4.98628
11
5.45427
21
-4.97867
0
LINE
8
BLACK
6
CONTINUOUS
10
5.45427
20
-4.97867
11
5.45724
21
-4.97151
0
LINE
8
BLACK
6
CONTINUOUS
10
5.45724
20
-4.97151
11
5.46155
21
-4.96506
0
LINE
8
BLACK
6
CONTINUOUS
10
5.46155
20
-4.96506
11
5.46703
21
-4.95958
0
LINE
8
BLACK
6
CONTINUOUS
10
5.46703
20
-4.95958
11
5.47348
21
-4.95527
0
LINE
8
BLACK
6
CONTINUOUS
10
5.47348
20
-4.95527
11
5.48064
21
-4.9523
0
LINE
8
BLACK
6
CONTINUOUS
10
5.48064
20
-4.9523
11
5.48318
21
-4.9518
0
LINE
8
BLACK
6
CONTINUOUS
10
5.48318
20
-4.9518
11
5.48825
21
-4.95079
0
LINE
8
BLACK
6
CONTINUOUS
10
5.48825
20
-4.95079
11
5.496
21
-4.95079
0
LINE
8
BLACK
6
CONTINUOUS
10
5.496
20
-4.95079
11
5.50107
21
-4.9518
0
LINE
8
BLACK
6
CONTINUOUS
10
5.50107
20
-4.85337
11
5.50361
21
-4.85388
0
LINE
8
BLACK
6
CONTINUOUS
10
5.50361
20
-4.85388
11
5.51077
21
-4.85684
0
LINE
8
BLACK
6
CONTINUOUS
10
5.51077
20
-4.85684
11
5.51722
21
-4.86115
0
LINE
8
BLACK
6
CONTINUOUS
10
5.51722
20
-4.86115
11
5.52271
21
-4.86664
0
LINE
8
BLACK
6
CONTINUOUS
10
5.52271
20
-4.86664
11
5.52702
21
-4.87308
0
LINE
8
BLACK
6
CONTINUOUS
10
5.52702
20
-4.87308
11
5.52998
21
-4.88025
0
LINE
8
BLACK
6
CONTINUOUS
10
5.52998
20
-4.88025
11
5.52998
21
-4.88025
0
LINE
8
BLACK
6
CONTINUOUS
10
5.52998
20
-4.88025
11
5.5315
21
-4.88785
0
LINE
8
BLACK
6
CONTINUOUS
10
5.5315
20
-4.88785
11
5.5315
21
-4.89561
0
LINE
8
BLACK
6
CONTINUOUS
10
5.5315
20
-4.89561
11
5.53049
21
-4.90068
0
LINE
8
BLACK
6
CONTINUOUS
10
5.53049
20
-4.90068
11
5.52998
21
-4.90322
0
LINE
8
BLACK
6
CONTINUOUS
10
5.52998
20
-4.90322
11
5.52702
21
-4.91038
0
LINE
8
BLACK
6
CONTINUOUS
10
5.52702
20
-4.91038
11
5.52271
21
-4.91683
0
LINE
8
BLACK
6
CONTINUOUS
10
5.52271
20
-4.91683
11
5.51722
21
-4.92231
0
LINE
8
BLACK
6
CONTINUOUS
10
5.51722
20
-4.92231
11
5.51077
21
-4.92662
0
LINE
8
BLACK
6
CONTINUOUS
10
5.51077
20
-4.92662
11
5.50361
21
-4.92959
0
LINE
8
BLACK
6
CONTINUOUS
10
5.50361
20
-4.92959
11
5.50107
21
-4.93009
0
LINE
8
BLACK
6
CONTINUOUS
10
5.50107
20
-4.93009
11
5.496
21
-4.9311
0
LINE
8
BLACK
6
CONTINUOUS
10
5.496
20
-4.9311
11
5.48825
21
-4.9311
0
LINE
8
BLACK
6
CONTINUOUS
10
5.48825
20
-4.9311
11
5.48318
21
-4.93009
0
LINE
8
BLACK
6
CONTINUOUS
10
5.48318
20
-4.93009
11
5.48064
21
-4.92959
0
LINE
8
BLACK
6
CONTINUOUS
10
5.48064
20
-4.92959
11
5.47348
21
-4.92662
0
LINE
8
BLACK
6
CONTINUOUS
10
5.47348
20
-4.92662
11
5.46703
21
-4.92231
0
LINE
8
BLACK
6
CONTINUOUS
10
5.46703
20
-4.92231
11
5.46155
21
-4.91683
0
LINE
8
BLACK
6
CONTINUOUS
10
5.46155
20
-4.91683
11
5.45724
21
-4.91038
0
LINE
8
BLACK
6
CONTINUOUS
10
5.45724
20
-4.91038
11
5.45427
21
-4.90322
0
LINE
8
BLACK
6
CONTINUOUS
10
5.45427
20
-4.90322
11
5.45376
21
-4.90068
0
LINE
8
BLACK
6
CONTINUOUS
10
5.45376
20
-4.90068
11
5.45276
21
-4.89561
0
LINE
8
BLACK
6
CONTINUOUS
10
5.45276
20
-4.89561
11
5.45276
21
-4.88785
0
LINE
8
BLACK
6
CONTINUOUS
10
5.45276
20
-4.88785
11
5.45427
21
-4.88025
0
LINE
8
BLACK
6
CONTINUOUS
10
5.45427
20
-4.88025
11
5.45427
21
-4.88025
0
LINE
8
BLACK
6
CONTINUOUS
10
5.45427
20
-4.88025
11
5.45724
21
-4.87308
0
LINE
8
BLACK
6
CONTINUOUS
10
5.45724
20
-4.87308
11
5.46155
21
-4.86664
0
LINE
8
BLACK
6
CONTINUOUS
10
5.46155
20
-4.86664
11
5.46703
21
-4.86115
0
LINE
8
BLACK
6
CONTINUOUS
10
5.46703
20
-4.86115
11
5.47348
21
-4.85684
0
LINE
8
BLACK
6
CONTINUOUS
10
5.47348
20
-4.85684
11
5.48064
21
-4.85388
0
LINE
8
BLACK
6
CONTINUOUS
10
5.48064
20
-4.85388
11
5.48318
21
-4.85337
0
LINE
8
BLACK
6
CONTINUOUS
10
5.48318
20
-4.85337
11
5.48825
21
-4.85236
0
LINE
8
BLACK
6
CONTINUOUS
10
5.48825
20
-4.85236
11
5.496
21
-4.85236
0
LINE
8
BLACK
6
CONTINUOUS
10
5.496
20
-4.85236
11
5.50107
21
-4.85337
0
LINE
8
BLACK
6
CONTINUOUS
10
7.77953
20
-4.90945
11
7.69291
21
-4.90945
0
LINE
8
BLACK
6
CONTINUOUS
10
7.69291
20
-4.90945
11
7.69291
21
-4.85433
0
LINE
8
BLACK
6
CONTINUOUS
10
7.69291
20
-4.85433
11
7.77953
21
-4.85433
0
LINE
8
BLACK
6
CONTINUOUS
10
7.77953
20
-4.85433
11
7.77953
21
-4.90945
0
LINE
8
BLACK
6
CONTINUOUS
10
5.21144
20
-4.69238
11
5.21867
21
-4.69382
0
LINE
8
BLACK
6
CONTINUOUS
10
5.21867
20
-4.69382
11
5.22431
21
-4.69616
0
LINE
8
BLACK
6
CONTINUOUS
10
5.22431
20
-4.69616
11
5.23228
21
-4.69946
0
LINE
8
BLACK
6
CONTINUOUS
10
5.23228
20
-4.69946
11
5.24453
21
-4.70764
0
LINE
8
BLACK
6
CONTINUOUS
10
5.24453
20
-4.70764
11
5.25495
21
-4.71806
0
LINE
8
BLACK
6
CONTINUOUS
10
5.25495
20
-4.71806
11
5.26314
21
-4.73032
0
LINE
8
BLACK
6
CONTINUOUS
10
5.26314
20
-4.73032
11
5.26878
21
-4.74393
0
LINE
8
BLACK
6
CONTINUOUS
10
5.26878
20
-4.74393
11
5.27165
21
-4.75838
0
LINE
8
BLACK
6
CONTINUOUS
10
5.27165
20
-4.75838
11
5.27165
21
-4.77312
0
LINE
8
BLACK
6
CONTINUOUS
10
5.27165
20
-4.77312
11
5.26878
21
-4.78757
0
LINE
8
BLACK
6
CONTINUOUS
10
5.26878
20
-4.78757
11
5.26314
21
-4.80118
0
LINE
8
BLACK
6
CONTINUOUS
10
5.26314
20
-4.80118
11
5.25495
21
-4.81343
0
LINE
8
BLACK
6
CONTINUOUS
10
5.25495
20
-4.81343
11
5.24453
21
-4.82385
0
LINE
8
BLACK
6
CONTINUOUS
10
5.24453
20
-4.82385
11
5.23228
21
-4.83204
0
LINE
8
BLACK
6
CONTINUOUS
10
5.23228
20
-4.83204
11
5.22431
21
-4.83534
0
LINE
8
BLACK
6
CONTINUOUS
10
5.22431
20
-4.83534
11
5.21867
21
-4.83768
0
LINE
8
BLACK
6
CONTINUOUS
10
5.21867
20
-4.83768
11
5.21144
21
-4.83911
0
LINE
8
BLACK
6
CONTINUOUS
10
5.21144
20
-4.83911
11
5.20422
21
-4.84055
0
LINE
8
BLACK
6
CONTINUOUS
10
5.20422
20
-4.84055
11
5.18948
21
-4.84055
0
LINE
8
BLACK
6
CONTINUOUS
10
5.18948
20
-4.84055
11
5.18226
21
-4.83911
0
LINE
8
BLACK
6
CONTINUOUS
10
5.18226
20
-4.83911
11
5.17503
21
-4.83768
0
LINE
8
BLACK
6
CONTINUOUS
10
5.17503
20
-4.83768
11
5.16939
21
-4.83534
0
LINE
8
BLACK
6
CONTINUOUS
10
5.16939
20
-4.83534
11
5.16142
21
-4.83204
0
LINE
8
BLACK
6
CONTINUOUS
10
5.16142
20
-4.83204
11
5.14917
21
-4.82385
0
LINE
8
BLACK
6
CONTINUOUS
10
5.14917
20
-4.82385
11
5.13875
21
-4.81343
0
LINE
8
BLACK
6
CONTINUOUS
10
5.13875
20
-4.81343
11
5.13056
21
-4.80118
0
LINE
8
BLACK
6
CONTINUOUS
10
5.13056
20
-4.80118
11
5.12492
21
-4.78757
0
LINE
8
BLACK
6
CONTINUOUS
10
5.12492
20
-4.78757
11
5.12205
21
-4.77312
0
LINE
8
BLACK
6
CONTINUOUS
10
5.12205
20
-4.77312
11
5.12205
21
-4.75838
0
LINE
8
BLACK
6
CONTINUOUS
10
5.12205
20
-4.75838
11
5.12492
21
-4.74393
0
LINE
8
BLACK
6
CONTINUOUS
10
5.12492
20
-4.74393
11
5.13056
21
-4.73032
0
LINE
8
BLACK
6
CONTINUOUS
10
5.13056
20
-4.73032
11
5.13875
21
-4.71806
0
LINE
8
BLACK
6
CONTINUOUS
10
5.13875
20
-4.71806
11
5.14917
21
-4.70764
0
LINE
8
BLACK
6
CONTINUOUS
10
5.14917
20
-4.70764
11
5.16142
21
-4.69946
0
LINE
8
BLACK
6
CONTINUOUS
10
5.16142
20
-4.69946
11
5.16939
21
-4.69616
0
LINE
8
BLACK
6
CONTINUOUS
10
5.16939
20
-4.69616
11
5.17503
21
-4.69382
0
LINE
8
BLACK
6
CONTINUOUS
10
5.17503
20
-4.69382
11
5.18226
21
-4.69238
0
LINE
8
BLACK
6
CONTINUOUS
10
5.18226
20
-4.69238
11
5.18948
21
-4.69094
0
LINE
8
BLACK
6
CONTINUOUS
10
5.18948
20
-4.69094
11
5.20422
21
-4.69094
0
LINE
8
BLACK
6
CONTINUOUS
10
5.20422
20
-4.69094
11
5.21144
21
-4.69238
0
LINE
8
BLACK
6
CONTINUOUS
10
7.77953
20
-4.82283
11
7.69291
21
-4.82283
0
LINE
8
BLACK
6
CONTINUOUS
10
7.69291
20
-4.82283
11
7.69291
21
-4.76772
0
LINE
8
BLACK
6
CONTINUOUS
10
7.69291
20
-4.76772
11
7.77953
21
-4.76772
0
LINE
8
BLACK
6
CONTINUOUS
10
7.77953
20
-4.76772
11
7.77953
21
-4.82283
0
LINE
8
BLACK
6
CONTINUOUS
10
7.77953
20
-4.73228
11
7.69291
21
-4.73228
0
LINE
8
BLACK
6
CONTINUOUS
10
7.69291
20
-4.73228
11
7.69291
21
-4.67717
0
LINE
8
BLACK
6
CONTINUOUS
10
7.69291
20
-4.67717
11
7.77953
21
-4.67717
0
LINE
8
BLACK
6
CONTINUOUS
10
7.77953
20
-4.67717
11
7.77953
21
-4.73228
0
LINE
8
BLACK
6
CONTINUOUS
10
7.77953
20
-4.64961
11
7.69291
21
-4.64961
0
LINE
8
BLACK
6
CONTINUOUS
10
7.69291
20
-4.64961
11
7.69291
21
-4.59449
0
LINE
8
BLACK
6
CONTINUOUS
10
7.69291
20
-4.59449
11
7.77953
21
-4.59449
0
LINE
8
BLACK
6
CONTINUOUS
10
7.77953
20
-4.59449
11
7.77953
21
-4.64961
0
LINE
8
BLACK
6
CONTINUOUS
10
5.2058
20
-4.53841
11
5.20833
21
-4.53891
0
LINE
8
BLACK
6
CONTINUOUS
10
5.20833
20
-4.53891
11
5.2155
21
-4.54188
0
LINE
8
BLACK
6
CONTINUOUS
10
5.2155
20
-4.54188
11
5.22195
21
-4.54619
0
LINE
8
BLACK
6
CONTINUOUS
10
5.22195
20
-4.54619
11
5.22743
21
-4.55167
0
LINE
8
BLACK
6
CONTINUOUS
10
5.22743
20
-4.55167
11
5.23174
21
-4.55812
0
LINE
8
BLACK
6
CONTINUOUS
10
5.23174
20
-4.55812
11
5.23471
21
-4.56529
0
LINE
8
BLACK
6
CONTINUOUS
10
5.23471
20
-4.56529
11
5.23622
21
-4.57289
0
LINE
8
BLACK
6
CONTINUOUS
10
5.23622
20
-4.57289
11
5.23622
21
-4.58065
0
LINE
8
BLACK
6
CONTINUOUS
10
5.23622
20
-4.58065
11
5.23471
21
-4.58826
0
LINE
8
BLACK
6
CONTINUOUS
10
5.23471
20
-4.58826
11
5.23174
21
-4.59542
0
LINE
8
BLACK
6
CONTINUOUS
10
5.23174
20
-4.59542
11
5.22743
21
-4.60187
0
LINE
8
BLACK
6
CONTINUOUS
10
5.22743
20
-4.60187
11
5.22195
21
-4.60735
0
LINE
8
BLACK
6
CONTINUOUS
10
5.22195
20
-4.60735
11
5.2155
21
-4.61166
0
LINE
8
BLACK
6
CONTINUOUS
10
5.2155
20
-4.61166
11
5.20833
21
-4.61463
0
LINE
8
BLACK
6
CONTINUOUS
10
5.20833
20
-4.61463
11
5.2058
21
-4.61513
0
LINE
8
BLACK
6
CONTINUOUS
10
5.2058
20
-4.61513
11
5.20073
21
-4.61614
0
LINE
8
BLACK
6
CONTINUOUS
10
5.20073
20
-4.61614
11
5.19297
21
-4.61614
0
LINE
8
BLACK
6
CONTINUOUS
10
5.19297
20
-4.61614
11
5.1879
21
-4.61513
0
LINE
8
BLACK
6
CONTINUOUS
10
5.1879
20
-4.61513
11
5.18537
21
-4.61463
0
LINE
8
BLACK
6
CONTINUOUS
10
5.18537
20
-4.61463
11
5.1782
21
-4.61166
0
LINE
8
BLACK
6
CONTINUOUS
10
5.1782
20
-4.61166
11
5.17175
21
-4.60735
0
LINE
8
BLACK
6
CONTINUOUS
10
5.17175
20
-4.60735
11
5.16627
21
-4.60187
0
LINE
8
BLACK
6
CONTINUOUS
10
5.16627
20
-4.60187
11
5.16196
21
-4.59542
0
LINE
8
BLACK
6
CONTINUOUS
10
5.16196
20
-4.59542
11
5.15899
21
-4.58826
0
LINE
8
BLACK
6
CONTINUOUS
10
5.15899
20
-4.58826
11
5.15748
21
-4.58065
0
LINE
8
BLACK
6
CONTINUOUS
10
5.15748
20
-4.58065
11
5.15748
21
-4.57289
0
LINE
8
BLACK
6
CONTINUOUS
10
5.15748
20
-4.57289
11
5.15899
21
-4.56529
0
LINE
8
BLACK
6
CONTINUOUS
10
5.15899
20
-4.56529
11
5.16196
21
-4.55812
0
LINE
8
BLACK
6
CONTINUOUS
10
5.16196
20
-4.55812
11
5.16627
21
-4.55167
0
LINE
8
BLACK
6
CONTINUOUS
10
5.16627
20
-4.55167
11
5.17175
21
-4.54619
0
LINE
8
BLACK
6
CONTINUOUS
10
5.17175
20
-4.54619
11
5.1782
21
-4.54188
0
LINE
8
BLACK
6
CONTINUOUS
10
5.1782
20
-4.54188
11
5.18537
21
-4.53891
0
LINE
8
BLACK
6
CONTINUOUS
10
5.18537
20
-4.53891
11
5.1879
21
-4.53841
0
LINE
8
BLACK
6
CONTINUOUS
10
5.1879
20
-4.53841
11
5.19297
21
-4.5374
0
LINE
8
BLACK
6
CONTINUOUS
10
5.19297
20
-4.5374
11
5.20073
21
-4.5374
0
LINE
8
BLACK
6
CONTINUOUS
10
5.20073
20
-4.5374
11
5.2058
21
-4.53841
0
LINE
8
BLACK
6
CONTINUOUS
10
5.95383
20
-4.53841
11
5.95637
21
-4.53891
0
LINE
8
BLACK
6
CONTINUOUS
10
5.95637
20
-4.53891
11
5.96353
21
-4.54188
0
LINE
8
BLACK
6
CONTINUOUS
10
5.96353
20
-4.54188
11
5.96998
21
-4.54619
0
LINE
8
BLACK
6
CONTINUOUS
10
5.96998
20
-4.54619
11
5.97546
21
-4.55167
0
LINE
8
BLACK
6
CONTINUOUS
10
5.97546
20
-4.55167
11
5.97977
21
-4.55812
0
LINE
8
BLACK
6
CONTINUOUS
10
5.97977
20
-4.55812
11
5.98274
21
-4.56529
0
LINE
8
BLACK
6
CONTINUOUS
10
5.98274
20
-4.56529
11
5.98425
21
-4.57289
0
LINE
8
BLACK
6
CONTINUOUS
10
5.98425
20
-4.57289
11
5.98425
21
-4.58065
0
LINE
8
BLACK
6
CONTINUOUS
10
5.98425
20
-4.58065
11
5.98274
21
-4.58826
0
LINE
8
BLACK
6
CONTINUOUS
10
5.98274
20
-4.58826
11
5.97977
21
-4.59542
0
LINE
8
BLACK
6
CONTINUOUS
10
5.97977
20
-4.59542
11
5.97546
21
-4.60187
0
LINE
8
BLACK
6
CONTINUOUS
10
5.97546
20
-4.60187
11
5.96998
21
-4.60735
0
LINE
8
BLACK
6
CONTINUOUS
10
5.96998
20
-4.60735
11
5.96353
21
-4.61166
0
LINE
8
BLACK
6
CONTINUOUS
10
5.96353
20
-4.61166
11
5.95637
21
-4.61463
0
LINE
8
BLACK
6
CONTINUOUS
10
5.95637
20
-4.61463
11
5.95383
21
-4.61513
0
LINE
8
BLACK
6
CONTINUOUS
10
5.95383
20
-4.61513
11
5.94876
21
-4.61614
0
LINE
8
BLACK
6
CONTINUOUS
10
5.94876
20
-4.61614
11
5.941
21
-4.61614
0
LINE
8
BLACK
6
CONTINUOUS
10
5.941
20
-4.61614
11
5.93593
21
-4.61513
0
LINE
8
BLACK
6
CONTINUOUS
10
5.93593
20
-4.61513
11
5.9334
21
-4.61463
0
LINE
8
BLACK
6
CONTINUOUS
10
5.9334
20
-4.61463
11
5.92623
21
-4.61166
0
LINE
8
BLACK
6
CONTINUOUS
10
5.92623
20
-4.61166
11
5.91978
21
-4.60735
0
LINE
8
BLACK
6
CONTINUOUS
10
5.91978
20
-4.60735
11
5.9143
21
-4.60187
0
LINE
8
BLACK
6
CONTINUOUS
10
5.9143
20
-4.60187
11
5.90999
21
-4.59542
0
LINE
8
BLACK
6
CONTINUOUS
10
5.90999
20
-4.59542
11
5.90702
21
-4.58826
0
LINE
8
BLACK
6
CONTINUOUS
10
5.90702
20
-4.58826
11
5.90551
21
-4.58065
0
LINE
8
BLACK
6
CONTINUOUS
10
5.90551
20
-4.58065
11
5.90551
21
-4.57289
0
LINE
8
BLACK
6
CONTINUOUS
10
5.90551
20
-4.57289
11
5.90702
21
-4.56529
0
LINE
8
BLACK
6
CONTINUOUS
10
5.90702
20
-4.56529
11
5.90999
21
-4.55812
0
LINE
8
BLACK
6
CONTINUOUS
10
5.90999
20
-4.55812
11
5.9143
21
-4.55167
0
LINE
8
BLACK
6
CONTINUOUS
10
5.9143
20
-4.55167
11
5.91978
21
-4.54619
0
LINE
8
BLACK
6
CONTINUOUS
10
5.91978
20
-4.54619
11
5.92623
21
-4.54188
0
LINE
8
BLACK
6
CONTINUOUS
10
5.92623
20
-4.54188
11
5.9334
21
-4.53891
0
LINE
8
BLACK
6
CONTINUOUS
10
5.9334
20
-4.53891
11
5.93593
21
-4.53841
0
LINE
8
BLACK
6
CONTINUOUS
10
5.93593
20
-4.53841
11
5.941
21
-4.5374
0
LINE
8
BLACK
6
CONTINUOUS
10
5.941
20
-4.5374
11
5.94876
21
-4.5374
0
LINE
8
BLACK
6
CONTINUOUS
10
5.94876
20
-4.5374
11
5.95383
21
-4.53841
0
LINE
8
BLACK
6
CONTINUOUS
10
7.77953
20
-4.56299
11
7.69291
21
-4.56299
0
LINE
8
BLACK
6
CONTINUOUS
10
7.69291
20
-4.56299
11
7.69291
21
-4.50787
0
LINE
8
BLACK
6
CONTINUOUS
10
7.69291
20
-4.50787
11
7.77953
21
-4.50787
0
LINE
8
BLACK
6
CONTINUOUS
10
7.77953
20
-4.50787
11
7.77953
21
-4.56299
0
LINE
8
BLACK
6
CONTINUOUS
10
5.71133
20
-4.45102
11
5.71595
21
-4.45147
0
LINE
8
BLACK
6
CONTINUOUS
10
5.71595
20
-4.45147
11
5.72486
21
-4.45417
0
LINE
8
BLACK
6
CONTINUOUS
10
5.72486
20
-4.45417
11
5.72486
21
-4.45417
0
LINE
8
BLACK
6
CONTINUOUS
10
5.72486
20
-4.45417
11
5.73307
21
-4.45856
0
LINE
8
BLACK
6
CONTINUOUS
10
5.73307
20
-4.45856
11
5.74026
21
-4.46446
0
LINE
8
BLACK
6
CONTINUOUS
10
5.74026
20
-4.46446
11
5.74617
21
-4.47166
0
LINE
8
BLACK
6
CONTINUOUS
10
5.74617
20
-4.47166
11
5.75055
21
-4.47986
0
LINE
8
BLACK
6
CONTINUOUS
10
5.75055
20
-4.47986
11
5.75055
21
-4.47986
0
LINE
8
BLACK
6
CONTINUOUS
10
5.75055
20
-4.47986
11
5.75325
21
-4.48877
0
LINE
8
BLACK
6
CONTINUOUS
10
5.75325
20
-4.48877
11
5.75417
21
-4.49803
0
LINE
8
BLACK
6
CONTINUOUS
10
5.75417
20
-4.49803
11
5.75325
21
-4.50729
0
LINE
8
BLACK
6
CONTINUOUS
10
5.75325
20
-4.50729
11
5.75055
21
-4.5162
0
LINE
8
BLACK
6
CONTINUOUS
10
5.75055
20
-4.5162
11
5.75055
21
-4.5162
0
LINE
8
BLACK
6
CONTINUOUS
10
5.75055
20
-4.5162
11
5.74617
21
-4.52441
0
LINE
8
BLACK
6
CONTINUOUS
10
5.74617
20
-4.52441
11
5.74026
21
-4.5316
0
LINE
8
BLACK
6
CONTINUOUS
10
5.74026
20
-4.5316
11
5.73307
21
-4.5375
0
LINE
8
BLACK
6
CONTINUOUS
10
5.73307
20
-4.5375
11
5.72486
21
-4.54189
0
LINE
8
BLACK
6
CONTINUOUS
10
5.72486
20
-4.54189
11
5.72486
21
-4.54189
0
LINE
8
BLACK
6
CONTINUOUS
10
5.72486
20
-4.54189
11
5.71595
21
-4.54459
0
LINE
8
BLACK
6
CONTINUOUS
10
5.71595
20
-4.54459
11
5.71133
21
-4.54505
0
LINE
8
BLACK
6
CONTINUOUS
10
5.71133
20
-4.54505
11
5.70901
21
-4.54528
0
LINE
8
BLACK
6
CONTINUOUS
10
5.70901
20
-4.54528
11
5.68075
21
-4.54528
0
LINE
8
BLACK
6
CONTINUOUS
10
5.68075
20
-4.54528
11
5.67844
21
-4.54505
0
LINE
8
BLACK
6
CONTINUOUS
10
5.67844
20
-4.54505
11
5.67381
21
-4.54459
0
LINE
8
BLACK
6
CONTINUOUS
10
5.67381
20
-4.54459
11
5.6649
21
-4.54189
0
LINE
8
BLACK
6
CONTINUOUS
10
5.6649
20
-4.54189
11
5.6649
21
-4.54189
0
LINE
8
BLACK
6
CONTINUOUS
10
5.6649
20
-4.54189
11
5.6567
21
-4.5375
0
LINE
8
BLACK
6
CONTINUOUS
10
5.6567
20
-4.5375
11
5.6495
21
-4.5316
0
LINE
8
BLACK
6
CONTINUOUS
10
5.6495
20
-4.5316
11
5.6436
21
-4.52441
0
LINE
8
BLACK
6
CONTINUOUS
10
5.6436
20
-4.52441
11
5.63921
21
-4.5162
0
LINE
8
BLACK
6
CONTINUOUS
10
5.63921
20
-4.5162
11
5.63921
21
-4.5162
0
LINE
8
BLACK
6
CONTINUOUS
10
5.63921
20
-4.5162
11
5.63651
21
-4.50729
0
LINE
8
BLACK
6
CONTINUOUS
10
5.63651
20
-4.50729
11
5.6356
21
-4.49803
0
LINE
8
BLACK
6
CONTINUOUS
10
5.6356
20
-4.49803
11
5.63651
21
-4.48877
0
LINE
8
BLACK
6
CONTINUOUS
10
5.63651
20
-4.48877
11
5.63921
21
-4.47986
0
LINE
8
BLACK
6
CONTINUOUS
10
5.63921
20
-4.47986
11
5.63921
21
-4.47986
0
LINE
8
BLACK
6
CONTINUOUS
10
5.63921
20
-4.47986
11
5.6436
21
-4.47166
0
LINE
8
BLACK
6
CONTINUOUS
10
5.6436
20
-4.47166
11
5.6495
21
-4.46446
0
LINE
8
BLACK
6
CONTINUOUS
10
5.6495
20
-4.46446
11
5.6567
21
-4.45856
0
LINE
8
BLACK
6
CONTINUOUS
10
5.6567
20
-4.45856
11
5.6649
21
-4.45417
0
LINE
8
BLACK
6
CONTINUOUS
10
5.6649
20
-4.45417
11
5.6649
21
-4.45417
0
LINE
8
BLACK
6
CONTINUOUS
10
5.6649
20
-4.45417
11
5.67381
21
-4.45147
0
LINE
8
BLACK
6
CONTINUOUS
10
5.67381
20
-4.45147
11
5.67844
21
-4.45102
0
LINE
8
BLACK
6
CONTINUOUS
10
5.67844
20
-4.45102
11
5.68075
21
-4.45079
0
LINE
8
BLACK
6
CONTINUOUS
10
5.68075
20
-4.45079
11
5.70901
21
-4.45079
0
LINE
8
BLACK
6
CONTINUOUS
10
5.70901
20
-4.45079
11
5.71133
21
-4.45102
0
LINE
8
BLACK
6
CONTINUOUS
10
6.21133
20
-4.45102
11
6.21595
21
-4.45147
0
LINE
8
BLACK
6
CONTINUOUS
10
6.21595
20
-4.45147
11
6.22486
21
-4.45417
0
LINE
8
BLACK
6
CONTINUOUS
10
6.22486
20
-4.45417
11
6.22486
21
-4.45417
0
LINE
8
BLACK
6
CONTINUOUS
10
6.22486
20
-4.45417
11
6.23307
21
-4.45856
0
LINE
8
BLACK
6
CONTINUOUS
10
6.23307
20
-4.45856
11
6.24026
21
-4.46446
0
LINE
8
BLACK
6
CONTINUOUS
10
6.24026
20
-4.46446
11
6.24617
21
-4.47166
0
LINE
8
BLACK
6
CONTINUOUS
10
6.24617
20
-4.47166
11
6.25055
21
-4.47986
0
LINE
8
BLACK
6
CONTINUOUS
10
6.25055
20
-4.47986
11
6.25055
21
-4.47986
0
LINE
8
BLACK
6
CONTINUOUS
10
6.25055
20
-4.47986
11
6.25325
21
-4.48877
0
LINE
8
BLACK
6
CONTINUOUS
10
6.25325
20
-4.48877
11
6.25417
21
-4.49803
0
LINE
8
BLACK
6
CONTINUOUS
10
6.25417
20
-4.49803
11
6.25325
21
-4.50729
0
LINE
8
BLACK
6
CONTINUOUS
10
6.25325
20
-4.50729
11
6.25055
21
-4.5162
0
LINE
8
BLACK
6
CONTINUOUS
10
6.25055
20
-4.5162
11
6.25055
21
-4.5162
0
LINE
8
BLACK
6
CONTINUOUS
10
6.25055
20
-4.5162
11
6.24617
21
-4.52441
0
LINE
8
BLACK
6
CONTINUOUS
10
6.24617
20
-4.52441
11
6.24026
21
-4.5316
0
LINE
8
BLACK
6
CONTINUOUS
10
6.24026
20
-4.5316
11
6.23307
21
-4.5375
0
LINE
8
BLACK
6
CONTINUOUS
10
6.23307
20
-4.5375
11
6.22486
21
-4.54189
0
LINE
8
BLACK
6
CONTINUOUS
10
6.22486
20
-4.54189
11
6.22486
21
-4.54189
0
LINE
8
BLACK
6
CONTINUOUS
10
6.22486
20
-4.54189
11
6.21595
21
-4.54459
0
LINE
8
BLACK
6
CONTINUOUS
10
6.21595
20
-4.54459
11
6.21133
21
-4.54505
0
LINE
8
BLACK
6
CONTINUOUS
10
6.21133
20
-4.54505
11
6.20901
21
-4.54528
0
LINE
8
BLACK
6
CONTINUOUS
10
6.20901
20
-4.54528
11
6.18075
21
-4.54528
0
LINE
8
BLACK
6
CONTINUOUS
10
6.18075
20
-4.54528
11
6.17844
21
-4.54505
0
LINE
8
BLACK
6
CONTINUOUS
10
6.17844
20
-4.54505
11
6.17381
21
-4.54459
0
LINE
8
BLACK
6
CONTINUOUS
10
6.17381
20
-4.54459
11
6.1649
21
-4.54189
0
LINE
8
BLACK
6
CONTINUOUS
10
6.1649
20
-4.54189
11
6.1649
21
-4.54189
0
LINE
8
BLACK
6
CONTINUOUS
10
6.1649
20
-4.54189
11
6.1567
21
-4.5375
0
LINE
8
BLACK
6
CONTINUOUS
10
6.1567
20
-4.5375
11
6.1495
21
-4.5316
0
LINE
8
BLACK
6
CONTINUOUS
10
6.1495
20
-4.5316
11
6.1436
21
-4.52441
0
LINE
8
BLACK
6
CONTINUOUS
10
6.1436
20
-4.52441
11
6.13921
21
-4.5162
0
LINE
8
BLACK
6
CONTINUOUS
10
6.13921
20
-4.5162
11
6.13921
21
-4.5162
0
LINE
8
BLACK
6
CONTINUOUS
10
6.13921
20
-4.5162
11
6.13651
21
-4.50729
0
LINE
8
BLACK
6
CONTINUOUS
10
6.13651
20
-4.50729
11
6.1356
21
-4.49803
0
LINE
8
BLACK
6
CONTINUOUS
10
6.1356
20
-4.49803
11
6.13651
21
-4.48877
0
LINE
8
BLACK
6
CONTINUOUS
10
6.13651
20
-4.48877
11
6.13921
21
-4.47986
0
LINE
8
BLACK
6
CONTINUOUS
10
6.13921
20
-4.47986
11
6.13921
21
-4.47986
0
LINE
8
BLACK
6
CONTINUOUS
10
6.13921
20
-4.47986
11
6.1436
21
-4.47166
0
LINE
8
BLACK
6
CONTINUOUS
10
6.1436
20
-4.47166
11
6.1495
21
-4.46446
0
LINE
8
BLACK
6
CONTINUOUS
10
6.1495
20
-4.46446
11
6.1567
21
-4.45856
0
LINE
8
BLACK
6
CONTINUOUS
10
6.1567
20
-4.45856
11
6.1649
21
-4.45417
0
LINE
8
BLACK
6
CONTINUOUS
10
6.1649
20
-4.45417
11
6.1649
21
-4.45417
0
LINE
8
BLACK
6
CONTINUOUS
10
6.1649
20
-4.45417
11
6.17381
21
-4.45147
0
LINE
8
BLACK
6
CONTINUOUS
10
6.17381
20
-4.45147
11
6.17844
21
-4.45102
0
LINE
8
BLACK
6
CONTINUOUS
10
6.17844
20
-4.45102
11
6.18075
21
-4.45079
0
LINE
8
BLACK
6
CONTINUOUS
10
6.18075
20
-4.45079
11
6.20901
21
-4.45079
0
LINE
8
BLACK
6
CONTINUOUS
10
6.20901
20
-4.45079
11
6.21133
21
-4.45102
0
LINE
8
BLACK
6
CONTINUOUS
10
5.4633
20
-4.45102
11
5.46792
21
-4.45147
0
LINE
8
BLACK
6
CONTINUOUS
10
5.46792
20
-4.45147
11
5.47683
21
-4.45417
0
LINE
8
BLACK
6
CONTINUOUS
10
5.47683
20
-4.45417
11
5.47683
21
-4.45417
0
LINE
8
BLACK
6
CONTINUOUS
10
5.47683
20
-4.45417
11
5.48504
21
-4.45856
0
LINE
8
BLACK
6
CONTINUOUS
10
5.48504
20
-4.45856
11
5.49223
21
-4.46446
0
LINE
8
BLACK
6
CONTINUOUS
10
5.49223
20
-4.46446
11
5.49813
21
-4.47166
0
LINE
8
BLACK
6
CONTINUOUS
10
5.49813
20
-4.47166
11
5.50252
21
-4.47986
0
LINE
8
BLACK
6
CONTINUOUS
10
5.50252
20
-4.47986
11
5.50252
21
-4.47986
0
LINE
8
BLACK
6
CONTINUOUS
10
5.50252
20
-4.47986
11
5.50522
21
-4.48877
0
LINE
8
BLACK
6
CONTINUOUS
10
5.50522
20
-4.48877
11
5.50613
21
-4.49803
0
LINE
8
BLACK
6
CONTINUOUS
10
5.50613
20
-4.49803
11
5.50522
21
-4.50729
0
LINE
8
BLACK
6
CONTINUOUS
10
5.50522
20
-4.50729
11
5.50252
21
-4.5162
0
LINE
8
BLACK
6
CONTINUOUS
10
5.50252
20
-4.5162
11
5.50252
21
-4.5162
0
LINE
8
BLACK
6
CONTINUOUS
10
5.50252
20
-4.5162
11
5.49813
21
-4.52441
0
LINE
8
BLACK
6
CONTINUOUS
10
5.49813
20
-4.52441
11
5.49223
21
-4.5316
0
LINE
8
BLACK
6
CONTINUOUS
10
5.49223
20
-4.5316
11
5.48504
21
-4.5375
0
LINE
8
BLACK
6
CONTINUOUS
10
5.48504
20
-4.5375
11
5.47683
21
-4.54189
0
LINE
8
BLACK
6
CONTINUOUS
10
5.47683
20
-4.54189
11
5.47683
21
-4.54189
0
LINE
8
BLACK
6
CONTINUOUS
10
5.47683
20
-4.54189
11
5.46792
21
-4.54459
0
LINE
8
BLACK
6
CONTINUOUS
10
5.46792
20
-4.54459
11
5.4633
21
-4.54505
0
LINE
8
BLACK
6
CONTINUOUS
10
5.4633
20
-4.54505
11
5.46098
21
-4.54528
0
LINE
8
BLACK
6
CONTINUOUS
10
5.46098
20
-4.54528
11
5.43272
21
-4.54528
0
LINE
8
BLACK
6
CONTINUOUS
10
5.43272
20
-4.54528
11
5.4304
21
-4.54505
0
LINE
8
BLACK
6
CONTINUOUS
10
5.4304
20
-4.54505
11
5.42578
21
-4.54459
0
LINE
8
BLACK
6
CONTINUOUS
10
5.42578
20
-4.54459
11
5.41687
21
-4.54189
0
LINE
8
BLACK
6
CONTINUOUS
10
5.41687
20
-4.54189
11
5.41687
21
-4.54189
0
LINE
8
BLACK
6
CONTINUOUS
10
5.41687
20
-4.54189
11
5.40866
21
-4.5375
0
LINE
8
BLACK
6
CONTINUOUS
10
5.40866
20
-4.5375
11
5.40147
21
-4.5316
0
LINE
8
BLACK
6
CONTINUOUS
10
5.40147
20
-4.5316
11
5.39557
21
-4.52441
0
LINE
8
BLACK
6
CONTINUOUS
10
5.39557
20
-4.52441
11
5.39118
21
-4.5162
0
LINE
8
BLACK
6
CONTINUOUS
10
5.39118
20
-4.5162
11
5.39118
21
-4.5162
0
LINE
8
BLACK
6
CONTINUOUS
10
5.39118
20
-4.5162
11
5.38848
21
-4.50729
0
LINE
8
BLACK
6
CONTINUOUS
10
5.38848
20
-4.50729
11
5.38757
21
-4.49803
0
LINE
8
BLACK
6
CONTINUOUS
10
5.38757
20
-4.49803
11
5.38848
21
-4.48877
0
LINE
8
BLACK
6
CONTINUOUS
10
5.38848
20
-4.48877
11
5.39118
21
-4.47986
0
LINE
8
BLACK
6
CONTINUOUS
10
5.39118
20
-4.47986
11
5.39118
21
-4.47986
0
LINE
8
BLACK
6
CONTINUOUS
10
5.39118
20
-4.47986
11
5.39557
21
-4.47166
0
LINE
8
BLACK
6
CONTINUOUS
10
5.39557
20
-4.47166
11
5.40147
21
-4.46446
0
LINE
8
BLACK
6
CONTINUOUS
10
5.40147
20
-4.46446
11
5.40866
21
-4.45856
0
LINE
8
BLACK
6
CONTINUOUS
10
5.40866
20
-4.45856
11
5.41687
21
-4.45417
0
LINE
8
BLACK
6
CONTINUOUS
10
5.41687
20
-4.45417
11
5.41687
21
-4.45417
0
LINE
8
BLACK
6
CONTINUOUS
10
5.41687
20
-4.45417
11
5.42578
21
-4.45147
0
LINE
8
BLACK
6
CONTINUOUS
10
5.42578
20
-4.45147
11
5.4304
21
-4.45102
0
LINE
8
BLACK
6
CONTINUOUS
10
5.4304
20
-4.45102
11
5.43272
21
-4.45079
0
LINE
8
BLACK
6
CONTINUOUS
10
5.43272
20
-4.45079
11
5.46098
21
-4.45079
0
LINE
8
BLACK
6
CONTINUOUS
10
5.46098
20
-4.45079
11
5.4633
21
-4.45102
0
LINE
8
BLACK
6
CONTINUOUS
10
4.9633
20
-4.45102
11
4.96792
21
-4.45147
0
LINE
8
BLACK
6
CONTINUOUS
10
4.96792
20
-4.45147
11
4.97683
21
-4.45417
0
LINE
8
BLACK
6
CONTINUOUS
10
4.97683
20
-4.45417
11
4.97683
21
-4.45417
0
LINE
8
BLACK
6
CONTINUOUS
10
4.97683
20
-4.45417
11
4.98504
21
-4.45856
0
LINE
8
BLACK
6
CONTINUOUS
10
4.98504
20
-4.45856
11
4.99223
21
-4.46446
0
LINE
8
BLACK
6
CONTINUOUS
10
4.99223
20
-4.46446
11
4.99813
21
-4.47166
0
LINE
8
BLACK
6
CONTINUOUS
10
4.99813
20
-4.47166
11
5.00252
21
-4.47986
0
LINE
8
BLACK
6
CONTINUOUS
10
5.00252
20
-4.47986
11
5.00252
21
-4.47986
0
LINE
8
BLACK
6
CONTINUOUS
10
5.00252
20
-4.47986
11
5.00522
21
-4.48877
0
LINE
8
BLACK
6
CONTINUOUS
10
5.00522
20
-4.48877
11
5.00613
21
-4.49803
0
LINE
8
BLACK
6
CONTINUOUS
10
5.00613
20
-4.49803
11
5.00522
21
-4.50729
0
LINE
8
BLACK
6
CONTINUOUS
10
5.00522
20
-4.50729
11
5.00252
21
-4.5162
0
LINE
8
BLACK
6
CONTINUOUS
10
5.00252
20
-4.5162
11
5.00252
21
-4.5162
0
LINE
8
BLACK
6
CONTINUOUS
10
5.00252
20
-4.5162
11
4.99813
21
-4.52441
0
LINE
8
BLACK
6
CONTINUOUS
10
4.99813
20
-4.52441
11
4.99223
21
-4.5316
0
LINE
8
BLACK
6
CONTINUOUS
10
4.99223
20
-4.5316
11
4.98504
21
-4.5375
0
LINE
8
BLACK
6
CONTINUOUS
10
4.98504
20
-4.5375
11
4.97683
21
-4.54189
0
LINE
8
BLACK
6
CONTINUOUS
10
4.97683
20
-4.54189
11
4.97683
21
-4.54189
0
LINE
8
BLACK
6
CONTINUOUS
10
4.97683
20
-4.54189
11
4.96792
21
-4.54459
0
LINE
8
BLACK
6
CONTINUOUS
10
4.96792
20
-4.54459
11
4.9633
21
-4.54505
0
LINE
8
BLACK
6
CONTINUOUS
10
4.9633
20
-4.54505
11
4.96098
21
-4.54528
0
LINE
8
BLACK
6
CONTINUOUS
10
4.96098
20
-4.54528
11
4.93272
21
-4.54528
0
LINE
8
BLACK
6
CONTINUOUS
10
4.93272
20
-4.54528
11
4.9304
21
-4.54505
0
LINE
8
BLACK
6
CONTINUOUS
10
4.9304
20
-4.54505
11
4.92578
21
-4.54459
0
LINE
8
BLACK
6
CONTINUOUS
10
4.92578
20
-4.54459
11
4.91687
21
-4.54189
0
LINE
8
BLACK
6
CONTINUOUS
10
4.91687
20
-4.54189
11
4.91687
21
-4.54189
0
LINE
8
BLACK
6
CONTINUOUS
10
4.91687
20
-4.54189
11
4.90866
21
-4.5375
0
LINE
8
BLACK
6
CONTINUOUS
10
4.90866
20
-4.5375
11
4.90147
21
-4.5316
0
LINE
8
BLACK
6
CONTINUOUS
10
4.90147
20
-4.5316
11
4.89557
21
-4.52441
0
LINE
8
BLACK
6
CONTINUOUS
10
4.89557
20
-4.52441
11
4.89118
21
-4.5162
0
LINE
8
BLACK
6
CONTINUOUS
10
4.89118
20
-4.5162
11
4.89118
21
-4.5162
0
LINE
8
BLACK
6
CONTINUOUS
10
4.89118
20
-4.5162
11
4.88848
21
-4.50729
0
LINE
8
BLACK
6
CONTINUOUS
10
4.88848
20
-4.50729
11
4.88757
21
-4.49803
0
LINE
8
BLACK
6
CONTINUOUS
10
4.88757
20
-4.49803
11
4.88848
21
-4.48877
0
LINE
8
BLACK
6
CONTINUOUS
10
4.88848
20
-4.48877
11
4.89118
21
-4.47986
0
LINE
8
BLACK
6
CONTINUOUS
10
4.89118
20
-4.47986
11
4.89118
21
-4.47986
0
LINE
8
BLACK
6
CONTINUOUS
10
4.89118
20
-4.47986
11
4.89557
21
-4.47166
0
LINE
8
BLACK
6
CONTINUOUS
10
4.89557
20
-4.47166
11
4.90147
21
-4.46446
0
LINE
8
BLACK
6
CONTINUOUS
10
4.90147
20
-4.46446
11
4.90866
21
-4.45856
0
LINE
8
BLACK
6
CONTINUOUS
10
4.90866
20
-4.45856
11
4.91687
21
-4.45417
0
LINE
8
BLACK
6
CONTINUOUS
10
4.91687
20
-4.45417
11
4.91687
21
-4.45417
0
LINE
8
BLACK
6
CONTINUOUS
10
4.91687
20
-4.45417
11
4.92578
21
-4.45147
0
LINE
8
BLACK
6
CONTINUOUS
10
4.92578
20
-4.45147
11
4.9304
21
-4.45102
0
LINE
8
BLACK
6
CONTINUOUS
10
4.9304
20
-4.45102
11
4.93272
21
-4.45079
0
LINE
8
BLACK
6
CONTINUOUS
10
4.93272
20
-4.45079
11
4.96098
21
-4.45079
0
LINE
8
BLACK
6
CONTINUOUS
10
4.96098
20
-4.45079
11
4.9633
21
-4.45102
0
LINE
8
BLACK
6
CONTINUOUS
10
7.77953
20
-4.47638
11
7.69291
21
-4.47638
0
LINE
8
BLACK
6
CONTINUOUS
10
7.69291
20
-4.47638
11
7.69291
21
-4.42126
0
LINE
8
BLACK
6
CONTINUOUS
10
7.69291
20
-4.42126
11
7.77953
21
-4.42126
0
LINE
8
BLACK
6
CONTINUOUS
10
7.77953
20
-4.42126
11
7.77953
21
-4.47638
0
LINE
8
BLACK
6
CONTINUOUS
10
6.21133
20
-4.25416
11
6.21595
21
-4.25462
0
LINE
8
BLACK
6
CONTINUOUS
10
6.21595
20
-4.25462
11
6.22486
21
-4.25732
0
LINE
8
BLACK
6
CONTINUOUS
10
6.22486
20
-4.25732
11
6.22486
21
-4.25732
0
LINE
8
BLACK
6
CONTINUOUS
10
6.22486
20
-4.25732
11
6.23307
21
-4.26171
0
LINE
8
BLACK
6
CONTINUOUS
10
6.23307
20
-4.26171
11
6.24026
21
-4.26761
0
LINE
8
BLACK
6
CONTINUOUS
10
6.24026
20
-4.26761
11
6.24617
21
-4.27481
0
LINE
8
BLACK
6
CONTINUOUS
10
6.24617
20
-4.27481
11
6.25055
21
-4.28301
0
LINE
8
BLACK
6
CONTINUOUS
10
6.25055
20
-4.28301
11
6.25055
21
-4.28301
0
LINE
8
BLACK
6
CONTINUOUS
10
6.25055
20
-4.28301
11
6.25325
21
-4.29192
0
LINE
8
BLACK
6
CONTINUOUS
10
6.25325
20
-4.29192
11
6.25417
21
-4.30118
0
LINE
8
BLACK
6
CONTINUOUS
10
6.25417
20
-4.30118
11
6.25325
21
-4.31044
0
LINE
8
BLACK
6
CONTINUOUS
10
6.25325
20
-4.31044
11
6.25055
21
-4.31935
0
LINE
8
BLACK
6
CONTINUOUS
10
6.25055
20
-4.31935
11
6.25055
21
-4.31935
0
LINE
8
BLACK
6
CONTINUOUS
10
6.25055
20
-4.31935
11
6.24617
21
-4.32756
0
LINE
8
BLACK
6
CONTINUOUS
10
6.24617
20
-4.32756
11
6.24026
21
-4.33475
0
LINE
8
BLACK
6
CONTINUOUS
10
6.24026
20
-4.33475
11
6.23307
21
-4.34065
0
LINE
8
BLACK
6
CONTINUOUS
10
6.23307
20
-4.34065
11
6.22486
21
-4.34504
0
LINE
8
BLACK
6
CONTINUOUS
10
6.22486
20
-4.34504
11
6.22486
21
-4.34504
0
LINE
8
BLACK
6
CONTINUOUS
10
6.22486
20
-4.34504
11
6.21595
21
-4.34774
0
LINE
8
BLACK
6
CONTINUOUS
10
6.21595
20
-4.34774
11
6.21133
21
-4.3482
0
LINE
8
BLACK
6
CONTINUOUS
10
6.21133
20
-4.3482
11
6.20901
21
-4.34843
0
LINE
8
BLACK
6
CONTINUOUS
10
6.20901
20
-4.34843
11
6.18075
21
-4.34843
0
LINE
8
BLACK
6
CONTINUOUS
10
6.18075
20
-4.34843
11
6.17844
21
-4.3482
0
LINE
8
BLACK
6
CONTINUOUS
10
6.17844
20
-4.3482
11
6.17381
21
-4.34774
0
LINE
8
BLACK
6
CONTINUOUS
10
6.17381
20
-4.34774
11
6.1649
21
-4.34504
0
LINE
8
BLACK
6
CONTINUOUS
10
6.1649
20
-4.34504
11
6.1649
21
-4.34504
0
LINE
8
BLACK
6
CONTINUOUS
10
6.1649
20
-4.34504
11
6.1567
21
-4.34065
0
LINE
8
BLACK
6
CONTINUOUS
10
6.1567
20
-4.34065
11
6.1495
21
-4.33475
0
LINE
8
BLACK
6
CONTINUOUS
10
6.1495
20
-4.33475
11
6.1436
21
-4.32756
0
LINE
8
BLACK
6
CONTINUOUS
10
6.1436
20
-4.32756
11
6.13921
21
-4.31935
0
LINE
8
BLACK
6
CONTINUOUS
10
6.13921
20
-4.31935
11
6.13921
21
-4.31935
0
LINE
8
BLACK
6
CONTINUOUS
10
6.13921
20
-4.31935
11
6.13651
21
-4.31044
0
LINE
8
BLACK
6
CONTINUOUS
10
6.13651
20
-4.31044
11
6.1356
21
-4.30118
0
LINE
8
BLACK
6
CONTINUOUS
10
6.1356
20
-4.30118
11
6.13651
21
-4.29192
0
LINE
8
BLACK
6
CONTINUOUS
10
6.13651
20
-4.29192
11
6.13921
21
-4.28301
0
LINE
8
BLACK
6
CONTINUOUS
10
6.13921
20
-4.28301
11
6.13921
21
-4.28301
0
LINE
8
BLACK
6
CONTINUOUS
10
6.13921
20
-4.28301
11
6.1436
21
-4.27481
0
LINE
8
BLACK
6
CONTINUOUS
10
6.1436
20
-4.27481
11
6.1495
21
-4.26761
0
LINE
8
BLACK
6
CONTINUOUS
10
6.1495
20
-4.26761
11
6.1567
21
-4.26171
0
LINE
8
BLACK
6
CONTINUOUS
10
6.1567
20
-4.26171
11
6.1649
21
-4.25732
0
LINE
8
BLACK
6
CONTINUOUS
10
6.1649
20
-4.25732
11
6.1649
21
-4.25732
0
LINE
8
BLACK
6
CONTINUOUS
10
6.1649
20
-4.25732
11
6.17381
21
-4.25462
0
LINE
8
BLACK
6
CONTINUOUS
10
6.17381
20
-4.25462
11
6.17844
21
-4.25416
0
LINE
8
BLACK
6
CONTINUOUS
10
6.17844
20
-4.25416
11
6.18075
21
-4.25394
0
LINE
8
BLACK
6
CONTINUOUS
10
6.18075
20
-4.25394
11
6.20901
21
-4.25394
0
LINE
8
BLACK
6
CONTINUOUS
10
6.20901
20
-4.25394
11
6.21133
21
-4.25416
0
LINE
8
BLACK
6
CONTINUOUS
10
4.9633
20
-4.25416
11
4.96792
21
-4.25462
0
LINE
8
BLACK
6
CONTINUOUS
10
4.96792
20
-4.25462
11
4.97683
21
-4.25732
0
LINE
8
BLACK
6
CONTINUOUS
10
4.97683
20
-4.25732
11
4.97683
21
-4.25732
0
LINE
8
BLACK
6
CONTINUOUS
10
4.97683
20
-4.25732
11
4.98504
21
-4.26171
0
LINE
8
BLACK
6
CONTINUOUS
10
4.98504
20
-4.26171
11
4.99223
21
-4.26761
0
LINE
8
BLACK
6
CONTINUOUS
10
4.99223
20
-4.26761
11
4.99813
21
-4.27481
0
LINE
8
BLACK
6
CONTINUOUS
10
4.99813
20
-4.27481
11
5.00252
21
-4.28301
0
LINE
8
BLACK
6
CONTINUOUS
10
5.00252
20
-4.28301
11
5.00252
21
-4.28301
0
LINE
8
BLACK
6
CONTINUOUS
10
5.00252
20
-4.28301
11
5.00522
21
-4.29192
0
LINE
8
BLACK
6
CONTINUOUS
10
5.00522
20
-4.29192
11
5.00613
21
-4.30118
0
LINE
8
BLACK
6
CONTINUOUS
10
5.00613
20
-4.30118
11
5.00522
21
-4.31044
0
LINE
8
BLACK
6
CONTINUOUS
10
5.00522
20
-4.31044
11
5.00252
21
-4.31935
0
LINE
8
BLACK
6
CONTINUOUS
10
5.00252
20
-4.31935
11
5.00252
21
-4.31935
0
LINE
8
BLACK
6
CONTINUOUS
10
5.00252
20
-4.31935
11
4.99813
21
-4.32756
0
LINE
8
BLACK
6
CONTINUOUS
10
4.99813
20
-4.32756
11
4.99223
21
-4.33475
0
LINE
8
BLACK
6
CONTINUOUS
10
4.99223
20
-4.33475
11
4.98504
21
-4.34065
0
LINE
8
BLACK
6
CONTINUOUS
10
4.98504
20
-4.34065
11
4.97683
21
-4.34504
0
LINE
8
BLACK
6
CONTINUOUS
10
4.97683
20
-4.34504
11
4.97683
21
-4.34504
0
LINE
8
BLACK
6
CONTINUOUS
10
4.97683
20
-4.34504
11
4.96792
21
-4.34774
0
LINE
8
BLACK
6
CONTINUOUS
10
4.96792
20
-4.34774
11
4.9633
21
-4.3482
0
LINE
8
BLACK
6
CONTINUOUS
10
4.9633
20
-4.3482
11
4.96098
21
-4.34843
0
LINE
8
BLACK
6
CONTINUOUS
10
4.96098
20
-4.34843
11
4.93272
21
-4.34843
0
LINE
8
BLACK
6
CONTINUOUS
10
4.93272
20
-4.34843
11
4.9304
21
-4.3482
0
LINE
8
BLACK
6
CONTINUOUS
10
4.9304
20
-4.3482
11
4.92578
21
-4.34774
0
LINE
8
BLACK
6
CONTINUOUS
10
4.92578
20
-4.34774
11
4.91687
21
-4.34504
0
LINE
8
BLACK
6
CONTINUOUS
10
4.91687
20
-4.34504
11
4.91687
21
-4.34504
0
LINE
8
BLACK
6
CONTINUOUS
10
4.91687
20
-4.34504
11
4.90866
21
-4.34065
0
LINE
8
BLACK
6
CONTINUOUS
10
4.90866
20
-4.34065
11
4.90147
21
-4.33475
0
LINE
8
BLACK
6
CONTINUOUS
10
4.90147
20
-4.33475
11
4.89557
21
-4.32756
0
LINE
8
BLACK
6
CONTINUOUS
10
4.89557
20
-4.32756
11
4.89118
21
-4.31935
0
LINE
8
BLACK
6
CONTINUOUS
10
4.89118
20
-4.31935
11
4.89118
21
-4.31935
0
LINE
8
BLACK
6
CONTINUOUS
10
4.89118
20
-4.31935
11
4.88848
21
-4.31044
0
LINE
8
BLACK
6
CONTINUOUS
10
4.88848
20
-4.31044
11
4.88757
21
-4.30118
0
LINE
8
BLACK
6
CONTINUOUS
10
4.88757
20
-4.30118
11
4.88848
21
-4.29192
0
LINE
8
BLACK
6
CONTINUOUS
10
4.88848
20
-4.29192
11
4.89118
21
-4.28301
0
LINE
8
BLACK
6
CONTINUOUS
10
4.89118
20
-4.28301
11
4.89118
21
-4.28301
0
LINE
8
BLACK
6
CONTINUOUS
10
4.89118
20
-4.28301
11
4.89557
21
-4.27481
0
LINE
8
BLACK
6
CONTINUOUS
10
4.89557
20
-4.27481
11
4.90147
21
-4.26761
0
LINE
8
BLACK
6
CONTINUOUS
10
4.90147
20
-4.26761
11
4.90866
21
-4.26171
0
LINE
8
BLACK
6
CONTINUOUS
10
4.90866
20
-4.26171
11
4.91687
21
-4.25732
0
LINE
8
BLACK
6
CONTINUOUS
10
4.91687
20
-4.25732
11
4.91687
21
-4.25732
0
LINE
8
BLACK
6
CONTINUOUS
10
4.91687
20
-4.25732
11
4.92578
21
-4.25462
0
LINE
8
BLACK
6
CONTINUOUS
10
4.92578
20
-4.25462
11
4.9304
21
-4.25416
0
LINE
8
BLACK
6
CONTINUOUS
10
4.9304
20
-4.25416
11
4.93272
21
-4.25394
0
LINE
8
BLACK
6
CONTINUOUS
10
4.93272
20
-4.25394
11
4.96098
21
-4.25394
0
LINE
8
BLACK
6
CONTINUOUS
10
4.96098
20
-4.25394
11
4.9633
21
-4.25416
0
LINE
8
BLACK
6
CONTINUOUS
10
5.4633
20
-4.25416
11
5.46792
21
-4.25462
0
LINE
8
BLACK
6
CONTINUOUS
10
5.46792
20
-4.25462
11
5.47683
21
-4.25732
0
LINE
8
BLACK
6
CONTINUOUS
10
5.47683
20
-4.25732
11
5.47683
21
-4.25732
0
LINE
8
BLACK
6
CONTINUOUS
10
5.47683
20
-4.25732
11
5.48504
21
-4.26171
0
LINE
8
BLACK
6
CONTINUOUS
10
5.48504
20
-4.26171
11
5.49223
21
-4.26761
0
LINE
8
BLACK
6
CONTINUOUS
10
5.49223
20
-4.26761
11
5.49813
21
-4.27481
0
LINE
8
BLACK
6
CONTINUOUS
10
5.49813
20
-4.27481
11
5.50252
21
-4.28301
0
LINE
8
BLACK
6
CONTINUOUS
10
5.50252
20
-4.28301
11
5.50252
21
-4.28301
0
LINE
8
BLACK
6
CONTINUOUS
10
5.50252
20
-4.28301
11
5.50522
21
-4.29192
0
LINE
8
BLACK
6
CONTINUOUS
10
5.50522
20
-4.29192
11
5.50613
21
-4.30118
0
LINE
8
BLACK
6
CONTINUOUS
10
5.50613
20
-4.30118
11
5.50522
21
-4.31044
0
LINE
8
BLACK
6
CONTINUOUS
10
5.50522
20
-4.31044
11
5.50252
21
-4.31935
0
LINE
8
BLACK
6
CONTINUOUS
10
5.50252
20
-4.31935
11
5.50252
21
-4.31935
0
LINE
8
BLACK
6
CONTINUOUS
10
5.50252
20
-4.31935
11
5.49813
21
-4.32756
0
LINE
8
BLACK
6
CONTINUOUS
10
5.49813
20
-4.32756
11
5.49223
21
-4.33475
0
LINE
8
BLACK
6
CONTINUOUS
10
5.49223
20
-4.33475
11
5.48504
21
-4.34065
0
LINE
8
BLACK
6
CONTINUOUS
10
5.48504
20
-4.34065
11
5.47683
21
-4.34504
0
LINE
8
BLACK
6
CONTINUOUS
10
5.47683
20
-4.34504
11
5.47683
21
-4.34504
0
LINE
8
BLACK
6
CONTINUOUS
10
5.47683
20
-4.34504
11
5.46792
21
-4.34774
0
LINE
8
BLACK
6
CONTINUOUS
10
5.46792
20
-4.34774
11
5.4633
21
-4.3482
0
LINE
8
BLACK
6
CONTINUOUS
10
5.4633
20
-4.3482
11
5.46098
21
-4.34843
0
LINE
8
BLACK
6
CONTINUOUS
10
5.46098
20
-4.34843
11
5.43272
21
-4.34843
0
LINE
8
BLACK
6
CONTINUOUS
10
5.43272
20
-4.34843
11
5.4304
21
-4.3482
0
LINE
8
BLACK
6
CONTINUOUS
10
5.4304
20
-4.3482
11
5.42578
21
-4.34774
0
LINE
8
BLACK
6
CONTINUOUS
10
5.42578
20
-4.34774
11
5.41687
21
-4.34504
0
LINE
8
BLACK
6
CONTINUOUS
10
5.41687
20
-4.34504
11
5.41687
21
-4.34504
0
LINE
8
BLACK
6
CONTINUOUS
10
5.41687
20
-4.34504
11
5.40866
21
-4.34065
0
LINE
8
BLACK
6
CONTINUOUS
10
5.40866
20
-4.34065
11
5.40147
21
-4.33475
0
LINE
8
BLACK
6
CONTINUOUS
10
5.40147
20
-4.33475
11
5.39557
21
-4.32756
0
LINE
8
BLACK
6
CONTINUOUS
10
5.39557
20
-4.32756
11
5.39118
21
-4.31935
0
LINE
8
BLACK
6
CONTINUOUS
10
5.39118
20
-4.31935
11
5.39118
21
-4.31935
0
LINE
8
BLACK
6
CONTINUOUS
10
5.39118
20
-4.31935
11
5.38848
21
-4.31044
0
LINE
8
BLACK
6
CONTINUOUS
10
5.38848
20
-4.31044
11
5.38757
21
-4.30118
0
LINE
8
BLACK
6
CONTINUOUS
10
5.38757
20
-4.30118
11
5.38848
21
-4.29192
0
LINE
8
BLACK
6
CONTINUOUS
10
5.38848
20
-4.29192
11
5.39118
21
-4.28301
0
LINE
8
BLACK
6
CONTINUOUS
10
5.39118
20
-4.28301
11
5.39118
21
-4.28301
0
LINE
8
BLACK
6
CONTINUOUS
10
5.39118
20
-4.28301
11
5.39557
21
-4.27481
0
LINE
8
BLACK
6
CONTINUOUS
10
5.39557
20
-4.27481
11
5.40147
21
-4.26761
0
LINE
8
BLACK
6
CONTINUOUS
10
5.40147
20
-4.26761
11
5.40866
21
-4.26171
0
LINE
8
BLACK
6
CONTINUOUS
10
5.40866
20
-4.26171
11
5.41687
21
-4.25732
0
LINE
8
BLACK
6
CONTINUOUS
10
5.41687
20
-4.25732
11
5.41687
21
-4.25732
0
LINE
8
BLACK
6
CONTINUOUS
10
5.41687
20
-4.25732
11
5.42578
21
-4.25462
0
LINE
8
BLACK
6
CONTINUOUS
10
5.42578
20
-4.25462
11
5.4304
21
-4.25416
0
LINE
8
BLACK
6
CONTINUOUS
10
5.4304
20
-4.25416
11
5.43272
21
-4.25394
0
LINE
8
BLACK
6
CONTINUOUS
10
5.43272
20
-4.25394
11
5.46098
21
-4.25394
0
LINE
8
BLACK
6
CONTINUOUS
10
5.46098
20
-4.25394
11
5.4633
21
-4.25416
0
LINE
8
BLACK
6
CONTINUOUS
10
5.71133
20
-4.25416
11
5.71595
21
-4.25462
0
LINE
8
BLACK
6
CONTINUOUS
10
5.71595
20
-4.25462
11
5.72486
21
-4.25732
0
LINE
8
BLACK
6
CONTINUOUS
10
5.72486
20
-4.25732
11
5.72486
21
-4.25732
0
LINE
8
BLACK
6
CONTINUOUS
10
5.72486
20
-4.25732
11
5.73307
21
-4.26171
0
LINE
8
BLACK
6
CONTINUOUS
10
5.73307
20
-4.26171
11
5.74026
21
-4.26761
0
LINE
8
BLACK
6
CONTINUOUS
10
5.74026
20
-4.26761
11
5.74617
21
-4.27481
0
LINE
8
BLACK
6
CONTINUOUS
10
5.74617
20
-4.27481
11
5.75055
21
-4.28301
0
LINE
8
BLACK
6
CONTINUOUS
10
5.75055
20
-4.28301
11
5.75055
21
-4.28301
0
LINE
8
BLACK
6
CONTINUOUS
10
5.75055
20
-4.28301
11
5.75325
21
-4.29192
0
LINE
8
BLACK
6
CONTINUOUS
10
5.75325
20
-4.29192
11
5.75417
21
-4.30118
0
LINE
8
BLACK
6
CONTINUOUS
10
5.75417
20
-4.30118
11
5.75325
21
-4.31044
0
LINE
8
BLACK
6
CONTINUOUS
10
5.75325
20
-4.31044
11
5.75055
21
-4.31935
0
LINE
8
BLACK
6
CONTINUOUS
10
5.75055
20
-4.31935
11
5.75055
21
-4.31935
0
LINE
8
BLACK
6
CONTINUOUS
10
5.75055
20
-4.31935
11
5.74617
21
-4.32756
0
LINE
8
BLACK
6
CONTINUOUS
10
5.74617
20
-4.32756
11
5.74026
21
-4.33475
0
LINE
8
BLACK
6
CONTINUOUS
10
5.74026
20
-4.33475
11
5.73307
21
-4.34065
0
LINE
8
BLACK
6
CONTINUOUS
10
5.73307
20
-4.34065
11
5.72486
21
-4.34504
0
LINE
8
BLACK
6
CONTINUOUS
10
5.72486
20
-4.34504
11
5.72486
21
-4.34504
0
LINE
8
BLACK
6
CONTINUOUS
10
5.72486
20
-4.34504
11
5.71595
21
-4.34774
0
LINE
8
BLACK
6
CONTINUOUS
10
5.71595
20
-4.34774
11
5.71133
21
-4.3482
0
LINE
8
BLACK
6
CONTINUOUS
10
5.71133
20
-4.3482
11
5.70901
21
-4.34843
0
LINE
8
BLACK
6
CONTINUOUS
10
5.70901
20
-4.34843
11
5.68075
21
-4.34843
0
LINE
8
BLACK
6
CONTINUOUS
10
5.68075
20
-4.34843
11
5.67844
21
-4.3482
0
LINE
8
BLACK
6
CONTINUOUS
10
5.67844
20
-4.3482
11
5.67381
21
-4.34774
0
LINE
8
BLACK
6
CONTINUOUS
10
5.67381
20
-4.34774
11
5.6649
21
-4.34504
0
LINE
8
BLACK
6
CONTINUOUS
10
5.6649
20
-4.34504
11
5.6649
21
-4.34504
0
LINE
8
BLACK
6
CONTINUOUS
10
5.6649
20
-4.34504
11
5.6567
21
-4.34065
0
LINE
8
BLACK
6
CONTINUOUS
10
5.6567
20
-4.34065
11
5.6495
21
-4.33475
0
LINE
8
BLACK
6
CONTINUOUS
10
5.6495
20
-4.33475
11
5.6436
21
-4.32756
0
LINE
8
BLACK
6
CONTINUOUS
10
5.6436
20
-4.32756
11
5.63921
21
-4.31935
0
LINE
8
BLACK
6
CONTINUOUS
10
5.63921
20
-4.31935
11
5.63921
21
-4.31935
0
LINE
8
BLACK
6
CONTINUOUS
10
5.63921
20
-4.31935
11
5.63651
21
-4.31044
0
LINE
8
BLACK
6
CONTINUOUS
10
5.63651
20
-4.31044
11
5.6356
21
-4.30118
0
LINE
8
BLACK
6
CONTINUOUS
10
5.6356
20
-4.30118
11
5.63651
21
-4.29192
0
LINE
8
BLACK
6
CONTINUOUS
10
5.63651
20
-4.29192
11
5.63921
21
-4.28301
0
LINE
8
BLACK
6
CONTINUOUS
10
5.63921
20
-4.28301
11
5.63921
21
-4.28301
0
LINE
8
BLACK
6
CONTINUOUS
10
5.63921
20
-4.28301
11
5.6436
21
-4.27481
0
LINE
8
BLACK
6
CONTINUOUS
10
5.6436
20
-4.27481
11
5.6495
21
-4.26761
0
LINE
8
BLACK
6
CONTINUOUS
10
5.6495
20
-4.26761
11
5.6567
21
-4.26171
0
LINE
8
BLACK
6
CONTINUOUS
10
5.6567
20
-4.26171
11
5.6649
21
-4.25732
0
LINE
8
BLACK
6
CONTINUOUS
10
5.6649
20
-4.25732
11
5.6649
21
-4.25732
0
LINE
8
BLACK
6
CONTINUOUS
10
5.6649
20
-4.25732
11
5.67381
21
-4.25462
0
LINE
8
BLACK
6
CONTINUOUS
10
5.67381
20
-4.25462
11
5.67844
21
-4.25416
0
LINE
8
BLACK
6
CONTINUOUS
10
5.67844
20
-4.25416
11
5.68075
21
-4.25394
0
LINE
8
BLACK
6
CONTINUOUS
10
5.68075
20
-4.25394
11
5.70901
21
-4.25394
0
LINE
8
BLACK
6
CONTINUOUS
10
5.70901
20
-4.25394
11
5.71133
21
-4.25416
0
LINE
8
BLACK
6
CONTINUOUS
10
5.95383
20
-4.18408
11
5.95637
21
-4.18458
0
LINE
8
BLACK
6
CONTINUOUS
10
5.95637
20
-4.18458
11
5.96353
21
-4.18755
0
LINE
8
BLACK
6
CONTINUOUS
10
5.96353
20
-4.18755
11
5.96998
21
-4.19186
0
LINE
8
BLACK
6
CONTINUOUS
10
5.96998
20
-4.19186
11
5.97546
21
-4.19734
0
LINE
8
BLACK
6
CONTINUOUS
10
5.97546
20
-4.19734
11
5.97977
21
-4.20379
0
LINE
8
BLACK
6
CONTINUOUS
10
5.97977
20
-4.20379
11
5.98274
21
-4.21096
0
LINE
8
BLACK
6
CONTINUOUS
10
5.98274
20
-4.21096
11
5.98274
21
-4.21096
0
LINE
8
BLACK
6
CONTINUOUS
10
5.98274
20
-4.21096
11
5.98425
21
-4.21856
0
LINE
8
BLACK
6
CONTINUOUS
10
5.98425
20
-4.21856
11
5.98425
21
-4.22632
0
LINE
8
BLACK
6
CONTINUOUS
10
5.98425
20
-4.22632
11
5.98383
21
-4.22846
0
LINE
8
BLACK
6
CONTINUOUS
10
5.98383
20
-4.22846
11
5.98274
21
-4.23392
0
LINE
8
BLACK
6
CONTINUOUS
10
5.98274
20
-4.23392
11
5.97977
21
-4.24109
0
LINE
8
BLACK
6
CONTINUOUS
10
5.97977
20
-4.24109
11
5.97546
21
-4.24754
0
LINE
8
BLACK
6
CONTINUOUS
10
5.97546
20
-4.24754
11
5.96998
21
-4.25302
0
LINE
8
BLACK
6
CONTINUOUS
10
5.96998
20
-4.25302
11
5.96353
21
-4.25733
0
LINE
8
BLACK
6
CONTINUOUS
10
5.96353
20
-4.25733
11
5.95637
21
-4.2603
0
LINE
8
BLACK
6
CONTINUOUS
10
5.95637
20
-4.2603
11
5.95383
21
-4.2608
0
LINE
8
BLACK
6
CONTINUOUS
10
5.95383
20
-4.2608
11
5.94876
21
-4.26181
0
LINE
8
BLACK
6
CONTINUOUS
10
5.94876
20
-4.26181
11
5.941
21
-4.26181
0
LINE
8
BLACK
6
CONTINUOUS
10
5.941
20
-4.26181
11
5.93593
21
-4.2608
0
LINE
8
BLACK
6
CONTINUOUS
10
5.93593
20
-4.2608
11
5.9334
21
-4.2603
0
LINE
8
BLACK
6
CONTINUOUS
10
5.9334
20
-4.2603
11
5.92623
21
-4.25733
0
LINE
8
BLACK
6
CONTINUOUS
10
5.92623
20
-4.25733
11
5.91978
21
-4.25302
0
LINE
8
BLACK
6
CONTINUOUS
10
5.91978
20
-4.25302
11
5.9143
21
-4.24754
0
LINE
8
BLACK
6
CONTINUOUS
10
5.9143
20
-4.24754
11
5.90999
21
-4.24109
0
LINE
8
BLACK
6
CONTINUOUS
10
5.90999
20
-4.24109
11
5.90702
21
-4.23392
0
LINE
8
BLACK
6
CONTINUOUS
10
5.90702
20
-4.23392
11
5.90594
21
-4.22846
0
LINE
8
BLACK
6
CONTINUOUS
10
5.90594
20
-4.22846
11
5.90551
21
-4.22632
0
LINE
8
BLACK
6
CONTINUOUS
10
5.90551
20
-4.22632
11
5.90551
21
-4.21856
0
LINE
8
BLACK
6
CONTINUOUS
10
5.90551
20
-4.21856
11
5.90702
21
-4.21096
0
LINE
8
BLACK
6
CONTINUOUS
10
5.90702
20
-4.21096
11
5.90702
21
-4.21096
0
LINE
8
BLACK
6
CONTINUOUS
10
5.90702
20
-4.21096
11
5.90999
21
-4.20379
0
LINE
8
BLACK
6
CONTINUOUS
10
5.90999
20
-4.20379
11
5.9143
21
-4.19734
0
LINE
8
BLACK
6
CONTINUOUS
10
5.9143
20
-4.19734
11
5.91978
21
-4.19186
0
LINE
8
BLACK
6
CONTINUOUS
10
5.91978
20
-4.19186
11
5.92623
21
-4.18755
0
LINE
8
BLACK
6
CONTINUOUS
10
5.92623
20
-4.18755
11
5.9334
21
-4.18458
0
LINE
8
BLACK
6
CONTINUOUS
10
5.9334
20
-4.18458
11
5.93593
21
-4.18408
0
LINE
8
BLACK
6
CONTINUOUS
10
5.93593
20
-4.18408
11
5.941
21
-4.18307
0
LINE
8
BLACK
6
CONTINUOUS
10
5.941
20
-4.18307
11
5.94876
21
-4.18307
0
LINE
8
BLACK
6
CONTINUOUS
10
5.94876
20
-4.18307
11
5.95383
21
-4.18408
0
LINE
8
BLACK
6
CONTINUOUS
10
5.2058
20
-4.18408
11
5.20833
21
-4.18458
0
LINE
8
BLACK
6
CONTINUOUS
10
5.20833
20
-4.18458
11
5.2155
21
-4.18755
0
LINE
8
BLACK
6
CONTINUOUS
10
5.2155
20
-4.18755
11
5.22195
21
-4.19186
0
LINE
8
BLACK
6
CONTINUOUS
10
5.22195
20
-4.19186
11
5.22743
21
-4.19734
0
LINE
8
BLACK
6
CONTINUOUS
10
5.22743
20
-4.19734
11
5.23174
21
-4.20379
0
LINE
8
BLACK
6
CONTINUOUS
10
5.23174
20
-4.20379
11
5.23471
21
-4.21096
0
LINE
8
BLACK
6
CONTINUOUS
10
5.23471
20
-4.21096
11
5.23471
21
-4.21096
0
LINE
8
BLACK
6
CONTINUOUS
10
5.23471
20
-4.21096
11
5.23622
21
-4.21856
0
LINE
8
BLACK
6
CONTINUOUS
10
5.23622
20
-4.21856
11
5.23622
21
-4.22632
0
LINE
8
BLACK
6
CONTINUOUS
10
5.23622
20
-4.22632
11
5.23579
21
-4.22846
0
LINE
8
BLACK
6
CONTINUOUS
10
5.23579
20
-4.22846
11
5.23471
21
-4.23392
0
LINE
8
BLACK
6
CONTINUOUS
10
5.23471
20
-4.23392
11
5.23174
21
-4.24109
0
LINE
8
BLACK
6
CONTINUOUS
10
5.23174
20
-4.24109
11
5.22743
21
-4.24754
0
LINE
8
BLACK
6
CONTINUOUS
10
5.22743
20
-4.24754
11
5.22195
21
-4.25302
0
LINE
8
BLACK
6
CONTINUOUS
10
5.22195
20
-4.25302
11
5.2155
21
-4.25733
0
LINE
8
BLACK
6
CONTINUOUS
10
5.2155
20
-4.25733
11
5.20833
21
-4.2603
0
LINE
8
BLACK
6
CONTINUOUS
10
5.20833
20
-4.2603
11
5.2058
21
-4.2608
0
LINE
8
BLACK
6
CONTINUOUS
10
5.2058
20
-4.2608
11
5.20073
21
-4.26181
0
LINE
8
BLACK
6
CONTINUOUS
10
5.20073
20
-4.26181
11
5.19297
21
-4.26181
0
LINE
8
BLACK
6
CONTINUOUS
10
5.19297
20
-4.26181
11
5.1879
21
-4.2608
0
LINE
8
BLACK
6
CONTINUOUS
10
5.1879
20
-4.2608
11
5.18537
21
-4.2603
0
LINE
8
BLACK
6
CONTINUOUS
10
5.18537
20
-4.2603
11
5.1782
21
-4.25733
0
LINE
8
BLACK
6
CONTINUOUS
10
5.1782
20
-4.25733
11
5.17175
21
-4.25302
0
LINE
8
BLACK
6
CONTINUOUS
10
5.17175
20
-4.25302
11
5.16627
21
-4.24754
0
LINE
8
BLACK
6
CONTINUOUS
10
5.16627
20
-4.24754
11
5.16196
21
-4.24109
0
LINE
8
BLACK
6
CONTINUOUS
10
5.16196
20
-4.24109
11
5.15899
21
-4.23392
0
LINE
8
BLACK
6
CONTINUOUS
10
5.15899
20
-4.23392
11
5.15791
21
-4.22846
0
LINE
8
BLACK
6
CONTINUOUS
10
5.15791
20
-4.22846
11
5.15748
21
-4.22632
0
LINE
8
BLACK
6
CONTINUOUS
10
5.15748
20
-4.22632
11
5.15748
21
-4.21856
0
LINE
8
BLACK
6
CONTINUOUS
10
5.15748
20
-4.21856
11
5.15899
21
-4.21096
0
LINE
8
BLACK
6
CONTINUOUS
10
5.15899
20
-4.21096
11
5.15899
21
-4.21096
0
LINE
8
BLACK
6
CONTINUOUS
10
5.15899
20
-4.21096
11
5.16196
21
-4.20379
0
LINE
8
BLACK
6
CONTINUOUS
10
5.16196
20
-4.20379
11
5.16627
21
-4.19734
0
LINE
8
BLACK
6
CONTINUOUS
10
5.16627
20
-4.19734
11
5.17175
21
-4.19186
0
LINE
8
BLACK
6
CONTINUOUS
10
5.17175
20
-4.19186
11
5.1782
21
-4.18755
0
LINE
8
BLACK
6
CONTINUOUS
10
5.1782
20
-4.18755
11
5.18537
21
-4.18458
0
LINE
8
BLACK
6
CONTINUOUS
10
5.18537
20
-4.18458
11
5.1879
21
-4.18408
0
LINE
8
BLACK
6
CONTINUOUS
10
5.1879
20
-4.18408
11
5.19297
21
-4.18307
0
LINE
8
BLACK
6
CONTINUOUS
10
5.19297
20
-4.18307
11
5.20073
21
-4.18307
0
LINE
8
BLACK
6
CONTINUOUS
10
5.20073
20
-4.18307
11
5.2058
21
-4.18408
0
LINE
8
BLACK
6
CONTINUOUS
10
7.57351
20
-4.21607
11
7.57351
21
-4.21607
0
LINE
8
BLACK
6
CONTINUOUS
10
7.57351
20
-4.21607
11
7.57351
21
-4.21607
0
LINE
8
BLACK
6
CONTINUOUS
10
7.57351
20
-4.21607
11
7.57519
21
-4.21676
0
LINE
8
BLACK
6
CONTINUOUS
10
7.57519
20
-4.21676
11
7.57688
21
-4.21746
0
LINE
8
BLACK
6
CONTINUOUS
10
7.57688
20
-4.21746
11
7.57991
21
-4.21949
0
LINE
8
BLACK
6
CONTINUOUS
10
7.57991
20
-4.21949
11
7.58248
21
-4.22206
0
LINE
8
BLACK
6
CONTINUOUS
10
7.58248
20
-4.22206
11
7.58451
21
-4.22509
0
LINE
8
BLACK
6
CONTINUOUS
10
7.58451
20
-4.22509
11
7.5859
21
-4.22846
0
LINE
8
BLACK
6
CONTINUOUS
10
7.5859
20
-4.22846
11
7.58661
21
-4.23204
0
LINE
8
BLACK
6
CONTINUOUS
10
7.58661
20
-4.23204
11
7.58661
21
-4.23568
0
LINE
8
BLACK
6
CONTINUOUS
10
7.58661
20
-4.23568
11
7.5859
21
-4.23926
0
LINE
8
BLACK
6
CONTINUOUS
10
7.5859
20
-4.23926
11
7.58451
21
-4.24262
0
LINE
8
BLACK
6
CONTINUOUS
10
7.58451
20
-4.24262
11
7.58248
21
-4.24565
0
LINE
8
BLACK
6
CONTINUOUS
10
7.58248
20
-4.24565
11
7.57991
21
-4.24823
0
LINE
8
BLACK
6
CONTINUOUS
10
7.57991
20
-4.24823
11
7.57688
21
-4.25026
0
LINE
8
BLACK
6
CONTINUOUS
10
7.57688
20
-4.25026
11
7.57519
21
-4.25095
0
LINE
8
BLACK
6
CONTINUOUS
10
7.57519
20
-4.25095
11
7.57351
21
-4.25165
0
LINE
8
BLACK
6
CONTINUOUS
10
7.57351
20
-4.25165
11
7.57351
21
-4.25165
0
LINE
8
BLACK
6
CONTINUOUS
10
7.57351
20
-4.25165
11
7.57351
21
-4.25165
0
LINE
8
BLACK
6
CONTINUOUS
10
7.57351
20
-4.25165
11
7.56993
21
-4.25236
0
LINE
8
BLACK
6
CONTINUOUS
10
7.56993
20
-4.25236
11
7.56629
21
-4.25236
0
LINE
8
BLACK
6
CONTINUOUS
10
7.56629
20
-4.25236
11
7.56271
21
-4.25165
0
LINE
8
BLACK
6
CONTINUOUS
10
7.56271
20
-4.25165
11
7.56271
21
-4.25165
0
LINE
8
BLACK
6
CONTINUOUS
10
7.56271
20
-4.25165
11
7.56271
21
-4.25165
0
LINE
8
BLACK
6
CONTINUOUS
10
7.56271
20
-4.25165
11
7.56103
21
-4.25095
0
LINE
8
BLACK
6
CONTINUOUS
10
7.56103
20
-4.25095
11
7.55935
21
-4.25026
0
LINE
8
BLACK
6
CONTINUOUS
10
7.55935
20
-4.25026
11
7.55631
21
-4.24823
0
LINE
8
BLACK
6
CONTINUOUS
10
7.55631
20
-4.24823
11
7.55374
21
-4.24565
0
LINE
8
BLACK
6
CONTINUOUS
10
7.55374
20
-4.24565
11
7.55171
21
-4.24262
0
LINE
8
BLACK
6
CONTINUOUS
10
7.55171
20
-4.24262
11
7.55032
21
-4.23926
0
LINE
8
BLACK
6
CONTINUOUS
10
7.55032
20
-4.23926
11
7.54961
21
-4.23568
0
LINE
8
BLACK
6
CONTINUOUS
10
7.54961
20
-4.23568
11
7.54961
21
-4.23204
0
LINE
8
BLACK
6
CONTINUOUS
10
7.54961
20
-4.23204
11
7.55032
21
-4.22846
0
LINE
8
BLACK
6
CONTINUOUS
10
7.55032
20
-4.22846
11
7.55171
21
-4.22509
0
LINE
8
BLACK
6
CONTINUOUS
10
7.55171
20
-4.22509
11
7.55374
21
-4.22206
0
LINE
8
BLACK
6
CONTINUOUS
10
7.55374
20
-4.22206
11
7.55631
21
-4.21949
0
LINE
8
BLACK
6
CONTINUOUS
10
7.55631
20
-4.21949
11
7.55935
21
-4.21746
0
LINE
8
BLACK
6
CONTINUOUS
10
7.55935
20
-4.21746
11
7.56103
21
-4.21676
0
LINE
8
BLACK
6
CONTINUOUS
10
7.56103
20
-4.21676
11
7.56271
21
-4.21607
0
LINE
8
BLACK
6
CONTINUOUS
10
7.56271
20
-4.21607
11
7.56271
21
-4.21607
0
LINE
8
BLACK
6
CONTINUOUS
10
7.56271
20
-4.21607
11
7.56271
21
-4.21607
0
LINE
8
BLACK
6
CONTINUOUS
10
7.56271
20
-4.21607
11
7.56629
21
-4.21535
0
LINE
8
BLACK
6
CONTINUOUS
10
7.56629
20
-4.21535
11
7.56993
21
-4.21535
0
LINE
8
BLACK
6
CONTINUOUS
10
7.56993
20
-4.21535
11
7.57351
21
-4.21607
0
LINE
8
BLACK
6
CONTINUOUS
10
7.72351
20
-4.21607
11
7.72351
21
-4.21607
0
LINE
8
BLACK
6
CONTINUOUS
10
7.72351
20
-4.21607
11
7.72351
21
-4.21607
0
LINE
8
BLACK
6
CONTINUOUS
10
7.72351
20
-4.21607
11
7.72519
21
-4.21676
0
LINE
8
BLACK
6
CONTINUOUS
10
7.72519
20
-4.21676
11
7.72688
21
-4.21746
0
LINE
8
BLACK
6
CONTINUOUS
10
7.72688
20
-4.21746
11
7.72991
21
-4.21949
0
LINE
8
BLACK
6
CONTINUOUS
10
7.72991
20
-4.21949
11
7.73248
21
-4.22206
0
LINE
8
BLACK
6
CONTINUOUS
10
7.73248
20
-4.22206
11
7.73451
21
-4.22509
0
LINE
8
BLACK
6
CONTINUOUS
10
7.73451
20
-4.22509
11
7.7359
21
-4.22846
0
LINE
8
BLACK
6
CONTINUOUS
10
7.7359
20
-4.22846
11
7.73661
21
-4.23204
0
LINE
8
BLACK
6
CONTINUOUS
10
7.73661
20
-4.23204
11
7.73661
21
-4.23568
0
LINE
8
BLACK
6
CONTINUOUS
10
7.73661
20
-4.23568
11
7.7359
21
-4.23926
0
LINE
8
BLACK
6
CONTINUOUS
10
7.7359
20
-4.23926
11
7.73451
21
-4.24262
0
LINE
8
BLACK
6
CONTINUOUS
10
7.73451
20
-4.24262
11
7.73248
21
-4.24565
0
LINE
8
BLACK
6
CONTINUOUS
10
7.73248
20
-4.24565
11
7.72991
21
-4.24823
0
LINE
8
BLACK
6
CONTINUOUS
10
7.72991
20
-4.24823
11
7.72688
21
-4.25026
0
LINE
8
BLACK
6
CONTINUOUS
10
7.72688
20
-4.25026
11
7.72519
21
-4.25095
0
LINE
8
BLACK
6
CONTINUOUS
10
7.72519
20
-4.25095
11
7.72351
21
-4.25165
0
LINE
8
BLACK
6
CONTINUOUS
10
7.72351
20
-4.25165
11
7.72351
21
-4.25165
0
LINE
8
BLACK
6
CONTINUOUS
10
7.72351
20
-4.25165
11
7.72351
21
-4.25165
0
LINE
8
BLACK
6
CONTINUOUS
10
7.72351
20
-4.25165
11
7.71993
21
-4.25236
0
LINE
8
BLACK
6
CONTINUOUS
10
7.71993
20
-4.25236
11
7.71629
21
-4.25236
0
LINE
8
BLACK
6
CONTINUOUS
10
7.71629
20
-4.25236
11
7.71271
21
-4.25165
0
LINE
8
BLACK
6
CONTINUOUS
10
7.71271
20
-4.25165
11
7.71271
21
-4.25165
0
LINE
8
BLACK
6
CONTINUOUS
10
7.71271
20
-4.25165
11
7.71271
21
-4.25165
0
LINE
8
BLACK
6
CONTINUOUS
10
7.71271
20
-4.25165
11
7.71103
21
-4.25095
0
LINE
8
BLACK
6
CONTINUOUS
10
7.71103
20
-4.25095
11
7.70935
21
-4.25026
0
LINE
8
BLACK
6
CONTINUOUS
10
7.70935
20
-4.25026
11
7.70631
21
-4.24823
0
LINE
8
BLACK
6
CONTINUOUS
10
7.70631
20
-4.24823
11
7.70374
21
-4.24565
0
LINE
8
BLACK
6
CONTINUOUS
10
7.70374
20
-4.24565
11
7.70171
21
-4.24262
0
LINE
8
BLACK
6
CONTINUOUS
10
7.70171
20
-4.24262
11
7.70032
21
-4.23926
0
LINE
8
BLACK
6
CONTINUOUS
10
7.70032
20
-4.23926
11
7.69961
21
-4.23568
0
LINE
8
BLACK
6
CONTINUOUS
10
7.69961
20
-4.23568
11
7.69961
21
-4.23204
0
LINE
8
BLACK
6
CONTINUOUS
10
7.69961
20
-4.23204
11
7.70032
21
-4.22846
0
LINE
8
BLACK
6
CONTINUOUS
10
7.70032
20
-4.22846
11
7.70171
21
-4.22509
0
LINE
8
BLACK
6
CONTINUOUS
10
7.70171
20
-4.22509
11
7.70374
21
-4.22206
0
LINE
8
BLACK
6
CONTINUOUS
10
7.70374
20
-4.22206
11
7.70631
21
-4.21949
0
LINE
8
BLACK
6
CONTINUOUS
10
7.70631
20
-4.21949
11
7.70935
21
-4.21746
0
LINE
8
BLACK
6
CONTINUOUS
10
7.70935
20
-4.21746
11
7.71103
21
-4.21676
0
LINE
8
BLACK
6
CONTINUOUS
10
7.71103
20
-4.21676
11
7.71271
21
-4.21607
0
LINE
8
BLACK
6
CONTINUOUS
10
7.71271
20
-4.21607
11
7.71271
21
-4.21607
0
LINE
8
BLACK
6
CONTINUOUS
10
7.71271
20
-4.21607
11
7.71271
21
-4.21607
0
LINE
8
BLACK
6
CONTINUOUS
10
7.71271
20
-4.21607
11
7.71629
21
-4.21535
0
LINE
8
BLACK
6
CONTINUOUS
10
7.71629
20
-4.21535
11
7.71993
21
-4.21535
0
LINE
8
BLACK
6
CONTINUOUS
10
7.71993
20
-4.21535
11
7.72351
21
-4.21607
0
LINE
8
BLACK
6
CONTINUOUS
10
7.62351
20
-4.21607
11
7.62351
21
-4.21607
0
LINE
8
BLACK
6
CONTINUOUS
10
7.62351
20
-4.21607
11
7.62351
21
-4.21607
0
LINE
8
BLACK
6
CONTINUOUS
10
7.62351
20
-4.21607
11
7.62519
21
-4.21676
0
LINE
8
BLACK
6
CONTINUOUS
10
7.62519
20
-4.21676
11
7.62688
21
-4.21746
0
LINE
8
BLACK
6
CONTINUOUS
10
7.62688
20
-4.21746
11
7.62991
21
-4.21949
0
LINE
8
BLACK
6
CONTINUOUS
10
7.62991
20
-4.21949
11
7.63248
21
-4.22206
0
LINE
8
BLACK
6
CONTINUOUS
10
7.63248
20
-4.22206
11
7.63451
21
-4.22509
0
LINE
8
BLACK
6
CONTINUOUS
10
7.63451
20
-4.22509
11
7.6359
21
-4.22846
0
LINE
8
BLACK
6
CONTINUOUS
10
7.6359
20
-4.22846
11
7.63661
21
-4.23204
0
LINE
8
BLACK
6
CONTINUOUS
10
7.63661
20
-4.23204
11
7.63661
21
-4.23568
0
LINE
8
BLACK
6
CONTINUOUS
10
7.63661
20
-4.23568
11
7.6359
21
-4.23926
0
LINE
8
BLACK
6
CONTINUOUS
10
7.6359
20
-4.23926
11
7.63451
21
-4.24262
0
LINE
8
BLACK
6
CONTINUOUS
10
7.63451
20
-4.24262
11
7.63248
21
-4.24565
0
LINE
8
BLACK
6
CONTINUOUS
10
7.63248
20
-4.24565
11
7.62991
21
-4.24823
0
LINE
8
BLACK
6
CONTINUOUS
10
7.62991
20
-4.24823
11
7.62688
21
-4.25026
0
LINE
8
BLACK
6
CONTINUOUS
10
7.62688
20
-4.25026
11
7.62519
21
-4.25095
0
LINE
8
BLACK
6
CONTINUOUS
10
7.62519
20
-4.25095
11
7.62351
21
-4.25165
0
LINE
8
BLACK
6
CONTINUOUS
10
7.62351
20
-4.25165
11
7.62351
21
-4.25165
0
LINE
8
BLACK
6
CONTINUOUS
10
7.62351
20
-4.25165
11
7.62351
21
-4.25165
0
LINE
8
BLACK
6
CONTINUOUS
10
7.62351
20
-4.25165
11
7.61993
21
-4.25236
0
LINE
8
BLACK
6
CONTINUOUS
10
7.61993
20
-4.25236
11
7.61629
21
-4.25236
0
LINE
8
BLACK
6
CONTINUOUS
10
7.61629
20
-4.25236
11
7.61271
21
-4.25165
0
LINE
8
BLACK
6
CONTINUOUS
10
7.61271
20
-4.25165
11
7.61271
21
-4.25165
0
LINE
8
BLACK
6
CONTINUOUS
10
7.61271
20
-4.25165
11
7.61271
21
-4.25165
0
LINE
8
BLACK
6
CONTINUOUS
10
7.61271
20
-4.25165
11
7.61103
21
-4.25095
0
LINE
8
BLACK
6
CONTINUOUS
10
7.61103
20
-4.25095
11
7.60935
21
-4.25026
0
LINE
8
BLACK
6
CONTINUOUS
10
7.60935
20
-4.25026
11
7.60631
21
-4.24823
0
LINE
8
BLACK
6
CONTINUOUS
10
7.60631
20
-4.24823
11
7.60374
21
-4.24565
0
LINE
8
BLACK
6
CONTINUOUS
10
7.60374
20
-4.24565
11
7.60171
21
-4.24262
0
LINE
8
BLACK
6
CONTINUOUS
10
7.60171
20
-4.24262
11
7.60032
21
-4.23926
0
LINE
8
BLACK
6
CONTINUOUS
10
7.60032
20
-4.23926
11
7.59961
21
-4.23568
0
LINE
8
BLACK
6
CONTINUOUS
10
7.59961
20
-4.23568
11
7.59961
21
-4.23204
0
LINE
8
BLACK
6
CONTINUOUS
10
7.59961
20
-4.23204
11
7.60032
21
-4.22846
0
LINE
8
BLACK
6
CONTINUOUS
10
7.60032
20
-4.22846
11
7.60171
21
-4.22509
0
LINE
8
BLACK
6
CONTINUOUS
10
7.60171
20
-4.22509
11
7.60374
21
-4.22206
0
LINE
8
BLACK
6
CONTINUOUS
10
7.60374
20
-4.22206
11
7.60631
21
-4.21949
0
LINE
8
BLACK
6
CONTINUOUS
10
7.60631
20
-4.21949
11
7.60935
21
-4.21746
0
LINE
8
BLACK
6
CONTINUOUS
10
7.60935
20
-4.21746
11
7.61103
21
-4.21676
0
LINE
8
BLACK
6
CONTINUOUS
10
7.61103
20
-4.21676
11
7.61271
21
-4.21607
0
LINE
8
BLACK
6
CONTINUOUS
10
7.61271
20
-4.21607
11
7.61271
21
-4.21607
0
LINE
8
BLACK
6
CONTINUOUS
10
7.61271
20
-4.21607
11
7.61271
21
-4.21607
0
LINE
8
BLACK
6
CONTINUOUS
10
7.61271
20
-4.21607
11
7.61629
21
-4.21535
0
LINE
8
BLACK
6
CONTINUOUS
10
7.61629
20
-4.21535
11
7.61993
21
-4.21535
0
LINE
8
BLACK
6
CONTINUOUS
10
7.61993
20
-4.21535
11
7.62351
21
-4.21607
0
LINE
8
BLACK
6
CONTINUOUS
10
7.67351
20
-4.21607
11
7.67351
21
-4.21607
0
LINE
8
BLACK
6
CONTINUOUS
10
7.67351
20
-4.21607
11
7.67351
21
-4.21607
0
LINE
8
BLACK
6
CONTINUOUS
10
7.67351
20
-4.21607
11
7.67519
21
-4.21676
0
LINE
8
BLACK
6
CONTINUOUS
10
7.67519
20
-4.21676
11
7.67688
21
-4.21746
0
LINE
8
BLACK
6
CONTINUOUS
10
7.67688
20
-4.21746
11
7.67991
21
-4.21949
0
LINE
8
BLACK
6
CONTINUOUS
10
7.67991
20
-4.21949
11
7.68248
21
-4.22206
0
LINE
8
BLACK
6
CONTINUOUS
10
7.68248
20
-4.22206
11
7.68451
21
-4.22509
0
LINE
8
BLACK
6
CONTINUOUS
10
7.68451
20
-4.22509
11
7.6859
21
-4.22846
0
LINE
8
BLACK
6
CONTINUOUS
10
7.6859
20
-4.22846
11
7.68661
21
-4.23204
0
LINE
8
BLACK
6
CONTINUOUS
10
7.68661
20
-4.23204
11
7.68661
21
-4.23568
0
LINE
8
BLACK
6
CONTINUOUS
10
7.68661
20
-4.23568
11
7.6859
21
-4.23926
0
LINE
8
BLACK
6
CONTINUOUS
10
7.6859
20
-4.23926
11
7.68451
21
-4.24262
0
LINE
8
BLACK
6
CONTINUOUS
10
7.68451
20
-4.24262
11
7.68248
21
-4.24565
0
LINE
8
BLACK
6
CONTINUOUS
10
7.68248
20
-4.24565
11
7.67991
21
-4.24823
0
LINE
8
BLACK
6
CONTINUOUS
10
7.67991
20
-4.24823
11
7.67688
21
-4.25026
0
LINE
8
BLACK
6
CONTINUOUS
10
7.67688
20
-4.25026
11
7.67519
21
-4.25095
0
LINE
8
BLACK
6
CONTINUOUS
10
7.67519
20
-4.25095
11
7.67351
21
-4.25165
0
LINE
8
BLACK
6
CONTINUOUS
10
7.67351
20
-4.25165
11
7.67351
21
-4.25165
0
LINE
8
BLACK
6
CONTINUOUS
10
7.67351
20
-4.25165
11
7.67351
21
-4.25165
0
LINE
8
BLACK
6
CONTINUOUS
10
7.67351
20
-4.25165
11
7.66993
21
-4.25236
0
LINE
8
BLACK
6
CONTINUOUS
10
7.66993
20
-4.25236
11
7.66629
21
-4.25236
0
LINE
8
BLACK
6
CONTINUOUS
10
7.66629
20
-4.25236
11
7.66271
21
-4.25165
0
LINE
8
BLACK
6
CONTINUOUS
10
7.66271
20
-4.25165
11
7.66271
21
-4.25165
0
LINE
8
BLACK
6
CONTINUOUS
10
7.66271
20
-4.25165
11
7.66271
21
-4.25165
0
LINE
8
BLACK
6
CONTINUOUS
10
7.66271
20
-4.25165
11
7.66103
21
-4.25095
0
LINE
8
BLACK
6
CONTINUOUS
10
7.66103
20
-4.25095
11
7.65935
21
-4.25026
0
LINE
8
BLACK
6
CONTINUOUS
10
7.65935
20
-4.25026
11
7.65631
21
-4.24823
0
LINE
8
BLACK
6
CONTINUOUS
10
7.65631
20
-4.24823
11
7.65374
21
-4.24565
0
LINE
8
BLACK
6
CONTINUOUS
10
7.65374
20
-4.24565
11
7.65171
21
-4.24262
0
LINE
8
BLACK
6
CONTINUOUS
10
7.65171
20
-4.24262
11
7.65032
21
-4.23926
0
LINE
8
BLACK
6
CONTINUOUS
10
7.65032
20
-4.23926
11
7.64961
21
-4.23568
0
LINE
8
BLACK
6
CONTINUOUS
10
7.64961
20
-4.23568
11
7.64961
21
-4.23204
0
LINE
8
BLACK
6
CONTINUOUS
10
7.64961
20
-4.23204
11
7.65032
21
-4.22846
0
LINE
8
BLACK
6
CONTINUOUS
10
7.65032
20
-4.22846
11
7.65171
21
-4.22509
0
LINE
8
BLACK
6
CONTINUOUS
10
7.65171
20
-4.22509
11
7.65374
21
-4.22206
0
LINE
8
BLACK
6
CONTINUOUS
10
7.65374
20
-4.22206
11
7.65631
21
-4.21949
0
LINE
8
BLACK
6
CONTINUOUS
10
7.65631
20
-4.21949
11
7.65935
21
-4.21746
0
LINE
8
BLACK
6
CONTINUOUS
10
7.65935
20
-4.21746
11
7.66103
21
-4.21676
0
LINE
8
BLACK
6
CONTINUOUS
10
7.66103
20
-4.21676
11
7.66271
21
-4.21607
0
LINE
8
BLACK
6
CONTINUOUS
10
7.66271
20
-4.21607
11
7.66271
21
-4.21607
0
LINE
8
BLACK
6
CONTINUOUS
10
7.66271
20
-4.21607
11
7.66271
21
-4.21607
0
LINE
8
BLACK
6
CONTINUOUS
10
7.66271
20
-4.21607
11
7.66629
21
-4.21535
0
LINE
8
BLACK
6
CONTINUOUS
10
7.66629
20
-4.21535
11
7.66993
21
-4.21535
0
LINE
8
BLACK
6
CONTINUOUS
10
7.66993
20
-4.21535
11
7.67351
21
-4.21607
0
LINE
8
BLACK
6
CONTINUOUS
10
7.52351
20
-4.21607
11
7.52351
21
-4.21607
0
LINE
8
BLACK
6
CONTINUOUS
10
7.52351
20
-4.21607
11
7.52351
21
-4.21607
0
LINE
8
BLACK
6
CONTINUOUS
10
7.52351
20
-4.21607
11
7.52519
21
-4.21676
0
LINE
8
BLACK
6
CONTINUOUS
10
7.52519
20
-4.21676
11
7.52688
21
-4.21746
0
LINE
8
BLACK
6
CONTINUOUS
10
7.52688
20
-4.21746
11
7.52991
21
-4.21949
0
LINE
8
BLACK
6
CONTINUOUS
10
7.52991
20
-4.21949
11
7.53248
21
-4.22206
0
LINE
8
BLACK
6
CONTINUOUS
10
7.53248
20
-4.22206
11
7.53451
21
-4.22509
0
LINE
8
BLACK
6
CONTINUOUS
10
7.53451
20
-4.22509
11
7.5359
21
-4.22846
0
LINE
8
BLACK
6
CONTINUOUS
10
7.5359
20
-4.22846
11
7.53661
21
-4.23204
0
LINE
8
BLACK
6
CONTINUOUS
10
7.53661
20
-4.23204
11
7.53661
21
-4.23568
0
LINE
8
BLACK
6
CONTINUOUS
10
7.53661
20
-4.23568
11
7.5359
21
-4.23926
0
LINE
8
BLACK
6
CONTINUOUS
10
7.5359
20
-4.23926
11
7.53451
21
-4.24262
0
LINE
8
BLACK
6
CONTINUOUS
10
7.53451
20
-4.24262
11
7.53248
21
-4.24565
0
LINE
8
BLACK
6
CONTINUOUS
10
7.53248
20
-4.24565
11
7.52991
21
-4.24823
0
LINE
8
BLACK
6
CONTINUOUS
10
7.52991
20
-4.24823
11
7.52688
21
-4.25026
0
LINE
8
BLACK
6
CONTINUOUS
10
7.52688
20
-4.25026
11
7.52519
21
-4.25095
0
LINE
8
BLACK
6
CONTINUOUS
10
7.52519
20
-4.25095
11
7.52351
21
-4.25165
0
LINE
8
BLACK
6
CONTINUOUS
10
7.52351
20
-4.25165
11
7.52351
21
-4.25165
0
LINE
8
BLACK
6
CONTINUOUS
10
7.52351
20
-4.25165
11
7.52351
21
-4.25165
0
LINE
8
BLACK
6
CONTINUOUS
10
7.52351
20
-4.25165
11
7.51993
21
-4.25236
0
LINE
8
BLACK
6
CONTINUOUS
10
7.51993
20
-4.25236
11
7.51629
21
-4.25236
0
LINE
8
BLACK
6
CONTINUOUS
10
7.51629
20
-4.25236
11
7.51271
21
-4.25165
0
LINE
8
BLACK
6
CONTINUOUS
10
7.51271
20
-4.25165
11
7.51271
21
-4.25165
0
LINE
8
BLACK
6
CONTINUOUS
10
7.51271
20
-4.25165
11
7.51271
21
-4.25165
0
LINE
8
BLACK
6
CONTINUOUS
10
7.51271
20
-4.25165
11
7.51103
21
-4.25095
0
LINE
8
BLACK
6
CONTINUOUS
10
7.51103
20
-4.25095
11
7.50935
21
-4.25026
0
LINE
8
BLACK
6
CONTINUOUS
10
7.50935
20
-4.25026
11
7.50631
21
-4.24823
0
LINE
8
BLACK
6
CONTINUOUS
10
7.50631
20
-4.24823
11
7.50374
21
-4.24565
0
LINE
8
BLACK
6
CONTINUOUS
10
7.50374
20
-4.24565
11
7.50171
21
-4.24262
0
LINE
8
BLACK
6
CONTINUOUS
10
7.50171
20
-4.24262
11
7.50032
21
-4.23926
0
LINE
8
BLACK
6
CONTINUOUS
10
7.50032
20
-4.23926
11
7.49961
21
-4.23568
0
LINE
8
BLACK
6
CONTINUOUS
10
7.49961
20
-4.23568
11
7.49961
21
-4.23204
0
LINE
8
BLACK
6
CONTINUOUS
10
7.49961
20
-4.23204
11
7.50032
21
-4.22846
0
LINE
8
BLACK
6
CONTINUOUS
10
7.50032
20
-4.22846
11
7.50171
21
-4.22509
0
LINE
8
BLACK
6
CONTINUOUS
10
7.50171
20
-4.22509
11
7.50374
21
-4.22206
0
LINE
8
BLACK
6
CONTINUOUS
10
7.50374
20
-4.22206
11
7.50631
21
-4.21949
0
LINE
8
BLACK
6
CONTINUOUS
10
7.50631
20
-4.21949
11
7.50935
21
-4.21746
0
LINE
8
BLACK
6
CONTINUOUS
10
7.50935
20
-4.21746
11
7.51103
21
-4.21676
0
LINE
8
BLACK
6
CONTINUOUS
10
7.51103
20
-4.21676
11
7.51271
21
-4.21607
0
LINE
8
BLACK
6
CONTINUOUS
10
7.51271
20
-4.21607
11
7.51271
21
-4.21607
0
LINE
8
BLACK
6
CONTINUOUS
10
7.51271
20
-4.21607
11
7.51271
21
-4.21607
0
LINE
8
BLACK
6
CONTINUOUS
10
7.51271
20
-4.21607
11
7.51629
21
-4.21535
0
LINE
8
BLACK
6
CONTINUOUS
10
7.51629
20
-4.21535
11
7.51993
21
-4.21535
0
LINE
8
BLACK
6
CONTINUOUS
10
7.51993
20
-4.21535
11
7.52351
21
-4.21607
0
LINE
8
BLACK
6
CONTINUOUS
10
5.47751
20
-4.01398
11
5.4845
21
-4.01537
0
LINE
8
BLACK
6
CONTINUOUS
10
5.4845
20
-4.01537
11
5.49202
21
-4.01848
0
LINE
8
BLACK
6
CONTINUOUS
10
5.49202
20
-4.01848
11
5.49879
21
-4.02301
0
LINE
8
BLACK
6
CONTINUOUS
10
5.49879
20
-4.02301
11
5.50455
21
-4.02877
0
LINE
8
BLACK
6
CONTINUOUS
10
5.50455
20
-4.02877
11
5.50907
21
-4.03554
0
LINE
8
BLACK
6
CONTINUOUS
10
5.50907
20
-4.03554
11
5.51219
21
-4.04306
0
LINE
8
BLACK
6
CONTINUOUS
10
5.51219
20
-4.04306
11
5.51378
21
-4.05105
0
LINE
8
BLACK
6
CONTINUOUS
10
5.51378
20
-4.05105
11
5.51378
21
-4.05919
0
LINE
8
BLACK
6
CONTINUOUS
10
5.51378
20
-4.05919
11
5.51219
21
-4.06718
0
LINE
8
BLACK
6
CONTINUOUS
10
5.51219
20
-4.06718
11
5.50907
21
-4.0747
0
LINE
8
BLACK
6
CONTINUOUS
10
5.50907
20
-4.0747
11
5.50455
21
-4.08147
0
LINE
8
BLACK
6
CONTINUOUS
10
5.50455
20
-4.08147
11
5.49879
21
-4.08723
0
LINE
8
BLACK
6
CONTINUOUS
10
5.49879
20
-4.08723
11
5.49202
21
-4.09175
0
LINE
8
BLACK
6
CONTINUOUS
10
5.49202
20
-4.09175
11
5.4845
21
-4.09487
0
LINE
8
BLACK
6
CONTINUOUS
10
5.4845
20
-4.09487
11
5.47751
21
-4.09626
0
LINE
8
BLACK
6
CONTINUOUS
10
5.47751
20
-4.09626
11
5.47651
21
-4.09646
0
LINE
8
BLACK
6
CONTINUOUS
10
5.47651
20
-4.09646
11
5.46837
21
-4.09646
0
LINE
8
BLACK
6
CONTINUOUS
10
5.46837
20
-4.09646
11
5.46737
21
-4.09626
0
LINE
8
BLACK
6
CONTINUOUS
10
5.46737
20
-4.09626
11
5.46038
21
-4.09487
0
LINE
8
BLACK
6
CONTINUOUS
10
5.46038
20
-4.09487
11
5.45286
21
-4.09175
0
LINE
8
BLACK
6
CONTINUOUS
10
5.45286
20
-4.09175
11
5.44609
21
-4.08723
0
LINE
8
BLACK
6
CONTINUOUS
10
5.44609
20
-4.08723
11
5.44033
21
-4.08147
0
LINE
8
BLACK
6
CONTINUOUS
10
5.44033
20
-4.08147
11
5.43581
21
-4.0747
0
LINE
8
BLACK
6
CONTINUOUS
10
5.43581
20
-4.0747
11
5.43269
21
-4.06718
0
LINE
8
BLACK
6
CONTINUOUS
10
5.43269
20
-4.06718
11
5.4311
21
-4.05919
0
LINE
8
BLACK
6
CONTINUOUS
10
5.4311
20
-4.05919
11
5.4311
21
-4.05105
0
LINE
8
BLACK
6
CONTINUOUS
10
5.4311
20
-4.05105
11
5.43269
21
-4.04306
0
LINE
8
BLACK
6
CONTINUOUS
10
5.43269
20
-4.04306
11
5.43581
21
-4.03554
0
LINE
8
BLACK
6
CONTINUOUS
10
5.43581
20
-4.03554
11
5.44033
21
-4.02877
0
LINE
8
BLACK
6
CONTINUOUS
10
5.44033
20
-4.02877
11
5.44609
21
-4.02301
0
LINE
8
BLACK
6
CONTINUOUS
10
5.44609
20
-4.02301
11
5.45286
21
-4.01848
0
LINE
8
BLACK
6
CONTINUOUS
10
5.45286
20
-4.01848
11
5.46038
21
-4.01537
0
LINE
8
BLACK
6
CONTINUOUS
10
5.46038
20
-4.01537
11
5.46737
21
-4.01398
0
LINE
8
BLACK
6
CONTINUOUS
10
5.46737
20
-4.01398
11
5.46837
21
-4.01378
0
LINE
8
BLACK
6
CONTINUOUS
10
5.46837
20
-4.01378
11
5.47651
21
-4.01378
0
LINE
8
BLACK
6
CONTINUOUS
10
5.47651
20
-4.01378
11
5.47751
21
-4.01398
0
LINE
8
BLACK
6
CONTINUOUS
10
5.21378
20
-4.09646
11
5.1311
21
-4.09646
0
LINE
8
BLACK
6
CONTINUOUS
10
5.1311
20
-4.09646
11
5.1311
21
-4.01378
0
LINE
8
BLACK
6
CONTINUOUS
10
5.1311
20
-4.01378
11
5.21378
21
-4.01378
0
LINE
8
BLACK
6
CONTINUOUS
10
5.21378
20
-4.01378
11
5.21378
21
-4.09646
0
LINE
8
BLACK
6
CONTINUOUS
10
5.57751
20
-4.01398
11
5.5845
21
-4.01537
0
LINE
8
BLACK
6
CONTINUOUS
10
5.5845
20
-4.01537
11
5.59202
21
-4.01848
0
LINE
8
BLACK
6
CONTINUOUS
10
5.59202
20
-4.01848
11
5.59879
21
-4.02301
0
LINE
8
BLACK
6
CONTINUOUS
10
5.59879
20
-4.02301
11
5.60455
21
-4.02877
0
LINE
8
BLACK
6
CONTINUOUS
10
5.60455
20
-4.02877
11
5.60907
21
-4.03554
0
LINE
8
BLACK
6
CONTINUOUS
10
5.60907
20
-4.03554
11
5.61219
21
-4.04306
0
LINE
8
BLACK
6
CONTINUOUS
10
5.61219
20
-4.04306
11
5.61378
21
-4.05105
0
LINE
8
BLACK
6
CONTINUOUS
10
5.61378
20
-4.05105
11
5.61378
21
-4.05919
0
LINE
8
BLACK
6
CONTINUOUS
10
5.61378
20
-4.05919
11
5.61219
21
-4.06718
0
LINE
8
BLACK
6
CONTINUOUS
10
5.61219
20
-4.06718
11
5.60907
21
-4.0747
0
LINE
8
BLACK
6
CONTINUOUS
10
5.60907
20
-4.0747
11
5.60455
21
-4.08147
0
LINE
8
BLACK
6
CONTINUOUS
10
5.60455
20
-4.08147
11
5.59879
21
-4.08723
0
LINE
8
BLACK
6
CONTINUOUS
10
5.59879
20
-4.08723
11
5.59202
21
-4.09175
0
LINE
8
BLACK
6
CONTINUOUS
10
5.59202
20
-4.09175
11
5.5845
21
-4.09487
0
LINE
8
BLACK
6
CONTINUOUS
10
5.5845
20
-4.09487
11
5.57751
21
-4.09626
0
LINE
8
BLACK
6
CONTINUOUS
10
5.57751
20
-4.09626
11
5.57651
21
-4.09646
0
LINE
8
BLACK
6
CONTINUOUS
10
5.57651
20
-4.09646
11
5.56837
21
-4.09646
0
LINE
8
BLACK
6
CONTINUOUS
10
5.56837
20
-4.09646
11
5.56737
21
-4.09626
0
LINE
8
BLACK
6
CONTINUOUS
10
5.56737
20
-4.09626
11
5.56038
21
-4.09487
0
LINE
8
BLACK
6
CONTINUOUS
10
5.56038
20
-4.09487
11
5.55286
21
-4.09175
0
LINE
8
BLACK
6
CONTINUOUS
10
5.55286
20
-4.09175
11
5.54609
21
-4.08723
0
LINE
8
BLACK
6
CONTINUOUS
10
5.54609
20
-4.08723
11
5.54033
21
-4.08147
0
LINE
8
BLACK
6
CONTINUOUS
10
5.54033
20
-4.08147
11
5.53581
21
-4.0747
0
LINE
8
BLACK
6
CONTINUOUS
10
5.53581
20
-4.0747
11
5.53269
21
-4.06718
0
LINE
8
BLACK
6
CONTINUOUS
10
5.53269
20
-4.06718
11
5.5311
21
-4.05919
0
LINE
8
BLACK
6
CONTINUOUS
10
5.5311
20
-4.05919
11
5.5311
21
-4.05105
0
LINE
8
BLACK
6
CONTINUOUS
10
5.5311
20
-4.05105
11
5.53269
21
-4.04306
0
LINE
8
BLACK
6
CONTINUOUS
10
5.53269
20
-4.04306
11
5.53581
21
-4.03554
0
LINE
8
BLACK
6
CONTINUOUS
10
5.53581
20
-4.03554
11
5.54033
21
-4.02877
0
LINE
8
BLACK
6
CONTINUOUS
10
5.54033
20
-4.02877
11
5.54609
21
-4.02301
0
LINE
8
BLACK
6
CONTINUOUS
10
5.54609
20
-4.02301
11
5.55286
21
-4.01848
0
LINE
8
BLACK
6
CONTINUOUS
10
5.55286
20
-4.01848
11
5.56038
21
-4.01537
0
LINE
8
BLACK
6
CONTINUOUS
10
5.56038
20
-4.01537
11
5.56737
21
-4.01398
0
LINE
8
BLACK
6
CONTINUOUS
10
5.56737
20
-4.01398
11
5.56837
21
-4.01378
0
LINE
8
BLACK
6
CONTINUOUS
10
5.56837
20
-4.01378
11
5.57651
21
-4.01378
0
LINE
8
BLACK
6
CONTINUOUS
10
5.57651
20
-4.01378
11
5.57751
21
-4.01398
0
LINE
8
BLACK
6
CONTINUOUS
10
5.37751
20
-4.01398
11
5.3845
21
-4.01537
0
LINE
8
BLACK
6
CONTINUOUS
10
5.3845
20
-4.01537
11
5.39202
21
-4.01848
0
LINE
8
BLACK
6
CONTINUOUS
10
5.39202
20
-4.01848
11
5.39879
21
-4.02301
0
LINE
8
BLACK
6
CONTINUOUS
10
5.39879
20
-4.02301
11
5.40455
21
-4.02877
0
LINE
8
BLACK
6
CONTINUOUS
10
5.40455
20
-4.02877
11
5.40907
21
-4.03554
0
LINE
8
BLACK
6
CONTINUOUS
10
5.40907
20
-4.03554
11
5.41219
21
-4.04306
0
LINE
8
BLACK
6
CONTINUOUS
10
5.41219
20
-4.04306
11
5.41378
21
-4.05105
0
LINE
8
BLACK
6
CONTINUOUS
10
5.41378
20
-4.05105
11
5.41378
21
-4.05919
0
LINE
8
BLACK
6
CONTINUOUS
10
5.41378
20
-4.05919
11
5.41219
21
-4.06718
0
LINE
8
BLACK
6
CONTINUOUS
10
5.41219
20
-4.06718
11
5.40907
21
-4.0747
0
LINE
8
BLACK
6
CONTINUOUS
10
5.40907
20
-4.0747
11
5.40455
21
-4.08147
0
LINE
8
BLACK
6
CONTINUOUS
10
5.40455
20
-4.08147
11
5.39879
21
-4.08723
0
LINE
8
BLACK
6
CONTINUOUS
10
5.39879
20
-4.08723
11
5.39202
21
-4.09175
0
LINE
8
BLACK
6
CONTINUOUS
10
5.39202
20
-4.09175
11
5.3845
21
-4.09487
0
LINE
8
BLACK
6
CONTINUOUS
10
5.3845
20
-4.09487
11
5.37751
21
-4.09626
0
LINE
8
BLACK
6
CONTINUOUS
10
5.37751
20
-4.09626
11
5.37651
21
-4.09646
0
LINE
8
BLACK
6
CONTINUOUS
10
5.37651
20
-4.09646
11
5.36837
21
-4.09646
0
LINE
8
BLACK
6
CONTINUOUS
10
5.36837
20
-4.09646
11
5.36737
21
-4.09626
0
LINE
8
BLACK
6
CONTINUOUS
10
5.36737
20
-4.09626
11
5.36038
21
-4.09487
0
LINE
8
BLACK
6
CONTINUOUS
10
5.36038
20
-4.09487
11
5.35286
21
-4.09175
0
LINE
8
BLACK
6
CONTINUOUS
10
5.35286
20
-4.09175
11
5.34609
21
-4.08723
0
LINE
8
BLACK
6
CONTINUOUS
10
5.34609
20
-4.08723
11
5.34033
21
-4.08147
0
LINE
8
BLACK
6
CONTINUOUS
10
5.34033
20
-4.08147
11
5.33581
21
-4.0747
0
LINE
8
BLACK
6
CONTINUOUS
10
5.33581
20
-4.0747
11
5.33269
21
-4.06718
0
LINE
8
BLACK
6
CONTINUOUS
10
5.33269
20
-4.06718
11
5.3311
21
-4.05919
0
LINE
8
BLACK
6
CONTINUOUS
10
5.3311
20
-4.05919
11
5.3311
21
-4.05105
0
LINE
8
BLACK
6
CONTINUOUS
10
5.3311
20
-4.05105
11
5.33269
21
-4.04306
0
LINE
8
BLACK
6
CONTINUOUS
10
5.33269
20
-4.04306
11
5.33581
21
-4.03554
0
LINE
8
BLACK
6
CONTINUOUS
10
5.33581
20
-4.03554
11
5.34033
21
-4.02877
0
LINE
8
BLACK
6
CONTINUOUS
10
5.34033
20
-4.02877
11
5.34609
21
-4.02301
0
LINE
8
BLACK
6
CONTINUOUS
10
5.34609
20
-4.02301
11
5.35286
21
-4.01848
0
LINE
8
BLACK
6
CONTINUOUS
10
5.35286
20
-4.01848
11
5.36038
21
-4.01537
0
LINE
8
BLACK
6
CONTINUOUS
10
5.36038
20
-4.01537
11
5.36737
21
-4.01398
0
LINE
8
BLACK
6
CONTINUOUS
10
5.36737
20
-4.01398
11
5.36837
21
-4.01378
0
LINE
8
BLACK
6
CONTINUOUS
10
5.36837
20
-4.01378
11
5.37651
21
-4.01378
0
LINE
8
BLACK
6
CONTINUOUS
10
5.37651
20
-4.01378
11
5.37751
21
-4.01398
0
LINE
8
BLACK
6
CONTINUOUS
10
5.27751
20
-4.01398
11
5.2845
21
-4.01537
0
LINE
8
BLACK
6
CONTINUOUS
10
5.2845
20
-4.01537
11
5.29202
21
-4.01848
0
LINE
8
BLACK
6
CONTINUOUS
10
5.29202
20
-4.01848
11
5.29879
21
-4.02301
0
LINE
8
BLACK
6
CONTINUOUS
10
5.29879
20
-4.02301
11
5.30455
21
-4.02877
0
LINE
8
BLACK
6
CONTINUOUS
10
5.30455
20
-4.02877
11
5.30907
21
-4.03554
0
LINE
8
BLACK
6
CONTINUOUS
10
5.30907
20
-4.03554
11
5.31219
21
-4.04306
0
LINE
8
BLACK
6
CONTINUOUS
10
5.31219
20
-4.04306
11
5.31378
21
-4.05105
0
LINE
8
BLACK
6
CONTINUOUS
10
5.31378
20
-4.05105
11
5.31378
21
-4.05919
0
LINE
8
BLACK
6
CONTINUOUS
10
5.31378
20
-4.05919
11
5.31219
21
-4.06718
0
LINE
8
BLACK
6
CONTINUOUS
10
5.31219
20
-4.06718
11
5.30907
21
-4.0747
0
LINE
8
BLACK
6
CONTINUOUS
10
5.30907
20
-4.0747
11
5.30455
21
-4.08147
0
LINE
8
BLACK
6
CONTINUOUS
10
5.30455
20
-4.08147
11
5.29879
21
-4.08723
0
LINE
8
BLACK
6
CONTINUOUS
10
5.29879
20
-4.08723
11
5.29202
21
-4.09175
0
LINE
8
BLACK
6
CONTINUOUS
10
5.29202
20
-4.09175
11
5.2845
21
-4.09487
0
LINE
8
BLACK
6
CONTINUOUS
10
5.2845
20
-4.09487
11
5.27751
21
-4.09626
0
LINE
8
BLACK
6
CONTINUOUS
10
5.27751
20
-4.09626
11
5.27651
21
-4.09646
0
LINE
8
BLACK
6
CONTINUOUS
10
5.27651
20
-4.09646
11
5.26837
21
-4.09646
0
LINE
8
BLACK
6
CONTINUOUS
10
5.26837
20
-4.09646
11
5.26737
21
-4.09626
0
LINE
8
BLACK
6
CONTINUOUS
10
5.26737
20
-4.09626
11
5.26038
21
-4.09487
0
LINE
8
BLACK
6
CONTINUOUS
10
5.26038
20
-4.09487
11
5.25286
21
-4.09175
0
LINE
8
BLACK
6
CONTINUOUS
10
5.25286
20
-4.09175
11
5.24609
21
-4.08723
0
LINE
8
BLACK
6
CONTINUOUS
10
5.24609
20
-4.08723
11
5.24033
21
-4.08147
0
LINE
8
BLACK
6
CONTINUOUS
10
5.24033
20
-4.08147
11
5.23581
21
-4.0747
0
LINE
8
BLACK
6
CONTINUOUS
10
5.23581
20
-4.0747
11
5.23269
21
-4.06718
0
LINE
8
BLACK
6
CONTINUOUS
10
5.23269
20
-4.06718
11
5.2311
21
-4.05919
0
LINE
8
BLACK
6
CONTINUOUS
10
5.2311
20
-4.05919
11
5.2311
21
-4.05105
0
LINE
8
BLACK
6
CONTINUOUS
10
5.2311
20
-4.05105
11
5.23269
21
-4.04306
0
LINE
8
BLACK
6
CONTINUOUS
10
5.23269
20
-4.04306
11
5.23581
21
-4.03554
0
LINE
8
BLACK
6
CONTINUOUS
10
5.23581
20
-4.03554
11
5.24033
21
-4.02877
0
LINE
8
BLACK
6
CONTINUOUS
10
5.24033
20
-4.02877
11
5.24609
21
-4.02301
0
LINE
8
BLACK
6
CONTINUOUS
10
5.24609
20
-4.02301
11
5.25286
21
-4.01848
0
LINE
8
BLACK
6
CONTINUOUS
10
5.25286
20
-4.01848
11
5.26038
21
-4.01537
0
LINE
8
BLACK
6
CONTINUOUS
10
5.26038
20
-4.01537
11
5.26737
21
-4.01398
0
LINE
8
BLACK
6
CONTINUOUS
10
5.26737
20
-4.01398
11
5.26837
21
-4.01378
0
LINE
8
BLACK
6
CONTINUOUS
10
5.26837
20
-4.01378
11
5.27651
21
-4.01378
0
LINE
8
BLACK
6
CONTINUOUS
10
5.27651
20
-4.01378
11
5.27751
21
-4.01398
0
LINE
8
BLACK
6
CONTINUOUS
10
5.67751
20
-4.01398
11
5.6845
21
-4.01537
0
LINE
8
BLACK
6
CONTINUOUS
10
5.6845
20
-4.01537
11
5.69202
21
-4.01848
0
LINE
8
BLACK
6
CONTINUOUS
10
5.69202
20
-4.01848
11
5.69879
21
-4.02301
0
LINE
8
BLACK
6
CONTINUOUS
10
5.69879
20
-4.02301
11
5.70455
21
-4.02877
0
LINE
8
BLACK
6
CONTINUOUS
10
5.70455
20
-4.02877
11
5.70907
21
-4.03554
0
LINE
8
BLACK
6
CONTINUOUS
10
5.70907
20
-4.03554
11
5.71219
21
-4.04306
0
LINE
8
BLACK
6
CONTINUOUS
10
5.71219
20
-4.04306
11
5.71378
21
-4.05105
0
LINE
8
BLACK
6
CONTINUOUS
10
5.71378
20
-4.05105
11
5.71378
21
-4.05919
0
LINE
8
BLACK
6
CONTINUOUS
10
5.71378
20
-4.05919
11
5.71219
21
-4.06718
0
LINE
8
BLACK
6
CONTINUOUS
10
5.71219
20
-4.06718
11
5.70907
21
-4.0747
0
LINE
8
BLACK
6
CONTINUOUS
10
5.70907
20
-4.0747
11
5.70455
21
-4.08147
0
LINE
8
BLACK
6
CONTINUOUS
10
5.70455
20
-4.08147
11
5.69879
21
-4.08723
0
LINE
8
BLACK
6
CONTINUOUS
10
5.69879
20
-4.08723
11
5.69202
21
-4.09175
0
LINE
8
BLACK
6
CONTINUOUS
10
5.69202
20
-4.09175
11
5.6845
21
-4.09487
0
LINE
8
BLACK
6
CONTINUOUS
10
5.6845
20
-4.09487
11
5.67751
21
-4.09626
0
LINE
8
BLACK
6
CONTINUOUS
10
5.67751
20
-4.09626
11
5.67651
21
-4.09646
0
LINE
8
BLACK
6
CONTINUOUS
10
5.67651
20
-4.09646
11
5.66837
21
-4.09646
0
LINE
8
BLACK
6
CONTINUOUS
10
5.66837
20
-4.09646
11
5.66737
21
-4.09626
0
LINE
8
BLACK
6
CONTINUOUS
10
5.66737
20
-4.09626
11
5.66038
21
-4.09487
0
LINE
8
BLACK
6
CONTINUOUS
10
5.66038
20
-4.09487
11
5.65286
21
-4.09175
0
LINE
8
BLACK
6
CONTINUOUS
10
5.65286
20
-4.09175
11
5.64609
21
-4.08723
0
LINE
8
BLACK
6
CONTINUOUS
10
5.64609
20
-4.08723
11
5.64033
21
-4.08147
0
LINE
8
BLACK
6
CONTINUOUS
10
5.64033
20
-4.08147
11
5.63581
21
-4.0747
0
LINE
8
BLACK
6
CONTINUOUS
10
5.63581
20
-4.0747
11
5.63269
21
-4.06718
0
LINE
8
BLACK
6
CONTINUOUS
10
5.63269
20
-4.06718
11
5.6311
21
-4.05919
0
LINE
8
BLACK
6
CONTINUOUS
10
5.6311
20
-4.05919
11
5.6311
21
-4.05105
0
LINE
8
BLACK
6
CONTINUOUS
10
5.6311
20
-4.05105
11
5.63269
21
-4.04306
0
LINE
8
BLACK
6
CONTINUOUS
10
5.63269
20
-4.04306
11
5.63581
21
-4.03554
0
LINE
8
BLACK
6
CONTINUOUS
10
5.63581
20
-4.03554
11
5.64033
21
-4.02877
0
LINE
8
BLACK
6
CONTINUOUS
10
5.64033
20
-4.02877
11
5.64609
21
-4.02301
0
LINE
8
BLACK
6
CONTINUOUS
10
5.64609
20
-4.02301
11
5.65286
21
-4.01848
0
LINE
8
BLACK
6
CONTINUOUS
10
5.65286
20
-4.01848
11
5.66038
21
-4.01537
0
LINE
8
BLACK
6
CONTINUOUS
10
5.66038
20
-4.01537
11
5.66737
21
-4.01398
0
LINE
8
BLACK
6
CONTINUOUS
10
5.66737
20
-4.01398
11
5.66837
21
-4.01378
0
LINE
8
BLACK
6
CONTINUOUS
10
5.66837
20
-4.01378
11
5.67651
21
-4.01378
0
LINE
8
BLACK
6
CONTINUOUS
10
5.67651
20
-4.01378
11
5.67751
21
-4.01398
0
LINE
8
BLACK
6
CONTINUOUS
10
5.77751
20
-4.01398
11
5.7845
21
-4.01537
0
LINE
8
BLACK
6
CONTINUOUS
10
5.7845
20
-4.01537
11
5.79202
21
-4.01848
0
LINE
8
BLACK
6
CONTINUOUS
10
5.79202
20
-4.01848
11
5.79879
21
-4.02301
0
LINE
8
BLACK
6
CONTINUOUS
10
5.79879
20
-4.02301
11
5.80455
21
-4.02877
0
LINE
8
BLACK
6
CONTINUOUS
10
5.80455
20
-4.02877
11
5.80907
21
-4.03554
0
LINE
8
BLACK
6
CONTINUOUS
10
5.80907
20
-4.03554
11
5.81219
21
-4.04306
0
LINE
8
BLACK
6
CONTINUOUS
10
5.81219
20
-4.04306
11
5.81378
21
-4.05105
0
LINE
8
BLACK
6
CONTINUOUS
10
5.81378
20
-4.05105
11
5.81378
21
-4.05919
0
LINE
8
BLACK
6
CONTINUOUS
10
5.81378
20
-4.05919
11
5.81219
21
-4.06718
0
LINE
8
BLACK
6
CONTINUOUS
10
5.81219
20
-4.06718
11
5.80907
21
-4.0747
0
LINE
8
BLACK
6
CONTINUOUS
10
5.80907
20
-4.0747
11
5.80455
21
-4.08147
0
LINE
8
BLACK
6
CONTINUOUS
10
5.80455
20
-4.08147
11
5.79879
21
-4.08723
0
LINE
8
BLACK
6
CONTINUOUS
10
5.79879
20
-4.08723
11
5.79202
21
-4.09175
0
LINE
8
BLACK
6
CONTINUOUS
10
5.79202
20
-4.09175
11
5.7845
21
-4.09487
0
LINE
8
BLACK
6
CONTINUOUS
10
5.7845
20
-4.09487
11
5.77751
21
-4.09626
0
LINE
8
BLACK
6
CONTINUOUS
10
5.77751
20
-4.09626
11
5.77651
21
-4.09646
0
LINE
8
BLACK
6
CONTINUOUS
10
5.77651
20
-4.09646
11
5.76837
21
-4.09646
0
LINE
8
BLACK
6
CONTINUOUS
10
5.76837
20
-4.09646
11
5.76737
21
-4.09626
0
LINE
8
BLACK
6
CONTINUOUS
10
5.76737
20
-4.09626
11
5.76038
21
-4.09487
0
LINE
8
BLACK
6
CONTINUOUS
10
5.76038
20
-4.09487
11
5.75286
21
-4.09175
0
LINE
8
BLACK
6
CONTINUOUS
10
5.75286
20
-4.09175
11
5.74609
21
-4.08723
0
LINE
8
BLACK
6
CONTINUOUS
10
5.74609
20
-4.08723
11
5.74033
21
-4.08147
0
LINE
8
BLACK
6
CONTINUOUS
10
5.74033
20
-4.08147
11
5.73581
21
-4.0747
0
LINE
8
BLACK
6
CONTINUOUS
10
5.73581
20
-4.0747
11
5.73269
21
-4.06718
0
LINE
8
BLACK
6
CONTINUOUS
10
5.73269
20
-4.06718
11
5.7311
21
-4.05919
0
LINE
8
BLACK
6
CONTINUOUS
10
5.7311
20
-4.05919
11
5.7311
21
-4.05105
0
LINE
8
BLACK
6
CONTINUOUS
10
5.7311
20
-4.05105
11
5.73269
21
-4.04306
0
LINE
8
BLACK
6
CONTINUOUS
10
5.73269
20
-4.04306
11
5.73581
21
-4.03554
0
LINE
8
BLACK
6
CONTINUOUS
10
5.73581
20
-4.03554
11
5.74033
21
-4.02877
0
LINE
8
BLACK
6
CONTINUOUS
10
5.74033
20
-4.02877
11
5.74609
21
-4.02301
0
LINE
8
BLACK
6
CONTINUOUS
10
5.74609
20
-4.02301
11
5.75286
21
-4.01848
0
LINE
8
BLACK
6
CONTINUOUS
10
5.75286
20
-4.01848
11
5.76038
21
-4.01537
0
LINE
8
BLACK
6
CONTINUOUS
10
5.76038
20
-4.01537
11
5.76737
21
-4.01398
0
LINE
8
BLACK
6
CONTINUOUS
10
5.76737
20
-4.01398
11
5.76837
21
-4.01378
0
LINE
8
BLACK
6
CONTINUOUS
10
5.76837
20
-4.01378
11
5.77651
21
-4.01378
0
LINE
8
BLACK
6
CONTINUOUS
10
5.77651
20
-4.01378
11
5.77751
21
-4.01398
0
LINE
8
BLACK
6
CONTINUOUS
10
5.87751
20
-4.01398
11
5.8845
21
-4.01537
0
LINE
8
BLACK
6
CONTINUOUS
10
5.8845
20
-4.01537
11
5.89202
21
-4.01848
0
LINE
8
BLACK
6
CONTINUOUS
10
5.89202
20
-4.01848
11
5.89879
21
-4.02301
0
LINE
8
BLACK
6
CONTINUOUS
10
5.89879
20
-4.02301
11
5.90455
21
-4.02877
0
LINE
8
BLACK
6
CONTINUOUS
10
5.90455
20
-4.02877
11
5.90907
21
-4.03554
0
LINE
8
BLACK
6
CONTINUOUS
10
5.90907
20
-4.03554
11
5.91219
21
-4.04306
0
LINE
8
BLACK
6
CONTINUOUS
10
5.91219
20
-4.04306
11
5.91378
21
-4.05105
0
LINE
8
BLACK
6
CONTINUOUS
10
5.91378
20
-4.05105
11
5.91378
21
-4.05919
0
LINE
8
BLACK
6
CONTINUOUS
10
5.91378
20
-4.05919
11
5.91219
21
-4.06718
0
LINE
8
BLACK
6
CONTINUOUS
10
5.91219
20
-4.06718
11
5.90907
21
-4.0747
0
LINE
8
BLACK
6
CONTINUOUS
10
5.90907
20
-4.0747
11
5.90455
21
-4.08147
0
LINE
8
BLACK
6
CONTINUOUS
10
5.90455
20
-4.08147
11
5.89879
21
-4.08723
0
LINE
8
BLACK
6
CONTINUOUS
10
5.89879
20
-4.08723
11
5.89202
21
-4.09175
0
LINE
8
BLACK
6
CONTINUOUS
10
5.89202
20
-4.09175
11
5.8845
21
-4.09487
0
LINE
8
BLACK
6
CONTINUOUS
10
5.8845
20
-4.09487
11
5.87751
21
-4.09626
0
LINE
8
BLACK
6
CONTINUOUS
10
5.87751
20
-4.09626
11
5.87651
21
-4.09646
0
LINE
8
BLACK
6
CONTINUOUS
10
5.87651
20
-4.09646
11
5.86837
21
-4.09646
0
LINE
8
BLACK
6
CONTINUOUS
10
5.86837
20
-4.09646
11
5.86737
21
-4.09626
0
LINE
8
BLACK
6
CONTINUOUS
10
5.86737
20
-4.09626
11
5.86038
21
-4.09487
0
LINE
8
BLACK
6
CONTINUOUS
10
5.86038
20
-4.09487
11
5.85286
21
-4.09175
0
LINE
8
BLACK
6
CONTINUOUS
10
5.85286
20
-4.09175
11
5.84609
21
-4.08723
0
LINE
8
BLACK
6
CONTINUOUS
10
5.84609
20
-4.08723
11
5.84033
21
-4.08147
0
LINE
8
BLACK
6
CONTINUOUS
10
5.84033
20
-4.08147
11
5.83581
21
-4.0747
0
LINE
8
BLACK
6
CONTINUOUS
10
5.83581
20
-4.0747
11
5.83269
21
-4.06718
0
LINE
8
BLACK
6
CONTINUOUS
10
5.83269
20
-4.06718
11
5.8311
21
-4.05919
0
LINE
8
BLACK
6
CONTINUOUS
10
5.8311
20
-4.05919
11
5.8311
21
-4.05105
0
LINE
8
BLACK
6
CONTINUOUS
10
5.8311
20
-4.05105
11
5.83269
21
-4.04306
0
LINE
8
BLACK
6
CONTINUOUS
10
5.83269
20
-4.04306
11
5.83581
21
-4.03554
0
LINE
8
BLACK
6
CONTINUOUS
10
5.83581
20
-4.03554
11
5.84033
21
-4.02877
0
LINE
8
BLACK
6
CONTINUOUS
10
5.84033
20
-4.02877
11
5.84609
21
-4.02301
0
LINE
8
BLACK
6
CONTINUOUS
10
5.84609
20
-4.02301
11
5.85286
21
-4.01848
0
LINE
8
BLACK
6
CONTINUOUS
10
5.85286
20
-4.01848
11
5.86038
21
-4.01537
0
LINE
8
BLACK
6
CONTINUOUS
10
5.86038
20
-4.01537
11
5.86737
21
-4.01398
0
LINE
8
BLACK
6
CONTINUOUS
10
5.86737
20
-4.01398
11
5.86837
21
-4.01378
0
LINE
8
BLACK
6
CONTINUOUS
10
5.86837
20
-4.01378
11
5.87651
21
-4.01378
0
LINE
8
BLACK
6
CONTINUOUS
10
5.87651
20
-4.01378
11
5.87751
21
-4.01398
0
LINE
8
BLACK
6
CONTINUOUS
10
7.72351
20
-4.01607
11
7.72351
21
-4.01607
0
LINE
8
BLACK
6
CONTINUOUS
10
7.72351
20
-4.01607
11
7.72351
21
-4.01607
0
LINE
8
BLACK
6
CONTINUOUS
10
7.72351
20
-4.01607
11
7.72519
21
-4.01676
0
LINE
8
BLACK
6
CONTINUOUS
10
7.72519
20
-4.01676
11
7.72688
21
-4.01746
0
LINE
8
BLACK
6
CONTINUOUS
10
7.72688
20
-4.01746
11
7.72991
21
-4.01949
0
LINE
8
BLACK
6
CONTINUOUS
10
7.72991
20
-4.01949
11
7.73248
21
-4.02206
0
LINE
8
BLACK
6
CONTINUOUS
10
7.73248
20
-4.02206
11
7.73451
21
-4.02509
0
LINE
8
BLACK
6
CONTINUOUS
10
7.73451
20
-4.02509
11
7.7359
21
-4.02846
0
LINE
8
BLACK
6
CONTINUOUS
10
7.7359
20
-4.02846
11
7.73661
21
-4.03204
0
LINE
8
BLACK
6
CONTINUOUS
10
7.73661
20
-4.03204
11
7.73661
21
-4.03568
0
LINE
8
BLACK
6
CONTINUOUS
10
7.73661
20
-4.03568
11
7.7359
21
-4.03926
0
LINE
8
BLACK
6
CONTINUOUS
10
7.7359
20
-4.03926
11
7.73451
21
-4.04262
0
LINE
8
BLACK
6
CONTINUOUS
10
7.73451
20
-4.04262
11
7.73248
21
-4.04565
0
LINE
8
BLACK
6
CONTINUOUS
10
7.73248
20
-4.04565
11
7.72991
21
-4.04823
0
LINE
8
BLACK
6
CONTINUOUS
10
7.72991
20
-4.04823
11
7.72688
21
-4.05026
0
LINE
8
BLACK
6
CONTINUOUS
10
7.72688
20
-4.05026
11
7.72519
21
-4.05095
0
LINE
8
BLACK
6
CONTINUOUS
10
7.72519
20
-4.05095
11
7.72351
21
-4.05165
0
LINE
8
BLACK
6
CONTINUOUS
10
7.72351
20
-4.05165
11
7.72351
21
-4.05165
0
LINE
8
BLACK
6
CONTINUOUS
10
7.72351
20
-4.05165
11
7.72351
21
-4.05165
0
LINE
8
BLACK
6
CONTINUOUS
10
7.72351
20
-4.05165
11
7.71993
21
-4.05236
0
LINE
8
BLACK
6
CONTINUOUS
10
7.71993
20
-4.05236
11
7.71629
21
-4.05236
0
LINE
8
BLACK
6
CONTINUOUS
10
7.71629
20
-4.05236
11
7.71271
21
-4.05165
0
LINE
8
BLACK
6
CONTINUOUS
10
7.71271
20
-4.05165
11
7.71271
21
-4.05165
0
LINE
8
BLACK
6
CONTINUOUS
10
7.71271
20
-4.05165
11
7.71271
21
-4.05165
0
LINE
8
BLACK
6
CONTINUOUS
10
7.71271
20
-4.05165
11
7.71103
21
-4.05095
0
LINE
8
BLACK
6
CONTINUOUS
10
7.71103
20
-4.05095
11
7.70935
21
-4.05026
0
LINE
8
BLACK
6
CONTINUOUS
10
7.70935
20
-4.05026
11
7.70631
21
-4.04823
0
LINE
8
BLACK
6
CONTINUOUS
10
7.70631
20
-4.04823
11
7.70374
21
-4.04565
0
LINE
8
BLACK
6
CONTINUOUS
10
7.70374
20
-4.04565
11
7.70171
21
-4.04262
0
LINE
8
BLACK
6
CONTINUOUS
10
7.70171
20
-4.04262
11
7.70032
21
-4.03926
0
LINE
8
BLACK
6
CONTINUOUS
10
7.70032
20
-4.03926
11
7.69961
21
-4.03568
0
LINE
8
BLACK
6
CONTINUOUS
10
7.69961
20
-4.03568
11
7.69961
21
-4.03204
0
LINE
8
BLACK
6
CONTINUOUS
10
7.69961
20
-4.03204
11
7.70032
21
-4.02846
0
LINE
8
BLACK
6
CONTINUOUS
10
7.70032
20
-4.02846
11
7.70171
21
-4.02509
0
LINE
8
BLACK
6
CONTINUOUS
10
7.70171
20
-4.02509
11
7.70374
21
-4.02206
0
LINE
8
BLACK
6
CONTINUOUS
10
7.70374
20
-4.02206
11
7.70631
21
-4.01949
0
LINE
8
BLACK
6
CONTINUOUS
10
7.70631
20
-4.01949
11
7.70935
21
-4.01746
0
LINE
8
BLACK
6
CONTINUOUS
10
7.70935
20
-4.01746
11
7.71103
21
-4.01676
0
LINE
8
BLACK
6
CONTINUOUS
10
7.71103
20
-4.01676
11
7.71271
21
-4.01607
0
LINE
8
BLACK
6
CONTINUOUS
10
7.71271
20
-4.01607
11
7.71271
21
-4.01607
0
LINE
8
BLACK
6
CONTINUOUS
10
7.71271
20
-4.01607
11
7.71271
21
-4.01607
0
LINE
8
BLACK
6
CONTINUOUS
10
7.71271
20
-4.01607
11
7.71629
21
-4.01535
0
LINE
8
BLACK
6
CONTINUOUS
10
7.71629
20
-4.01535
11
7.71993
21
-4.01535
0
LINE
8
BLACK
6
CONTINUOUS
10
7.71993
20
-4.01535
11
7.72351
21
-4.01607
0
LINE
8
BLACK
6
CONTINUOUS
10
7.52351
20
-4.01607
11
7.52351
21
-4.01607
0
LINE
8
BLACK
6
CONTINUOUS
10
7.52351
20
-4.01607
11
7.52351
21
-4.01607
0
LINE
8
BLACK
6
CONTINUOUS
10
7.52351
20
-4.01607
11
7.52519
21
-4.01676
0
LINE
8
BLACK
6
CONTINUOUS
10
7.52519
20
-4.01676
11
7.52688
21
-4.01746
0
LINE
8
BLACK
6
CONTINUOUS
10
7.52688
20
-4.01746
11
7.52991
21
-4.01949
0
LINE
8
BLACK
6
CONTINUOUS
10
7.52991
20
-4.01949
11
7.53248
21
-4.02206
0
LINE
8
BLACK
6
CONTINUOUS
10
7.53248
20
-4.02206
11
7.53451
21
-4.02509
0
LINE
8
BLACK
6
CONTINUOUS
10
7.53451
20
-4.02509
11
7.5359
21
-4.02846
0
LINE
8
BLACK
6
CONTINUOUS
10
7.5359
20
-4.02846
11
7.53661
21
-4.03204
0
LINE
8
BLACK
6
CONTINUOUS
10
7.53661
20
-4.03204
11
7.53661
21
-4.03568
0
LINE
8
BLACK
6
CONTINUOUS
10
7.53661
20
-4.03568
11
7.5359
21
-4.03926
0
LINE
8
BLACK
6
CONTINUOUS
10
7.5359
20
-4.03926
11
7.53451
21
-4.04262
0
LINE
8
BLACK
6
CONTINUOUS
10
7.53451
20
-4.04262
11
7.53248
21
-4.04565
0
LINE
8
BLACK
6
CONTINUOUS
10
7.53248
20
-4.04565
11
7.52991
21
-4.04823
0
LINE
8
BLACK
6
CONTINUOUS
10
7.52991
20
-4.04823
11
7.52688
21
-4.05026
0
LINE
8
BLACK
6
CONTINUOUS
10
7.52688
20
-4.05026
11
7.52519
21
-4.05095
0
LINE
8
BLACK
6
CONTINUOUS
10
7.52519
20
-4.05095
11
7.52351
21
-4.05165
0
LINE
8
BLACK
6
CONTINUOUS
10
7.52351
20
-4.05165
11
7.52351
21
-4.05165
0
LINE
8
BLACK
6
CONTINUOUS
10
7.52351
20
-4.05165
11
7.52351
21
-4.05165
0
LINE
8
BLACK
6
CONTINUOUS
10
7.52351
20
-4.05165
11
7.51993
21
-4.05236
0
LINE
8
BLACK
6
CONTINUOUS
10
7.51993
20
-4.05236
11
7.51629
21
-4.05236
0
LINE
8
BLACK
6
CONTINUOUS
10
7.51629
20
-4.05236
11
7.51271
21
-4.05165
0
LINE
8
BLACK
6
CONTINUOUS
10
7.51271
20
-4.05165
11
7.51271
21
-4.05165
0
LINE
8
BLACK
6
CONTINUOUS
10
7.51271
20
-4.05165
11
7.51271
21
-4.05165
0
LINE
8
BLACK
6
CONTINUOUS
10
7.51271
20
-4.05165
11
7.51103
21
-4.05095
0
LINE
8
BLACK
6
CONTINUOUS
10
7.51103
20
-4.05095
11
7.50935
21
-4.05026
0
LINE
8
BLACK
6
CONTINUOUS
10
7.50935
20
-4.05026
11
7.50631
21
-4.04823
0
LINE
8
BLACK
6
CONTINUOUS
10
7.50631
20
-4.04823
11
7.50374
21
-4.04565
0
LINE
8
BLACK
6
CONTINUOUS
10
7.50374
20
-4.04565
11
7.50171
21
-4.04262
0
LINE
8
BLACK
6
CONTINUOUS
10
7.50171
20
-4.04262
11
7.50032
21
-4.03926
0
LINE
8
BLACK
6
CONTINUOUS
10
7.50032
20
-4.03926
11
7.49961
21
-4.03568
0
LINE
8
BLACK
6
CONTINUOUS
10
7.49961
20
-4.03568
11
7.49961
21
-4.03204
0
LINE
8
BLACK
6
CONTINUOUS
10
7.49961
20
-4.03204
11
7.50032
21
-4.02846
0
LINE
8
BLACK
6
CONTINUOUS
10
7.50032
20
-4.02846
11
7.50171
21
-4.02509
0
LINE
8
BLACK
6
CONTINUOUS
10
7.50171
20
-4.02509
11
7.50374
21
-4.02206
0
LINE
8
BLACK
6
CONTINUOUS
10
7.50374
20
-4.02206
11
7.50631
21
-4.01949
0
LINE
8
BLACK
6
CONTINUOUS
10
7.50631
20
-4.01949
11
7.50935
21
-4.01746
0
LINE
8
BLACK
6
CONTINUOUS
10
7.50935
20
-4.01746
11
7.51103
21
-4.01676
0
LINE
8
BLACK
6
CONTINUOUS
10
7.51103
20
-4.01676
11
7.51271
21
-4.01607
0
LINE
8
BLACK
6
CONTINUOUS
10
7.51271
20
-4.01607
11
7.51271
21
-4.01607
0
LINE
8
BLACK
6
CONTINUOUS
10
7.51271
20
-4.01607
11
7.51271
21
-4.01607
0
LINE
8
BLACK
6
CONTINUOUS
10
7.51271
20
-4.01607
11
7.51629
21
-4.01535
0
LINE
8
BLACK
6
CONTINUOUS
10
7.51629
20
-4.01535
11
7.51993
21
-4.01535
0
LINE
8
BLACK
6
CONTINUOUS
10
7.51993
20
-4.01535
11
7.52351
21
-4.01607
0
LINE
8
BLACK
6
CONTINUOUS
10
7.57351
20
-4.01607
11
7.57351
21
-4.01607
0
LINE
8
BLACK
6
CONTINUOUS
10
7.57351
20
-4.01607
11
7.57351
21
-4.01607
0
LINE
8
BLACK
6
CONTINUOUS
10
7.57351
20
-4.01607
11
7.57519
21
-4.01676
0
LINE
8
BLACK
6
CONTINUOUS
10
7.57519
20
-4.01676
11
7.57688
21
-4.01746
0
LINE
8
BLACK
6
CONTINUOUS
10
7.57688
20
-4.01746
11
7.57991
21
-4.01949
0
LINE
8
BLACK
6
CONTINUOUS
10
7.57991
20
-4.01949
11
7.58248
21
-4.02206
0
LINE
8
BLACK
6
CONTINUOUS
10
7.58248
20
-4.02206
11
7.58451
21
-4.02509
0
LINE
8
BLACK
6
CONTINUOUS
10
7.58451
20
-4.02509
11
7.5859
21
-4.02846
0
LINE
8
BLACK
6
CONTINUOUS
10
7.5859
20
-4.02846
11
7.58661
21
-4.03204
0
LINE
8
BLACK
6
CONTINUOUS
10
7.58661
20
-4.03204
11
7.58661
21
-4.03568
0
LINE
8
BLACK
6
CONTINUOUS
10
7.58661
20
-4.03568
11
7.5859
21
-4.03926
0
LINE
8
BLACK
6
CONTINUOUS
10
7.5859
20
-4.03926
11
7.58451
21
-4.04262
0
LINE
8
BLACK
6
CONTINUOUS
10
7.58451
20
-4.04262
11
7.58248
21
-4.04565
0
LINE
8
BLACK
6
CONTINUOUS
10
7.58248
20
-4.04565
11
7.57991
21
-4.04823
0
LINE
8
BLACK
6
CONTINUOUS
10
7.57991
20
-4.04823
11
7.57688
21
-4.05026
0
LINE
8
BLACK
6
CONTINUOUS
10
7.57688
20
-4.05026
11
7.57519
21
-4.05095
0
LINE
8
BLACK
6
CONTINUOUS
10
7.57519
20
-4.05095
11
7.57351
21
-4.05165
0
LINE
8
BLACK
6
CONTINUOUS
10
7.57351
20
-4.05165
11
7.57351
21
-4.05165
0
LINE
8
BLACK
6
CONTINUOUS
10
7.57351
20
-4.05165
11
7.57351
21
-4.05165
0
LINE
8
BLACK
6
CONTINUOUS
10
7.57351
20
-4.05165
11
7.56993
21
-4.05236
0
LINE
8
BLACK
6
CONTINUOUS
10
7.56993
20
-4.05236
11
7.56629
21
-4.05236
0
LINE
8
BLACK
6
CONTINUOUS
10
7.56629
20
-4.05236
11
7.56271
21
-4.05165
0
LINE
8
BLACK
6
CONTINUOUS
10
7.56271
20
-4.05165
11
7.56271
21
-4.05165
0
LINE
8
BLACK
6
CONTINUOUS
10
7.56271
20
-4.05165
11
7.56271
21
-4.05165
0
LINE
8
BLACK
6
CONTINUOUS
10
7.56271
20
-4.05165
11
7.56103
21
-4.05095
0
LINE
8
BLACK
6
CONTINUOUS
10
7.56103
20
-4.05095
11
7.55935
21
-4.05026
0
LINE
8
BLACK
6
CONTINUOUS
10
7.55935
20
-4.05026
11
7.55631
21
-4.04823
0
LINE
8
BLACK
6
CONTINUOUS
10
7.55631
20
-4.04823
11
7.55374
21
-4.04565
0
LINE
8
BLACK
6
CONTINUOUS
10
7.55374
20
-4.04565
11
7.55171
21
-4.04262
0
LINE
8
BLACK
6
CONTINUOUS
10
7.55171
20
-4.04262
11
7.55032
21
-4.03926
0
LINE
8
BLACK
6
CONTINUOUS
10
7.55032
20
-4.03926
11
7.54961
21
-4.03568
0
LINE
8
BLACK
6
CONTINUOUS
10
7.54961
20
-4.03568
11
7.54961
21
-4.03204
0
LINE
8
BLACK
6
CONTINUOUS
10
7.54961
20
-4.03204
11
7.55032
21
-4.02846
0
LINE
8
BLACK
6
CONTINUOUS
10
7.55032
20
-4.02846
11
7.55171
21
-4.02509
0
LINE
8
BLACK
6
CONTINUOUS
10
7.55171
20
-4.02509
11
7.55374
21
-4.02206
0
LINE
8
BLACK
6
CONTINUOUS
10
7.55374
20
-4.02206
11
7.55631
21
-4.01949
0
LINE
8
BLACK
6
CONTINUOUS
10
7.55631
20
-4.01949
11
7.55935
21
-4.01746
0
LINE
8
BLACK
6
CONTINUOUS
10
7.55935
20
-4.01746
11
7.56103
21
-4.01676
0
LINE
8
BLACK
6
CONTINUOUS
10
7.56103
20
-4.01676
11
7.56271
21
-4.01607
0
LINE
8
BLACK
6
CONTINUOUS
10
7.56271
20
-4.01607
11
7.56271
21
-4.01607
0
LINE
8
BLACK
6
CONTINUOUS
10
7.56271
20
-4.01607
11
7.56271
21
-4.01607
0
LINE
8
BLACK
6
CONTINUOUS
10
7.56271
20
-4.01607
11
7.56629
21
-4.01535
0
LINE
8
BLACK
6
CONTINUOUS
10
7.56629
20
-4.01535
11
7.56993
21
-4.01535
0
LINE
8
BLACK
6
CONTINUOUS
10
7.56993
20
-4.01535
11
7.57351
21
-4.01607
0
LINE
8
BLACK
6
CONTINUOUS
10
7.62351
20
-4.01607
11
7.62351
21
-4.01607
0
LINE
8
BLACK
6
CONTINUOUS
10
7.62351
20
-4.01607
11
7.62351
21
-4.01607
0
LINE
8
BLACK
6
CONTINUOUS
10
7.62351
20
-4.01607
11
7.62519
21
-4.01676
0
LINE
8
BLACK
6
CONTINUOUS
10
7.62519
20
-4.01676
11
7.62688
21
-4.01746
0
LINE
8
BLACK
6
CONTINUOUS
10
7.62688
20
-4.01746
11
7.62991
21
-4.01949
0
LINE
8
BLACK
6
CONTINUOUS
10
7.62991
20
-4.01949
11
7.63248
21
-4.02206
0
LINE
8
BLACK
6
CONTINUOUS
10
7.63248
20
-4.02206
11
7.63451
21
-4.02509
0
LINE
8
BLACK
6
CONTINUOUS
10
7.63451
20
-4.02509
11
7.6359
21
-4.02846
0
LINE
8
BLACK
6
CONTINUOUS
10
7.6359
20
-4.02846
11
7.63661
21
-4.03204
0
LINE
8
BLACK
6
CONTINUOUS
10
7.63661
20
-4.03204
11
7.63661
21
-4.03568
0
LINE
8
BLACK
6
CONTINUOUS
10
7.63661
20
-4.03568
11
7.6359
21
-4.03926
0
LINE
8
BLACK
6
CONTINUOUS
10
7.6359
20
-4.03926
11
7.63451
21
-4.04262
0
LINE
8
BLACK
6
CONTINUOUS
10
7.63451
20
-4.04262
11
7.63248
21
-4.04565
0
LINE
8
BLACK
6
CONTINUOUS
10
7.63248
20
-4.04565
11
7.62991
21
-4.04823
0
LINE
8
BLACK
6
CONTINUOUS
10
7.62991
20
-4.04823
11
7.62688
21
-4.05026
0
LINE
8
BLACK
6
CONTINUOUS
10
7.62688
20
-4.05026
11
7.62519
21
-4.05095
0
LINE
8
BLACK
6
CONTINUOUS
10
7.62519
20
-4.05095
11
7.62351
21
-4.05165
0
LINE
8
BLACK
6
CONTINUOUS
10
7.62351
20
-4.05165
11
7.62351
21
-4.05165
0
LINE
8
BLACK
6
CONTINUOUS
10
7.62351
20
-4.05165
11
7.62351
21
-4.05165
0
LINE
8
BLACK
6
CONTINUOUS
10
7.62351
20
-4.05165
11
7.61993
21
-4.05236
0
LINE
8
BLACK
6
CONTINUOUS
10
7.61993
20
-4.05236
11
7.61629
21
-4.05236
0
LINE
8
BLACK
6
CONTINUOUS
10
7.61629
20
-4.05236
11
7.61271
21
-4.05165
0
LINE
8
BLACK
6
CONTINUOUS
10
7.61271
20
-4.05165
11
7.61271
21
-4.05165
0
LINE
8
BLACK
6
CONTINUOUS
10
7.61271
20
-4.05165
11
7.61271
21
-4.05165
0
LINE
8
BLACK
6
CONTINUOUS
10
7.61271
20
-4.05165
11
7.61103
21
-4.05095
0
LINE
8
BLACK
6
CONTINUOUS
10
7.61103
20
-4.05095
11
7.60935
21
-4.05026
0
LINE
8
BLACK
6
CONTINUOUS
10
7.60935
20
-4.05026
11
7.60631
21
-4.04823
0
LINE
8
BLACK
6
CONTINUOUS
10
7.60631
20
-4.04823
11
7.60374
21
-4.04565
0
LINE
8
BLACK
6
CONTINUOUS
10
7.60374
20
-4.04565
11
7.60171
21
-4.04262
0
LINE
8
BLACK
6
CONTINUOUS
10
7.60171
20
-4.04262
11
7.60032
21
-4.03926
0
LINE
8
BLACK
6
CONTINUOUS
10
7.60032
20
-4.03926
11
7.59961
21
-4.03568
0
LINE
8
BLACK
6
CONTINUOUS
10
7.59961
20
-4.03568
11
7.59961
21
-4.03204
0
LINE
8
BLACK
6
CONTINUOUS
10
7.59961
20
-4.03204
11
7.60032
21
-4.02846
0
LINE
8
BLACK
6
CONTINUOUS
10
7.60032
20
-4.02846
11
7.60171
21
-4.02509
0
LINE
8
BLACK
6
CONTINUOUS
10
7.60171
20
-4.02509
11
7.60374
21
-4.02206
0
LINE
8
BLACK
6
CONTINUOUS
10
7.60374
20
-4.02206
11
7.60631
21
-4.01949
0
LINE
8
BLACK
6
CONTINUOUS
10
7.60631
20
-4.01949
11
7.60935
21
-4.01746
0
LINE
8
BLACK
6
CONTINUOUS
10
7.60935
20
-4.01746
11
7.61103
21
-4.01676
0
LINE
8
BLACK
6
CONTINUOUS
10
7.61103
20
-4.01676
11
7.61271
21
-4.01607
0
LINE
8
BLACK
6
CONTINUOUS
10
7.61271
20
-4.01607
11
7.61271
21
-4.01607
0
LINE
8
BLACK
6
CONTINUOUS
10
7.61271
20
-4.01607
11
7.61271
21
-4.01607
0
LINE
8
BLACK
6
CONTINUOUS
10
7.61271
20
-4.01607
11
7.61629
21
-4.01535
0
LINE
8
BLACK
6
CONTINUOUS
10
7.61629
20
-4.01535
11
7.61993
21
-4.01535
0
LINE
8
BLACK
6
CONTINUOUS
10
7.61993
20
-4.01535
11
7.62351
21
-4.01607
0
LINE
8
BLACK
6
CONTINUOUS
10
7.67351
20
-4.01607
11
7.67351
21
-4.01607
0
LINE
8
BLACK
6
CONTINUOUS
10
7.67351
20
-4.01607
11
7.67351
21
-4.01607
0
LINE
8
BLACK
6
CONTINUOUS
10
7.67351
20
-4.01607
11
7.67519
21
-4.01676
0
LINE
8
BLACK
6
CONTINUOUS
10
7.67519
20
-4.01676
11
7.67688
21
-4.01746
0
LINE
8
BLACK
6
CONTINUOUS
10
7.67688
20
-4.01746
11
7.67991
21
-4.01949
0
LINE
8
BLACK
6
CONTINUOUS
10
7.67991
20
-4.01949
11
7.68248
21
-4.02206
0
LINE
8
BLACK
6
CONTINUOUS
10
7.68248
20
-4.02206
11
7.68451
21
-4.02509
0
LINE
8
BLACK
6
CONTINUOUS
10
7.68451
20
-4.02509
11
7.6859
21
-4.02846
0
LINE
8
BLACK
6
CONTINUOUS
10
7.6859
20
-4.02846
11
7.68661
21
-4.03204
0
LINE
8
BLACK
6
CONTINUOUS
10
7.68661
20
-4.03204
11
7.68661
21
-4.03568
0
LINE
8
BLACK
6
CONTINUOUS
10
7.68661
20
-4.03568
11
7.6859
21
-4.03926
0
LINE
8
BLACK
6
CONTINUOUS
10
7.6859
20
-4.03926
11
7.68451
21
-4.04262
0
LINE
8
BLACK
6
CONTINUOUS
10
7.68451
20
-4.04262
11
7.68248
21
-4.04565
0
LINE
8
BLACK
6
CONTINUOUS
10
7.68248
20
-4.04565
11
7.67991
21
-4.04823
0
LINE
8
BLACK
6
CONTINUOUS
10
7.67991
20
-4.04823
11
7.67688
21
-4.05026
0
LINE
8
BLACK
6
CONTINUOUS
10
7.67688
20
-4.05026
11
7.67519
21
-4.05095
0
LINE
8
BLACK
6
CONTINUOUS
10
7.67519
20
-4.05095
11
7.67351
21
-4.05165
0
LINE
8
BLACK
6
CONTINUOUS
10
7.67351
20
-4.05165
11
7.67351
21
-4.05165
0
LINE
8
BLACK
6
CONTINUOUS
10
7.67351
20
-4.05165
11
7.67351
21
-4.05165
0
LINE
8
BLACK
6
CONTINUOUS
10
7.67351
20
-4.05165
11
7.66993
21
-4.05236
0
LINE
8
BLACK
6
CONTINUOUS
10
7.66993
20
-4.05236
11
7.66629
21
-4.05236
0
LINE
8
BLACK
6
CONTINUOUS
10
7.66629
20
-4.05236
11
7.66271
21
-4.05165
0
LINE
8
BLACK
6
CONTINUOUS
10
7.66271
20
-4.05165
11
7.66271
21
-4.05165
0
LINE
8
BLACK
6
CONTINUOUS
10
7.66271
20
-4.05165
11
7.66271
21
-4.05165
0
LINE
8
BLACK
6
CONTINUOUS
10
7.66271
20
-4.05165
11
7.66103
21
-4.05095
0
LINE
8
BLACK
6
CONTINUOUS
10
7.66103
20
-4.05095
11
7.65935
21
-4.05026
0
LINE
8
BLACK
6
CONTINUOUS
10
7.65935
20
-4.05026
11
7.65631
21
-4.04823
0
LINE
8
BLACK
6
CONTINUOUS
10
7.65631
20
-4.04823
11
7.65374
21
-4.04565
0
LINE
8
BLACK
6
CONTINUOUS
10
7.65374
20
-4.04565
11
7.65171
21
-4.04262
0
LINE
8
BLACK
6
CONTINUOUS
10
7.65171
20
-4.04262
11
7.65032
21
-4.03926
0
LINE
8
BLACK
6
CONTINUOUS
10
7.65032
20
-4.03926
11
7.64961
21
-4.03568
0
LINE
8
BLACK
6
CONTINUOUS
10
7.64961
20
-4.03568
11
7.64961
21
-4.03204
0
LINE
8
BLACK
6
CONTINUOUS
10
7.64961
20
-4.03204
11
7.65032
21
-4.02846
0
LINE
8
BLACK
6
CONTINUOUS
10
7.65032
20
-4.02846
11
7.65171
21
-4.02509
0
LINE
8
BLACK
6
CONTINUOUS
10
7.65171
20
-4.02509
11
7.65374
21
-4.02206
0
LINE
8
BLACK
6
CONTINUOUS
10
7.65374
20
-4.02206
11
7.65631
21
-4.01949
0
LINE
8
BLACK
6
CONTINUOUS
10
7.65631
20
-4.01949
11
7.65935
21
-4.01746
0
LINE
8
BLACK
6
CONTINUOUS
10
7.65935
20
-4.01746
11
7.66103
21
-4.01676
0
LINE
8
BLACK
6
CONTINUOUS
10
7.66103
20
-4.01676
11
7.66271
21
-4.01607
0
LINE
8
BLACK
6
CONTINUOUS
10
7.66271
20
-4.01607
11
7.66271
21
-4.01607
0
LINE
8
BLACK
6
CONTINUOUS
10
7.66271
20
-4.01607
11
7.66271
21
-4.01607
0
LINE
8
BLACK
6
CONTINUOUS
10
7.66271
20
-4.01607
11
7.66629
21
-4.01535
0
LINE
8
BLACK
6
CONTINUOUS
10
7.66629
20
-4.01535
11
7.66993
21
-4.01535
0
LINE
8
BLACK
6
CONTINUOUS
10
7.66993
20
-4.01535
11
7.67351
21
-4.01607
  0
ENDSEC
  0
EOF
