  0
SECTION
  2
HEADER
  9
$ANGBASE
  50
0.0
  9
$ANGDIR
  70
1
  9
$MEASUREMENT
  70
0
  0
ENDSEC
  0
SECTION
  2
TABLES
  0
TABLE
  2
LTYPE
  70
4
  0
LTYPE
  5
40F
  2
CONTINUOUS
  70
0
  3
Solid line
  72
65
  73
0
  40
0.0
  0
LTYPE
  5
410
  2
DASHDOT
 70
0
  3
Dash Dot ____ _ ____ _
 72
65
 73
4
 40
2.0
 49
1.25
 49
-0.25
 49
0.25
 49
-0.25
  0
LTYPE
  5
411
  2
DASHED
 70
0
  3
Dashed __ __ __ __ __
 72
65
 73
2
 40
0.75
 49
0.5
 49
-0.25
  0
LTYPE
  5
43B
  2
DOTTED
 70
0
  3
Dotted .  .  .  .
 72
65
 73
2
 40
0.2
 49
0.0
 49
-0.2
  0
ENDTAB
  0
TABLE
  2
STYLE
  70
4
  0
STYLE
  2
KICAD
  70
0
  40
0
  41
1
  42
1
  50
0
  71
0
  3
isocp.shx
  0
STYLE
  2
KICADB
  70
0
  40
0
  41
1
  42
1
  50
0
  71
0
  3
isocp.shx
  0
STYLE
  2
KICADI
  70
0
  40
0
  41
1
  42
1
  50
15
  71
0
  3
isocp.shx
  0
STYLE
  2
KICADBI
  70
0
  40
0
  41
1
  42
1
  50
15
  71
0
  3
isocp.shx
  0
ENDTAB
  0
TABLE
  2
LAYER
  70
1
  0
LAYER
  2
BLACK
  70
0
  62
7
  6
CONTINUOUS
  0
ENDTAB
  0
ENDSEC
  0
SECTION
  2
ENTITIES
0
LINE
8
BLACK
6
CONTINUOUS
10
6.02756
20
-6.1063
11
5.98031
21
-6.1063
0
LINE
8
BLACK
6
CONTINUOUS
10
5.98031
20
-6.1063
11
5.98031
21
-6.07087
0
LINE
8
BLACK
6
CONTINUOUS
10
5.98031
20
-6.07087
11
6.02756
21
-6.07087
0
LINE
8
BLACK
6
CONTINUOUS
10
6.02756
20
-6.07087
11
6.02756
21
-6.1063
0
LINE
8
BLACK
6
CONTINUOUS
10
6.42323
20
-6.09449
11
6.34449
21
-6.09449
0
LINE
8
BLACK
6
CONTINUOUS
10
6.34449
20
-6.09449
11
6.34449
21
-6.03543
0
LINE
8
BLACK
6
CONTINUOUS
10
6.34449
20
-6.03543
11
6.42323
21
-6.03543
0
LINE
8
BLACK
6
CONTINUOUS
10
6.42323
20
-6.03543
11
6.42323
21
-6.09449
0
LINE
8
BLACK
6
CONTINUOUS
10
6.49606
20
-6.06398
11
6.45669
21
-6.06398
0
LINE
8
BLACK
6
CONTINUOUS
10
6.45669
20
-6.06398
11
6.45669
21
-6.02657
0
LINE
8
BLACK
6
CONTINUOUS
10
6.45669
20
-6.02657
11
6.49606
21
-6.02657
0
LINE
8
BLACK
6
CONTINUOUS
10
6.49606
20
-6.02657
11
6.49606
21
-6.06398
0
LINE
8
BLACK
6
CONTINUOUS
10
6.1752
20
-6.04921
11
6.09646
21
-6.04921
0
LINE
8
BLACK
6
CONTINUOUS
10
6.09646
20
-6.04921
11
6.09646
21
-5.89961
0
LINE
8
BLACK
6
CONTINUOUS
10
6.09646
20
-5.89961
11
6.1752
21
-5.89961
0
LINE
8
BLACK
6
CONTINUOUS
10
6.1752
20
-5.89961
11
6.1752
21
-6.04921
0
LINE
8
BLACK
6
CONTINUOUS
10
6.42323
20
-6.00394
11
6.34449
21
-6.00394
0
LINE
8
BLACK
6
CONTINUOUS
10
6.34449
20
-6.00394
11
6.34449
21
-5.94488
0
LINE
8
BLACK
6
CONTINUOUS
10
6.34449
20
-5.94488
11
6.42323
21
-5.94488
0
LINE
8
BLACK
6
CONTINUOUS
10
6.42323
20
-5.94488
11
6.42323
21
-6.00394
0
LINE
8
BLACK
6
CONTINUOUS
10
6.49606
20
-6.00098
11
6.45669
21
-6.00098
0
LINE
8
BLACK
6
CONTINUOUS
10
6.45669
20
-6.00098
11
6.45669
21
-5.96358
0
LINE
8
BLACK
6
CONTINUOUS
10
6.45669
20
-5.96358
11
6.49606
21
-5.96358
0
LINE
8
BLACK
6
CONTINUOUS
10
6.49606
20
-5.96358
11
6.49606
21
-6.00098
0
LINE
8
BLACK
6
CONTINUOUS
10
6.02756
20
-5.97638
11
5.98031
21
-5.97638
0
LINE
8
BLACK
6
CONTINUOUS
10
5.98031
20
-5.97638
11
5.98031
21
-5.94094
0
LINE
8
BLACK
6
CONTINUOUS
10
5.98031
20
-5.94094
11
6.02756
21
-5.94094
0
LINE
8
BLACK
6
CONTINUOUS
10
6.02756
20
-5.94094
11
6.02756
21
-5.97638
0
LINE
8
BLACK
6
CONTINUOUS
10
6.42323
20
-5.91339
11
6.34449
21
-5.91339
0
LINE
8
BLACK
6
CONTINUOUS
10
6.34449
20
-5.91339
11
6.34449
21
-5.85433
0
LINE
8
BLACK
6
CONTINUOUS
10
6.34449
20
-5.85433
11
6.42323
21
-5.85433
0
LINE
8
BLACK
6
CONTINUOUS
10
6.42323
20
-5.85433
11
6.42323
21
-5.91339
0
LINE
8
BLACK
6
CONTINUOUS
10
6.49606
20
-5.9065
11
6.45669
21
-5.9065
0
LINE
8
BLACK
6
CONTINUOUS
10
6.45669
20
-5.9065
11
6.45669
21
-5.86909
0
LINE
8
BLACK
6
CONTINUOUS
10
6.45669
20
-5.86909
11
6.49606
21
-5.86909
0
LINE
8
BLACK
6
CONTINUOUS
10
6.49606
20
-5.86909
11
6.49606
21
-5.9065
0
LINE
8
BLACK
6
CONTINUOUS
10
5.88819
20
-5.84685
11
5.86378
21
-5.84685
0
LINE
8
BLACK
6
CONTINUOUS
10
5.86378
20
-5.84685
11
5.86378
21
-5.82244
0
LINE
8
BLACK
6
CONTINUOUS
10
5.86378
20
-5.82244
11
5.88819
21
-5.82244
0
LINE
8
BLACK
6
CONTINUOUS
10
5.88819
20
-5.82244
11
5.88819
21
-5.84685
0
LINE
8
BLACK
6
CONTINUOUS
10
5.9374
20
-5.84685
11
5.91299
21
-5.84685
0
LINE
8
BLACK
6
CONTINUOUS
10
5.91299
20
-5.84685
11
5.91299
21
-5.82244
0
LINE
8
BLACK
6
CONTINUOUS
10
5.91299
20
-5.82244
11
5.9374
21
-5.82244
0
LINE
8
BLACK
6
CONTINUOUS
10
5.9374
20
-5.82244
11
5.9374
21
-5.84685
0
LINE
8
BLACK
6
CONTINUOUS
10
6.49606
20
-5.8435
11
6.45669
21
-5.8435
0
LINE
8
BLACK
6
CONTINUOUS
10
6.45669
20
-5.8435
11
6.45669
21
-5.8061
0
LINE
8
BLACK
6
CONTINUOUS
10
6.45669
20
-5.8061
11
6.49606
21
-5.8061
0
LINE
8
BLACK
6
CONTINUOUS
10
6.49606
20
-5.8061
11
6.49606
21
-5.8435
0
LINE
8
BLACK
6
CONTINUOUS
10
5.69587
20
-5.82677
11
5.65846
21
-5.82677
0
LINE
8
BLACK
6
CONTINUOUS
10
5.65846
20
-5.82677
11
5.65846
21
-5.7874
0
LINE
8
BLACK
6
CONTINUOUS
10
5.65846
20
-5.7874
11
5.69587
21
-5.7874
0
LINE
8
BLACK
6
CONTINUOUS
10
5.69587
20
-5.7874
11
5.69587
21
-5.82677
0
LINE
8
BLACK
6
CONTINUOUS
10
5.75886
20
-5.82677
11
5.72146
21
-5.82677
0
LINE
8
BLACK
6
CONTINUOUS
10
5.72146
20
-5.82677
11
5.72146
21
-5.7874
0
LINE
8
BLACK
6
CONTINUOUS
10
5.72146
20
-5.7874
11
5.75886
21
-5.7874
0
LINE
8
BLACK
6
CONTINUOUS
10
5.75886
20
-5.7874
11
5.75886
21
-5.82677
0
LINE
8
BLACK
6
CONTINUOUS
10
5.6126
20
-5.81732
11
5.58819
21
-5.81732
0
LINE
8
BLACK
6
CONTINUOUS
10
5.58819
20
-5.81732
11
5.58819
21
-5.79291
0
LINE
8
BLACK
6
CONTINUOUS
10
5.58819
20
-5.79291
11
5.6126
21
-5.79291
0
LINE
8
BLACK
6
CONTINUOUS
10
5.6126
20
-5.79291
11
5.6126
21
-5.81732
0
LINE
8
BLACK
6
CONTINUOUS
10
5.9374
20
-5.81142
11
5.91299
21
-5.81142
0
LINE
8
BLACK
6
CONTINUOUS
10
5.91299
20
-5.81142
11
5.91299
21
-5.78701
0
LINE
8
BLACK
6
CONTINUOUS
10
5.91299
20
-5.78701
11
5.9374
21
-5.78701
0
LINE
8
BLACK
6
CONTINUOUS
10
5.9374
20
-5.78701
11
5.9374
21
-5.81142
0
LINE
8
BLACK
6
CONTINUOUS
10
5.88819
20
-5.81142
11
5.86378
21
-5.81142
0
LINE
8
BLACK
6
CONTINUOUS
10
5.86378
20
-5.81142
11
5.86378
21
-5.78701
0
LINE
8
BLACK
6
CONTINUOUS
10
5.86378
20
-5.78701
11
5.88819
21
-5.78701
0
LINE
8
BLACK
6
CONTINUOUS
10
5.88819
20
-5.78701
11
5.88819
21
-5.81142
0
LINE
8
BLACK
6
CONTINUOUS
10
6.25433
20
-5.78976
11
6.22992
21
-5.78976
0
LINE
8
BLACK
6
CONTINUOUS
10
6.22992
20
-5.78976
11
6.22992
21
-5.76535
0
LINE
8
BLACK
6
CONTINUOUS
10
6.22992
20
-5.76535
11
6.25433
21
-5.76535
0
LINE
8
BLACK
6
CONTINUOUS
10
6.25433
20
-5.76535
11
6.25433
21
-5.78976
0
LINE
8
BLACK
6
CONTINUOUS
10
6.28976
20
-5.78976
11
6.26535
21
-5.78976
0
LINE
8
BLACK
6
CONTINUOUS
10
6.26535
20
-5.78976
11
6.26535
21
-5.76535
0
LINE
8
BLACK
6
CONTINUOUS
10
6.26535
20
-5.76535
11
6.28976
21
-5.76535
0
LINE
8
BLACK
6
CONTINUOUS
10
6.28976
20
-5.76535
11
6.28976
21
-5.78976
0
LINE
8
BLACK
6
CONTINUOUS
10
6.19783
20
-5.78543
11
6.14075
21
-5.78543
0
LINE
8
BLACK
6
CONTINUOUS
10
6.14075
20
-5.78543
11
6.14075
21
-5.76772
0
LINE
8
BLACK
6
CONTINUOUS
10
6.14075
20
-5.76772
11
6.19783
21
-5.76772
0
LINE
8
BLACK
6
CONTINUOUS
10
6.19783
20
-5.76772
11
6.19783
21
-5.78543
0
LINE
8
BLACK
6
CONTINUOUS
10
6.02461
20
-5.78543
11
5.96752
21
-5.78543
0
LINE
8
BLACK
6
CONTINUOUS
10
5.96752
20
-5.78543
11
5.96752
21
-5.76772
0
LINE
8
BLACK
6
CONTINUOUS
10
5.96752
20
-5.76772
11
6.02461
21
-5.76772
0
LINE
8
BLACK
6
CONTINUOUS
10
6.02461
20
-5.76772
11
6.02461
21
-5.78543
0
LINE
8
BLACK
6
CONTINUOUS
10
5.6126
20
-5.78189
11
5.58819
21
-5.78189
0
LINE
8
BLACK
6
CONTINUOUS
10
5.58819
20
-5.78189
11
5.58819
21
-5.75748
0
LINE
8
BLACK
6
CONTINUOUS
10
5.58819
20
-5.75748
11
5.6126
21
-5.75748
0
LINE
8
BLACK
6
CONTINUOUS
10
5.6126
20
-5.75748
11
5.6126
21
-5.78189
0
LINE
8
BLACK
6
CONTINUOUS
10
5.9374
20
-5.76811
11
5.91299
21
-5.76811
0
LINE
8
BLACK
6
CONTINUOUS
10
5.91299
20
-5.76811
11
5.91299
21
-5.7437
0
LINE
8
BLACK
6
CONTINUOUS
10
5.91299
20
-5.7437
11
5.9374
21
-5.7437
0
LINE
8
BLACK
6
CONTINUOUS
10
5.9374
20
-5.7437
11
5.9374
21
-5.76811
0
LINE
8
BLACK
6
CONTINUOUS
10
5.88819
20
-5.76811
11
5.86378
21
-5.76811
0
LINE
8
BLACK
6
CONTINUOUS
10
5.86378
20
-5.76811
11
5.86378
21
-5.7437
0
LINE
8
BLACK
6
CONTINUOUS
10
5.86378
20
-5.7437
11
5.88819
21
-5.7437
0
LINE
8
BLACK
6
CONTINUOUS
10
5.88819
20
-5.7437
11
5.88819
21
-5.76811
0
LINE
8
BLACK
6
CONTINUOUS
10
6.02461
20
-5.75984
11
5.96752
21
-5.75984
0
LINE
8
BLACK
6
CONTINUOUS
10
5.96752
20
-5.75984
11
5.96752
21
-5.74213
0
LINE
8
BLACK
6
CONTINUOUS
10
5.96752
20
-5.74213
11
6.02461
21
-5.74213
0
LINE
8
BLACK
6
CONTINUOUS
10
6.02461
20
-5.74213
11
6.02461
21
-5.75984
0
LINE
8
BLACK
6
CONTINUOUS
10
6.19783
20
-5.75984
11
6.14075
21
-5.75984
0
LINE
8
BLACK
6
CONTINUOUS
10
6.14075
20
-5.75984
11
6.14075
21
-5.74213
0
LINE
8
BLACK
6
CONTINUOUS
10
6.14075
20
-5.74213
11
6.19783
21
-5.74213
0
LINE
8
BLACK
6
CONTINUOUS
10
6.19783
20
-5.74213
11
6.19783
21
-5.75984
0
LINE
8
BLACK
6
CONTINUOUS
10
6.28976
20
-5.74055
11
6.26535
21
-5.74055
0
LINE
8
BLACK
6
CONTINUOUS
10
6.26535
20
-5.74055
11
6.26535
21
-5.71614
0
LINE
8
BLACK
6
CONTINUOUS
10
6.26535
20
-5.71614
11
6.28976
21
-5.71614
0
LINE
8
BLACK
6
CONTINUOUS
10
6.28976
20
-5.71614
11
6.28976
21
-5.74055
0
LINE
8
BLACK
6
CONTINUOUS
10
6.25433
20
-5.74055
11
6.22992
21
-5.74055
0
LINE
8
BLACK
6
CONTINUOUS
10
6.22992
20
-5.74055
11
6.22992
21
-5.71614
0
LINE
8
BLACK
6
CONTINUOUS
10
6.22992
20
-5.71614
11
6.25433
21
-5.71614
0
LINE
8
BLACK
6
CONTINUOUS
10
6.25433
20
-5.71614
11
6.25433
21
-5.74055
0
LINE
8
BLACK
6
CONTINUOUS
10
6.02461
20
-5.73425
11
5.96752
21
-5.73425
0
LINE
8
BLACK
6
CONTINUOUS
10
5.96752
20
-5.73425
11
5.96752
21
-5.71654
0
LINE
8
BLACK
6
CONTINUOUS
10
5.96752
20
-5.71654
11
6.02461
21
-5.71654
0
LINE
8
BLACK
6
CONTINUOUS
10
6.02461
20
-5.71654
11
6.02461
21
-5.73425
0
LINE
8
BLACK
6
CONTINUOUS
10
6.19783
20
-5.73425
11
6.14075
21
-5.73425
0
LINE
8
BLACK
6
CONTINUOUS
10
6.14075
20
-5.73425
11
6.14075
21
-5.71654
0
LINE
8
BLACK
6
CONTINUOUS
10
6.14075
20
-5.71654
11
6.19783
21
-5.71654
0
LINE
8
BLACK
6
CONTINUOUS
10
6.19783
20
-5.71654
11
6.19783
21
-5.73425
0
LINE
8
BLACK
6
CONTINUOUS
10
5.9374
20
-5.73268
11
5.91299
21
-5.73268
0
LINE
8
BLACK
6
CONTINUOUS
10
5.91299
20
-5.73268
11
5.91299
21
-5.70827
0
LINE
8
BLACK
6
CONTINUOUS
10
5.91299
20
-5.70827
11
5.9374
21
-5.70827
0
LINE
8
BLACK
6
CONTINUOUS
10
5.9374
20
-5.70827
11
5.9374
21
-5.73268
0
LINE
8
BLACK
6
CONTINUOUS
10
5.88819
20
-5.73268
11
5.86378
21
-5.73268
0
LINE
8
BLACK
6
CONTINUOUS
10
5.86378
20
-5.73268
11
5.86378
21
-5.70827
0
LINE
8
BLACK
6
CONTINUOUS
10
5.86378
20
-5.70827
11
5.88819
21
-5.70827
0
LINE
8
BLACK
6
CONTINUOUS
10
5.88819
20
-5.70827
11
5.88819
21
-5.73268
0
LINE
8
BLACK
6
CONTINUOUS
10
6.19783
20
-5.70866
11
6.14075
21
-5.70866
0
LINE
8
BLACK
6
CONTINUOUS
10
6.14075
20
-5.70866
11
6.14075
21
-5.69094
0
LINE
8
BLACK
6
CONTINUOUS
10
6.14075
20
-5.69094
11
6.19783
21
-5.69094
0
LINE
8
BLACK
6
CONTINUOUS
10
6.19783
20
-5.69094
11
6.19783
21
-5.70866
0
LINE
8
BLACK
6
CONTINUOUS
10
6.02461
20
-5.70866
11
5.96752
21
-5.70866
0
LINE
8
BLACK
6
CONTINUOUS
10
5.96752
20
-5.70866
11
5.96752
21
-5.69094
0
LINE
8
BLACK
6
CONTINUOUS
10
5.96752
20
-5.69094
11
6.02461
21
-5.69094
0
LINE
8
BLACK
6
CONTINUOUS
10
6.02461
20
-5.69094
11
6.02461
21
-5.70866
0
LINE
8
BLACK
6
CONTINUOUS
10
5.88819
20
-5.68937
11
5.86378
21
-5.68937
0
LINE
8
BLACK
6
CONTINUOUS
10
5.86378
20
-5.68937
11
5.86378
21
-5.66496
0
LINE
8
BLACK
6
CONTINUOUS
10
5.86378
20
-5.66496
11
5.88819
21
-5.66496
0
LINE
8
BLACK
6
CONTINUOUS
10
5.88819
20
-5.66496
11
5.88819
21
-5.68937
0
LINE
8
BLACK
6
CONTINUOUS
10
5.9374
20
-5.68937
11
5.91299
21
-5.68937
0
LINE
8
BLACK
6
CONTINUOUS
10
5.91299
20
-5.68937
11
5.91299
21
-5.66496
0
LINE
8
BLACK
6
CONTINUOUS
10
5.91299
20
-5.66496
11
5.9374
21
-5.66496
0
LINE
8
BLACK
6
CONTINUOUS
10
5.9374
20
-5.66496
11
5.9374
21
-5.68937
0
LINE
8
BLACK
6
CONTINUOUS
10
6.1815
20
-5.66181
11
6.15709
21
-5.66181
0
LINE
8
BLACK
6
CONTINUOUS
10
6.15709
20
-5.66181
11
6.15709
21
-5.6374
0
LINE
8
BLACK
6
CONTINUOUS
10
6.15709
20
-5.6374
11
6.1815
21
-5.6374
0
LINE
8
BLACK
6
CONTINUOUS
10
6.1815
20
-5.6374
11
6.1815
21
-5.66181
0
LINE
8
BLACK
6
CONTINUOUS
10
6.14606
20
-5.66181
11
6.12165
21
-5.66181
0
LINE
8
BLACK
6
CONTINUOUS
10
6.12165
20
-5.66181
11
6.12165
21
-5.6374
0
LINE
8
BLACK
6
CONTINUOUS
10
6.12165
20
-5.6374
11
6.14606
21
-5.6374
0
LINE
8
BLACK
6
CONTINUOUS
10
6.14606
20
-5.6374
11
6.14606
21
-5.66181
0
LINE
8
BLACK
6
CONTINUOUS
10
5.9374
20
-5.65394
11
5.91299
21
-5.65394
0
LINE
8
BLACK
6
CONTINUOUS
10
5.91299
20
-5.65394
11
5.91299
21
-5.62953
0
LINE
8
BLACK
6
CONTINUOUS
10
5.91299
20
-5.62953
11
5.9374
21
-5.62953
0
LINE
8
BLACK
6
CONTINUOUS
10
5.9374
20
-5.62953
11
5.9374
21
-5.65394
0
LINE
8
BLACK
6
CONTINUOUS
10
5.88819
20
-5.65394
11
5.86378
21
-5.65394
0
LINE
8
BLACK
6
CONTINUOUS
10
5.86378
20
-5.65394
11
5.86378
21
-5.62953
0
LINE
8
BLACK
6
CONTINUOUS
10
5.86378
20
-5.62953
11
5.88819
21
-5.62953
0
LINE
8
BLACK
6
CONTINUOUS
10
5.88819
20
-5.62953
11
5.88819
21
-5.65394
0
LINE
8
BLACK
6
CONTINUOUS
10
5.75886
20
-5.63976
11
5.72146
21
-5.63976
0
LINE
8
BLACK
6
CONTINUOUS
10
5.72146
20
-5.63976
11
5.72146
21
-5.60039
0
LINE
8
BLACK
6
CONTINUOUS
10
5.72146
20
-5.60039
11
5.75886
21
-5.60039
0
LINE
8
BLACK
6
CONTINUOUS
10
5.75886
20
-5.60039
11
5.75886
21
-5.63976
0
LINE
8
BLACK
6
CONTINUOUS
10
5.69587
20
-5.63976
11
5.65846
21
-5.63976
0
LINE
8
BLACK
6
CONTINUOUS
10
5.65846
20
-5.63976
11
5.65846
21
-5.60039
0
LINE
8
BLACK
6
CONTINUOUS
10
5.65846
20
-5.60039
11
5.69587
21
-5.60039
0
LINE
8
BLACK
6
CONTINUOUS
10
5.69587
20
-5.60039
11
5.69587
21
-5.63976
0
LINE
8
BLACK
6
CONTINUOUS
10
5.6126
20
-5.63031
11
5.58819
21
-5.63031
0
LINE
8
BLACK
6
CONTINUOUS
10
5.58819
20
-5.63031
11
5.58819
21
-5.60591
0
LINE
8
BLACK
6
CONTINUOUS
10
5.58819
20
-5.60591
11
5.6126
21
-5.60591
0
LINE
8
BLACK
6
CONTINUOUS
10
5.6126
20
-5.60591
11
5.6126
21
-5.63031
0
LINE
8
BLACK
6
CONTINUOUS
10
6.12894
20
-5.62008
11
6.09154
21
-5.62008
0
LINE
8
BLACK
6
CONTINUOUS
10
6.09154
20
-5.62008
11
6.09154
21
-5.58071
0
LINE
8
BLACK
6
CONTINUOUS
10
6.09154
20
-5.58071
11
6.12894
21
-5.58071
0
LINE
8
BLACK
6
CONTINUOUS
10
6.12894
20
-5.58071
11
6.12894
21
-5.62008
0
LINE
8
BLACK
6
CONTINUOUS
10
6.19193
20
-5.62008
11
6.15453
21
-5.62008
0
LINE
8
BLACK
6
CONTINUOUS
10
6.15453
20
-5.62008
11
6.15453
21
-5.58071
0
LINE
8
BLACK
6
CONTINUOUS
10
6.15453
20
-5.58071
11
6.19193
21
-5.58071
0
LINE
8
BLACK
6
CONTINUOUS
10
6.19193
20
-5.58071
11
6.19193
21
-5.62008
0
LINE
8
BLACK
6
CONTINUOUS
10
6.01083
20
-5.62008
11
5.97343
21
-5.62008
0
LINE
8
BLACK
6
CONTINUOUS
10
5.97343
20
-5.62008
11
5.97343
21
-5.58071
0
LINE
8
BLACK
6
CONTINUOUS
10
5.97343
20
-5.58071
11
6.01083
21
-5.58071
0
LINE
8
BLACK
6
CONTINUOUS
10
6.01083
20
-5.58071
11
6.01083
21
-5.62008
0
LINE
8
BLACK
6
CONTINUOUS
10
6.07382
20
-5.62008
11
6.03642
21
-5.62008
0
LINE
8
BLACK
6
CONTINUOUS
10
6.03642
20
-5.62008
11
6.03642
21
-5.58071
0
LINE
8
BLACK
6
CONTINUOUS
10
6.03642
20
-5.58071
11
6.07382
21
-5.58071
0
LINE
8
BLACK
6
CONTINUOUS
10
6.07382
20
-5.58071
11
6.07382
21
-5.62008
0
LINE
8
BLACK
6
CONTINUOUS
10
5.6126
20
-5.59488
11
5.58819
21
-5.59488
0
LINE
8
BLACK
6
CONTINUOUS
10
5.58819
20
-5.59488
11
5.58819
21
-5.57047
0
LINE
8
BLACK
6
CONTINUOUS
10
5.58819
20
-5.57047
11
5.6126
21
-5.57047
0
LINE
8
BLACK
6
CONTINUOUS
10
5.6126
20
-5.57047
11
5.6126
21
-5.59488
0
LINE
8
BLACK
6
CONTINUOUS
10
5.89409
20
-5.58307
11
5.86969
21
-5.58307
0
LINE
8
BLACK
6
CONTINUOUS
10
5.86969
20
-5.58307
11
5.86969
21
-5.55866
0
LINE
8
BLACK
6
CONTINUOUS
10
5.86969
20
-5.55866
11
5.89409
21
-5.55866
0
LINE
8
BLACK
6
CONTINUOUS
10
5.89409
20
-5.55866
11
5.89409
21
-5.58307
0
LINE
8
BLACK
6
CONTINUOUS
10
5.92953
20
-5.58307
11
5.90512
21
-5.58307
0
LINE
8
BLACK
6
CONTINUOUS
10
5.90512
20
-5.58307
11
5.90512
21
-5.55866
0
LINE
8
BLACK
6
CONTINUOUS
10
5.90512
20
-5.55866
11
5.92953
21
-5.55866
0
LINE
8
BLACK
6
CONTINUOUS
10
5.92953
20
-5.55866
11
5.92953
21
-5.58307
0
LINE
8
BLACK
6
CONTINUOUS
10
6.25236
20
-5.57126
11
6.22795
21
-5.57126
0
LINE
8
BLACK
6
CONTINUOUS
10
6.22795
20
-5.57126
11
6.22795
21
-5.54685
0
LINE
8
BLACK
6
CONTINUOUS
10
6.22795
20
-5.54685
11
6.25236
21
-5.54685
0
LINE
8
BLACK
6
CONTINUOUS
10
6.25236
20
-5.54685
11
6.25236
21
-5.57126
0
LINE
8
BLACK
6
CONTINUOUS
10
6.30157
20
-5.57126
11
6.27717
21
-5.57126
0
LINE
8
BLACK
6
CONTINUOUS
10
6.27717
20
-5.57126
11
6.27717
21
-5.54685
0
LINE
8
BLACK
6
CONTINUOUS
10
6.27717
20
-5.54685
11
6.30157
21
-5.54685
0
LINE
8
BLACK
6
CONTINUOUS
10
6.30157
20
-5.54685
11
6.30157
21
-5.57126
0
LINE
8
BLACK
6
CONTINUOUS
10
6.00827
20
-5.56339
11
5.98386
21
-5.56339
0
LINE
8
BLACK
6
CONTINUOUS
10
5.98386
20
-5.56339
11
5.98386
21
-5.53898
0
LINE
8
BLACK
6
CONTINUOUS
10
5.98386
20
-5.53898
11
6.00827
21
-5.53898
0
LINE
8
BLACK
6
CONTINUOUS
10
6.00827
20
-5.53898
11
6.00827
21
-5.56339
0
LINE
8
BLACK
6
CONTINUOUS
10
6.0437
20
-5.56339
11
6.01929
21
-5.56339
0
LINE
8
BLACK
6
CONTINUOUS
10
6.01929
20
-5.56339
11
6.01929
21
-5.53898
0
LINE
8
BLACK
6
CONTINUOUS
10
6.01929
20
-5.53898
11
6.0437
21
-5.53898
0
LINE
8
BLACK
6
CONTINUOUS
10
6.0437
20
-5.53898
11
6.0437
21
-5.56339
0
LINE
8
BLACK
6
CONTINUOUS
10
6.25236
20
-5.53583
11
6.22795
21
-5.53583
0
LINE
8
BLACK
6
CONTINUOUS
10
6.22795
20
-5.53583
11
6.22795
21
-5.51142
0
LINE
8
BLACK
6
CONTINUOUS
10
6.22795
20
-5.51142
11
6.25236
21
-5.51142
0
LINE
8
BLACK
6
CONTINUOUS
10
6.25236
20
-5.51142
11
6.25236
21
-5.53583
0
LINE
8
BLACK
6
CONTINUOUS
10
6.30157
20
-5.53583
11
6.27717
21
-5.53583
0
LINE
8
BLACK
6
CONTINUOUS
10
6.27717
20
-5.53583
11
6.27717
21
-5.51142
0
LINE
8
BLACK
6
CONTINUOUS
10
6.27717
20
-5.51142
11
6.30157
21
-5.51142
0
LINE
8
BLACK
6
CONTINUOUS
10
6.30157
20
-5.51142
11
6.30157
21
-5.53583
0
LINE
8
BLACK
6
CONTINUOUS
10
6.02461
20
-5.50984
11
5.96752
21
-5.50984
0
LINE
8
BLACK
6
CONTINUOUS
10
5.96752
20
-5.50984
11
5.96752
21
-5.49213
0
LINE
8
BLACK
6
CONTINUOUS
10
5.96752
20
-5.49213
11
6.02461
21
-5.49213
0
LINE
8
BLACK
6
CONTINUOUS
10
6.02461
20
-5.49213
11
6.02461
21
-5.50984
0
LINE
8
BLACK
6
CONTINUOUS
10
6.19783
20
-5.50984
11
6.14075
21
-5.50984
0
LINE
8
BLACK
6
CONTINUOUS
10
6.14075
20
-5.50984
11
6.14075
21
-5.49213
0
LINE
8
BLACK
6
CONTINUOUS
10
6.14075
20
-5.49213
11
6.19783
21
-5.49213
0
LINE
8
BLACK
6
CONTINUOUS
10
6.19783
20
-5.49213
11
6.19783
21
-5.50984
0
LINE
8
BLACK
6
CONTINUOUS
10
6.30157
20
-5.49252
11
6.27717
21
-5.49252
0
LINE
8
BLACK
6
CONTINUOUS
10
6.27717
20
-5.49252
11
6.27717
21
-5.46811
0
LINE
8
BLACK
6
CONTINUOUS
10
6.27717
20
-5.46811
11
6.30157
21
-5.46811
0
LINE
8
BLACK
6
CONTINUOUS
10
6.30157
20
-5.46811
11
6.30157
21
-5.49252
0
LINE
8
BLACK
6
CONTINUOUS
10
6.25236
20
-5.49252
11
6.22795
21
-5.49252
0
LINE
8
BLACK
6
CONTINUOUS
10
6.22795
20
-5.49252
11
6.22795
21
-5.46811
0
LINE
8
BLACK
6
CONTINUOUS
10
6.22795
20
-5.46811
11
6.25236
21
-5.46811
0
LINE
8
BLACK
6
CONTINUOUS
10
6.25236
20
-5.46811
11
6.25236
21
-5.49252
0
LINE
8
BLACK
6
CONTINUOUS
10
5.93543
20
-5.48465
11
5.91102
21
-5.48465
0
LINE
8
BLACK
6
CONTINUOUS
10
5.91102
20
-5.48465
11
5.91102
21
-5.46024
0
LINE
8
BLACK
6
CONTINUOUS
10
5.91102
20
-5.46024
11
5.93543
21
-5.46024
0
LINE
8
BLACK
6
CONTINUOUS
10
5.93543
20
-5.46024
11
5.93543
21
-5.48465
0
LINE
8
BLACK
6
CONTINUOUS
10
5.9
20
-5.48465
11
5.87559
21
-5.48465
0
LINE
8
BLACK
6
CONTINUOUS
10
5.87559
20
-5.48465
11
5.87559
21
-5.46024
0
LINE
8
BLACK
6
CONTINUOUS
10
5.87559
20
-5.46024
11
5.9
21
-5.46024
0
LINE
8
BLACK
6
CONTINUOUS
10
5.9
20
-5.46024
11
5.9
21
-5.48465
0
LINE
8
BLACK
6
CONTINUOUS
10
6.02461
20
-5.48425
11
5.96752
21
-5.48425
0
LINE
8
BLACK
6
CONTINUOUS
10
5.96752
20
-5.48425
11
5.96752
21
-5.46654
0
LINE
8
BLACK
6
CONTINUOUS
10
5.96752
20
-5.46654
11
6.02461
21
-5.46654
0
LINE
8
BLACK
6
CONTINUOUS
10
6.02461
20
-5.46654
11
6.02461
21
-5.48425
0
LINE
8
BLACK
6
CONTINUOUS
10
6.19783
20
-5.48425
11
6.14075
21
-5.48425
0
LINE
8
BLACK
6
CONTINUOUS
10
6.14075
20
-5.48425
11
6.14075
21
-5.46654
0
LINE
8
BLACK
6
CONTINUOUS
10
6.14075
20
-5.46654
11
6.19783
21
-5.46654
0
LINE
8
BLACK
6
CONTINUOUS
10
6.19783
20
-5.46654
11
6.19783
21
-5.48425
0
LINE
8
BLACK
6
CONTINUOUS
10
7.4872
20
-5.48228
11
7.4498
21
-5.48228
0
LINE
8
BLACK
6
CONTINUOUS
10
7.4498
20
-5.48228
11
7.4498
21
-5.44291
0
LINE
8
BLACK
6
CONTINUOUS
10
7.4498
20
-5.44291
11
7.4872
21
-5.44291
0
LINE
8
BLACK
6
CONTINUOUS
10
7.4872
20
-5.44291
11
7.4872
21
-5.48228
0
LINE
8
BLACK
6
CONTINUOUS
10
7.5502
20
-5.48228
11
7.5128
21
-5.48228
0
LINE
8
BLACK
6
CONTINUOUS
10
7.5128
20
-5.48228
11
7.5128
21
-5.44291
0
LINE
8
BLACK
6
CONTINUOUS
10
7.5128
20
-5.44291
11
7.5502
21
-5.44291
0
LINE
8
BLACK
6
CONTINUOUS
10
7.5502
20
-5.44291
11
7.5502
21
-5.48228
0
LINE
8
BLACK
6
CONTINUOUS
10
7.77598
20
-5.4748
11
7.75157
21
-5.4748
0
LINE
8
BLACK
6
CONTINUOUS
10
7.75157
20
-5.4748
11
7.75157
21
-5.45039
0
LINE
8
BLACK
6
CONTINUOUS
10
7.75157
20
-5.45039
11
7.77598
21
-5.45039
0
LINE
8
BLACK
6
CONTINUOUS
10
7.77598
20
-5.45039
11
7.77598
21
-5.4748
0
LINE
8
BLACK
6
CONTINUOUS
10
7.74055
20
-5.4748
11
7.71614
21
-5.4748
0
LINE
8
BLACK
6
CONTINUOUS
10
7.71614
20
-5.4748
11
7.71614
21
-5.45039
0
LINE
8
BLACK
6
CONTINUOUS
10
7.71614
20
-5.45039
11
7.74055
21
-5.45039
0
LINE
8
BLACK
6
CONTINUOUS
10
7.74055
20
-5.45039
11
7.74055
21
-5.4748
0
LINE
8
BLACK
6
CONTINUOUS
10
7.40394
20
-5.47283
11
7.37953
21
-5.47283
0
LINE
8
BLACK
6
CONTINUOUS
10
7.37953
20
-5.47283
11
7.37953
21
-5.44843
0
LINE
8
BLACK
6
CONTINUOUS
10
7.37953
20
-5.44843
11
7.40394
21
-5.44843
0
LINE
8
BLACK
6
CONTINUOUS
10
7.40394
20
-5.44843
11
7.40394
21
-5.47283
0
LINE
8
BLACK
6
CONTINUOUS
10
6.02461
20
-5.45866
11
5.96752
21
-5.45866
0
LINE
8
BLACK
6
CONTINUOUS
10
5.96752
20
-5.45866
11
5.96752
21
-5.44094
0
LINE
8
BLACK
6
CONTINUOUS
10
5.96752
20
-5.44094
11
6.02461
21
-5.44094
0
LINE
8
BLACK
6
CONTINUOUS
10
6.02461
20
-5.44094
11
6.02461
21
-5.45866
0
LINE
8
BLACK
6
CONTINUOUS
10
6.19783
20
-5.45866
11
6.14075
21
-5.45866
0
LINE
8
BLACK
6
CONTINUOUS
10
6.14075
20
-5.45866
11
6.14075
21
-5.44094
0
LINE
8
BLACK
6
CONTINUOUS
10
6.14075
20
-5.44094
11
6.19783
21
-5.44094
0
LINE
8
BLACK
6
CONTINUOUS
10
6.19783
20
-5.44094
11
6.19783
21
-5.45866
0
LINE
8
BLACK
6
CONTINUOUS
10
6.25236
20
-5.45709
11
6.22795
21
-5.45709
0
LINE
8
BLACK
6
CONTINUOUS
10
6.22795
20
-5.45709
11
6.22795
21
-5.43268
0
LINE
8
BLACK
6
CONTINUOUS
10
6.22795
20
-5.43268
11
6.25236
21
-5.43268
0
LINE
8
BLACK
6
CONTINUOUS
10
6.25236
20
-5.43268
11
6.25236
21
-5.45709
0
LINE
8
BLACK
6
CONTINUOUS
10
6.30157
20
-5.45709
11
6.27717
21
-5.45709
0
LINE
8
BLACK
6
CONTINUOUS
10
6.27717
20
-5.45709
11
6.27717
21
-5.43268
0
LINE
8
BLACK
6
CONTINUOUS
10
6.27717
20
-5.43268
11
6.30157
21
-5.43268
0
LINE
8
BLACK
6
CONTINUOUS
10
6.30157
20
-5.43268
11
6.30157
21
-5.45709
0
LINE
8
BLACK
6
CONTINUOUS
10
7.40394
20
-5.4374
11
7.37953
21
-5.4374
0
LINE
8
BLACK
6
CONTINUOUS
10
7.37953
20
-5.4374
11
7.37953
21
-5.41299
0
LINE
8
BLACK
6
CONTINUOUS
10
7.37953
20
-5.41299
11
7.40394
21
-5.41299
0
LINE
8
BLACK
6
CONTINUOUS
10
7.40394
20
-5.41299
11
7.40394
21
-5.4374
0
LINE
8
BLACK
6
CONTINUOUS
10
7.77598
20
-5.43543
11
7.75157
21
-5.43543
0
LINE
8
BLACK
6
CONTINUOUS
10
7.75157
20
-5.43543
11
7.75157
21
-5.41102
0
LINE
8
BLACK
6
CONTINUOUS
10
7.75157
20
-5.41102
11
7.77598
21
-5.41102
0
LINE
8
BLACK
6
CONTINUOUS
10
7.77598
20
-5.41102
11
7.77598
21
-5.43543
0
LINE
8
BLACK
6
CONTINUOUS
10
7.74055
20
-5.43543
11
7.71614
21
-5.43543
0
LINE
8
BLACK
6
CONTINUOUS
10
7.71614
20
-5.43543
11
7.71614
21
-5.41102
0
LINE
8
BLACK
6
CONTINUOUS
10
7.71614
20
-5.41102
11
7.74055
21
-5.41102
0
LINE
8
BLACK
6
CONTINUOUS
10
7.74055
20
-5.41102
11
7.74055
21
-5.43543
0
LINE
8
BLACK
6
CONTINUOUS
10
5.93543
20
-5.43543
11
5.91102
21
-5.43543
0
LINE
8
BLACK
6
CONTINUOUS
10
5.91102
20
-5.43543
11
5.91102
21
-5.41102
0
LINE
8
BLACK
6
CONTINUOUS
10
5.91102
20
-5.41102
11
5.93543
21
-5.41102
0
LINE
8
BLACK
6
CONTINUOUS
10
5.93543
20
-5.41102
11
5.93543
21
-5.43543
0
LINE
8
BLACK
6
CONTINUOUS
10
5.9
20
-5.43543
11
5.87559
21
-5.43543
0
LINE
8
BLACK
6
CONTINUOUS
10
5.87559
20
-5.43543
11
5.87559
21
-5.41102
0
LINE
8
BLACK
6
CONTINUOUS
10
5.87559
20
-5.41102
11
5.9
21
-5.41102
0
LINE
8
BLACK
6
CONTINUOUS
10
5.9
20
-5.41102
11
5.9
21
-5.43543
0
LINE
8
BLACK
6
CONTINUOUS
10
6.02461
20
-5.43307
11
5.96752
21
-5.43307
0
LINE
8
BLACK
6
CONTINUOUS
10
5.96752
20
-5.43307
11
5.96752
21
-5.41535
0
LINE
8
BLACK
6
CONTINUOUS
10
5.96752
20
-5.41535
11
6.02461
21
-5.41535
0
LINE
8
BLACK
6
CONTINUOUS
10
6.02461
20
-5.41535
11
6.02461
21
-5.43307
0
LINE
8
BLACK
6
CONTINUOUS
10
6.19783
20
-5.43307
11
6.14075
21
-5.43307
0
LINE
8
BLACK
6
CONTINUOUS
10
6.14075
20
-5.43307
11
6.14075
21
-5.41535
0
LINE
8
BLACK
6
CONTINUOUS
10
6.14075
20
-5.41535
11
6.19783
21
-5.41535
0
LINE
8
BLACK
6
CONTINUOUS
10
6.19783
20
-5.41535
11
6.19783
21
-5.43307
0
LINE
8
BLACK
6
CONTINUOUS
10
6.30157
20
-5.41378
11
6.27717
21
-5.41378
0
LINE
8
BLACK
6
CONTINUOUS
10
6.27717
20
-5.41378
11
6.27717
21
-5.38937
0
LINE
8
BLACK
6
CONTINUOUS
10
6.27717
20
-5.38937
11
6.30157
21
-5.38937
0
LINE
8
BLACK
6
CONTINUOUS
10
6.30157
20
-5.38937
11
6.30157
21
-5.41378
0
LINE
8
BLACK
6
CONTINUOUS
10
6.25236
20
-5.41378
11
6.22795
21
-5.41378
0
LINE
8
BLACK
6
CONTINUOUS
10
6.22795
20
-5.41378
11
6.22795
21
-5.38937
0
LINE
8
BLACK
6
CONTINUOUS
10
6.22795
20
-5.38937
11
6.25236
21
-5.38937
0
LINE
8
BLACK
6
CONTINUOUS
10
6.25236
20
-5.38937
11
6.25236
21
-5.41378
0
LINE
8
BLACK
6
CONTINUOUS
10
7.77598
20
-5.39606
11
7.75157
21
-5.39606
0
LINE
8
BLACK
6
CONTINUOUS
10
7.75157
20
-5.39606
11
7.75157
21
-5.37165
0
LINE
8
BLACK
6
CONTINUOUS
10
7.75157
20
-5.37165
11
7.77598
21
-5.37165
0
LINE
8
BLACK
6
CONTINUOUS
10
7.77598
20
-5.37165
11
7.77598
21
-5.39606
0
LINE
8
BLACK
6
CONTINUOUS
10
7.74055
20
-5.39606
11
7.71614
21
-5.39606
0
LINE
8
BLACK
6
CONTINUOUS
10
7.71614
20
-5.39606
11
7.71614
21
-5.37165
0
LINE
8
BLACK
6
CONTINUOUS
10
7.71614
20
-5.37165
11
7.74055
21
-5.37165
0
LINE
8
BLACK
6
CONTINUOUS
10
7.74055
20
-5.37165
11
7.74055
21
-5.39606
0
LINE
8
BLACK
6
CONTINUOUS
10
6.02067
20
-5.38287
11
5.99902
21
-5.38287
0
LINE
8
BLACK
6
CONTINUOUS
10
5.99902
20
-5.38287
11
5.99902
21
-5.34941
0
LINE
8
BLACK
6
CONTINUOUS
10
5.99902
20
-5.34941
11
6.02067
21
-5.34941
0
LINE
8
BLACK
6
CONTINUOUS
10
6.02067
20
-5.34941
11
6.02067
21
-5.38287
0
LINE
8
BLACK
6
CONTINUOUS
10
5.96949
20
-5.38287
11
5.94783
21
-5.38287
0
LINE
8
BLACK
6
CONTINUOUS
10
5.94783
20
-5.38287
11
5.94783
21
-5.34941
0
LINE
8
BLACK
6
CONTINUOUS
10
5.94783
20
-5.34941
11
5.96949
21
-5.34941
0
LINE
8
BLACK
6
CONTINUOUS
10
5.96949
20
-5.34941
11
5.96949
21
-5.38287
0
LINE
8
BLACK
6
CONTINUOUS
10
6.30157
20
-5.37835
11
6.27717
21
-5.37835
0
LINE
8
BLACK
6
CONTINUOUS
10
6.27717
20
-5.37835
11
6.27717
21
-5.35394
0
LINE
8
BLACK
6
CONTINUOUS
10
6.27717
20
-5.35394
11
6.30157
21
-5.35394
0
LINE
8
BLACK
6
CONTINUOUS
10
6.30157
20
-5.35394
11
6.30157
21
-5.37835
0
LINE
8
BLACK
6
CONTINUOUS
10
6.25236
20
-5.37835
11
6.22795
21
-5.37835
0
LINE
8
BLACK
6
CONTINUOUS
10
6.22795
20
-5.37835
11
6.22795
21
-5.35394
0
LINE
8
BLACK
6
CONTINUOUS
10
6.22795
20
-5.35394
11
6.25236
21
-5.35394
0
LINE
8
BLACK
6
CONTINUOUS
10
6.25236
20
-5.35394
11
6.25236
21
-5.37835
0
LINE
8
BLACK
6
CONTINUOUS
10
5.88031
20
-5.37638
11
5.85591
21
-5.37638
0
LINE
8
BLACK
6
CONTINUOUS
10
5.85591
20
-5.37638
11
5.85591
21
-5.35197
0
LINE
8
BLACK
6
CONTINUOUS
10
5.85591
20
-5.35197
11
5.88031
21
-5.35197
0
LINE
8
BLACK
6
CONTINUOUS
10
5.88031
20
-5.35197
11
5.88031
21
-5.37638
0
LINE
8
BLACK
6
CONTINUOUS
10
5.91575
20
-5.37638
11
5.89134
21
-5.37638
0
LINE
8
BLACK
6
CONTINUOUS
10
5.89134
20
-5.37638
11
5.89134
21
-5.35197
0
LINE
8
BLACK
6
CONTINUOUS
10
5.89134
20
-5.35197
11
5.91575
21
-5.35197
0
LINE
8
BLACK
6
CONTINUOUS
10
5.91575
20
-5.35197
11
5.91575
21
-5.37638
0
LINE
8
BLACK
6
CONTINUOUS
10
6.0752
20
-5.33504
11
6.05079
21
-5.33504
0
LINE
8
BLACK
6
CONTINUOUS
10
6.05079
20
-5.33504
11
6.05079
21
-5.31063
0
LINE
8
BLACK
6
CONTINUOUS
10
6.05079
20
-5.31063
11
6.0752
21
-5.31063
0
LINE
8
BLACK
6
CONTINUOUS
10
6.0752
20
-5.31063
11
6.0752
21
-5.33504
0
LINE
8
BLACK
6
CONTINUOUS
10
7.48465
20
-5.31732
11
7.46024
21
-5.31732
0
LINE
8
BLACK
6
CONTINUOUS
10
7.46024
20
-5.31732
11
7.46024
21
-5.29291
0
LINE
8
BLACK
6
CONTINUOUS
10
7.46024
20
-5.29291
11
7.48465
21
-5.29291
0
LINE
8
BLACK
6
CONTINUOUS
10
7.48465
20
-5.29291
11
7.48465
21
-5.31732
0
LINE
8
BLACK
6
CONTINUOUS
10
7.38622
20
-5.31732
11
7.36181
21
-5.31732
0
LINE
8
BLACK
6
CONTINUOUS
10
7.36181
20
-5.31732
11
7.36181
21
-5.29291
0
LINE
8
BLACK
6
CONTINUOUS
10
7.36181
20
-5.29291
11
7.38622
21
-5.29291
0
LINE
8
BLACK
6
CONTINUOUS
10
7.38622
20
-5.29291
11
7.38622
21
-5.31732
0
LINE
8
BLACK
6
CONTINUOUS
10
7.52008
20
-5.31732
11
7.49567
21
-5.31732
0
LINE
8
BLACK
6
CONTINUOUS
10
7.49567
20
-5.31732
11
7.49567
21
-5.29291
0
LINE
8
BLACK
6
CONTINUOUS
10
7.49567
20
-5.29291
11
7.52008
21
-5.29291
0
LINE
8
BLACK
6
CONTINUOUS
10
7.52008
20
-5.29291
11
7.52008
21
-5.31732
0
LINE
8
BLACK
6
CONTINUOUS
10
7.42165
20
-5.31732
11
7.39724
21
-5.31732
0
LINE
8
BLACK
6
CONTINUOUS
10
7.39724
20
-5.31732
11
7.39724
21
-5.29291
0
LINE
8
BLACK
6
CONTINUOUS
10
7.39724
20
-5.29291
11
7.42165
21
-5.29291
0
LINE
8
BLACK
6
CONTINUOUS
10
7.42165
20
-5.29291
11
7.42165
21
-5.31732
0
LINE
8
BLACK
6
CONTINUOUS
10
5.84488
20
-5.30945
11
5.82047
21
-5.30945
0
LINE
8
BLACK
6
CONTINUOUS
10
5.82047
20
-5.30945
11
5.82047
21
-5.28504
0
LINE
8
BLACK
6
CONTINUOUS
10
5.82047
20
-5.28504
11
5.84488
21
-5.28504
0
LINE
8
BLACK
6
CONTINUOUS
10
5.84488
20
-5.28504
11
5.84488
21
-5.30945
0
LINE
8
BLACK
6
CONTINUOUS
10
5.88031
20
-5.30945
11
5.85591
21
-5.30945
0
LINE
8
BLACK
6
CONTINUOUS
10
5.85591
20
-5.30945
11
5.85591
21
-5.28504
0
LINE
8
BLACK
6
CONTINUOUS
10
5.85591
20
-5.28504
11
5.88031
21
-5.28504
0
LINE
8
BLACK
6
CONTINUOUS
10
5.88031
20
-5.28504
11
5.88031
21
-5.30945
0
LINE
8
BLACK
6
CONTINUOUS
10
5.99508
20
-5.3002
11
5.97343
21
-5.3002
0
LINE
8
BLACK
6
CONTINUOUS
10
5.97343
20
-5.3002
11
5.97343
21
-5.26673
0
LINE
8
BLACK
6
CONTINUOUS
10
5.97343
20
-5.26673
11
5.99508
21
-5.26673
0
LINE
8
BLACK
6
CONTINUOUS
10
5.99508
20
-5.26673
11
5.99508
21
-5.3002
0
LINE
8
BLACK
6
CONTINUOUS
10
6.0752
20
-5.29961
11
6.05079
21
-5.29961
0
LINE
8
BLACK
6
CONTINUOUS
10
6.05079
20
-5.29961
11
6.05079
21
-5.2752
0
LINE
8
BLACK
6
CONTINUOUS
10
6.05079
20
-5.2752
11
6.0752
21
-5.2752
0
LINE
8
BLACK
6
CONTINUOUS
10
6.0752
20
-5.2752
11
6.0752
21
-5.29961
0
LINE
8
BLACK
6
CONTINUOUS
10
6.1815
20
-5.29764
11
6.15709
21
-5.29764
0
LINE
8
BLACK
6
CONTINUOUS
10
6.15709
20
-5.29764
11
6.15709
21
-5.27323
0
LINE
8
BLACK
6
CONTINUOUS
10
6.15709
20
-5.27323
11
6.1815
21
-5.27323
0
LINE
8
BLACK
6
CONTINUOUS
10
6.1815
20
-5.27323
11
6.1815
21
-5.29764
0
LINE
8
BLACK
6
CONTINUOUS
10
6.14606
20
-5.29764
11
6.12165
21
-5.29764
0
LINE
8
BLACK
6
CONTINUOUS
10
6.12165
20
-5.29764
11
6.12165
21
-5.27323
0
LINE
8
BLACK
6
CONTINUOUS
10
6.12165
20
-5.27323
11
6.14606
21
-5.27323
0
LINE
8
BLACK
6
CONTINUOUS
10
6.14606
20
-5.27323
11
6.14606
21
-5.29764
0
LINE
8
BLACK
6
CONTINUOUS
10
5.9374
20
-5.29567
11
5.91299
21
-5.29567
0
LINE
8
BLACK
6
CONTINUOUS
10
5.91299
20
-5.29567
11
5.91299
21
-5.27126
0
LINE
8
BLACK
6
CONTINUOUS
10
5.91299
20
-5.27126
11
5.9374
21
-5.27126
0
LINE
8
BLACK
6
CONTINUOUS
10
5.9374
20
-5.27126
11
5.9374
21
-5.29567
0
LINE
8
BLACK
6
CONTINUOUS
10
7.28583
20
-5.26614
11
7.26142
21
-5.26614
0
LINE
8
BLACK
6
CONTINUOUS
10
7.26142
20
-5.26614
11
7.26142
21
-5.24173
0
LINE
8
BLACK
6
CONTINUOUS
10
7.26142
20
-5.24173
11
7.28583
21
-5.24173
0
LINE
8
BLACK
6
CONTINUOUS
10
7.28583
20
-5.24173
11
7.28583
21
-5.26614
0
LINE
8
BLACK
6
CONTINUOUS
10
6.55748
20
-5.26614
11
6.53307
21
-5.26614
0
LINE
8
BLACK
6
CONTINUOUS
10
6.53307
20
-5.26614
11
6.53307
21
-5.24173
0
LINE
8
BLACK
6
CONTINUOUS
10
6.53307
20
-5.24173
11
6.55748
21
-5.24173
0
LINE
8
BLACK
6
CONTINUOUS
10
6.55748
20
-5.24173
11
6.55748
21
-5.26614
0
LINE
8
BLACK
6
CONTINUOUS
10
5.9374
20
-5.26024
11
5.91299
21
-5.26024
0
LINE
8
BLACK
6
CONTINUOUS
10
5.91299
20
-5.26024
11
5.91299
21
-5.23583
0
LINE
8
BLACK
6
CONTINUOUS
10
5.91299
20
-5.23583
11
5.9374
21
-5.23583
0
LINE
8
BLACK
6
CONTINUOUS
10
5.9374
20
-5.23583
11
5.9374
21
-5.26024
0
LINE
8
BLACK
6
CONTINUOUS
10
5.88031
20
-5.26024
11
5.85591
21
-5.26024
0
LINE
8
BLACK
6
CONTINUOUS
10
5.85591
20
-5.26024
11
5.85591
21
-5.23583
0
LINE
8
BLACK
6
CONTINUOUS
10
5.85591
20
-5.23583
11
5.88031
21
-5.23583
0
LINE
8
BLACK
6
CONTINUOUS
10
5.88031
20
-5.23583
11
5.88031
21
-5.26024
0
LINE
8
BLACK
6
CONTINUOUS
10
5.84488
20
-5.26024
11
5.82047
21
-5.26024
0
LINE
8
BLACK
6
CONTINUOUS
10
5.82047
20
-5.26024
11
5.82047
21
-5.23583
0
LINE
8
BLACK
6
CONTINUOUS
10
5.82047
20
-5.23583
11
5.84488
21
-5.23583
0
LINE
8
BLACK
6
CONTINUOUS
10
5.84488
20
-5.23583
11
5.84488
21
-5.26024
0
LINE
8
BLACK
6
CONTINUOUS
10
7.39764
20
-5.24409
11
7.32283
21
-5.24409
0
LINE
8
BLACK
6
CONTINUOUS
10
7.32283
20
-5.24409
11
7.32283
21
-5.14961
0
LINE
8
BLACK
6
CONTINUOUS
10
7.32283
20
-5.14961
11
7.39764
21
-5.14961
0
LINE
8
BLACK
6
CONTINUOUS
10
7.39764
20
-5.14961
11
7.39764
21
-5.24409
0
LINE
8
BLACK
6
CONTINUOUS
10
7.55906
20
-5.24409
11
7.48425
21
-5.24409
0
LINE
8
BLACK
6
CONTINUOUS
10
7.48425
20
-5.24409
11
7.48425
21
-5.14961
0
LINE
8
BLACK
6
CONTINUOUS
10
7.48425
20
-5.14961
11
7.55906
21
-5.14961
0
LINE
8
BLACK
6
CONTINUOUS
10
7.55906
20
-5.14961
11
7.55906
21
-5.24409
0
LINE
8
BLACK
6
CONTINUOUS
10
6.28976
20
-5.23858
11
6.26535
21
-5.23858
0
LINE
8
BLACK
6
CONTINUOUS
10
6.26535
20
-5.23858
11
6.26535
21
-5.21417
0
LINE
8
BLACK
6
CONTINUOUS
10
6.26535
20
-5.21417
11
6.28976
21
-5.21417
0
LINE
8
BLACK
6
CONTINUOUS
10
6.28976
20
-5.21417
11
6.28976
21
-5.23858
0
LINE
8
BLACK
6
CONTINUOUS
10
6.25433
20
-5.23858
11
6.22992
21
-5.23858
0
LINE
8
BLACK
6
CONTINUOUS
10
6.22992
20
-5.23858
11
6.22992
21
-5.21417
0
LINE
8
BLACK
6
CONTINUOUS
10
6.22992
20
-5.21417
11
6.25433
21
-5.21417
0
LINE
8
BLACK
6
CONTINUOUS
10
6.25433
20
-5.21417
11
6.25433
21
-5.23858
0
LINE
8
BLACK
6
CONTINUOUS
10
6.02461
20
-5.23425
11
5.96752
21
-5.23425
0
LINE
8
BLACK
6
CONTINUOUS
10
5.96752
20
-5.23425
11
5.96752
21
-5.21654
0
LINE
8
BLACK
6
CONTINUOUS
10
5.96752
20
-5.21654
11
6.02461
21
-5.21654
0
LINE
8
BLACK
6
CONTINUOUS
10
6.02461
20
-5.21654
11
6.02461
21
-5.23425
0
LINE
8
BLACK
6
CONTINUOUS
10
6.19783
20
-5.23425
11
6.14075
21
-5.23425
0
LINE
8
BLACK
6
CONTINUOUS
10
6.14075
20
-5.23425
11
6.14075
21
-5.21654
0
LINE
8
BLACK
6
CONTINUOUS
10
6.14075
20
-5.21654
11
6.19783
21
-5.21654
0
LINE
8
BLACK
6
CONTINUOUS
10
6.19783
20
-5.21654
11
6.19783
21
-5.23425
0
LINE
8
BLACK
6
CONTINUOUS
10
6.55748
20
-5.23071
11
6.53307
21
-5.23071
0
LINE
8
BLACK
6
CONTINUOUS
10
6.53307
20
-5.23071
11
6.53307
21
-5.2063
0
LINE
8
BLACK
6
CONTINUOUS
10
6.53307
20
-5.2063
11
6.55748
21
-5.2063
0
LINE
8
BLACK
6
CONTINUOUS
10
6.55748
20
-5.2063
11
6.55748
21
-5.23071
0
LINE
8
BLACK
6
CONTINUOUS
10
7.28583
20
-5.23071
11
7.26142
21
-5.23071
0
LINE
8
BLACK
6
CONTINUOUS
10
7.26142
20
-5.23071
11
7.26142
21
-5.2063
0
LINE
8
BLACK
6
CONTINUOUS
10
7.26142
20
-5.2063
11
7.28583
21
-5.2063
0
LINE
8
BLACK
6
CONTINUOUS
10
7.28583
20
-5.2063
11
7.28583
21
-5.23071
0
LINE
8
BLACK
6
CONTINUOUS
10
7.65984
20
-5.21693
11
7.63543
21
-5.21693
0
LINE
8
BLACK
6
CONTINUOUS
10
7.63543
20
-5.21693
11
7.63543
21
-5.19252
0
LINE
8
BLACK
6
CONTINUOUS
10
7.63543
20
-5.19252
11
7.65984
21
-5.19252
0
LINE
8
BLACK
6
CONTINUOUS
10
7.65984
20
-5.19252
11
7.65984
21
-5.21693
0
LINE
8
BLACK
6
CONTINUOUS
10
5.93543
20
-5.20906
11
5.91102
21
-5.20906
0
LINE
8
BLACK
6
CONTINUOUS
10
5.91102
20
-5.20906
11
5.91102
21
-5.18465
0
LINE
8
BLACK
6
CONTINUOUS
10
5.91102
20
-5.18465
11
5.93543
21
-5.18465
0
LINE
8
BLACK
6
CONTINUOUS
10
5.93543
20
-5.18465
11
5.93543
21
-5.20906
0
LINE
8
BLACK
6
CONTINUOUS
10
5.9
20
-5.20906
11
5.87559
21
-5.20906
0
LINE
8
BLACK
6
CONTINUOUS
10
5.87559
20
-5.20906
11
5.87559
21
-5.18465
0
LINE
8
BLACK
6
CONTINUOUS
10
5.87559
20
-5.18465
11
5.9
21
-5.18465
0
LINE
8
BLACK
6
CONTINUOUS
10
5.9
20
-5.18465
11
5.9
21
-5.20906
0
LINE
8
BLACK
6
CONTINUOUS
10
6.19783
20
-5.20866
11
6.14075
21
-5.20866
0
LINE
8
BLACK
6
CONTINUOUS
10
6.14075
20
-5.20866
11
6.14075
21
-5.19094
0
LINE
8
BLACK
6
CONTINUOUS
10
6.14075
20
-5.19094
11
6.19783
21
-5.19094
0
LINE
8
BLACK
6
CONTINUOUS
10
6.19783
20
-5.19094
11
6.19783
21
-5.20866
0
LINE
8
BLACK
6
CONTINUOUS
10
6.02461
20
-5.20866
11
5.96752
21
-5.20866
0
LINE
8
BLACK
6
CONTINUOUS
10
5.96752
20
-5.20866
11
5.96752
21
-5.19094
0
LINE
8
BLACK
6
CONTINUOUS
10
5.96752
20
-5.19094
11
6.02461
21
-5.19094
0
LINE
8
BLACK
6
CONTINUOUS
10
6.02461
20
-5.19094
11
6.02461
21
-5.20866
0
LINE
8
BLACK
6
CONTINUOUS
10
7.73031
20
-5.20669
11
7.69094
21
-5.20669
0
LINE
8
BLACK
6
CONTINUOUS
10
7.69094
20
-5.20669
11
7.69094
21
-5.18307
0
LINE
8
BLACK
6
CONTINUOUS
10
7.69094
20
-5.18307
11
7.73031
21
-5.18307
0
LINE
8
BLACK
6
CONTINUOUS
10
7.73031
20
-5.18307
11
7.73031
21
-5.20669
0
LINE
8
BLACK
6
CONTINUOUS
10
6.19783
20
-5.18307
11
6.14075
21
-5.18307
0
LINE
8
BLACK
6
CONTINUOUS
10
6.14075
20
-5.18307
11
6.14075
21
-5.16535
0
LINE
8
BLACK
6
CONTINUOUS
10
6.14075
20
-5.16535
11
6.19783
21
-5.16535
0
LINE
8
BLACK
6
CONTINUOUS
10
6.19783
20
-5.16535
11
6.19783
21
-5.18307
0
LINE
8
BLACK
6
CONTINUOUS
10
6.02461
20
-5.18307
11
5.96752
21
-5.18307
0
LINE
8
BLACK
6
CONTINUOUS
10
5.96752
20
-5.18307
11
5.96752
21
-5.16535
0
LINE
8
BLACK
6
CONTINUOUS
10
5.96752
20
-5.16535
11
6.02461
21
-5.16535
0
LINE
8
BLACK
6
CONTINUOUS
10
6.02461
20
-5.16535
11
6.02461
21
-5.18307
0
LINE
8
BLACK
6
CONTINUOUS
10
7.65984
20
-5.1815
11
7.63543
21
-5.1815
0
LINE
8
BLACK
6
CONTINUOUS
10
7.63543
20
-5.1815
11
7.63543
21
-5.15709
0
LINE
8
BLACK
6
CONTINUOUS
10
7.63543
20
-5.15709
11
7.65984
21
-5.15709
0
LINE
8
BLACK
6
CONTINUOUS
10
7.65984
20
-5.15709
11
7.65984
21
-5.1815
0
LINE
8
BLACK
6
CONTINUOUS
10
7.82087
20
-5.16929
11
7.7815
21
-5.16929
0
LINE
8
BLACK
6
CONTINUOUS
10
7.7815
20
-5.16929
11
7.7815
21
-5.14567
0
LINE
8
BLACK
6
CONTINUOUS
10
7.7815
20
-5.14567
11
7.82087
21
-5.14567
0
LINE
8
BLACK
6
CONTINUOUS
10
7.82087
20
-5.14567
11
7.82087
21
-5.16929
0
LINE
8
BLACK
6
CONTINUOUS
10
6.28976
20
-5.15984
11
6.26535
21
-5.15984
0
LINE
8
BLACK
6
CONTINUOUS
10
6.26535
20
-5.15984
11
6.26535
21
-5.13543
0
LINE
8
BLACK
6
CONTINUOUS
10
6.26535
20
-5.13543
11
6.28976
21
-5.13543
0
LINE
8
BLACK
6
CONTINUOUS
10
6.28976
20
-5.13543
11
6.28976
21
-5.15984
0
LINE
8
BLACK
6
CONTINUOUS
10
6.25433
20
-5.15984
11
6.22992
21
-5.15984
0
LINE
8
BLACK
6
CONTINUOUS
10
6.22992
20
-5.15984
11
6.22992
21
-5.13543
0
LINE
8
BLACK
6
CONTINUOUS
10
6.22992
20
-5.13543
11
6.25433
21
-5.13543
0
LINE
8
BLACK
6
CONTINUOUS
10
6.25433
20
-5.13543
11
6.25433
21
-5.15984
0
LINE
8
BLACK
6
CONTINUOUS
10
6.19783
20
-5.15748
11
6.14075
21
-5.15748
0
LINE
8
BLACK
6
CONTINUOUS
10
6.14075
20
-5.15748
11
6.14075
21
-5.13976
0
LINE
8
BLACK
6
CONTINUOUS
10
6.14075
20
-5.13976
11
6.19783
21
-5.13976
0
LINE
8
BLACK
6
CONTINUOUS
10
6.19783
20
-5.13976
11
6.19783
21
-5.15748
0
LINE
8
BLACK
6
CONTINUOUS
10
6.02461
20
-5.15748
11
5.96752
21
-5.15748
0
LINE
8
BLACK
6
CONTINUOUS
10
5.96752
20
-5.15748
11
5.96752
21
-5.13976
0
LINE
8
BLACK
6
CONTINUOUS
10
5.96752
20
-5.13976
11
6.02461
21
-5.13976
0
LINE
8
BLACK
6
CONTINUOUS
10
6.02461
20
-5.13976
11
6.02461
21
-5.15748
0
LINE
8
BLACK
6
CONTINUOUS
10
5.63031
20
-5.15
11
5.60591
21
-5.15
0
LINE
8
BLACK
6
CONTINUOUS
10
5.60591
20
-5.15
11
5.60591
21
-5.12559
0
LINE
8
BLACK
6
CONTINUOUS
10
5.60591
20
-5.12559
11
5.63031
21
-5.12559
0
LINE
8
BLACK
6
CONTINUOUS
10
5.63031
20
-5.12559
11
5.63031
21
-5.15
0
LINE
8
BLACK
6
CONTINUOUS
10
5.59488
20
-5.15
11
5.57047
21
-5.15
0
LINE
8
BLACK
6
CONTINUOUS
10
5.57047
20
-5.15
11
5.57047
21
-5.12559
0
LINE
8
BLACK
6
CONTINUOUS
10
5.57047
20
-5.12559
11
5.59488
21
-5.12559
0
LINE
8
BLACK
6
CONTINUOUS
10
5.59488
20
-5.12559
11
5.59488
21
-5.15
0
LINE
8
BLACK
6
CONTINUOUS
10
7.73031
20
-5.13189
11
7.69094
21
-5.13189
0
LINE
8
BLACK
6
CONTINUOUS
10
7.69094
20
-5.13189
11
7.69094
21
-5.10827
0
LINE
8
BLACK
6
CONTINUOUS
10
7.69094
20
-5.10827
11
7.73031
21
-5.10827
0
LINE
8
BLACK
6
CONTINUOUS
10
7.73031
20
-5.10827
11
7.73031
21
-5.13189
0
LINE
8
BLACK
6
CONTINUOUS
10
7.62244
20
-5.13031
11
7.59803
21
-5.13031
0
LINE
8
BLACK
6
CONTINUOUS
10
7.59803
20
-5.13031
11
7.59803
21
-5.10591
0
LINE
8
BLACK
6
CONTINUOUS
10
7.59803
20
-5.10591
11
7.62244
21
-5.10591
0
LINE
8
BLACK
6
CONTINUOUS
10
7.62244
20
-5.10591
11
7.62244
21
-5.13031
0
LINE
8
BLACK
6
CONTINUOUS
10
7.65787
20
-5.13031
11
7.63346
21
-5.13031
0
LINE
8
BLACK
6
CONTINUOUS
10
7.63346
20
-5.13031
11
7.63346
21
-5.10591
0
LINE
8
BLACK
6
CONTINUOUS
10
7.63346
20
-5.10591
11
7.65787
21
-5.10591
0
LINE
8
BLACK
6
CONTINUOUS
10
7.65787
20
-5.10591
11
7.65787
21
-5.13031
0
LINE
8
BLACK
6
CONTINUOUS
10
7.17559
20
-5.10079
11
7.15118
21
-5.10079
0
LINE
8
BLACK
6
CONTINUOUS
10
7.15118
20
-5.10079
11
7.15118
21
-5.07638
0
LINE
8
BLACK
6
CONTINUOUS
10
7.15118
20
-5.07638
11
7.17559
21
-5.07638
0
LINE
8
BLACK
6
CONTINUOUS
10
7.17559
20
-5.07638
11
7.17559
21
-5.10079
0
LINE
8
BLACK
6
CONTINUOUS
10
7.14016
20
-5.10079
11
7.11575
21
-5.10079
0
LINE
8
BLACK
6
CONTINUOUS
10
7.11575
20
-5.10079
11
7.11575
21
-5.07638
0
LINE
8
BLACK
6
CONTINUOUS
10
7.11575
20
-5.07638
11
7.14016
21
-5.07638
0
LINE
8
BLACK
6
CONTINUOUS
10
7.14016
20
-5.07638
11
7.14016
21
-5.10079
0
LINE
8
BLACK
6
CONTINUOUS
10
5.63031
20
-5.10079
11
5.60591
21
-5.10079
0
LINE
8
BLACK
6
CONTINUOUS
10
5.60591
20
-5.10079
11
5.60591
21
-5.07638
0
LINE
8
BLACK
6
CONTINUOUS
10
5.60591
20
-5.07638
11
5.63031
21
-5.07638
0
LINE
8
BLACK
6
CONTINUOUS
10
5.63031
20
-5.07638
11
5.63031
21
-5.10079
0
LINE
8
BLACK
6
CONTINUOUS
10
5.59488
20
-5.10079
11
5.57047
21
-5.10079
0
LINE
8
BLACK
6
CONTINUOUS
10
5.57047
20
-5.10079
11
5.57047
21
-5.07638
0
LINE
8
BLACK
6
CONTINUOUS
10
5.57047
20
-5.07638
11
5.59488
21
-5.07638
0
LINE
8
BLACK
6
CONTINUOUS
10
5.59488
20
-5.07638
11
5.59488
21
-5.10079
0
LINE
8
BLACK
6
CONTINUOUS
10
6.70315
20
-5.10079
11
6.67874
21
-5.10079
0
LINE
8
BLACK
6
CONTINUOUS
10
6.67874
20
-5.10079
11
6.67874
21
-5.07638
0
LINE
8
BLACK
6
CONTINUOUS
10
6.67874
20
-5.07638
11
6.70315
21
-5.07638
0
LINE
8
BLACK
6
CONTINUOUS
10
6.70315
20
-5.07638
11
6.70315
21
-5.10079
0
LINE
8
BLACK
6
CONTINUOUS
10
6.66772
20
-5.10079
11
6.64331
21
-5.10079
0
LINE
8
BLACK
6
CONTINUOUS
10
6.64331
20
-5.10079
11
6.64331
21
-5.07638
0
LINE
8
BLACK
6
CONTINUOUS
10
6.64331
20
-5.07638
11
6.66772
21
-5.07638
0
LINE
8
BLACK
6
CONTINUOUS
10
6.66772
20
-5.07638
11
6.66772
21
-5.10079
0
LINE
8
BLACK
6
CONTINUOUS
10
7.54921
20
-5.09941
11
7.50984
21
-5.09941
0
LINE
8
BLACK
6
CONTINUOUS
10
7.50984
20
-5.09941
11
7.50984
21
-5.06201
0
LINE
8
BLACK
6
CONTINUOUS
10
7.50984
20
-5.06201
11
7.54921
21
-5.06201
0
LINE
8
BLACK
6
CONTINUOUS
10
7.54921
20
-5.06201
11
7.54921
21
-5.09941
0
LINE
8
BLACK
6
CONTINUOUS
10
7.47087
20
-5.09094
11
7.44646
21
-5.09094
0
LINE
8
BLACK
6
CONTINUOUS
10
7.44646
20
-5.09094
11
7.44646
21
-5.06654
0
LINE
8
BLACK
6
CONTINUOUS
10
7.44646
20
-5.06654
11
7.47087
21
-5.06654
0
LINE
8
BLACK
6
CONTINUOUS
10
7.47087
20
-5.06654
11
7.47087
21
-5.09094
0
LINE
8
BLACK
6
CONTINUOUS
10
7.43543
20
-5.09094
11
7.41102
21
-5.09094
0
LINE
8
BLACK
6
CONTINUOUS
10
7.41102
20
-5.09094
11
7.41102
21
-5.06654
0
LINE
8
BLACK
6
CONTINUOUS
10
7.41102
20
-5.06654
11
7.43543
21
-5.06654
0
LINE
8
BLACK
6
CONTINUOUS
10
7.43543
20
-5.06654
11
7.43543
21
-5.09094
0
LINE
8
BLACK
6
CONTINUOUS
10
7.82283
20
-5.06102
11
7.77953
21
-5.06102
0
LINE
8
BLACK
6
CONTINUOUS
10
7.77953
20
-5.06102
11
7.77953
21
-5.01772
0
LINE
8
BLACK
6
CONTINUOUS
10
7.77953
20
-5.01772
11
7.82283
21
-5.01772
0
LINE
8
BLACK
6
CONTINUOUS
10
7.82283
20
-5.01772
11
7.82283
21
-5.06102
0
LINE
8
BLACK
6
CONTINUOUS
10
7.7126
20
-5.06102
11
7.66929
21
-5.06102
0
LINE
8
BLACK
6
CONTINUOUS
10
7.66929
20
-5.06102
11
7.66929
21
-5.01772
0
LINE
8
BLACK
6
CONTINUOUS
10
7.66929
20
-5.01772
11
7.7126
21
-5.01772
0
LINE
8
BLACK
6
CONTINUOUS
10
7.7126
20
-5.01772
11
7.7126
21
-5.06102
0
LINE
8
BLACK
6
CONTINUOUS
10
5.95571
20
-5.06024
11
5.86516
21
-5.06024
0
LINE
8
BLACK
6
CONTINUOUS
10
5.86516
20
-5.06024
11
5.86516
21
-5.0185
0
LINE
8
BLACK
6
CONTINUOUS
10
5.86516
20
-5.0185
11
5.95571
21
-5.0185
0
LINE
8
BLACK
6
CONTINUOUS
10
5.95571
20
-5.0185
11
5.95571
21
-5.06024
0
LINE
8
BLACK
6
CONTINUOUS
10
6.3002
20
-5.06024
11
6.20965
21
-5.06024
0
LINE
8
BLACK
6
CONTINUOUS
10
6.20965
20
-5.06024
11
6.20965
21
-5.0185
0
LINE
8
BLACK
6
CONTINUOUS
10
6.20965
20
-5.0185
11
6.3002
21
-5.0185
0
LINE
8
BLACK
6
CONTINUOUS
10
6.3002
20
-5.0185
11
6.3002
21
-5.06024
0
LINE
8
BLACK
6
CONTINUOUS
10
5.63031
20
-5.05157
11
5.60591
21
-5.05157
0
LINE
8
BLACK
6
CONTINUOUS
10
5.60591
20
-5.05157
11
5.60591
21
-5.02717
0
LINE
8
BLACK
6
CONTINUOUS
10
5.60591
20
-5.02717
11
5.63031
21
-5.02717
0
LINE
8
BLACK
6
CONTINUOUS
10
5.63031
20
-5.02717
11
5.63031
21
-5.05157
0
LINE
8
BLACK
6
CONTINUOUS
10
5.59488
20
-5.05157
11
5.57047
21
-5.05157
0
LINE
8
BLACK
6
CONTINUOUS
10
5.57047
20
-5.05157
11
5.57047
21
-5.02717
0
LINE
8
BLACK
6
CONTINUOUS
10
5.57047
20
-5.02717
11
5.59488
21
-5.02717
0
LINE
8
BLACK
6
CONTINUOUS
10
5.59488
20
-5.02717
11
5.59488
21
-5.05157
0
LINE
8
BLACK
6
CONTINUOUS
10
5.78386
20
-5.05157
11
5.75945
21
-5.05157
0
LINE
8
BLACK
6
CONTINUOUS
10
5.75945
20
-5.05157
11
5.75945
21
-5.02717
0
LINE
8
BLACK
6
CONTINUOUS
10
5.75945
20
-5.02717
11
5.78386
21
-5.02717
0
LINE
8
BLACK
6
CONTINUOUS
10
5.78386
20
-5.02717
11
5.78386
21
-5.05157
0
LINE
8
BLACK
6
CONTINUOUS
10
5.81929
20
-5.05157
11
5.79488
21
-5.05157
0
LINE
8
BLACK
6
CONTINUOUS
10
5.79488
20
-5.05157
11
5.79488
21
-5.02717
0
LINE
8
BLACK
6
CONTINUOUS
10
5.79488
20
-5.02717
11
5.81929
21
-5.02717
0
LINE
8
BLACK
6
CONTINUOUS
10
5.81929
20
-5.02717
11
5.81929
21
-5.05157
0
LINE
8
BLACK
6
CONTINUOUS
10
7.47087
20
-5.05157
11
7.44646
21
-5.05157
0
LINE
8
BLACK
6
CONTINUOUS
10
7.44646
20
-5.05157
11
7.44646
21
-5.02717
0
LINE
8
BLACK
6
CONTINUOUS
10
7.44646
20
-5.02717
11
7.47087
21
-5.02717
0
LINE
8
BLACK
6
CONTINUOUS
10
7.47087
20
-5.02717
11
7.47087
21
-5.05157
0
LINE
8
BLACK
6
CONTINUOUS
10
7.43543
20
-5.05157
11
7.41102
21
-5.05157
0
LINE
8
BLACK
6
CONTINUOUS
10
7.41102
20
-5.05157
11
7.41102
21
-5.02717
0
LINE
8
BLACK
6
CONTINUOUS
10
7.41102
20
-5.02717
11
7.43543
21
-5.02717
0
LINE
8
BLACK
6
CONTINUOUS
10
7.43543
20
-5.02717
11
7.43543
21
-5.05157
0
LINE
8
BLACK
6
CONTINUOUS
10
7.27815
20
-5.04331
11
7.26909
21
-5.04331
0
LINE
8
BLACK
6
CONTINUOUS
10
7.26909
20
-5.04331
11
7.26909
21
-5.02441
0
LINE
8
BLACK
6
CONTINUOUS
10
7.26909
20
-5.02441
11
7.27815
21
-5.02441
0
LINE
8
BLACK
6
CONTINUOUS
10
7.27815
20
-5.02441
11
7.27815
21
-5.04331
0
LINE
8
BLACK
6
CONTINUOUS
10
7.25846
20
-5.04331
11
7.24941
21
-5.04331
0
LINE
8
BLACK
6
CONTINUOUS
10
7.24941
20
-5.04331
11
7.24941
21
-5.02441
0
LINE
8
BLACK
6
CONTINUOUS
10
7.24941
20
-5.02441
11
7.25846
21
-5.02441
0
LINE
8
BLACK
6
CONTINUOUS
10
7.25846
20
-5.02441
11
7.25846
21
-5.04331
0
LINE
8
BLACK
6
CONTINUOUS
10
7.23878
20
-5.04331
11
7.22972
21
-5.04331
0
LINE
8
BLACK
6
CONTINUOUS
10
7.22972
20
-5.04331
11
7.22972
21
-5.02441
0
LINE
8
BLACK
6
CONTINUOUS
10
7.22972
20
-5.02441
11
7.23878
21
-5.02441
0
LINE
8
BLACK
6
CONTINUOUS
10
7.23878
20
-5.02441
11
7.23878
21
-5.04331
0
LINE
8
BLACK
6
CONTINUOUS
10
7.21909
20
-5.04331
11
7.21004
21
-5.04331
0
LINE
8
BLACK
6
CONTINUOUS
10
7.21004
20
-5.04331
11
7.21004
21
-5.02441
0
LINE
8
BLACK
6
CONTINUOUS
10
7.21004
20
-5.02441
11
7.21909
21
-5.02441
0
LINE
8
BLACK
6
CONTINUOUS
10
7.21909
20
-5.02441
11
7.21909
21
-5.04331
0
LINE
8
BLACK
6
CONTINUOUS
10
7.29783
20
-5.04331
11
7.28878
21
-5.04331
0
LINE
8
BLACK
6
CONTINUOUS
10
7.28878
20
-5.04331
11
7.28878
21
-5.02441
0
LINE
8
BLACK
6
CONTINUOUS
10
7.28878
20
-5.02441
11
7.29783
21
-5.02441
0
LINE
8
BLACK
6
CONTINUOUS
10
7.29783
20
-5.02441
11
7.29783
21
-5.04331
0
LINE
8
BLACK
6
CONTINUOUS
10
7.31752
20
-5.04331
11
7.30846
21
-5.04331
0
LINE
8
BLACK
6
CONTINUOUS
10
7.30846
20
-5.04331
11
7.30846
21
-5.02441
0
LINE
8
BLACK
6
CONTINUOUS
10
7.30846
20
-5.02441
11
7.31752
21
-5.02441
0
LINE
8
BLACK
6
CONTINUOUS
10
7.31752
20
-5.02441
11
7.31752
21
-5.04331
0
LINE
8
BLACK
6
CONTINUOUS
10
7.54921
20
-5.03642
11
7.50984
21
-5.03642
0
LINE
8
BLACK
6
CONTINUOUS
10
7.50984
20
-5.03642
11
7.50984
21
-4.99902
0
LINE
8
BLACK
6
CONTINUOUS
10
7.50984
20
-4.99902
11
7.54921
21
-4.99902
0
LINE
8
BLACK
6
CONTINUOUS
10
7.54921
20
-4.99902
11
7.54921
21
-5.03642
0
LINE
8
BLACK
6
CONTINUOUS
10
7.34646
20
-5.01437
11
7.32756
21
-5.01437
0
LINE
8
BLACK
6
CONTINUOUS
10
7.32756
20
-5.01437
11
7.32756
21
-5.00531
0
LINE
8
BLACK
6
CONTINUOUS
10
7.32756
20
-5.00531
11
7.34646
21
-5.00531
0
LINE
8
BLACK
6
CONTINUOUS
10
7.34646
20
-5.00531
11
7.34646
21
-5.01437
0
LINE
8
BLACK
6
CONTINUOUS
10
7.2
20
-5.01437
11
7.1811
21
-5.01437
0
LINE
8
BLACK
6
CONTINUOUS
10
7.1811
20
-5.01437
11
7.1811
21
-5.00531
0
LINE
8
BLACK
6
CONTINUOUS
10
7.1811
20
-5.00531
11
7.2
21
-5.00531
0
LINE
8
BLACK
6
CONTINUOUS
10
7.2
20
-5.00531
11
7.2
21
-5.01437
0
LINE
8
BLACK
6
CONTINUOUS
10
7.43543
20
-5.0122
11
7.41102
21
-5.0122
0
LINE
8
BLACK
6
CONTINUOUS
10
7.41102
20
-5.0122
11
7.41102
21
-4.9878
0
LINE
8
BLACK
6
CONTINUOUS
10
7.41102
20
-4.9878
11
7.43543
21
-4.9878
0
LINE
8
BLACK
6
CONTINUOUS
10
7.43543
20
-4.9878
11
7.43543
21
-5.0122
0
LINE
8
BLACK
6
CONTINUOUS
10
7.47087
20
-5.0122
11
7.44646
21
-5.0122
0
LINE
8
BLACK
6
CONTINUOUS
10
7.44646
20
-5.0122
11
7.44646
21
-4.9878
0
LINE
8
BLACK
6
CONTINUOUS
10
7.44646
20
-4.9878
11
7.47087
21
-4.9878
0
LINE
8
BLACK
6
CONTINUOUS
10
7.47087
20
-4.9878
11
7.47087
21
-5.0122
0
LINE
8
BLACK
6
CONTINUOUS
10
7.25984
20
-5.00394
11
7.22047
21
-5.00394
0
LINE
8
BLACK
6
CONTINUOUS
10
7.22047
20
-5.00394
11
7.22047
21
-4.96457
0
LINE
8
BLACK
6
CONTINUOUS
10
7.22047
20
-4.96457
11
7.25984
21
-4.96457
0
LINE
8
BLACK
6
CONTINUOUS
10
7.25984
20
-4.96457
11
7.25984
21
-5.00394
0
LINE
8
BLACK
6
CONTINUOUS
10
7.30709
20
-5.00394
11
7.26772
21
-5.00394
0
LINE
8
BLACK
6
CONTINUOUS
10
7.26772
20
-5.00394
11
7.26772
21
-4.96457
0
LINE
8
BLACK
6
CONTINUOUS
10
7.26772
20
-4.96457
11
7.30709
21
-4.96457
0
LINE
8
BLACK
6
CONTINUOUS
10
7.30709
20
-4.96457
11
7.30709
21
-5.00394
0
LINE
8
BLACK
6
CONTINUOUS
10
7.34646
20
-4.99469
11
7.32756
21
-4.99469
0
LINE
8
BLACK
6
CONTINUOUS
10
7.32756
20
-4.99469
11
7.32756
21
-4.98563
0
LINE
8
BLACK
6
CONTINUOUS
10
7.32756
20
-4.98563
11
7.34646
21
-4.98563
0
LINE
8
BLACK
6
CONTINUOUS
10
7.34646
20
-4.98563
11
7.34646
21
-4.99469
0
LINE
8
BLACK
6
CONTINUOUS
10
7.2
20
-4.99469
11
7.1811
21
-4.99469
0
LINE
8
BLACK
6
CONTINUOUS
10
7.1811
20
-4.99469
11
7.1811
21
-4.98563
0
LINE
8
BLACK
6
CONTINUOUS
10
7.1811
20
-4.98563
11
7.2
21
-4.98563
0
LINE
8
BLACK
6
CONTINUOUS
10
7.2
20
-4.98563
11
7.2
21
-4.99469
0
LINE
8
BLACK
6
CONTINUOUS
10
6.3002
20
-4.99213
11
6.20965
21
-4.99213
0
LINE
8
BLACK
6
CONTINUOUS
10
6.20965
20
-4.99213
11
6.20965
21
-4.9685
0
LINE
8
BLACK
6
CONTINUOUS
10
6.20965
20
-4.9685
11
6.3002
21
-4.9685
0
LINE
8
BLACK
6
CONTINUOUS
10
6.3002
20
-4.9685
11
6.3002
21
-4.99213
0
LINE
8
BLACK
6
CONTINUOUS
10
5.95571
20
-4.99213
11
5.86516
21
-4.99213
0
LINE
8
BLACK
6
CONTINUOUS
10
5.86516
20
-4.99213
11
5.86516
21
-4.9685
0
LINE
8
BLACK
6
CONTINUOUS
10
5.86516
20
-4.9685
11
5.95571
21
-4.9685
0
LINE
8
BLACK
6
CONTINUOUS
10
5.95571
20
-4.9685
11
5.95571
21
-4.99213
0
LINE
8
BLACK
6
CONTINUOUS
10
7.2
20
-4.975
11
7.1811
21
-4.975
0
LINE
8
BLACK
6
CONTINUOUS
10
7.1811
20
-4.975
11
7.1811
21
-4.96594
0
LINE
8
BLACK
6
CONTINUOUS
10
7.1811
20
-4.96594
11
7.2
21
-4.96594
0
LINE
8
BLACK
6
CONTINUOUS
10
7.2
20
-4.96594
11
7.2
21
-4.975
0
LINE
8
BLACK
6
CONTINUOUS
10
7.34646
20
-4.975
11
7.32756
21
-4.975
0
LINE
8
BLACK
6
CONTINUOUS
10
7.32756
20
-4.975
11
7.32756
21
-4.96594
0
LINE
8
BLACK
6
CONTINUOUS
10
7.32756
20
-4.96594
11
7.34646
21
-4.96594
0
LINE
8
BLACK
6
CONTINUOUS
10
7.34646
20
-4.96594
11
7.34646
21
-4.975
0
LINE
8
BLACK
6
CONTINUOUS
10
7.47087
20
-4.97283
11
7.44646
21
-4.97283
0
LINE
8
BLACK
6
CONTINUOUS
10
7.44646
20
-4.97283
11
7.44646
21
-4.94843
0
LINE
8
BLACK
6
CONTINUOUS
10
7.44646
20
-4.94843
11
7.47087
21
-4.94843
0
LINE
8
BLACK
6
CONTINUOUS
10
7.47087
20
-4.94843
11
7.47087
21
-4.97283
0
LINE
8
BLACK
6
CONTINUOUS
10
7.43543
20
-4.97283
11
7.41102
21
-4.97283
0
LINE
8
BLACK
6
CONTINUOUS
10
7.41102
20
-4.97283
11
7.41102
21
-4.94843
0
LINE
8
BLACK
6
CONTINUOUS
10
7.41102
20
-4.94843
11
7.43543
21
-4.94843
0
LINE
8
BLACK
6
CONTINUOUS
10
7.43543
20
-4.94843
11
7.43543
21
-4.97283
0
LINE
8
BLACK
6
CONTINUOUS
10
7.30709
20
-4.95669
11
7.26772
21
-4.95669
0
LINE
8
BLACK
6
CONTINUOUS
10
7.26772
20
-4.95669
11
7.26772
21
-4.91732
0
LINE
8
BLACK
6
CONTINUOUS
10
7.26772
20
-4.91732
11
7.30709
21
-4.91732
0
LINE
8
BLACK
6
CONTINUOUS
10
7.30709
20
-4.91732
11
7.30709
21
-4.95669
0
LINE
8
BLACK
6
CONTINUOUS
10
7.25984
20
-4.95669
11
7.22047
21
-4.95669
0
LINE
8
BLACK
6
CONTINUOUS
10
7.22047
20
-4.95669
11
7.22047
21
-4.91732
0
LINE
8
BLACK
6
CONTINUOUS
10
7.22047
20
-4.91732
11
7.25984
21
-4.91732
0
LINE
8
BLACK
6
CONTINUOUS
10
7.25984
20
-4.91732
11
7.25984
21
-4.95669
0
LINE
8
BLACK
6
CONTINUOUS
10
7.2
20
-4.95531
11
7.1811
21
-4.95531
0
LINE
8
BLACK
6
CONTINUOUS
10
7.1811
20
-4.95531
11
7.1811
21
-4.94626
0
LINE
8
BLACK
6
CONTINUOUS
10
7.1811
20
-4.94626
11
7.2
21
-4.94626
0
LINE
8
BLACK
6
CONTINUOUS
10
7.2
20
-4.94626
11
7.2
21
-4.95531
0
LINE
8
BLACK
6
CONTINUOUS
10
7.34646
20
-4.95531
11
7.32756
21
-4.95531
0
LINE
8
BLACK
6
CONTINUOUS
10
7.32756
20
-4.95531
11
7.32756
21
-4.94626
0
LINE
8
BLACK
6
CONTINUOUS
10
7.32756
20
-4.94626
11
7.34646
21
-4.94626
0
LINE
8
BLACK
6
CONTINUOUS
10
7.34646
20
-4.94626
11
7.34646
21
-4.95531
0
LINE
8
BLACK
6
CONTINUOUS
10
5.59488
20
-4.95315
11
5.57047
21
-4.95315
0
LINE
8
BLACK
6
CONTINUOUS
10
5.57047
20
-4.95315
11
5.57047
21
-4.92874
0
LINE
8
BLACK
6
CONTINUOUS
10
5.57047
20
-4.92874
11
5.59488
21
-4.92874
0
LINE
8
BLACK
6
CONTINUOUS
10
5.59488
20
-4.92874
11
5.59488
21
-4.95315
0
LINE
8
BLACK
6
CONTINUOUS
10
5.63031
20
-4.95315
11
5.60591
21
-4.95315
0
LINE
8
BLACK
6
CONTINUOUS
10
5.60591
20
-4.95315
11
5.60591
21
-4.92874
0
LINE
8
BLACK
6
CONTINUOUS
10
5.60591
20
-4.92874
11
5.63031
21
-4.92874
0
LINE
8
BLACK
6
CONTINUOUS
10
5.63031
20
-4.92874
11
5.63031
21
-4.95315
0
LINE
8
BLACK
6
CONTINUOUS
10
5.95571
20
-4.94213
11
5.86516
21
-4.94213
0
LINE
8
BLACK
6
CONTINUOUS
10
5.86516
20
-4.94213
11
5.86516
21
-4.90039
0
LINE
8
BLACK
6
CONTINUOUS
10
5.86516
20
-4.90039
11
5.95571
21
-4.90039
0
LINE
8
BLACK
6
CONTINUOUS
10
5.95571
20
-4.90039
11
5.95571
21
-4.94213
0
LINE
8
BLACK
6
CONTINUOUS
10
6.3002
20
-4.94213
11
6.20965
21
-4.94213
0
LINE
8
BLACK
6
CONTINUOUS
10
6.20965
20
-4.94213
11
6.20965
21
-4.90039
0
LINE
8
BLACK
6
CONTINUOUS
10
6.20965
20
-4.90039
11
6.3002
21
-4.90039
0
LINE
8
BLACK
6
CONTINUOUS
10
6.3002
20
-4.90039
11
6.3002
21
-4.94213
0
LINE
8
BLACK
6
CONTINUOUS
10
6.65354
20
-4.93898
11
6.61811
21
-4.93898
0
LINE
8
BLACK
6
CONTINUOUS
10
6.61811
20
-4.93898
11
6.61811
21
-4.89961
0
LINE
8
BLACK
6
CONTINUOUS
10
6.61811
20
-4.89961
11
6.65354
21
-4.89961
0
LINE
8
BLACK
6
CONTINUOUS
10
6.65354
20
-4.89961
11
6.65354
21
-4.93898
0
LINE
8
BLACK
6
CONTINUOUS
10
6.57087
20
-4.93898
11
6.53543
21
-4.93898
0
LINE
8
BLACK
6
CONTINUOUS
10
6.53543
20
-4.93898
11
6.53543
21
-4.89961
0
LINE
8
BLACK
6
CONTINUOUS
10
6.53543
20
-4.89961
11
6.57087
21
-4.89961
0
LINE
8
BLACK
6
CONTINUOUS
10
6.57087
20
-4.89961
11
6.57087
21
-4.93898
0
LINE
8
BLACK
6
CONTINUOUS
10
7.2
20
-4.93563
11
7.1811
21
-4.93563
0
LINE
8
BLACK
6
CONTINUOUS
10
7.1811
20
-4.93563
11
7.1811
21
-4.92657
0
LINE
8
BLACK
6
CONTINUOUS
10
7.1811
20
-4.92657
11
7.2
21
-4.92657
0
LINE
8
BLACK
6
CONTINUOUS
10
7.2
20
-4.92657
11
7.2
21
-4.93563
0
LINE
8
BLACK
6
CONTINUOUS
10
7.34646
20
-4.93563
11
7.32756
21
-4.93563
0
LINE
8
BLACK
6
CONTINUOUS
10
7.32756
20
-4.93563
11
7.32756
21
-4.92657
0
LINE
8
BLACK
6
CONTINUOUS
10
7.32756
20
-4.92657
11
7.34646
21
-4.92657
0
LINE
8
BLACK
6
CONTINUOUS
10
7.34646
20
-4.92657
11
7.34646
21
-4.93563
0
LINE
8
BLACK
6
CONTINUOUS
10
7.43543
20
-4.93346
11
7.41102
21
-4.93346
0
LINE
8
BLACK
6
CONTINUOUS
10
7.41102
20
-4.93346
11
7.41102
21
-4.90906
0
LINE
8
BLACK
6
CONTINUOUS
10
7.41102
20
-4.90906
11
7.43543
21
-4.90906
0
LINE
8
BLACK
6
CONTINUOUS
10
7.43543
20
-4.90906
11
7.43543
21
-4.93346
0
LINE
8
BLACK
6
CONTINUOUS
10
7.47087
20
-4.93346
11
7.44646
21
-4.93346
0
LINE
8
BLACK
6
CONTINUOUS
10
7.44646
20
-4.93346
11
7.44646
21
-4.90906
0
LINE
8
BLACK
6
CONTINUOUS
10
7.44646
20
-4.90906
11
7.47087
21
-4.90906
0
LINE
8
BLACK
6
CONTINUOUS
10
7.47087
20
-4.90906
11
7.47087
21
-4.93346
0
LINE
8
BLACK
6
CONTINUOUS
10
6.85039
20
-4.93307
11
6.8189
21
-4.93307
0
LINE
8
BLACK
6
CONTINUOUS
10
6.8189
20
-4.93307
11
6.8189
21
-4.8937
0
LINE
8
BLACK
6
CONTINUOUS
10
6.8189
20
-4.8937
11
6.85039
21
-4.8937
0
LINE
8
BLACK
6
CONTINUOUS
10
6.85039
20
-4.8937
11
6.85039
21
-4.93307
0
LINE
8
BLACK
6
CONTINUOUS
10
6.78346
20
-4.93307
11
6.75197
21
-4.93307
0
LINE
8
BLACK
6
CONTINUOUS
10
6.75197
20
-4.93307
11
6.75197
21
-4.8937
0
LINE
8
BLACK
6
CONTINUOUS
10
6.75197
20
-4.8937
11
6.78346
21
-4.8937
0
LINE
8
BLACK
6
CONTINUOUS
10
6.78346
20
-4.8937
11
6.78346
21
-4.93307
0
LINE
8
BLACK
6
CONTINUOUS
10
7.1063
20
-4.93209
11
7.06693
21
-4.93209
0
LINE
8
BLACK
6
CONTINUOUS
10
7.06693
20
-4.93209
11
7.06693
21
-4.89469
0
LINE
8
BLACK
6
CONTINUOUS
10
7.06693
20
-4.89469
11
7.1063
21
-4.89469
0
LINE
8
BLACK
6
CONTINUOUS
10
7.1063
20
-4.89469
11
7.1063
21
-4.93209
0
LINE
8
BLACK
6
CONTINUOUS
10
7.03976
20
-4.9315
11
7.01535
21
-4.9315
0
LINE
8
BLACK
6
CONTINUOUS
10
7.01535
20
-4.9315
11
7.01535
21
-4.90709
0
LINE
8
BLACK
6
CONTINUOUS
10
7.01535
20
-4.90709
11
7.03976
21
-4.90709
0
LINE
8
BLACK
6
CONTINUOUS
10
7.03976
20
-4.90709
11
7.03976
21
-4.9315
0
LINE
8
BLACK
6
CONTINUOUS
10
7.15787
20
-4.9315
11
7.13346
21
-4.9315
0
LINE
8
BLACK
6
CONTINUOUS
10
7.13346
20
-4.9315
11
7.13346
21
-4.90709
0
LINE
8
BLACK
6
CONTINUOUS
10
7.13346
20
-4.90709
11
7.15787
21
-4.90709
0
LINE
8
BLACK
6
CONTINUOUS
10
7.15787
20
-4.90709
11
7.15787
21
-4.9315
0
LINE
8
BLACK
6
CONTINUOUS
10
7.2
20
-4.91594
11
7.1811
21
-4.91594
0
LINE
8
BLACK
6
CONTINUOUS
10
7.1811
20
-4.91594
11
7.1811
21
-4.90689
0
LINE
8
BLACK
6
CONTINUOUS
10
7.1811
20
-4.90689
11
7.2
21
-4.90689
0
LINE
8
BLACK
6
CONTINUOUS
10
7.2
20
-4.90689
11
7.2
21
-4.91594
0
LINE
8
BLACK
6
CONTINUOUS
10
7.34646
20
-4.91594
11
7.32756
21
-4.91594
0
LINE
8
BLACK
6
CONTINUOUS
10
7.32756
20
-4.91594
11
7.32756
21
-4.90689
0
LINE
8
BLACK
6
CONTINUOUS
10
7.32756
20
-4.90689
11
7.34646
21
-4.90689
0
LINE
8
BLACK
6
CONTINUOUS
10
7.34646
20
-4.90689
11
7.34646
21
-4.91594
0
LINE
8
BLACK
6
CONTINUOUS
10
6.50827
20
-4.91181
11
6.48386
21
-4.91181
0
LINE
8
BLACK
6
CONTINUOUS
10
6.48386
20
-4.91181
11
6.48386
21
-4.8874
0
LINE
8
BLACK
6
CONTINUOUS
10
6.48386
20
-4.8874
11
6.50827
21
-4.8874
0
LINE
8
BLACK
6
CONTINUOUS
10
6.50827
20
-4.8874
11
6.50827
21
-4.91181
0
LINE
8
BLACK
6
CONTINUOUS
10
5.59488
20
-4.90394
11
5.57047
21
-4.90394
0
LINE
8
BLACK
6
CONTINUOUS
10
5.57047
20
-4.90394
11
5.57047
21
-4.87953
0
LINE
8
BLACK
6
CONTINUOUS
10
5.57047
20
-4.87953
11
5.59488
21
-4.87953
0
LINE
8
BLACK
6
CONTINUOUS
10
5.59488
20
-4.87953
11
5.59488
21
-4.90394
0
LINE
8
BLACK
6
CONTINUOUS
10
5.63031
20
-4.90394
11
5.60591
21
-4.90394
0
LINE
8
BLACK
6
CONTINUOUS
10
5.60591
20
-4.90394
11
5.60591
21
-4.87953
0
LINE
8
BLACK
6
CONTINUOUS
10
5.60591
20
-4.87953
11
5.63031
21
-4.87953
0
LINE
8
BLACK
6
CONTINUOUS
10
5.63031
20
-4.87953
11
5.63031
21
-4.90394
0
LINE
8
BLACK
6
CONTINUOUS
10
7.29783
20
-4.89685
11
7.28878
21
-4.89685
0
LINE
8
BLACK
6
CONTINUOUS
10
7.28878
20
-4.89685
11
7.28878
21
-4.87795
0
LINE
8
BLACK
6
CONTINUOUS
10
7.28878
20
-4.87795
11
7.29783
21
-4.87795
0
LINE
8
BLACK
6
CONTINUOUS
10
7.29783
20
-4.87795
11
7.29783
21
-4.89685
0
LINE
8
BLACK
6
CONTINUOUS
10
7.27815
20
-4.89685
11
7.26909
21
-4.89685
0
LINE
8
BLACK
6
CONTINUOUS
10
7.26909
20
-4.89685
11
7.26909
21
-4.87795
0
LINE
8
BLACK
6
CONTINUOUS
10
7.26909
20
-4.87795
11
7.27815
21
-4.87795
0
LINE
8
BLACK
6
CONTINUOUS
10
7.27815
20
-4.87795
11
7.27815
21
-4.89685
0
LINE
8
BLACK
6
CONTINUOUS
10
7.31752
20
-4.89685
11
7.30846
21
-4.89685
0
LINE
8
BLACK
6
CONTINUOUS
10
7.30846
20
-4.89685
11
7.30846
21
-4.87795
0
LINE
8
BLACK
6
CONTINUOUS
10
7.30846
20
-4.87795
11
7.31752
21
-4.87795
0
LINE
8
BLACK
6
CONTINUOUS
10
7.31752
20
-4.87795
11
7.31752
21
-4.89685
0
LINE
8
BLACK
6
CONTINUOUS
10
7.25846
20
-4.89685
11
7.24941
21
-4.89685
0
LINE
8
BLACK
6
CONTINUOUS
10
7.24941
20
-4.89685
11
7.24941
21
-4.87795
0
LINE
8
BLACK
6
CONTINUOUS
10
7.24941
20
-4.87795
11
7.25846
21
-4.87795
0
LINE
8
BLACK
6
CONTINUOUS
10
7.25846
20
-4.87795
11
7.25846
21
-4.89685
0
LINE
8
BLACK
6
CONTINUOUS
10
7.23878
20
-4.89685
11
7.22972
21
-4.89685
0
LINE
8
BLACK
6
CONTINUOUS
10
7.22972
20
-4.89685
11
7.22972
21
-4.87795
0
LINE
8
BLACK
6
CONTINUOUS
10
7.22972
20
-4.87795
11
7.23878
21
-4.87795
0
LINE
8
BLACK
6
CONTINUOUS
10
7.23878
20
-4.87795
11
7.23878
21
-4.89685
0
LINE
8
BLACK
6
CONTINUOUS
10
7.21909
20
-4.89685
11
7.21004
21
-4.89685
0
LINE
8
BLACK
6
CONTINUOUS
10
7.21004
20
-4.89685
11
7.21004
21
-4.87795
0
LINE
8
BLACK
6
CONTINUOUS
10
7.21004
20
-4.87795
11
7.21909
21
-4.87795
0
LINE
8
BLACK
6
CONTINUOUS
10
7.21909
20
-4.87795
11
7.21909
21
-4.89685
0
LINE
8
BLACK
6
CONTINUOUS
10
7.15787
20
-4.89606
11
7.13346
21
-4.89606
0
LINE
8
BLACK
6
CONTINUOUS
10
7.13346
20
-4.89606
11
7.13346
21
-4.87165
0
LINE
8
BLACK
6
CONTINUOUS
10
7.13346
20
-4.87165
11
7.15787
21
-4.87165
0
LINE
8
BLACK
6
CONTINUOUS
10
7.15787
20
-4.87165
11
7.15787
21
-4.89606
0
LINE
8
BLACK
6
CONTINUOUS
10
7.03976
20
-4.89606
11
7.01535
21
-4.89606
0
LINE
8
BLACK
6
CONTINUOUS
10
7.01535
20
-4.89606
11
7.01535
21
-4.87165
0
LINE
8
BLACK
6
CONTINUOUS
10
7.01535
20
-4.87165
11
7.03976
21
-4.87165
0
LINE
8
BLACK
6
CONTINUOUS
10
7.03976
20
-4.87165
11
7.03976
21
-4.89606
0
LINE
8
BLACK
6
CONTINUOUS
10
7.43543
20
-4.89409
11
7.41102
21
-4.89409
0
LINE
8
BLACK
6
CONTINUOUS
10
7.41102
20
-4.89409
11
7.41102
21
-4.86969
0
LINE
8
BLACK
6
CONTINUOUS
10
7.41102
20
-4.86969
11
7.43543
21
-4.86969
0
LINE
8
BLACK
6
CONTINUOUS
10
7.43543
20
-4.86969
11
7.43543
21
-4.89409
0
LINE
8
BLACK
6
CONTINUOUS
10
7.47087
20
-4.89409
11
7.44646
21
-4.89409
0
LINE
8
BLACK
6
CONTINUOUS
10
7.44646
20
-4.89409
11
7.44646
21
-4.86969
0
LINE
8
BLACK
6
CONTINUOUS
10
7.44646
20
-4.86969
11
7.47087
21
-4.86969
0
LINE
8
BLACK
6
CONTINUOUS
10
7.47087
20
-4.86969
11
7.47087
21
-4.89409
0
LINE
8
BLACK
6
CONTINUOUS
10
6.50827
20
-4.87638
11
6.48386
21
-4.87638
0
LINE
8
BLACK
6
CONTINUOUS
10
6.48386
20
-4.87638
11
6.48386
21
-4.85197
0
LINE
8
BLACK
6
CONTINUOUS
10
6.48386
20
-4.85197
11
6.50827
21
-4.85197
0
LINE
8
BLACK
6
CONTINUOUS
10
6.50827
20
-4.85197
11
6.50827
21
-4.87638
0
LINE
8
BLACK
6
CONTINUOUS
10
6.85039
20
-4.87008
11
6.8189
21
-4.87008
0
LINE
8
BLACK
6
CONTINUOUS
10
6.8189
20
-4.87008
11
6.8189
21
-4.83071
0
LINE
8
BLACK
6
CONTINUOUS
10
6.8189
20
-4.83071
11
6.85039
21
-4.83071
0
LINE
8
BLACK
6
CONTINUOUS
10
6.85039
20
-4.83071
11
6.85039
21
-4.87008
0
LINE
8
BLACK
6
CONTINUOUS
10
6.78346
20
-4.87008
11
6.75197
21
-4.87008
0
LINE
8
BLACK
6
CONTINUOUS
10
6.75197
20
-4.87008
11
6.75197
21
-4.83071
0
LINE
8
BLACK
6
CONTINUOUS
10
6.75197
20
-4.83071
11
6.78346
21
-4.83071
0
LINE
8
BLACK
6
CONTINUOUS
10
6.78346
20
-4.83071
11
6.78346
21
-4.87008
0
LINE
8
BLACK
6
CONTINUOUS
10
7.1063
20
-4.86909
11
7.06693
21
-4.86909
0
LINE
8
BLACK
6
CONTINUOUS
10
7.06693
20
-4.86909
11
7.06693
21
-4.83169
0
LINE
8
BLACK
6
CONTINUOUS
10
7.06693
20
-4.83169
11
7.1063
21
-4.83169
0
LINE
8
BLACK
6
CONTINUOUS
10
7.1063
20
-4.83169
11
7.1063
21
-4.86909
0
LINE
8
BLACK
6
CONTINUOUS
10
6.65354
20
-4.86417
11
6.61811
21
-4.86417
0
LINE
8
BLACK
6
CONTINUOUS
10
6.61811
20
-4.86417
11
6.61811
21
-4.8248
0
LINE
8
BLACK
6
CONTINUOUS
10
6.61811
20
-4.8248
11
6.65354
21
-4.8248
0
LINE
8
BLACK
6
CONTINUOUS
10
6.65354
20
-4.8248
11
6.65354
21
-4.86417
0
LINE
8
BLACK
6
CONTINUOUS
10
6.57087
20
-4.86417
11
6.53543
21
-4.86417
0
LINE
8
BLACK
6
CONTINUOUS
10
6.53543
20
-4.86417
11
6.53543
21
-4.8248
0
LINE
8
BLACK
6
CONTINUOUS
10
6.53543
20
-4.8248
11
6.57087
21
-4.8248
0
LINE
8
BLACK
6
CONTINUOUS
10
6.57087
20
-4.8248
11
6.57087
21
-4.86417
0
LINE
8
BLACK
6
CONTINUOUS
10
7.47087
20
-4.85472
11
7.44646
21
-4.85472
0
LINE
8
BLACK
6
CONTINUOUS
10
7.44646
20
-4.85472
11
7.44646
21
-4.83031
0
LINE
8
BLACK
6
CONTINUOUS
10
7.44646
20
-4.83031
11
7.47087
21
-4.83031
0
LINE
8
BLACK
6
CONTINUOUS
10
7.47087
20
-4.83031
11
7.47087
21
-4.85472
0
LINE
8
BLACK
6
CONTINUOUS
10
7.43543
20
-4.85472
11
7.41102
21
-4.85472
0
LINE
8
BLACK
6
CONTINUOUS
10
7.41102
20
-4.85472
11
7.41102
21
-4.83031
0
LINE
8
BLACK
6
CONTINUOUS
10
7.41102
20
-4.83031
11
7.43543
21
-4.83031
0
LINE
8
BLACK
6
CONTINUOUS
10
7.43543
20
-4.83031
11
7.43543
21
-4.85472
0
LINE
8
BLACK
6
CONTINUOUS
10
5.63031
20
-4.85472
11
5.60591
21
-4.85472
0
LINE
8
BLACK
6
CONTINUOUS
10
5.60591
20
-4.85472
11
5.60591
21
-4.83031
0
LINE
8
BLACK
6
CONTINUOUS
10
5.60591
20
-4.83031
11
5.63031
21
-4.83031
0
LINE
8
BLACK
6
CONTINUOUS
10
5.63031
20
-4.83031
11
5.63031
21
-4.85472
0
LINE
8
BLACK
6
CONTINUOUS
10
5.59488
20
-4.85472
11
5.57047
21
-4.85472
0
LINE
8
BLACK
6
CONTINUOUS
10
5.57047
20
-4.85472
11
5.57047
21
-4.83031
0
LINE
8
BLACK
6
CONTINUOUS
10
5.57047
20
-4.83031
11
5.59488
21
-4.83031
0
LINE
8
BLACK
6
CONTINUOUS
10
5.59488
20
-4.83031
11
5.59488
21
-4.85472
0
LINE
8
BLACK
6
CONTINUOUS
10
6.99055
20
-4.85276
11
6.96614
21
-4.85276
0
LINE
8
BLACK
6
CONTINUOUS
10
6.96614
20
-4.85276
11
6.96614
21
-4.82835
0
LINE
8
BLACK
6
CONTINUOUS
10
6.96614
20
-4.82835
11
6.99055
21
-4.82835
0
LINE
8
BLACK
6
CONTINUOUS
10
6.99055
20
-4.82835
11
6.99055
21
-4.85276
0
LINE
8
BLACK
6
CONTINUOUS
10
6.95118
20
-4.85276
11
6.92677
21
-4.85276
0
LINE
8
BLACK
6
CONTINUOUS
10
6.92677
20
-4.85276
11
6.92677
21
-4.82835
0
LINE
8
BLACK
6
CONTINUOUS
10
6.92677
20
-4.82835
11
6.95118
21
-4.82835
0
LINE
8
BLACK
6
CONTINUOUS
10
6.95118
20
-4.82835
11
6.95118
21
-4.85276
0
LINE
8
BLACK
6
CONTINUOUS
10
6.7248
20
-4.85276
11
6.70039
21
-4.85276
0
LINE
8
BLACK
6
CONTINUOUS
10
6.70039
20
-4.85276
11
6.70039
21
-4.82835
0
LINE
8
BLACK
6
CONTINUOUS
10
6.70039
20
-4.82835
11
6.7248
21
-4.82835
0
LINE
8
BLACK
6
CONTINUOUS
10
6.7248
20
-4.82835
11
6.7248
21
-4.85276
0
LINE
8
BLACK
6
CONTINUOUS
10
7.19921
20
-4.84488
11
7.1748
21
-4.84488
0
LINE
8
BLACK
6
CONTINUOUS
10
7.1748
20
-4.84488
11
7.1748
21
-4.82047
0
LINE
8
BLACK
6
CONTINUOUS
10
7.1748
20
-4.82047
11
7.19921
21
-4.82047
0
LINE
8
BLACK
6
CONTINUOUS
10
7.19921
20
-4.82047
11
7.19921
21
-4.84488
0
LINE
8
BLACK
6
CONTINUOUS
10
7.23465
20
-4.84488
11
7.21024
21
-4.84488
0
LINE
8
BLACK
6
CONTINUOUS
10
7.21024
20
-4.84488
11
7.21024
21
-4.82047
0
LINE
8
BLACK
6
CONTINUOUS
10
7.21024
20
-4.82047
11
7.23465
21
-4.82047
0
LINE
8
BLACK
6
CONTINUOUS
10
7.23465
20
-4.82047
11
7.23465
21
-4.84488
0
LINE
8
BLACK
6
CONTINUOUS
10
5.92953
20
-4.84488
11
5.90512
21
-4.84488
0
LINE
8
BLACK
6
CONTINUOUS
10
5.90512
20
-4.84488
11
5.90512
21
-4.82047
0
LINE
8
BLACK
6
CONTINUOUS
10
5.90512
20
-4.82047
11
5.92953
21
-4.82047
0
LINE
8
BLACK
6
CONTINUOUS
10
5.92953
20
-4.82047
11
5.92953
21
-4.84488
0
LINE
8
BLACK
6
CONTINUOUS
10
5.96496
20
-4.84488
11
5.94055
21
-4.84488
0
LINE
8
BLACK
6
CONTINUOUS
10
5.94055
20
-4.84488
11
5.94055
21
-4.82047
0
LINE
8
BLACK
6
CONTINUOUS
10
5.94055
20
-4.82047
11
5.96496
21
-4.82047
0
LINE
8
BLACK
6
CONTINUOUS
10
5.96496
20
-4.82047
11
5.96496
21
-4.84488
0
LINE
8
BLACK
6
CONTINUOUS
10
6.16831
20
-4.8189
11
6.14469
21
-4.8189
0
LINE
8
BLACK
6
CONTINUOUS
10
6.14469
20
-4.8189
11
6.14469
21
-4.77559
0
LINE
8
BLACK
6
CONTINUOUS
10
6.14469
20
-4.77559
11
6.16831
21
-4.77559
0
LINE
8
BLACK
6
CONTINUOUS
10
6.16831
20
-4.77559
11
6.16831
21
-4.8189
0
LINE
8
BLACK
6
CONTINUOUS
10
6.11909
20
-4.8189
11
6.09547
21
-4.8189
0
LINE
8
BLACK
6
CONTINUOUS
10
6.09547
20
-4.8189
11
6.09547
21
-4.77559
0
LINE
8
BLACK
6
CONTINUOUS
10
6.09547
20
-4.77559
11
6.11909
21
-4.77559
0
LINE
8
BLACK
6
CONTINUOUS
10
6.11909
20
-4.77559
11
6.11909
21
-4.8189
0
LINE
8
BLACK
6
CONTINUOUS
10
6.06988
20
-4.8189
11
6.04626
21
-4.8189
0
LINE
8
BLACK
6
CONTINUOUS
10
6.04626
20
-4.8189
11
6.04626
21
-4.77559
0
LINE
8
BLACK
6
CONTINUOUS
10
6.04626
20
-4.77559
11
6.06988
21
-4.77559
0
LINE
8
BLACK
6
CONTINUOUS
10
6.06988
20
-4.77559
11
6.06988
21
-4.8189
0
LINE
8
BLACK
6
CONTINUOUS
10
6.02067
20
-4.8189
11
5.99705
21
-4.8189
0
LINE
8
BLACK
6
CONTINUOUS
10
5.99705
20
-4.8189
11
5.99705
21
-4.77559
0
LINE
8
BLACK
6
CONTINUOUS
10
5.99705
20
-4.77559
11
6.02067
21
-4.77559
0
LINE
8
BLACK
6
CONTINUOUS
10
6.02067
20
-4.77559
11
6.02067
21
-4.8189
0
LINE
8
BLACK
6
CONTINUOUS
10
6.7248
20
-4.81732
11
6.70039
21
-4.81732
0
LINE
8
BLACK
6
CONTINUOUS
10
6.70039
20
-4.81732
11
6.70039
21
-4.79291
0
LINE
8
BLACK
6
CONTINUOUS
10
6.70039
20
-4.79291
11
6.7248
21
-4.79291
0
LINE
8
BLACK
6
CONTINUOUS
10
6.7248
20
-4.79291
11
6.7248
21
-4.81732
0
LINE
8
BLACK
6
CONTINUOUS
10
6.95118
20
-4.81732
11
6.92677
21
-4.81732
0
LINE
8
BLACK
6
CONTINUOUS
10
6.92677
20
-4.81732
11
6.92677
21
-4.79291
0
LINE
8
BLACK
6
CONTINUOUS
10
6.92677
20
-4.79291
11
6.95118
21
-4.79291
0
LINE
8
BLACK
6
CONTINUOUS
10
6.95118
20
-4.79291
11
6.95118
21
-4.81732
0
LINE
8
BLACK
6
CONTINUOUS
10
6.99055
20
-4.81732
11
6.96614
21
-4.81732
0
LINE
8
BLACK
6
CONTINUOUS
10
6.96614
20
-4.81732
11
6.96614
21
-4.79291
0
LINE
8
BLACK
6
CONTINUOUS
10
6.96614
20
-4.79291
11
6.99055
21
-4.79291
0
LINE
8
BLACK
6
CONTINUOUS
10
6.99055
20
-4.79291
11
6.99055
21
-4.81732
0
LINE
8
BLACK
6
CONTINUOUS
10
7.43543
20
-4.81535
11
7.41102
21
-4.81535
0
LINE
8
BLACK
6
CONTINUOUS
10
7.41102
20
-4.81535
11
7.41102
21
-4.79094
0
LINE
8
BLACK
6
CONTINUOUS
10
7.41102
20
-4.79094
11
7.43543
21
-4.79094
0
LINE
8
BLACK
6
CONTINUOUS
10
7.43543
20
-4.79094
11
7.43543
21
-4.81535
0
LINE
8
BLACK
6
CONTINUOUS
10
7.47087
20
-4.81535
11
7.44646
21
-4.81535
0
LINE
8
BLACK
6
CONTINUOUS
10
7.44646
20
-4.81535
11
7.44646
21
-4.79094
0
LINE
8
BLACK
6
CONTINUOUS
10
7.44646
20
-4.79094
11
7.47087
21
-4.79094
0
LINE
8
BLACK
6
CONTINUOUS
10
7.47087
20
-4.79094
11
7.47087
21
-4.81535
0
LINE
8
BLACK
6
CONTINUOUS
10
5.96693
20
-4.80354
11
5.94252
21
-4.80354
0
LINE
8
BLACK
6
CONTINUOUS
10
5.94252
20
-4.80354
11
5.94252
21
-4.77913
0
LINE
8
BLACK
6
CONTINUOUS
10
5.94252
20
-4.77913
11
5.96693
21
-4.77913
0
LINE
8
BLACK
6
CONTINUOUS
10
5.96693
20
-4.77913
11
5.96693
21
-4.80354
0
LINE
8
BLACK
6
CONTINUOUS
10
7.17224
20
-4.79331
11
7.13484
21
-4.79331
0
LINE
8
BLACK
6
CONTINUOUS
10
7.13484
20
-4.79331
11
7.13484
21
-4.75394
0
LINE
8
BLACK
6
CONTINUOUS
10
7.13484
20
-4.75394
11
7.17224
21
-4.75394
0
LINE
8
BLACK
6
CONTINUOUS
10
7.17224
20
-4.75394
11
7.17224
21
-4.79331
0
LINE
8
BLACK
6
CONTINUOUS
10
7.23524
20
-4.79331
11
7.19783
21
-4.79331
0
LINE
8
BLACK
6
CONTINUOUS
10
7.19783
20
-4.79331
11
7.19783
21
-4.75394
0
LINE
8
BLACK
6
CONTINUOUS
10
7.19783
20
-4.75394
11
7.23524
21
-4.75394
0
LINE
8
BLACK
6
CONTINUOUS
10
7.23524
20
-4.75394
11
7.23524
21
-4.79331
0
LINE
8
BLACK
6
CONTINUOUS
10
7.47087
20
-4.77598
11
7.44646
21
-4.77598
0
LINE
8
BLACK
6
CONTINUOUS
10
7.44646
20
-4.77598
11
7.44646
21
-4.75157
0
LINE
8
BLACK
6
CONTINUOUS
10
7.44646
20
-4.75157
11
7.47087
21
-4.75157
0
LINE
8
BLACK
6
CONTINUOUS
10
7.47087
20
-4.75157
11
7.47087
21
-4.77598
0
LINE
8
BLACK
6
CONTINUOUS
10
7.43543
20
-4.77598
11
7.41102
21
-4.77598
0
LINE
8
BLACK
6
CONTINUOUS
10
7.41102
20
-4.77598
11
7.41102
21
-4.75157
0
LINE
8
BLACK
6
CONTINUOUS
10
7.41102
20
-4.75157
11
7.43543
21
-4.75157
0
LINE
8
BLACK
6
CONTINUOUS
10
7.43543
20
-4.75157
11
7.43543
21
-4.77598
0
LINE
8
BLACK
6
CONTINUOUS
10
5.96693
20
-4.76811
11
5.94252
21
-4.76811
0
LINE
8
BLACK
6
CONTINUOUS
10
5.94252
20
-4.76811
11
5.94252
21
-4.7437
0
LINE
8
BLACK
6
CONTINUOUS
10
5.94252
20
-4.7437
11
5.96693
21
-4.7437
0
LINE
8
BLACK
6
CONTINUOUS
10
5.96693
20
-4.7437
11
5.96693
21
-4.76811
0
LINE
8
BLACK
6
CONTINUOUS
10
6.81693
20
-4.76181
11
6.80512
21
-4.76181
0
LINE
8
BLACK
6
CONTINUOUS
10
6.80512
20
-4.76181
11
6.80512
21
-4.70276
0
LINE
8
BLACK
6
CONTINUOUS
10
6.80512
20
-4.70276
11
6.81693
21
-4.70276
0
LINE
8
BLACK
6
CONTINUOUS
10
6.81693
20
-4.70276
11
6.81693
21
-4.76181
0
LINE
8
BLACK
6
CONTINUOUS
10
6.69882
20
-4.76181
11
6.68701
21
-4.76181
0
LINE
8
BLACK
6
CONTINUOUS
10
6.68701
20
-4.76181
11
6.68701
21
-4.70276
0
LINE
8
BLACK
6
CONTINUOUS
10
6.68701
20
-4.70276
11
6.69882
21
-4.70276
0
LINE
8
BLACK
6
CONTINUOUS
10
6.69882
20
-4.70276
11
6.69882
21
-4.76181
0
LINE
8
BLACK
6
CONTINUOUS
10
6.67913
20
-4.76181
11
6.66732
21
-4.76181
0
LINE
8
BLACK
6
CONTINUOUS
10
6.66732
20
-4.76181
11
6.66732
21
-4.70276
0
LINE
8
BLACK
6
CONTINUOUS
10
6.66732
20
-4.70276
11
6.67913
21
-4.70276
0
LINE
8
BLACK
6
CONTINUOUS
10
6.67913
20
-4.70276
11
6.67913
21
-4.76181
0
LINE
8
BLACK
6
CONTINUOUS
10
6.83661
20
-4.76181
11
6.8248
21
-4.76181
0
LINE
8
BLACK
6
CONTINUOUS
10
6.8248
20
-4.76181
11
6.8248
21
-4.70276
0
LINE
8
BLACK
6
CONTINUOUS
10
6.8248
20
-4.70276
11
6.83661
21
-4.70276
0
LINE
8
BLACK
6
CONTINUOUS
10
6.83661
20
-4.70276
11
6.83661
21
-4.76181
0
LINE
8
BLACK
6
CONTINUOUS
10
6.58071
20
-4.76181
11
6.5689
21
-4.76181
0
LINE
8
BLACK
6
CONTINUOUS
10
6.5689
20
-4.76181
11
6.5689
21
-4.70276
0
LINE
8
BLACK
6
CONTINUOUS
10
6.5689
20
-4.70276
11
6.58071
21
-4.70276
0
LINE
8
BLACK
6
CONTINUOUS
10
6.58071
20
-4.70276
11
6.58071
21
-4.76181
0
LINE
8
BLACK
6
CONTINUOUS
10
6.79724
20
-4.76181
11
6.78543
21
-4.76181
0
LINE
8
BLACK
6
CONTINUOUS
10
6.78543
20
-4.76181
11
6.78543
21
-4.70276
0
LINE
8
BLACK
6
CONTINUOUS
10
6.78543
20
-4.70276
11
6.79724
21
-4.70276
0
LINE
8
BLACK
6
CONTINUOUS
10
6.79724
20
-4.70276
11
6.79724
21
-4.76181
0
LINE
8
BLACK
6
CONTINUOUS
10
6.7185
20
-4.76181
11
6.70669
21
-4.76181
0
LINE
8
BLACK
6
CONTINUOUS
10
6.70669
20
-4.76181
11
6.70669
21
-4.70276
0
LINE
8
BLACK
6
CONTINUOUS
10
6.70669
20
-4.70276
11
6.7185
21
-4.70276
0
LINE
8
BLACK
6
CONTINUOUS
10
6.7185
20
-4.70276
11
6.7185
21
-4.76181
0
LINE
8
BLACK
6
CONTINUOUS
10
6.73819
20
-4.76181
11
6.72638
21
-4.76181
0
LINE
8
BLACK
6
CONTINUOUS
10
6.72638
20
-4.76181
11
6.72638
21
-4.70276
0
LINE
8
BLACK
6
CONTINUOUS
10
6.72638
20
-4.70276
11
6.73819
21
-4.70276
0
LINE
8
BLACK
6
CONTINUOUS
10
6.73819
20
-4.70276
11
6.73819
21
-4.76181
0
LINE
8
BLACK
6
CONTINUOUS
10
6.75787
20
-4.76181
11
6.74606
21
-4.76181
0
LINE
8
BLACK
6
CONTINUOUS
10
6.74606
20
-4.76181
11
6.74606
21
-4.70276
0
LINE
8
BLACK
6
CONTINUOUS
10
6.74606
20
-4.70276
11
6.75787
21
-4.70276
0
LINE
8
BLACK
6
CONTINUOUS
10
6.75787
20
-4.70276
11
6.75787
21
-4.76181
0
LINE
8
BLACK
6
CONTINUOUS
10
6.77756
20
-4.76181
11
6.76575
21
-4.76181
0
LINE
8
BLACK
6
CONTINUOUS
10
6.76575
20
-4.76181
11
6.76575
21
-4.70276
0
LINE
8
BLACK
6
CONTINUOUS
10
6.76575
20
-4.70276
11
6.77756
21
-4.70276
0
LINE
8
BLACK
6
CONTINUOUS
10
6.77756
20
-4.70276
11
6.77756
21
-4.76181
0
LINE
8
BLACK
6
CONTINUOUS
10
6.87598
20
-4.76181
11
6.86417
21
-4.76181
0
LINE
8
BLACK
6
CONTINUOUS
10
6.86417
20
-4.76181
11
6.86417
21
-4.70276
0
LINE
8
BLACK
6
CONTINUOUS
10
6.86417
20
-4.70276
11
6.87598
21
-4.70276
0
LINE
8
BLACK
6
CONTINUOUS
10
6.87598
20
-4.70276
11
6.87598
21
-4.76181
0
LINE
8
BLACK
6
CONTINUOUS
10
6.89567
20
-4.76181
11
6.88386
21
-4.76181
0
LINE
8
BLACK
6
CONTINUOUS
10
6.88386
20
-4.76181
11
6.88386
21
-4.70276
0
LINE
8
BLACK
6
CONTINUOUS
10
6.88386
20
-4.70276
11
6.89567
21
-4.70276
0
LINE
8
BLACK
6
CONTINUOUS
10
6.89567
20
-4.70276
11
6.89567
21
-4.76181
0
LINE
8
BLACK
6
CONTINUOUS
10
6.8563
20
-4.76181
11
6.84449
21
-4.76181
0
LINE
8
BLACK
6
CONTINUOUS
10
6.84449
20
-4.76181
11
6.84449
21
-4.70276
0
LINE
8
BLACK
6
CONTINUOUS
10
6.84449
20
-4.70276
11
6.8563
21
-4.70276
0
LINE
8
BLACK
6
CONTINUOUS
10
6.8563
20
-4.70276
11
6.8563
21
-4.76181
0
LINE
8
BLACK
6
CONTINUOUS
10
7.05315
20
-4.76181
11
7.04134
21
-4.76181
0
LINE
8
BLACK
6
CONTINUOUS
10
7.04134
20
-4.76181
11
7.04134
21
-4.70276
0
LINE
8
BLACK
6
CONTINUOUS
10
7.04134
20
-4.70276
11
7.05315
21
-4.70276
0
LINE
8
BLACK
6
CONTINUOUS
10
7.05315
20
-4.70276
11
7.05315
21
-4.76181
0
LINE
8
BLACK
6
CONTINUOUS
10
7.03346
20
-4.76181
11
7.02165
21
-4.76181
0
LINE
8
BLACK
6
CONTINUOUS
10
7.02165
20
-4.76181
11
7.02165
21
-4.70276
0
LINE
8
BLACK
6
CONTINUOUS
10
7.02165
20
-4.70276
11
7.03346
21
-4.70276
0
LINE
8
BLACK
6
CONTINUOUS
10
7.03346
20
-4.70276
11
7.03346
21
-4.76181
0
LINE
8
BLACK
6
CONTINUOUS
10
7.01378
20
-4.76181
11
7.00197
21
-4.76181
0
LINE
8
BLACK
6
CONTINUOUS
10
7.00197
20
-4.76181
11
7.00197
21
-4.70276
0
LINE
8
BLACK
6
CONTINUOUS
10
7.00197
20
-4.70276
11
7.01378
21
-4.70276
0
LINE
8
BLACK
6
CONTINUOUS
10
7.01378
20
-4.70276
11
7.01378
21
-4.76181
0
LINE
8
BLACK
6
CONTINUOUS
10
6.91535
20
-4.76181
11
6.90354
21
-4.76181
0
LINE
8
BLACK
6
CONTINUOUS
10
6.90354
20
-4.76181
11
6.90354
21
-4.70276
0
LINE
8
BLACK
6
CONTINUOUS
10
6.90354
20
-4.70276
11
6.91535
21
-4.70276
0
LINE
8
BLACK
6
CONTINUOUS
10
6.91535
20
-4.70276
11
6.91535
21
-4.76181
0
LINE
8
BLACK
6
CONTINUOUS
10
6.65945
20
-4.76181
11
6.64764
21
-4.76181
0
LINE
8
BLACK
6
CONTINUOUS
10
6.64764
20
-4.76181
11
6.64764
21
-4.70276
0
LINE
8
BLACK
6
CONTINUOUS
10
6.64764
20
-4.70276
11
6.65945
21
-4.70276
0
LINE
8
BLACK
6
CONTINUOUS
10
6.65945
20
-4.70276
11
6.65945
21
-4.76181
0
LINE
8
BLACK
6
CONTINUOUS
10
6.63976
20
-4.76181
11
6.62795
21
-4.76181
0
LINE
8
BLACK
6
CONTINUOUS
10
6.62795
20
-4.76181
11
6.62795
21
-4.70276
0
LINE
8
BLACK
6
CONTINUOUS
10
6.62795
20
-4.70276
11
6.63976
21
-4.70276
0
LINE
8
BLACK
6
CONTINUOUS
10
6.63976
20
-4.70276
11
6.63976
21
-4.76181
0
LINE
8
BLACK
6
CONTINUOUS
10
6.93504
20
-4.76181
11
6.92323
21
-4.76181
0
LINE
8
BLACK
6
CONTINUOUS
10
6.92323
20
-4.76181
11
6.92323
21
-4.70276
0
LINE
8
BLACK
6
CONTINUOUS
10
6.92323
20
-4.70276
11
6.93504
21
-4.70276
0
LINE
8
BLACK
6
CONTINUOUS
10
6.93504
20
-4.70276
11
6.93504
21
-4.76181
0
LINE
8
BLACK
6
CONTINUOUS
10
6.99409
20
-4.76181
11
6.98228
21
-4.76181
0
LINE
8
BLACK
6
CONTINUOUS
10
6.98228
20
-4.76181
11
6.98228
21
-4.70276
0
LINE
8
BLACK
6
CONTINUOUS
10
6.98228
20
-4.70276
11
6.99409
21
-4.70276
0
LINE
8
BLACK
6
CONTINUOUS
10
6.99409
20
-4.70276
11
6.99409
21
-4.76181
0
LINE
8
BLACK
6
CONTINUOUS
10
6.95472
20
-4.76181
11
6.94291
21
-4.76181
0
LINE
8
BLACK
6
CONTINUOUS
10
6.94291
20
-4.76181
11
6.94291
21
-4.70276
0
LINE
8
BLACK
6
CONTINUOUS
10
6.94291
20
-4.70276
11
6.95472
21
-4.70276
0
LINE
8
BLACK
6
CONTINUOUS
10
6.95472
20
-4.70276
11
6.95472
21
-4.76181
0
LINE
8
BLACK
6
CONTINUOUS
10
6.62008
20
-4.76181
11
6.60827
21
-4.76181
0
LINE
8
BLACK
6
CONTINUOUS
10
6.60827
20
-4.76181
11
6.60827
21
-4.70276
0
LINE
8
BLACK
6
CONTINUOUS
10
6.60827
20
-4.70276
11
6.62008
21
-4.70276
0
LINE
8
BLACK
6
CONTINUOUS
10
6.62008
20
-4.70276
11
6.62008
21
-4.76181
0
LINE
8
BLACK
6
CONTINUOUS
10
6.60039
20
-4.76181
11
6.58858
21
-4.76181
0
LINE
8
BLACK
6
CONTINUOUS
10
6.58858
20
-4.76181
11
6.58858
21
-4.70276
0
LINE
8
BLACK
6
CONTINUOUS
10
6.58858
20
-4.70276
11
6.60039
21
-4.70276
0
LINE
8
BLACK
6
CONTINUOUS
10
6.60039
20
-4.70276
11
6.60039
21
-4.76181
0
LINE
8
BLACK
6
CONTINUOUS
10
6.97441
20
-4.76181
11
6.9626
21
-4.76181
0
LINE
8
BLACK
6
CONTINUOUS
10
6.9626
20
-4.76181
11
6.9626
21
-4.70276
0
LINE
8
BLACK
6
CONTINUOUS
10
6.9626
20
-4.70276
11
6.97441
21
-4.70276
0
LINE
8
BLACK
6
CONTINUOUS
10
6.97441
20
-4.70276
11
6.97441
21
-4.76181
0
LINE
8
BLACK
6
CONTINUOUS
10
7.43543
20
-4.73661
11
7.41102
21
-4.73661
0
LINE
8
BLACK
6
CONTINUOUS
10
7.41102
20
-4.73661
11
7.41102
21
-4.7122
0
LINE
8
BLACK
6
CONTINUOUS
10
7.41102
20
-4.7122
11
7.43543
21
-4.7122
0
LINE
8
BLACK
6
CONTINUOUS
10
7.43543
20
-4.7122
11
7.43543
21
-4.73661
0
LINE
8
BLACK
6
CONTINUOUS
10
7.47087
20
-4.73661
11
7.44646
21
-4.73661
0
LINE
8
BLACK
6
CONTINUOUS
10
7.44646
20
-4.73661
11
7.44646
21
-4.7122
0
LINE
8
BLACK
6
CONTINUOUS
10
7.44646
20
-4.7122
11
7.47087
21
-4.7122
0
LINE
8
BLACK
6
CONTINUOUS
10
7.47087
20
-4.7122
11
7.47087
21
-4.73661
0
LINE
8
BLACK
6
CONTINUOUS
10
6.16831
20
-4.73228
11
6.14469
21
-4.73228
0
LINE
8
BLACK
6
CONTINUOUS
10
6.14469
20
-4.73228
11
6.14469
21
-4.68898
0
LINE
8
BLACK
6
CONTINUOUS
10
6.14469
20
-4.68898
11
6.16831
21
-4.68898
0
LINE
8
BLACK
6
CONTINUOUS
10
6.16831
20
-4.68898
11
6.16831
21
-4.73228
0
LINE
8
BLACK
6
CONTINUOUS
10
6.11909
20
-4.73228
11
6.09547
21
-4.73228
0
LINE
8
BLACK
6
CONTINUOUS
10
6.09547
20
-4.73228
11
6.09547
21
-4.68898
0
LINE
8
BLACK
6
CONTINUOUS
10
6.09547
20
-4.68898
11
6.11909
21
-4.68898
0
LINE
8
BLACK
6
CONTINUOUS
10
6.11909
20
-4.68898
11
6.11909
21
-4.73228
0
LINE
8
BLACK
6
CONTINUOUS
10
6.06988
20
-4.73228
11
6.04626
21
-4.73228
0
LINE
8
BLACK
6
CONTINUOUS
10
6.04626
20
-4.73228
11
6.04626
21
-4.68898
0
LINE
8
BLACK
6
CONTINUOUS
10
6.04626
20
-4.68898
11
6.06988
21
-4.68898
0
LINE
8
BLACK
6
CONTINUOUS
10
6.06988
20
-4.68898
11
6.06988
21
-4.73228
0
LINE
8
BLACK
6
CONTINUOUS
10
6.02067
20
-4.73228
11
5.99705
21
-4.73228
0
LINE
8
BLACK
6
CONTINUOUS
10
5.99705
20
-4.73228
11
5.99705
21
-4.68898
0
LINE
8
BLACK
6
CONTINUOUS
10
5.99705
20
-4.68898
11
6.02067
21
-4.68898
0
LINE
8
BLACK
6
CONTINUOUS
10
6.02067
20
-4.68898
11
6.02067
21
-4.73228
0
LINE
8
BLACK
6
CONTINUOUS
10
7.19921
20
-4.72677
11
7.1748
21
-4.72677
0
LINE
8
BLACK
6
CONTINUOUS
10
7.1748
20
-4.72677
11
7.1748
21
-4.70236
0
LINE
8
BLACK
6
CONTINUOUS
10
7.1748
20
-4.70236
11
7.19921
21
-4.70236
0
LINE
8
BLACK
6
CONTINUOUS
10
7.19921
20
-4.70236
11
7.19921
21
-4.72677
0
LINE
8
BLACK
6
CONTINUOUS
10
7.23465
20
-4.72677
11
7.21024
21
-4.72677
0
LINE
8
BLACK
6
CONTINUOUS
10
7.21024
20
-4.72677
11
7.21024
21
-4.70236
0
LINE
8
BLACK
6
CONTINUOUS
10
7.21024
20
-4.70236
11
7.23465
21
-4.70236
0
LINE
8
BLACK
6
CONTINUOUS
10
7.23465
20
-4.70236
11
7.23465
21
-4.72677
0
LINE
8
BLACK
6
CONTINUOUS
10
6.4374
20
-4.6874
11
6.41299
21
-4.6874
0
LINE
8
BLACK
6
CONTINUOUS
10
6.41299
20
-4.6874
11
6.41299
21
-4.66299
0
LINE
8
BLACK
6
CONTINUOUS
10
6.41299
20
-4.66299
11
6.4374
21
-4.66299
0
LINE
8
BLACK
6
CONTINUOUS
10
6.4374
20
-4.66299
11
6.4374
21
-4.6874
0
LINE
8
BLACK
6
CONTINUOUS
10
6.40197
20
-4.6874
11
6.37756
21
-4.6874
0
LINE
8
BLACK
6
CONTINUOUS
10
6.37756
20
-4.6874
11
6.37756
21
-4.66299
0
LINE
8
BLACK
6
CONTINUOUS
10
6.37756
20
-4.66299
11
6.40197
21
-4.66299
0
LINE
8
BLACK
6
CONTINUOUS
10
6.40197
20
-4.66299
11
6.40197
21
-4.6874
0
LINE
8
BLACK
6
CONTINUOUS
10
7.19724
20
-4.67559
11
7.17283
21
-4.67559
0
LINE
8
BLACK
6
CONTINUOUS
10
7.17283
20
-4.67559
11
7.17283
21
-4.65118
0
LINE
8
BLACK
6
CONTINUOUS
10
7.17283
20
-4.65118
11
7.19724
21
-4.65118
0
LINE
8
BLACK
6
CONTINUOUS
10
7.19724
20
-4.65118
11
7.19724
21
-4.67559
0
LINE
8
BLACK
6
CONTINUOUS
10
6.5374
20
-4.67126
11
6.47835
21
-4.67126
0
LINE
8
BLACK
6
CONTINUOUS
10
6.47835
20
-4.67126
11
6.47835
21
-4.65945
0
LINE
8
BLACK
6
CONTINUOUS
10
6.47835
20
-4.65945
11
6.5374
21
-4.65945
0
LINE
8
BLACK
6
CONTINUOUS
10
6.5374
20
-4.65945
11
6.5374
21
-4.67126
0
LINE
8
BLACK
6
CONTINUOUS
10
7.1437
20
-4.67126
11
7.08465
21
-4.67126
0
LINE
8
BLACK
6
CONTINUOUS
10
7.08465
20
-4.67126
11
7.08465
21
-4.65945
0
LINE
8
BLACK
6
CONTINUOUS
10
7.08465
20
-4.65945
11
7.1437
21
-4.65945
0
LINE
8
BLACK
6
CONTINUOUS
10
7.1437
20
-4.65945
11
7.1437
21
-4.67126
0
LINE
8
BLACK
6
CONTINUOUS
10
6.5374
20
-4.65157
11
6.47835
21
-4.65157
0
LINE
8
BLACK
6
CONTINUOUS
10
6.47835
20
-4.65157
11
6.47835
21
-4.63976
0
LINE
8
BLACK
6
CONTINUOUS
10
6.47835
20
-4.63976
11
6.5374
21
-4.63976
0
LINE
8
BLACK
6
CONTINUOUS
10
6.5374
20
-4.63976
11
6.5374
21
-4.65157
0
LINE
8
BLACK
6
CONTINUOUS
10
7.1437
20
-4.65157
11
7.08465
21
-4.65157
0
LINE
8
BLACK
6
CONTINUOUS
10
7.08465
20
-4.65157
11
7.08465
21
-4.63976
0
LINE
8
BLACK
6
CONTINUOUS
10
7.08465
20
-4.63976
11
7.1437
21
-4.63976
0
LINE
8
BLACK
6
CONTINUOUS
10
7.1437
20
-4.63976
11
7.1437
21
-4.65157
0
LINE
8
BLACK
6
CONTINUOUS
10
7.19724
20
-4.64016
11
7.17283
21
-4.64016
0
LINE
8
BLACK
6
CONTINUOUS
10
7.17283
20
-4.64016
11
7.17283
21
-4.61575
0
LINE
8
BLACK
6
CONTINUOUS
10
7.17283
20
-4.61575
11
7.19724
21
-4.61575
0
LINE
8
BLACK
6
CONTINUOUS
10
7.19724
20
-4.61575
11
7.19724
21
-4.64016
0
LINE
8
BLACK
6
CONTINUOUS
10
6.5374
20
-4.63189
11
6.47835
21
-4.63189
0
LINE
8
BLACK
6
CONTINUOUS
10
6.47835
20
-4.63189
11
6.47835
21
-4.62008
0
LINE
8
BLACK
6
CONTINUOUS
10
6.47835
20
-4.62008
11
6.5374
21
-4.62008
0
LINE
8
BLACK
6
CONTINUOUS
10
6.5374
20
-4.62008
11
6.5374
21
-4.63189
0
LINE
8
BLACK
6
CONTINUOUS
10
7.1437
20
-4.63189
11
7.08465
21
-4.63189
0
LINE
8
BLACK
6
CONTINUOUS
10
7.08465
20
-4.63189
11
7.08465
21
-4.62008
0
LINE
8
BLACK
6
CONTINUOUS
10
7.08465
20
-4.62008
11
7.1437
21
-4.62008
0
LINE
8
BLACK
6
CONTINUOUS
10
7.1437
20
-4.62008
11
7.1437
21
-4.63189
0
LINE
8
BLACK
6
CONTINUOUS
10
6.5374
20
-4.6122
11
6.47835
21
-4.6122
0
LINE
8
BLACK
6
CONTINUOUS
10
6.47835
20
-4.6122
11
6.47835
21
-4.60039
0
LINE
8
BLACK
6
CONTINUOUS
10
6.47835
20
-4.60039
11
6.5374
21
-4.60039
0
LINE
8
BLACK
6
CONTINUOUS
10
6.5374
20
-4.60039
11
6.5374
21
-4.6122
0
LINE
8
BLACK
6
CONTINUOUS
10
7.1437
20
-4.6122
11
7.08465
21
-4.6122
0
LINE
8
BLACK
6
CONTINUOUS
10
7.08465
20
-4.6122
11
7.08465
21
-4.60039
0
LINE
8
BLACK
6
CONTINUOUS
10
7.08465
20
-4.60039
11
7.1437
21
-4.60039
0
LINE
8
BLACK
6
CONTINUOUS
10
7.1437
20
-4.60039
11
7.1437
21
-4.6122
0
LINE
8
BLACK
6
CONTINUOUS
10
6.5374
20
-4.59252
11
6.47835
21
-4.59252
0
LINE
8
BLACK
6
CONTINUOUS
10
6.47835
20
-4.59252
11
6.47835
21
-4.58071
0
LINE
8
BLACK
6
CONTINUOUS
10
6.47835
20
-4.58071
11
6.5374
21
-4.58071
0
LINE
8
BLACK
6
CONTINUOUS
10
6.5374
20
-4.58071
11
6.5374
21
-4.59252
0
LINE
8
BLACK
6
CONTINUOUS
10
7.1437
20
-4.59252
11
7.08465
21
-4.59252
0
LINE
8
BLACK
6
CONTINUOUS
10
7.08465
20
-4.59252
11
7.08465
21
-4.58071
0
LINE
8
BLACK
6
CONTINUOUS
10
7.08465
20
-4.58071
11
7.1437
21
-4.58071
0
LINE
8
BLACK
6
CONTINUOUS
10
7.1437
20
-4.58071
11
7.1437
21
-4.59252
0
LINE
8
BLACK
6
CONTINUOUS
10
6.5374
20
-4.57283
11
6.47835
21
-4.57283
0
LINE
8
BLACK
6
CONTINUOUS
10
6.47835
20
-4.57283
11
6.47835
21
-4.56102
0
LINE
8
BLACK
6
CONTINUOUS
10
6.47835
20
-4.56102
11
6.5374
21
-4.56102
0
LINE
8
BLACK
6
CONTINUOUS
10
6.5374
20
-4.56102
11
6.5374
21
-4.57283
0
LINE
8
BLACK
6
CONTINUOUS
10
7.1437
20
-4.57283
11
7.08465
21
-4.57283
0
LINE
8
BLACK
6
CONTINUOUS
10
7.08465
20
-4.57283
11
7.08465
21
-4.56102
0
LINE
8
BLACK
6
CONTINUOUS
10
7.08465
20
-4.56102
11
7.1437
21
-4.56102
0
LINE
8
BLACK
6
CONTINUOUS
10
7.1437
20
-4.56102
11
7.1437
21
-4.57283
0
LINE
8
BLACK
6
CONTINUOUS
10
7.1437
20
-4.55315
11
7.08465
21
-4.55315
0
LINE
8
BLACK
6
CONTINUOUS
10
7.08465
20
-4.55315
11
7.08465
21
-4.54134
0
LINE
8
BLACK
6
CONTINUOUS
10
7.08465
20
-4.54134
11
7.1437
21
-4.54134
0
LINE
8
BLACK
6
CONTINUOUS
10
7.1437
20
-4.54134
11
7.1437
21
-4.55315
0
LINE
8
BLACK
6
CONTINUOUS
10
6.5374
20
-4.55315
11
6.47835
21
-4.55315
0
LINE
8
BLACK
6
CONTINUOUS
10
6.47835
20
-4.55315
11
6.47835
21
-4.54134
0
LINE
8
BLACK
6
CONTINUOUS
10
6.47835
20
-4.54134
11
6.5374
21
-4.54134
0
LINE
8
BLACK
6
CONTINUOUS
10
6.5374
20
-4.54134
11
6.5374
21
-4.55315
0
LINE
8
BLACK
6
CONTINUOUS
10
7.36457
20
-4.5378
11
7.34016
21
-4.5378
0
LINE
8
BLACK
6
CONTINUOUS
10
7.34016
20
-4.5378
11
7.34016
21
-4.51339
0
LINE
8
BLACK
6
CONTINUOUS
10
7.34016
20
-4.51339
11
7.36457
21
-4.51339
0
LINE
8
BLACK
6
CONTINUOUS
10
7.36457
20
-4.51339
11
7.36457
21
-4.5378
0
LINE
8
BLACK
6
CONTINUOUS
10
7.1437
20
-4.53346
11
7.08465
21
-4.53346
0
LINE
8
BLACK
6
CONTINUOUS
10
7.08465
20
-4.53346
11
7.08465
21
-4.52165
0
LINE
8
BLACK
6
CONTINUOUS
10
7.08465
20
-4.52165
11
7.1437
21
-4.52165
0
LINE
8
BLACK
6
CONTINUOUS
10
7.1437
20
-4.52165
11
7.1437
21
-4.53346
0
LINE
8
BLACK
6
CONTINUOUS
10
6.5374
20
-4.53346
11
6.47835
21
-4.53346
0
LINE
8
BLACK
6
CONTINUOUS
10
6.47835
20
-4.53346
11
6.47835
21
-4.52165
0
LINE
8
BLACK
6
CONTINUOUS
10
6.47835
20
-4.52165
11
6.5374
21
-4.52165
0
LINE
8
BLACK
6
CONTINUOUS
10
6.5374
20
-4.52165
11
6.5374
21
-4.53346
0
LINE
8
BLACK
6
CONTINUOUS
10
7.1437
20
-4.51378
11
7.08465
21
-4.51378
0
LINE
8
BLACK
6
CONTINUOUS
10
7.08465
20
-4.51378
11
7.08465
21
-4.50197
0
LINE
8
BLACK
6
CONTINUOUS
10
7.08465
20
-4.50197
11
7.1437
21
-4.50197
0
LINE
8
BLACK
6
CONTINUOUS
10
7.1437
20
-4.50197
11
7.1437
21
-4.51378
0
LINE
8
BLACK
6
CONTINUOUS
10
6.5374
20
-4.51378
11
6.47835
21
-4.51378
0
LINE
8
BLACK
6
CONTINUOUS
10
6.47835
20
-4.51378
11
6.47835
21
-4.50197
0
LINE
8
BLACK
6
CONTINUOUS
10
6.47835
20
-4.50197
11
6.5374
21
-4.50197
0
LINE
8
BLACK
6
CONTINUOUS
10
6.5374
20
-4.50197
11
6.5374
21
-4.51378
0
LINE
8
BLACK
6
CONTINUOUS
10
7.36457
20
-4.50236
11
7.34016
21
-4.50236
0
LINE
8
BLACK
6
CONTINUOUS
10
7.34016
20
-4.50236
11
7.34016
21
-4.47795
0
LINE
8
BLACK
6
CONTINUOUS
10
7.34016
20
-4.47795
11
7.36457
21
-4.47795
0
LINE
8
BLACK
6
CONTINUOUS
10
7.36457
20
-4.47795
11
7.36457
21
-4.50236
0
LINE
8
BLACK
6
CONTINUOUS
10
7.45118
20
-4.50039
11
7.42677
21
-4.50039
0
LINE
8
BLACK
6
CONTINUOUS
10
7.42677
20
-4.50039
11
7.42677
21
-4.47598
0
LINE
8
BLACK
6
CONTINUOUS
10
7.42677
20
-4.47598
11
7.45118
21
-4.47598
0
LINE
8
BLACK
6
CONTINUOUS
10
7.45118
20
-4.47598
11
7.45118
21
-4.50039
0
LINE
8
BLACK
6
CONTINUOUS
10
7.41575
20
-4.50039
11
7.39134
21
-4.50039
0
LINE
8
BLACK
6
CONTINUOUS
10
7.39134
20
-4.50039
11
7.39134
21
-4.47598
0
LINE
8
BLACK
6
CONTINUOUS
10
7.39134
20
-4.47598
11
7.41575
21
-4.47598
0
LINE
8
BLACK
6
CONTINUOUS
10
7.41575
20
-4.47598
11
7.41575
21
-4.50039
0
LINE
8
BLACK
6
CONTINUOUS
10
6.5374
20
-4.49409
11
6.47835
21
-4.49409
0
LINE
8
BLACK
6
CONTINUOUS
10
6.47835
20
-4.49409
11
6.47835
21
-4.48228
0
LINE
8
BLACK
6
CONTINUOUS
10
6.47835
20
-4.48228
11
6.5374
21
-4.48228
0
LINE
8
BLACK
6
CONTINUOUS
10
6.5374
20
-4.48228
11
6.5374
21
-4.49409
0
LINE
8
BLACK
6
CONTINUOUS
10
7.1437
20
-4.49409
11
7.08465
21
-4.49409
0
LINE
8
BLACK
6
CONTINUOUS
10
7.08465
20
-4.49409
11
7.08465
21
-4.48228
0
LINE
8
BLACK
6
CONTINUOUS
10
7.08465
20
-4.48228
11
7.1437
21
-4.48228
0
LINE
8
BLACK
6
CONTINUOUS
10
7.1437
20
-4.48228
11
7.1437
21
-4.49409
0
LINE
8
BLACK
6
CONTINUOUS
10
6.37047
20
-4.47874
11
6.34606
21
-4.47874
0
LINE
8
BLACK
6
CONTINUOUS
10
6.34606
20
-4.47874
11
6.34606
21
-4.45433
0
LINE
8
BLACK
6
CONTINUOUS
10
6.34606
20
-4.45433
11
6.37047
21
-4.45433
0
LINE
8
BLACK
6
CONTINUOUS
10
6.37047
20
-4.45433
11
6.37047
21
-4.47874
0
LINE
8
BLACK
6
CONTINUOUS
10
6.32126
20
-4.47874
11
6.29685
21
-4.47874
0
LINE
8
BLACK
6
CONTINUOUS
10
6.29685
20
-4.47874
11
6.29685
21
-4.45433
0
LINE
8
BLACK
6
CONTINUOUS
10
6.29685
20
-4.45433
11
6.32126
21
-4.45433
0
LINE
8
BLACK
6
CONTINUOUS
10
6.32126
20
-4.45433
11
6.32126
21
-4.47874
0
LINE
8
BLACK
6
CONTINUOUS
10
7.1437
20
-4.47441
11
7.08465
21
-4.47441
0
LINE
8
BLACK
6
CONTINUOUS
10
7.08465
20
-4.47441
11
7.08465
21
-4.4626
0
LINE
8
BLACK
6
CONTINUOUS
10
7.08465
20
-4.4626
11
7.1437
21
-4.4626
0
LINE
8
BLACK
6
CONTINUOUS
10
7.1437
20
-4.4626
11
7.1437
21
-4.47441
0
LINE
8
BLACK
6
CONTINUOUS
10
6.5374
20
-4.47441
11
6.47835
21
-4.47441
0
LINE
8
BLACK
6
CONTINUOUS
10
6.47835
20
-4.47441
11
6.47835
21
-4.4626
0
LINE
8
BLACK
6
CONTINUOUS
10
6.47835
20
-4.4626
11
6.5374
21
-4.4626
0
LINE
8
BLACK
6
CONTINUOUS
10
6.5374
20
-4.4626
11
6.5374
21
-4.47441
0
LINE
8
BLACK
6
CONTINUOUS
10
7.5315
20
-4.46654
11
7.48819
21
-4.46654
0
LINE
8
BLACK
6
CONTINUOUS
10
7.48819
20
-4.46654
11
7.48819
21
-4.42323
0
LINE
8
BLACK
6
CONTINUOUS
10
7.48819
20
-4.42323
11
7.5315
21
-4.42323
0
LINE
8
BLACK
6
CONTINUOUS
10
7.5315
20
-4.42323
11
7.5315
21
-4.46654
0
LINE
8
BLACK
6
CONTINUOUS
10
6.5374
20
-4.45472
11
6.47835
21
-4.45472
0
LINE
8
BLACK
6
CONTINUOUS
10
6.47835
20
-4.45472
11
6.47835
21
-4.44291
0
LINE
8
BLACK
6
CONTINUOUS
10
6.47835
20
-4.44291
11
6.5374
21
-4.44291
0
LINE
8
BLACK
6
CONTINUOUS
10
6.5374
20
-4.44291
11
6.5374
21
-4.45472
0
LINE
8
BLACK
6
CONTINUOUS
10
7.1437
20
-4.45472
11
7.08465
21
-4.45472
0
LINE
8
BLACK
6
CONTINUOUS
10
7.08465
20
-4.45472
11
7.08465
21
-4.44291
0
LINE
8
BLACK
6
CONTINUOUS
10
7.08465
20
-4.44291
11
7.1437
21
-4.44291
0
LINE
8
BLACK
6
CONTINUOUS
10
7.1437
20
-4.44291
11
7.1437
21
-4.45472
0
LINE
8
BLACK
6
CONTINUOUS
10
7.36614
20
-4.44488
11
7.34252
21
-4.44488
0
LINE
8
BLACK
6
CONTINUOUS
10
7.34252
20
-4.44488
11
7.34252
21
-4.40551
0
LINE
8
BLACK
6
CONTINUOUS
10
7.34252
20
-4.40551
11
7.36614
21
-4.40551
0
LINE
8
BLACK
6
CONTINUOUS
10
7.36614
20
-4.40551
11
7.36614
21
-4.44488
0
LINE
8
BLACK
6
CONTINUOUS
10
7.44094
20
-4.44488
11
7.41732
21
-4.44488
0
LINE
8
BLACK
6
CONTINUOUS
10
7.41732
20
-4.44488
11
7.41732
21
-4.40551
0
LINE
8
BLACK
6
CONTINUOUS
10
7.41732
20
-4.40551
11
7.44094
21
-4.40551
0
LINE
8
BLACK
6
CONTINUOUS
10
7.44094
20
-4.40551
11
7.44094
21
-4.44488
0
LINE
8
BLACK
6
CONTINUOUS
10
6.37047
20
-4.44331
11
6.34606
21
-4.44331
0
LINE
8
BLACK
6
CONTINUOUS
10
6.34606
20
-4.44331
11
6.34606
21
-4.4189
0
LINE
8
BLACK
6
CONTINUOUS
10
6.34606
20
-4.4189
11
6.37047
21
-4.4189
0
LINE
8
BLACK
6
CONTINUOUS
10
6.37047
20
-4.4189
11
6.37047
21
-4.44331
0
LINE
8
BLACK
6
CONTINUOUS
10
6.32126
20
-4.44331
11
6.29685
21
-4.44331
0
LINE
8
BLACK
6
CONTINUOUS
10
6.29685
20
-4.44331
11
6.29685
21
-4.4189
0
LINE
8
BLACK
6
CONTINUOUS
10
6.29685
20
-4.4189
11
6.32126
21
-4.4189
0
LINE
8
BLACK
6
CONTINUOUS
10
6.32126
20
-4.4189
11
6.32126
21
-4.44331
0
LINE
8
BLACK
6
CONTINUOUS
10
6.5374
20
-4.43504
11
6.47835
21
-4.43504
0
LINE
8
BLACK
6
CONTINUOUS
10
6.47835
20
-4.43504
11
6.47835
21
-4.42323
0
LINE
8
BLACK
6
CONTINUOUS
10
6.47835
20
-4.42323
11
6.5374
21
-4.42323
0
LINE
8
BLACK
6
CONTINUOUS
10
6.5374
20
-4.42323
11
6.5374
21
-4.43504
0
LINE
8
BLACK
6
CONTINUOUS
10
7.1437
20
-4.43504
11
7.08465
21
-4.43504
0
LINE
8
BLACK
6
CONTINUOUS
10
7.08465
20
-4.43504
11
7.08465
21
-4.42323
0
LINE
8
BLACK
6
CONTINUOUS
10
7.08465
20
-4.42323
11
7.1437
21
-4.42323
0
LINE
8
BLACK
6
CONTINUOUS
10
7.1437
20
-4.42323
11
7.1437
21
-4.43504
0
LINE
8
BLACK
6
CONTINUOUS
10
7.1437
20
-4.41535
11
7.08465
21
-4.41535
0
LINE
8
BLACK
6
CONTINUOUS
10
7.08465
20
-4.41535
11
7.08465
21
-4.40354
0
LINE
8
BLACK
6
CONTINUOUS
10
7.08465
20
-4.40354
11
7.1437
21
-4.40354
0
LINE
8
BLACK
6
CONTINUOUS
10
7.1437
20
-4.40354
11
7.1437
21
-4.41535
0
LINE
8
BLACK
6
CONTINUOUS
10
6.5374
20
-4.41535
11
6.47835
21
-4.41535
0
LINE
8
BLACK
6
CONTINUOUS
10
6.47835
20
-4.41535
11
6.47835
21
-4.40354
0
LINE
8
BLACK
6
CONTINUOUS
10
6.47835
20
-4.40354
11
6.5374
21
-4.40354
0
LINE
8
BLACK
6
CONTINUOUS
10
6.5374
20
-4.40354
11
6.5374
21
-4.41535
0
LINE
8
BLACK
6
CONTINUOUS
10
7.1437
20
-4.39567
11
7.08465
21
-4.39567
0
LINE
8
BLACK
6
CONTINUOUS
10
7.08465
20
-4.39567
11
7.08465
21
-4.38386
0
LINE
8
BLACK
6
CONTINUOUS
10
7.08465
20
-4.38386
11
7.1437
21
-4.38386
0
LINE
8
BLACK
6
CONTINUOUS
10
7.1437
20
-4.38386
11
7.1437
21
-4.39567
0
LINE
8
BLACK
6
CONTINUOUS
10
6.5374
20
-4.39567
11
6.47835
21
-4.39567
0
LINE
8
BLACK
6
CONTINUOUS
10
6.47835
20
-4.39567
11
6.47835
21
-4.38386
0
LINE
8
BLACK
6
CONTINUOUS
10
6.47835
20
-4.38386
11
6.5374
21
-4.38386
0
LINE
8
BLACK
6
CONTINUOUS
10
6.5374
20
-4.38386
11
6.5374
21
-4.39567
0
LINE
8
BLACK
6
CONTINUOUS
10
6.33307
20
-4.38228
11
6.30866
21
-4.38228
0
LINE
8
BLACK
6
CONTINUOUS
10
6.30866
20
-4.38228
11
6.30866
21
-4.35787
0
LINE
8
BLACK
6
CONTINUOUS
10
6.30866
20
-4.35787
11
6.33307
21
-4.35787
0
LINE
8
BLACK
6
CONTINUOUS
10
6.33307
20
-4.35787
11
6.33307
21
-4.38228
0
LINE
8
BLACK
6
CONTINUOUS
10
6.3685
20
-4.38228
11
6.34409
21
-4.38228
0
LINE
8
BLACK
6
CONTINUOUS
10
6.34409
20
-4.38228
11
6.34409
21
-4.35787
0
LINE
8
BLACK
6
CONTINUOUS
10
6.34409
20
-4.35787
11
6.3685
21
-4.35787
0
LINE
8
BLACK
6
CONTINUOUS
10
6.3685
20
-4.35787
11
6.3685
21
-4.38228
0
LINE
8
BLACK
6
CONTINUOUS
10
7.1437
20
-4.37598
11
7.08465
21
-4.37598
0
LINE
8
BLACK
6
CONTINUOUS
10
7.08465
20
-4.37598
11
7.08465
21
-4.36417
0
LINE
8
BLACK
6
CONTINUOUS
10
7.08465
20
-4.36417
11
7.1437
21
-4.36417
0
LINE
8
BLACK
6
CONTINUOUS
10
7.1437
20
-4.36417
11
7.1437
21
-4.37598
0
LINE
8
BLACK
6
CONTINUOUS
10
6.5374
20
-4.37598
11
6.47835
21
-4.37598
0
LINE
8
BLACK
6
CONTINUOUS
10
6.47835
20
-4.37598
11
6.47835
21
-4.36417
0
LINE
8
BLACK
6
CONTINUOUS
10
6.47835
20
-4.36417
11
6.5374
21
-4.36417
0
LINE
8
BLACK
6
CONTINUOUS
10
6.5374
20
-4.36417
11
6.5374
21
-4.37598
0
LINE
8
BLACK
6
CONTINUOUS
10
7.21693
20
-4.3626
11
7.19252
21
-4.3626
0
LINE
8
BLACK
6
CONTINUOUS
10
7.19252
20
-4.3626
11
7.19252
21
-4.33819
0
LINE
8
BLACK
6
CONTINUOUS
10
7.19252
20
-4.33819
11
7.21693
21
-4.33819
0
LINE
8
BLACK
6
CONTINUOUS
10
7.21693
20
-4.33819
11
7.21693
21
-4.3626
0
LINE
8
BLACK
6
CONTINUOUS
10
7.25236
20
-4.3626
11
7.22795
21
-4.3626
0
LINE
8
BLACK
6
CONTINUOUS
10
7.22795
20
-4.3626
11
7.22795
21
-4.33819
0
LINE
8
BLACK
6
CONTINUOUS
10
7.22795
20
-4.33819
11
7.25236
21
-4.33819
0
LINE
8
BLACK
6
CONTINUOUS
10
7.25236
20
-4.33819
11
7.25236
21
-4.3626
0
LINE
8
BLACK
6
CONTINUOUS
10
7.5315
20
-4.3563
11
7.48819
21
-4.3563
0
LINE
8
BLACK
6
CONTINUOUS
10
7.48819
20
-4.3563
11
7.48819
21
-4.31299
0
LINE
8
BLACK
6
CONTINUOUS
10
7.48819
20
-4.31299
11
7.5315
21
-4.31299
0
LINE
8
BLACK
6
CONTINUOUS
10
7.5315
20
-4.31299
11
7.5315
21
-4.3563
0
LINE
8
BLACK
6
CONTINUOUS
10
6.5374
20
-4.3563
11
6.47835
21
-4.3563
0
LINE
8
BLACK
6
CONTINUOUS
10
6.47835
20
-4.3563
11
6.47835
21
-4.34449
0
LINE
8
BLACK
6
CONTINUOUS
10
6.47835
20
-4.34449
11
6.5374
21
-4.34449
0
LINE
8
BLACK
6
CONTINUOUS
10
6.5374
20
-4.34449
11
6.5374
21
-4.3563
0
LINE
8
BLACK
6
CONTINUOUS
10
7.1437
20
-4.3563
11
7.08465
21
-4.3563
0
LINE
8
BLACK
6
CONTINUOUS
10
7.08465
20
-4.3563
11
7.08465
21
-4.34449
0
LINE
8
BLACK
6
CONTINUOUS
10
7.08465
20
-4.34449
11
7.1437
21
-4.34449
0
LINE
8
BLACK
6
CONTINUOUS
10
7.1437
20
-4.34449
11
7.1437
21
-4.3563
0
LINE
8
BLACK
6
CONTINUOUS
10
7.40354
20
-4.35433
11
7.37992
21
-4.35433
0
LINE
8
BLACK
6
CONTINUOUS
10
7.37992
20
-4.35433
11
7.37992
21
-4.31496
0
LINE
8
BLACK
6
CONTINUOUS
10
7.37992
20
-4.31496
11
7.40354
21
-4.31496
0
LINE
8
BLACK
6
CONTINUOUS
10
7.40354
20
-4.31496
11
7.40354
21
-4.35433
0
LINE
8
BLACK
6
CONTINUOUS
10
7.1437
20
-4.33661
11
7.08465
21
-4.33661
0
LINE
8
BLACK
6
CONTINUOUS
10
7.08465
20
-4.33661
11
7.08465
21
-4.3248
0
LINE
8
BLACK
6
CONTINUOUS
10
7.08465
20
-4.3248
11
7.1437
21
-4.3248
0
LINE
8
BLACK
6
CONTINUOUS
10
7.1437
20
-4.3248
11
7.1437
21
-4.33661
0
LINE
8
BLACK
6
CONTINUOUS
10
6.5374
20
-4.33661
11
6.47835
21
-4.33661
0
LINE
8
BLACK
6
CONTINUOUS
10
6.47835
20
-4.33661
11
6.47835
21
-4.3248
0
LINE
8
BLACK
6
CONTINUOUS
10
6.47835
20
-4.3248
11
6.5374
21
-4.3248
0
LINE
8
BLACK
6
CONTINUOUS
10
6.5374
20
-4.3248
11
6.5374
21
-4.33661
0
LINE
8
BLACK
6
CONTINUOUS
10
6.5374
20
-4.31693
11
6.47835
21
-4.31693
0
LINE
8
BLACK
6
CONTINUOUS
10
6.47835
20
-4.31693
11
6.47835
21
-4.30512
0
LINE
8
BLACK
6
CONTINUOUS
10
6.47835
20
-4.30512
11
6.5374
21
-4.30512
0
LINE
8
BLACK
6
CONTINUOUS
10
6.5374
20
-4.30512
11
6.5374
21
-4.31693
0
LINE
8
BLACK
6
CONTINUOUS
10
7.1437
20
-4.31693
11
7.08465
21
-4.31693
0
LINE
8
BLACK
6
CONTINUOUS
10
7.08465
20
-4.31693
11
7.08465
21
-4.30512
0
LINE
8
BLACK
6
CONTINUOUS
10
7.08465
20
-4.30512
11
7.1437
21
-4.30512
0
LINE
8
BLACK
6
CONTINUOUS
10
7.1437
20
-4.30512
11
7.1437
21
-4.31693
0
LINE
8
BLACK
6
CONTINUOUS
10
6.5374
20
-4.29724
11
6.47835
21
-4.29724
0
LINE
8
BLACK
6
CONTINUOUS
10
6.47835
20
-4.29724
11
6.47835
21
-4.28543
0
LINE
8
BLACK
6
CONTINUOUS
10
6.47835
20
-4.28543
11
6.5374
21
-4.28543
0
LINE
8
BLACK
6
CONTINUOUS
10
6.5374
20
-4.28543
11
6.5374
21
-4.29724
0
LINE
8
BLACK
6
CONTINUOUS
10
7.1437
20
-4.29724
11
7.08465
21
-4.29724
0
LINE
8
BLACK
6
CONTINUOUS
10
7.08465
20
-4.29724
11
7.08465
21
-4.28543
0
LINE
8
BLACK
6
CONTINUOUS
10
7.08465
20
-4.28543
11
7.1437
21
-4.28543
0
LINE
8
BLACK
6
CONTINUOUS
10
7.1437
20
-4.28543
11
7.1437
21
-4.29724
0
LINE
8
BLACK
6
CONTINUOUS
10
6.5374
20
-4.27756
11
6.47835
21
-4.27756
0
LINE
8
BLACK
6
CONTINUOUS
10
6.47835
20
-4.27756
11
6.47835
21
-4.26575
0
LINE
8
BLACK
6
CONTINUOUS
10
6.47835
20
-4.26575
11
6.5374
21
-4.26575
0
LINE
8
BLACK
6
CONTINUOUS
10
6.5374
20
-4.26575
11
6.5374
21
-4.27756
0
LINE
8
BLACK
6
CONTINUOUS
10
7.1437
20
-4.27756
11
7.08465
21
-4.27756
0
LINE
8
BLACK
6
CONTINUOUS
10
7.08465
20
-4.27756
11
7.08465
21
-4.26575
0
LINE
8
BLACK
6
CONTINUOUS
10
7.08465
20
-4.26575
11
7.1437
21
-4.26575
0
LINE
8
BLACK
6
CONTINUOUS
10
7.1437
20
-4.26575
11
7.1437
21
-4.27756
0
LINE
8
BLACK
6
CONTINUOUS
10
7.53268
20
-4.2689
11
7.50354
21
-4.2689
0
LINE
8
BLACK
6
CONTINUOUS
10
7.50354
20
-4.2689
11
7.50354
21
-4.15906
0
LINE
8
BLACK
6
CONTINUOUS
10
7.50354
20
-4.15906
11
7.53268
21
-4.15906
0
LINE
8
BLACK
6
CONTINUOUS
10
7.53268
20
-4.15906
11
7.53268
21
-4.2689
0
LINE
8
BLACK
6
CONTINUOUS
10
7.73268
20
-4.2689
11
7.70354
21
-4.2689
0
LINE
8
BLACK
6
CONTINUOUS
10
7.70354
20
-4.2689
11
7.70354
21
-4.15906
0
LINE
8
BLACK
6
CONTINUOUS
10
7.70354
20
-4.15906
11
7.73268
21
-4.15906
0
LINE
8
BLACK
6
CONTINUOUS
10
7.73268
20
-4.15906
11
7.73268
21
-4.2689
0
LINE
8
BLACK
6
CONTINUOUS
10
7.68268
20
-4.2689
11
7.65354
21
-4.2689
0
LINE
8
BLACK
6
CONTINUOUS
10
7.65354
20
-4.2689
11
7.65354
21
-4.15906
0
LINE
8
BLACK
6
CONTINUOUS
10
7.65354
20
-4.15906
11
7.68268
21
-4.15906
0
LINE
8
BLACK
6
CONTINUOUS
10
7.68268
20
-4.15906
11
7.68268
21
-4.2689
0
LINE
8
BLACK
6
CONTINUOUS
10
7.63268
20
-4.2689
11
7.60354
21
-4.2689
0
LINE
8
BLACK
6
CONTINUOUS
10
7.60354
20
-4.2689
11
7.60354
21
-4.15906
0
LINE
8
BLACK
6
CONTINUOUS
10
7.60354
20
-4.15906
11
7.63268
21
-4.15906
0
LINE
8
BLACK
6
CONTINUOUS
10
7.63268
20
-4.15906
11
7.63268
21
-4.2689
0
LINE
8
BLACK
6
CONTINUOUS
10
7.58268
20
-4.2689
11
7.55354
21
-4.2689
0
LINE
8
BLACK
6
CONTINUOUS
10
7.55354
20
-4.2689
11
7.55354
21
-4.15906
0
LINE
8
BLACK
6
CONTINUOUS
10
7.55354
20
-4.15906
11
7.58268
21
-4.15906
0
LINE
8
BLACK
6
CONTINUOUS
10
7.58268
20
-4.15906
11
7.58268
21
-4.2689
0
LINE
8
BLACK
6
CONTINUOUS
10
6.5374
20
-4.25787
11
6.47835
21
-4.25787
0
LINE
8
BLACK
6
CONTINUOUS
10
6.47835
20
-4.25787
11
6.47835
21
-4.24606
0
LINE
8
BLACK
6
CONTINUOUS
10
6.47835
20
-4.24606
11
6.5374
21
-4.24606
0
LINE
8
BLACK
6
CONTINUOUS
10
6.5374
20
-4.24606
11
6.5374
21
-4.25787
0
LINE
8
BLACK
6
CONTINUOUS
10
7.1437
20
-4.25787
11
7.08465
21
-4.25787
0
LINE
8
BLACK
6
CONTINUOUS
10
7.08465
20
-4.25787
11
7.08465
21
-4.24606
0
LINE
8
BLACK
6
CONTINUOUS
10
7.08465
20
-4.24606
11
7.1437
21
-4.24606
0
LINE
8
BLACK
6
CONTINUOUS
10
7.1437
20
-4.24606
11
7.1437
21
-4.25787
0
LINE
8
BLACK
6
CONTINUOUS
10
7.25394
20
-4.25295
11
7.21457
21
-4.25295
0
LINE
8
BLACK
6
CONTINUOUS
10
7.21457
20
-4.25295
11
7.21457
21
-4.21555
0
LINE
8
BLACK
6
CONTINUOUS
10
7.21457
20
-4.21555
11
7.25394
21
-4.21555
0
LINE
8
BLACK
6
CONTINUOUS
10
7.25394
20
-4.21555
11
7.25394
21
-4.25295
0
LINE
8
BLACK
6
CONTINUOUS
10
7.30551
20
-4.25236
11
7.2811
21
-4.25236
0
LINE
8
BLACK
6
CONTINUOUS
10
7.2811
20
-4.25236
11
7.2811
21
-4.22795
0
LINE
8
BLACK
6
CONTINUOUS
10
7.2811
20
-4.22795
11
7.30551
21
-4.22795
0
LINE
8
BLACK
6
CONTINUOUS
10
7.30551
20
-4.22795
11
7.30551
21
-4.25236
0
LINE
8
BLACK
6
CONTINUOUS
10
7.1437
20
-4.23819
11
7.08465
21
-4.23819
0
LINE
8
BLACK
6
CONTINUOUS
10
7.08465
20
-4.23819
11
7.08465
21
-4.22638
0
LINE
8
BLACK
6
CONTINUOUS
10
7.08465
20
-4.22638
11
7.1437
21
-4.22638
0
LINE
8
BLACK
6
CONTINUOUS
10
7.1437
20
-4.22638
11
7.1437
21
-4.23819
0
LINE
8
BLACK
6
CONTINUOUS
10
6.5374
20
-4.23819
11
6.47835
21
-4.23819
0
LINE
8
BLACK
6
CONTINUOUS
10
6.47835
20
-4.23819
11
6.47835
21
-4.22638
0
LINE
8
BLACK
6
CONTINUOUS
10
6.47835
20
-4.22638
11
6.5374
21
-4.22638
0
LINE
8
BLACK
6
CONTINUOUS
10
6.5374
20
-4.22638
11
6.5374
21
-4.23819
0
LINE
8
BLACK
6
CONTINUOUS
10
7.1437
20
-4.2185
11
7.08465
21
-4.2185
0
LINE
8
BLACK
6
CONTINUOUS
10
7.08465
20
-4.2185
11
7.08465
21
-4.20669
0
LINE
8
BLACK
6
CONTINUOUS
10
7.08465
20
-4.20669
11
7.1437
21
-4.20669
0
LINE
8
BLACK
6
CONTINUOUS
10
7.1437
20
-4.20669
11
7.1437
21
-4.2185
0
LINE
8
BLACK
6
CONTINUOUS
10
6.5374
20
-4.2185
11
6.47835
21
-4.2185
0
LINE
8
BLACK
6
CONTINUOUS
10
6.47835
20
-4.2185
11
6.47835
21
-4.20669
0
LINE
8
BLACK
6
CONTINUOUS
10
6.47835
20
-4.20669
11
6.5374
21
-4.20669
0
LINE
8
BLACK
6
CONTINUOUS
10
6.5374
20
-4.20669
11
6.5374
21
-4.2185
0
LINE
8
BLACK
6
CONTINUOUS
10
7.30551
20
-4.21693
11
7.2811
21
-4.21693
0
LINE
8
BLACK
6
CONTINUOUS
10
7.2811
20
-4.21693
11
7.2811
21
-4.19252
0
LINE
8
BLACK
6
CONTINUOUS
10
7.2811
20
-4.19252
11
7.30551
21
-4.19252
0
LINE
8
BLACK
6
CONTINUOUS
10
7.30551
20
-4.19252
11
7.30551
21
-4.21693
0
LINE
8
BLACK
6
CONTINUOUS
10
6.5374
20
-4.19882
11
6.47835
21
-4.19882
0
LINE
8
BLACK
6
CONTINUOUS
10
6.47835
20
-4.19882
11
6.47835
21
-4.18701
0
LINE
8
BLACK
6
CONTINUOUS
10
6.47835
20
-4.18701
11
6.5374
21
-4.18701
0
LINE
8
BLACK
6
CONTINUOUS
10
6.5374
20
-4.18701
11
6.5374
21
-4.19882
0
LINE
8
BLACK
6
CONTINUOUS
10
7.1437
20
-4.19882
11
7.08465
21
-4.19882
0
LINE
8
BLACK
6
CONTINUOUS
10
7.08465
20
-4.19882
11
7.08465
21
-4.18701
0
LINE
8
BLACK
6
CONTINUOUS
10
7.08465
20
-4.18701
11
7.1437
21
-4.18701
0
LINE
8
BLACK
6
CONTINUOUS
10
7.1437
20
-4.18701
11
7.1437
21
-4.19882
0
LINE
8
BLACK
6
CONTINUOUS
10
7.25394
20
-4.18996
11
7.21457
21
-4.18996
0
LINE
8
BLACK
6
CONTINUOUS
10
7.21457
20
-4.18996
11
7.21457
21
-4.15256
0
LINE
8
BLACK
6
CONTINUOUS
10
7.21457
20
-4.15256
11
7.25394
21
-4.15256
0
LINE
8
BLACK
6
CONTINUOUS
10
7.25394
20
-4.15256
11
7.25394
21
-4.18996
0
LINE
8
BLACK
6
CONTINUOUS
10
6.99409
20
-4.15551
11
6.98228
21
-4.15551
0
LINE
8
BLACK
6
CONTINUOUS
10
6.98228
20
-4.15551
11
6.98228
21
-4.09646
0
LINE
8
BLACK
6
CONTINUOUS
10
6.98228
20
-4.09646
11
6.99409
21
-4.09646
0
LINE
8
BLACK
6
CONTINUOUS
10
6.99409
20
-4.09646
11
6.99409
21
-4.15551
0
LINE
8
BLACK
6
CONTINUOUS
10
6.60039
20
-4.15551
11
6.58858
21
-4.15551
0
LINE
8
BLACK
6
CONTINUOUS
10
6.58858
20
-4.15551
11
6.58858
21
-4.09646
0
LINE
8
BLACK
6
CONTINUOUS
10
6.58858
20
-4.09646
11
6.60039
21
-4.09646
0
LINE
8
BLACK
6
CONTINUOUS
10
6.60039
20
-4.09646
11
6.60039
21
-4.15551
0
LINE
8
BLACK
6
CONTINUOUS
10
7.05315
20
-4.15551
11
7.04134
21
-4.15551
0
LINE
8
BLACK
6
CONTINUOUS
10
7.04134
20
-4.15551
11
7.04134
21
-4.09646
0
LINE
8
BLACK
6
CONTINUOUS
10
7.04134
20
-4.09646
11
7.05315
21
-4.09646
0
LINE
8
BLACK
6
CONTINUOUS
10
7.05315
20
-4.09646
11
7.05315
21
-4.15551
0
LINE
8
BLACK
6
CONTINUOUS
10
7.03346
20
-4.15551
11
7.02165
21
-4.15551
0
LINE
8
BLACK
6
CONTINUOUS
10
7.02165
20
-4.15551
11
7.02165
21
-4.09646
0
LINE
8
BLACK
6
CONTINUOUS
10
7.02165
20
-4.09646
11
7.03346
21
-4.09646
0
LINE
8
BLACK
6
CONTINUOUS
10
7.03346
20
-4.09646
11
7.03346
21
-4.15551
0
LINE
8
BLACK
6
CONTINUOUS
10
7.01378
20
-4.15551
11
7.00197
21
-4.15551
0
LINE
8
BLACK
6
CONTINUOUS
10
7.00197
20
-4.15551
11
7.00197
21
-4.09646
0
LINE
8
BLACK
6
CONTINUOUS
10
7.00197
20
-4.09646
11
7.01378
21
-4.09646
0
LINE
8
BLACK
6
CONTINUOUS
10
7.01378
20
-4.09646
11
7.01378
21
-4.15551
0
LINE
8
BLACK
6
CONTINUOUS
10
6.97441
20
-4.15551
11
6.9626
21
-4.15551
0
LINE
8
BLACK
6
CONTINUOUS
10
6.9626
20
-4.15551
11
6.9626
21
-4.09646
0
LINE
8
BLACK
6
CONTINUOUS
10
6.9626
20
-4.09646
11
6.97441
21
-4.09646
0
LINE
8
BLACK
6
CONTINUOUS
10
6.97441
20
-4.09646
11
6.97441
21
-4.15551
0
LINE
8
BLACK
6
CONTINUOUS
10
6.95472
20
-4.15551
11
6.94291
21
-4.15551
0
LINE
8
BLACK
6
CONTINUOUS
10
6.94291
20
-4.15551
11
6.94291
21
-4.09646
0
LINE
8
BLACK
6
CONTINUOUS
10
6.94291
20
-4.09646
11
6.95472
21
-4.09646
0
LINE
8
BLACK
6
CONTINUOUS
10
6.95472
20
-4.09646
11
6.95472
21
-4.15551
0
LINE
8
BLACK
6
CONTINUOUS
10
6.93504
20
-4.15551
11
6.92323
21
-4.15551
0
LINE
8
BLACK
6
CONTINUOUS
10
6.92323
20
-4.15551
11
6.92323
21
-4.09646
0
LINE
8
BLACK
6
CONTINUOUS
10
6.92323
20
-4.09646
11
6.93504
21
-4.09646
0
LINE
8
BLACK
6
CONTINUOUS
10
6.93504
20
-4.09646
11
6.93504
21
-4.15551
0
LINE
8
BLACK
6
CONTINUOUS
10
6.91535
20
-4.15551
11
6.90354
21
-4.15551
0
LINE
8
BLACK
6
CONTINUOUS
10
6.90354
20
-4.15551
11
6.90354
21
-4.09646
0
LINE
8
BLACK
6
CONTINUOUS
10
6.90354
20
-4.09646
11
6.91535
21
-4.09646
0
LINE
8
BLACK
6
CONTINUOUS
10
6.91535
20
-4.09646
11
6.91535
21
-4.15551
0
LINE
8
BLACK
6
CONTINUOUS
10
6.89567
20
-4.15551
11
6.88386
21
-4.15551
0
LINE
8
BLACK
6
CONTINUOUS
10
6.88386
20
-4.15551
11
6.88386
21
-4.09646
0
LINE
8
BLACK
6
CONTINUOUS
10
6.88386
20
-4.09646
11
6.89567
21
-4.09646
0
LINE
8
BLACK
6
CONTINUOUS
10
6.89567
20
-4.09646
11
6.89567
21
-4.15551
0
LINE
8
BLACK
6
CONTINUOUS
10
6.87598
20
-4.15551
11
6.86417
21
-4.15551
0
LINE
8
BLACK
6
CONTINUOUS
10
6.86417
20
-4.15551
11
6.86417
21
-4.09646
0
LINE
8
BLACK
6
CONTINUOUS
10
6.86417
20
-4.09646
11
6.87598
21
-4.09646
0
LINE
8
BLACK
6
CONTINUOUS
10
6.87598
20
-4.09646
11
6.87598
21
-4.15551
0
LINE
8
BLACK
6
CONTINUOUS
10
6.8563
20
-4.15551
11
6.84449
21
-4.15551
0
LINE
8
BLACK
6
CONTINUOUS
10
6.84449
20
-4.15551
11
6.84449
21
-4.09646
0
LINE
8
BLACK
6
CONTINUOUS
10
6.84449
20
-4.09646
11
6.8563
21
-4.09646
0
LINE
8
BLACK
6
CONTINUOUS
10
6.8563
20
-4.09646
11
6.8563
21
-4.15551
0
LINE
8
BLACK
6
CONTINUOUS
10
6.83661
20
-4.15551
11
6.8248
21
-4.15551
0
LINE
8
BLACK
6
CONTINUOUS
10
6.8248
20
-4.15551
11
6.8248
21
-4.09646
0
LINE
8
BLACK
6
CONTINUOUS
10
6.8248
20
-4.09646
11
6.83661
21
-4.09646
0
LINE
8
BLACK
6
CONTINUOUS
10
6.83661
20
-4.09646
11
6.83661
21
-4.15551
0
LINE
8
BLACK
6
CONTINUOUS
10
6.79724
20
-4.15551
11
6.78543
21
-4.15551
0
LINE
8
BLACK
6
CONTINUOUS
10
6.78543
20
-4.15551
11
6.78543
21
-4.09646
0
LINE
8
BLACK
6
CONTINUOUS
10
6.78543
20
-4.09646
11
6.79724
21
-4.09646
0
LINE
8
BLACK
6
CONTINUOUS
10
6.79724
20
-4.09646
11
6.79724
21
-4.15551
0
LINE
8
BLACK
6
CONTINUOUS
10
6.58071
20
-4.15551
11
6.5689
21
-4.15551
0
LINE
8
BLACK
6
CONTINUOUS
10
6.5689
20
-4.15551
11
6.5689
21
-4.09646
0
LINE
8
BLACK
6
CONTINUOUS
10
6.5689
20
-4.09646
11
6.58071
21
-4.09646
0
LINE
8
BLACK
6
CONTINUOUS
10
6.58071
20
-4.09646
11
6.58071
21
-4.15551
0
LINE
8
BLACK
6
CONTINUOUS
10
6.62008
20
-4.15551
11
6.60827
21
-4.15551
0
LINE
8
BLACK
6
CONTINUOUS
10
6.60827
20
-4.15551
11
6.60827
21
-4.09646
0
LINE
8
BLACK
6
CONTINUOUS
10
6.60827
20
-4.09646
11
6.62008
21
-4.09646
0
LINE
8
BLACK
6
CONTINUOUS
10
6.62008
20
-4.09646
11
6.62008
21
-4.15551
0
LINE
8
BLACK
6
CONTINUOUS
10
6.63976
20
-4.15551
11
6.62795
21
-4.15551
0
LINE
8
BLACK
6
CONTINUOUS
10
6.62795
20
-4.15551
11
6.62795
21
-4.09646
0
LINE
8
BLACK
6
CONTINUOUS
10
6.62795
20
-4.09646
11
6.63976
21
-4.09646
0
LINE
8
BLACK
6
CONTINUOUS
10
6.63976
20
-4.09646
11
6.63976
21
-4.15551
0
LINE
8
BLACK
6
CONTINUOUS
10
6.81693
20
-4.15551
11
6.80512
21
-4.15551
0
LINE
8
BLACK
6
CONTINUOUS
10
6.80512
20
-4.15551
11
6.80512
21
-4.09646
0
LINE
8
BLACK
6
CONTINUOUS
10
6.80512
20
-4.09646
11
6.81693
21
-4.09646
0
LINE
8
BLACK
6
CONTINUOUS
10
6.81693
20
-4.09646
11
6.81693
21
-4.15551
0
LINE
8
BLACK
6
CONTINUOUS
10
6.65945
20
-4.15551
11
6.64764
21
-4.15551
0
LINE
8
BLACK
6
CONTINUOUS
10
6.64764
20
-4.15551
11
6.64764
21
-4.09646
0
LINE
8
BLACK
6
CONTINUOUS
10
6.64764
20
-4.09646
11
6.65945
21
-4.09646
0
LINE
8
BLACK
6
CONTINUOUS
10
6.65945
20
-4.09646
11
6.65945
21
-4.15551
0
LINE
8
BLACK
6
CONTINUOUS
10
6.67913
20
-4.15551
11
6.66732
21
-4.15551
0
LINE
8
BLACK
6
CONTINUOUS
10
6.66732
20
-4.15551
11
6.66732
21
-4.09646
0
LINE
8
BLACK
6
CONTINUOUS
10
6.66732
20
-4.09646
11
6.67913
21
-4.09646
0
LINE
8
BLACK
6
CONTINUOUS
10
6.67913
20
-4.09646
11
6.67913
21
-4.15551
0
LINE
8
BLACK
6
CONTINUOUS
10
6.69882
20
-4.15551
11
6.68701
21
-4.15551
0
LINE
8
BLACK
6
CONTINUOUS
10
6.68701
20
-4.15551
11
6.68701
21
-4.09646
0
LINE
8
BLACK
6
CONTINUOUS
10
6.68701
20
-4.09646
11
6.69882
21
-4.09646
0
LINE
8
BLACK
6
CONTINUOUS
10
6.69882
20
-4.09646
11
6.69882
21
-4.15551
0
LINE
8
BLACK
6
CONTINUOUS
10
6.7185
20
-4.15551
11
6.70669
21
-4.15551
0
LINE
8
BLACK
6
CONTINUOUS
10
6.70669
20
-4.15551
11
6.70669
21
-4.09646
0
LINE
8
BLACK
6
CONTINUOUS
10
6.70669
20
-4.09646
11
6.7185
21
-4.09646
0
LINE
8
BLACK
6
CONTINUOUS
10
6.7185
20
-4.09646
11
6.7185
21
-4.15551
0
LINE
8
BLACK
6
CONTINUOUS
10
6.73819
20
-4.15551
11
6.72638
21
-4.15551
0
LINE
8
BLACK
6
CONTINUOUS
10
6.72638
20
-4.15551
11
6.72638
21
-4.09646
0
LINE
8
BLACK
6
CONTINUOUS
10
6.72638
20
-4.09646
11
6.73819
21
-4.09646
0
LINE
8
BLACK
6
CONTINUOUS
10
6.73819
20
-4.09646
11
6.73819
21
-4.15551
0
LINE
8
BLACK
6
CONTINUOUS
10
6.75787
20
-4.15551
11
6.74606
21
-4.15551
0
LINE
8
BLACK
6
CONTINUOUS
10
6.74606
20
-4.15551
11
6.74606
21
-4.09646
0
LINE
8
BLACK
6
CONTINUOUS
10
6.74606
20
-4.09646
11
6.75787
21
-4.09646
0
LINE
8
BLACK
6
CONTINUOUS
10
6.75787
20
-4.09646
11
6.75787
21
-4.15551
0
LINE
8
BLACK
6
CONTINUOUS
10
6.77756
20
-4.15551
11
6.76575
21
-4.15551
0
LINE
8
BLACK
6
CONTINUOUS
10
6.76575
20
-4.15551
11
6.76575
21
-4.09646
0
LINE
8
BLACK
6
CONTINUOUS
10
6.76575
20
-4.09646
11
6.77756
21
-4.09646
0
LINE
8
BLACK
6
CONTINUOUS
10
6.77756
20
-4.09646
11
6.77756
21
-4.15551
0
LINE
8
BLACK
6
CONTINUOUS
10
7.73268
20
-4.10866
11
7.70354
21
-4.10866
0
LINE
8
BLACK
6
CONTINUOUS
10
7.70354
20
-4.10866
11
7.70354
21
-3.99882
0
LINE
8
BLACK
6
CONTINUOUS
10
7.70354
20
-3.99882
11
7.73268
21
-3.99882
0
LINE
8
BLACK
6
CONTINUOUS
10
7.73268
20
-3.99882
11
7.73268
21
-4.10866
0
LINE
8
BLACK
6
CONTINUOUS
10
7.68268
20
-4.10866
11
7.65354
21
-4.10866
0
LINE
8
BLACK
6
CONTINUOUS
10
7.65354
20
-4.10866
11
7.65354
21
-3.99882
0
LINE
8
BLACK
6
CONTINUOUS
10
7.65354
20
-3.99882
11
7.68268
21
-3.99882
0
LINE
8
BLACK
6
CONTINUOUS
10
7.68268
20
-3.99882
11
7.68268
21
-4.10866
0
LINE
8
BLACK
6
CONTINUOUS
10
7.63268
20
-4.10866
11
7.60354
21
-4.10866
0
LINE
8
BLACK
6
CONTINUOUS
10
7.60354
20
-4.10866
11
7.60354
21
-3.99882
0
LINE
8
BLACK
6
CONTINUOUS
10
7.60354
20
-3.99882
11
7.63268
21
-3.99882
0
LINE
8
BLACK
6
CONTINUOUS
10
7.63268
20
-3.99882
11
7.63268
21
-4.10866
0
LINE
8
BLACK
6
CONTINUOUS
10
7.58268
20
-4.10866
11
7.55354
21
-4.10866
0
LINE
8
BLACK
6
CONTINUOUS
10
7.55354
20
-4.10866
11
7.55354
21
-3.99882
0
LINE
8
BLACK
6
CONTINUOUS
10
7.55354
20
-3.99882
11
7.58268
21
-3.99882
0
LINE
8
BLACK
6
CONTINUOUS
10
7.58268
20
-3.99882
11
7.58268
21
-4.10866
0
LINE
8
BLACK
6
CONTINUOUS
10
7.53268
20
-4.10866
11
7.50354
21
-4.10866
0
LINE
8
BLACK
6
CONTINUOUS
10
7.50354
20
-4.10866
11
7.50354
21
-3.99882
0
LINE
8
BLACK
6
CONTINUOUS
10
7.50354
20
-3.99882
11
7.53268
21
-3.99882
0
LINE
8
BLACK
6
CONTINUOUS
10
7.53268
20
-3.99882
11
7.53268
21
-4.10866
0
LINE
8
BLACK
6
CONTINUOUS
10
6.65453
20
-4.02559
11
6.61713
21
-4.02559
0
LINE
8
BLACK
6
CONTINUOUS
10
6.61713
20
-4.02559
11
6.61713
21
-3.98622
0
LINE
8
BLACK
6
CONTINUOUS
10
6.61713
20
-3.98622
11
6.65453
21
-3.98622
0
LINE
8
BLACK
6
CONTINUOUS
10
6.65453
20
-3.98622
11
6.65453
21
-4.02559
0
LINE
8
BLACK
6
CONTINUOUS
10
6.59154
20
-4.02559
11
6.55413
21
-4.02559
0
LINE
8
BLACK
6
CONTINUOUS
10
6.55413
20
-4.02559
11
6.55413
21
-3.98622
0
LINE
8
BLACK
6
CONTINUOUS
10
6.55413
20
-3.98622
11
6.59154
21
-3.98622
0
LINE
8
BLACK
6
CONTINUOUS
10
6.59154
20
-3.98622
11
6.59154
21
-4.02559
0
LINE
8
BLACK
6
CONTINUOUS
10
7.87599
20
-5.55118
11
7.87598
21
-5.55128
0
LINE
8
BLACK
6
CONTINUOUS
10
7.87598
20
-5.55128
11
7.87596
21
-5.55157
0
LINE
8
BLACK
6
CONTINUOUS
10
7.87596
20
-5.55157
11
7.87584
21
-5.55194
0
LINE
8
BLACK
6
CONTINUOUS
10
7.87584
20
-5.55194
11
7.87566
21
-5.55228
0
LINE
8
BLACK
6
CONTINUOUS
10
7.87566
20
-5.55228
11
7.87541
21
-5.55258
0
LINE
8
BLACK
6
CONTINUOUS
10
7.87541
20
-5.55258
11
7.87511
21
-5.55283
0
LINE
8
BLACK
6
CONTINUOUS
10
7.87511
20
-5.55283
11
7.87477
21
-5.55301
0
LINE
8
BLACK
6
CONTINUOUS
10
7.87477
20
-5.55301
11
7.8744
21
-5.55312
0
LINE
8
BLACK
6
CONTINUOUS
10
7.8744
20
-5.55312
11
7.87402
21
-5.55316
0
LINE
8
BLACK
6
CONTINUOUS
10
7.87402
20
-5.55316
11
7.87392
21
-5.55315
0
LINE
8
BLACK
6
CONTINUOUS
10
7.87392
20
-5.55315
11
7.75787
21
-5.55315
0
LINE
8
BLACK
6
CONTINUOUS
10
7.75787
20
-5.55315
11
7.75787
21
-6.14164
0
LINE
8
BLACK
6
CONTINUOUS
10
7.75787
20
-6.14164
11
7.75788
21
-6.14173
0
LINE
8
BLACK
6
CONTINUOUS
10
7.75788
20
-6.14173
11
7.75787
21
-6.14183
0
LINE
8
BLACK
6
CONTINUOUS
10
7.75787
20
-6.14183
11
7.75785
21
-6.14212
0
LINE
8
BLACK
6
CONTINUOUS
10
7.75785
20
-6.14212
11
7.75773
21
-6.14249
0
LINE
8
BLACK
6
CONTINUOUS
10
7.75773
20
-6.14249
11
7.75755
21
-6.14283
0
LINE
8
BLACK
6
CONTINUOUS
10
7.75755
20
-6.14283
11
7.7573
21
-6.14313
0
LINE
8
BLACK
6
CONTINUOUS
10
7.7573
20
-6.14313
11
7.757
21
-6.14338
0
LINE
8
BLACK
6
CONTINUOUS
10
7.757
20
-6.14338
11
7.75666
21
-6.14356
0
LINE
8
BLACK
6
CONTINUOUS
10
7.75666
20
-6.14356
11
7.75629
21
-6.14367
0
LINE
8
BLACK
6
CONTINUOUS
10
7.75629
20
-6.14367
11
7.75591
21
-6.14371
0
LINE
8
BLACK
6
CONTINUOUS
10
7.75591
20
-6.14371
11
7.75581
21
-6.1437
0
LINE
8
BLACK
6
CONTINUOUS
10
7.75581
20
-6.1437
11
4.80325
21
-6.1437
0
LINE
8
BLACK
6
CONTINUOUS
10
4.80325
20
-6.1437
11
4.80315
21
-6.14371
0
LINE
8
BLACK
6
CONTINUOUS
10
4.80315
20
-6.14371
11
4.80305
21
-6.1437
0
LINE
8
BLACK
6
CONTINUOUS
10
4.80305
20
-6.1437
11
4.80276
21
-6.14367
0
LINE
8
BLACK
6
CONTINUOUS
10
4.80276
20
-6.14367
11
4.80239
21
-6.14356
0
LINE
8
BLACK
6
CONTINUOUS
10
4.80239
20
-6.14356
11
4.80205
21
-6.14338
0
LINE
8
BLACK
6
CONTINUOUS
10
4.80205
20
-6.14338
11
4.80175
21
-6.14313
0
LINE
8
BLACK
6
CONTINUOUS
10
4.80175
20
-6.14313
11
4.8015
21
-6.14283
0
LINE
8
BLACK
6
CONTINUOUS
10
4.8015
20
-6.14283
11
4.80132
21
-6.14249
0
LINE
8
BLACK
6
CONTINUOUS
10
4.80132
20
-6.14249
11
4.80121
21
-6.14212
0
LINE
8
BLACK
6
CONTINUOUS
10
4.80121
20
-6.14212
11
4.80117
21
-6.14173
0
LINE
8
BLACK
6
CONTINUOUS
10
4.80117
20
-6.14173
11
4.80118
21
-6.14164
0
LINE
8
BLACK
6
CONTINUOUS
10
4.80118
20
-6.14164
11
4.80118
21
-6.0629
0
LINE
8
BLACK
6
CONTINUOUS
10
4.80118
20
-6.0629
11
4.80118
21
-6.0629
0
LINE
8
BLACK
6
CONTINUOUS
10
4.80118
20
-6.0629
11
4.80118
21
-6.02353
0
LINE
8
BLACK
6
CONTINUOUS
10
4.80118
20
-6.02353
11
4.80118
21
-6.02353
0
LINE
8
BLACK
6
CONTINUOUS
10
4.80118
20
-6.02353
11
4.80118
21
-5.70857
0
LINE
8
BLACK
6
CONTINUOUS
10
4.80118
20
-5.70857
11
4.80118
21
-5.70856
0
LINE
8
BLACK
6
CONTINUOUS
10
4.80118
20
-5.70856
11
4.80118
21
-5.6692
0
LINE
8
BLACK
6
CONTINUOUS
10
4.80118
20
-5.6692
11
4.80118
21
-5.66919
0
LINE
8
BLACK
6
CONTINUOUS
10
4.80118
20
-5.66919
11
4.80118
21
-3.9371
0
LINE
8
BLACK
6
CONTINUOUS
10
4.80118
20
-3.9371
11
4.80117
21
-3.93701
0
LINE
8
BLACK
6
CONTINUOUS
10
4.80117
20
-3.93701
11
4.80121
21
-3.93662
0
LINE
8
BLACK
6
CONTINUOUS
10
4.80121
20
-3.93662
11
4.80132
21
-3.93625
0
LINE
8
BLACK
6
CONTINUOUS
10
4.80132
20
-3.93625
11
4.8015
21
-3.93591
0
LINE
8
BLACK
6
CONTINUOUS
10
4.8015
20
-3.93591
11
4.80175
21
-3.93561
0
LINE
8
BLACK
6
CONTINUOUS
10
4.80175
20
-3.93561
11
4.80205
21
-3.93536
0
LINE
8
BLACK
6
CONTINUOUS
10
4.80205
20
-3.93536
11
4.80239
21
-3.93518
0
LINE
8
BLACK
6
CONTINUOUS
10
4.80239
20
-3.93518
11
4.80276
21
-3.93507
0
LINE
8
BLACK
6
CONTINUOUS
10
4.80276
20
-3.93507
11
4.80305
21
-3.93504
0
LINE
8
BLACK
6
CONTINUOUS
10
4.80305
20
-3.93504
11
4.80315
21
-3.93503
0
LINE
8
BLACK
6
CONTINUOUS
10
4.80315
20
-3.93503
11
4.80325
21
-3.93504
0
LINE
8
BLACK
6
CONTINUOUS
10
4.80325
20
-3.93504
11
7.87392
21
-3.93504
0
LINE
8
BLACK
6
CONTINUOUS
10
7.87392
20
-3.93504
11
7.87402
21
-3.93503
0
LINE
8
BLACK
6
CONTINUOUS
10
7.87402
20
-3.93503
11
7.87411
21
-3.93504
0
LINE
8
BLACK
6
CONTINUOUS
10
7.87411
20
-3.93504
11
7.8744
21
-3.93507
0
LINE
8
BLACK
6
CONTINUOUS
10
7.8744
20
-3.93507
11
7.87477
21
-3.93518
0
LINE
8
BLACK
6
CONTINUOUS
10
7.87477
20
-3.93518
11
7.87511
21
-3.93536
0
LINE
8
BLACK
6
CONTINUOUS
10
7.87511
20
-3.93536
11
7.87541
21
-3.93561
0
LINE
8
BLACK
6
CONTINUOUS
10
7.87541
20
-3.93561
11
7.87566
21
-3.93591
0
LINE
8
BLACK
6
CONTINUOUS
10
7.87566
20
-3.93591
11
7.87584
21
-3.93625
0
LINE
8
BLACK
6
CONTINUOUS
10
7.87584
20
-3.93625
11
7.87596
21
-3.93662
0
LINE
8
BLACK
6
CONTINUOUS
10
7.87596
20
-3.93662
11
7.87599
21
-3.93701
0
LINE
8
BLACK
6
CONTINUOUS
10
7.87599
20
-3.93701
11
7.87598
21
-3.9371
0
LINE
8
BLACK
6
CONTINUOUS
10
7.87598
20
-3.9371
11
7.87598
21
-5.55108
0
LINE
8
BLACK
6
CONTINUOUS
10
7.87598
20
-5.55108
11
7.87599
21
-5.55118
0
LINE
8
BLACK
6
CONTINUOUS
10
4.80512
20
-6.13976
11
7.75394
21
-6.13976
0
LINE
8
BLACK
6
CONTINUOUS
10
7.75394
20
-6.13976
11
7.75394
21
-6.0629
0
LINE
8
BLACK
6
CONTINUOUS
10
7.75394
20
-6.0629
11
7.75394
21
-6.0629
0
LINE
8
BLACK
6
CONTINUOUS
10
7.75394
20
-6.0629
11
7.75394
21
-5.74794
0
LINE
8
BLACK
6
CONTINUOUS
10
7.75394
20
-5.74794
11
7.75394
21
-5.74793
0
LINE
8
BLACK
6
CONTINUOUS
10
7.75394
20
-5.74793
11
7.75394
21
-5.55128
0
LINE
8
BLACK
6
CONTINUOUS
10
7.75394
20
-5.55128
11
7.75393
21
-5.55118
0
LINE
8
BLACK
6
CONTINUOUS
10
7.75393
20
-5.55118
11
7.75397
21
-5.5508
0
LINE
8
BLACK
6
CONTINUOUS
10
7.75397
20
-5.5508
11
7.75408
21
-5.55042
0
LINE
8
BLACK
6
CONTINUOUS
10
7.75408
20
-5.55042
11
7.75426
21
-5.55008
0
LINE
8
BLACK
6
CONTINUOUS
10
7.75426
20
-5.55008
11
7.75451
21
-5.54978
0
LINE
8
BLACK
6
CONTINUOUS
10
7.75451
20
-5.54978
11
7.75481
21
-5.54954
0
LINE
8
BLACK
6
CONTINUOUS
10
7.75481
20
-5.54954
11
7.75515
21
-5.54935
0
LINE
8
BLACK
6
CONTINUOUS
10
7.75515
20
-5.54935
11
7.75552
21
-5.54924
0
LINE
8
BLACK
6
CONTINUOUS
10
7.75552
20
-5.54924
11
7.75581
21
-5.54921
0
LINE
8
BLACK
6
CONTINUOUS
10
7.75581
20
-5.54921
11
7.75591
21
-5.5492
0
LINE
8
BLACK
6
CONTINUOUS
10
7.75591
20
-5.5492
11
7.756
21
-5.54921
0
LINE
8
BLACK
6
CONTINUOUS
10
7.756
20
-5.54921
11
7.87205
21
-5.54921
0
LINE
8
BLACK
6
CONTINUOUS
10
7.87205
20
-5.54921
11
7.87205
21
-4.96053
0
LINE
8
BLACK
6
CONTINUOUS
10
7.87205
20
-4.96053
11
7.87205
21
-4.96053
0
LINE
8
BLACK
6
CONTINUOUS
10
7.87205
20
-4.96053
11
7.87205
21
-4.37018
0
LINE
8
BLACK
6
CONTINUOUS
10
7.87205
20
-4.37018
11
7.87205
21
-4.37018
0
LINE
8
BLACK
6
CONTINUOUS
10
7.87205
20
-4.37018
11
7.87205
21
-3.93898
0
LINE
8
BLACK
6
CONTINUOUS
10
7.87205
20
-3.93898
11
4.80512
21
-3.93898
0
LINE
8
BLACK
6
CONTINUOUS
10
4.80512
20
-3.93898
11
4.80512
21
-6.13976
0
LINE
8
BLACK
6
CONTINUOUS
10
7.67726
20
-4.36811
11
7.67755
21
-4.36814
0
LINE
8
BLACK
6
CONTINUOUS
10
7.67755
20
-4.36814
11
7.67792
21
-4.36825
0
LINE
8
BLACK
6
CONTINUOUS
10
7.67792
20
-4.36825
11
7.67826
21
-4.36843
0
LINE
8
BLACK
6
CONTINUOUS
10
7.67826
20
-4.36843
11
7.67856
21
-4.36868
0
LINE
8
BLACK
6
CONTINUOUS
10
7.67856
20
-4.36868
11
7.67881
21
-4.36898
0
LINE
8
BLACK
6
CONTINUOUS
10
7.67881
20
-4.36898
11
7.67899
21
-4.36932
0
LINE
8
BLACK
6
CONTINUOUS
10
7.67899
20
-4.36932
11
7.67911
21
-4.36969
0
LINE
8
BLACK
6
CONTINUOUS
10
7.67911
20
-4.36969
11
7.67914
21
-4.37008
0
LINE
8
BLACK
6
CONTINUOUS
10
7.67914
20
-4.37008
11
7.67913
21
-4.37018
0
LINE
8
BLACK
6
CONTINUOUS
10
7.67913
20
-4.37018
11
7.67913
21
-4.96053
0
LINE
8
BLACK
6
CONTINUOUS
10
7.67913
20
-4.96053
11
7.67914
21
-4.96063
0
LINE
8
BLACK
6
CONTINUOUS
10
7.67914
20
-4.96063
11
7.67911
21
-4.96102
0
LINE
8
BLACK
6
CONTINUOUS
10
7.67911
20
-4.96102
11
7.67899
21
-4.96139
0
LINE
8
BLACK
6
CONTINUOUS
10
7.67899
20
-4.96139
11
7.67881
21
-4.96173
0
LINE
8
BLACK
6
CONTINUOUS
10
7.67881
20
-4.96173
11
7.67856
21
-4.96203
0
LINE
8
BLACK
6
CONTINUOUS
10
7.67856
20
-4.96203
11
7.67826
21
-4.96227
0
LINE
8
BLACK
6
CONTINUOUS
10
7.67826
20
-4.96227
11
7.67792
21
-4.96246
0
LINE
8
BLACK
6
CONTINUOUS
10
7.67792
20
-4.96246
11
7.67755
21
-4.96257
0
LINE
8
BLACK
6
CONTINUOUS
10
7.67755
20
-4.96257
11
7.67726
21
-4.9626
0
LINE
8
BLACK
6
CONTINUOUS
10
7.67726
20
-4.9626
11
7.67717
21
-4.96261
0
LINE
8
BLACK
6
CONTINUOUS
10
7.67717
20
-4.96261
11
7.67707
21
-4.9626
0
LINE
8
BLACK
6
CONTINUOUS
10
7.67707
20
-4.9626
11
7.59852
21
-4.9626
0
LINE
8
BLACK
6
CONTINUOUS
10
7.59852
20
-4.9626
11
7.59843
21
-4.96261
0
LINE
8
BLACK
6
CONTINUOUS
10
7.59843
20
-4.96261
11
7.59833
21
-4.9626
0
LINE
8
BLACK
6
CONTINUOUS
10
7.59833
20
-4.9626
11
7.59804
21
-4.96257
0
LINE
8
BLACK
6
CONTINUOUS
10
7.59804
20
-4.96257
11
7.59767
21
-4.96246
0
LINE
8
BLACK
6
CONTINUOUS
10
7.59767
20
-4.96246
11
7.59733
21
-4.96227
0
LINE
8
BLACK
6
CONTINUOUS
10
7.59733
20
-4.96227
11
7.59703
21
-4.96203
0
LINE
8
BLACK
6
CONTINUOUS
10
7.59703
20
-4.96203
11
7.59678
21
-4.96173
0
LINE
8
BLACK
6
CONTINUOUS
10
7.59678
20
-4.96173
11
7.5966
21
-4.96139
0
LINE
8
BLACK
6
CONTINUOUS
10
7.5966
20
-4.96139
11
7.59649
21
-4.96102
0
LINE
8
BLACK
6
CONTINUOUS
10
7.59649
20
-4.96102
11
7.59645
21
-4.96063
0
LINE
8
BLACK
6
CONTINUOUS
10
7.59645
20
-4.96063
11
7.59646
21
-4.96053
0
LINE
8
BLACK
6
CONTINUOUS
10
7.59646
20
-4.96053
11
7.59646
21
-4.37018
0
LINE
8
BLACK
6
CONTINUOUS
10
7.59646
20
-4.37018
11
7.59645
21
-4.37008
0
LINE
8
BLACK
6
CONTINUOUS
10
7.59645
20
-4.37008
11
7.59649
21
-4.36969
0
LINE
8
BLACK
6
CONTINUOUS
10
7.59649
20
-4.36969
11
7.5966
21
-4.36932
0
LINE
8
BLACK
6
CONTINUOUS
10
7.5966
20
-4.36932
11
7.59678
21
-4.36898
0
LINE
8
BLACK
6
CONTINUOUS
10
7.59678
20
-4.36898
11
7.59703
21
-4.36868
0
LINE
8
BLACK
6
CONTINUOUS
10
7.59703
20
-4.36868
11
7.59733
21
-4.36843
0
LINE
8
BLACK
6
CONTINUOUS
10
7.59733
20
-4.36843
11
7.59767
21
-4.36825
0
LINE
8
BLACK
6
CONTINUOUS
10
7.59767
20
-4.36825
11
7.59804
21
-4.36814
0
LINE
8
BLACK
6
CONTINUOUS
10
7.59804
20
-4.36814
11
7.59833
21
-4.36811
0
LINE
8
BLACK
6
CONTINUOUS
10
7.59833
20
-4.36811
11
7.59843
21
-4.3681
0
LINE
8
BLACK
6
CONTINUOUS
10
7.59843
20
-4.3681
11
7.59852
21
-4.36811
0
LINE
8
BLACK
6
CONTINUOUS
10
7.59852
20
-4.36811
11
7.67707
21
-4.36811
0
LINE
8
BLACK
6
CONTINUOUS
10
7.67707
20
-4.36811
11
7.67717
21
-4.3681
0
LINE
8
BLACK
6
CONTINUOUS
10
7.67717
20
-4.3681
11
7.67726
21
-4.36811
0
LINE
8
BLACK
6
CONTINUOUS
10
7.60039
20
-4.37205
11
7.60039
21
-4.95866
0
LINE
8
BLACK
6
CONTINUOUS
10
7.60039
20
-4.95866
11
7.6752
21
-4.95866
0
LINE
8
BLACK
6
CONTINUOUS
10
7.6752
20
-4.95866
11
7.6752
21
-4.37205
0
LINE
8
BLACK
6
CONTINUOUS
10
7.6752
20
-4.37205
11
7.60039
21
-4.37205
  0
ENDSEC
  0
EOF
