<?xml version="1.0" standalone="no"?>
 <!DOCTYPE svg PUBLIC "-//W3C//DTD SVG 1.1//EN" 
 "http://www.w3.org/Graphics/SVG/1.1/DTD/svg11.dtd"> 
<svg xmlns="http://www.w3.org/2000/svg" version="1.1" 
    width="29.7002cm" height="21.0007cm" viewBox="0 0 116930 82680 ">
<title>SVG Picture created as alakol-B_SilkS.svg date 2020/04/18 11:31:09 </title>
  <desc>Picture generated by PCBNEW </desc>
<g style="fill:#000000; fill-opacity:1;stroke:#000000; stroke-opacity:1;
stroke-linecap:round; stroke-linejoin:round; "
 transform="translate(0 0) scale(1 1)">
</g>
<g style="fill:#000000; fill-opacity:0.0; 
stroke:#000000; stroke-width:-0.000393701; stroke-opacity:1; 
stroke-linecap:round; stroke-linejoin:round;">
</g>
<g style="fill:#000000; fill-opacity:1.0; 
stroke:#000000; stroke-width:98.4252; stroke-opacity:1; 
stroke-linecap:round; stroke-linejoin:round;">
<rect x="31673.6" y="36887.6" width="39213.1" height="27718.2" rx="0" />
</g>
<g style="fill:#FFFFFF; fill-opacity:1.0; 
stroke:#FFFFFF; stroke-width:98.4252; stroke-opacity:1; 
stroke-linecap:round; stroke-linejoin:round;">
</g>
<g style="fill:#FFFFFF; fill-opacity:0.0; 
stroke:#FFFFFF; stroke-width:98.4252; stroke-opacity:1; 
stroke-linecap:round; stroke-linejoin:round;">
</g>
<g style="fill:#FFFFFF; fill-opacity:0.0; 
stroke:#FFFFFF; stroke-width:78.7402; stroke-opacity:1; 
stroke-linecap:round; stroke-linejoin:round;">
<text x="46556" y="40649.6"
textLength="-3328.05" font-size="-1049.87" lengthAdjust="spacingAndGlyphs"
text-anchor="end" opacity="0">Alakol</text>
<path d="M42965 40387
L43340 40387
" />
<path d="M42861 40612
L43222 39824
L43386 40612
" />
<path d="M43761 40612
L43691 40574
L43663 40499
L43747 39824
" />
<path d="M44399 40612
L44450 40199
L44422 40124
L44352 40087
L44202 40087
L44122 40124
" />
<path d="M44403 40574
L44324 40612
L44136 40612
L44066 40574
L44038 40499
L44047 40424
L44094 40349
L44174 40312
L44361 40312
L44441 40274
" />
<path d="M44774 40612
L44872 39824
" />
<path d="M44886 40312
L45074 40612
" />
<path d="M45139 40087
L44802 40387
" />
<path d="M45524 40612
L45453 40574
L45421 40537
L45392 40462
L45421 40237
L45467 40162
L45510 40124
L45589 40087
L45702 40087
L45772 40124
L45805 40162
L45833 40237
L45805 40462
L45758 40537
L45716 40574
L45636 40612
L45524 40612
" />
<path d="M46236 40612
L46166 40574
L46138 40499
L46222 39824
" />
<text x="52067.8" y="41535.4"
textLength="-9121.48" font-size="-524.934" lengthAdjust="spacingAndGlyphs"
text-anchor="end" opacity="0">Richard Meadows M0SBU 2020</text>
<path d="M43111 41516
L42980 41329
" />
<path d="M42886 41516
L42886 41122
L43036 41122
L43073 41141
L43092 41160
L43111 41197
L43111 41254
L43092 41291
L43073 41310
L43036 41329
L42886 41329
" />
<path d="M43280 41516
L43280 41254
" />
<path d="M43280 41122
L43261 41141
L43280 41160
L43298 41141
L43280 41122
L43280 41160
" />
<path d="M43636 41497
L43598 41516
L43523 41516
L43486 41497
L43467 41479
L43448 41441
L43448 41329
L43467 41291
L43486 41272
L43523 41254
L43598 41254
L43636 41272
" />
<path d="M43805 41516
L43805 41122
" />
<path d="M43973 41516
L43973 41310
L43955 41272
L43917 41254
L43861 41254
L43823 41272
L43805 41291
" />
<path d="M44330 41516
L44330 41310
L44311 41272
L44273 41254
L44198 41254
L44161 41272
" />
<path d="M44330 41497
L44292 41516
L44198 41516
L44161 41497
L44142 41460
L44142 41422
L44161 41385
L44198 41366
L44292 41366
L44330 41347
" />
<path d="M44517 41516
L44517 41254
" />
<path d="M44517 41329
L44536 41291
L44555 41272
L44592 41254
L44630 41254
" />
<path d="M44930 41516
L44930 41122
" />
<path d="M44930 41497
L44892 41516
L44817 41516
L44780 41497
L44761 41479
L44742 41441
L44742 41329
L44761 41291
L44780 41272
L44817 41254
L44892 41254
L44930 41272
" />
<path d="M45417 41516
L45417 41122
L45548 41404
L45679 41122
L45679 41516
" />
<path d="M46017 41497
L45979 41516
L45904 41516
L45867 41497
L45848 41460
L45848 41310
L45867 41272
L45904 41254
L45979 41254
L46017 41272
L46036 41310
L46036 41347
L45848 41385
" />
<path d="M46373 41516
L46373 41310
L46354 41272
L46317 41254
L46242 41254
L46204 41272
" />
<path d="M46373 41497
L46336 41516
L46242 41516
L46204 41497
L46186 41460
L46186 41422
L46204 41385
L46242 41366
L46336 41366
L46373 41347
" />
<path d="M46729 41516
L46729 41122
" />
<path d="M46729 41497
L46692 41516
L46617 41516
L46579 41497
L46561 41479
L46542 41441
L46542 41329
L46561 41291
L46579 41272
L46617 41254
L46692 41254
L46729 41272
" />
<path d="M46973 41516
L46935 41497
L46917 41479
L46898 41441
L46898 41329
L46917 41291
L46935 41272
L46973 41254
L47029 41254
L47067 41272
L47085 41291
L47104 41329
L47104 41441
L47085 41479
L47067 41497
L47029 41516
L46973 41516
" />
<path d="M47235 41254
L47310 41516
L47385 41329
L47460 41516
L47535 41254
" />
<path d="M47667 41497
L47704 41516
L47779 41516
L47817 41497
L47835 41460
L47835 41441
L47817 41404
L47779 41385
L47723 41385
L47685 41366
L47667 41329
L47667 41310
L47685 41272
L47723 41254
L47779 41254
L47817 41272
" />
<path d="M48304 41516
L48304 41122
L48435 41404
L48567 41122
L48567 41516
" />
<path d="M48829 41122
L48867 41122
L48904 41141
L48923 41160
L48941 41197
L48960 41272
L48960 41366
L48941 41441
L48923 41479
L48904 41497
L48867 41516
L48829 41516
L48792 41497
L48773 41479
L48754 41441
L48735 41366
L48735 41272
L48754 41197
L48773 41160
L48792 41141
L48829 41122
" />
<path d="M49110 41497
L49166 41516
L49260 41516
L49298 41497
L49316 41479
L49335 41441
L49335 41404
L49316 41366
L49298 41347
L49260 41329
L49185 41310
L49148 41291
L49129 41272
L49110 41235
L49110 41197
L49129 41160
L49148 41141
L49185 41122
L49279 41122
L49335 41141
" />
<path d="M49635 41310
L49691 41329
L49710 41347
L49729 41385
L49729 41441
L49710 41479
L49691 41497
L49654 41516
L49504 41516
L49504 41122
L49635 41122
L49673 41141
L49691 41160
L49710 41197
L49710 41235
L49691 41272
L49673 41291
L49635 41310
L49504 41310
" />
<path d="M49898 41122
L49898 41441
L49916 41479
L49935 41497
L49973 41516
L50048 41516
L50085 41497
L50104 41479
L50123 41441
L50123 41122
" />
<path d="M50591 41160
L50610 41141
L50648 41122
L50741 41122
L50779 41141
L50798 41160
L50816 41197
L50816 41235
L50798 41291
L50573 41516
L50816 41516
" />
<path d="M51060 41122
L51097 41122
L51135 41141
L51154 41160
L51172 41197
L51191 41272
L51191 41366
L51172 41441
L51154 41479
L51135 41497
L51097 41516
L51060 41516
L51022 41497
L51004 41479
L50985 41441
L50966 41366
L50966 41272
L50985 41197
L51004 41160
L51022 41141
L51060 41122
" />
<path d="M51341 41160
L51360 41141
L51397 41122
L51491 41122
L51529 41141
L51547 41160
L51566 41197
L51566 41235
L51547 41291
L51322 41516
L51566 41516
" />
<path d="M51810 41122
L51847 41122
L51885 41141
L51904 41160
L51922 41197
L51941 41272
L51941 41366
L51922 41441
L51904 41479
L51885 41497
L51847 41516
L51810 41516
L51772 41497
L51754 41479
L51735 41441
L51716 41366
L51716 41272
L51735 41197
L51754 41160
L51772 41141
L51810 41122
" />
</g>
<g style="fill:#FFFFFF; fill-opacity:0.0; 
stroke:#FFFFFF; stroke-width:59.0551; stroke-opacity:1; 
stroke-linecap:round; stroke-linejoin:round;">
<text x="41339.4" y="60787.4"
textLength="-2357.33" font-size="-419.947" lengthAdjust="spacingAndGlyphs"
text-anchor="middle" opacity="0">-       +</text>
<path d="M40184 60652
L40424 60652
" />
<path d="M42254 60652
L42494 60652
" />
<path d="M42374 60772
L42374 60532
" />
<path d="M41733 60649
L41930 60649
" />
<path d="M40945 60649
L40748 60649
" />
<path d="M41044 60649
L40945 60649
" />
<path d="M41339 60649
L41733 60649
" />
<path d="M41536.3 60452.8 A278.388 278.388 0.0 1 0 41536.3 60846.5 " />
</g>
<g style="fill:#FFFFFF; fill-opacity:0.0; 
stroke:#FFFFFF; stroke-width:118.11; stroke-opacity:1; 
stroke-linecap:round; stroke-linejoin:round;">
<circle cx="41339.4" cy="60649.6" r="59.0551" /> 
</g>
<g style="fill:#FFFFFF; fill-opacity:0.0; 
stroke:#FFFFFF; stroke-width:59.0551; stroke-opacity:1; 
stroke-linecap:round; stroke-linejoin:round;">
<path d="M41339 59940
L42028 59940
" />
<path d="M41339 60137
L41437 60137
" />
<path d="M41733 60137
L41634 60137
" />
<path d="M42028 60137
L41930 60137
" />
<text x="40748.9" y="60196.9"
textLength="-553.15" font-size="-419.947" lengthAdjust="spacingAndGlyphs"
text-anchor="middle" opacity="0">DC</text>
<path d="M40508 60181
L40508 59866
L40583 59866
L40628 59881
L40658 59911
L40673 59941
L40688 60001
L40688 60046
L40673 60106
L40658 60136
L40628 60166
L40583 60181
L40508 60181
" />
<path d="M41003 60151
L40988 60166
L40943 60181
L40913 60181
L40868 60166
L40838 60136
L40823 60106
L40808 60046
L40808 60001
L40823 59941
L40838 59911
L40868 59881
L40913 59866
L40943 59866
L40988 59881
L41003 59896
" />
<text x="41241" y="59606.3"
textLength="-2682.88" font-size="-419.947" lengthAdjust="spacingAndGlyphs"
text-anchor="middle" opacity="0">4.6V - 18V</text>
<path d="M40071 59381
L40071 59591
" />
<path d="M39996 59261
L39921 59486
L40116 59486
" />
<path d="M40236 59561
L40251 59576
L40236 59591
L40221 59576
L40236 59561
L40236 59591
" />
<path d="M40521 59276
L40461 59276
L40431 59291
L40416 59306
L40386 59351
L40371 59411
L40371 59531
L40386 59561
L40401 59576
L40431 59591
L40491 59591
L40521 59576
L40536 59561
L40551 59531
L40551 59456
L40536 59426
L40521 59411
L40491 59396
L40431 59396
L40401 59411
L40386 59426
L40371 59456
" />
<path d="M40641 59276
L40746 59591
L40851 59276
" />
<path d="M41196 59471
L41435 59471
" />
<path d="M41990 59591
L41810 59591
" />
<path d="M41900 59591
L41900 59276
L41870 59321
L41840 59351
L41810 59366
" />
<path d="M42170 59411
L42140 59396
L42125 59381
L42110 59351
L42110 59336
L42125 59306
L42140 59291
L42170 59276
L42230 59276
L42260 59291
L42275 59306
L42290 59336
L42290 59351
L42275 59381
L42260 59396
L42230 59411
L42170 59411
L42140 59426
L42125 59441
L42110 59471
L42110 59531
L42125 59561
L42140 59576
L42170 59591
L42230 59591
L42260 59576
L42275 59561
L42290 59531
L42290 59471
L42275 59441
L42260 59426
L42230 59411
" />
<path d="M42380 59276
L42485 59591
L42590 59276
" />
<text x="47835.5" y="60196.9"
textLength="-3942.73" font-size="-419.947" lengthAdjust="spacingAndGlyphs"
text-anchor="middle" opacity="0">10/100 Ethernet</text>
<path d="M46065 60181
L45885 60181
" />
<path d="M45975 60181
L45975 59866
L45945 59911
L45915 59941
L45885 59956
" />
<path d="M46260 59866
L46290 59866
L46320 59881
L46335 59896
L46350 59926
L46365 59986
L46365 60061
L46350 60121
L46335 60151
L46320 60166
L46290 60181
L46260 60181
L46230 60166
L46215 60151
L46200 60121
L46185 60061
L46185 59986
L46200 59926
L46215 59896
L46230 59881
L46260 59866
" />
<path d="M46725 59851
L46455 60256
" />
<path d="M46995 60181
L46815 60181
" />
<path d="M46905 60181
L46905 59866
L46875 59911
L46845 59941
L46815 59956
" />
<path d="M47190 59866
L47220 59866
L47250 59881
L47265 59896
L47280 59926
L47295 59986
L47295 60061
L47280 60121
L47265 60151
L47250 60166
L47220 60181
L47190 60181
L47160 60166
L47145 60151
L47130 60121
L47115 60061
L47115 59986
L47130 59926
L47145 59896
L47160 59881
L47190 59866
" />
<path d="M47490 59866
L47520 59866
L47550 59881
L47565 59896
L47580 59926
L47595 59986
L47595 60061
L47580 60121
L47565 60151
L47550 60166
L47520 60181
L47490 60181
L47460 60166
L47445 60151
L47430 60121
L47415 60061
L47415 59986
L47430 59926
L47445 59896
L47460 59881
L47490 59866
" />
<path d="M47970 60016
L48075 60016
" />
<path d="M48120 60181
L47970 60181
L47970 59866
L48120 59866
" />
<path d="M48210 59971
L48330 59971
" />
<path d="M48255 59866
L48255 60136
L48270 60166
L48300 60181
L48330 60181
" />
<path d="M48435 60181
L48435 59866
" />
<path d="M48570 60181
L48570 60016
L48555 59986
L48525 59971
L48480 59971
L48450 59986
L48435 60001
" />
<path d="M48840 60166
L48810 60181
L48750 60181
L48720 60166
L48705 60136
L48705 60016
L48720 59986
L48750 59971
L48810 59971
L48840 59986
L48855 60016
L48855 60046
L48705 60076
" />
<path d="M48990 60181
L48990 59971
" />
<path d="M48990 60031
L49005 60001
L49020 59986
L49050 59971
L49080 59971
" />
<path d="M49185 59971
L49185 60181
" />
<path d="M49185 60001
L49200 59986
L49230 59971
L49275 59971
L49305 59986
L49320 60016
L49320 60181
" />
<path d="M49590 60166
L49560 60181
L49500 60181
L49470 60166
L49455 60136
L49455 60016
L49470 59986
L49500 59971
L49560 59971
L49590 59986
L49605 60016
L49605 60046
L49455 60076
" />
<path d="M49695 59971
L49815 59971
" />
<path d="M49740 59866
L49740 60136
L49755 60166
L49785 60181
L49815 60181
" />
</g>
<g style="fill:#FFFFFF; fill-opacity:1.0; 
stroke:#FFFFFF; stroke-width:59.0551; stroke-opacity:1; 
stroke-linecap:round; stroke-linejoin:round;">
<path style="fill:#FFFFFF; fill-opacity:1.0; 
stroke:#FFFFFF; stroke-width:59.0551; stroke-opacity:1; 
stroke-linecap:round; stroke-linejoin:round;fill-rule:evenodd;"
d="M 59252.8,58464.6
68504.8,58464.6
68504.8,55708.7
59252.8,55708.7
Z" /> 
</g>
<g style="fill:#FFFFFF; fill-opacity:0.0; 
stroke:#FFFFFF; stroke-width:59.0551; stroke-opacity:1; 
stroke-linecap:round; stroke-linejoin:round;">
<text x="59252.8" y="55472.4"
textLength="-3462.79" font-size="-419.947" lengthAdjust="spacingAndGlyphs"
text-anchor="start" opacity="0">Serial Number:</text>
<path d="M59351 55442
L59396 55457
L59471 55457
L59501 55442
L59516 55427
L59531 55397
L59531 55367
L59516 55337
L59501 55322
L59471 55307
L59411 55292
L59381 55277
L59366 55262
L59351 55232
L59351 55202
L59366 55172
L59381 55157
L59411 55142
L59486 55142
L59531 55157
" />
<path d="M59786 55442
L59756 55457
L59696 55457
L59666 55442
L59651 55412
L59651 55292
L59666 55262
L59696 55247
L59756 55247
L59786 55262
L59801 55292
L59801 55322
L59651 55352
" />
<path d="M59936 55457
L59936 55247
" />
<path d="M59936 55307
L59951 55277
L59966 55262
L59996 55247
L60026 55247
" />
<path d="M60131 55457
L60131 55247
" />
<path d="M60131 55142
L60116 55157
L60131 55172
L60146 55157
L60131 55142
L60131 55172
" />
<path d="M60416 55457
L60416 55292
L60401 55262
L60371 55247
L60311 55247
L60281 55262
" />
<path d="M60416 55442
L60386 55457
L60311 55457
L60281 55442
L60266 55412
L60266 55382
L60281 55352
L60311 55337
L60386 55337
L60416 55322
" />
<path d="M60611 55457
L60581 55442
L60566 55412
L60566 55142
" />
<path d="M60971 55457
L60971 55142
L61150 55457
L61150 55142
" />
<path d="M61435 55247
L61435 55457
" />
<path d="M61300 55247
L61300 55412
L61315 55442
L61345 55457
L61390 55457
L61420 55442
L61435 55427
" />
<path d="M61585 55457
L61585 55247
" />
<path d="M61585 55277
L61600 55262
L61630 55247
L61675 55247
L61705 55262
L61720 55292
L61720 55457
" />
<path d="M61720 55292
L61735 55262
L61765 55247
L61810 55247
L61840 55262
L61855 55292
L61855 55457
" />
<path d="M62005 55457
L62005 55142
" />
<path d="M62005 55262
L62035 55247
L62095 55247
L62125 55262
L62140 55277
L62155 55307
L62155 55397
L62140 55427
L62125 55442
L62095 55457
L62035 55457
L62005 55442
" />
<path d="M62410 55442
L62380 55457
L62320 55457
L62290 55442
L62275 55412
L62275 55292
L62290 55262
L62320 55247
L62380 55247
L62410 55262
L62425 55292
L62425 55322
L62275 55352
" />
<path d="M62560 55457
L62560 55247
" />
<path d="M62560 55307
L62575 55277
L62590 55262
L62620 55247
L62650 55247
" />
<path d="M62755 55427
L62770 55442
L62755 55457
L62740 55442
L62755 55427
L62755 55457
" />
<path d="M62755 55262
L62770 55277
L62755 55292
L62740 55277
L62755 55262
L62755 55292
" />
</g>
<g style="fill:#FFFFFF; fill-opacity:0.0; 
stroke:#FFFFFF; stroke-width:39.3701; stroke-opacity:1; 
stroke-linecap:round; stroke-linejoin:round;">
<path d="M68898 60629
L68898 61417
" />
<path d="M39370 60629
L39370 61417
" />
<path d="M68898 57086
L68898 60236
" />
<path d="M39370 57480
L39370 60629
" />
<path d="M68898 61417
L39370 61417
" />
<path d="M68898 60236
L68898 60629
" />
<path d="M68898 56692
L68898 57086
" />
<path d="M68898 39370
L68898 56692
" />
<path d="M68898 39370
L46063 39370
" />
<path d="M40158 49606
L40158 43700
" />
<path d="M39370 55511
L39370 57480
" />
<path d="M38189 55511
L39370 55511
" />
<path d="M38189 49606
L38189 55511
" />
<path d="M38189 39370
L46063 39370
" />
<path d="M38189 43700
L38189 39370
" />
<path d="M38189 49606
L38189 43700
" />
<path d="M40158 43700
L40945 43700
" />
<path d="M40945 49606
L40158 49606
" />
<path d="M40945 43700
L40945 49606
" />
<g >
</g>
<g >
</g>
<g >
</g>
<g >
</g>
<g >
</g>
<g >
</g>
<g >
</g>
<g >
</g>
<g >
</g>
<g >
</g>
<g >
</g>
<g >
</g>
<g >
</g>
<g >
</g>
<g >
</g>
<g >
</g>
<g >
</g>
<g >
</g>
<g >
</g>
<g >
</g>
<g >
</g>
<g >
</g>
<g >
</g>
<g >
</g>
<g >
</g>
<g >
</g>
<g >
</g>
<g >
</g>
<g >
</g>
<g >
</g>
<g >
</g>
<g >
</g>
<g >
</g>
<g >
</g>
<g >
</g>
<g >
</g>
<g >
</g>
<g >
</g>
<g >
</g>
<g >
</g>
<g >
</g>
<g >
</g>
<g >
</g>
<g >
</g>
<g >
</g>
<g >
</g>
<g >
</g>
<g >
</g>
<g >
</g>
<g >
</g>
<g >
</g>
<g >
</g>
<g >
</g>
<g >
</g>
<g >
</g>
<g >
</g>
<g >
</g>
<g >
</g>
<g >
</g>
<g >
</g>
<g >
</g>
<g >
</g>
<g >
</g>
<g >
</g>
<g >
</g>
<g >
</g>
<g >
</g>
<g >
</g>
<g >
</g>
<g >
</g>
<g >
</g>
<g >
</g>
<g >
</g>
<g >
</g>
<g >
</g>
<g style="fill:#FFFFFF; fill-opacity:0.0; 
stroke:#FFFFFF; stroke-width:39.3701; stroke-opacity:1; 
stroke-linecap:round; stroke-linejoin:round;">
</g>
<g style="fill:#FFFFFF; fill-opacity:0.0; 
stroke:#FFFFFF; stroke-width:98.4252; stroke-opacity:1; 
stroke-linecap:round; stroke-linejoin:round;">
<circle cx="53937.9" cy="40354.3" r="580.709" /> 
</g>
<g >
</g>
<g style="fill:#FFFFFF; fill-opacity:0.0; 
stroke:#FFFFFF; stroke-width:98.4252; stroke-opacity:1; 
stroke-linecap:round; stroke-linejoin:round;">
<circle cx="53150.5" cy="51378" r="423.228" /> 
</g>
<g >
</g>
<g >
</g>
<g >
</g>
<g >
</g>
<g >
</g>
<g >
</g>
<g >
</g>
<g >
</g>
<g >
</g>
<g >
</g>
<g >
</g>
<g >
</g>
<g >
</g>
<g >
</g>
<g >
</g>
<g >
</g>
<g >
</g>
<g >
</g>
<g >
</g>
<g >
</g>
<g >
</g>
<g >
</g>
<g >
</g>
<g >
</g>
<g >
</g>
<g >
</g>
<g >
</g>
<g >
</g>
<g >
</g>
<g >
</g>
<g >
</g>
<g >
</g>
<g >
</g>
<g >
</g>
<g >
</g>
<g >
</g>
<g >
</g>
<g >
</g>
<g >
</g>
<g >
</g>
<g >
</g>
<g >
</g>
<g >
</g>
</g> 
</svg>
