<?xml version="1.0" standalone="no"?>
 <!DOCTYPE svg PUBLIC "-//W3C//DTD SVG 1.1//EN" 
 "http://www.w3.org/Graphics/SVG/1.1/DTD/svg11.dtd"> 
<svg xmlns="http://www.w3.org/2000/svg" version="1.1" 
    width="29.7002cm" height="21.0007cm" viewBox="0 0 116930 82680 ">
<title>SVG Picture created as alakol-F_Mask.svg date 2020/04/18 10:51:26 </title>
  <desc>Picture generated by PCBNEW </desc>
<g style="fill:#000000; fill-opacity:1;stroke:#000000; stroke-opacity:1;
stroke-linecap:round; stroke-linejoin:round; "
 transform="translate(0 0) scale(1 1)">
</g>
<g style="fill:#000000; fill-opacity:0.0; 
stroke:#000000; stroke-width:-0.000393701; stroke-opacity:1; 
stroke-linecap:round; stroke-linejoin:round;">
</g>
<g style="fill:#000000; fill-opacity:1.0; 
stroke:#000000; stroke-width:98.4252; stroke-opacity:1; 
stroke-linecap:round; stroke-linejoin:round;">
<rect x="31673.6" y="36887.6" width="39213.1" height="27718.2" rx="0" />
</g>
<g style="fill:#FFFFFF; fill-opacity:1.0; 
stroke:#FFFFFF; stroke-width:98.4252; stroke-opacity:1; 
stroke-linecap:round; stroke-linejoin:round;">
</g>
<g style="fill:#FFFFFF; fill-opacity:1.0; 
stroke:#FFFFFF; stroke-width:39.3701; stroke-opacity:1; 
stroke-linecap:round; stroke-linejoin:round;">
</g>
<g style="fill:#FFFFFF; fill-opacity:0.0; 
stroke:#FFFFFF; stroke-width:39.3701; stroke-opacity:1; 
stroke-linecap:round; stroke-linejoin:round;">
<path d="M68898 60629
L68898 61417
" />
<path d="M39370 60629
L39370 61417
" />
<path d="M68898 57086
L68898 60236
" />
<path d="M39370 57480
L39370 60629
" />
<path d="M68898 61417
L39370 61417
" />
<path d="M68898 60236
L68898 60629
" />
<path d="M68898 56692
L68898 57086
" />
<path d="M68898 39370
L68898 56692
" />
<path d="M68898 39370
L46063 39370
" />
<path d="M40158 49606
L40158 43700
" />
<path d="M39370 55511
L39370 57480
" />
<path d="M38189 55511
L39370 55511
" />
<path d="M38189 49606
L38189 55511
" />
<path d="M38189 39370
L46063 39370
" />
<path d="M38189 43700
L38189 39370
" />
<path d="M38189 49606
L38189 43700
" />
<path d="M40158 43700
L40945 43700
" />
<path d="M40945 49606
L40158 49606
" />
<path d="M40945 43700
L40945 49606
" />
</g>
<g style="fill:#FFFFFF; fill-opacity:1.0; 
stroke:#FFFFFF; stroke-width:0; stroke-opacity:1; 
stroke-linecap:round; stroke-linejoin:round;">
<path style="fill:#FFFFFF; fill-opacity:1.0; 
stroke:#FFFFFF; stroke-width:0; stroke-opacity:1; 
stroke-linecap:round; stroke-linejoin:round;fill-rule:evenodd;"
d="M 56615,61102.4
57166.2,61102.4
57166.2,60669.3
56615,60669.3
Z" /> 
<path style="fill:#FFFFFF; fill-opacity:1.0; 
stroke:#FFFFFF; stroke-width:0; stroke-opacity:1; 
stroke-linecap:round; stroke-linejoin:round;fill-rule:evenodd;"
d="M 52658.3,60984.3
53524.5,60984.3
53524.5,60315
52658.3,60315
Z" /> 
<path style="fill:#FFFFFF; fill-opacity:1.0; 
stroke:#FFFFFF; stroke-width:0; stroke-opacity:1; 
stroke-linecap:round; stroke-linejoin:round;fill-rule:evenodd;"
d="M 51930,60679.1
52402.4,60679.1
52402.4,60226.4
51930,60226.4
Z" /> 
<path style="fill:#FFFFFF; fill-opacity:1.0; 
stroke:#FFFFFF; stroke-width:0; stroke-opacity:1; 
stroke-linecap:round; stroke-linejoin:round;fill-rule:evenodd;"
d="M 55138.7,60531.5
56004.8,60531.5
56004.8,58956.7
55138.7,58956.7
Z" /> 
<path style="fill:#FFFFFF; fill-opacity:1.0; 
stroke:#FFFFFF; stroke-width:0; stroke-opacity:1; 
stroke-linecap:round; stroke-linejoin:round;fill-rule:evenodd;"
d="M 52658.3,60078.7
53524.5,60078.7
53524.5,59409.4
52658.3,59409.4
Z" /> 
<path style="fill:#FFFFFF; fill-opacity:1.0; 
stroke:#FFFFFF; stroke-width:0; stroke-opacity:1; 
stroke-linecap:round; stroke-linejoin:round;fill-rule:evenodd;"
d="M 51930,60049.2
52402.4,60049.2
52402.4,59596.5
51930,59596.5
Z" /> 
<path style="fill:#FFFFFF; fill-opacity:1.0; 
stroke:#FFFFFF; stroke-width:0; stroke-opacity:1; 
stroke-linecap:round; stroke-linejoin:round;fill-rule:evenodd;"
d="M 67899.5,58881
67792,58925.5
67792,58925.5
67745.3,58956.7
67695.3,58990.1
67613,59072.4
67548.4,59169.1
67503.9,59276.6
67481.2,59390.7
67481.2,59507
67503.9,59621.1
67548.4,59728.5
67548.4,59728.5
67613,59825.3
67695.3,59907.5
67792,59972.2
67792,59972.2
67792,59972.2
67899.5,60016.7
68013.6,60039.4
68129.9,60039.4
68244,60016.7
68351.5,59972.2
68351.5,59972.2
68351.5,59972.2
68448.2,59907.5
68530.4,59825.3
68595.1,59728.5
68595.1,59728.5
68639.6,59621.1
68662.3,59507
68662.3,59390.7
68639.6,59276.6
68595.1,59169.1
68530.4,59072.4
68448.2,58990.1
68398.2,58956.7
68351.5,58925.5
68351.5,58925.5
68244,58881
68129.9,58858.3
68013.6,58858.3
Z" /> 
<path style="fill:#FFFFFF; fill-opacity:1.0; 
stroke:#FFFFFF; stroke-width:0; stroke-opacity:1; 
stroke-linecap:round; stroke-linejoin:round;fill-rule:evenodd;"
d="M 61679,58881
61571.5,58925.5
61571.5,58925.5
61524.8,58956.7
61474.8,58990.1
61392.5,59072.4
61327.9,59169.1
61283.4,59276.6
61260.7,59390.7
61260.7,59507
61283.4,59621.1
61327.9,59728.5
61327.9,59728.5
61392.5,59825.3
61474.8,59907.5
61571.5,59972.2
61571.5,59972.2
61571.5,59972.2
61679,60016.7
61793.1,60039.4
61909.4,60039.4
62023.5,60016.7
62131,59972.2
62131,59972.2
62131,59972.2
62227.7,59907.5
62310,59825.3
62374.6,59728.5
62374.6,59728.5
62419.1,59621.1
62441.8,59507
62441.8,59390.7
62419.1,59276.6
62374.6,59169.1
62310,59072.4
62227.7,58990.1
62177.7,58956.7
62131,58925.5
62131,58925.5
62023.5,58881
61909.4,58858.3
61793.1,58858.3
Z" /> 
<path style="fill:#FFFFFF; fill-opacity:1.0; 
stroke:#FFFFFF; stroke-width:0; stroke-opacity:1; 
stroke-linecap:round; stroke-linejoin:round;fill-rule:evenodd;"
d="M 56615,59803.1
57166.2,59803.1
57166.2,59370.1
56615,59370.1
Z" /> 
<path style="fill:#FFFFFF; fill-opacity:1.0; 
stroke:#FFFFFF; stroke-width:0; stroke-opacity:1; 
stroke-linecap:round; stroke-linejoin:round;fill-rule:evenodd;"
d="M 52658.3,59173.2
53524.5,59173.2
53524.5,58503.9
52658.3,58503.9
Z" /> 
<path style="fill:#FFFFFF; fill-opacity:1.0; 
stroke:#FFFFFF; stroke-width:0; stroke-opacity:1; 
stroke-linecap:round; stroke-linejoin:round;fill-rule:evenodd;"
d="M 51930,59104.3
52402.4,59104.3
52402.4,58651.6
51930,58651.6
Z" /> 
<path style="fill:#FFFFFF; fill-opacity:1.0; 
stroke:#FFFFFF; stroke-width:0; stroke-opacity:1; 
stroke-linecap:round; stroke-linejoin:round;fill-rule:evenodd;"
d="M 50861.2,57844.5
50768.1,57883.1
50684.3,57939.1
50613,58010.4
50557,58094.2
50518.4,58187.3
50498.7,58286.2
50498.7,58387
50518.4,58485.9
50557,58579
50613,58662.9
50684.3,58734.2
50768.1,58790.2
50861.2,58828.8
50960.1,58848.4
51060.9,58848.4
51159.8,58828.8
51252.9,58790.2
51336.8,58734.2
51408.1,58662.9
51464.1,58579
51502.7,58485.9
51522.3,58387
51522.3,58286.2
51502.7,58187.3
51464.1,58094.2
51408.1,58010.4
51336.8,57939.1
51252.9,57883.1
51159.8,57844.5
51060.9,57824.8
50960.1,57824.8
Z" /> 
<path style="fill:#FFFFFF; fill-opacity:1.0; 
stroke:#FFFFFF; stroke-width:0; stroke-opacity:1; 
stroke-linecap:round; stroke-linejoin:round;fill-rule:evenodd;"
d="M 44511.2,57844.5
44418.1,57883.1
44334.3,57939.1
44263,58010.4
44207,58094.2
44168.4,58187.3
44148.7,58286.2
44148.7,58387
44168.4,58485.9
44207,58579
44263,58662.9
44334.3,58734.2
44418.1,58790.2
44511.2,58828.8
44610.1,58848.4
44710.9,58848.4
44809.8,58828.8
44902.9,58790.2
44986.8,58734.2
45058.1,58662.9
45114.1,58579
45152.7,58485.9
45172.3,58387
45172.3,58286.2
45152.7,58187.3
45114.1,58094.2
45058.1,58010.4
44986.8,57939.1
44902.9,57883.1
44809.8,57844.5
44710.9,57824.8
44610.1,57824.8
Z" /> 
<path style="fill:#FFFFFF; fill-opacity:1.0; 
stroke:#FFFFFF; stroke-width:0; stroke-opacity:1; 
stroke-linecap:round; stroke-linejoin:round;fill-rule:evenodd;"
d="M 41855.9,57720.5
41769.2,57737.7
41668.9,57779.3
41578.6,57839.6
41501.9,57916.4
41486.7,57939.1
41441.5,58006.6
41435.3,58021.7
41400,58106.9
41378.8,58213.4
41378.8,58322
41400,58428.5
41441.5,58528.8
41501.9,58619.1
41578.6,58695.8
41668.9,58756.2
41769.2,58797.7
41822.5,58808.3
41875.7,58818.9
41984.3,58818.9
42037.5,58808.3
42090.8,58797.7
42191.1,58756.2
42281.4,58695.8
42358.1,58619.1
42418.5,58528.8
42460,58428.5
42481.2,58322
42481.2,58213.4
42460,58106.9
42424.7,58021.7
42418.5,58006.6
42373.3,57939.1
42358.1,57916.4
42281.4,57839.6
42191.1,57779.3
42090.8,57737.7
42004.1,57720.5
41984.3,57716.5
41875.7,57716.5
Z" /> 
<path style="fill:#FFFFFF; fill-opacity:1.0; 
stroke:#FFFFFF; stroke-width:0; stroke-opacity:1; 
stroke-linecap:round; stroke-linejoin:round;fill-rule:evenodd;"
d="M 58008.7,58507.9
58331.6,58507.9
58331.6,57830.7
58008.7,57830.7
Z" /> 
<path style="fill:#FFFFFF; fill-opacity:1.0; 
stroke:#FFFFFF; stroke-width:0; stroke-opacity:1; 
stroke-linecap:round; stroke-linejoin:round;fill-rule:evenodd;"
d="M 57516.6,58507.9
57839.4,58507.9
57839.4,57830.7
57516.6,57830.7
Z" /> 
<path style="fill:#FFFFFF; fill-opacity:1.0; 
stroke:#FFFFFF; stroke-width:0; stroke-opacity:1; 
stroke-linecap:round; stroke-linejoin:round;fill-rule:evenodd;"
d="M 51930,58474.4
52402.4,58474.4
52402.4,58021.7
51930,58021.7
Z" /> 
<path style="fill:#FFFFFF; fill-opacity:1.0; 
stroke:#FFFFFF; stroke-width:0; stroke-opacity:1; 
stroke-linecap:round; stroke-linejoin:round;fill-rule:evenodd;"
d="M 59932,58307.1
60384.7,58307.1
60384.7,57834.6
59932,57834.6
Z" /> 
<path style="fill:#FFFFFF; fill-opacity:1.0; 
stroke:#FFFFFF; stroke-width:0; stroke-opacity:1; 
stroke-linecap:round; stroke-linejoin:round;fill-rule:evenodd;"
d="M 59302,58307.1
59754.8,58307.1
59754.8,57834.6
59302,57834.6
Z" /> 
<path style="fill:#FFFFFF; fill-opacity:1.0; 
stroke:#FFFFFF; stroke-width:0; stroke-opacity:1; 
stroke-linecap:round; stroke-linejoin:round;fill-rule:evenodd;"
d="M 60764.6,58212.6
61087.5,58212.6
61087.5,57535.4
60764.6,57535.4
Z" /> 
<path style="fill:#FFFFFF; fill-opacity:1.0; 
stroke:#FFFFFF; stroke-width:0; stroke-opacity:1; 
stroke-linecap:round; stroke-linejoin:round;fill-rule:evenodd;"
d="M 53993,57937
54670.2,57937
54670.2,57614.2
53993,57614.2
Z" /> 
<path style="fill:#FFFFFF; fill-opacity:1.0; 
stroke:#FFFFFF; stroke-width:0; stroke-opacity:1; 
stroke-linecap:round; stroke-linejoin:round;fill-rule:evenodd;"
d="M 56644.6,57893.7
57294.2,57893.7
57294.2,56870.1
56644.6,56870.1
Z" /> 
<path style="fill:#FFFFFF; fill-opacity:1.0; 
stroke:#FFFFFF; stroke-width:0; stroke-opacity:1; 
stroke-linecap:round; stroke-linejoin:round;fill-rule:evenodd;"
d="M 54912.3,57893.7
55561.9,57893.7
55561.9,56870.1
54912.3,56870.1
Z" /> 
<path style="fill:#FFFFFF; fill-opacity:1.0; 
stroke:#FFFFFF; stroke-width:0; stroke-opacity:1; 
stroke-linecap:round; stroke-linejoin:round;fill-rule:evenodd;"
d="M 50250,56411.2
50137.4,56433.6
50013.8,56484.8
49902.6,56559.1
49808,56653.7
49733.7,56764.9
49682.5,56888.5
49656.4,57019.7
49656.4,57153.5
49682.5,57284.7
49733.7,57408.3
49808,57519.5
49902.6,57614.1
50013.8,57688.5
50137.4,57739.6
50250,57762
50268.6,57765.7
50402.4,57765.7
50421.1,57762
50533.6,57739.6
50657.2,57688.5
50768.4,57614.1
50863,57519.5
50937.4,57408.3
50988.5,57284.7
51014.6,57153.5
51014.6,57019.7
50988.5,56888.5
50937.4,56764.9
50863,56653.7
50768.4,56559.1
50657.2,56484.8
50533.6,56433.6
50421.1,56411.2
50402.4,56407.5
50268.6,56407.5
Z" /> 
<path style="fill:#FFFFFF; fill-opacity:1.0; 
stroke:#FFFFFF; stroke-width:0; stroke-opacity:1; 
stroke-linecap:round; stroke-linejoin:round;fill-rule:evenodd;"
d="M 45250,56411.2
45137.4,56433.6
45013.8,56484.8
44902.6,56559.1
44808,56653.7
44733.7,56764.9
44682.5,56888.5
44656.4,57019.7
44656.4,57153.5
44682.5,57284.7
44733.7,57408.3
44808,57519.5
44902.6,57614.1
45013.8,57688.5
45137.4,57739.6
45250,57762
45268.6,57765.7
45402.4,57765.7
45421.1,57762
45533.6,57739.6
45657.2,57688.5
45768.4,57614.1
45863,57519.5
45937.4,57408.3
45988.5,57284.7
46014.6,57153.5
46014.6,57019.7
45988.5,56888.5
45937.4,56764.9
45863,56653.7
45768.4,56559.1
45657.2,56484.8
45533.6,56433.6
45421.1,56411.2
45402.4,56407.5
45268.6,56407.5
Z" /> 
<path style="fill:#FFFFFF; fill-opacity:1.0; 
stroke:#FFFFFF; stroke-width:0; stroke-opacity:1; 
stroke-linecap:round; stroke-linejoin:round;fill-rule:evenodd;"
d="M 57516.6,57720.5
57839.4,57720.5
57839.4,57043.3
57516.6,57043.3
Z" /> 
<path style="fill:#FFFFFF; fill-opacity:1.0; 
stroke:#FFFFFF; stroke-width:0; stroke-opacity:1; 
stroke-linecap:round; stroke-linejoin:round;fill-rule:evenodd;"
d="M 58008.7,57720.5
58331.6,57720.5
58331.6,57043.3
58008.7,57043.3
Z" /> 
<path style="fill:#FFFFFF; fill-opacity:1.0; 
stroke:#FFFFFF; stroke-width:0; stroke-opacity:1; 
stroke-linecap:round; stroke-linejoin:round;fill-rule:evenodd;"
d="M 39972.1,56546
39918.8,56556.6
39818.5,56598.2
39728.2,56658.5
39651.5,56735.3
39591.2,56825.5
39549.6,56925.8
39528.4,57032.3
39528.4,57140.9
39549.6,57247.4
39591.2,57347.7
39651.5,57438
39728.2,57514.7
39818.5,57575.1
39918.8,57616.6
39972.1,57627.2
40025.3,57637.8
40133.9,57637.8
40187.1,57627.2
40240.4,57616.6
40340.7,57575.1
40431,57514.7
40507.7,57438
40568.1,57347.7
40609.6,57247.4
40630.8,57140.9
40630.8,57032.3
40609.6,56925.8
40568.1,56825.5
40507.7,56735.3
40431,56658.5
40340.7,56598.2
40240.4,56556.6
40187.1,56546
40133.9,56535.4
40025.3,56535.4
Z" /> 
<path style="fill:#FFFFFF; fill-opacity:1.0; 
stroke:#FFFFFF; stroke-width:0; stroke-opacity:1; 
stroke-linecap:round; stroke-linejoin:round;fill-rule:evenodd;"
d="M 53993,57444.9
54670.2,57444.9
54670.2,57122
53993,57122
Z" /> 
<path style="fill:#FFFFFF; fill-opacity:1.0; 
stroke:#FFFFFF; stroke-width:0; stroke-opacity:1; 
stroke-linecap:round; stroke-linejoin:round;fill-rule:evenodd;"
d="M 57516.6,56933.1
57839.4,56933.1
57839.4,56255.9
57516.6,56255.9
Z" /> 
<path style="fill:#FFFFFF; fill-opacity:1.0; 
stroke:#FFFFFF; stroke-width:0; stroke-opacity:1; 
stroke-linecap:round; stroke-linejoin:round;fill-rule:evenodd;"
d="M 58008.7,56933.1
58331.6,56933.1
58331.6,56255.9
58008.7,56255.9
Z" /> 
<path style="fill:#FFFFFF; fill-opacity:1.0; 
stroke:#FFFFFF; stroke-width:0; stroke-opacity:1; 
stroke-linecap:round; stroke-linejoin:round;fill-rule:evenodd;"
d="M 55601.3,56285.4
55600.3,56295
55597.5,56304.3
55593,56312.8
55586.8,56320.2
55579.4,56326.4
55570.9,56330.9
55561.6,56333.7
55552,56334.6
55473.3,56334.6
55463.7,56333.7
55454.5,56330.9
55446,56326.4
55438.5,56320.2
55432.4,56312.8
55427.8,56304.3
55425,56295
55424.1,56285.4
55424.1,55767.7
54971.3,55767.7
54971.3,56240.2
55026.5,56240.2
55036.1,56241.1
55045.3,56243.9
55053.8,56248.5
55061.3,56254.6
55067.4,56262
55071.9,56270.5
55074.7,56279.8
55075.7,56289.4
55075.7,56657.5
55752.8,56657.5
55752.8,56289.4
55753.8,56279.8
55756.6,56270.5
55761.1,56262
55767.2,56254.6
55774.7,56248.5
55783.2,56243.9
55792.4,56241.1
55802,56240.2
56054,56240.2
56054,55767.7
55601.3,55767.7
Z" /> 
<path style="fill:#FFFFFF; fill-opacity:1.0; 
stroke:#FFFFFF; stroke-width:0; stroke-opacity:1; 
stroke-linecap:round; stroke-linejoin:round;fill-rule:evenodd;"
d="M 41378.8,56456.7
42481.2,56456.7
42481.2,55354.3
41378.8,55354.3
Z" /> 
<path style="fill:#FFFFFF; fill-opacity:1.0; 
stroke:#FFFFFF; stroke-width:0; stroke-opacity:1; 
stroke-linecap:round; stroke-linejoin:round;fill-rule:evenodd;"
d="M 59932,56437
60384.7,56437
60384.7,55964.6
59932,55964.6
Z" /> 
<path style="fill:#FFFFFF; fill-opacity:1.0; 
stroke:#FFFFFF; stroke-width:0; stroke-opacity:1; 
stroke-linecap:round; stroke-linejoin:round;fill-rule:evenodd;"
d="M 59302,56437
59754.8,56437
59754.8,55964.6
59302,55964.6
Z" /> 
<path style="fill:#FFFFFF; fill-opacity:1.0; 
stroke:#FFFFFF; stroke-width:0; stroke-opacity:1; 
stroke-linecap:round; stroke-linejoin:round;fill-rule:evenodd;"
d="M 60764.6,56342.5
61087.5,56342.5
61087.5,55665.4
60764.6,55665.4
Z" /> 
<path style="fill:#FFFFFF; fill-opacity:1.0; 
stroke:#FFFFFF; stroke-width:0; stroke-opacity:1; 
stroke-linecap:round; stroke-linejoin:round;fill-rule:evenodd;"
d="M 56453.6,55718.5
56452.7,55728.1
56449.9,55737.3
56445.3,55745.8
56439.2,55753.3
56431.8,55759.4
56423.2,55764
56414,55766.8
56404.4,55767.7
56152.4,55767.7
56152.4,56240.2
56605.2,56240.2
56605.2,55722.4
56606.1,55712.8
56608.9,55703.6
56613.5,55695.1
56619.6,55687.6
56627.1,55681.5
56635.6,55677
56644.8,55674.2
56654.4,55673.2
56733.2,55673.2
56742.8,55674.2
56752,55677
56760.5,55681.5
56767.9,55687.6
56774.1,55695.1
56778.6,55703.6
56781.4,55712.8
56782.4,55722.4
56782.4,56240.2
57235.1,56240.2
57235.1,55767.7
57180,55767.7
57170.4,55766.8
57161.2,55764
57152.7,55759.4
57145.2,55753.3
57139.1,55745.8
57134.5,55737.3
57131.7,55728.1
57130.8,55718.5
57130.8,55350.4
56453.6,55350.4
Z" /> 
<path style="fill:#FFFFFF; fill-opacity:1.0; 
stroke:#FFFFFF; stroke-width:0; stroke-opacity:1; 
stroke-linecap:round; stroke-linejoin:round;fill-rule:evenodd;"
d="M 57595.4,55870.1
58272.5,55870.1
58272.5,55547.2
57595.4,55547.2
Z" /> 
<path style="fill:#FFFFFF; fill-opacity:1.0; 
stroke:#FFFFFF; stroke-width:0; stroke-opacity:1; 
stroke-linecap:round; stroke-linejoin:round;fill-rule:evenodd;"
d="M 53874.9,55752
54197.7,55752
54197.7,55074.8
53874.9,55074.8
Z" /> 
<path style="fill:#FFFFFF; fill-opacity:1.0; 
stroke:#FFFFFF; stroke-width:0; stroke-opacity:1; 
stroke-linecap:round; stroke-linejoin:round;fill-rule:evenodd;"
d="M 54367,55752
54689.8,55752
54689.8,55074.8
54367,55074.8
Z" /> 
<path style="fill:#FFFFFF; fill-opacity:1.0; 
stroke:#FFFFFF; stroke-width:0; stroke-opacity:1; 
stroke-linecap:round; stroke-linejoin:round;fill-rule:evenodd;"
d="M 54912.3,55137.8
55561.9,55137.8
55561.9,54114.2
54912.3,54114.2
Z" /> 
<path style="fill:#FFFFFF; fill-opacity:1.0; 
stroke:#FFFFFF; stroke-width:0; stroke-opacity:1; 
stroke-linecap:round; stroke-linejoin:round;fill-rule:evenodd;"
d="M 56644.6,55137.8
57294.2,55137.8
57294.2,54114.2
56644.6,54114.2
Z" /> 
<path style="fill:#FFFFFF; fill-opacity:1.0; 
stroke:#FFFFFF; stroke-width:0; stroke-opacity:1; 
stroke-linecap:round; stroke-linejoin:round;fill-rule:evenodd;"
d="M 54367,54964.6
54689.8,54964.6
54689.8,54287.4
54367,54287.4
Z" /> 
<path style="fill:#FFFFFF; fill-opacity:1.0; 
stroke:#FFFFFF; stroke-width:0; stroke-opacity:1; 
stroke-linecap:round; stroke-linejoin:round;fill-rule:evenodd;"
d="M 53874.9,54964.6
54197.7,54964.6
54197.7,54287.4
53874.9,54287.4
Z" /> 
<path style="fill:#FFFFFF; fill-opacity:1.0; 
stroke:#FFFFFF; stroke-width:0; stroke-opacity:1; 
stroke-linecap:round; stroke-linejoin:round;fill-rule:evenodd;"
d="M 57536.3,54885.8
58213.5,54885.8
58213.5,54563
57536.3,54563
Z" /> 
<path style="fill:#FFFFFF; fill-opacity:1.0; 
stroke:#FFFFFF; stroke-width:0; stroke-opacity:1; 
stroke-linecap:round; stroke-linejoin:round;fill-rule:evenodd;"
d="M 41388.7,54862.2
41841.4,54862.2
41841.4,54389.8
41388.7,54389.8
Z" /> 
<path style="fill:#FFFFFF; fill-opacity:1.0; 
stroke:#FFFFFF; stroke-width:0; stroke-opacity:1; 
stroke-linecap:round; stroke-linejoin:round;fill-rule:evenodd;"
d="M 42018.6,54862.2
42471.3,54862.2
42471.3,54389.8
42018.6,54389.8
Z" /> 
<path style="fill:#FFFFFF; fill-opacity:1.0; 
stroke:#FFFFFF; stroke-width:0; stroke-opacity:1; 
stroke-linecap:round; stroke-linejoin:round;fill-rule:evenodd;"
d="M 39130.8,54787.4
39808,54787.4
39808,53677.2
39130.8,53677.2
Z" /> 
<path style="fill:#FFFFFF; fill-opacity:1.0; 
stroke:#FFFFFF; stroke-width:0; stroke-opacity:1; 
stroke-linecap:round; stroke-linejoin:round;fill-rule:evenodd;"
d="M 42851.3,54767.7
43174.1,54767.7
43174.1,54090.6
42851.3,54090.6
Z" /> 
<path style="fill:#FFFFFF; fill-opacity:1.0; 
stroke:#FFFFFF; stroke-width:0; stroke-opacity:1; 
stroke-linecap:round; stroke-linejoin:round;fill-rule:evenodd;"
d="M 62112.1,53566
62004.6,53610.5
62004.6,53610.5
61955.9,53643.1
61907.9,53675.1
61825.6,53757.4
61761,53854.1
61716.5,53961.6
61693.8,54075.7
61693.8,54192
61716.5,54306.1
61728.4,54334.8
61761,54413.6
61825.6,54510.3
61907.9,54592.6
62004.6,54657.2
62004.6,54657.2
62004.6,54657.2
62112.1,54701.7
62226.2,54724.4
62342.5,54724.4
62456.6,54701.7
62564.1,54657.2
62564.1,54657.2
62564.1,54657.2
62660.8,54592.6
62743,54510.3
62807.7,54413.6
62840.3,54334.8
62852.2,54306.1
62874.9,54192
62874.9,54075.7
62852.2,53961.6
62807.7,53854.1
62743,53757.4
62660.8,53675.1
62612.8,53643.1
62564.1,53610.5
62564.1,53610.5
62456.6,53566
62342.5,53543.3
62226.2,53543.3
Z" /> 
<path style="fill:#FFFFFF; fill-opacity:1.0; 
stroke:#FFFFFF; stroke-width:0; stroke-opacity:1; 
stroke-linecap:round; stroke-linejoin:round;fill-rule:evenodd;"
d="M 67466.4,53487.3
67358.9,53531.8
67358.9,53531.8
67341.7,53543.3
67262.2,53596.4
67179.9,53678.7
67115.3,53775.4
67070.8,53882.9
67048.1,53997
67048.1,54113.3
67070.8,54227.4
67115.3,54334.8
67115.3,54334.8
67180,54431.6
67262.2,54513.8
67358.9,54578.5
67358.9,54578.5
67358.9,54578.5
67466.4,54623
67580.5,54645.7
67696.8,54645.7
67810.9,54623
67918.4,54578.5
67918.4,54578.5
67918.4,54578.5
68015.1,54513.8
68097.4,54431.6
68162,54334.8
68162,54334.8
68206.5,54227.4
68229.2,54113.3
68229.2,53997
68206.5,53882.9
68162,53775.4
68097.4,53678.7
68015.1,53596.4
67935.6,53543.3
67918.4,53531.8
67918.4,53531.8
67810.9,53487.3
67696.8,53464.6
67580.5,53464.6
Z" /> 
<path style="fill:#FFFFFF; fill-opacity:1.0; 
stroke:#FFFFFF; stroke-width:0; stroke-opacity:1; 
stroke-linecap:round; stroke-linejoin:round;fill-rule:evenodd;"
d="M 57536.3,54393.7
58213.5,54393.7
58213.5,54070.9
57536.3,54070.9
Z" /> 
<path style="fill:#FFFFFF; fill-opacity:1.0; 
stroke:#FFFFFF; stroke-width:0; stroke-opacity:1; 
stroke-linecap:round; stroke-linejoin:round;fill-rule:evenodd;"
d="M 53874.9,54177.2
54197.7,54177.2
54197.7,53500
53874.9,53500
Z" /> 
<path style="fill:#FFFFFF; fill-opacity:1.0; 
stroke:#FFFFFF; stroke-width:0; stroke-opacity:1; 
stroke-linecap:round; stroke-linejoin:round;fill-rule:evenodd;"
d="M 54367,54177.2
54689.8,54177.2
54689.8,53500
54367,53500
Z" /> 
<path style="fill:#FFFFFF; fill-opacity:1.0; 
stroke:#FFFFFF; stroke-width:0; stroke-opacity:1; 
stroke-linecap:round; stroke-linejoin:round;fill-rule:evenodd;"
d="M 57195.7,53868.1
57491,53868.1
57491,53454.7
57195.7,53454.7
Z" /> 
<path style="fill:#FFFFFF; fill-opacity:1.0; 
stroke:#FFFFFF; stroke-width:0; stroke-opacity:1; 
stroke-linecap:round; stroke-linejoin:round;fill-rule:evenodd;"
d="M 56683.9,53868.1
56979.2,53868.1
56979.2,53454.7
56683.9,53454.7
Z" /> 
<path style="fill:#FFFFFF; fill-opacity:1.0; 
stroke:#FFFFFF; stroke-width:0; stroke-opacity:1; 
stroke-linecap:round; stroke-linejoin:round;fill-rule:evenodd;"
d="M 57733.1,53803.1
58410.3,53803.1
58410.3,53480.3
57733.1,53480.3
Z" /> 
<path style="fill:#FFFFFF; fill-opacity:1.0; 
stroke:#FFFFFF; stroke-width:0; stroke-opacity:1; 
stroke-linecap:round; stroke-linejoin:round;fill-rule:evenodd;"
d="M 56138.7,53389.8
56461.5,53389.8
56461.5,52712.6
56138.7,52712.6
Z" /> 
<path style="fill:#FFFFFF; fill-opacity:1.0; 
stroke:#FFFFFF; stroke-width:0; stroke-opacity:1; 
stroke-linecap:round; stroke-linejoin:round;fill-rule:evenodd;"
d="M 41689.8,53212.6
42367,53212.6
42367,52889.8
41689.8,52889.8
Z" /> 
<path style="fill:#FFFFFF; fill-opacity:1.0; 
stroke:#FFFFFF; stroke-width:0; stroke-opacity:1; 
stroke-linecap:round; stroke-linejoin:round;fill-rule:evenodd;"
d="M 42674.1,53212.6
43351.3,53212.6
43351.3,52889.8
42674.1,52889.8
Z" /> 
<path style="fill:#FFFFFF; fill-opacity:1.0; 
stroke:#FFFFFF; stroke-width:0; stroke-opacity:1; 
stroke-linecap:round; stroke-linejoin:round;fill-rule:evenodd;"
d="M 58087.5,53133.9
58764.6,53133.9
58764.6,52811
58087.5,52811
Z" /> 
<path style="fill:#FFFFFF; fill-opacity:1.0; 
stroke:#FFFFFF; stroke-width:0; stroke-opacity:1; 
stroke-linecap:round; stroke-linejoin:round;fill-rule:evenodd;"
d="M 56939.8,53041.3
57235.1,53041.3
57235.1,52628
56939.8,52628
Z" /> 
<path style="fill:#FFFFFF; fill-opacity:1.0; 
stroke:#FFFFFF; stroke-width:0; stroke-opacity:1; 
stroke-linecap:round; stroke-linejoin:round;fill-rule:evenodd;"
d="M 49732.2,52345.9
49688.8,52363.9
49667.7,52372.6
49609.6,52411.4
49560.3,52460.7
49521.5,52518.8
49521.5,52518.8
49494.8,52583.3
49483.8,52638.7
49481,52647.9
49476.4,52656.4
49470.3,52663.9
49462.9,52670
49454.3,52674.5
49445.1,52677.3
49435.5,52678.3
49425.9,52677.3
49416.7,52674.5
49408.2,52670
49400.7,52663.9
49394.6,52656.4
49390,52647.9
49387.2,52638.7
49376.2,52583.3
49349.5,52518.8
49349.5,52518.8
49310.7,52460.7
49261.4,52411.4
49203.4,52372.6
49182.2,52363.9
49138.9,52345.9
49070.4,52332.3
49000.6,52332.3
48932.2,52345.9
48888.8,52363.9
48867.7,52372.6
48809.6,52411.4
48760.3,52460.7
48721.5,52518.8
48721.5,52518.8
48694.8,52583.3
48683.8,52638.7
48681,52647.9
48676.4,52656.4
48670.3,52663.9
48662.9,52670
48654.3,52674.5
48645.1,52677.3
48635.5,52678.3
48625.9,52677.3
48616.7,52674.5
48608.2,52670
48600.7,52663.9
48594.6,52656.4
48590,52647.9
48587.2,52638.7
48576.2,52583.3
48549.5,52518.8
48549.5,52518.8
48510.7,52460.7
48461.4,52411.4
48403.4,52372.6
48382.2,52363.9
48338.9,52345.9
48270.4,52332.3
48200.6,52332.3
48132.2,52345.9
48088.8,52363.9
48067.7,52372.6
48009.6,52411.4
47960.3,52460.7
47921.5,52518.8
47921.5,52518.8
47894.8,52583.3
47883.8,52638.7
47881,52647.9
47876.4,52656.4
47870.3,52663.9
47862.9,52670
47854.3,52674.5
47845.1,52677.3
47835.5,52678.3
47825.9,52677.3
47816.7,52674.5
47808.2,52670
47800.7,52663.9
47794.6,52656.4
47790,52647.9
47787.2,52638.7
47776.2,52583.3
47749.5,52518.8
47749.5,52518.8
47710.7,52460.7
47661.4,52411.4
47603.4,52372.6
47582.2,52363.9
47538.9,52345.9
47470.4,52332.3
47400.6,52332.3
47332.2,52345.9
47288.8,52363.9
47267.7,52372.6
47209.6,52411.4
47160.3,52460.7
47121.5,52518.8
47121.5,52518.8
47094.8,52583.3
47083.8,52638.7
47081,52647.9
47076.4,52656.4
47070.3,52663.9
47062.9,52670
47054.3,52674.5
47045.1,52677.3
47035.5,52678.3
47025.9,52677.3
47016.7,52674.5
47008.2,52670
47000.7,52663.9
46994.6,52656.4
46990,52647.9
46987.2,52638.7
46976.2,52583.3
46949.5,52518.8
46949.5,52518.8
46910.7,52460.7
46861.4,52411.4
46803.4,52372.6
46782.2,52363.9
46738.9,52345.9
46670.4,52332.3
46600.6,52332.3
46532.2,52345.9
46488.8,52363.9
46467.7,52372.6
46409.6,52411.4
46360.3,52460.7
46321.5,52518.8
46321.5,52518.8
46294.8,52583.3
46283.8,52638.7
46281,52647.9
46276.4,52656.4
46270.3,52663.9
46262.9,52670
46254.3,52674.5
46245.1,52677.3
46235.5,52678.3
46225.9,52677.3
46216.7,52674.5
46208.2,52670
46200.7,52663.9
46194.6,52656.4
46190,52647.9
46187.2,52638.7
46176.2,52583.3
46149.5,52518.8
46149.5,52518.8
46110.7,52460.7
46061.4,52411.4
46003.4,52372.6
45982.2,52363.9
45938.9,52345.9
45870.4,52332.3
45800.6,52332.3
45732.2,52345.9
45688.8,52363.9
45667.7,52372.6
45609.6,52411.4
45560.3,52460.7
45521.5,52518.8
45494.8,52583.3
45481.2,52651.7
45481.2,52721.5
45494.8,52790
45521.5,52854.5
45560.3,52912.5
45609.6,52961.8
45667.7,53000.6
45667.7,53000.6
45667.7,53000.6
45732.2,53027.3
45800.6,53040.9
45870.4,53040.9
45938.9,53027.3
46003.3,53000.6
46003.3,53000.6
46003.4,53000.6
46061.4,52961.8
46110.7,52912.5
46149.5,52854.5
46176.2,52790
46187.2,52734.6
46190,52725.3
46194.6,52716.8
46200.7,52709.4
46208.2,52703.3
46216.7,52698.7
46225.9,52695.9
46235.5,52695
46245.1,52695.9
46254.3,52698.7
46262.9,52703.3
46270.3,52709.4
46276.4,52716.8
46281,52725.3
46283.8,52734.6
46294.8,52790
46321.5,52854.5
46360.3,52912.5
46409.6,52961.8
46467.7,53000.6
46467.7,53000.6
46467.7,53000.6
46532.2,53027.3
46600.6,53040.9
46670.4,53040.9
46738.9,53027.3
46803.3,53000.6
46803.3,53000.6
46803.4,53000.6
46861.4,52961.8
46910.7,52912.5
46949.5,52854.5
46976.2,52790
46987.2,52734.6
46990,52725.3
46994.6,52716.8
47000.7,52709.4
47008.2,52703.3
47016.7,52698.7
47025.9,52695.9
47035.5,52695
47045.1,52695.9
47054.3,52698.7
47062.9,52703.3
47070.3,52709.4
47076.4,52716.8
47081,52725.3
47083.8,52734.6
47094.8,52790
47121.5,52854.5
47160.3,52912.5
47209.6,52961.8
47267.7,53000.6
47267.7,53000.6
47267.7,53000.6
47332.2,53027.3
47400.6,53040.9
47470.4,53040.9
47538.9,53027.3
47603.3,53000.6
47603.3,53000.6
47603.4,53000.6
47661.4,52961.8
47710.7,52912.5
47749.5,52854.5
47776.2,52790
47787.2,52734.6
47790,52725.3
47794.6,52716.8
47800.7,52709.4
47808.2,52703.3
47816.7,52698.7
47825.9,52695.9
47835.5,52695
47845.1,52695.9
47854.3,52698.7
47862.9,52703.3
47870.3,52709.4
47876.4,52716.8
47881,52725.3
47883.8,52734.6
47894.8,52790
47921.5,52854.5
47960.3,52912.5
48009.6,52961.8
48067.7,53000.6
48067.7,53000.6
48067.7,53000.6
48132.2,53027.3
48200.6,53040.9
48270.4,53040.9
48338.9,53027.3
48403.3,53000.6
48403.3,53000.6
48403.4,53000.6
48461.4,52961.8
48510.7,52912.5
48549.5,52854.5
48576.2,52790
48587.2,52734.6
48590,52725.3
48594.6,52716.8
48600.7,52709.4
48608.2,52703.3
48616.7,52698.7
48625.9,52695.9
48635.5,52695
48645.1,52695.9
48654.3,52698.7
48662.9,52703.3
48670.3,52709.4
48676.4,52716.8
48681,52725.3
48683.8,52734.6
48694.8,52790
48721.5,52854.5
48760.3,52912.5
48809.6,52961.8
48867.7,53000.6
48867.7,53000.6
48867.7,53000.6
48932.2,53027.3
49000.6,53040.9
49070.4,53040.9
49138.9,53027.3
49203.3,53000.6
49203.3,53000.6
49203.4,53000.6
49261.4,52961.8
49310.7,52912.5
49349.5,52854.5
49376.2,52790
49387.2,52734.6
49390,52725.3
49394.6,52716.8
49400.7,52709.4
49408.2,52703.3
49416.7,52698.7
49425.9,52695.9
49435.5,52695
49445.1,52695.9
49454.3,52698.7
49462.9,52703.3
49470.3,52709.4
49476.4,52716.8
49481,52725.3
49483.8,52734.6
49494.8,52790
49521.5,52854.5
49560.3,52912.5
49609.6,52961.8
49667.7,53000.6
49667.7,53000.6
49667.7,53000.6
49732.2,53027.3
49800.6,53040.9
49870.4,53040.9
49938.9,53027.3
50003.3,53000.6
50003.3,53000.6
50003.4,53000.6
50061.4,52961.8
50110.7,52912.5
50149.5,52854.5
50176.2,52790
50189.8,52721.5
50189.8,52651.7
50176.2,52583.3
50149.5,52518.8
50110.7,52460.7
50061.4,52411.4
50003.4,52372.6
49982.2,52363.9
49938.9,52345.9
49870.4,52332.3
49800.6,52332.3
Z" /> 
<path style="fill:#FFFFFF; fill-opacity:1.0; 
stroke:#FFFFFF; stroke-width:0; stroke-opacity:1; 
stroke-linecap:round; stroke-linejoin:round;fill-rule:evenodd;"
d="M 55075.7,53015.7
55752.8,53015.7
55752.8,52692.9
55075.7,52692.9
Z" /> 
<path style="fill:#FFFFFF; fill-opacity:1.0; 
stroke:#FFFFFF; stroke-width:0; stroke-opacity:1; 
stroke-linecap:round; stroke-linejoin:round;fill-rule:evenodd;"
d="M 57516.6,52996.1
57839.4,52996.1
57839.4,52318.9
57516.6,52318.9
Z" /> 
<path style="fill:#FFFFFF; fill-opacity:1.0; 
stroke:#FFFFFF; stroke-width:0; stroke-opacity:1; 
stroke-linecap:round; stroke-linejoin:round;fill-rule:evenodd;"
d="M 64815.6,51412
64743.3,51426.4
64686.9,51449.7
64607.2,51482.8
64484.7,51564.6
64380.5,51668.8
64298.6,51791.3
64272.5,51854.3
64242.2,51927.5
64213.5,52072
64213.5,52219.3
64242.2,52363.9
64261.9,52411.4
64298.6,52500
64380.5,52622.5
64484.7,52726.7
64607.2,52808.6
64686.9,52841.6
64743.3,52865
64815.6,52879.3
64887.8,52893.7
65035.2,52893.7
65107.4,52879.3
65179.7,52865
65236.1,52841.6
65315.8,52808.6
65438.3,52726.7
65542.5,52622.5
65624.4,52500
65661.1,52411.4
65680.8,52363.9
65709.5,52219.3
65709.5,52072
65680.8,51927.5
65650.5,51854.3
65624.4,51791.3
65542.5,51668.8
65438.3,51564.6
65315.8,51482.8
65236.1,51449.7
65179.7,51426.4
65107.4,51412
65035.2,51397.6
64887.8,51397.6
Z" /> 
<path style="fill:#FFFFFF; fill-opacity:1.0; 
stroke:#FFFFFF; stroke-width:0; stroke-opacity:1; 
stroke-linecap:round; stroke-linejoin:round;fill-rule:evenodd;"
d="M 51315.8,52700.8
51638.7,52700.8
51638.7,52023.6
51315.8,52023.6
Z" /> 
<path style="fill:#FFFFFF; fill-opacity:1.0; 
stroke:#FFFFFF; stroke-width:0; stroke-opacity:1; 
stroke-linecap:round; stroke-linejoin:round;fill-rule:evenodd;"
d="M 44032.4,52700.8
44355.2,52700.8
44355.2,52023.6
44032.4,52023.6
Z" /> 
<path style="fill:#FFFFFF; fill-opacity:1.0; 
stroke:#FFFFFF; stroke-width:0; stroke-opacity:1; 
stroke-linecap:round; stroke-linejoin:round;fill-rule:evenodd;"
d="M 58087.5,52641.7
58764.6,52641.7
58764.6,52318.9
58087.5,52318.9
Z" /> 
<path style="fill:#FFFFFF; fill-opacity:1.0; 
stroke:#FFFFFF; stroke-width:0; stroke-opacity:1; 
stroke-linecap:round; stroke-linejoin:round;fill-rule:evenodd;"
d="M 41300.1,52480.3
42126.9,52480.3
42126.9,51456.7
41300.1,51456.7
Z" /> 
<path style="fill:#FFFFFF; fill-opacity:1.0; 
stroke:#FFFFFF; stroke-width:0; stroke-opacity:1; 
stroke-linecap:round; stroke-linejoin:round;fill-rule:evenodd;"
d="M 42914.3,52480.3
43741,52480.3
43741,51456.7
42914.3,51456.7
Z" /> 
<path style="fill:#FFFFFF; fill-opacity:1.0; 
stroke:#FFFFFF; stroke-width:0; stroke-opacity:1; 
stroke-linecap:round; stroke-linejoin:round;fill-rule:evenodd;"
d="M 53993,52425.2
54670.2,52425.2
54670.2,52102.4
53993,52102.4
Z" /> 
<path style="fill:#FFFFFF; fill-opacity:1.0; 
stroke:#FFFFFF; stroke-width:0; stroke-opacity:1; 
stroke-linecap:round; stroke-linejoin:round;fill-rule:evenodd;"
d="M 54912.3,52381.9
55561.9,52381.9
55561.9,51358.3
54912.3,51358.3
Z" /> 
<path style="fill:#FFFFFF; fill-opacity:1.0; 
stroke:#FFFFFF; stroke-width:0; stroke-opacity:1; 
stroke-linecap:round; stroke-linejoin:round;fill-rule:evenodd;"
d="M 56644.6,52381.9
57294.2,52381.9
57294.2,51358.3
56644.6,51358.3
Z" /> 
<path style="fill:#FFFFFF; fill-opacity:1.0; 
stroke:#FFFFFF; stroke-width:0; stroke-opacity:1; 
stroke-linecap:round; stroke-linejoin:round;fill-rule:evenodd;"
d="M 40292.2,52208.7
40615,52208.7
40615,51531.5
40292.2,51531.5
Z" /> 
<path style="fill:#FFFFFF; fill-opacity:1.0; 
stroke:#FFFFFF; stroke-width:0; stroke-opacity:1; 
stroke-linecap:round; stroke-linejoin:round;fill-rule:evenodd;"
d="M 57536.3,52129.9
58213.5,52129.9
58213.5,51807.1
57536.3,51807.1
Z" /> 
<path style="fill:#FFFFFF; fill-opacity:1.0; 
stroke:#FFFFFF; stroke-width:0; stroke-opacity:1; 
stroke-linecap:round; stroke-linejoin:round;fill-rule:evenodd;"
d="M 45906,51332.9
45880.7,51338
45809,51367.6
45744.5,51410.7
45689.7,51465.6
45646.6,51530
45616.9,51601.7
45601.8,51677.8
45601.8,51755.3
45616.9,51831.4
45646.6,51903
45689.7,51967.5
45744.5,52022.3
45809,52065.4
45880.7,52095.1
45906,52100.2
45956.7,52110.2
46034.3,52110.2
46085,52100.2
46110.3,52095.1
46182,52065.4
46246.5,52022.3
46301.3,51967.5
46344.4,51903
46374.1,51831.4
46389.2,51755.3
46389.2,51677.8
46374.1,51601.7
46344.4,51530
46301.3,51465.6
46246.5,51410.7
46182,51367.6
46110.3,51338
46085,51332.9
46034.3,51322.8
45956.7,51322.8
Z" /> 
<path style="fill:#FFFFFF; fill-opacity:1.0; 
stroke:#FFFFFF; stroke-width:0; stroke-opacity:1; 
stroke-linecap:round; stroke-linejoin:round;fill-rule:evenodd;"
d="M 49586,51332.9
49560.7,51338
49489,51367.6
49424.5,51410.7
49369.7,51465.6
49326.6,51530
49296.9,51601.7
49281.8,51677.8
49281.8,51755.3
49296.9,51831.4
49326.6,51903
49369.7,51967.5
49424.5,52022.3
49489,52065.4
49560.7,52095.1
49586,52100.2
49636.7,52110.2
49714.3,52110.2
49765,52100.2
49790.3,52095.1
49862,52065.4
49926.5,52022.3
49981.3,51967.5
50024.4,51903
50054.1,51831.4
50069.2,51755.3
50069.2,51677.8
50054.1,51601.7
50024.4,51530
49981.3,51465.6
49926.5,51410.7
49862,51367.6
49790.3,51338
49765,51332.9
49714.3,51322.8
49636.7,51322.8
Z" /> 
<path style="fill:#FFFFFF; fill-opacity:1.0; 
stroke:#FFFFFF; stroke-width:0; stroke-opacity:1; 
stroke-linecap:round; stroke-linejoin:round;fill-rule:evenodd;"
d="M 50586,51332.9
50560.7,51338
50489,51367.6
50424.5,51410.7
50369.7,51465.6
50326.6,51530
50296.9,51601.7
50281.8,51677.8
50281.8,51755.3
50296.9,51831.4
50326.6,51903
50369.7,51967.5
50424.5,52022.3
50489,52065.4
50560.7,52095.1
50586,52100.2
50636.7,52110.2
50714.3,52110.2
50765,52100.2
50790.3,52095.1
50862,52065.4
50926.5,52022.3
50981.3,51967.5
51024.4,51903
51054.1,51831.4
51069.2,51755.3
51069.2,51677.8
51054.1,51601.7
51024.4,51530
50981.3,51465.6
50926.5,51410.7
50862,51367.6
50790.3,51338
50765,51332.9
50714.3,51322.8
50636.7,51322.8
Z" /> 
<path style="fill:#FFFFFF; fill-opacity:1.0; 
stroke:#FFFFFF; stroke-width:0; stroke-opacity:1; 
stroke-linecap:round; stroke-linejoin:round;fill-rule:evenodd;"
d="M 44906,51332.9
44880.7,51338
44809,51367.6
44744.5,51410.7
44689.7,51465.6
44646.6,51530
44616.9,51601.7
44601.8,51677.8
44601.8,51755.3
44616.9,51831.4
44646.6,51903
44689.7,51967.5
44744.5,52022.3
44809,52065.4
44880.7,52095.1
44906,52100.2
44956.7,52110.2
45034.3,52110.2
45085,52100.2
45110.3,52095.1
45182,52065.4
45246.5,52022.3
45301.3,51967.5
45344.4,51903
45374.1,51831.4
45389.2,51755.3
45389.2,51677.8
45374.1,51601.7
45344.4,51530
45301.3,51465.6
45246.5,51410.7
45182,51367.6
45110.3,51338
45085,51332.9
45034.3,51322.8
44956.7,51322.8
Z" /> 
<path style="fill:#FFFFFF; fill-opacity:1.0; 
stroke:#FFFFFF; stroke-width:0; stroke-opacity:1; 
stroke-linecap:round; stroke-linejoin:round;fill-rule:evenodd;"
d="M 39587.5,52106.3
40059.9,52106.3
40059.9,51791.3
39587.5,51791.3
Z" /> 
<path style="fill:#FFFFFF; fill-opacity:1.0; 
stroke:#FFFFFF; stroke-width:0; stroke-opacity:1; 
stroke-linecap:round; stroke-linejoin:round;fill-rule:evenodd;"
d="M 53050.6,50876
53001.2,50885.8
52908,50924.4
52824.2,50980.4
52752.9,51051.7
52696.9,51135.5
52658.3,51228.7
52638.7,51327.5
52638.7,51428.4
52658.3,51527.2
52696.9,51620.4
52752.9,51704.2
52824.2,51775.5
52908,51831.5
53001.2,51870.1
53050.6,51879.9
53100.1,51889.8
53200.9,51889.8
53250.3,51879.9
53299.8,51870.1
53392.9,51831.5
53476.7,51775.5
53548,51704.2
53604,51620.4
53642.6,51527.2
53662.3,51428.4
53662.3,51327.5
53642.6,51228.7
53604,51135.5
53548,51051.7
53476.7,50980.4
53392.9,50924.4
53299.8,50885.8
53250.3,50876
53200.9,50866.1
53100.1,50866.1
Z" /> 
<path style="fill:#FFFFFF; fill-opacity:1.0; 
stroke:#FFFFFF; stroke-width:0; stroke-opacity:1; 
stroke-linecap:round; stroke-linejoin:round;fill-rule:evenodd;"
d="M 38682,51732.3
39154.4,51732.3
39154.4,51417.3
38682,51417.3
Z" /> 
<path style="fill:#FFFFFF; fill-opacity:1.0; 
stroke:#FFFFFF; stroke-width:0; stroke-opacity:1; 
stroke-linecap:round; stroke-linejoin:round;fill-rule:evenodd;"
d="M 53993,51637.8
54670.2,51637.8
54670.2,51315
53993,51315
Z" /> 
<path style="fill:#FFFFFF; fill-opacity:1.0; 
stroke:#FFFFFF; stroke-width:0; stroke-opacity:1; 
stroke-linecap:round; stroke-linejoin:round;fill-rule:evenodd;"
d="M 60587.5,51539.4
61264.6,51539.4
61264.6,51216.5
60587.5,51216.5
Z" /> 
<path style="fill:#FFFFFF; fill-opacity:1.0; 
stroke:#FFFFFF; stroke-width:0; stroke-opacity:1; 
stroke-linecap:round; stroke-linejoin:round;fill-rule:evenodd;"
d="M 39587.5,51358.3
40059.9,51358.3
40059.9,51043.3
39587.5,51043.3
Z" /> 
<path style="fill:#FFFFFF; fill-opacity:1.0; 
stroke:#FFFFFF; stroke-width:0; stroke-opacity:1; 
stroke-linecap:round; stroke-linejoin:round;fill-rule:evenodd;"
d="M 40311.9,51342.5
40989.1,51342.5
40989.1,51019.7
40311.9,51019.7
Z" /> 
<path style="fill:#FFFFFF; fill-opacity:1.0; 
stroke:#FFFFFF; stroke-width:0; stroke-opacity:1; 
stroke-linecap:round; stroke-linejoin:round;fill-rule:evenodd;"
d="M 61919.3,50502.2
61893.9,50507.3
61822.3,50536.9
61757.8,50580
61702.9,50634.9
61659.8,50699.3
61630.2,50771
61615,50847.1
61615,50924.6
61630.2,51000.7
61659.8,51072.3
61702.9,51136.8
61757.8,51191.6
61822.3,51234.7
61893.9,51264.4
61919.3,51269.4
61970,51279.5
62047.5,51279.5
62098.2,51269.4
62123.6,51264.4
62195.2,51234.7
62259.7,51191.6
62314.5,51136.8
62357.6,51072.3
62387.3,51000.7
62402.4,50924.6
62402.4,50847.1
62387.3,50771
62357.6,50699.3
62314.5,50634.9
62259.7,50580
62195.2,50536.9
62123.6,50507.3
62098.2,50502.2
62047.5,50492.1
61970,50492.1
Z" /> 
<path style="fill:#FFFFFF; fill-opacity:1.0; 
stroke:#FFFFFF; stroke-width:0; stroke-opacity:1; 
stroke-linecap:round; stroke-linejoin:round;fill-rule:evenodd;"
d="M 49859.1,51047.2
50536.3,51047.2
50536.3,50724.4
49859.1,50724.4
Z" /> 
<path style="fill:#FFFFFF; fill-opacity:1.0; 
stroke:#FFFFFF; stroke-width:0; stroke-opacity:1; 
stroke-linecap:round; stroke-linejoin:round;fill-rule:evenodd;"
d="M 60587.5,51047.2
61264.6,51047.2
61264.6,50724.4
60587.5,50724.4
Z" /> 
<path style="fill:#FFFFFF; fill-opacity:1.0; 
stroke:#FFFFFF; stroke-width:0; stroke-opacity:1; 
stroke-linecap:round; stroke-linejoin:round;fill-rule:evenodd;"
d="M 45134.7,51047.2
45811.9,51047.2
45811.9,50724.4
45134.7,50724.4
Z" /> 
<path style="fill:#FFFFFF; fill-opacity:1.0; 
stroke:#FFFFFF; stroke-width:0; stroke-opacity:1; 
stroke-linecap:round; stroke-linejoin:round;fill-rule:evenodd;"
d="M 41398.5,51033.5
41870.9,51033.5
41870.9,50580.7
41398.5,50580.7
Z" /> 
<path style="fill:#FFFFFF; fill-opacity:1.0; 
stroke:#FFFFFF; stroke-width:0; stroke-opacity:1; 
stroke-linecap:round; stroke-linejoin:round;fill-rule:evenodd;"
d="M 42182,50948.8
42859.1,50948.8
42859.1,47082.7
42182,47082.7
Z" /> 
<path style="fill:#FFFFFF; fill-opacity:1.0; 
stroke:#FFFFFF; stroke-width:0; stroke-opacity:1; 
stroke-linecap:round; stroke-linejoin:round;fill-rule:evenodd;"
d="M 39764.6,50649.6
40276.5,50649.6
40276.5,50137.8
39764.6,50137.8
Z" /> 
<path style="fill:#FFFFFF; fill-opacity:1.0; 
stroke:#FFFFFF; stroke-width:0; stroke-opacity:1; 
stroke-linecap:round; stroke-linejoin:round;fill-rule:evenodd;"
d="M 38662.3,50649.6
39174.1,50649.6
39174.1,50137.8
38662.3,50137.8
Z" /> 
<path style="fill:#FFFFFF; fill-opacity:1.0; 
stroke:#FFFFFF; stroke-width:0; stroke-opacity:1; 
stroke-linecap:round; stroke-linejoin:round;fill-rule:evenodd;"
d="M 57333.5,50641.7
58317.8,50641.7
58317.8,50145.7
57333.5,50145.7
Z" /> 
<path style="fill:#FFFFFF; fill-opacity:1.0; 
stroke:#FFFFFF; stroke-width:0; stroke-opacity:1; 
stroke-linecap:round; stroke-linejoin:round;fill-rule:evenodd;"
d="M 53888.7,50641.7
54872.9,50641.7
54872.9,50145.7
53888.7,50145.7
Z" /> 
<path style="fill:#FFFFFF; fill-opacity:1.0; 
stroke:#FFFFFF; stroke-width:0; stroke-opacity:1; 
stroke-linecap:round; stroke-linejoin:round;fill-rule:evenodd;"
d="M 55862.1,49008.2
55711.6,49070.5
55711.6,49070.5
55576.2,49161
55461,49276.1
55370.6,49411.5
55370.6,49411.5
55308.2,49562
55276.5,49721.7
55276.5,49884.6
55308.2,50044.3
55368.7,50190.3
55370.6,50194.8
55461,50330.2
55576.2,50445.3
55711.6,50535.8
55711.6,50535.8
55711.6,50535.8
55862.1,50598.1
56021.8,50629.9
56184.7,50629.9
56344.4,50598.1
56494.9,50535.8
56494.9,50535.8
56494.9,50535.8
56630.3,50445.3
56745.4,50330.2
56835.9,50194.8
56837.8,50190.3
56898.2,50044.3
56930,49884.6
56930,49721.7
56898.2,49562
56835.9,49411.5
56835.9,49411.5
56745.4,49276.1
56630.3,49161
56494.9,49070.5
56494.9,49070.5
56344.4,49008.2
56184.7,48976.4
56021.8,48976.4
Z" /> 
<path style="fill:#FFFFFF; fill-opacity:1.0; 
stroke:#FFFFFF; stroke-width:0; stroke-opacity:1; 
stroke-linecap:round; stroke-linejoin:round;fill-rule:evenodd;"
d="M 58697.7,50555.1
59374.9,50555.1
59374.9,50232.3
58697.7,50232.3
Z" /> 
<path style="fill:#FFFFFF; fill-opacity:1.0; 
stroke:#FFFFFF; stroke-width:0; stroke-opacity:1; 
stroke-linecap:round; stroke-linejoin:round;fill-rule:evenodd;"
d="M 60587.5,50555.1
61264.6,50555.1
61264.6,50232.3
60587.5,50232.3
Z" /> 
<path style="fill:#FFFFFF; fill-opacity:1.0; 
stroke:#FFFFFF; stroke-width:0; stroke-opacity:1; 
stroke-linecap:round; stroke-linejoin:round;fill-rule:evenodd;"
d="M 43715.4,48980.3
43714.5,48989.9
43711.7,48999.1
43707.1,49007.7
43701,49015.1
43693.6,49021.2
43685.1,49025.8
43675.8,49028.6
43666.2,49029.5
43426.1,49029.5
43426.1,50183.1
43666.2,50183.1
43675.8,50184
43685.1,50186.8
43693.6,50191.4
43701,50197.5
43707.1,50204.9
43711.7,50213.5
43714.5,50222.7
43715.4,50232.3
43715.4,50472.4
44869,50472.4
44869,50232.3
44869.9,50222.7
44872.7,50213.5
44877.3,50204.9
44883.4,50197.5
44890.8,50191.4
44899.4,50186.8
44908.6,50184
44918.2,50183.1
45158.3,50183.1
45158.3,49057.1
44890.6,49057.1
44890.6,50155.5
44889.7,50165.1
44886.9,50174.3
44882.3,50182.9
44876.2,50190.3
44868.8,50196.4
44860.3,50201
44851,50203.8
44841.4,50204.7
43743,50204.7
43733.4,50203.8
43724.2,50201
43715.7,50196.4
43708.2,50190.3
43702.1,50182.9
43697.5,50174.3
43694.7,50165.1
43693.8,50155.5
43693.8,49057.1
43694.7,49047.5
43697.5,49038.3
43702.1,49029.7
43708.2,49022.3
43715.7,49016.2
43724.2,49011.6
43733.4,49008.8
43743,49007.9
44841.4,49007.9
44851,49008.8
44860.3,49011.6
44868.8,49016.2
44876.2,49022.3
44882.3,49029.7
44886.9,49038.3
44889.7,49047.5
44890.6,49057.1
45158.3,49057.1
45158.3,49029.5
44918.2,49029.5
44908.6,49028.6
44899.4,49025.8
44890.8,49021.2
44883.4,49015.1
44877.3,49007.7
44872.7,48999.1
44869.9,48989.9
44869,48980.3
44869,48740.2
43715.4,48740.2
Z" /> 
<path style="fill:#FFFFFF; fill-opacity:1.0; 
stroke:#FFFFFF; stroke-width:0; stroke-opacity:1; 
stroke-linecap:round; stroke-linejoin:round;fill-rule:evenodd;"
d="M 43859.1,50039.4
44725.3,50039.4
44725.3,49173.2
43859.1,49173.2
Z" /> 
<path style="fill:#FFFFFF; fill-opacity:1.0; 
stroke:#FFFFFF; stroke-width:0; stroke-opacity:1; 
stroke-linecap:round; stroke-linejoin:round;fill-rule:evenodd;"
d="M 41398.5,50403.5
41870.9,50403.5
41870.9,49950.8
41398.5,49950.8
Z" /> 
<path style="fill:#FFFFFF; fill-opacity:1.0; 
stroke:#FFFFFF; stroke-width:0; stroke-opacity:1; 
stroke-linecap:round; stroke-linejoin:round;fill-rule:evenodd;"
d="M 61919.3,49518
61893.9,49523
61822.3,49552.7
61757.8,49595.8
61702.9,49650.6
61659.8,49715.1
61630.2,49786.7
61625.1,49812.1
61615,49862.8
61615,49940.4
61624.2,49986.2
61630.2,50016.4
61659.8,50088.1
61702.9,50152.5
61757.8,50207.4
61822.3,50250.5
61893.9,50280.1
61919.3,50285.2
61970,50295.3
62047.5,50295.3
62098.2,50285.2
62123.6,50280.1
62195.2,50250.5
62259.7,50207.4
62314.5,50152.5
62357.6,50088.1
62387.3,50016.4
62393.3,49986.2
62402.4,49940.4
62402.4,49862.8
62392.4,49812.1
62387.3,49786.7
62357.6,49715.1
62314.5,49650.6
62259.7,49595.8
62195.2,49552.7
62123.6,49523
62098.2,49518
62047.5,49507.9
61970,49507.9
Z" /> 
<path style="fill:#FFFFFF; fill-opacity:1.0; 
stroke:#FFFFFF; stroke-width:0; stroke-opacity:1; 
stroke-linecap:round; stroke-linejoin:round;fill-rule:evenodd;"
d="M 57333.5,49960.6
58317.8,49960.6
58317.8,49645.7
57333.5,49645.7
Z" /> 
<path style="fill:#FFFFFF; fill-opacity:1.0; 
stroke:#FFFFFF; stroke-width:0; stroke-opacity:1; 
stroke-linecap:round; stroke-linejoin:round;fill-rule:evenodd;"
d="M 53888.7,49960.6
54872.9,49960.6
54872.9,49645.7
53888.7,49645.7
Z" /> 
<path style="fill:#FFFFFF; fill-opacity:1.0; 
stroke:#FFFFFF; stroke-width:0; stroke-opacity:1; 
stroke-linecap:round; stroke-linejoin:round;fill-rule:evenodd;"
d="M 60587.5,49570.9
61264.6,49570.9
61264.6,49248
60587.5,49248
Z" /> 
<path style="fill:#FFFFFF; fill-opacity:1.0; 
stroke:#FFFFFF; stroke-width:0; stroke-opacity:1; 
stroke-linecap:round; stroke-linejoin:round;fill-rule:evenodd;"
d="M 57333.5,49460.6
58317.8,49460.6
58317.8,48964.6
57333.5,48964.6
Z" /> 
<path style="fill:#FFFFFF; fill-opacity:1.0; 
stroke:#FFFFFF; stroke-width:0; stroke-opacity:1; 
stroke-linecap:round; stroke-linejoin:round;fill-rule:evenodd;"
d="M 53888.7,49460.6
54872.9,49460.6
54872.9,48964.6
53888.7,48964.6
Z" /> 
<path style="fill:#FFFFFF; fill-opacity:1.0; 
stroke:#FFFFFF; stroke-width:0; stroke-opacity:1; 
stroke-linecap:round; stroke-linejoin:round;fill-rule:evenodd;"
d="M 51182,49429.1
51615,49429.1
51615,48956.7
51182,48956.7
Z" /> 
<path style="fill:#FFFFFF; fill-opacity:1.0; 
stroke:#FFFFFF; stroke-width:0; stroke-opacity:1; 
stroke-linecap:round; stroke-linejoin:round;fill-rule:evenodd;"
d="M 50355.2,49429.1
50788.3,49429.1
50788.3,48956.7
50355.2,48956.7
Z" /> 
<path style="fill:#FFFFFF; fill-opacity:1.0; 
stroke:#FFFFFF; stroke-width:0; stroke-opacity:1; 
stroke-linecap:round; stroke-linejoin:round;fill-rule:evenodd;"
d="M 48386.7,49370.1
48780.4,49370.1
48780.4,48897.6
48386.7,48897.6
Z" /> 
<path style="fill:#FFFFFF; fill-opacity:1.0; 
stroke:#FFFFFF; stroke-width:0; stroke-opacity:1; 
stroke-linecap:round; stroke-linejoin:round;fill-rule:evenodd;"
d="M 49056,49370.1
49449.7,49370.1
49449.7,48897.6
49056,48897.6
Z" /> 
<path style="fill:#FFFFFF; fill-opacity:1.0; 
stroke:#FFFFFF; stroke-width:0; stroke-opacity:1; 
stroke-linecap:round; stroke-linejoin:round;fill-rule:evenodd;"
d="M 45827.6,49360.2
46300.1,49360.2
46300.1,48907.5
45827.6,48907.5
Z" /> 
<path style="fill:#FFFFFF; fill-opacity:1.0; 
stroke:#FFFFFF; stroke-width:0; stroke-opacity:1; 
stroke-linecap:round; stroke-linejoin:round;fill-rule:evenodd;"
d="M 46493,49354.3
46815.8,49354.3
46815.8,48677.2
46493,48677.2
Z" /> 
<path style="fill:#FFFFFF; fill-opacity:1.0; 
stroke:#FFFFFF; stroke-width:0; stroke-opacity:1; 
stroke-linecap:round; stroke-linejoin:round;fill-rule:evenodd;"
d="M 45311.9,49354.3
45634.7,49354.3
45634.7,48677.2
45311.9,48677.2
Z" /> 
<path style="fill:#FFFFFF; fill-opacity:1.0; 
stroke:#FFFFFF; stroke-width:0; stroke-opacity:1; 
stroke-linecap:round; stroke-linejoin:round;fill-rule:evenodd;"
d="M 61919.3,48533.7
61893.9,48538.8
61822.3,48568.4
61757.8,48611.5
61702.9,48666.4
61659.8,48730.8
61630.2,48802.5
61630.2,48802.5
61615,48878.5
61615,48956.1
61623.6,48999.1
61630.2,49032.2
61659.8,49103.8
61702.9,49168.3
61757.8,49223.1
61822.3,49266.2
61893.9,49295.9
61919.3,49300.9
61970,49311
62047.5,49311
62098.2,49300.9
62123.6,49295.9
62195.2,49266.2
62259.7,49223.1
62314.5,49168.3
62357.6,49103.8
62387.3,49032.2
62393.9,48999.1
62402.4,48956.1
62402.4,48878.5
62387.3,48802.5
62387.3,48802.5
62357.6,48730.8
62314.5,48666.4
62259.7,48611.5
62195.2,48568.4
62123.6,48538.8
62098.2,48533.7
62047.5,48523.6
61970,48523.6
Z" /> 
<path style="fill:#FFFFFF; fill-opacity:1.0; 
stroke:#FFFFFF; stroke-width:0; stroke-opacity:1; 
stroke-linecap:round; stroke-linejoin:round;fill-rule:evenodd;"
d="M 51808,49157.5
52130.8,49157.5
52130.8,48480.3
51808,48480.3
Z" /> 
<path style="fill:#FFFFFF; fill-opacity:1.0; 
stroke:#FFFFFF; stroke-width:0; stroke-opacity:1; 
stroke-linecap:round; stroke-linejoin:round;fill-rule:evenodd;"
d="M 39134.7,49094.5
40000.9,49094.5
40000.9,48543.3
39134.7,48543.3
Z" /> 
<path style="fill:#FFFFFF; fill-opacity:1.0; 
stroke:#FFFFFF; stroke-width:0; stroke-opacity:1; 
stroke-linecap:round; stroke-linejoin:round;fill-rule:evenodd;"
d="M 60587.5,49078.7
61264.6,49078.7
61264.6,48755.9
60587.5,48755.9
Z" /> 
<path style="fill:#FFFFFF; fill-opacity:1.0; 
stroke:#FFFFFF; stroke-width:0; stroke-opacity:1; 
stroke-linecap:round; stroke-linejoin:round;fill-rule:evenodd;"
d="M 48386.7,48740.2
48780.4,48740.2
48780.4,48267.7
48386.7,48267.7
Z" /> 
<path style="fill:#FFFFFF; fill-opacity:1.0; 
stroke:#FFFFFF; stroke-width:0; stroke-opacity:1; 
stroke-linecap:round; stroke-linejoin:round;fill-rule:evenodd;"
d="M 49056,48740.2
49449.7,48740.2
49449.7,48267.7
49056,48267.7
Z" /> 
<path style="fill:#FFFFFF; fill-opacity:1.0; 
stroke:#FFFFFF; stroke-width:0; stroke-opacity:1; 
stroke-linecap:round; stroke-linejoin:round;fill-rule:evenodd;"
d="M 45827.6,48730.3
46300.1,48730.3
46300.1,48277.6
45827.6,48277.6
Z" /> 
<path style="fill:#FFFFFF; fill-opacity:1.0; 
stroke:#FFFFFF; stroke-width:0; stroke-opacity:1; 
stroke-linecap:round; stroke-linejoin:round;fill-rule:evenodd;"
d="M 51182,48681.1
51615,48681.1
51615,48208.7
51182,48208.7
Z" /> 
<path style="fill:#FFFFFF; fill-opacity:1.0; 
stroke:#FFFFFF; stroke-width:0; stroke-opacity:1; 
stroke-linecap:round; stroke-linejoin:round;fill-rule:evenodd;"
d="M 50355.2,48681.1
50788.3,48681.1
50788.3,48208.7
50355.2,48208.7
Z" /> 
<path style="fill:#FFFFFF; fill-opacity:1.0; 
stroke:#FFFFFF; stroke-width:0; stroke-opacity:1; 
stroke-linecap:round; stroke-linejoin:round;fill-rule:evenodd;"
d="M 60587.5,48586.6
61264.6,48586.6
61264.6,48263.8
60587.5,48263.8
Z" /> 
<path style="fill:#FFFFFF; fill-opacity:1.0; 
stroke:#FFFFFF; stroke-width:0; stroke-opacity:1; 
stroke-linecap:round; stroke-linejoin:round;fill-rule:evenodd;"
d="M 46985.1,48566.9
47701.7,48566.9
47701.7,47889.8
46985.1,47889.8
Z" /> 
<path style="fill:#FFFFFF; fill-opacity:1.0; 
stroke:#FFFFFF; stroke-width:0; stroke-opacity:1; 
stroke-linecap:round; stroke-linejoin:round;fill-rule:evenodd;"
d="M 49642.6,48566.9
49965.4,48566.9
49965.4,47889.8
49642.6,47889.8
Z" /> 
<path style="fill:#FFFFFF; fill-opacity:1.0; 
stroke:#FFFFFF; stroke-width:0; stroke-opacity:1; 
stroke-linecap:round; stroke-linejoin:round;fill-rule:evenodd;"
d="M 44544.2,48488.2
45221.3,48488.2
45221.3,48165.4
44544.2,48165.4
Z" /> 
<path style="fill:#FFFFFF; fill-opacity:1.0; 
stroke:#FFFFFF; stroke-width:0; stroke-opacity:1; 
stroke-linecap:round; stroke-linejoin:round;fill-rule:evenodd;"
d="M 57221.3,48084.9
57226.6,48089.2
57232.7,48096.7
57237.3,48105.2
57240.1,48114.4
57241,48124
57241,48488.2
57918.2,48488.2
57918.2,48165.4
57593.4,48165.4
57583.8,48164.4
57574.6,48161.6
57566,48157.1
57558.6,48150.9
57552.5,48143.5
57547.9,48135
57545.1,48125.7
57544.2,48116.1
57544.2,47397.6
57221.3,47397.6
Z" /> 
<path style="fill:#FFFFFF; fill-opacity:1.0; 
stroke:#FFFFFF; stroke-width:0; stroke-opacity:1; 
stroke-linecap:round; stroke-linejoin:round;fill-rule:evenodd;"
d="M 64815.6,46923.8
64743.3,46938.2
64686.9,46961.6
64607.2,46994.6
64484.7,47076.4
64380.5,47180.6
64298.6,47303.2
64242.2,47439.3
64213.5,47583.8
64213.5,47731.2
64242.2,47875.7
64298.6,48011.8
64380.5,48134.3
64484.7,48238.5
64607.2,48320.4
64686.9,48353.4
64743.3,48376.8
64815.6,48391.1
64887.8,48405.5
65035.2,48405.5
65107.4,48391.1
65179.7,48376.8
65236.1,48353.4
65315.8,48320.4
65438.3,48238.5
65542.5,48134.3
65624.4,48011.8
65680.8,47875.7
65709.5,47731.2
65709.5,47583.8
65680.8,47439.3
65624.4,47303.2
65542.5,47180.6
65438.3,47076.4
65315.8,46994.6
65236.1,46961.6
65179.7,46938.2
65107.4,46923.8
65035.2,46909.4
64887.8,46909.4
Z" /> 
<path style="fill:#FFFFFF; fill-opacity:1.0; 
stroke:#FFFFFF; stroke-width:0; stroke-opacity:1; 
stroke-linecap:round; stroke-linejoin:round;fill-rule:evenodd;"
d="M 55207.6,48228.3
55522.5,48228.3
55522.5,47716.5
55207.6,47716.5
Z" /> 
<path style="fill:#FFFFFF; fill-opacity:1.0; 
stroke:#FFFFFF; stroke-width:0; stroke-opacity:1; 
stroke-linecap:round; stroke-linejoin:round;fill-rule:evenodd;"
d="M 55699.7,48228.3
56014.6,48228.3
56014.6,47716.5
55699.7,47716.5
Z" /> 
<path style="fill:#FFFFFF; fill-opacity:1.0; 
stroke:#FFFFFF; stroke-width:0; stroke-opacity:1; 
stroke-linecap:round; stroke-linejoin:round;fill-rule:evenodd;"
d="M 56683.9,48228.3
56998.9,48228.3
56998.9,47716.5
56683.9,47716.5
Z" /> 
<path style="fill:#FFFFFF; fill-opacity:1.0; 
stroke:#FFFFFF; stroke-width:0; stroke-opacity:1; 
stroke-linecap:round; stroke-linejoin:round;fill-rule:evenodd;"
d="M 39134.7,48228.3
40000.9,48228.3
40000.9,47677.2
39134.7,47677.2
Z" /> 
<path style="fill:#FFFFFF; fill-opacity:1.0; 
stroke:#FFFFFF; stroke-width:0; stroke-opacity:1; 
stroke-linecap:round; stroke-linejoin:round;fill-rule:evenodd;"
d="M 56191.8,48228.3
56506.8,48228.3
56506.8,47716.5
56191.8,47716.5
Z" /> 
<path style="fill:#FFFFFF; fill-opacity:1.0; 
stroke:#FFFFFF; stroke-width:0; stroke-opacity:1; 
stroke-linecap:round; stroke-linejoin:round;fill-rule:evenodd;"
d="M 44538.3,47972.4
44991,47972.4
44991,47500
44538.3,47500
Z" /> 
<path style="fill:#FFFFFF; fill-opacity:1.0; 
stroke:#FFFFFF; stroke-width:0; stroke-opacity:1; 
stroke-linecap:round; stroke-linejoin:round;fill-rule:evenodd;"
d="M 45168.2,47972.4
45620.9,47972.4
45620.9,47500
45168.2,47500
Z" /> 
<path style="fill:#FFFFFF; fill-opacity:1.0; 
stroke:#FFFFFF; stroke-width:0; stroke-opacity:1; 
stroke-linecap:round; stroke-linejoin:round;fill-rule:evenodd;"
d="M 46359.1,47657.5
51280.4,47657.5
51280.4,46988.2
46359.1,46988.2
Z" /> 
<path style="fill:#FFFFFF; fill-opacity:1.0; 
stroke:#FFFFFF; stroke-width:0; stroke-opacity:1; 
stroke-linecap:round; stroke-linejoin:round;fill-rule:evenodd;"
d="M 56683.9,47362.2
56998.9,47362.2
56998.9,46850.4
56683.9,46850.4
Z" /> 
<path style="fill:#FFFFFF; fill-opacity:1.0; 
stroke:#FFFFFF; stroke-width:0; stroke-opacity:1; 
stroke-linecap:round; stroke-linejoin:round;fill-rule:evenodd;"
d="M 55207.6,47362.2
55522.5,47362.2
55522.5,46850.4
55207.6,46850.4
Z" /> 
<path style="fill:#FFFFFF; fill-opacity:1.0; 
stroke:#FFFFFF; stroke-width:0; stroke-opacity:1; 
stroke-linecap:round; stroke-linejoin:round;fill-rule:evenodd;"
d="M 56191.8,47362.2
56506.8,47362.2
56506.8,46850.4
56191.8,46850.4
Z" /> 
<path style="fill:#FFFFFF; fill-opacity:1.0; 
stroke:#FFFFFF; stroke-width:0; stroke-opacity:1; 
stroke-linecap:round; stroke-linejoin:round;fill-rule:evenodd;"
d="M 55699.7,47362.2
56014.6,47362.2
56014.6,46850.4
55699.7,46850.4
Z" /> 
<path style="fill:#FFFFFF; fill-opacity:1.0; 
stroke:#FFFFFF; stroke-width:0; stroke-opacity:1; 
stroke-linecap:round; stroke-linejoin:round;fill-rule:evenodd;"
d="M 39134.7,47322.8
40000.9,47322.8
40000.9,46771.7
39134.7,46771.7
Z" /> 
<path style="fill:#FFFFFF; fill-opacity:1.0; 
stroke:#FFFFFF; stroke-width:0; stroke-opacity:1; 
stroke-linecap:round; stroke-linejoin:round;fill-rule:evenodd;"
d="M 44544.2,47307.1
45221.3,47307.1
45221.3,46984.3
44544.2,46984.3
Z" /> 
<path style="fill:#FFFFFF; fill-opacity:1.0; 
stroke:#FFFFFF; stroke-width:0; stroke-opacity:1; 
stroke-linecap:round; stroke-linejoin:round;fill-rule:evenodd;"
d="M 52516.6,46913.4
53193.8,46913.4
53193.8,46590.6
52516.6,46590.6
Z" /> 
<path style="fill:#FFFFFF; fill-opacity:1.0; 
stroke:#FFFFFF; stroke-width:0; stroke-opacity:1; 
stroke-linecap:round; stroke-linejoin:round;fill-rule:evenodd;"
d="M 45453.6,46752
46122.9,46752
46122.9,41830.7
45453.6,41830.7
Z" /> 
<path style="fill:#FFFFFF; fill-opacity:1.0; 
stroke:#FFFFFF; stroke-width:0; stroke-opacity:1; 
stroke-linecap:round; stroke-linejoin:round;fill-rule:evenodd;"
d="M 51516.6,46752
52185.9,46752
52185.9,41830.7
51516.6,41830.7
Z" /> 
<path style="fill:#FFFFFF; fill-opacity:1.0; 
stroke:#FFFFFF; stroke-width:0; stroke-opacity:1; 
stroke-linecap:round; stroke-linejoin:round;fill-rule:evenodd;"
d="M 44544.2,46618.1
45221.3,46618.1
45221.3,46295.3
44544.2,46295.3
Z" /> 
<path style="fill:#FFFFFF; fill-opacity:1.0; 
stroke:#FFFFFF; stroke-width:0; stroke-opacity:1; 
stroke-linecap:round; stroke-linejoin:round;fill-rule:evenodd;"
d="M 39134.7,46496.1
40000.9,46496.1
40000.9,45944.9
39134.7,45944.9
Z" /> 
<path style="fill:#FFFFFF; fill-opacity:1.0; 
stroke:#FFFFFF; stroke-width:0; stroke-opacity:1; 
stroke-linecap:round; stroke-linejoin:round;fill-rule:evenodd;"
d="M 57391.7,45384.1
57366.3,45389.1
57294.7,45418.8
57230.2,45461.9
57175.4,45516.7
57132.3,45581.2
57102.6,45652.9
57087.5,45728.9
57087.5,45806.5
57102.6,45882.6
57132.3,45954.2
57175.4,46018.7
57230.2,46073.5
57294.7,46116.6
57366.3,46146.3
57391.7,46151.3
57442.4,46161.4
57520,46161.4
57570.7,46151.3
57596,46146.3
57667.7,46116.6
57732.2,46073.5
57787,46018.7
57830.1,45954.2
57859.8,45882.6
57874.9,45806.5
57874.9,45728.9
57859.8,45652.9
57830.1,45581.2
57787,45516.7
57732.2,45461.9
57667.7,45418.8
57596,45389.1
57570.7,45384.1
57520,45374
57442.4,45374
Z" /> 
<path style="fill:#FFFFFF; fill-opacity:1.0; 
stroke:#FFFFFF; stroke-width:0; stroke-opacity:1; 
stroke-linecap:round; stroke-linejoin:round;fill-rule:evenodd;"
d="M 64872,45384.1
64846.7,45389.1
64775,45418.8
64710.5,45461.9
64655.7,45516.7
64612.6,45581.2
64582.9,45652.9
64567.8,45728.9
64567.8,45806.5
64582.9,45882.6
64612.6,45954.2
64655.7,46018.7
64710.5,46073.5
64775,46116.6
64846.7,46146.3
64872,46151.3
64922.7,46161.4
65000.3,46161.4
65051,46151.3
65076.3,46146.3
65148,46116.6
65212.5,46073.5
65267.3,46018.7
65310.4,45954.2
65340.1,45882.6
65355.2,45806.5
65355.2,45728.9
65340.1,45652.9
65310.4,45581.2
65267.3,45516.7
65212.5,45461.9
65148,45418.8
65076.3,45389.1
65051,45384.1
65000.3,45374
64922.7,45374
Z" /> 
<path style="fill:#FFFFFF; fill-opacity:1.0; 
stroke:#FFFFFF; stroke-width:0; stroke-opacity:1; 
stroke-linecap:round; stroke-linejoin:round;fill-rule:evenodd;"
d="M 39134.7,45629.9
40000.9,45629.9
40000.9,45078.7
39134.7,45078.7
Z" /> 
<path style="fill:#FFFFFF; fill-opacity:1.0; 
stroke:#FFFFFF; stroke-width:0; stroke-opacity:1; 
stroke-linecap:round; stroke-linejoin:round;fill-rule:evenodd;"
d="M 67297,44510.2
67250.8,44514.7
67161.7,44541.7
67161.7,44541.7
67079.6,44585.6
67007.7,44644.6
66948.7,44716.6
66904.8,44798.6
66904.8,44798.6
66877.8,44887.7
66868.7,44980.3
66877.8,45072.9
66904.8,45162
66904.8,45162
66948.7,45244.1
67007.7,45316
67079.6,45375
67161.7,45418.9
67161.7,45418.9
67250.8,45445.9
67297,45450.5
67320.2,45452.8
67602.8,45452.8
67626,45450.5
67672.2,45445.9
67761.3,45418.9
67761.3,45418.9
67843.4,45375
67915.3,45316
67974.3,45244.1
68018.2,45162
68018.2,45162
68045.2,45072.9
68054.3,44980.3
68045.2,44887.7
68018.2,44798.6
68018.2,44798.6
67974.3,44716.6
67915.3,44644.6
67843.4,44585.6
67761.3,44541.7
67761.3,44541.7
67672.2,44514.7
67626,44510.2
67602.8,44507.9
67320.2,44507.9
Z" /> 
<path style="fill:#FFFFFF; fill-opacity:1.0; 
stroke:#FFFFFF; stroke-width:0; stroke-opacity:1; 
stroke-linecap:round; stroke-linejoin:round;fill-rule:evenodd;"
d="M 59816.7,44510.2
59770.5,44514.7
59681.4,44541.7
59681.4,44541.7
59599.3,44585.6
59527.4,44644.6
59468.3,44716.6
59424.5,44798.6
59424.5,44798.6
59397.5,44887.7
59388.3,44980.3
59397.5,45072.9
59424.5,45162
59424.5,45162
59468.3,45244.1
59527.4,45316
59599.3,45375
59681.4,45418.9
59681.4,45418.9
59770.5,45445.9
59816.7,45450.5
59839.9,45452.8
60122.5,45452.8
60145.6,45450.5
60191.9,45445.9
60281,45418.9
60281,45418.9
60363,45375
60435,45316
60494,45244.1
60537.9,45162
60537.9,45162
60564.9,45072.9
60574,44980.3
60564.9,44887.7
60537.9,44798.6
60537.9,44798.6
60494,44716.6
60435,44644.6
60363,44585.6
60281,44541.7
60281,44541.7
60191.9,44514.7
60145.6,44510.2
60122.5,44507.9
59839.9,44507.9
Z" /> 
<path style="fill:#FFFFFF; fill-opacity:1.0; 
stroke:#FFFFFF; stroke-width:0; stroke-opacity:1; 
stroke-linecap:round; stroke-linejoin:round;fill-rule:evenodd;"
d="M 54816.7,44510.2
54770.5,44514.7
54681.4,44541.7
54681.4,44541.7
54599.3,44585.6
54527.4,44644.6
54468.3,44716.6
54424.5,44798.6
54424.5,44798.6
54397.5,44887.7
54388.3,44980.3
54397.5,45072.9
54424.5,45162
54424.5,45162
54468.3,45244.1
54527.4,45316
54599.3,45375
54681.4,45418.9
54681.4,45418.9
54770.5,45445.9
54816.7,45450.5
54839.9,45452.8
55122.5,45452.8
55145.6,45450.5
55191.9,45445.9
55281,45418.9
55281,45418.9
55363,45375
55435,45316
55494,45244.1
55537.9,45162
55537.9,45162
55564.9,45072.9
55574,44980.3
55564.9,44887.7
55537.9,44798.6
55537.9,44798.6
55494,44716.6
55435,44644.6
55363,44585.6
55281,44541.7
55281,44541.7
55191.9,44514.7
55145.6,44510.2
55122.5,44507.9
54839.9,44507.9
Z" /> 
<path style="fill:#FFFFFF; fill-opacity:1.0; 
stroke:#FFFFFF; stroke-width:0; stroke-opacity:1; 
stroke-linecap:round; stroke-linejoin:round;fill-rule:evenodd;"
d="M 62297,44510.2
62250.8,44514.7
62161.7,44541.7
62161.7,44541.7
62079.6,44585.6
62007.7,44644.6
61948.7,44716.6
61904.8,44798.6
61904.8,44798.6
61877.8,44887.7
61868.7,44980.3
61877.8,45072.9
61904.8,45162
61904.8,45162
61948.7,45244.1
62007.7,45316
62079.6,45375
62161.7,45418.9
62161.7,45418.9
62250.8,45445.9
62297,45450.5
62320.2,45452.8
62602.8,45452.8
62626,45450.5
62672.2,45445.9
62761.3,45418.9
62761.3,45418.9
62843.4,45375
62915.3,45316
62974.3,45244.1
63018.2,45162
63018.2,45162
63045.2,45072.9
63054.3,44980.3
63045.2,44887.7
63018.2,44798.6
63018.2,44798.6
62974.3,44716.6
62915.3,44644.6
62843.4,44585.6
62761.3,44541.7
62761.3,44541.7
62672.2,44514.7
62626,44510.2
62602.8,44507.9
62320.2,44507.9
Z" /> 
<path style="fill:#FFFFFF; fill-opacity:1.0; 
stroke:#FFFFFF; stroke-width:0; stroke-opacity:1; 
stroke-linecap:round; stroke-linejoin:round;fill-rule:evenodd;"
d="M 43245,45417.3
43567.8,45417.3
43567.8,44740.2
43245,44740.2
Z" /> 
<path style="fill:#FFFFFF; fill-opacity:1.0; 
stroke:#FFFFFF; stroke-width:0; stroke-opacity:1; 
stroke-linecap:round; stroke-linejoin:round;fill-rule:evenodd;"
d="M 42378.8,45043.3
43056,45043.3
43056,44720.5
42378.8,44720.5
Z" /> 
<path style="fill:#FFFFFF; fill-opacity:1.0; 
stroke:#FFFFFF; stroke-width:0; stroke-opacity:1; 
stroke-linecap:round; stroke-linejoin:round;fill-rule:evenodd;"
d="M 53185.9,44826.8
53508.7,44826.8
53508.7,44149.6
53185.9,44149.6
Z" /> 
<path style="fill:#FFFFFF; fill-opacity:1.0; 
stroke:#FFFFFF; stroke-width:0; stroke-opacity:1; 
stroke-linecap:round; stroke-linejoin:round;fill-rule:evenodd;"
d="M 53678,44826.8
54000.9,44826.8
54000.9,44149.6
53678,44149.6
Z" /> 
<path style="fill:#FFFFFF; fill-opacity:1.0; 
stroke:#FFFFFF; stroke-width:0; stroke-opacity:1; 
stroke-linecap:round; stroke-linejoin:round;fill-rule:evenodd;"
d="M 39134.7,44763.8
40000.9,44763.8
40000.9,44212.6
39134.7,44212.6
Z" /> 
<path style="fill:#FFFFFF; fill-opacity:1.0; 
stroke:#FFFFFF; stroke-width:0; stroke-opacity:1; 
stroke-linecap:round; stroke-linejoin:round;fill-rule:evenodd;"
d="M 41575.7,44704.7
42087.5,44704.7
42087.5,44192.9
41575.7,44192.9
Z" /> 
<path style="fill:#FFFFFF; fill-opacity:1.0; 
stroke:#FFFFFF; stroke-width:0; stroke-opacity:1; 
stroke-linecap:round; stroke-linejoin:round;fill-rule:evenodd;"
d="M 42481.2,44488.2
42796.1,44488.2
42796.1,44015.7
42481.2,44015.7
Z" /> 
<path style="fill:#FFFFFF; fill-opacity:1.0; 
stroke:#FFFFFF; stroke-width:0; stroke-opacity:1; 
stroke-linecap:round; stroke-linejoin:round;fill-rule:evenodd;"
d="M 43229.2,44488.2
43544.2,44488.2
43544.2,44015.7
43229.2,44015.7
Z" /> 
<path style="fill:#FFFFFF; fill-opacity:1.0; 
stroke:#FFFFFF; stroke-width:0; stroke-opacity:1; 
stroke-linecap:round; stroke-linejoin:round;fill-rule:evenodd;"
d="M 41575.7,43602.4
42087.5,43602.4
42087.5,43090.6
41575.7,43090.6
Z" /> 
<path style="fill:#FFFFFF; fill-opacity:1.0; 
stroke:#FFFFFF; stroke-width:0; stroke-opacity:1; 
stroke-linecap:round; stroke-linejoin:round;fill-rule:evenodd;"
d="M 42855.2,43582.7
43170.2,43582.7
43170.2,43110.2
42855.2,43110.2
Z" /> 
<path style="fill:#FFFFFF; fill-opacity:1.0; 
stroke:#FFFFFF; stroke-width:0; stroke-opacity:1; 
stroke-linecap:round; stroke-linejoin:round;fill-rule:evenodd;"
d="M 62297,42541.6
62250.8,42546.2
62161.7,42573.2
62161.7,42573.2
62079.6,42617.1
62007.7,42676.1
61948.7,42748.1
61904.8,42830.1
61904.8,42830.1
61877.8,42919.2
61868.7,43011.8
61877.8,43104.4
61904.8,43193.5
61904.8,43193.5
61948.7,43275.6
62007.7,43347.5
62079.6,43406.5
62161.7,43450.4
62161.7,43450.4
62250.8,43477.4
62297,43482
62320.2,43484.3
62602.8,43484.3
62626,43482
62672.2,43477.4
62761.3,43450.4
62761.3,43450.4
62843.4,43406.5
62915.3,43347.5
62974.3,43275.6
63018.2,43193.5
63018.2,43193.5
63045.2,43104.4
63054.3,43011.8
63045.2,42919.2
63018.2,42830.1
63018.2,42830.1
62974.3,42748.1
62915.3,42676.1
62843.4,42617.1
62761.3,42573.2
62761.3,42573.2
62672.2,42546.2
62626,42541.6
62602.8,42539.4
62320.2,42539.4
Z" /> 
<path style="fill:#FFFFFF; fill-opacity:1.0; 
stroke:#FFFFFF; stroke-width:0; stroke-opacity:1; 
stroke-linecap:round; stroke-linejoin:round;fill-rule:evenodd;"
d="M 67297,42541.6
67250.8,42546.2
67161.7,42573.2
67161.7,42573.2
67079.6,42617.1
67007.7,42676.1
66948.7,42748.1
66904.8,42830.1
66904.8,42830.1
66877.8,42919.2
66868.7,43011.8
66877.8,43104.4
66904.8,43193.5
66904.8,43193.5
66948.7,43275.6
67007.7,43347.5
67079.6,43406.5
67161.7,43450.4
67161.7,43450.4
67250.8,43477.4
67297,43482
67320.2,43484.3
67602.8,43484.3
67626,43482
67672.2,43477.4
67761.3,43450.4
67761.3,43450.4
67843.4,43406.5
67915.3,43347.5
67974.3,43275.6
68018.2,43193.5
68018.2,43193.5
68045.2,43104.4
68054.3,43011.8
68045.2,42919.2
68018.2,42830.1
68018.2,42830.1
67974.3,42748.1
67915.3,42676.1
67843.4,42617.1
67761.3,42573.2
67761.3,42573.2
67672.2,42546.2
67626,42541.6
67602.8,42539.4
67320.2,42539.4
Z" /> 
<path style="fill:#FFFFFF; fill-opacity:1.0; 
stroke:#FFFFFF; stroke-width:0; stroke-opacity:1; 
stroke-linecap:round; stroke-linejoin:round;fill-rule:evenodd;"
d="M 59816.7,42541.6
59770.5,42546.2
59681.4,42573.2
59681.4,42573.2
59599.3,42617.1
59527.4,42676.1
59468.3,42748.1
59424.5,42830.1
59424.5,42830.1
59397.5,42919.2
59388.3,43011.8
59397.5,43104.4
59424.5,43193.5
59424.5,43193.5
59468.3,43275.6
59527.4,43347.5
59599.3,43406.5
59681.4,43450.4
59681.4,43450.4
59770.5,43477.4
59816.7,43482
59839.9,43484.3
60122.5,43484.3
60145.6,43482
60191.9,43477.4
60281,43450.4
60281,43450.4
60363,43406.5
60435,43347.5
60494,43275.6
60537.9,43193.5
60537.9,43193.5
60564.9,43104.4
60574,43011.8
60564.9,42919.2
60537.9,42830.1
60537.9,42830.1
60494,42748.1
60435,42676.1
60363,42617.1
60281,42573.2
60281,42573.2
60191.9,42546.2
60145.6,42541.6
60122.5,42539.4
59839.9,42539.4
Z" /> 
<path style="fill:#FFFFFF; fill-opacity:1.0; 
stroke:#FFFFFF; stroke-width:0; stroke-opacity:1; 
stroke-linecap:round; stroke-linejoin:round;fill-rule:evenodd;"
d="M 54816.7,42541.6
54770.5,42546.2
54681.4,42573.2
54681.4,42573.2
54599.3,42617.1
54527.4,42676.1
54468.3,42748.1
54424.5,42830.1
54424.5,42830.1
54397.5,42919.2
54388.3,43011.8
54397.5,43104.4
54424.5,43193.5
54424.5,43193.5
54468.3,43275.6
54527.4,43347.5
54599.3,43406.5
54681.4,43450.4
54681.4,43450.4
54770.5,43477.4
54816.7,43482
54839.9,43484.3
55122.5,43484.3
55145.6,43482
55191.9,43477.4
55281,43450.4
55281,43450.4
55363,43406.5
55435,43347.5
55494,43275.6
55537.9,43193.5
55537.9,43193.5
55564.9,43104.4
55574,43011.8
55564.9,42919.2
55537.9,42830.1
55537.9,42830.1
55494,42748.1
55435,42676.1
55363,42617.1
55281,42573.2
55281,42573.2
55191.9,42546.2
55145.6,42541.6
55122.5,42539.4
54839.9,42539.4
Z" /> 
<path style="fill:#FFFFFF; fill-opacity:1.0; 
stroke:#FFFFFF; stroke-width:0; stroke-opacity:1; 
stroke-linecap:round; stroke-linejoin:round;fill-rule:evenodd;"
d="M 41563.9,42728.3
41933.9,42728.3
41933.9,41551.2
41563.9,41551.2
Z" /> 
<path style="fill:#FFFFFF; fill-opacity:1.0; 
stroke:#FFFFFF; stroke-width:0; stroke-opacity:1; 
stroke-linecap:round; stroke-linejoin:round;fill-rule:evenodd;"
d="M 39563.9,42728.3
39933.9,42728.3
39933.9,41551.2
39563.9,41551.2
Z" /> 
<path style="fill:#FFFFFF; fill-opacity:1.0; 
stroke:#FFFFFF; stroke-width:0; stroke-opacity:1; 
stroke-linecap:round; stroke-linejoin:round;fill-rule:evenodd;"
d="M 40063.9,42728.3
40433.9,42728.3
40433.9,41551.2
40063.9,41551.2
Z" /> 
<path style="fill:#FFFFFF; fill-opacity:1.0; 
stroke:#FFFFFF; stroke-width:0; stroke-opacity:1; 
stroke-linecap:round; stroke-linejoin:round;fill-rule:evenodd;"
d="M 40563.9,42728.3
40933.9,42728.3
40933.9,41551.2
40563.9,41551.2
Z" /> 
<path style="fill:#FFFFFF; fill-opacity:1.0; 
stroke:#FFFFFF; stroke-width:0; stroke-opacity:1; 
stroke-linecap:round; stroke-linejoin:round;fill-rule:evenodd;"
d="M 41063.9,42728.3
41433.9,42728.3
41433.9,41551.2
41063.9,41551.2
Z" /> 
<path style="fill:#FFFFFF; fill-opacity:1.0; 
stroke:#FFFFFF; stroke-width:0; stroke-opacity:1; 
stroke-linecap:round; stroke-linejoin:round;fill-rule:evenodd;"
d="M 64872,41840.8
64846.7,41845.8
64775,41875.5
64710.5,41918.6
64655.7,41973.4
64612.6,42037.9
64582.9,42109.6
64577.9,42134.9
64567.8,42185.6
64567.8,42263.2
64577.9,42313.9
64582.9,42339.2
64612.6,42410.9
64655.7,42475.4
64710.5,42530.2
64775,42573.3
64846.7,42603
64872,42608
64922.7,42618.1
65000.3,42618.1
65051,42608
65076.3,42603
65148,42573.3
65212.5,42530.2
65267.3,42475.4
65310.4,42410.9
65340.1,42339.2
65345.1,42313.9
65355.2,42263.2
65355.2,42185.6
65345.1,42134.9
65340.1,42109.6
65310.4,42037.9
65267.3,41973.4
65212.5,41918.6
65148,41875.5
65076.3,41845.8
65051,41840.8
65000.3,41830.7
64922.7,41830.7
Z" /> 
<path style="fill:#FFFFFF; fill-opacity:1.0; 
stroke:#FFFFFF; stroke-width:0; stroke-opacity:1; 
stroke-linecap:round; stroke-linejoin:round;fill-rule:evenodd;"
d="M 57391.7,41840.8
57366.3,41845.8
57294.7,41875.5
57230.2,41918.6
57175.4,41973.4
57132.3,42037.9
57102.6,42109.6
57097.6,42134.9
57087.5,42185.6
57087.5,42263.2
57097.6,42313.9
57102.6,42339.2
57132.3,42410.9
57175.4,42475.4
57230.2,42530.2
57294.7,42573.3
57366.3,42603
57391.7,42608
57442.4,42618.1
57520,42618.1
57570.7,42608
57596,42603
57667.7,42573.3
57732.2,42530.2
57787,42475.4
57830.1,42410.9
57859.8,42339.2
57864.8,42313.9
57874.9,42263.2
57874.9,42185.6
57864.8,42134.9
57859.8,42109.6
57830.1,42037.9
57787,41973.4
57732.2,41918.6
57667.7,41875.5
57596,41845.8
57570.7,41840.8
57520,41830.7
57442.4,41830.7
Z" /> 
<path style="fill:#FFFFFF; fill-opacity:1.0; 
stroke:#FFFFFF; stroke-width:0; stroke-opacity:1; 
stroke-linecap:round; stroke-linejoin:round;fill-rule:evenodd;"
d="M 44351.3,42568.9
44823.7,42568.9
44823.7,42116.1
44351.3,42116.1
Z" /> 
<path style="fill:#FFFFFF; fill-opacity:1.0; 
stroke:#FFFFFF; stroke-width:0; stroke-opacity:1; 
stroke-linecap:round; stroke-linejoin:round;fill-rule:evenodd;"
d="M 43835.5,42563
44158.3,42563
44158.3,41885.8
43835.5,41885.8
Z" /> 
<path style="fill:#FFFFFF; fill-opacity:1.0; 
stroke:#FFFFFF; stroke-width:0; stroke-opacity:1; 
stroke-linecap:round; stroke-linejoin:round;fill-rule:evenodd;"
d="M 44351.3,41939
44823.7,41939
44823.7,41486.2
44351.3,41486.2
Z" /> 
<path style="fill:#FFFFFF; fill-opacity:1.0; 
stroke:#FFFFFF; stroke-width:0; stroke-opacity:1; 
stroke-linecap:round; stroke-linejoin:round;fill-rule:evenodd;"
d="M 46359.1,41594.5
51280.4,41594.5
51280.4,40925.2
46359.1,40925.2
Z" /> 
<path style="fill:#FFFFFF; fill-opacity:1.0; 
stroke:#FFFFFF; stroke-width:0; stroke-opacity:1; 
stroke-linecap:round; stroke-linejoin:round;fill-rule:evenodd;"
d="M 39563.9,41126
39933.9,41126
39933.9,39948.8
39563.9,39948.8
Z" /> 
<path style="fill:#FFFFFF; fill-opacity:1.0; 
stroke:#FFFFFF; stroke-width:0; stroke-opacity:1; 
stroke-linecap:round; stroke-linejoin:round;fill-rule:evenodd;"
d="M 40063.9,41126
40433.9,41126
40433.9,39948.8
40063.9,39948.8
Z" /> 
<path style="fill:#FFFFFF; fill-opacity:1.0; 
stroke:#FFFFFF; stroke-width:0; stroke-opacity:1; 
stroke-linecap:round; stroke-linejoin:round;fill-rule:evenodd;"
d="M 40563.9,41126
40933.9,41126
40933.9,39948.8
40563.9,39948.8
Z" /> 
<path style="fill:#FFFFFF; fill-opacity:1.0; 
stroke:#FFFFFF; stroke-width:0; stroke-opacity:1; 
stroke-linecap:round; stroke-linejoin:round;fill-rule:evenodd;"
d="M 41063.9,41126
41433.9,41126
41433.9,39948.8
41063.9,39948.8
Z" /> 
<path style="fill:#FFFFFF; fill-opacity:1.0; 
stroke:#FFFFFF; stroke-width:0; stroke-opacity:1; 
stroke-linecap:round; stroke-linejoin:round;fill-rule:evenodd;"
d="M 41563.9,41126
41933.9,41126
41933.9,39948.8
41563.9,39948.8
Z" /> 
<path style="fill:#FFFFFF; fill-opacity:1.0; 
stroke:#FFFFFF; stroke-width:0; stroke-opacity:1; 
stroke-linecap:round; stroke-linejoin:round;fill-rule:evenodd;"
d="M 53807.3,39697.9
53742.6,39710.8
53620.8,39761.2
53511.2,39834.5
53418,39927.7
53344.8,40037.3
53294.3,40159.1
53287.2,40194.9
53268.6,40288.4
53268.6,40420.3
53270.6,40430.6
53294.3,40549.6
53344.8,40671.4
53418,40781
53511.2,40874.2
53620.8,40947.4
53742.6,40997.9
53807.3,41010.8
53872,41023.6
54003.8,41023.6
54068.4,41010.8
54133.1,40997.9
54254.9,40947.4
54364.5,40874.2
54457.7,40781
54531,40671.4
54581.4,40549.6
54605.1,40430.6
54607.2,40420.3
54607.2,40288.4
54588.6,40194.9
54581.4,40159.1
54531,40037.3
54457.7,39927.7
54364.5,39834.5
54254.9,39761.2
54133.1,39710.8
54068.4,39697.9
54003.8,39685
53872,39685
Z" /> 
<path style="fill:#FFFFFF; fill-opacity:1.0; 
stroke:#FFFFFF; stroke-width:0; stroke-opacity:1; 
stroke-linecap:round; stroke-linejoin:round;fill-rule:evenodd;"
d="M 59154.9,40139.8
59085,40153.7
59009.8,40184.8
58942.1,40230.1
58884.5,40287.7
58839.3,40355.4
58808.1,40430.6
58792.2,40510.5
58792.2,40591.9
58808.1,40671.8
58839.3,40747
58884.5,40814.7
58942.1,40872.3
59009.8,40917.5
59085,40948.7
59154.9,40962.6
59164.9,40964.6
59246.3,40964.6
59256.3,40962.6
59326.2,40948.7
59401.4,40917.5
59469.1,40872.3
59526.7,40814.7
59571.9,40747
59603.1,40671.8
59619,40591.9
59619,40510.5
59603.1,40430.6
59571.9,40355.4
59526.7,40287.7
59469.1,40230.1
59401.4,40184.8
59326.2,40153.7
59256.3,40139.8
59246.3,40137.8
59164.9,40137.8
Z" /> 
<path style="fill:#FFFFFF; fill-opacity:1.0; 
stroke:#FFFFFF; stroke-width:0; stroke-opacity:1; 
stroke-linecap:round; stroke-linejoin:round;fill-rule:evenodd;"
d="M 61154.9,40139.8
61085,40153.7
61009.8,40184.8
60942.1,40230.1
60884.5,40287.7
60839.3,40355.4
60808.1,40430.6
60792.2,40510.5
60792.2,40591.9
60808.1,40671.8
60839.3,40747
60884.5,40814.7
60942.1,40872.3
61009.8,40917.5
61085,40948.7
61154.9,40962.6
61164.9,40964.6
61246.3,40964.6
61256.3,40962.6
61326.2,40948.7
61401.4,40917.5
61469.1,40872.3
61526.7,40814.7
61571.9,40747
61603.1,40671.8
61619,40591.9
61619,40510.5
61603.1,40430.6
61571.9,40355.4
61526.7,40287.7
61469.1,40230.1
61401.4,40184.8
61326.2,40153.7
61256.3,40139.8
61246.3,40137.8
61164.9,40137.8
Z" /> 
<path style="fill:#FFFFFF; fill-opacity:1.0; 
stroke:#FFFFFF; stroke-width:0; stroke-opacity:1; 
stroke-linecap:round; stroke-linejoin:round;fill-rule:evenodd;"
d="M 62154.9,40139.8
62085,40153.7
62009.8,40184.8
61942.1,40230.1
61884.5,40287.7
61839.3,40355.4
61808.1,40430.6
61792.2,40510.5
61792.2,40591.9
61808.1,40671.8
61839.3,40747
61884.5,40814.7
61942.1,40872.3
62009.8,40917.5
62085,40948.7
62154.9,40962.6
62164.9,40964.6
62246.3,40964.6
62256.3,40962.6
62326.2,40948.7
62401.4,40917.5
62469.1,40872.3
62526.7,40814.7
62571.9,40747
62603.1,40671.8
62619,40591.9
62619,40510.5
62603.1,40430.6
62571.9,40355.4
62526.7,40287.7
62469.1,40230.1
62401.4,40184.8
62326.2,40153.7
62256.3,40139.8
62246.3,40137.8
62164.9,40137.8
Z" /> 
<path style="fill:#FFFFFF; fill-opacity:1.0; 
stroke:#FFFFFF; stroke-width:0; stroke-opacity:1; 
stroke-linecap:round; stroke-linejoin:round;fill-rule:evenodd;"
d="M 63154.9,40139.8
63085,40153.7
63009.8,40184.8
62942.1,40230.1
62884.5,40287.7
62839.3,40355.4
62808.1,40430.6
62792.2,40510.5
62792.2,40591.9
62808.1,40671.8
62839.3,40747
62884.5,40814.7
62942.1,40872.3
63009.8,40917.5
63085,40948.7
63154.9,40962.6
63164.9,40964.6
63246.3,40964.6
63256.3,40962.6
63326.2,40948.7
63401.4,40917.5
63469.1,40872.3
63526.7,40814.7
63571.9,40747
63603.1,40671.8
63619,40591.9
63619,40510.5
63603.1,40430.6
63571.9,40355.4
63526.7,40287.7
63469.1,40230.1
63401.4,40184.8
63326.2,40153.7
63256.3,40139.8
63246.3,40137.8
63164.9,40137.8
Z" /> 
<path style="fill:#FFFFFF; fill-opacity:1.0; 
stroke:#FFFFFF; stroke-width:0; stroke-opacity:1; 
stroke-linecap:round; stroke-linejoin:round;fill-rule:evenodd;"
d="M 64154.9,40139.8
64085,40153.7
64009.8,40184.8
63942.1,40230.1
63884.5,40287.7
63839.3,40355.4
63808.1,40430.6
63792.2,40510.5
63792.2,40591.9
63808.1,40671.8
63839.3,40747
63884.5,40814.7
63942.1,40872.3
64009.8,40917.5
64085,40948.7
64154.9,40962.6
64164.9,40964.6
64246.3,40964.6
64256.3,40962.6
64326.2,40948.7
64401.4,40917.5
64469.1,40872.3
64526.7,40814.7
64571.9,40747
64603.1,40671.8
64619,40591.9
64619,40510.5
64603.1,40430.6
64571.9,40355.4
64526.7,40287.7
64469.1,40230.1
64401.4,40184.8
64326.2,40153.7
64256.3,40139.8
64246.3,40137.8
64164.9,40137.8
Z" /> 
<path style="fill:#FFFFFF; fill-opacity:1.0; 
stroke:#FFFFFF; stroke-width:0; stroke-opacity:1; 
stroke-linecap:round; stroke-linejoin:round;fill-rule:evenodd;"
d="M 64792.2,40964.6
65619,40964.6
65619,40137.8
64792.2,40137.8
Z" /> 
<path style="fill:#FFFFFF; fill-opacity:1.0; 
stroke:#FFFFFF; stroke-width:0; stroke-opacity:1; 
stroke-linecap:round; stroke-linejoin:round;fill-rule:evenodd;"
d="M 58154.9,40139.8
58085,40153.7
58009.8,40184.8
57942.1,40230.1
57884.5,40287.7
57839.3,40355.4
57808.1,40430.6
57792.2,40510.5
57792.2,40591.9
57808.1,40671.8
57839.3,40747
57884.5,40814.7
57942.1,40872.3
58009.8,40917.5
58085,40948.7
58154.9,40962.6
58164.9,40964.6
58246.3,40964.6
58256.3,40962.6
58326.2,40948.7
58401.4,40917.5
58469.1,40872.3
58526.7,40814.7
58571.9,40747
58603.1,40671.8
58619,40591.9
58619,40510.5
58603.1,40430.6
58571.9,40355.4
58526.7,40287.7
58469.1,40230.1
58401.4,40184.8
58326.2,40153.7
58256.3,40139.8
58246.3,40137.8
58164.9,40137.8
Z" /> 
<path style="fill:#FFFFFF; fill-opacity:1.0; 
stroke:#FFFFFF; stroke-width:0; stroke-opacity:1; 
stroke-linecap:round; stroke-linejoin:round;fill-rule:evenodd;"
d="M 60154.9,40139.8
60085,40153.7
60009.8,40184.8
59942.1,40230.1
59884.5,40287.7
59839.3,40355.4
59808.1,40430.6
59792.2,40510.5
59792.2,40591.9
59808.1,40671.8
59839.3,40747
59884.5,40814.7
59942.1,40872.3
60009.8,40917.5
60085,40948.7
60154.9,40962.6
60164.9,40964.6
60246.3,40964.6
60256.3,40962.6
60326.2,40948.7
60401.4,40917.5
60469.1,40872.3
60526.7,40814.7
60571.9,40747
60603.1,40671.8
60619,40591.9
60619,40510.5
60603.1,40430.6
60571.9,40355.4
60526.7,40287.7
60469.1,40230.1
60401.4,40184.8
60326.2,40153.7
60256.3,40139.8
60246.3,40137.8
60164.9,40137.8
Z" /> 
<path style="fill:#FFFFFF; fill-opacity:1.0; 
stroke:#FFFFFF; stroke-width:0; stroke-opacity:1; 
stroke-linecap:round; stroke-linejoin:round;fill-rule:evenodd;"
d="M 50345.4,40295.3
50798.1,40295.3
50798.1,39822.8
50345.4,39822.8
Z" /> 
<path style="fill:#FFFFFF; fill-opacity:1.0; 
stroke:#FFFFFF; stroke-width:0; stroke-opacity:1; 
stroke-linecap:round; stroke-linejoin:round;fill-rule:evenodd;"
d="M 50975.3,40295.3
51428,40295.3
51428,39822.8
50975.3,39822.8
Z" /> 
</g> 
</svg>
