<?xml version="1.0" standalone="no"?>
 <!DOCTYPE svg PUBLIC "-//W3C//DTD SVG 1.1//EN" 
 "http://www.w3.org/Graphics/SVG/1.1/DTD/svg11.dtd"> 
<svg xmlns="http://www.w3.org/2000/svg" version="1.1" 
    width="29.7002cm" height="21.0007cm" viewBox="0 0 116930 82680 ">
<title>SVG Picture created as alakol-F_SilkS.svg date 2020/04/18 10:51:26 </title>
  <desc>Picture generated by PCBNEW </desc>
<g style="fill:#000000; fill-opacity:1;stroke:#000000; stroke-opacity:1;
stroke-linecap:round; stroke-linejoin:round; "
 transform="translate(0 0) scale(1 1)">
</g>
<g style="fill:#000000; fill-opacity:0.0; 
stroke:#000000; stroke-width:-0.000393701; stroke-opacity:1; 
stroke-linecap:round; stroke-linejoin:round;">
</g>
<g style="fill:#000000; fill-opacity:1.0; 
stroke:#000000; stroke-width:98.4252; stroke-opacity:1; 
stroke-linecap:round; stroke-linejoin:round;">
<rect x="31673.6" y="36887.6" width="39213.1" height="27718.2" rx="0" />
</g>
<g style="fill:#FFFFFF; fill-opacity:1.0; 
stroke:#FFFFFF; stroke-width:98.4252; stroke-opacity:1; 
stroke-linecap:round; stroke-linejoin:round;">
</g>
<g style="fill:#FFFFFF; fill-opacity:1.0; 
stroke:#FFFFFF; stroke-width:59.0551; stroke-opacity:1; 
stroke-linecap:round; stroke-linejoin:round;">
</g>
<g style="fill:#FFFFFF; fill-opacity:0.0; 
stroke:#FFFFFF; stroke-width:59.0551; stroke-opacity:1; 
stroke-linecap:round; stroke-linejoin:round;">
<path d="M43898 39763
L43898 39960
" />
<path d="M44095 39763
L43898 39763
" />
<path d="M47048 39763
L46654 39763
" />
<path d="M47048 40551
L46654 40551
" />
<path d="M43898 40551
L43898 40354
" />
<path d="M44095 40551
L43898 40551
" />
<path d="M49804 39763
L49607 39763
" />
<path d="M49804 39960
L49804 39763
" />
<path d="M49804 40551
L49607 40551
" />
<path d="M49804 40354
L49804 40551
" />
<path d="M49804 40551
L49804 40354
" />
<text x="62284.3" y="53307.1"
textLength="466.723" font-size="419.947" lengthAdjust="spacingAndGlyphs"
text-anchor="middle" opacity="0">+</text>
<path d="M62404 53172
L62164 53172
" />
<path d="M62284 53292
L62284 53052
" />
<text x="67638.7" y="53307.1"
textLength="466.723" font-size="419.947" lengthAdjust="spacingAndGlyphs"
text-anchor="middle" opacity="0">-</text>
<path d="M67758 53172
L67518 53172
" />
<path d="M38681 42814
L38681 39862
" />
<path d="M42815 42814
L38681 42814
" />
<path d="M42815 39862
L42815 42814
" />
<path d="M38681 39862
L42815 39862
" />
<g transform="rotate(-90 43209.5 39862.2)">
<text x="43209.5" y="40019.7"
textLength="2281.5" font-size="419.947" lengthAdjust="spacingAndGlyphs"
text-anchor="end" opacity="0">STM JTAG</text>
</g>
<path d="M43082 42045
L43067 42000
L43067 41925
L43082 41895
L43097 41880
L43127 41865
L43157 41865
L43187 41880
L43202 41895
L43217 41925
L43232 41985
L43247 42015
L43262 42030
L43292 42045
L43322 42045
L43352 42030
L43367 42015
L43382 41985
L43382 41910
L43367 41865
" />
<path d="M43382 41775
L43382 41595
" />
<path d="M43067 41685
L43382 41685
" />
<path d="M43067 41490
L43382 41490
L43157 41385
L43382 41280
L43067 41280
" />
<path d="M43382 40800
L43157 40800
L43112 40815
L43082 40845
L43067 40890
L43067 40920
" />
<path d="M43382 40695
L43382 40515
" />
<path d="M43067 40605
L43382 40605
" />
<path d="M43157 40425
L43157 40275
" />
<path d="M43067 40455
L43382 40350
L43067 40245
" />
<path d="M43367 39975
L43382 40005
L43382 40050
L43367 40095
L43337 40125
L43307 40140
L43247 40155
L43202 40155
L43142 40140
L43112 40125
L43082 40095
L43067 40050
L43067 40020
L43082 39975
L43097 39960
L43202 39960
L43202 40020
" />
</g>
<g style="fill:#FFFFFF; fill-opacity:0.0; 
stroke:#FFFFFF; stroke-width:78.7402; stroke-opacity:1; 
stroke-linecap:round; stroke-linejoin:round;">
<path d="M61418 58464
L58563 58464
" />
<path d="M58563 56889
L61418 56889
" />
<path d="M61418 58464
L61418 56889
" />
<path d="M58563 58464
L58563 56889
" />
</g>
<g style="fill:#FFFFFF; fill-opacity:0.0; 
stroke:#FFFFFF; stroke-width:118.11; stroke-opacity:1; 
stroke-linecap:round; stroke-linejoin:round;">
<text x="59843.4" y="57618.1"
textLength="1651.57" font-size="629.921" lengthAdjust="spacingAndGlyphs"
text-anchor="middle" opacity="0">STAT</text>
<path d="M60540 57573
L60473 57595
L60360 57595
L60315 57573
L60293 57550
L60270 57505
L60270 57460
L60293 57415
L60315 57393
L60360 57370
L60450 57348
L60495 57325
L60518 57303
L60540 57258
L60540 57213
L60518 57168
L60495 57145
L60450 57123
L60338 57123
L60270 57145
" />
<path d="M60135 57123
L59865 57123
" />
<path d="M60000 57595
L60000 57123
" />
<path d="M59730 57460
L59505 57460
" />
<path d="M59775 57595
L59618 57123
L59460 57595
" />
<path d="M59370 57123
L59100 57123
" />
<path d="M59235 57595
L59235 57123
" />
</g>
<g style="fill:#FFFFFF; fill-opacity:0.0; 
stroke:#FFFFFF; stroke-width:78.7402; stroke-opacity:1; 
stroke-linecap:round; stroke-linejoin:round;">
<path d="M58563 56594
L58563 55019
" />
<path d="M58563 55019
L61418 55019
" />
<path d="M61418 56594
L58563 56594
" />
<path d="M61418 56594
L61418 55019
" />
</g>
<g style="fill:#FFFFFF; fill-opacity:0.0; 
stroke:#FFFFFF; stroke-width:118.11; stroke-opacity:1; 
stroke-linecap:round; stroke-linejoin:round;">
<text x="59843.4" y="55748"
textLength="1390.89" font-size="629.921" lengthAdjust="spacingAndGlyphs"
text-anchor="middle" opacity="0">ACT</text>
<path d="M60372 55590
L60147 55590
" />
<path d="M60417 55725
L60259 55253
L60102 55725
" />
<path d="M59674 55680
L59697 55703
L59764 55725
L59809 55725
L59877 55703
L59922 55658
L59944 55613
L59967 55523
L59967 55455
L59944 55365
L59922 55320
L59877 55275
L59809 55253
L59764 55253
L59697 55275
L59674 55298
" />
<path d="M59539 55253
L59269 55253
" />
<path d="M59404 55725
L59404 55253
" />
</g>
<g style="fill:#FFFFFF; fill-opacity:0.0; 
stroke:#FFFFFF; stroke-width:78.7402; stroke-opacity:1; 
stroke-linecap:round; stroke-linejoin:round;">
<path d="M43504 55019
L43504 53444
" />
<path d="M40650 53444
L43504 53444
" />
<path d="M40650 55019
L40650 53444
" />
<path d="M43504 55019
L40650 55019
" />
</g>
<g style="fill:#FFFFFF; fill-opacity:0.0; 
stroke:#FFFFFF; stroke-width:118.11; stroke-opacity:1; 
stroke-linecap:round; stroke-linejoin:round;">
<text x="41930" y="54173.2"
textLength="1638.36" font-size="629.921" lengthAdjust="spacingAndGlyphs"
text-anchor="middle" opacity="0">PWR</text>
<path d="M42559 54150
L42559 53678
L42379 53678
L42334 53700
L42312 53723
L42289 53768
L42289 53835
L42312 53880
L42334 53903
L42379 53925
L42559 53925
" />
<path d="M42132 53678
L42019 54150
L41930 53813
L41840 54150
L41727 53678
" />
<path d="M41277 54150
L41435 53925
" />
<path d="M41547 54150
L41547 53678
L41367 53678
L41322 53700
L41300 53723
L41277 53768
L41277 53835
L41300 53880
L41322 53903
L41367 53925
L41547 53925
" />
</g>
<g style="fill:#FFFFFF; fill-opacity:0.0; 
stroke:#FFFFFF; stroke-width:39.3701; stroke-opacity:1; 
stroke-linecap:round; stroke-linejoin:round;">
<path d="M68898 60629
L68898 61417
" />
<path d="M39370 60629
L39370 61417
" />
<path d="M68898 57086
L68898 60236
" />
<path d="M39370 57480
L39370 60629
" />
<path d="M68898 61417
L39370 61417
" />
<path d="M68898 60236
L68898 60629
" />
<path d="M68898 56692
L68898 57086
" />
<path d="M68898 39370
L68898 56692
" />
<path d="M68898 39370
L46063 39370
" />
<path d="M40158 49606
L40158 43700
" />
<path d="M39370 55511
L39370 57480
" />
<path d="M38189 55511
L39370 55511
" />
<path d="M38189 49606
L38189 55511
" />
<path d="M38189 39370
L46063 39370
" />
<path d="M38189 43700
L38189 39370
" />
<path d="M38189 49606
L38189 43700
" />
<path d="M40158 43700
L40945 43700
" />
<path d="M40945 49606
L40158 49606
" />
<path d="M40945 43700
L40945 49606
" />
</g>
<g style="fill:#FFFFFF; fill-opacity:0.0; 
stroke:#FFFFFF; stroke-width:59.0551; stroke-opacity:1; 
stroke-linecap:round; stroke-linejoin:round;">
<path d="M39961 43700
L39961 49606
" />
<path d="M40158 49606
L40158 43700
" />
<path d="M49469.4 49212.6 A118.11 118.11 0.0 0 0 49469.4 48976.4 " />
<path d="M48367 49212
L48367 48425
" />
<path d="M49469 48976
L49469 48425
" />
<path d="M61910 61338
L68012 61338
" />
<path d="M61910 61338
L61910 60157
" />
<path d="M68012 61338
L68012 60157
" />
<path d="M61910 58740
L61910 55551
" />
<path d="M68012 58740
L68012 55551
" />
<path d="M61910 55551
L62304 55551
" />
<path d="M68012 55551
L67618 55551
" />
</g>
<g style="fill:#FFFFFF; fill-opacity:0.0; 
stroke:#FFFFFF; stroke-width:47.2441; stroke-opacity:1; 
stroke-linecap:round; stroke-linejoin:round;">
<path d="M57284 61122
L56496 61122
" />
<path d="M56496 61122
L56496 59586
" />
<path d="M57284 61122
L57284 59586
" />
</g>
<g style="fill:#FFFFFF; fill-opacity:1.0; 
stroke:#FFFFFF; stroke-width:59.0551; stroke-opacity:1; 
stroke-linecap:round; stroke-linejoin:round;">
<path style="fill:#FFFFFF; fill-opacity:1.0; 
stroke:#FFFFFF; stroke-width:59.0551; stroke-opacity:1; 
stroke-linecap:round; stroke-linejoin:round;fill-rule:evenodd;"
d="M 51385.5,61386.6
51385.5,59586.6
44285.5,59586.6
44285.5,61386.6
" /> 
<path style="fill:#FFFFFF; fill-opacity:1.0; 
stroke:#FFFFFF; stroke-width:59.0551; stroke-opacity:1; 
stroke-linecap:round; stroke-linejoin:round;fill-rule:evenodd;"
d="M 51385.5,54386.6
51385.5,52936.6
49985.5,52936.6
49985.5,54386.6
" /> 
<path style="fill:#FFFFFF; fill-opacity:1.0; 
stroke:#FFFFFF; stroke-width:59.0551; stroke-opacity:1; 
stroke-linecap:round; stroke-linejoin:round;fill-rule:evenodd;"
d="M 45685.5,52936.6
45685.5,54386.6
44285.5,54386.6
44285.5,52936.6
" /> 
</g>
<g style="fill:#FFFFFF; fill-opacity:0.0; 
stroke:#FFFFFF; stroke-width:59.0551; stroke-opacity:1; 
stroke-linecap:round; stroke-linejoin:round;">
<path d="M51045 52686
L51045 52086
" />
<path d="M44625 56786
L44625 54586
" />
<path d="M51045 56786
L51045 54586
" />
<path d="M44625 52686
L44625 52086
" />
<path d="M56742 56131
L56742 55875
" />
<path d="M56644 56131
L56742 56131
" />
<path d="M56644 55875
L56644 56131
" />
<path d="M56742 55875
L56644 55875
" />
<path d="M52294 58612
L52294 58513
" />
<path d="M52294 58513
L52038 58513
" />
<path d="M52038 58513
L52038 58612
" />
<path d="M52038 58612
L52294 58612
" />
<path d="M52038 60088
L52038 60187
" />
<path d="M52038 60187
L52294 60187
" />
<path d="M52294 60187
L52294 60088
" />
<path d="M52294 60088
L52038 60088
" />
<path d="M44715 41978
L44459 41978
" />
<path d="M44715 42076
L44715 41978
" />
<path d="M44459 42076
L44715 42076
" />
<path d="M44459 41978
L44459 42076
" />
<path d="M41880 54625
L41979 54753
" />
<path d="M41880 54625
L41979 54498
" />
<path d="M41979 54753
L41979 54498
" />
<path d="M59794 56200
L59892 56328
" />
<path d="M59794 56200
L59892 56072
" />
<path d="M59892 56328
L59892 56072
" />
<path d="M59892 58198
L59892 57942
" />
<path d="M59794 58070
L59892 57942
" />
<path d="M59794 58070
L59892 58198
" />
<path d="M65705 40051
L57705 40051
" />
<path d="M57705 40051
L57705 41051
" />
<path d="M57705 41051
L65705 41051
" />
<path d="M65705 41051
L65705 40051
" />
<path d="M39528 41535
L39528 41181
" />
<path d="M41969 41535
L41969 41181
" />
<path d="M41969 41181
L41181 41181
" />
<path d="M39528 41181
L40315 41181
" />
<path d="M39528 41535
L41969 41535
" />
<path d="M67599 52263
L67599 47539
" />
<path d="M62323 52263
L62323 51279
" />
<path d="M62323 48523
L62323 47539
" />
<path d="M67500 47440
L65748 47440
" />
<path d="M64174 47440
L62422 47440
" />
<path d="M67500 52362
L65748 52362
" />
<path d="M64174 52362
L62422 52362
" />
<path d="M62422.1 47440.9 A98.4252 98.4252 0.0 0 0 62323.7 47539.4 " />
<path d="M67599.3 47539.4 A98.4252 98.4252 0.0 0 0 67500.9 47440.9 " />
<path d="M67500.9 52362.2 A98.4252 98.4252 0.0 0 0 67599.3 52263.8 " />
<path d="M62323.7 52263.8 A98.4252 98.4252 0.0 0 0 62422.1 52362.2 " />
<path d="M59981 46496
L59981 41496
" />
<path d="M54981 46496
L59981 46496
" />
<path d="M54981 41496
L54981 46496
" />
<path d="M59981 41496
L54981 41496
" />
<circle cx="57481.2" cy="43996.1" r="1802.78" /> 
<circle cx="64961.5" cy="43996.1" r="1802.78" /> 
<path d="M67461 41496
L62461 41496
" />
<path d="M62461 41496
L62461 46496
" />
<path d="M62461 46496
L67461 46496
" />
<path d="M67461 46496
L67461 41496
" />
<path d="M56487 51722
L56250 51486
" />
<path d="M56487 52253
L56487 51722
" />
<path d="M55719 52253
L56487 52253
" />
<path d="M55719 51486
L55719 52253
" />
<path d="M56250 51486
L55719 51486
" />
</g>
<g style="fill:#FFFFFF; fill-opacity:0.0; 
stroke:#FFFFFF; stroke-width:47.2441; stroke-opacity:1; 
stroke-linecap:round; stroke-linejoin:round;">
<path d="M55083 58401
L55083 58897
" />
<path d="M55083 61086
L55083 60590
" />
<path d="M53603 58401
L55083 58401
" />
<path d="M52717 61086
L55083 61086
" />
</g>
<g style="fill:#FFFFFF; fill-opacity:0.0; 
stroke:#FFFFFF; stroke-width:59.0551; stroke-opacity:1; 
stroke-linecap:round; stroke-linejoin:round;">
<path d="M55955 55009
L56487 55009
" />
<path d="M56487 55009
L56487 54242
" />
<path d="M56487 54242
L55719 54242
" />
<path d="M55719 54242
L55719 54773
" />
<path d="M55719 54773
L55955 55009
" />
<path d="M57343 53198
L57343 53198
" />
<path d="M57343 53198
L56831 53198
" />
<path d="M56831 53198
L56831 53297
" />
<path d="M56831 53297
L57244 53297
" />
<path d="M57244 53297
L57343 53198
" />
<path d="M54892 48868
L54892 50738
" />
<path d="M57313 48868
L57313 50738
" />
<path d="M54892 50738
L57313 50738
" />
<path d="M54892 48868
L57313 48868
" />
</g>
<g style="fill:#FFFFFF; fill-opacity:0.0; 
stroke:#FFFFFF; stroke-width:157.48; stroke-opacity:1; 
stroke-linecap:round; stroke-linejoin:round;">
<circle cx="58103.2" cy="48553.1" r="78.7402" /> 
</g>
<g style="fill:#FFFFFF; fill-opacity:0.0; 
stroke:#FFFFFF; stroke-width:59.0551; stroke-opacity:1; 
stroke-linecap:round; stroke-linejoin:round;">
<path d="M50355 48523
L50355 49311
" />
<path d="M50788 49311
L51181 49311
" />
<path d="M51615 49311
L51615 48326
" />
<path d="M51181 48326
L50788 48326
" />
</g>
<g style="fill:#FFFFFF; fill-opacity:0.0; 
stroke:#FFFFFF; stroke-width:157.48; stroke-opacity:1; 
stroke-linecap:round; stroke-linejoin:round;">
<circle cx="50119" cy="48110.2" r="78.7402" /> 
</g>
<g style="fill:#FFFFFF; fill-opacity:0.0; 
stroke:#FFFFFF; stroke-width:59.0551; stroke-opacity:1; 
stroke-linecap:round; stroke-linejoin:round;">
<path d="M42874 51368
L42166 51368
" />
<path d="M42166 51368
L42166 52568
" />
<path d="M42166 52568
L42874 52568
" />
<path d="M42874 52568
L42874 51368
" />
<path d="M55463 56131
L55561 56131
" />
<path d="M55561 56131
L55561 55875
" />
<path d="M55561 55875
L55463 55875
" />
<path d="M55463 55875
L55463 56131
" />
<path d="M57087 47893
L57087 46948
" />
<path d="M55118 48129
L55118 46948
" />
<path d="M57087.5 48129.9 A118.11 118.11 0.0 0 0 57087.5 47893.7 " />
</g>
<g style="fill:#FFFFFF; fill-opacity:0.0; 
stroke:#FFFFFF; stroke-width:47.2441; stroke-opacity:1; 
stroke-linecap:round; stroke-linejoin:round;">
<path d="M40118 57795
L40118 61338
" />
<path d="M40118 61338
L43741 61338
" />
<path d="M43741 61338
L43741 55590
" />
<path d="M43741 55590
L42638 55590
" />
<path d="M41221 55590
L40118 55590
" />
<path d="M40118 55590
L40118 56377
" />
<path d="M43835 56181
L43835 55496
" />
<path d="M43835 55496
L43150 55496
" />
</g>
<g style="fill:#FFFFFF; fill-opacity:0.0; 
stroke:#FFFFFF; stroke-width:59.0551; stroke-opacity:1; 
stroke-linecap:round; stroke-linejoin:round;">
<path d="M56250 56998
L55719 56998
" />
<path d="M55719 56998
L55719 57765
" />
<path d="M55719 57765
L56487 57765
" />
<path d="M56487 57765
L56487 57234
" />
<path d="M56487 57234
L56250 56998
" />
<path d="M50935 40187
L50935 39931
" />
<path d="M50837 40187
L50935 40187
" />
<path d="M50837 39931
L50837 40187
" />
<path d="M50935 39931
L50837 39931
" />
<path d="M41506 50442
L41506 50541
" />
<path d="M41506 50541
L41762 50541
" />
<path d="M41762 50541
L41762 50442
" />
<path d="M41762 50442
L41506 50442
" />
<path d="M46191 48868
L46191 48769
" />
<path d="M46191 48769
L45935 48769
" />
<path d="M45935 48769
L45935 48868
" />
<path d="M45935 48868
L46191 48868
" />
<path d="M45128 47864
L45128 47608
" />
<path d="M45030 47864
L45128 47864
" />
<path d="M45030 47608
L45030 47864
" />
<path d="M45128 47608
L45030 47608
" />
<path d="M45079 48956
L44941 48818
" />
<path d="M43642 48818
L43504 48818
" />
<path d="M43504 48818
L43504 48956
" />
<path d="M43642 50393
L43504 50393
" />
<path d="M43504 50393
L43504 50255
" />
<path d="M44941 50393
L45079 50393
" />
<path d="M45079 50393
L45079 50255
" />
<path d="M51359 46594
L51359 41751
" />
<path d="M51359 41751
L46280 41751
" />
<path d="M46280 41751
L46280 46830
" />
<path d="M46280 46830
L51122 46830
" />
<path d="M51122 46830
L51359 46594
" />
<path d="M39430 51318
L39311 51200
" />
<path d="M39430 51948
L39430 51318
" />
<path d="M39311 51948
L39430 51948
" />
<path d="M39311 51200
L39311 51948
" />
<path d="M39311 51200
L39311 51200
" />
<path d="M43386 43740
L43386 43740
" />
<path d="M43386 43740
L42638 43740
" />
<path d="M42638 43740
L42638 43858
" />
<path d="M42638 43858
L43268 43858
" />
<path d="M43268 43858
L43386 43740
" />
</g>
<g style="fill:#FFFFFF; fill-opacity:0.0; 
stroke:#FFFFFF; stroke-width:47.2441; stroke-opacity:1; 
stroke-linecap:round; stroke-linejoin:round;">
<path d="M40335 50000
L40335 50787
" />
<path d="M40335 50787
L38819 50787
" />
<path d="M40335 50000
L38819 50000
" />
<path d="M42225 44763
L41437 44763
" />
<path d="M41437 44763
L41437 43248
" />
<path d="M42225 44763
L42225 43248
" />
<g >
</g>
<g >
</g>
<g >
</g>
<g >
</g>
<g >
</g>
<g >
</g>
<g >
</g>
<g >
</g>
<g >
</g>
<g >
</g>
<g >
</g>
<g >
</g>
<g >
</g>
<g >
</g>
<g >
</g>
<g >
</g>
<g >
</g>
<g >
</g>
<g >
</g>
<g >
</g>
<g >
</g>
<g >
</g>
<g >
</g>
<g >
</g>
<g >
</g>
<g >
</g>
<g >
</g>
<g >
</g>
<g >
</g>
<g >
</g>
<g style="fill:#FFFFFF; fill-opacity:0.0; 
stroke:#FFFFFF; stroke-width:47.2441; stroke-opacity:1; 
stroke-linecap:round; stroke-linejoin:round;">
</g>
<g style="fill:#FFFFFF; fill-opacity:0.0; 
stroke:#FFFFFF; stroke-width:98.4252; stroke-opacity:1; 
stroke-linecap:round; stroke-linejoin:round;">
<path style="fill:#FFFFFF; fill-opacity:0.0; 
stroke:#FFFFFF; stroke-width:98.4252; stroke-opacity:1; 
stroke-linecap:round; stroke-linejoin:round;fill:none"
d="M 65530.4,40876
65530.4,40226.4
64880.8,40226.4
64880.8,40876
Z" /> 
<circle cx="64205.6" cy="40551.2" r="324.803" /> 
<circle cx="63205.6" cy="40551.2" r="324.803" /> 
<circle cx="62205.6" cy="40551.2" r="324.803" /> 
<circle cx="61205.6" cy="40551.2" r="324.803" /> 
<circle cx="60205.6" cy="40551.2" r="324.803" /> 
<circle cx="59205.6" cy="40551.2" r="324.803" /> 
<circle cx="58205.6" cy="40551.2" r="324.803" /> 
</g>
<g >
</g>
<g style="fill:#FFFFFF; fill-opacity:0.0; 
stroke:#FFFFFF; stroke-width:98.4252; stroke-opacity:1; 
stroke-linecap:round; stroke-linejoin:round;">
<circle cx="41748.9" cy="40338.6" r="96.4567" /> 
<circle cx="41248.9" cy="40338.6" r="96.4567" /> 
<circle cx="40748.9" cy="40338.6" r="96.4567" /> 
<circle cx="40248.9" cy="40338.6" r="96.4567" /> 
<circle cx="39748.9" cy="40338.6" r="96.4567" /> 
<circle cx="41748.9" cy="42338.6" r="96.4567" /> 
<circle cx="41248.9" cy="42338.6" r="96.4567" /> 
<circle cx="40748.9" cy="42338.6" r="96.4567" /> 
<circle cx="40248.9" cy="42338.6" r="96.4567" /> 
<circle cx="39748.9" cy="42338.6" r="96.4567" /> 
</g>
<g >
</g>
<g >
</g>
<g >
</g>
<g >
</g>
<g >
</g>
<g >
</g>
<g >
</g>
<g >
</g>
<g >
</g>
<g >
</g>
<g >
</g>
<g >
</g>
<g >
</g>
<g >
</g>
<g >
</g>
<g >
</g>
<g >
</g>
<g >
</g>
<g >
</g>
<g >
</g>
<g >
</g>
<g >
</g>
<g >
</g>
<g >
</g>
<g >
</g>
<g >
</g>
<g >
</g>
<g >
</g>
<g >
</g>
<g >
</g>
<g >
</g>
<g >
</g>
<g >
</g>
<g >
</g>
<g >
</g>
<g style="fill:#FFFFFF; fill-opacity:0.0; 
stroke:#FFFFFF; stroke-width:98.4252; stroke-opacity:1; 
stroke-linecap:round; stroke-linejoin:round;">
<path d="M60099 45364
L59863 45364
" />
<path d="M60099 44596
L59863 44596
" />
<path d="M59863.1 44596.5 A383.858 383.858 0.0 0 0 59863.1 45364.2 " />
<path d="M60099.3 45364.2 A383.858 383.858 0.0 0 0 60099.3 44596.5 " />
<path d="M60099 43395
L59863 43395
" />
<path d="M60099 42627
L59863 42627
" />
<path d="M59863.1 42628 A383.858 383.858 0.0 0 0 59863.1 43395.7 " />
<path d="M60099.3 43395.7 A383.858 383.858 0.0 0 0 60099.3 42628 " />
<path d="M55099 45364
L54863 45364
" />
<path d="M55099 44596
L54863 44596
" />
<path d="M54863.1 44596.5 A383.858 383.858 0.0 0 0 54863.1 45364.2 " />
<path d="M55099.3 45364.2 A383.858 383.858 0.0 0 0 55099.3 44596.5 " />
<path d="M55099 43395
L54863 43395
" />
<path d="M55099 42627
L54863 42627
" />
<path d="M54863.1 42628 A383.858 383.858 0.0 0 0 54863.1 43395.7 " />
<path d="M55099.3 43395.7 A383.858 383.858 0.0 0 0 55099.3 42628 " />
</g>
<g >
</g>
<g style="fill:#FFFFFF; fill-opacity:0.0; 
stroke:#FFFFFF; stroke-width:98.4252; stroke-opacity:1; 
stroke-linecap:round; stroke-linejoin:round;">
<path d="M62579 43395
L62343 43395
" />
<path d="M62579 42627
L62343 42627
" />
<path d="M62343.4 42628 A383.858 383.858 0.0 0 0 62343.4 43395.7 " />
<path d="M62579.6 43395.7 A383.858 383.858 0.0 0 0 62579.6 42628 " />
<path d="M62579 45364
L62343 45364
" />
<path d="M62579 44596
L62343 44596
" />
<path d="M62343.4 44596.5 A383.858 383.858 0.0 0 0 62343.4 45364.2 " />
<path d="M62579.6 45364.2 A383.858 383.858 0.0 0 0 62579.6 44596.5 " />
<path d="M67579 43395
L67343 43395
" />
<path d="M67579 42627
L67343 42627
" />
<path d="M67343.4 42628 A383.858 383.858 0.0 0 0 67343.4 43395.7 " />
<path d="M67579.6 43395.7 A383.858 383.858 0.0 0 0 67579.6 42628 " />
<path d="M67579 45364
L67343 45364
" />
<path d="M67579 44596
L67343 44596
" />
<path d="M67343.4 44596.5 A383.858 383.858 0.0 0 0 67343.4 45364.2 " />
<path d="M67579.6 45364.2 A383.858 383.858 0.0 0 0 67579.6 44596.5 " />
</g>
<g >
</g>
<g >
</g>
<g >
</g>
<g >
</g>
<g >
</g>
<g >
</g>
<g style="fill:#FFFFFF; fill-opacity:0.0; 
stroke:#FFFFFF; stroke-width:98.4252; stroke-opacity:1; 
stroke-linecap:round; stroke-linejoin:round;">
<circle cx="53937.9" cy="40354.3" r="580.709" /> 
</g>
<g >
</g>
<g style="fill:#FFFFFF; fill-opacity:0.0; 
stroke:#FFFFFF; stroke-width:98.4252; stroke-opacity:1; 
stroke-linecap:round; stroke-linejoin:round;">
<circle cx="53150.5" cy="51378" r="423.228" /> 
</g>
<g >
</g>
<g >
</g>
<g >
</g>
<g >
</g>
<g >
</g>
<g >
</g>
<g >
</g>
<g >
</g>
<g >
</g>
<g >
</g>
<g >
</g>
<g >
</g>
<g >
</g>
<g >
</g>
<g >
</g>
<g >
</g>
<g >
</g>
<g >
</g>
<g >
</g>
<g >
</g>
<g >
</g>
<g >
</g>
<g >
</g>
<g >
</g>
<g >
</g>
<g >
</g>
<g >
</g>
<g >
</g>
<g >
</g>
<g >
</g>
<g >
</g>
<g >
</g>
<g >
</g>
<g >
</g>
<g >
</g>
<g >
</g>
<g >
</g>
<g >
</g>
<g >
</g>
<g >
</g>
<g >
</g>
<g >
</g>
</g>
<g style="fill:#FFFFFF; fill-opacity:0.0; 
stroke:#FFFFFF; stroke-width:98.4252; stroke-opacity:1; 
stroke-linecap:round; stroke-linejoin:round;">
</g>
<g style="fill:#FFFFFF; fill-opacity:0.0; 
stroke:#FFFFFF; stroke-width:59.0551; stroke-opacity:1; 
stroke-linecap:round; stroke-linejoin:round;">
<text x="37993" y="46456.7"
textLength="828.459" font-size="524.934" lengthAdjust="spacingAndGlyphs"
text-anchor="middle" opacity="0">J3</text>
<path d="M38124 46044
L38124 46325
L38142 46381
L38180 46419
L38236 46437
L38274 46437
" />
<path d="M37974 46044
L37730 46044
L37861 46194
L37805 46194
L37768 46212
L37749 46231
L37730 46269
L37730 46362
L37749 46400
L37768 46419
L37805 46437
L37918 46437
L37955 46419
L37974 46400
" />
<text x="64961.5" y="55708.7"
textLength="1145.39" font-size="524.934" lengthAdjust="spacingAndGlyphs"
text-anchor="middle" opacity="0">TC1</text>
<path d="M65458 55296
L65233 55296
" />
<path d="M65345 55689
L65345 55296
" />
<path d="M64877 55652
L64895 55671
L64952 55689
L64989 55689
L65045 55671
L65083 55633
L65102 55596
L65120 55521
L65120 55464
L65102 55389
L65083 55352
L65045 55314
L64989 55296
L64952 55296
L64895 55314
L64877 55333
" />
<path d="M64502 55689
L64727 55689
" />
<path d="M64614 55689
L64614 55296
L64652 55352
L64689 55389
L64727 55408
" />
<text x="47835.5" y="57283.5"
textLength="751.687" font-size="524.934" lengthAdjust="spacingAndGlyphs"
text-anchor="middle" opacity="0">J2</text>
<path d="M47966 56871
L47966 57152
L47985 57208
L48022 57245
L48079 57264
L48116 57264
" />
<path d="M47798 56908
L47779 56889
L47741 56871
L47648 56871
L47610 56889
L47591 56908
L47573 56946
L47573 56983
L47591 57039
L47816 57264
L47573 57264
" />
<text x="64961.5" y="50098.4"
textLength="1276.62" font-size="524.934" lengthAdjust="spacingAndGlyphs"
text-anchor="middle" opacity="0">SW1</text>
<path d="M65486 50060
L65430 50079
L65336 50079
L65298 50060
L65280 50042
L65261 50004
L65261 49967
L65280 49929
L65298 49910
L65336 49892
L65411 49873
L65448 49854
L65467 49835
L65486 49798
L65486 49760
L65467 49723
L65448 49704
L65411 49685
L65317 49685
L65261 49704
" />
<path d="M65130 49685
L65036 50079
L64961 49798
L64886 50079
L64792 49685
" />
<path d="M64436 50079
L64661 50079
" />
<path d="M64549 50079
L64549 49685
L64586 49742
L64624 49779
L64661 49798
" />
<text x="57481.2" y="43892.9"
textLength="1276.62" font-size="524.934" lengthAdjust="spacingAndGlyphs"
text-anchor="middle" opacity="0">SW2</text>
<path d="M58006 43855
L57949 43874
L57856 43874
L57818 43855
L57799 43836
L57781 43799
L57781 43761
L57799 43724
L57818 43705
L57856 43686
L57931 43667
L57968 43649
L57987 43630
L58006 43592
L58006 43555
L57987 43517
L57968 43499
L57931 43480
L57837 43480
L57781 43499
" />
<path d="M57649 43480
L57556 43874
L57481 43592
L57406 43874
L57312 43480
" />
<path d="M57181 43517
L57162 43499
L57124 43480
L57031 43480
L56993 43499
L56974 43517
L56956 43555
L56956 43592
L56974 43649
L57199 43874
L56956 43874
" />
<text x="64961.5" y="43892.9"
textLength="1276.62" font-size="524.934" lengthAdjust="spacingAndGlyphs"
text-anchor="middle" opacity="0">SW3</text>
<path d="M65486 43855
L65430 43874
L65336 43874
L65298 43855
L65280 43836
L65261 43799
L65261 43761
L65280 43724
L65298 43705
L65336 43686
L65411 43667
L65448 43649
L65467 43630
L65486 43592
L65486 43555
L65467 43517
L65448 43499
L65411 43480
L65317 43480
L65261 43499
" />
<path d="M65130 43480
L65036 43874
L64961 43592
L64886 43874
L64792 43480
" />
<path d="M64680 43480
L64436 43480
L64567 43630
L64511 43630
L64474 43649
L64455 43667
L64436 43705
L64436 43799
L64455 43836
L64474 43855
L64511 43874
L64624 43874
L64661 43855
L64680 43836
" />
</g>
<g style="fill:#FFFFFF; fill-opacity:0.0; 
stroke:#FFFFFF; stroke-width:47.2441; stroke-opacity:1; 
stroke-linecap:round; stroke-linejoin:round;">
<text x="56103.2" y="52027.6"
textLength="706.693" font-size="419.947" lengthAdjust="spacingAndGlyphs"
text-anchor="middle" opacity="0">U1</text>
<path d="M56343 51697
L56343 51952
L56328 51982
L56313 51997
L56283 52012
L56223 52012
L56193 51997
L56178 51982
L56163 51952
L56163 51697
" />
<path d="M55848 52012
L56028 52012
" />
<path d="M55938 52012
L55938 51697
L55968 51742
L55998 51772
L56028 51787
" />
</g>
<g style="fill:#FFFFFF; fill-opacity:0.0; 
stroke:#FFFFFF; stroke-width:59.0551; stroke-opacity:1; 
stroke-linecap:round; stroke-linejoin:round;">
<text x="54331.6" y="59940.9"
textLength="848.819" font-size="524.934" lengthAdjust="spacingAndGlyphs"
text-anchor="middle" opacity="0">U2</text>
<path d="M54631 59528
L54631 59847
L54612 59884
L54594 59903
L54556 59922
L54481 59922
L54444 59903
L54425 59884
L54406 59847
L54406 59528
" />
<path d="M54237 59565
L54219 59547
L54181 59528
L54087 59528
L54050 59547
L54031 59565
L54012 59603
L54012 59640
L54031 59697
L54256 59922
L54012 59922
" />
</g>
<g style="fill:#FFFFFF; fill-opacity:0.0; 
stroke:#FFFFFF; stroke-width:47.2441; stroke-opacity:1; 
stroke-linecap:round; stroke-linejoin:round;">
<text x="56103.2" y="54783.5"
textLength="706.693" font-size="419.947" lengthAdjust="spacingAndGlyphs"
text-anchor="middle" opacity="0">U3</text>
<path d="M56343 54453
L56343 54708
L56328 54738
L56313 54753
L56283 54768
L56223 54768
L56193 54753
L56178 54738
L56163 54708
L56163 54453
" />
<path d="M56043 54453
L55848 54453
L55953 54573
L55908 54573
L55878 54588
L55863 54603
L55848 54633
L55848 54708
L55863 54738
L55878 54753
L55908 54768
L55998 54768
L56028 54753
L56043 54738
" />
</g>
<g style="fill:#FFFFFF; fill-opacity:0.0; 
stroke:#FFFFFF; stroke-width:59.0551; stroke-opacity:1; 
stroke-linecap:round; stroke-linejoin:round;">
<text x="41930" y="57283.5"
textLength="736.333" font-size="524.934" lengthAdjust="spacingAndGlyphs"
text-anchor="middle" opacity="0">J4</text>
<path d="M42061 56871
L42061 57152
L42079 57208
L42117 57245
L42173 57264
L42211 57264
" />
<path d="M41705 57002
L41705 57264
" />
<path d="M41798 56852
L41892 57133
L41648 57133
" />
</g>
<g style="fill:#FFFFFF; fill-opacity:0.0; 
stroke:#FFFFFF; stroke-width:47.2441; stroke-opacity:1; 
stroke-linecap:round; stroke-linejoin:round;">
<text x="56103.2" y="57539.4"
textLength="706.693" font-size="419.947" lengthAdjust="spacingAndGlyphs"
text-anchor="middle" opacity="0">U6</text>
<path d="M56343 57209
L56343 57464
L56328 57494
L56313 57509
L56283 57524
L56223 57524
L56193 57509
L56178 57494
L56163 57464
L56163 57209
" />
<path d="M55878 57209
L55938 57209
L55968 57224
L55983 57239
L56013 57284
L56028 57344
L56028 57464
L56013 57494
L55998 57509
L55968 57524
L55908 57524
L55878 57509
L55863 57494
L55848 57464
L55848 57389
L55863 57359
L55878 57344
L55908 57329
L55968 57329
L55998 57344
L56013 57359
L56028 57389
" />
</g>
<g style="fill:#FFFFFF; fill-opacity:0.0; 
stroke:#FFFFFF; stroke-width:59.0551; stroke-opacity:1; 
stroke-linecap:round; stroke-linejoin:round;">
<text x="48819.8" y="44488.2"
textLength="1017.55" font-size="524.934" lengthAdjust="spacingAndGlyphs"
text-anchor="middle" opacity="0">IC2</text>
<path d="M49204 44469
L49204 44075
" />
<path d="M48791 44431
L48810 44450
L48866 44469
L48904 44469
L48960 44450
L48997 44413
L49016 44375
L49035 44300
L49035 44244
L49016 44169
L48997 44131
L48960 44094
L48904 44075
L48866 44075
L48810 44094
L48791 44113
" />
<path d="M48641 44113
L48622 44094
L48585 44075
L48491 44075
L48454 44094
L48435 44113
L48416 44150
L48416 44188
L48435 44244
L48660 44469
L48416 44469
" />
<g >
</g>
</g> 
</svg>
